<?xml version="1.0" encoding="utf-8"?>
<!-- Generator: Adobe Illustrator 16.0.0, SVG Export Plug-In . SVG Version: 6.00 Build 0)  -->
<!DOCTYPE svg PUBLIC "-//W3C//DTD SVG 1.1//EN" "http://www.w3.org/Graphics/SVG/1.1/DTD/svg11.dtd">
<svg version="1.1" id="Layer_1" xmlns="http://www.w3.org/2000/svg" xmlns:xlink="http://www.w3.org/1999/xlink" x="0px" y="0px"
	 width="1462px" height="634px" viewBox="0 0 1462 634" enable-background="new 0 0 1462 634" xml:space="preserve">
<g>
	<path fill="#FFFFFF" d="M190,335h1133V125H190V335z"/>
	<g>
		
			<line fill="none" stroke="#000000" stroke-width="0.6597" stroke-linecap="square" stroke-linejoin="round" stroke-miterlimit="10" x1="190" y1="335" x2="190" y2="130.167"/>
	</g>
	<g transform="translate(180,253) rotate(-90)">
		<path d="M7.672-2.969c0,0.948-0.344,1.706-1.031,2.273C5.953-0.127,4.979,0.156,3.719,0.156c-1.125,0-2.136-0.219-3.031-0.656
			V-2.61C1.198-2.391,1.727-2.188,2.273-2s1.091,0.281,1.633,0.281c0.552,0,0.945-0.109,1.18-0.328S5.438-2.536,5.438-2.86
			c0-0.271-0.091-0.502-0.273-0.695c-0.182-0.192-0.43-0.369-0.742-0.531C4.109-4.247,3.755-4.427,3.359-4.625
			C3.109-4.74,2.839-4.88,2.547-5.047c-0.292-0.166-0.57-0.372-0.836-0.617C1.445-5.908,1.229-6.205,1.063-6.555
			c-0.167-0.349-0.25-0.768-0.25-1.258c0-0.958,0.326-1.705,0.977-2.242c0.651-0.536,1.534-0.805,2.648-0.805
			c0.563,0,1.096,0.065,1.602,0.195c0.505,0.131,1.034,0.315,1.586,0.555L6.891-8.344c-0.49-0.197-0.93-0.352-1.32-0.461
			S4.776-8.969,4.359-8.969c-0.427,0-0.755,0.1-0.984,0.297C3.146-8.474,3.031-8.213,3.031-7.891c0,0.386,0.169,0.688,0.508,0.906
			S4.385-6.5,5.063-6.188c0.542,0.261,1.005,0.531,1.391,0.813s0.685,0.612,0.898,0.992C7.565-4.002,7.672-3.531,7.672-2.969z
			 M12.621-1.641c0.25,0,0.49-0.023,0.719-0.07s0.458-0.106,0.688-0.18v1.672c-0.24,0.094-0.537,0.18-0.891,0.258
			s-0.745,0.117-1.172,0.117c-0.49,0-0.927-0.08-1.313-0.242c-0.385-0.161-0.69-0.439-0.914-0.836
			C9.514-1.318,9.402-1.865,9.402-2.563v-3.953H8.339v-0.938l1.234-0.75l0.641-1.734h1.422v1.75h2.297v1.672h-2.297v3.953
			c0,0.313,0.091,0.545,0.273,0.695C12.092-1.716,12.329-1.641,12.621-1.641z M18.825-8.36c1.104,0,1.948,0.237,2.531,0.711
			c0.583,0.475,0.875,1.206,0.875,2.195V0h-1.563L20.231-1.11h-0.063c-0.344,0.438-0.711,0.758-1.102,0.961
			s-0.924,0.305-1.602,0.305c-0.74,0-1.349-0.213-1.828-0.641c-0.479-0.427-0.719-1.078-0.719-1.953s0.305-1.521,0.914-1.938
			c0.609-0.416,1.529-0.646,2.758-0.688l1.422-0.031v-0.359c0-0.438-0.112-0.755-0.336-0.953c-0.224-0.197-0.539-0.297-0.945-0.297
			c-0.396,0-0.784,0.058-1.164,0.172c-0.38,0.115-0.763,0.256-1.148,0.422l-0.734-1.516c0.448-0.229,0.938-0.408,1.469-0.539
			C17.684-8.294,18.241-8.36,18.825-8.36z M19.137-3.766c-0.719,0.021-1.219,0.151-1.5,0.391c-0.281,0.24-0.422,0.553-0.422,0.938
			c0,0.344,0.102,0.589,0.305,0.734c0.203,0.146,0.461,0.219,0.773,0.219c0.479,0,0.885-0.143,1.219-0.43
			c0.333-0.286,0.5-0.689,0.5-1.211v-0.672L19.137-3.766z M27.683-1.641c0.25,0,0.49-0.023,0.719-0.07s0.458-0.106,0.688-0.18v1.672
			c-0.24,0.094-0.537,0.18-0.891,0.258s-0.745,0.117-1.172,0.117c-0.49,0-0.927-0.08-1.313-0.242
			c-0.385-0.161-0.69-0.439-0.914-0.836c-0.224-0.396-0.336-0.942-0.336-1.641v-3.953h-1.063v-0.938l1.234-0.75l0.641-1.734h1.422
			v1.75h2.297v1.672h-2.297v3.953c0,0.313,0.091,0.545,0.273,0.695C27.154-1.716,27.392-1.641,27.683-1.641z M33.903-8.344
			c1.125,0,2.018,0.323,2.68,0.969c0.662,0.646,0.992,1.563,0.992,2.75v1.078h-5.281c0.021,0.636,0.208,1.133,0.563,1.492
			s0.849,0.539,1.484,0.539c0.531,0,1.01-0.052,1.438-0.156c0.427-0.104,0.87-0.266,1.328-0.484v1.719
			C36.71-0.24,36.288-0.091,35.84,0.008c-0.448,0.1-0.984,0.148-1.609,0.148c-0.823,0-1.549-0.153-2.18-0.461
			c-0.63-0.307-1.125-0.771-1.484-1.391c-0.359-0.619-0.539-1.398-0.539-2.336c0-0.958,0.164-1.755,0.492-2.391
			c0.328-0.635,0.781-1.114,1.359-1.438C32.458-8.182,33.132-8.344,33.903-8.344z M33.918-6.75c-0.427,0-0.784,0.141-1.07,0.422
			s-0.456,0.714-0.508,1.297h3.141c-0.01-0.5-0.141-0.911-0.391-1.234C34.84-6.588,34.45-6.75,33.918-6.75z M44.823-2.438
			c0,0.834-0.294,1.475-0.883,1.922c-0.588,0.448-1.461,0.672-2.617,0.672c-0.573,0-1.063-0.039-1.469-0.117s-0.818-0.2-1.234-0.367
			v-1.844c0.438,0.198,0.912,0.362,1.422,0.492c0.51,0.131,0.963,0.195,1.359,0.195c0.438,0,0.75-0.064,0.938-0.195
			c0.188-0.13,0.281-0.299,0.281-0.508c0-0.146-0.039-0.273-0.117-0.383S42.26-2.805,42.01-2.946s-0.641-0.32-1.172-0.539
			c-0.51-0.219-0.93-0.435-1.258-0.648c-0.328-0.213-0.573-0.474-0.734-0.781c-0.162-0.307-0.242-0.689-0.242-1.148
			c0-0.76,0.294-1.33,0.883-1.711c0.588-0.38,1.377-0.57,2.367-0.57c0.51,0,0.995,0.05,1.453,0.148
			c0.458,0.1,0.932,0.269,1.422,0.508l-0.672,1.594c-0.406-0.166-0.789-0.307-1.148-0.422c-0.359-0.114-0.721-0.172-1.086-0.172
			c-0.667,0-1,0.178-1,0.531c0,0.136,0.044,0.256,0.133,0.359c0.088,0.104,0.255,0.217,0.5,0.336
			c0.245,0.12,0.607,0.279,1.086,0.477c0.469,0.198,0.873,0.398,1.211,0.602s0.602,0.456,0.789,0.758
			C44.729-3.323,44.823-2.927,44.823-2.438z"/>
	</g>
	<path fill="#D98880" d="M189.865,243.203V335h25.515V130.122h-25.515V243.203z M225.349,335h16.315V130.122h-16.315V335z
		 M248.01,335h81.576V130.122H248.01V335z M340.463,335h102.423V130.122H340.463V335z M451.95,335h87.015V130.122H451.95V335z
		 M548.028,335h52.571V130.122h-52.571V335z M606.038,335h21.754V130.122h-21.754V335z M645.92,335h48.039V130.122H645.92V335z
		 M703.023,335h28.098V130.122h-28.098V335z M744.953,335h49.616V130.122h-49.616V335z M800.914,335h29.911V130.122h-29.911V335z
		 M964.066,335h58.01V130.122h-58.01V335z M1040.204,335h106.955V130.122h-106.955V335z"/>
	<path fill="#FDB87D" d="M215.38,335h9.97V130.122h-9.97V335z M241.665,335h6.345V130.122h-6.345V335z M329.586,335h10.877V130.122
		h-10.877V335z M442.885,335h9.064V130.122h-9.064V335z M538.965,335h9.063V130.122h-9.063V335z M600.599,335h5.438V130.122h-5.438
		V335z M627.792,335h18.128V130.122h-18.128V335z M693.959,335h9.064V130.122h-9.064V335z M731.121,335h7.188V130.122h-7.188V335z
		 M794.569,335h6.345V130.122h-6.345V335z M830.825,335h5.438V130.122h-5.438V335z M1022.076,335h4.998V130.122h-4.998V335z"/>
	<path fill="#CBA96E" d="M836.263,335h18.174V130.122h-18.174V335z M908.459,335h16.088V130.122h-16.088V335z M926.677,335h37.39
		V130.122h-37.39V335z M1029.871,335h10.333V130.122h-10.333V335z M1147.159,335h0.317V130.122h-0.317V335z M1215.864,335h2.039
		V130.122h-2.039V335z M1248.086,335h8.067h66.982V144.652v-14.53h-66.982h-8.067V335z M738.308,335h6.645V130.122h-6.645V335z
		 M854.432,335h54.03V130.122h-54.03V335z M924.543,335h2.144V130.122h-2.144V335z M1027.074,335h2.814V130.122h-2.814V335z
		 M1147.453,335h68.424V130.122h-68.424V335z M1217.912,335h30.188V130.122h-30.188V335z"/>
	<path fill="#FFFFFF" d="M190,564h1133V354H190V564z"/>
	<g>
		
			<line fill="none" stroke="#262626" stroke-width="0.6597" stroke-linecap="square" stroke-linejoin="round" stroke-miterlimit="10" x1="190" y1="564" x2="1323" y2="564"/>
		
			<line fill="none" stroke="#262626" stroke-width="0.6597" stroke-linecap="square" stroke-linejoin="round" stroke-miterlimit="10" x1="190" y1="564" x2="190" y2="552.67"/>
		
			<line fill="none" stroke="#262626" stroke-width="0.6597" stroke-linecap="square" stroke-linejoin="round" stroke-miterlimit="10" x1="416.6" y1="564" x2="416.6" y2="552.67"/>
		
			<line fill="none" stroke="#262626" stroke-width="0.6597" stroke-linecap="square" stroke-linejoin="round" stroke-miterlimit="10" x1="643.2" y1="564" x2="643.2" y2="552.67"/>
		
			<line fill="none" stroke="#262626" stroke-width="0.6597" stroke-linecap="square" stroke-linejoin="round" stroke-miterlimit="10" x1="869.801" y1="564" x2="869.801" y2="552.67"/>
		
			<line fill="none" stroke="#262626" stroke-width="0.6597" stroke-linecap="square" stroke-linejoin="round" stroke-miterlimit="10" x1="1096.4" y1="564" x2="1096.4" y2="552.67"/>
		
			<line fill="none" stroke="#262626" stroke-width="0.6597" stroke-linecap="square" stroke-linejoin="round" stroke-miterlimit="10" x1="1323" y1="564" x2="1323" y2="552.67"/>
	</g>
	<g transform="translate(190,569.2778)">
		<path fill="#262626" d="M-10.891,15H-12V8.516c0-0.375,0.003-0.675,0.008-0.898c0.006-0.225,0.019-0.461,0.039-0.711
			c-0.135,0.146-0.26,0.266-0.375,0.359c-0.114,0.094-0.255,0.213-0.422,0.359l-1,0.813l-0.594-0.766l2.516-1.953h0.938V15z
			 M-4.381,9.313c0.948,0,1.703,0.236,2.266,0.711c0.563,0.474,0.844,1.143,0.844,2.008c0,0.969-0.305,1.727-0.914,2.273
			s-1.461,0.82-2.555,0.82c-0.469,0-0.914-0.042-1.336-0.125c-0.422-0.084-0.778-0.209-1.07-0.375v-1.078
			c0.313,0.188,0.693,0.336,1.141,0.445c0.448,0.109,0.875,0.164,1.281,0.164c0.688,0,1.242-0.162,1.664-0.484
			c0.422-0.323,0.633-0.828,0.633-1.516c0-0.604-0.188-1.07-0.563-1.398s-0.963-0.492-1.766-0.492c-0.25,0-0.531,0.021-0.844,0.063
			c-0.313,0.041-0.563,0.088-0.75,0.141l-0.563-0.375l0.344-4.375h4.656v1.047H-5.6l-0.219,2.688
			c0.146-0.031,0.347-0.063,0.602-0.094C-4.961,9.329-4.683,9.313-4.381,9.313z M6.379,10.344c0,1-0.104,1.856-0.313,2.57
			c-0.208,0.713-0.536,1.26-0.984,1.641c-0.447,0.38-1.047,0.57-1.797,0.57c-1.052,0-1.825-0.422-2.32-1.266
			c-0.494-0.844-0.742-2.016-0.742-3.516c0-1,0.102-1.857,0.305-2.57C0.73,7.06,1.056,6.516,1.504,6.141
			c0.448-0.375,1.042-0.563,1.781-0.563c1.042,0,1.818,0.416,2.328,1.25C6.124,7.662,6.379,8.833,6.379,10.344z M1.363,10.344
			c0,1.271,0.146,2.224,0.438,2.859c0.292,0.635,0.787,0.953,1.484,0.953c0.698,0,1.195-0.315,1.492-0.945
			c0.297-0.631,0.445-1.586,0.445-2.867c0-1.261-0.148-2.209-0.445-2.844C4.48,6.865,3.983,6.547,3.285,6.547
			c-0.697,0-1.192,0.317-1.484,0.953C1.51,8.135,1.363,9.083,1.363,10.344z M13.92,10.344c0,1-0.104,1.856-0.313,2.57
			c-0.208,0.713-0.536,1.26-0.984,1.641c-0.447,0.38-1.047,0.57-1.797,0.57c-1.052,0-1.825-0.422-2.32-1.266
			c-0.494-0.844-0.742-2.016-0.742-3.516c0-1,0.102-1.857,0.305-2.57C8.271,7.06,8.597,6.516,9.045,6.141
			c0.448-0.375,1.042-0.563,1.781-0.563c1.042,0,1.818,0.416,2.328,1.25C13.665,7.662,13.92,8.833,13.92,10.344z M8.904,10.344
			c0,1.271,0.146,2.224,0.438,2.859c0.292,0.635,0.787,0.953,1.484,0.953c0.698,0,1.195-0.315,1.492-0.945
			c0.297-0.631,0.445-1.586,0.445-2.867c0-1.261-0.148-2.209-0.445-2.844c-0.297-0.636-0.794-0.953-1.492-0.953
			c-0.697,0-1.192,0.317-1.484,0.953C9.051,8.135,8.904,9.083,8.904,10.344z"/>
	</g>
	<g transform="translate(416.6,569.2778)">
		<path fill="#262626" d="M-8.734,15h-6.141v-0.953l2.438-2.453c0.458-0.469,0.849-0.886,1.172-1.25
			c0.323-0.365,0.567-0.722,0.734-1.07c0.167-0.35,0.25-0.732,0.25-1.148c0-0.511-0.153-0.898-0.461-1.164s-0.7-0.398-1.18-0.398
			c-0.448,0-0.844,0.078-1.188,0.234s-0.692,0.375-1.047,0.656l-0.609-0.766c0.364-0.313,0.781-0.573,1.25-0.781
			c0.469-0.209,1-0.313,1.594-0.313c0.864,0,1.55,0.219,2.055,0.656s0.758,1.041,0.758,1.813c0,0.479-0.102,0.932-0.305,1.359
			c-0.203,0.427-0.481,0.846-0.836,1.258c-0.354,0.411-0.771,0.852-1.25,1.32l-1.938,1.906v0.047h4.703V15z M-1.162,10.344
			c0,1-0.104,1.856-0.313,2.57c-0.208,0.713-0.536,1.26-0.984,1.641c-0.448,0.38-1.047,0.57-1.797,0.57
			c-1.052,0-1.825-0.422-2.32-1.266s-0.742-2.016-0.742-3.516c0-1,0.102-1.857,0.305-2.57C-6.81,7.06-6.485,6.516-6.037,6.141
			s1.042-0.563,1.781-0.563c1.042,0,1.817,0.416,2.328,1.25C-1.417,7.662-1.162,8.833-1.162,10.344z M-6.177,10.344
			c0,1.271,0.146,2.224,0.438,2.859c0.292,0.635,0.786,0.953,1.484,0.953s1.195-0.315,1.492-0.945
			c0.297-0.631,0.445-1.586,0.445-2.867c0-1.261-0.148-2.209-0.445-2.844C-3.06,6.865-3.557,6.547-4.255,6.547
			S-5.448,6.865-5.74,7.5C-6.032,8.135-6.177,9.083-6.177,10.344z M6.379,10.344c0,1-0.104,1.856-0.313,2.57
			c-0.208,0.713-0.536,1.26-0.984,1.641c-0.448,0.38-1.047,0.57-1.797,0.57c-1.052,0-1.825-0.422-2.32-1.266
			s-0.742-2.016-0.742-3.516c0-1,0.102-1.857,0.305-2.57C0.731,7.06,1.056,6.516,1.504,6.141s1.042-0.563,1.781-0.563
			c1.042,0,1.817,0.416,2.328,1.25C6.124,7.662,6.379,8.833,6.379,10.344z M1.364,10.344c0,1.271,0.146,2.224,0.438,2.859
			c0.292,0.635,0.786,0.953,1.484,0.953s1.195-0.315,1.492-0.945c0.297-0.631,0.445-1.586,0.445-2.867
			c0-1.261-0.148-2.209-0.445-2.844C4.481,6.865,3.984,6.547,3.286,6.547S2.093,6.865,1.801,7.5
			C1.509,8.135,1.364,9.083,1.364,10.344z M13.92,10.344c0,1-0.104,1.856-0.313,2.57c-0.208,0.713-0.536,1.26-0.984,1.641
			c-0.448,0.38-1.047,0.57-1.797,0.57c-1.052,0-1.825-0.422-2.32-1.266s-0.742-2.016-0.742-3.516c0-1,0.102-1.857,0.305-2.57
			C8.272,7.06,8.597,6.516,9.045,6.141s1.042-0.563,1.781-0.563c1.042,0,1.817,0.416,2.328,1.25
			C13.665,7.662,13.92,8.833,13.92,10.344z M8.905,10.344c0,1.271,0.146,2.224,0.438,2.859c0.292,0.635,0.786,0.953,1.484,0.953
			s1.195-0.315,1.492-0.945c0.297-0.631,0.445-1.586,0.445-2.867c0-1.261-0.148-2.209-0.445-2.844
			c-0.297-0.636-0.794-0.953-1.492-0.953S9.634,6.865,9.342,7.5C9.05,8.135,8.905,9.083,8.905,10.344z"/>
	</g>
	<g transform="translate(643.2,569.2778)">
		<path fill="#262626" d="M-8.734,15h-6.141v-0.953l2.438-2.453c0.459-0.469,0.85-0.886,1.172-1.25
			c0.323-0.365,0.568-0.722,0.734-1.07c0.167-0.35,0.25-0.732,0.25-1.148c0-0.511-0.153-0.898-0.461-1.164
			c-0.307-0.266-0.7-0.398-1.18-0.398c-0.448,0-0.844,0.078-1.188,0.234s-0.692,0.375-1.047,0.656l-0.609-0.766
			c0.364-0.313,0.781-0.573,1.25-0.781c0.469-0.209,1-0.313,1.594-0.313c0.865,0,1.55,0.219,2.055,0.656s0.758,1.041,0.758,1.813
			c0,0.479-0.102,0.932-0.305,1.359c-0.203,0.427-0.481,0.846-0.836,1.258c-0.354,0.411-0.771,0.852-1.25,1.32l-1.938,1.906v0.047
			h4.703V15z M-4.381,9.313c0.948,0,1.703,0.236,2.266,0.711c0.563,0.474,0.844,1.143,0.844,2.008c0,0.969-0.305,1.727-0.914,2.273
			s-1.461,0.82-2.555,0.82c-0.469,0-0.914-0.042-1.336-0.125c-0.422-0.084-0.778-0.209-1.07-0.375v-1.078
			c0.313,0.188,0.693,0.336,1.141,0.445c0.448,0.109,0.875,0.164,1.281,0.164c0.688,0,1.242-0.162,1.664-0.484
			c0.422-0.323,0.633-0.828,0.633-1.516c0-0.604-0.188-1.07-0.563-1.398s-0.963-0.492-1.766-0.492c-0.25,0-0.531,0.021-0.844,0.063
			c-0.313,0.041-0.563,0.088-0.75,0.141l-0.563-0.375l0.344-4.375h4.656v1.047H-5.6l-0.219,2.688
			c0.146-0.031,0.347-0.063,0.602-0.094C-4.961,9.329-4.683,9.313-4.381,9.313z M6.379,10.344c0,1-0.104,1.856-0.313,2.57
			c-0.208,0.713-0.536,1.26-0.984,1.641c-0.447,0.38-1.047,0.57-1.797,0.57c-1.052,0-1.825-0.422-2.32-1.266
			c-0.494-0.844-0.742-2.016-0.742-3.516c0-1,0.102-1.857,0.305-2.57C0.73,7.06,1.056,6.516,1.504,6.141s1.042-0.563,1.781-0.563
			c1.042,0,1.818,0.416,2.328,1.25C6.124,7.662,6.379,8.833,6.379,10.344z M1.363,10.344c0,1.271,0.146,2.224,0.438,2.859
			c0.292,0.635,0.787,0.953,1.484,0.953c0.698,0,1.195-0.315,1.492-0.945c0.297-0.631,0.445-1.586,0.445-2.867
			c0-1.261-0.148-2.209-0.445-2.844C4.48,6.865,3.983,6.547,3.285,6.547c-0.697,0-1.192,0.317-1.484,0.953
			C1.51,8.135,1.363,9.083,1.363,10.344z M13.92,10.344c0,1-0.104,1.856-0.313,2.57c-0.208,0.713-0.536,1.26-0.984,1.641
			c-0.447,0.38-1.047,0.57-1.797,0.57c-1.052,0-1.825-0.422-2.32-1.266c-0.494-0.844-0.742-2.016-0.742-3.516
			c0-1,0.102-1.857,0.305-2.57C8.271,7.06,8.597,6.516,9.045,6.141s1.042-0.563,1.781-0.563c1.042,0,1.818,0.416,2.328,1.25
			C13.665,7.662,13.92,8.833,13.92,10.344z M8.904,10.344c0,1.271,0.146,2.224,0.438,2.859c0.292,0.635,0.787,0.953,1.484,0.953
			c0.698,0,1.195-0.315,1.492-0.945c0.297-0.631,0.445-1.586,0.445-2.867c0-1.261-0.148-2.209-0.445-2.844
			c-0.297-0.636-0.794-0.953-1.492-0.953c-0.697,0-1.192,0.317-1.484,0.953C9.051,8.135,8.904,9.083,8.904,10.344z"/>
	</g>
	<g transform="translate(869.8,569.2778)">
		<path fill="#262626" d="M-9.093,7.891c0,0.625-0.172,1.122-0.516,1.492c-0.344,0.369-0.813,0.611-1.406,0.727v0.047
			c0.75,0.094,1.305,0.33,1.664,0.711c0.359,0.38,0.539,0.877,0.539,1.492c0,0.541-0.125,1.021-0.375,1.438
			c-0.25,0.416-0.636,0.742-1.156,0.977c-0.521,0.234-1.193,0.352-2.016,0.352c-0.49,0-0.943-0.037-1.359-0.109
			c-0.417-0.073-0.818-0.203-1.203-0.391v-1.063c0.396,0.188,0.817,0.336,1.266,0.445c0.447,0.109,0.88,0.164,1.297,0.164
			c0.833,0,1.435-0.164,1.805-0.492c0.369-0.328,0.555-0.779,0.555-1.352c0-0.573-0.227-0.987-0.68-1.242
			c-0.453-0.256-1.092-0.383-1.914-0.383h-0.906V9.719h0.906c0.771,0,1.352-0.159,1.742-0.477c0.391-0.318,0.586-0.742,0.586-1.273
			c0-0.448-0.151-0.797-0.453-1.047c-0.303-0.25-0.714-0.375-1.234-0.375c-0.5,0-0.928,0.072-1.281,0.219
			c-0.354,0.146-0.709,0.333-1.063,0.563l-0.563-0.781c0.322-0.261,0.729-0.484,1.219-0.672c0.489-0.188,1.047-0.281,1.672-0.281
			c0.969,0,1.689,0.216,2.164,0.648C-9.33,6.674-9.093,7.224-9.093,7.891z M-1.161,10.344c0,1-0.104,1.856-0.313,2.57
			c-0.209,0.713-0.537,1.26-0.984,1.641c-0.448,0.38-1.047,0.57-1.797,0.57c-1.053,0-1.826-0.422-2.32-1.266
			c-0.495-0.844-0.742-2.016-0.742-3.516c0-1,0.102-1.857,0.305-2.57C-6.81,7.06-6.485,6.516-6.036,6.141
			c0.447-0.375,1.041-0.563,1.781-0.563c1.041,0,1.817,0.416,2.328,1.25C-1.417,7.662-1.161,8.833-1.161,10.344z M-6.177,10.344
			c0,1.271,0.146,2.224,0.438,2.859c0.291,0.635,0.786,0.953,1.484,0.953c0.697,0,1.195-0.315,1.492-0.945
			c0.297-0.631,0.445-1.586,0.445-2.867c0-1.261-0.148-2.209-0.445-2.844C-3.06,6.865-3.558,6.547-4.255,6.547
			c-0.698,0-1.193,0.317-1.484,0.953C-6.032,8.135-6.177,9.083-6.177,10.344z M6.38,10.344c0,1-0.104,1.856-0.313,2.57
			c-0.209,0.713-0.537,1.26-0.984,1.641c-0.448,0.38-1.047,0.57-1.797,0.57c-1.053,0-1.826-0.422-2.32-1.266
			c-0.495-0.844-0.742-2.016-0.742-3.516c0-1,0.102-1.857,0.305-2.57C0.731,7.06,1.056,6.516,1.505,6.141
			c0.447-0.375,1.041-0.563,1.781-0.563c1.041,0,1.817,0.416,2.328,1.25C6.124,7.662,6.38,8.833,6.38,10.344z M1.364,10.344
			c0,1.271,0.146,2.224,0.438,2.859c0.291,0.635,0.786,0.953,1.484,0.953c0.697,0,1.195-0.315,1.492-0.945
			c0.297-0.631,0.445-1.586,0.445-2.867c0-1.261-0.148-2.209-0.445-2.844C4.481,6.865,3.983,6.547,3.286,6.547
			c-0.698,0-1.193,0.317-1.484,0.953C1.509,8.135,1.364,9.083,1.364,10.344z M13.921,10.344c0,1-0.104,1.856-0.313,2.57
			c-0.209,0.713-0.537,1.26-0.984,1.641c-0.448,0.38-1.047,0.57-1.797,0.57c-1.053,0-1.826-0.422-2.32-1.266
			c-0.495-0.844-0.742-2.016-0.742-3.516c0-1,0.102-1.857,0.305-2.57C8.272,7.06,8.597,6.516,9.046,6.141
			c0.447-0.375,1.041-0.563,1.781-0.563c1.041,0,1.817,0.416,2.328,1.25C13.665,7.662,13.921,8.833,13.921,10.344z M8.905,10.344
			c0,1.271,0.146,2.224,0.438,2.859c0.291,0.635,0.786,0.953,1.484,0.953c0.697,0,1.195-0.315,1.492-0.945
			c0.297-0.631,0.445-1.586,0.445-2.867c0-1.261-0.148-2.209-0.445-2.844c-0.297-0.636-0.795-0.953-1.492-0.953
			c-0.698,0-1.193,0.317-1.484,0.953C9.05,8.135,8.905,9.083,8.905,10.344z"/>
	</g>
	<g transform="translate(1096.4,569.2778)">
		<path fill="#262626" d="M-9.094,7.891c0,0.625-0.172,1.122-0.516,1.492c-0.344,0.369-0.813,0.611-1.406,0.727v0.047
			c0.75,0.094,1.305,0.33,1.664,0.711c0.359,0.38,0.539,0.877,0.539,1.492c0,0.541-0.125,1.021-0.375,1.438
			c-0.25,0.416-0.635,0.742-1.156,0.977c-0.521,0.234-1.192,0.352-2.016,0.352c-0.489,0-0.942-0.037-1.359-0.109
			c-0.417-0.073-0.817-0.203-1.203-0.391v-1.063c0.396,0.188,0.818,0.336,1.266,0.445c0.448,0.109,0.88,0.164,1.297,0.164
			c0.833,0,1.436-0.164,1.805-0.492c0.37-0.328,0.555-0.779,0.555-1.352c0-0.573-0.227-0.987-0.68-1.242
			c-0.453-0.256-1.091-0.383-1.914-0.383H-13.5V9.719h0.906c0.771,0,1.352-0.159,1.742-0.477c0.391-0.318,0.586-0.742,0.586-1.273
			c0-0.448-0.15-0.797-0.453-1.047c-0.302-0.25-0.713-0.375-1.234-0.375c-0.5,0-0.927,0.072-1.281,0.219
			c-0.354,0.146-0.708,0.333-1.063,0.563l-0.563-0.781c0.323-0.261,0.729-0.484,1.219-0.672c0.49-0.188,1.047-0.281,1.672-0.281
			c0.969,0,1.69,0.216,2.164,0.648C-9.331,6.674-9.094,7.224-9.094,7.891z M-4.381,9.313c0.948,0,1.703,0.236,2.266,0.711
			c0.563,0.474,0.844,1.143,0.844,2.008c0,0.969-0.305,1.727-0.914,2.273s-1.461,0.82-2.555,0.82c-0.469,0-0.914-0.042-1.336-0.125
			c-0.422-0.084-0.778-0.209-1.07-0.375v-1.078c0.313,0.188,0.693,0.336,1.141,0.445c0.448,0.109,0.875,0.164,1.281,0.164
			c0.688,0,1.242-0.162,1.664-0.484c0.422-0.323,0.633-0.828,0.633-1.516c0-0.604-0.188-1.07-0.563-1.398s-0.963-0.492-1.766-0.492
			c-0.25,0-0.531,0.021-0.844,0.063c-0.313,0.041-0.563,0.088-0.75,0.141l-0.563-0.375l0.344-4.375h4.656v1.047h-3.688l-0.219,2.688
			c0.146-0.031,0.347-0.063,0.602-0.094C-4.961,9.329-4.682,9.313-4.381,9.313z M6.379,10.344c0,1-0.104,1.856-0.313,2.57
			c-0.208,0.713-0.536,1.26-0.984,1.641c-0.447,0.38-1.047,0.57-1.797,0.57c-1.052,0-1.825-0.422-2.32-1.266
			c-0.494-0.844-0.742-2.016-0.742-3.516c0-1,0.102-1.857,0.305-2.57C0.731,7.06,1.056,6.516,1.504,6.141s1.042-0.563,1.781-0.563
			c1.042,0,1.818,0.416,2.328,1.25C6.124,7.662,6.379,8.833,6.379,10.344z M1.364,10.344c0,1.271,0.146,2.224,0.438,2.859
			c0.292,0.635,0.787,0.953,1.484,0.953c0.698,0,1.195-0.315,1.492-0.945c0.297-0.631,0.445-1.586,0.445-2.867
			c0-1.261-0.148-2.209-0.445-2.844C4.481,6.865,3.984,6.547,3.285,6.547c-0.697,0-1.192,0.317-1.484,0.953
			C1.51,8.135,1.364,9.083,1.364,10.344z M13.92,10.344c0,1-0.104,1.856-0.313,2.57c-0.208,0.713-0.536,1.26-0.984,1.641
			c-0.447,0.38-1.047,0.57-1.797,0.57c-1.052,0-1.825-0.422-2.32-1.266c-0.494-0.844-0.742-2.016-0.742-3.516
			c0-1,0.102-1.857,0.305-2.57C8.272,7.06,8.597,6.516,9.045,6.141s1.042-0.563,1.781-0.563c1.042,0,1.818,0.416,2.328,1.25
			C13.665,7.662,13.92,8.833,13.92,10.344z M8.905,10.344c0,1.271,0.146,2.224,0.438,2.859c0.292,0.635,0.787,0.953,1.484,0.953
			c0.698,0,1.195-0.315,1.492-0.945c0.297-0.631,0.445-1.586,0.445-2.867c0-1.261-0.148-2.209-0.445-2.844
			c-0.297-0.636-0.794-0.953-1.492-0.953c-0.697,0-1.192,0.317-1.484,0.953C9.051,8.135,8.905,9.083,8.905,10.344z"/>
	</g>
	<g transform="translate(1323,569.2778)">
		<path fill="#262626" d="M-8.328,12.891h-1.344V15h-1.109v-2.109h-4.453v-0.969l4.375-6.25h1.188v6.188h1.344V12.891z
			 M-10.781,8.938c0-0.448,0.008-0.831,0.023-1.148c0.016-0.318,0.029-0.617,0.039-0.898h-0.047
			c-0.072,0.166-0.161,0.344-0.266,0.531c-0.104,0.188-0.203,0.349-0.297,0.484l-2.781,3.953h3.328V8.938z M-1.162,10.344
			c0,1-0.104,1.856-0.313,2.57c-0.208,0.713-0.536,1.26-0.984,1.641c-0.447,0.38-1.047,0.57-1.797,0.57
			c-1.052,0-1.825-0.422-2.32-1.266c-0.494-0.844-0.742-2.016-0.742-3.516c0-1,0.102-1.857,0.305-2.57
			c0.203-0.714,0.529-1.258,0.977-1.633c0.448-0.375,1.042-0.563,1.781-0.563c1.042,0,1.818,0.416,2.328,1.25
			C-1.417,7.662-1.162,8.833-1.162,10.344z M-6.178,10.344c0,1.271,0.146,2.224,0.438,2.859c0.292,0.635,0.787,0.953,1.484,0.953
			c0.698,0,1.195-0.315,1.492-0.945c0.297-0.631,0.445-1.586,0.445-2.867c0-1.261-0.148-2.209-0.445-2.844
			c-0.297-0.636-0.794-0.953-1.492-0.953c-0.697,0-1.192,0.317-1.484,0.953C-6.031,8.135-6.178,9.083-6.178,10.344z M6.379,10.344
			c0,1-0.104,1.856-0.313,2.57c-0.208,0.713-0.536,1.26-0.984,1.641c-0.447,0.38-1.047,0.57-1.797,0.57
			c-1.052,0-1.825-0.422-2.32-1.266c-0.494-0.844-0.742-2.016-0.742-3.516c0-1,0.102-1.857,0.305-2.57
			C0.73,7.06,1.057,6.516,1.504,6.141c0.448-0.375,1.042-0.563,1.781-0.563c1.042,0,1.818,0.416,2.328,1.25
			C6.124,7.662,6.379,8.833,6.379,10.344z M1.363,10.344c0,1.271,0.146,2.224,0.438,2.859c0.292,0.635,0.787,0.953,1.484,0.953
			c0.698,0,1.195-0.315,1.492-0.945c0.297-0.631,0.445-1.586,0.445-2.867c0-1.261-0.148-2.209-0.445-2.844
			C4.48,6.865,3.983,6.547,3.285,6.547c-0.697,0-1.192,0.317-1.484,0.953C1.51,8.135,1.363,9.083,1.363,10.344z M13.92,10.344
			c0,1-0.104,1.856-0.313,2.57c-0.208,0.713-0.536,1.26-0.984,1.641c-0.447,0.38-1.047,0.57-1.797,0.57
			c-1.052,0-1.825-0.422-2.32-1.266c-0.494-0.844-0.742-2.016-0.742-3.516c0-1,0.102-1.857,0.305-2.57
			C8.271,7.06,8.598,6.516,9.045,6.141c0.448-0.375,1.042-0.563,1.781-0.563c1.042,0,1.818,0.416,2.328,1.25
			C13.665,7.662,13.92,8.833,13.92,10.344z M8.904,10.344c0,1.271,0.146,2.224,0.438,2.859c0.292,0.635,0.787,0.953,1.484,0.953
			c0.698,0,1.195-0.315,1.492-0.945c0.297-0.631,0.445-1.586,0.445-2.867c0-1.261-0.148-2.209-0.445-2.844
			c-0.297-0.636-0.794-0.953-1.492-0.953c-0.697,0-1.192,0.317-1.484,0.953C9.051,8.135,8.904,9.083,8.904,10.344z"/>
	</g>
	<g transform="translate(756.5005,589.5972)">
		<path fill="#262626" d="M-21.656,16H-23V6.468h-3.344V5.296h8.016v1.172h-3.328V16z M-16.478,4.937
			c0.198,0,0.375,0.068,0.531,0.203c0.156,0.136,0.234,0.35,0.234,0.641c0,0.281-0.078,0.492-0.234,0.633s-0.333,0.211-0.531,0.211
			c-0.219,0-0.403-0.07-0.555-0.211s-0.227-0.352-0.227-0.633c0-0.291,0.075-0.505,0.227-0.641
			C-16.881,5.005-16.697,4.937-16.478,4.937z M-15.838,7.953V16h-1.313V7.953H-15.838z M-4.594,7.812
			c0.906,0,1.587,0.232,2.04,0.695c0.452,0.464,0.679,1.217,0.679,2.258V16h-1.313v-5.172c0-1.271-0.541-1.906-1.625-1.906
			c-0.781,0-1.341,0.225-1.679,0.672c-0.339,0.448-0.509,1.104-0.509,1.969V16h-1.296v-5.172c0-1.271-0.553-1.906-1.657-1.906
			c-0.802,0-1.359,0.25-1.672,0.75s-0.469,1.219-0.469,2.156V16h-1.313V7.953h1.063l0.188,1.109h0.078
			c0.25-0.427,0.589-0.742,1.016-0.945c0.428-0.203,0.881-0.305,1.359-0.305c1.261,0,2.078,0.448,2.453,1.344h0.079
			c0.271-0.458,0.638-0.797,1.101-1.016C-5.607,7.921-5.115,7.812-4.594,7.812z M3.255,7.812c0.698,0,1.294,0.148,1.789,0.445
			s0.872,0.719,1.133,1.266s0.391,1.186,0.391,1.914v0.797h-5.5c0.021,0.906,0.255,1.6,0.703,2.078
			c0.448,0.479,1.067,0.719,1.859,0.719c0.511,0,0.964-0.049,1.359-0.148c0.396-0.099,0.802-0.236,1.219-0.414v1.156
			c-0.406,0.178-0.81,0.311-1.211,0.398c-0.401,0.089-0.878,0.133-1.43,0.133c-0.75,0-1.419-0.156-2.008-0.469
			s-1.044-0.775-1.367-1.391c-0.323-0.614-0.484-1.364-0.484-2.25c0-0.885,0.146-1.643,0.438-2.273
			c0.292-0.63,0.706-1.114,1.242-1.453C1.924,7.982,2.547,7.812,3.255,7.812z M3.24,8.89c-0.625,0-1.12,0.203-1.484,0.609
			s-0.583,0.969-0.656,1.688h4.094C5.182,10.51,5.024,9.958,4.716,9.531C4.409,9.104,3.916,8.89,3.24,8.89z M11.431,11.89
			c0-1.219,0.18-2.396,0.539-3.531c0.359-1.135,0.92-2.156,1.68-3.063h1.234c-0.697,0.938-1.224,1.972-1.578,3.102
			c-0.354,1.131-0.531,2.289-0.531,3.477c0,1.156,0.178,2.292,0.531,3.406c0.354,1.115,0.875,2.146,1.563,3.094H13.65
			c-0.76-0.885-1.32-1.885-1.68-3C11.611,14.26,11.431,13.099,11.431,11.89z M21.706,13.781c0,0.781-0.292,1.373-0.875,1.773
			c-0.583,0.401-1.364,0.602-2.344,0.602c-0.563,0-1.044-0.047-1.445-0.141s-0.758-0.219-1.07-0.375v-1.203
			c0.323,0.167,0.711,0.315,1.164,0.445c0.453,0.131,0.914,0.195,1.383,0.195c0.667,0,1.151-0.106,1.453-0.32
			c0.302-0.213,0.453-0.497,0.453-0.852c0-0.208-0.055-0.391-0.164-0.547s-0.308-0.314-0.594-0.477
			c-0.286-0.161-0.695-0.341-1.227-0.539c-0.521-0.197-0.966-0.398-1.336-0.602s-0.653-0.445-0.852-0.727s-0.297-0.641-0.297-1.078
			c0-0.677,0.278-1.2,0.836-1.57c0.558-0.369,1.284-0.555,2.18-0.555c0.489,0,0.948,0.047,1.375,0.141s0.823,0.225,1.188,0.391
			l-0.453,1.063c-0.333-0.146-0.685-0.268-1.055-0.367c-0.37-0.099-0.753-0.148-1.148-0.148c-0.542,0-0.953,0.089-1.234,0.266
			c-0.281,0.178-0.422,0.412-0.422,0.703c0,0.219,0.065,0.406,0.195,0.563s0.347,0.308,0.648,0.453
			c0.302,0.146,0.708,0.318,1.219,0.516c0.511,0.198,0.945,0.396,1.305,0.594c0.359,0.198,0.636,0.44,0.828,0.727
			C21.61,12.998,21.706,13.354,21.706,13.781z M26.048,11.89c0,1.209-0.18,2.37-0.539,3.484c-0.359,1.115-0.92,2.115-1.68,3h-1.219
			c0.688-0.947,1.208-1.979,1.563-3.094c0.354-1.114,0.531-2.25,0.531-3.406c0-1.188-0.178-2.346-0.531-3.477
			c-0.354-1.13-0.881-2.164-1.578-3.102h1.234c0.76,0.906,1.32,1.928,1.68,3.063C25.869,9.495,26.048,10.671,26.048,11.89z"/>
	</g>
	<g>
		
			<line fill="none" stroke="#262626" stroke-width="0.6597" stroke-linecap="square" stroke-linejoin="round" stroke-miterlimit="10" x1="190" y1="564" x2="190" y2="354"/>
		
			<line fill="none" stroke="#262626" stroke-width="0.6597" stroke-linecap="square" stroke-linejoin="round" stroke-miterlimit="10" x1="190" y1="564" x2="201.33" y2="564"/>
		
			<line fill="none" stroke="#262626" stroke-width="0.6597" stroke-linecap="square" stroke-linejoin="round" stroke-miterlimit="10" x1="190" y1="529" x2="201.33" y2="529"/>
		
			<line fill="none" stroke="#262626" stroke-width="0.6597" stroke-linecap="square" stroke-linejoin="round" stroke-miterlimit="10" x1="190" y1="494" x2="201.33" y2="494"/>
		
			<line fill="none" stroke="#262626" stroke-width="0.6597" stroke-linecap="square" stroke-linejoin="round" stroke-miterlimit="10" x1="190" y1="459" x2="201.33" y2="459"/>
		
			<line fill="none" stroke="#262626" stroke-width="0.6597" stroke-linecap="square" stroke-linejoin="round" stroke-miterlimit="10" x1="190" y1="424" x2="201.33" y2="424"/>
		
			<line fill="none" stroke="#262626" stroke-width="0.6597" stroke-linecap="square" stroke-linejoin="round" stroke-miterlimit="10" x1="190" y1="389" x2="201.33" y2="389"/>
		
			<line fill="none" stroke="#262626" stroke-width="0.6597" stroke-linecap="square" stroke-linejoin="round" stroke-miterlimit="10" x1="190" y1="354" x2="201.33" y2="354"/>
	</g>
	<g transform="translate(184.7222,564)">
		<path fill="#262626" d="M-1.203,0.844c0,1-0.104,1.856-0.313,2.57S-2.052,4.675-2.5,5.055c-0.448,0.38-1.047,0.57-1.797,0.57
			c-1.053,0-1.826-0.422-2.32-1.266c-0.495-0.844-0.742-2.016-0.742-3.516c0-1,0.102-1.856,0.305-2.57s0.528-1.258,0.977-1.633
			s1.042-0.563,1.781-0.563c1.041,0,1.817,0.417,2.328,1.25C-1.459-1.839-1.203-0.667-1.203,0.844z M-6.218,0.844
			c0,1.271,0.146,2.224,0.438,2.859c0.291,0.636,0.786,0.953,1.484,0.953c0.697,0,1.195-0.315,1.492-0.945s0.445-1.586,0.445-2.867
			c0-1.261-0.148-2.208-0.445-2.844s-0.795-0.953-1.492-0.953C-4.995-2.953-5.49-2.636-5.781-2
			C-6.073-1.364-6.218-0.417-6.218,0.844z"/>
	</g>
	<g transform="translate(184.7222,529)">
		<path fill="#262626" d="M-3.39,5.5H-4.5v-6.484c0-0.375,0.002-0.675,0.008-0.898c0.005-0.224,0.018-0.461,0.039-0.711
			c-0.136,0.146-0.261,0.266-0.375,0.359C-4.943-2.141-5.084-2.021-5.25-1.875l-1,0.813l-0.594-0.766l2.516-1.953h0.938V5.5z"/>
	</g>
	<g transform="translate(184.7222,494)">
		<path fill="#262626" d="M-1.234,5.5h-6.141V4.547l2.438-2.453c0.458-0.469,0.849-0.886,1.172-1.25s0.567-0.722,0.734-1.07
			s0.25-0.731,0.25-1.148c0-0.511-0.153-0.898-0.461-1.164s-0.701-0.398-1.18-0.398c-0.448,0-0.844,0.078-1.188,0.234
			s-0.693,0.375-1.047,0.656l-0.609-0.766c0.364-0.313,0.781-0.573,1.25-0.781s1-0.313,1.594-0.313c0.864,0,1.549,0.219,2.055,0.656
			c0.505,0.438,0.758,1.042,0.758,1.813c0,0.479-0.102,0.933-0.305,1.359S-2.396,0.769-2.75,1.18C-3.104,1.591-3.52,2.031-4,2.5
			l-1.938,1.906v0.047h4.703V5.5z"/>
	</g>
	<g transform="translate(184.7222,459)">
		<path fill="#262626" d="M-1.593-1.609c0,0.625-0.172,1.122-0.516,1.492s-0.813,0.612-1.406,0.727v0.047
			c0.75,0.094,1.305,0.331,1.664,0.711s0.539,0.878,0.539,1.492c0,0.542-0.125,1.021-0.375,1.438s-0.636,0.742-1.156,0.977
			c-0.521,0.234-1.193,0.352-2.016,0.352c-0.49,0-0.943-0.036-1.359-0.109c-0.417-0.073-0.818-0.203-1.203-0.391V4.063
			c0.396,0.188,0.817,0.336,1.266,0.445c0.447,0.109,0.88,0.164,1.297,0.164c0.833,0,1.435-0.164,1.805-0.492
			C-2.685,3.852-2.5,3.401-2.5,2.828s-0.227-0.987-0.68-1.242s-1.092-0.383-1.914-0.383H-6V0.219h0.906
			c0.771,0,1.352-0.159,1.742-0.477S-2.765-1-2.765-1.531c0-0.448-0.151-0.797-0.453-1.047c-0.303-0.25-0.714-0.375-1.234-0.375
			c-0.5,0-0.928,0.073-1.281,0.219c-0.354,0.146-0.709,0.333-1.063,0.563l-0.563-0.781C-7.037-3.214-6.63-3.438-6.14-3.625
			c0.489-0.188,1.047-0.281,1.672-0.281c0.969,0,1.689,0.216,2.164,0.648C-1.831-2.825-1.593-2.276-1.593-1.609z"/>
	</g>
	<g transform="translate(184.7222,424)">
		<path fill="#262626" d="M-0.828,3.391h-1.344V5.5h-1.109V3.391h-4.453V2.422l4.375-6.25h1.188v6.188h1.344V3.391z M-3.281-0.563
			c0-0.448,0.008-0.831,0.023-1.148s0.028-0.617,0.039-0.898h-0.047c-0.073,0.167-0.162,0.344-0.266,0.531
			c-0.104,0.188-0.203,0.349-0.297,0.484l-2.781,3.953h3.328V-0.563z"/>
	</g>
	<g transform="translate(184.7222,389)">
		<path fill="#262626" d="M-4.422-0.188c0.947,0,1.703,0.236,2.266,0.711s0.844,1.143,0.844,2.008c0,0.969-0.305,1.727-0.914,2.273
			s-1.461,0.82-2.555,0.82c-0.469,0-0.914-0.041-1.336-0.125s-0.779-0.209-1.07-0.375V4.047c0.313,0.188,0.692,0.336,1.141,0.445
			c0.447,0.109,0.875,0.164,1.281,0.164c0.688,0,1.242-0.162,1.664-0.484s0.633-0.828,0.633-1.516c0-0.604-0.188-1.07-0.563-1.398
			s-0.964-0.492-1.766-0.492c-0.25,0-0.531,0.021-0.844,0.063c-0.313,0.041-0.563,0.088-0.75,0.141l-0.563-0.375l0.344-4.375h4.656
			v1.047H-5.64l-0.219,2.688c0.146-0.031,0.347-0.063,0.602-0.094S-4.724-0.188-4.422-0.188z"/>
	</g>
	<g transform="translate(184.7222,354)">
		<path fill="#262626" d="M-7.281,1.531c0-0.667,0.058-1.323,0.172-1.969s0.325-1.229,0.633-1.75
			c0.307-0.521,0.739-0.938,1.297-1.25c0.557-0.313,1.273-0.469,2.148-0.469c0.177,0,0.377,0.008,0.602,0.023
			c0.224,0.016,0.403,0.044,0.539,0.086v0.984C-2.047-2.865-2.221-2.904-2.414-2.93c-0.193-0.026-0.394-0.039-0.602-0.039
			c-0.594,0-1.089,0.099-1.484,0.297c-0.396,0.197-0.711,0.469-0.945,0.813s-0.404,0.742-0.508,1.195
			C-6.057-0.211-6.12,0.271-6.14,0.781h0.078c0.197-0.303,0.474-0.561,0.828-0.773c0.354-0.213,0.813-0.32,1.375-0.32
			c0.802,0,1.45,0.244,1.945,0.734c0.494,0.489,0.742,1.188,0.742,2.094c0,0.969-0.269,1.729-0.805,2.281
			C-2.512,5.35-3.229,5.625-4.125,5.625c-0.594,0-1.128-0.146-1.602-0.438c-0.475-0.291-0.852-0.742-1.133-1.352
			S-7.281,2.459-7.281,1.531z M-4.14,4.672c0.552,0,0.994-0.178,1.328-0.531c0.333-0.354,0.5-0.896,0.5-1.625
			c0-0.594-0.148-1.063-0.445-1.406S-3.5,0.594-4.093,0.594c-0.417,0-0.776,0.084-1.078,0.25c-0.303,0.167-0.537,0.381-0.703,0.641
			c-0.167,0.26-0.25,0.525-0.25,0.797c0,0.375,0.072,0.748,0.219,1.117c0.146,0.369,0.367,0.674,0.664,0.914
			S-4.578,4.672-4.14,4.672z"/>
	</g>
	<g transform="translate(168,481) rotate(-90)">
		<path fill="#262626" d="M7.672-2.969c0,0.948-0.344,1.706-1.031,2.273C5.953-0.127,4.979,0.156,3.719,0.156
			c-1.125,0-2.136-0.219-3.031-0.656v-2.109C1.198-2.391,1.727-2.188,2.273-2s1.091,0.281,1.633,0.281
			c0.552,0,0.945-0.109,1.18-0.328s0.352-0.489,0.352-0.813c0-0.271-0.091-0.502-0.273-0.695c-0.183-0.192-0.43-0.369-0.742-0.531
			C4.109-4.247,3.755-4.427,3.359-4.625C3.109-4.739,2.839-4.88,2.547-5.047c-0.292-0.166-0.57-0.372-0.836-0.617
			C1.445-5.908,1.229-6.205,1.063-6.555c-0.167-0.349-0.25-0.768-0.25-1.258c0-0.958,0.325-1.705,0.977-2.242
			c0.651-0.536,1.534-0.805,2.648-0.805c0.563,0,1.097,0.065,1.602,0.195c0.505,0.131,1.034,0.315,1.586,0.555L6.891-8.344
			c-0.489-0.197-0.93-0.352-1.32-0.461S4.776-8.969,4.359-8.969c-0.427,0-0.755,0.1-0.984,0.297
			C3.146-8.474,3.031-8.213,3.031-7.891c0,0.386,0.169,0.688,0.508,0.906S4.386-6.5,5.063-6.188
			c0.542,0.261,1.005,0.531,1.391,0.813s0.685,0.612,0.898,0.992C7.565-4.002,7.672-3.531,7.672-2.969z M13.729-8.344
			c0.917,0,1.659,0.359,2.227,1.078c0.568,0.719,0.852,1.771,0.852,3.156c0,1.386-0.294,2.443-0.883,3.172
			c-0.588,0.729-1.341,1.094-2.258,1.094c-0.594,0-1.064-0.109-1.414-0.328c-0.349-0.219-0.633-0.463-0.852-0.734h-0.125
			c0.084,0.428,0.125,0.828,0.125,1.203v3.297H9.167V-8.188h1.813l0.313,1.063h0.109c0.219-0.333,0.514-0.619,0.883-0.859
			C12.654-8.224,13.136-8.344,13.729-8.344z M13.011-6.563c-0.583,0-0.992,0.183-1.227,0.547c-0.234,0.365-0.361,0.917-0.383,1.656
			v0.234c0,0.792,0.117,1.398,0.352,1.82s0.664,0.633,1.289,0.633c0.511,0,0.889-0.211,1.133-0.633
			c0.245-0.422,0.367-1.033,0.367-1.836C14.542-5.755,14.032-6.563,13.011-6.563z M21.728-8.344c1.125,0,2.019,0.323,2.68,0.969
			c0.662,0.646,0.992,1.563,0.992,2.75v1.078h-5.281c0.021,0.636,0.209,1.133,0.563,1.492c0.354,0.359,0.85,0.539,1.484,0.539
			c0.531,0,1.011-0.052,1.438-0.156c0.428-0.104,0.87-0.266,1.328-0.484v1.719c-0.396,0.198-0.817,0.347-1.266,0.445
			c-0.447,0.1-0.984,0.148-1.609,0.148c-0.822,0-1.549-0.153-2.18-0.461c-0.63-0.307-1.125-0.771-1.484-1.391
			c-0.359-0.619-0.539-1.398-0.539-2.336c0-0.958,0.164-1.755,0.492-2.391c0.328-0.635,0.781-1.114,1.359-1.438
			C20.282-8.182,20.957-8.344,21.728-8.344z M21.743-6.75c-0.427,0-0.783,0.141-1.07,0.422c-0.286,0.281-0.455,0.714-0.508,1.297
			h3.141c-0.01-0.5-0.141-0.911-0.391-1.234C22.665-6.588,22.274-6.75,21.743-6.75z M30.304-8.344c1.125,0,2.019,0.323,2.68,0.969
			c0.662,0.646,0.992,1.563,0.992,2.75v1.078h-5.281c0.021,0.636,0.209,1.133,0.563,1.492c0.354,0.359,0.85,0.539,1.484,0.539
			c0.531,0,1.011-0.052,1.438-0.156c0.428-0.104,0.87-0.266,1.328-0.484v1.719c-0.396,0.198-0.817,0.347-1.266,0.445
			c-0.447,0.1-0.984,0.148-1.609,0.148c-0.822,0-1.549-0.153-2.18-0.461c-0.63-0.307-1.125-0.771-1.484-1.391
			c-0.359-0.619-0.539-1.398-0.539-2.336c0-0.958,0.164-1.755,0.492-2.391c0.328-0.635,0.781-1.114,1.359-1.438
			C28.858-8.182,29.533-8.344,30.304-8.344z M30.319-6.75c-0.427,0-0.783,0.141-1.07,0.422c-0.286,0.281-0.455,0.714-0.508,1.297
			h3.141c-0.01-0.5-0.141-0.911-0.391-1.234C31.241-6.588,30.851-6.75,30.319-6.75z M38.099,0.156c-0.906,0-1.648-0.359-2.227-1.078
			s-0.867-1.771-0.867-3.156c0-1.406,0.292-2.469,0.875-3.188c0.584-0.719,1.344-1.078,2.281-1.078c0.584,0,1.065,0.115,1.445,0.344
			c0.381,0.229,0.686,0.516,0.914,0.859h0.063c-0.031-0.156-0.064-0.388-0.102-0.695c-0.036-0.307-0.055-0.622-0.055-0.945v-2.625
			h2.234V0h-1.719l-0.422-1.063h-0.094c-0.219,0.334-0.513,0.62-0.883,0.859C39.175,0.037,38.692,0.156,38.099,0.156z M38.88-1.641
			c0.615,0,1.047-0.182,1.297-0.547c0.25-0.364,0.381-0.911,0.391-1.641v-0.234c0-0.802-0.122-1.414-0.367-1.836
			c-0.244-0.422-0.695-0.633-1.352-0.633c-0.489,0-0.875,0.214-1.156,0.641c-0.281,0.428-0.422,1.042-0.422,1.844
			c0,0.803,0.141,1.404,0.422,1.805C37.974-1.841,38.37-1.641,38.88-1.641z"/>
	</g>
	<g transform="translate(190,350)">
		<path fill="#262626" d="M1.906-0.375c0-0.063,0.021-0.125,0.063-0.188L4.672-3.25L1.969-5.953c-0.041-0.041-0.063-0.1-0.063-0.172
			c0-0.063,0.026-0.123,0.078-0.18c0.053-0.057,0.115-0.086,0.188-0.086c0.063,0,0.131,0.031,0.203,0.094l2.688,2.688l2.672-2.688
			C7.807-6.359,7.87-6.391,7.922-6.391c0.073,0,0.136,0.025,0.188,0.078C8.162-6.26,8.187-6.197,8.187-6.125
			S8.167-5.994,8.125-5.953L5.422-3.25l2.703,2.688C8.167-0.5,8.187-0.438,8.187-0.375c0,0.072-0.025,0.135-0.078,0.188
			C8.057-0.135,7.995-0.109,7.922-0.109c-0.063,0-0.125-0.031-0.188-0.094L5.062-2.891L2.375-0.203
			C2.303-0.141,2.234-0.109,2.172-0.109c-0.072,0-0.135-0.029-0.188-0.086C1.932-0.252,1.906-0.313,1.906-0.375z"/>
	</g>
	<g transform="translate(201,350)">
		<path fill="#262626" d="M4.609,0H3.5v-6.484c0-0.375,0.003-0.674,0.008-0.898c0.006-0.225,0.019-0.461,0.039-0.711
			c-0.135,0.146-0.26,0.266-0.375,0.359C3.057-7.641,2.917-7.521,2.75-7.375l-1,0.813L1.156-7.328l2.516-1.953h0.938V0z
			 M14.338-4.656c0,1-0.104,1.857-0.313,2.57c-0.208,0.714-0.536,1.261-0.984,1.641c-0.447,0.381-1.047,0.57-1.797,0.57
			c-1.052,0-1.825-0.422-2.32-1.266C8.43-1.984,8.182-3.156,8.182-4.656c0-1,0.102-1.856,0.305-2.57s0.529-1.258,0.977-1.633
			c0.448-0.375,1.042-0.563,1.781-0.563c1.042,0,1.818,0.416,2.328,1.25C14.083-7.339,14.338-6.166,14.338-4.656z M9.322-4.656
			c0,1.271,0.146,2.225,0.438,2.859c0.292,0.635,0.787,0.953,1.484,0.953c0.698,0,1.195-0.315,1.492-0.945
			c0.297-0.631,0.445-1.586,0.445-2.867c0-1.26-0.148-2.209-0.445-2.844s-0.794-0.953-1.492-0.953c-0.697,0-1.192,0.318-1.484,0.953
			C9.469-6.865,9.322-5.916,9.322-4.656z"/>
	</g>
	<g transform="translate(217,344)">
		<path fill="#262626" d="M3.906,0H2.953v-5.484c0-0.323,0.006-0.578,0.016-0.766C2.979-6.438,2.99-6.635,3-6.844
			C2.886-6.729,2.781-6.631,2.687-6.547C2.594-6.464,2.474-6.359,2.328-6.234L1.484-5.563l-0.5-0.641l2.125-1.656h0.797V0z
			 M11.781-3.938c0,0.844-0.089,1.568-0.266,2.172s-0.456,1.068-0.836,1.391S9.797,0.109,9.172,0.109
			c-0.896,0-1.555-0.356-1.977-1.07C6.773-1.674,6.562-2.666,6.562-3.938c0-0.854,0.089-1.581,0.266-2.18
			c0.177-0.6,0.456-1.057,0.836-1.375s0.883-0.477,1.508-0.477c0.875,0,1.528,0.352,1.961,1.055S11.781-5.219,11.781-3.938z
			 M7.531-3.938c0,1.072,0.125,1.878,0.375,2.414s0.672,0.805,1.266,0.805c0.583,0,1.003-0.266,1.258-0.797s0.383-1.338,0.383-2.422
			c0-1.072-0.128-1.878-0.383-2.414S9.755-7.156,9.172-7.156c-0.594,0-1.016,0.269-1.266,0.805S7.531-5.01,7.531-3.938z"/>
	</g>
	<g>
		<path fill="none" stroke="#000000" stroke-width="2.6389" stroke-linejoin="round" stroke-miterlimit="10" d="M189.865,563.985
			l0.141,0.001h0.003l0.656,0.003h0.004l0.656,0.003h0.004l0.656,0.001h0.004l0.655,0.001h0.004l0.656,0.001h0.004h0.656h0.004
			l0.656,0.001h0.003h0.656h0.004h0.656h0.004l0.656,0.001h0.003h0.656h0.004h0.656h0.004h0.432h0.225h0.004h0.655h0.004
			l0.656-0.001h0.004h0.656h0.004l0.656-0.001h0.003l0.653-0.002h0.003l0.656-0.001h0.004l0.656-0.002h0.004l0.656-0.003h0.003
			l0.656-0.002h0.004l0.656-0.002h0.004l0.656-0.002h0.003l0.656-0.001h0.004l0.41-0.001h0.246h0.004l0.656,0.001h0.004l0.655,0.002
			h0.004l0.656,0.002h0.004l0.656,0.002h0.004l0.656,0.002h0.003l0.656,0.002h0.004h0.646h0.011h0.004l0.656-0.001h0.003
			l0.656-0.003h0.004l0.656-0.008h0.004l0.656-0.012h0.003l0.656-0.017l0.004-0.001l0.656-0.022h0.004l0.656-0.029l0.004-0.001
			l0.656-0.036h0.003l0.656-0.043h0.004l0.656-0.046l0.004-0.001l0.656-0.047l0.003-0.001l0.656-0.046h0.004l0.656-0.042h0.004
			l0.656-0.036h0.003l0.656-0.026l0.004-0.001l0.656-0.016h0.004l0.559-0.005h0.094h0.004l0.656,0.009h0.003l0.656,0.021h0.004
			l0.656,0.034h0.004l0.656,0.044h0.004l0.656,0.051l0.003,0.001l0.656,0.051l0.004,0.001l0.656,0.049l0.004,0.001l0.656,0.045
			h0.003l0.656,0.038l0.004,0.001l0.656,0.031h0.004l0.656,0.023h0.003l0.656,0.018h0.004l0.656,0.012h0.004l0.656,0.008h0.004
			l0.656,0.004h0.003l0.656,0.003h0.004l0.656,0.001h0.004l0.656,0.001h0.003h0.656h0.004h0.551h0.105h0.004h0.656h0.003h0.656
			h0.004l0.656-0.002h0.004l0.656-0.004h0.003l0.656-0.007h0.004l0.656-0.011h0.004l0.656-0.016h0.004l0.656-0.021h0.003
			l0.656-0.027l0.004-0.001l0.656-0.036h0.004l0.656-0.045h0.003l0.656-0.053h0.004l0.652-0.061h0.004l0.656-0.064l0.004-0.001
			l0.656-0.068h0.003l0.656-0.069h0.004l0.656-0.066h0.004l0.656-0.062l0.003-0.001l0.656-0.051h0.004l0.656-0.038h0.004
			l0.656-0.019h0.004l0.239-0.002l0.417,0.005h0.003l0.656,0.026h0.004l0.656,0.048l0.004,0.001l0.656,0.064l0.003,0.001
			l0.656,0.076h0.004l0.656,0.081l0.004,0.001l0.656,0.08l0.003,0.001l0.656,0.074l0.004,0.001l0.656,0.065l0.004,0.001l0.656,0.055
			l0.004,0.001l0.656,0.044h0.003l0.656,0.032l0.004,0.001l0.656,0.023h0.004l0.656,0.016l0.003,0.001l0.656,0.01h0.004l0.656,0.007
			h0.004l0.656,0.005h0.003l0.656,0.002h0.004l0.656,0.002h0.004h0.656h0.004l0.655,0.001h0.004h0.656h0.004l0.656,0.001h0.004
			h0.652h0.004h0.656h0.003h0.656h0.004h0.584h0.072h0.004h0.656h0.003h0.656h0.004h0.656h0.004l0.656-0.001h0.003h0.656h0.004
			l0.656-0.001h0.004h0.656h0.004l0.656-0.002h0.003l0.656-0.002h0.004l0.656-0.004h0.004l0.656-0.007h0.003l0.656-0.012h0.004
			l0.656-0.015h0.004l0.656-0.02h0.003l0.656-0.023h0.004l0.656-0.027h0.004l0.656-0.029h0.004l0.655-0.027h0.004l0.656-0.023h0.004
			l0.656-0.015h0.004l0.576-0.004h0.08h0.003l0.656,0.007h0.004l0.656,0.017h0.004l0.656,0.024h0.003l0.656,0.027h0.004l0.656,0.028
			h0.004l0.656,0.026h0.004l0.655,0.021h0.004l0.656,0.018h0.004l0.652,0.015h0.004l0.656,0.011h0.004l0.656,0.007h0.003
			l0.656,0.003h0.004l0.656,0.003h0.004l0.656,0.002h0.003l0.656,0.001h0.004l0.656,0.001h0.004l0.656,0.001h0.003h0.656h0.004
			h0.656h0.004h0.656h0.004h0.655h0.004h0.656h0.004h0.656h0.004h0.656h0.003h0.656h0.004h0.656h0.004h0.091h0.565h0.003h0.656
			h0.004h0.656h0.004h0.656h0.004h0.656h0.003h0.656h0.004h0.656h0.004h0.656h0.003h0.656h0.004h0.656h0.004h0.271h0.385h0.004
			h0.656h0.003h0.656h0.004h0.656h0.004h0.652h0.004h0.25h0.405h0.004h0.656h0.004h0.656h0.004h0.656h0.003h0.656h0.004h0.656h0.004
			l0.656-0.001h0.003l0.656-0.001h0.004l0.656-0.001l0.004-0.001l0.656-0.002h0.004l0.656-0.003h0.003l0.656-0.005h0.004
			l0.656-0.006h0.004l0.656-0.009H318l0.656-0.011h0.004l0.656-0.013l0.004-0.001l0.656-0.014h0.003l0.656-0.017h0.004l0.656-0.017
			h0.004l0.656-0.015h0.003l0.656-0.013h0.004l0.656-0.01h0.004l0.656-0.006h0.004l0.656-0.002h0.003h0.156h0.5h0.004l0.656,0.001
			h0.004h0.025l0.631-0.002h0.003l0.656-0.008h0.004l0.656-0.015h0.004l0.656-0.025h0.004l0.656-0.035l0.003-0.001l0.652-0.044
			l0.004-0.001l0.656-0.052h0.004l0.656-0.057h0.003l0.656-0.055l0.004-0.001l0.656-0.051h0.004l0.656-0.039h0.004l0.656-0.023
			h0.003l0.544-0.006h0.112h0.004l0.656,0.012h0.004l0.656,0.027h0.003l0.656,0.04l0.004,0.001l0.656,0.049h0.004l0.656,0.054
			l0.004,0.001l0.656,0.056h0.003l0.656,0.056l0.004,0.001l0.656,0.052h0.003l0.656,0.047h0.004l0.656,0.04l0.004,0.001l0.656,0.032
			l0.004,0.001l0.656,0.026h0.003l0.656,0.02h0.004l0.656,0.015h0.004l0.656,0.01h0.003l0.656,0.009h0.004l0.656,0.004h0.004
			l0.656,0.002h0.004l0.656,0.002h0.003l0.656,0.001h0.004l0.656,0.001h0.004h0.656h0.003h0.656h0.004h0.656h0.004h0.656h0.003
			h0.653h0.003l0.656,0.001h0.004h0.656h0.004h0.656h0.003h0.656h0.004h0.417h0.239h0.004h0.127h0.529h0.004h0.656h0.003h0.656
			h0.004h0.656h0.004h0.656h0.003l0.656-0.001h0.004h0.656h0.004h0.656h0.003h0.656h0.004h0.656h0.004l0.656-0.001h0.003
			l0.656-0.001h0.004l0.656-0.001h0.004l0.656-0.002h0.004l0.656-0.002h0.003l0.656-0.005h0.004l0.656-0.007h0.004l0.656-0.008
			h0.003l0.656-0.009h0.004l0.656-0.012h0.004l0.656-0.013h0.004l0.655-0.013h0.004l0.656-0.012h0.004l0.656-0.008h0.003
			l0.656-0.006h0.004h0.392h0.265h0.004l0.652,0.004h0.004l0.656,0.008h0.004l0.656,0.012h0.003l0.656,0.012h0.004l0.656,0.013
			h0.004l0.656,0.012h0.003l0.656,0.011h0.004l0.656,0.008h0.004l0.656,0.007h0.004l0.656,0.005h0.003l0.656,0.003h0.004
			l0.656,0.002h0.003l0.656,0.001h0.004l0.656,0.001h0.004l0.656,0.001h0.004h0.656h0.003h0.656h0.004h0.656h0.004h0.656h0.003
			h0.656h0.004l0.656,0.001h0.004h0.656h0.004h0.337h0.319h0.003h0.656h0.004h0.656h0.004l0.656-0.001h0.003h0.656h0.004h0.656
			h0.004h0.627h0.029h0.003h0.385h0.272h0.003h0.656h0.004h0.656h0.003l0.656,0.001h0.004h0.652h0.004h0.656h0.004h0.656h0.004
			h0.656h0.003h0.656h0.004h0.656h0.004h0.656h0.003h0.656h0.004h0.616h0.04h0.004h0.159h0.497h0.004h0.656h0.003h0.656h0.004h0.656
			h0.003h0.656h0.004h0.656h0.004h0.656h0.004h0.656h0.003h0.656h0.004h0.656h0.004h0.656h0.003h0.656h0.004h0.656h0.004h0.656
			h0.004h0.656h0.003h0.656h0.004h0.656h0.004h0.655h0.004h0.425h0.21h0.021h0.004h0.656h0.004h0.656h0.003h0.631h0.025h0.004h0.656
			h0.004h0.652h0.004h0.656h0.003h0.656h0.004h0.656h0.004h0.656h0.004h0.656h0.003h0.656h0.004h0.656h0.004h0.656h0.003h0.656
			h0.004h0.656h0.004h0.656h0.003h0.656h0.004h0.656h0.004h0.656h0.003h0.656h0.004h0.021h0.635h0.004h0.656h0.004h0.656h0.003
			h0.656h0.004h0.656h0.004h0.656h0.003h0.656h0.004l0.656-0.001h0.004h0.656h0.004h0.655h0.004h0.656h0.004h0.656h0.003h0.656
			h0.004l0.656-0.001h0.004l0.656-0.001h0.004l0.656-0.001h0.003l0.653-0.001h0.003l0.656-0.002h0.004l0.656-0.003h0.004
			l0.656-0.003h0.003l0.656-0.004h0.004l0.656-0.005h0.004l0.656-0.007h0.004l0.656-0.007h0.003l0.656-0.008h0.004l0.656-0.009
			h0.004l0.655-0.01h0.004l0.656-0.01h0.004l0.656-0.008h0.004l0.656-0.007h0.003l0.656-0.004h0.004l0.449-0.001l0.207,0.001h0.004
			l0.656,0.003h0.003l0.656,0.006h0.004l0.656,0.008h0.004l0.656,0.01h0.004l0.656,0.011h0.003l0.656,0.01l0.004,0.001l0.656,0.009
			h0.003l0.656,0.008h0.004l0.656,0.007h0.004l0.656,0.006h0.004l0.656,0.004h0.003l0.656,0.002h0.004l0.656,0.002h0.004
			l0.656,0.002h0.003l0.656,0.001h0.004l0.656,0.001h0.004h0.656h0.004h0.652h0.004h0.656h0.003h0.656h0.004h0.656h0.004h0.655
			h0.004L461.82,564h0.004h0.656h0.004h0.087h0.569h0.004l0.655-0.001h0.004h0.656h0.004h0.656h0.003h0.656h0.004h0.656h0.004h0.424
			h0.232h0.004h0.656h0.003h0.656h0.004h0.656h0.004l0.656,0.001h0.003h0.656h0.004h0.656h0.004h0.656h0.003h0.657h0.003h0.656
			h0.004h0.656h0.003h0.656h0.004h0.656h0.004h0.656h0.004h0.583h0.073h0.003h0.011h0.646h0.004h0.656h0.004h0.656h0.003h0.656
			h0.004h0.652h0.004h0.656h0.004h0.656h0.004h0.656h0.003h0.656h0.004h0.656h0.003h0.262h0.395h0.004h0.656h0.004h0.656h0.004
			h0.656h0.003h0.392h0.265h0.004h0.656h0.004h0.656h0.003l0.656-0.001h0.004h0.656h0.004h0.656h0.004h0.656h0.003h0.656h0.004
			h0.656h0.004h0.656h0.003l0.656-0.001h0.004l0.656-0.001h0.004h0.656h0.003l0.656-0.002h0.004l0.656-0.001h0.004l0.656-0.002
			h0.003l0.656-0.001h0.004l0.656-0.002h0.004l0.656-0.001h0.004l0.656-0.001h0.003l0.656-0.001h0.004h0.156l0.5,0.001h0.004h0.656
			h0.003l0.653,0.001h0.003l0.656,0.002h0.004l0.656,0.001h0.004l0.656,0.002h0.003l0.657,0.002h0.003l0.656,0.001h0.004
			l0.656,0.001h0.003l0.656,0.001h0.004h0.656h0.004l0.656,0.001h0.004h0.656h0.003h0.656h0.004h0.656h0.004h0.656h0.003h0.656
			h0.004h0.656h0.004h0.656h0.004h0.656h0.003h0.656h0.004h0.656h0.003h0.656h0.004h0.656h0.004h0.167h0.388h0.102h0.004h0.492
			h0.124h0.04h0.003h0.196h0.432h0.028h0.004h0.656h0.004h0.656h0.003h0.656h0.004h0.656h0.004h0.656h0.004h0.656h0.003h0.656h0.004
			h0.652h0.004h0.656h0.003h0.656h0.004h0.656h0.004h0.656h0.004h0.656h0.003h0.656h0.004h0.656h0.004h0.656h0.003h0.656h0.004
			h0.656h0.004h0.656h0.004l0.656-0.001h0.003l0.656-0.001h0.004l0.656-0.003h0.003l0.657-0.003h0.003l0.656-0.006h0.004
			l0.656-0.007h0.004l0.656-0.011h0.004l0.655-0.015l0.004-0.001l0.656-0.02h0.004l0.656-0.023h0.003l0.656-0.029h0.004l0.656-0.032
			h0.004l0.656-0.034h0.004l0.656-0.033h0.003l0.656-0.029h0.004l0.656-0.022h0.004l0.656-0.013h0.003l0.439-0.003l0.217,0.001
			h0.004l0.656,0.009h0.004l0.656,0.02h0.004l0.652,0.026l0.004,0.001l0.656,0.031h0.003l0.656,0.033h0.004l0.656,0.032h0.003
			l0.656,0.029l0.004,0.001l0.656,0.025h0.004l0.656,0.021l0.004,0.001l0.656,0.017h0.003l0.656,0.012h0.004l0.656,0.01h0.004
			l0.656,0.006h0.003l0.656,0.004h0.004l0.656,0.004h0.004l0.656,0.002h0.004l0.656,0.001h0.003l0.656,0.001h0.004h0.656h0.003
			h0.657h0.003h0.656h0.004l0.656,0.001h0.004h0.656h0.003h0.656h0.004h0.656h0.004h0.656h0.003h0.656h0.004h0.656h0.004h0.656
			h0.004h0.656h0.003h0.312h0.345h0.004h0.656h0.004h0.656h0.003h0.656h0.004h0.656h0.004h0.652h0.004h0.656h0.004h0.655h0.004
			h0.656h0.004h0.656h0.003h0.656h0.004h0.656h0.004h0.656h0.004h0.656h0.003h0.656h0.004l0.656-0.001h0.004h0.656h0.003h0.656
			h0.004h0.656h0.004h0.656h0.003h0.657h0.003h0.656h0.004h0.656h0.004h0.655h0.004h0.109h0.547h0.004h0.656h0.004h0.656h0.003
			h0.656h0.004h0.656h0.004h0.656h0.003h0.656h0.004h0.605h0.051h0.004h0.229h0.428h0.004h0.656h0.003h0.656h0.004h0.656h0.003
			h0.656h0.004h0.652h0.004h0.656h0.004h0.656h0.004h0.656h0.003h0.656h0.004h0.656h0.004h0.656h0.003h0.656h0.004h0.656h0.004
			l0.656-0.001h0.004l0.656-0.001h0.003l0.656-0.001h0.004l0.656-0.002h0.004l0.655-0.003h0.004l0.656-0.005h0.004l0.656-0.006
			h0.004l0.656-0.01h0.003l0.656-0.011h0.004l0.656-0.015h0.004l0.656-0.016h0.003l0.656-0.018h0.004l0.656-0.017l0.004-0.001
			l0.656-0.016h0.004l0.656-0.013h0.003l0.656-0.008h0.004l0.482-0.001h0.174h0.003l0.657,0.005h0.003l0.656,0.011h0.004
			l0.656,0.015h0.004l0.656,0.018h0.004l0.655,0.018h0.004l0.656,0.018h0.004l0.652,0.015h0.004l0.656,0.013h0.003l0.656,0.01h0.004
			l0.656,0.008h0.004l0.656,0.005h0.004l0.656,0.003h0.003l0.656,0.003h0.004l0.656,0.001h0.004l0.656,0.001h0.003l0.656,0.001
			h0.004h0.656h0.004h0.656h0.004h0.655h0.004h0.656h0.004h0.479h0.178h0.003h0.656h0.004h0.656h0.004h0.656h0.004h0.656h0.003
			l0.656-0.001h0.004l0.656-0.002h0.004l0.656-0.003h0.003l0.656-0.004h0.004l0.656-0.007l0.004-0.001l0.656-0.012h0.004
			l0.656-0.018l0.003-0.001l0.656-0.025h0.004l0.656-0.036h0.003l0.656-0.048h0.004l0.656-0.062l0.004-0.001l0.656-0.077
			l0.004-0.001l0.656-0.091l0.003-0.001l0.656-0.104h0.004l0.652-0.114l0.004-0.001l0.656-0.121l0.004-0.001l0.656-0.124
			l0.003-0.001l0.656-0.119l0.004-0.001l0.656-0.109l0.004-0.001l0.656-0.094l0.004-0.001l0.656-0.074h0.003l0.656-0.053
			l0.004-0.001l0.656-0.03h0.004l0.655-0.01h0.004h0.076l0.58,0.005h0.004l0.656,0.012l0.004,0.001l0.656,0.012h0.004l0.456,0.003
			l0.199-0.001h0.004l0.656-0.016h0.004l0.656-0.035h0.003l0.656-0.056l0.004-0.001l0.656-0.074h0.004l0.656-0.084l0.004-0.001
			l0.656-0.081l0.003-0.001l0.656-0.064h0.004l0.656-0.034h0.004l0.228-0.002l0.428,0.01h0.004l0.656,0.056l0.004,0.001l0.656,0.104
			l0.004,0.001l0.656,0.146l0.003,0.002l0.657,0.176l0.003,0.002l0.656,0.192l0.004,0.001l0.656,0.195l0.003,0.001l0.656,0.185
			l0.004,0.001l0.656,0.165h0.004l0.656,0.14l0.004,0.001l0.656,0.112l0.003,0.001l0.653,0.087l0.003,0.001l0.656,0.063h0.004
			l0.656,0.045h0.004l0.656,0.03h0.003l0.656,0.02h0.004l0.656,0.013h0.004l0.656,0.008h0.004l0.656,0.005h0.003l0.656,0.003h0.004
			l0.656,0.002h0.003l0.656,0.001h0.004h0.656h0.004h0.656h0.004h0.656h0.003h0.656h0.004h0.656h0.004h0.656h0.003h0.656h0.004
			h0.656h0.004h0.656h0.004h0.656h0.003h0.656h0.004h0.656h0.004h0.656h0.003h0.656h0.004h0.656h0.004h0.631h0.025h0.003h0.073
			h0.583h0.004h0.656h0.004h0.656h0.003h0.656h0.004h0.656h0.004h0.652h0.004h0.656h0.004h0.308h0.349h0.003h0.022h0.634h0.004
			h0.656h0.004h0.655h0.004h0.656h0.004h0.656h0.004h0.656h0.004h0.656h0.003h0.25h0.406h0.004h0.656h0.003h0.656h0.004h0.656h0.004
			h0.656h0.004h0.656h0.003h0.656h0.004h0.656h0.004h0.656h0.003h0.656h0.004l0.656-0.001h0.004l0.656-0.001h0.004l0.655-0.001
			h0.004l0.656-0.002h0.004l0.656-0.002h0.003l0.657-0.004h0.003l0.656-0.005h0.004l0.656-0.008h0.004l0.656-0.009h0.003
			l0.656-0.012h0.004l0.656-0.014h0.004l0.656-0.016h0.003l0.653-0.017h0.003l0.656-0.017h0.004l0.656-0.016h0.004l0.656-0.013
			h0.004l0.656-0.009h0.003l0.656-0.003h0.004h0.003l0.653,0.003h0.003l0.656,0.009h0.004l0.656,0.013h0.004l0.656,0.016
			l0.004,0.001l0.656,0.017h0.003l0.656,0.017l0.004,0.001l0.656,0.016h0.004l0.656,0.014h0.003l0.656,0.011l0.004,0.001
			l0.656,0.009h0.004l0.656,0.007h0.004l0.656,0.005h0.003l0.656,0.003h0.004l0.656,0.003h0.004l0.656,0.001h0.003l0.656,0.001
			h0.004l0.656,0.001h0.004h0.656h0.004h0.529h0.126h0.004h0.656h0.004h0.656h0.003l0.656-0.001h0.004h0.656h0.004l0.656-0.001
			h0.004l0.656-0.001h0.003l0.656-0.001h0.004l0.656-0.001h0.004l0.652-0.001h0.003l0.657-0.001h0.003l0.656-0.001h0.004h0.559
			h0.098h0.004h0.656h0.004l0.656,0.001h0.003l0.656,0.001h0.004l0.656,0.001h0.003l0.656,0.002h0.004l0.656,0.001h0.004
			l0.656,0.001h0.004h0.656h0.003l0.656,0.001h0.004l0.656,0.001h0.004h0.551h0.105h0.003l0.656-0.001h0.004h0.656h0.004
			l0.656-0.001h0.004l0.656-0.002h0.003l0.656-0.004h0.004l0.656-0.006h0.003l0.656-0.01h0.004l0.656-0.018h0.004l0.656-0.028h0.004
			l0.656-0.046h0.003l0.656-0.07l0.004-0.001l0.656-0.105l0.004-0.001l0.656-0.156l0.003-0.001l0.656-0.224l0.004-0.002l0.656-0.309
			l0.004-0.002l0.656-0.413l0.004-0.003l0.656-0.533l0.003-0.003l0.653-0.655l0.003-0.004l0.656-0.775l0.004-0.004l0.656-0.869
			l0.003-0.005l0.657-0.924l0.003-0.005l0.656-0.923l0.004-0.005l0.656-0.851l0.004-0.005l0.656-0.703l0.003-0.004l0.656-0.484
			l0.004-0.002l0.656-0.212h0.004l0.138-0.007l0.519,0.094l0.003,0.001l0.656,0.378l0.004,0.003l0.656,0.628l0.004,0.004
			l0.656,0.813l0.004,0.005l0.656,0.919l0.003,0.005l0.656,0.948l0.004,0.005l0.656,0.91l0.004,0.005l0.656,0.821l0.003,0.005
			l0.656,0.706l0.004,0.003l0.656,0.58l0.004,0.003l0.656,0.454l0.004,0.002l0.656,0.339l0.003,0.002l0.656,0.243l0.004,0.001
			l0.656,0.17h0.003l0.656,0.116h0.004l0.656,0.077l0.004,0.001l0.656,0.051h0.004l0.656,0.033h0.003l0.656,0.021h0.004l0.656,0.013
			h0.004l0.656,0.008h0.003l0.656,0.004h0.004l0.656,0.003h0.004l0.656,0.002h0.004l0.652,0.001h0.004h0.656h0.003h0.656h0.004
			h0.656h0.004h0.655h0.004h0.656h0.004h0.087h0.569h0.004h0.656h0.003h0.656h0.004h0.656h0.004h0.656h0.003h0.656h0.004h0.192
			h0.464h0.004h0.656h0.004h0.656h0.003h0.656h0.004h0.656h0.003h0.656h0.004h0.656h0.004h0.656h0.004h0.656h0.003h0.656h0.004
			h0.656h0.004h0.275h0.381h0.003h0.656h0.004h0.656h0.004h0.656h0.004h0.656h0.003h0.656h0.004h0.656h0.004h0.642h0.015h0.003
			h0.656h0.004h0.652h0.004h0.656h0.004h0.181h0.476h0.004h0.655h0.004h0.656h0.004h0.656h0.003h0.656h0.004h0.656h0.004
			l0.656-0.001h0.004l0.656-0.001h0.003l0.656-0.002h0.004l0.656-0.003h0.004l0.656-0.005h0.003l0.656-0.008h0.004l0.656-0.011
			h0.004l0.656-0.017h0.004l0.656-0.023h0.003l0.656-0.03l0.004-0.001l0.656-0.036l0.003-0.001l0.656-0.043h0.004l0.656-0.048h0.004
			l0.656-0.048l0.004-0.001l0.656-0.045h0.003l0.656-0.036h0.004l0.656-0.022h0.004l0.555-0.007h0.102h0.003l0.656,0.012h0.004
			l0.656,0.027h0.004l0.656,0.04l0.004,0.001l0.656,0.047h0.003l0.656,0.049l0.004,0.001l0.656,0.047h0.003l0.653,0.042h0.003
			l0.656,0.035h0.004l0.656,0.028h0.004l0.656,0.021h0.004l0.656,0.015h0.004l0.655,0.009h0.004l0.656,0.006h0.004l0.656,0.004
			h0.003l0.656,0.002h0.004l0.656,0.001h0.004l0.656,0.001h0.004l0.656,0.001h0.003h0.656h0.004h0.656h0.004h0.225h0.431h0.004
			h0.656h0.004h0.656h0.004h0.656h0.003h0.656h0.004h0.656h0.004l0.656-0.001h0.003h0.656h0.004h0.656h0.004l0.656-0.001h0.004
			h0.656h0.003l0.656-0.002h0.004l0.656-0.001h0.004l0.656-0.002h0.003l0.656-0.002h0.004l0.656-0.003h0.004l0.656-0.003h0.004
			l0.656-0.003h0.003l0.656-0.003h0.004l0.652-0.002h0.004l0.656-0.003h0.003l0.656-0.001h0.004l0.656-0.001h0.004l0.656-0.002
			h0.004l0.656-0.001h0.003l0.656-0.001h0.004l0.656-0.002h0.004l0.656-0.002h0.003l0.656-0.001h0.004l0.656-0.001h0.004
			l0.656-0.001h0.004h0.246h0.41h0.003l0.656,0.001h0.004l0.656,0.002h0.004l0.655,0.002h0.004l0.656,0.003h0.004l0.656,0.003h0.004
			l0.656,0.004h0.003l0.656,0.002h0.004l0.656,0.003h0.004l0.656,0.003h0.003h0.656h0.004h0.152h0.504h0.004l0.656-0.003h0.004
			l0.656-0.006h0.003l0.656-0.011h0.004l0.656-0.017h0.004l0.655-0.025h0.004l0.656-0.037l0.004-0.001l0.656-0.055l0.004-0.001
			l0.656-0.076l0.004-0.001l0.652-0.099h0.003l0.657-0.124l0.003-0.001l0.656-0.153h0.004l0.656-0.191l0.003-0.001l0.656-0.209
			l0.004-0.001l0.656-0.224l0.004-0.001l0.656-0.23l0.004-0.001l0.656-0.229l0.003-0.001l0.656-0.228l0.004-0.002l0.656-0.257
			l0.004-0.002l0.656-0.381l0.003-0.004l0.656-0.558l0.004-0.003l0.656-0.646l0.004-0.004l0.656-0.856l0.004-0.006l0.655-1.277
			l0.004-0.008l0.656-1.736l0.004-0.011l0.656-2.23l0.003-0.015l0.656-2.776l0.004-0.017l0.656-3.167l0.004-0.02l0.656-3.644
			l0.004-0.021l0.656-4.044l0.003-0.022l0.656-4.351l0.004-0.024l0.656-4.432l0.004-0.024l0.656-4.416l0.003-0.023l0.656-4.024
			l0.004-0.021l0.656-3.488l0.004-0.018l0.656-2.688l0.004-0.013l0.656-1.757l0.003-0.007l0.656-0.688l0.004-0.001l0.229-0.035
			l0.428,0.175l0.003,0.003l0.656,0.819l0.004,0.005l0.656,1.01l0.004,0.007l0.656,1.157l0.004,0.006l0.652,0.935l0.004,0.004
			l0.656,0.419l0.003,0.001l0.142,0.021l0.515-0.219l0.004-0.002l0.656-0.693l0.004-0.006l0.656-1.396l0.003-0.01l0.656-1.86
			l0.004-0.013l0.656-2.229l0.004-0.013l0.656-2.453l0.004-0.015l0.656-2.652l0.003-0.015l0.656-2.553l0.004-0.014l0.656-2.408
			l0.003-0.013l0.657-1.973l0.003-0.009l0.656-1.408l0.004-0.006l0.656-0.725l0.004-0.002l0.362-0.119l0.294,0.087l0.003,0.002
			l0.656,0.848l0.004,0.007l0.656,1.541l0.004,0.011l0.656,2.334l0.003,0.015l0.656,2.817l0.004,0.017l0.656,3.334l0.004,0.02
			l0.656,3.514l0.003,0.02l0.656,3.181l0.004,0.016l0.656,2.428l0.003,0.012l0.656,1.643l0.004,0.007l0.54,0.491l0.116-0.023
			l0.004-0.001l0.656-0.925l0.004-0.009l0.656-2.403l0.003-0.017l0.656-3.826l0.004-0.025l0.656-5.297l0.004-0.033l0.656-6.681
			l0.003-0.041l0.656-7.958l0.004-0.047l0.656-9.066l0.004-0.052l0.656-9.839l0.004-0.056l0.656-10.202l0.003-0.057l0.656-10.068
			l0.004-0.055l0.652-9.333l0.004-0.049l0.656-8.319l0.003-0.043l0.656-6.815l0.004-0.033l0.656-5.069l0.004-0.022l0.656-3.076
			l0.004-0.012l0.551-0.844l0.105,0.031l0.003,0.002l0.657,1.57l0.003,0.015l0.656,3.861l0.004,0.028l0.656,6.074l0.003,0.039
			l0.656,7.734l0.004,0.046l0.656,8.604l0.004,0.048l0.656,8.521l0.004,0.045l0.656,7.59l0.003,0.038l0.656,6.13l0.004,0.029
			l0.656,4.35l0.003,0.02l0.657,2.549l0.003,0.009l0.656,1.032l0.004,0.002l0.322,0.1l0.334-0.076l0.004-0.002l0.656-0.336
			l0.004-0.001l0.337-0.078l0.318,0.095l0.004,0.002l0.656,1.045l0.004,0.01l0.656,2.632l0.003,0.02l0.656,4.494l0.004,0.03
			l0.656,6.312l0.004,0.039l0.656,7.798l0.004,0.047l0.656,8.705l0.003,0.049l0.656,8.967l0.004,0.05l0.656,8.647l0.004,0.046
			l0.656,7.912l0.003,0.041l0.656,6.926l0.004,0.035l0.656,5.814l0.004,0.029l0.656,4.667l0.004,0.022l0.652,3.5l0.004,0.017
			l0.656,2.555l0.003,0.012l0.656,1.806l0.004,0.009l0.656,1.241l0.003,0.006l0.656,0.834l0.004,0.004l0.656,0.546l0.004,0.002
			l0.656,0.348l0.004,0.001l0.656,0.215l0.003,0.001l0.656,0.128h0.004l0.656,0.071l0.004,0.001l0.656,0.034h0.003l0.501,0.008
			l0.155-0.001h0.004l0.656-0.019h0.004l0.656-0.046h0.004l0.656-0.08l0.003-0.001l0.656-0.127l0.004-0.001l0.656-0.194l0.003-0.002
			l0.657-0.253l0.003-0.001l0.656-0.314l0.004-0.002l0.656-0.373l0.004-0.002l0.656-0.42l0.003-0.002l0.656-0.437l0.004-0.003
			l0.656-0.414l0.004-0.003l0.656-0.348l0.003-0.002l0.656-0.238l0.004-0.001l0.656-0.096h0.004l0.08-0.002l0.576,0.06l0.004,0.001
			l0.656,0.203l0.003,0.002l0.656,0.319l0.004,0.002l0.656,0.395l0.003,0.002l0.657,0.425l0.003,0.003l0.656,0.415l0.004,0.003
			l0.656,0.377l0.004,0.002l0.652,0.321l0.004,0.002l0.656,0.265l0.004,0.001l0.655,0.212l0.004,0.001l0.656,0.146l0.004,0.001
			l0.656,0.1h0.003l0.656,0.069l0.004,0.001l0.656,0.048h0.004l0.656,0.033h0.004l0.656,0.022h0.003l0.656,0.015h0.004l0.656,0.01
			h0.004l0.656,0.006h0.003l0.656,0.004h0.004h0.656h0.004h0.072h0.584h0.003l0.657-0.002h0.003l0.656-0.004h0.004l0.656-0.004
			h0.004l0.655-0.005h0.004l0.656-0.005l0.004-0.001l0.656-0.006h0.004l0.656-0.008h0.003l0.656-0.011h0.004l0.656-0.014h0.004
			l0.656-0.018l0.003-0.001l0.656-0.025h0.004l0.656-0.033h0.004l0.656-0.042h0.004l0.656-0.049l0.003-0.001l0.656-0.056
			l0.004-0.001l0.656-0.061h0.003l0.656-0.062h0.004l0.652-0.058h0.004l0.656-0.049h0.004l0.656-0.036h0.004l0.656-0.021h0.003
			l0.54-0.005h0.116h0.004l0.656,0.01h0.004l0.656,0.021h0.003l0.656,0.029h0.004l0.656,0.035h0.004l0.656,0.038h0.004l0.656,0.04
			h0.003l0.656,0.041l0.004,0.001l0.656,0.042h0.004l0.655,0.042h0.004l0.656,0.04h0.004l0.656,0.037h0.004l0.656,0.03h0.003
			l0.656,0.022h0.004l0.656,0.013h0.004l0.352,0.002l0.305-0.001l0.003-0.001l0.656-0.013h0.004l0.656-0.026h0.004l0.656-0.038
			h0.004l0.656-0.048l0.003-0.001l0.656-0.055l0.004-0.001l0.656-0.057h0.003l0.656-0.054h0.004l0.656-0.044h0.004l0.656-0.028
			h0.004l0.627-0.01h0.029h0.003l0.657,0.012h0.003l0.656,0.031h0.004l0.652,0.048h0.004l0.656,0.059h0.003l0.656,0.064h0.004
			l0.656,0.063h0.004l0.656,0.059l0.004,0.001l0.656,0.051h0.003l0.656,0.042h0.004l0.656,0.033h0.004l0.656,0.024h0.003
			l0.656,0.018h0.004l0.656,0.011h0.004l0.656,0.008h0.004l0.655,0.005h0.004l0.656,0.002h0.004l0.656,0.002h0.003l0.656,0.002
			h0.004h0.656h0.004l0.656,0.001h0.004h0.656h0.003h0.656h0.004l0.656,0.001h0.004h0.656h0.003h0.656h0.004h0.656h0.004h0.656
			h0.004h0.656h0.003h0.656h0.004h0.656h0.003h0.059h0.598h0.004h0.656h0.004h0.656h0.004h0.656h0.003h0.656h0.004h0.652h0.004
			h0.656h0.004h0.656h0.003l0.656-0.001h0.004h0.656h0.004h0.656h0.004h0.656h0.003h0.656h0.004h0.402h0.254h0.004h0.656h0.003
			h0.656h0.004h0.656h0.004l0.656,0.001h0.004h0.655h0.004h0.656h0.004h0.656h0.003h0.656h0.004h0.656h0.004h0.656h0.004h0.206h0.45
			h0.003h0.656h0.004h0.656h0.004h0.655h0.004h0.439h0.217h0.004h0.656h0.004h0.083h0.573h0.003h0.656h0.004h0.656h0.004h0.656
			h0.003l0.656-0.001h0.004l0.656-0.001h0.004l0.656-0.002h0.004l0.652-0.005h0.004l0.656-0.008h0.003l0.656-0.014h0.004
			l0.656-0.023h0.004l0.656-0.036h0.003l0.656-0.055h0.004l0.656-0.079l0.004-0.001l0.656-0.113h0.004l0.656-0.154l0.003-0.001
			l0.656-0.204l0.004-0.002l0.656-0.257l0.003-0.002l0.656-0.308l0.004-0.002l0.656-0.357l0.004-0.002l0.656-0.404l0.004-0.002
			l0.656-0.419l0.003-0.002l0.656-0.413l0.004-0.002l0.656-0.376l0.004-0.002l0.656-0.306l0.003-0.002l0.656-0.205l0.004-0.001
			l0.656-0.082h0.004l0.072-0.001l0.584,0.054l0.004,0.001l0.656,0.184l0.003,0.002l0.656,0.297l0.004,0.002l0.656,0.38l0.004,0.003
			l0.656,0.426l0.003,0.003l0.656,0.437l0.004,0.002l0.656,0.417l0.004,0.002l0.656,0.372l0.003,0.002l0.656,0.314l0.004,0.002
			l0.656,0.252l0.004,0.001l0.656,0.19l0.003,0.001l0.656,0.142h0.004l0.656,0.106l0.004,0.001l0.652,0.068h0.004l0.656,0.049
			l0.004,0.001l0.656,0.035h0.003l0.656,0.026l0.004,0.001l0.656,0.02l0.004,0.001l0.656,0.015h0.003l0.656,0.012h0.004l0.656,0.008
			l0.004,0.001l0.656,0.006h0.003l0.656,0.004h0.004l0.656,0.002h0.004l0.656,0.002h0.003h0.656h0.004l0.656,0.001h0.004h0.656
			h0.004h0.656h0.003h0.656h0.004h0.656h0.004h0.656h0.003l0.656,0.001h0.004h0.656h0.004h0.656h0.004h0.655h0.004h0.656h0.004
			h0.656h0.003h0.656h0.004h0.656h0.004h0.656h0.004h0.656h0.003h0.656h0.004h0.656h0.004h0.656h0.003h0.406h0.247h0.003h0.656
			h0.004h0.656h0.004h0.656h0.004h0.656h0.003h0.656h0.004h0.656h0.004h0.655h0.004l0.656-0.001h0.004l0.656-0.001h0.004h0.656
			h0.003l0.656-0.002h0.004l0.656-0.002h0.004l0.656-0.002h0.003l0.656-0.002h0.004l0.656-0.002h0.004l0.656-0.002l0.004-0.001
			l0.656-0.002h0.003l0.656-0.001h0.004l0.656-0.001h0.004h0.174l0.482,0.001h0.003h0.656h0.004l0.656,0.002h0.004l0.656,0.002
			h0.003l0.656,0.003h0.004l0.656,0.002h0.004l0.656,0.002h0.003l0.656,0.002h0.004l0.656,0.001h0.004l0.656,0.002h0.004h0.656
			h0.003h0.522h0.134h0.004h0.652h0.004l0.656-0.001h0.004l0.656-0.001h0.003l0.656-0.002h0.004l0.656-0.002h0.004l0.656-0.002
			h0.004l0.655-0.002h0.004l0.656-0.002h0.004l0.656-0.001h0.003l0.656-0.001h0.004h0.305h0.352h0.004l0.656,0.001h0.004
			l0.656,0.001h0.003l0.656,0.002h0.004l0.656,0.002h0.004l0.656,0.002h0.003l0.656,0.002h0.004l0.656,0.002h0.004l0.656,0.001
			h0.004l0.656,0.001h0.003l0.656,0.001h0.004h0.656h0.004l0.655,0.001h0.004h0.656h0.004h0.656h0.004h0.656h0.003h0.656h0.004
			h0.656h0.004h0.656h0.003h0.656h0.004h0.656h0.004h0.656h0.004h0.656h0.003h0.653h0.003h0.656h0.004h0.656h0.004h0.656h0.003
			h0.656h0.004h0.656h0.004h0.656h0.003h0.656h0.004h0.656h0.004h0.656h0.003h0.656h0.004h0.656h0.004h0.656h0.004h0.656h0.003
			h0.656h0.004h0.656h0.004h0.656h0.003h0.656h0.004h0.656h0.004h0.656h0.004h0.655h0.004h0.656h0.004h0.453h0.203h0.003h0.656
			h0.004h0.656h0.004h0.656h0.004h0.656h0.003h0.656h0.004h0.656h0.004h0.656h0.003h0.656h0.004h0.656h0.004h0.656h0.004h0.504
			h0.148h0.004h0.656h0.003h0.656h0.004h0.656h0.004h0.655h0.004h0.167h0.489h0.004h0.656h0.004h0.656h0.003h0.656h0.004h0.656
			h0.004h0.656h0.003h0.656h0.004h0.656h0.004h0.656h0.004h0.656h0.003h0.656h0.004h0.656h0.004h0.656h0.003l0.656-0.001h0.004
			l0.656-0.001h0.004l0.656-0.001h0.003l0.656-0.003h0.004l0.656-0.005h0.004l0.656-0.009h0.003l0.656-0.017h0.004l0.656-0.027
			h0.004l0.656-0.046h0.004l0.656-0.076l0.003-0.001l0.656-0.126l0.004-0.001l0.656-0.21l0.004-0.002l0.656-0.384l0.003-0.003
			l0.656-0.611l0.004-0.004l0.652-0.874l0.004-0.006l0.656-1.214l0.004-0.008l0.656-1.571l0.003-0.009l0.656-1.893l0.004-0.011
			l0.656-2.185l0.004-0.013l0.656-2.354l0.003-0.014l0.656-2.355l0.004-0.012l0.656-2.152l0.004-0.012l0.656-1.805l0.004-0.008
			l0.656-1.288l0.003-0.006l0.656-0.709l0.004-0.002l0.58-0.183l0.076,0.003l0.004,0.001l0.656,0.227l0.003,0.002l0.656,0.469
			l0.004,0.004l0.656,0.535l0.004,0.003l0.656,0.488l0.004,0.003l0.656,0.434l0.003,0.002l0.656,0.377l0.004,0.002l0.656,0.264
			h0.003l0.656,0.092h0.004l0.656-0.07l0.004-0.002l0.656-0.217l0.004-0.001l0.656-0.313l0.004-0.002l0.655-0.319l0.004-0.002
			l0.656-0.269l0.004-0.001l0.656-0.147h0.003l0.283-0.016l0.373,0.033h0.004l0.656,0.226l0.004,0.002l0.656,0.36l0.004,0.002
			l0.656,0.458l0.003,0.003l0.656,0.465l0.004,0.002l0.656,0.367l0.003,0.001l0.653,0.169h0.003l0.168,0.008l0.488-0.086
			l0.004-0.002l0.656-0.486l0.004-0.004l0.656-0.926l0.004-0.006l0.656-1.311l0.004-0.008l0.656-1.526l0.003-0.009l0.656-1.562
			l0.004-0.009l0.656-1.435l0.003-0.008l0.656-1.156l0.004-0.005l0.656-0.786l0.004-0.003l0.656-0.31h0.004l0.068-0.003l0.588,0.193
			l0.003,0.003l0.656,0.607l0.004,0.004l0.656,0.936l0.003,0.006l0.656,1.147l0.004,0.006l0.656,1.258l0.004,0.008l0.656,1.307
			l0.004,0.008l0.656,1.336l0.004,0.007l0.656,1.338l0.003,0.008l0.656,1.325l0.004,0.008l0.656,1.285l0.003,0.007l0.656,1.278
			l0.004,0.007l0.656,1.203l0.004,0.007l0.656,1.07l0.004,0.005l0.656,0.833l0.003,0.004l0.656,0.553l0.004,0.002l0.656,0.251h0.003
			l0.229,0.016l0.428-0.055l0.004-0.001l0.656-0.271l0.004-0.002l0.656-0.499l0.004-0.003l0.656-0.686l0.004-0.004l0.656-0.758
			l0.003-0.004l0.656-0.731l0.004-0.004l0.652-0.562l0.004-0.003l0.656-0.268l0.003-0.001l0.186-0.014l0.471,0.085l0.004,0.002
			l0.656,0.363l0.004,0.003l0.656,0.6l0.004,0.004l0.656,0.648l0.004,0.004l0.655,0.479l0.004,0.002l0.508,0.152l0.148-0.013
			l0.004-0.001l0.655-0.38l0.004-0.003l0.656-0.894l0.004-0.006l0.656-1.368l0.004-0.008l0.656-1.754l0.004-0.011l0.656-2.006
			l0.003-0.012l0.656-2.079l0.004-0.012l0.656-2l0.003-0.01l0.656-1.767l0.004-0.009l0.656-1.496l0.004-0.008l0.656-1.316
			l0.004-0.008l0.656-1.316l0.004-0.008l0.656-1.541l0.003-0.009l0.656-1.942l0.004-0.013l0.656-2.525l0.003-0.016l0.656-3.246
			l0.004-0.021l0.656-4.096l0.004-0.025l0.656-4.852l0.004-0.028l0.656-5.388l0.003-0.03l0.656-5.543l0.004-0.03l0.656-5.294
			l0.003-0.027l0.656-4.661l0.004-0.023l0.656-3.566l0.004-0.016l0.656-2.035l0.004-0.007l0.384-0.339l0.272,0.171l0.004,0.005
			l0.652,1.855l0.004,0.016l0.656,3.896l0.003,0.026l0.656,5.716l0.004,0.036l0.656,7.124l0.003,0.043l0.656,7.965l0.004,0.045
			l0.656,8.17l0.004,0.045l0.656,7.756l0.004,0.041l0.656,6.83l0.003,0.035l0.656,5.64l0.004,0.027l0.656,4.364l0.003,0.021
			l0.656,3.112l0.004,0.014l0.656,1.915l0.004,0.007l0.656,0.809l0.004,0.001l0.159,0.032l0.497-0.282l0.004-0.004l0.656-1.155
			l0.003-0.009l0.656-1.972l0.004-0.013l0.656-2.772l0.003-0.018l0.656-3.574l0.004-0.022l0.656-4.354l0.004-0.025l0.656-5.138
			l0.004-0.03l0.656-5.923l0.003-0.035l0.656-6.72l0.004-0.039l0.656-7.539l0.003-0.043l0.656-8.383l0.004-0.048l0.656-9.215
			l0.004-0.053l0.656-10.027l0.004-0.058l0.656-10.772l0.004-0.062l0.656-11.326l0.003-0.063l0.656-11.66l0.004-0.064l0.656-11.447
			l0.003-0.062l0.656-10.683l0.004-0.056l0.656-9.23l0.004-0.046l0.656-7.095l0.004-0.032l0.652-4.402l0.004-0.017l0.642-1.448
			l0.015,0.001l0.003,0.001l0.657,1.559l0.003,0.018l0.656,4.27l0.003,0.029l0.657,6.392l0.003,0.041l0.656,7.845l0.004,0.046
			l0.656,8.611l0.004,0.049l0.656,8.769l0.004,0.048l0.656,8.51l0.003,0.046l0.656,8.044l0.004,0.043l0.656,7.549l0.003,0.04
			l0.656,7.183l0.004,0.039l0.656,6.998l0.004,0.038l0.656,6.948l0.004,0.038l0.656,7.003l0.004,0.038l0.656,6.927l0.003,0.038
			l0.656,6.771l0.004,0.036l0.656,6.424l0.003,0.034l0.656,5.907l0.004,0.031l0.656,5.29l0.004,0.028l0.656,4.647l0.004,0.023
			l0.656,4.041l0.003,0.021l0.656,3.52l0.004,0.019l0.656,3.104l0.003,0.016l0.656,2.761l0.004,0.015l0.656,2.465l0.004,0.013
			l0.656,2.208l0.004,0.011l0.656,1.958l0.004,0.01l0.656,1.69l0.003,0.008l0.656,1.399l0.004,0.008l0.656,1.094l0.003,0.006
			l0.656,0.774l0.004,0.004l0.652,0.427l0.004,0.001l0.406,0.077l0.25-0.032l0.004-0.001l0.656-0.427l0.004-0.004l0.656-1.035
			l0.003-0.008l0.656-1.804l0.004-0.012l0.656-2.78l0.003-0.019l0.656-3.894l0.004-0.025l0.656-5.178l0.004-0.032l0.656-6.605
			l0.004-0.041l0.656-8.044l0.004-0.048l0.656-9.291l0.003-0.054l0.656-10.198l0.004-0.058l0.656-10.639l0.003-0.059l0.656-10.537
			l0.004-0.057l0.656-9.874l0.004-0.052l0.656-8.708l0.004-0.044l0.656-7.191l0.003-0.035l0.656-5.521l0.004-0.025l0.656-3.933
			l0.003-0.018l0.656-2.65l0.004-0.012l0.656-1.854l0.004-0.01l0.656-1.632l0.004-0.01l0.656-2.011l0.004-0.014l0.656-2.957
			l0.003-0.02l0.656-4.221l0.004-0.026l0.656-5.472l0.003-0.033l0.656-6.244l0.004-0.035l0.656-6.267l0.004-0.033l0.656-5.439
			l0.004-0.025l0.656-3.788l0.004-0.015l0.645-1.362h0.012l0.003,0.001l0.656,1.588l0.004,0.018l0.652,4.724l0.004,0.035
			l0.656,7.796l0.003,0.052l0.656,10.438l0.004,0.064l0.656,12.454l0.004,0.072l0.656,13.695l0.004,0.078l0.656,14.121l0.003,0.078
			l0.656,13.774l0.004,0.074l0.656,12.775l0.003,0.066l0.656,11.285l0.004,0.058l0.656,9.517l0.004,0.048l0.656,7.661l0.004,0.037
			l0.656,5.836l0.004,0.028l0.656,4.229l0.003,0.02l0.656,2.746l0.004,0.012l0.656,1.546l0.003,0.006l0.656,0.659l0.004,0.002
			l0.468,0.105l0.188-0.015l0.004-0.001l0.656-0.218l0.004-0.001l0.656-0.269l0.003-0.001l0.656-0.159h0.004l0.319-0.019
			l0.337,0.017h0.003l0.656,0.059h0.004l0.059,0.001l0.598-0.129l0.004-0.002l0.656-0.65l0.004-0.006l0.656-1.552l0.004-0.012
			l0.656-2.742l0.003-0.019l0.656-4.127l0.004-0.027l0.656-5.563l0.003-0.035l0.656-6.855l0.004-0.041l0.656-7.797l0.004-0.045
			l0.656-8.269l0.004-0.046l0.656-8.279l0.004-0.045l0.655-7.66l0.004-0.04l0.652-6.545l0.004-0.033l0.656-5.135l0.003-0.024
			l0.656-3.624l0.004-0.016l0.656-2.312l0.004-0.01l0.656-1.386l0.004-0.006l0.656-0.902l0.004-0.005l0.656-0.873l0.003-0.006
			l0.656-1.25l0.004-0.009l0.656-1.906l0.003-0.013l0.656-2.845l0.004-0.019l0.656-3.919l0.004-0.024l0.656-5.156l0.004-0.031
			l0.656-6.492l0.004-0.039l0.655-7.847l0.004-0.047l0.656-9.186l0.004-0.054l0.655-10.193l0.004-0.058l0.656-10.593l0.004-0.059
			l0.656-10.351l0.004-0.056l0.656-9.463l0.004-0.049l0.656-7.894l0.003-0.039l0.656-5.828l0.004-0.025l0.656-3.45l0.003-0.013
			l0.613-1.02l0.043,0.005l0.004,0.001l0.656,1.234l0.004,0.013l0.656,3.191l0.004,0.022l0.656,4.792l0.004,0.03l0.656,5.945
			l0.003,0.035l0.656,6.591l0.004,0.037l0.656,6.848l0.003,0.038l0.656,6.746l0.004,0.036l0.656,6.423l0.004,0.034l0.656,5.969
			l0.004,0.031l0.652,5.308l0.004,0.027l0.656,4.461l0.003,0.021l0.656,3.258l0.004,0.014l0.656,1.649l0.003,0.004l0.266,0.154
			l0.391-0.33l0.004-0.007l0.656-1.992l0.004-0.016l0.656-3.674l0.004-0.023l0.656-4.759l0.004-0.027l0.656-4.697l0.003-0.023
			l0.656-3.231l0.004-0.011l0.409-0.647l0.247,0.26l0.003,0.008l0.656,3.459l0.004,0.031l0.341,4.021"/>
	</g>
</g>
</svg>
