<?xml version="1.0" encoding="utf-8"?>
<!-- Generator: Adobe Illustrator 16.0.0, SVG Export Plug-In . SVG Version: 6.00 Build 0)  -->
<!DOCTYPE svg PUBLIC "-//W3C//DTD SVG 1.1//EN" "http://www.w3.org/Graphics/SVG/1.1/DTD/svg11.dtd">
<svg version="1.1" id="Layer_1" xmlns="http://www.w3.org/2000/svg" xmlns:xlink="http://www.w3.org/1999/xlink" x="0px" y="0px"
	 width="1462px" height="605px" viewBox="0 0 1462 605" enable-background="new 0 0 1462 605" xml:space="preserve">
<g>
	
		<line fill="none" stroke="#000000" stroke-width="2.2431" stroke-linecap="square" stroke-linejoin="round" stroke-miterlimit="10" x1="190" y1="538" x2="805.5" y2="538"/>
	
		<line fill="none" stroke="#000000" stroke-width="2.2431" stroke-linecap="square" stroke-linejoin="round" stroke-miterlimit="10" x1="308.438" y1="538" x2="308.438" y2="549.33"/>
	
		<line fill="none" stroke="#000000" stroke-width="2.2431" stroke-linecap="square" stroke-linejoin="round" stroke-miterlimit="10" x1="619.563" y1="538" x2="619.563" y2="549.33"/>
	<g transform="translate(402.4375,555.1356)">
		<text transform="matrix(1 0 0 1 -130.5 16.9999)" font-family="'MyriadPro-Regular'" font-size="15.8333">Entrained</text>
	</g>
	<g transform="translate(1110.5625,555.1356)">
		<text transform="matrix(1 0 0 1 -543 16.9999)" font-family="'MyriadPro-Regular'" font-size="15.8333">Not entrained</text>
	</g>
	<g>
		
			<line fill="none" stroke="#000000" stroke-width="2.2431" stroke-linecap="square" stroke-linejoin="round" stroke-miterlimit="10" x1="190" y1="538" x2="190" y2="45"/>
		
			<line fill="none" stroke="#000000" stroke-width="2.2431" stroke-linecap="square" stroke-linejoin="round" stroke-miterlimit="10" x1="190" y1="538" x2="178.67" y2="538"/>
		
			<line fill="none" stroke="#000000" stroke-width="2.2431" stroke-linecap="square" stroke-linejoin="round" stroke-miterlimit="10" x1="190" y1="455.834" x2="178.67" y2="455.834"/>
		
			<line fill="none" stroke="#000000" stroke-width="2.2431" stroke-linecap="square" stroke-linejoin="round" stroke-miterlimit="10" x1="190" y1="373.667" x2="178.67" y2="373.667"/>
		
			<line fill="none" stroke="#000000" stroke-width="2.2431" stroke-linecap="square" stroke-linejoin="round" stroke-miterlimit="10" x1="190" y1="291.5" x2="178.67" y2="291.5"/>
		
			<line fill="none" stroke="#000000" stroke-width="2.2431" stroke-linecap="square" stroke-linejoin="round" stroke-miterlimit="10" x1="190" y1="209.334" x2="178.67" y2="209.334"/>
		
			<line fill="none" stroke="#000000" stroke-width="2.2431" stroke-linecap="square" stroke-linejoin="round" stroke-miterlimit="10" x1="190" y1="127.167" x2="178.67" y2="127.167"/>
		
			<line fill="none" stroke="#000000" stroke-width="2.2431" stroke-linecap="square" stroke-linejoin="round" stroke-miterlimit="10" x1="190" y1="45" x2="178.67" y2="45"/>
	</g>
	<g transform="translate(172.8644,538)">
		<text transform="matrix(1 0 0 1 -28.0001 5.9998)" font-family="'MyriadPro-Regular'" font-size="15.8333">-1.5</text>
	</g>
	<g transform="translate(172.8644,455.8333)">
		<text transform="matrix(1 0 0 1 -15.0001 6.0004)" font-family="'MyriadPro-Regular'" font-size="15.8333">-1</text>
	</g>
	<g transform="translate(172.8644,373.6667)">
		<text transform="matrix(1 0 0 1 -28.0001 6.0001)" font-family="'MyriadPro-Regular'" font-size="15.8333">-0.5</text>
	</g>
	<g transform="translate(172.8644,291.5)">
		<text transform="matrix(1 0 0 1 -10.0001 5.9998)" font-family="'MyriadPro-Regular'" font-size="15.8333">0</text>
	</g>
	<g transform="translate(172.8644,209.3333)">
		<text transform="matrix(1 0 0 1 -23.0001 6.0004)" font-family="'MyriadPro-Regular'" font-size="15.8333">0.5</text>
	</g>
	<g transform="translate(172.8644,127.1667)">
		<text transform="matrix(1 0 0 1 -10.0001 6.0001)" font-family="'MyriadPro-Regular'" font-size="15.8333">1</text>
	</g>
	<g transform="translate(172.8644,45)">
		<text transform="matrix(1 0 0 1 -23.0001 5.9998)" font-family="'MyriadPro-Regular'" font-size="15.8333">1.5</text>
	</g>
	<g transform="translate(140.9061,291.4998) rotate(-90)">
		<text transform="matrix(1 0 0 1 -51 -5.9998)" font-family="'MyriadPro-Regular'" font-size="19">Burst index</text>
	</g>
	<g>
		<path fill="#808080" fill-opacity="0.6" d="M308.775,433.858l-0.039-0.379l-0.034-0.379l-0.031-0.38l-0.027-0.379l-0.025-0.379
			l-0.022-0.379l-0.015-0.289l-0.023,49.574l0.018-0.38l0.02-0.379l0.021-0.379l0.025-0.379l0.027-0.379l0.031-0.38l0.034-0.379
			l0.038-0.379l0.042-0.379l0.047-0.379l0.051-0.38l0.057-0.379l0.063-0.379l0.067-0.379l0.074-0.38l0.081-0.379l0.088-0.379
			l0.096-0.379l0.103-0.379l0.111-0.38l0.12-0.379l0.128-0.379l0.138-0.379l0.147-0.379l0.155-0.38l0.166-0.379l0.177-0.379
			l0.186-0.379l0.195-0.38l0.206-0.379l0.216-0.379l0.225-0.379l0.234-0.379l0.244-0.38l0.252-0.379l0.261-0.379l0.268-0.379
			l0.275-0.379l0.281-0.38l0.286-0.379l0.291-0.379l0.294-0.379l0.297-0.38l0.298-0.379l0.298-0.379l0.296-0.379l0.295-0.379
			l0.29-0.38l0.284-0.379l0.279-0.379l0.27-0.379l0.261-0.38l0.25-0.379l0.238-0.379l0.225-0.379l0.21-0.379l0.193-0.38l0.177-0.379
			l0.158-0.379l0.14-0.379l0.12-0.379l0.099-0.38l0.078-0.379l0.057-0.379l0.034-0.379l0.012-0.379l-0.011-0.38l-0.032-0.379
			l-0.055-0.379l-0.077-0.379l-0.097-0.38l-0.118-0.379l-0.139-0.379l-0.157-0.379l-0.176-0.379l-0.192-0.38l-0.209-0.379
			l-0.223-0.379l-0.237-0.379l-0.249-0.379l-0.261-0.38l-0.27-0.379l-0.277-0.379l-0.285-0.379l-0.289-0.38l-0.294-0.379
			l-0.297-0.379l-0.298-0.379l-0.298-0.379l-0.297-0.38l-0.294-0.379l-0.291-0.379l-0.287-0.379l-0.281-0.38l-0.275-0.379
			l-0.269-0.379l-0.261-0.379l-0.253-0.379l-0.244-0.38l-0.235-0.379l-0.226-0.379l-0.217-0.379l-0.206-0.379l-0.196-0.38
			l-0.187-0.379l-0.177-0.379l-0.167-0.379l-0.157-0.38l-0.147-0.379l-0.138-0.379l-0.129-0.379l-0.12-0.379l-0.112-0.38
			l-0.104-0.379l-0.096-0.379l-0.089-0.379l-0.081-0.379l-0.074-0.38l-0.068-0.379l-0.063-0.379l-0.058-0.379l-0.052-0.379
			l-0.047-0.38L308.775,433.858z M308.614,407.32l0.016-0.379l0.017-0.38l0.018-0.379l0.02-0.379l0.021-0.379l0.021-0.379
			l0.022-0.38l0.023-0.379l0.024-0.379l0.026-0.379l0.027-0.38l0.028-0.379l0.03-0.379l0.03-0.379l0.032-0.379l0.033-0.38
			l0.034-0.379l0.035-0.379l0.037-0.379l0.037-0.38l0.038-0.379l0.04-0.379l0.04-0.379l0.041-0.379l0.041-0.38l0.043-0.379
			l0.043-0.379l0.043-0.379l0.044-0.379l0.045-0.38l0.045-0.379l0.045-0.379l0.045-0.379l0.045-0.38l0.046-0.379l0.045-0.379
			l0.045-0.379l0.045-0.379l0.045-0.38l0.045-0.379l0.044-0.379l0.044-0.379l0.043-0.379l0.043-0.38l0.042-0.379l0.042-0.379
			l0.041-0.379l0.04-0.379l0.039-0.38l0.039-0.379l0.037-0.379l0.037-0.379l0.036-0.38l0.034-0.379l0.034-0.379l0.033-0.379
			l0.031-0.379l0.03-0.38l0.03-0.379l0.028-0.379l0.026-0.379l0.026-0.379l0.024-0.38l0.023-0.379l0.021-0.379l0.021-0.379
			l0.02-0.38l0.019-0.379l0.017-0.379l0.016-0.379l0.014-0.379l0.014-0.38l0.012-0.379l0.01-0.379l0.009-0.379l0.008-0.379
			l0.007-0.38l0.006-0.379l0.004-0.379l0.003-0.379l0.002-0.38l0.001-0.379v-0.379l-0.001-0.379l-0.002-0.379l-0.003-0.38
			l-0.004-0.379l-0.005-0.379l-0.006-0.379l-0.007-0.379l-0.007-0.38l-0.009-0.379l-0.009-0.379l-0.011-0.379l-0.011-0.38
			l-0.012-0.379l-0.013-0.379l-0.014-0.379l-0.015-0.379l-0.016-0.38l-0.017-0.379l-0.018-0.379l-0.02-0.379l-0.02-0.38
			l-0.021-0.379l-0.022-0.379l-0.023-0.379l-0.024-0.379l-0.025-0.38l-0.026-0.379l-0.028-0.379l-0.029-0.379l-0.03-0.379
			l-0.031-0.38l-0.032-0.379l-0.033-0.379l-0.035-0.379l-0.035-0.38l-0.036-0.379l-0.036-0.379l-0.038-0.379l-0.038-0.379
			l-0.038-0.38l-0.038-0.379l-0.039-0.379l-0.039-0.379l-0.038-0.38l-0.039-0.379l-0.038-0.379l-0.037-0.379l-0.037-0.379
			l-0.036-0.379l-0.035-0.38l-0.034-0.379l-0.033-0.379l-0.032-0.379l-0.031-0.38l-0.029-0.379l-0.028-0.379l-0.026-0.379
			l-0.025-0.379l-0.024-0.38l-0.022-0.379l-0.021-0.379l-0.02-0.379l-0.019-0.379l-0.018-0.38l-0.016-0.379l-0.016-0.379
			l-0.014-0.379l-0.013-0.38l-0.013-0.379l-0.012-0.379l-0.011-0.379l-0.01-0.379l-0.011-0.38l-0.01-0.379l-0.01-0.379l-0.009-0.379
			l-0.01-0.38l-0.011-0.379l-0.01-0.379l-0.011-0.379l-0.011-0.379l-0.012-0.38l-0.013-0.379l-0.013-0.379l-0.014-0.379
			l-0.014-0.379l-0.016-0.38l-0.016-0.379l-0.017-0.379l-0.017-0.379l-0.019-0.38l-0.019-0.379l-0.019-0.379l-0.021-0.379
			l-0.021-0.379l-0.021-0.38l-0.021-0.379l-0.021-0.379l-0.021-0.379l-0.022-0.379l-0.022-0.38l-0.022-0.379l-0.022-0.379
			l-0.021-0.379l-0.022-0.38l-0.021-0.379l-0.021-0.379l-0.021-0.379l-0.021-0.379l-0.021-0.38l-0.02-0.379l-0.019-0.379
			l-0.019-0.379l-0.018-0.379l-0.018-0.38l-0.016-0.379l-0.016-0.379l-0.015-0.379l-0.014-0.38l-0.002-0.053l0.005-10.905
			l-0.014,0.343l-0.013,0.38l-0.013,0.379l-0.011,0.379l-0.01,0.379l-0.009,0.38l-0.008,0.379l-0.007,0.379l-0.006,0.379
			l-0.005,0.379l-0.003,0.38l-0.003,0.379l-0.002,0.379l-0.002,0.379l0.001,0.379l0.001,0.38l0.002,0.379l0.003,0.379l0.004,0.379
			l0.005,0.38l0.006,0.379l0.007,0.379l0.008,0.379l0.009,0.379l0.009,0.38l0.011,0.379l0.011,0.379l0.012,0.379l0.012,0.326
			l-0.037,77.2l0.007-0.187L308.614,407.32z M339.987,229.893l-0.034-0.379l-0.031-0.379l-0.029-0.379l-0.027-0.379l-0.025-0.38
			l-0.021-0.379l-0.02-0.379l-0.019-0.379l-0.014-0.38l-0.013-0.379l-0.011-0.379l-0.008-0.379l-0.006-0.379l-0.005-0.38
			l-0.003-0.379l-0.003-0.379l-0.002-0.379l-0.001-0.379l-0.001-0.38l-0.003-0.379l-0.003-0.379l-0.005-0.379l-0.006-0.38
			l-0.008-0.379l-0.011-0.379l-0.012-0.379l-0.017-0.379l-0.02-0.38l-0.023-0.379l-0.028-0.379l-0.032-0.379l-0.036-0.379
			l-0.043-0.38l-0.046-0.379l-0.051-0.379l-0.056-0.379l-0.061-0.38l-0.065-0.379l-0.068-0.379l-0.073-0.379l-0.077-0.379
			l-0.08-0.38l-0.084-0.379l-0.086-0.379l-0.088-0.379l-0.089-0.379l-0.09-0.38l-0.09-0.379l-0.089-0.379l-0.088-0.379l-0.084-0.379
			l-0.081-0.38l-0.077-0.379l-0.071-0.379l-0.065-0.379l-0.06-0.38l-0.051-0.379l-0.043-0.379l-0.033-0.379l-0.023-0.379
			l-0.012-0.38l-0.001-0.379l0.013-0.379l0.025-0.379l0.042-0.379l0.054-0.38l0.069-0.379l0.084-0.379l0.101-0.379l0.117-0.38
			l0.134-0.379l0.148-0.379l0.166-0.379l0.183-0.379l0.198-0.38l0.214-0.379l0.229-0.379l0.245-0.379l0.26-0.38l0.274-0.379
			l0.288-0.379l0.302-0.379l0.313-0.379l0.323-0.38l0.337-0.379l0.345-0.379l0.355-0.379l0.362-0.379l0.37-0.38l0.376-0.379
			l0.382-0.379l0.386-0.379l0.389-0.38l0.392-0.379l0.394-0.379l0.394-0.379l0.394-0.379l0.395-0.38l0.393-0.379l0.39-0.379
			l0.388-0.379l0.385-0.379l0.381-0.38l0.378-0.379l0.38-0.379l0.37-0.379l0.368-0.38l0.364-0.379l0.362-0.379l0.36-0.379
			l0.358-0.379l0.355-0.38l0.354-0.379l0.356-0.379l0.356-0.379l0.358-0.379l0.362-0.38l0.368-0.379l0.372-0.379l0.379-0.379
			l0.388-0.38l0.396-0.379l0.407-0.379l0.423-0.379l0.434-0.379l0.449-0.38l0.467-0.379l0.484-0.379l0.504-0.379l0.523-0.38
			l0.549-0.379l0.571-0.379l0.596-0.379l0.623-0.379l0.649-0.379l0.678-0.38l0.709-0.379l0.738-0.379l0.77-0.379l0.801-0.38
			l0.836-0.379l0.868-0.379l0.901-0.379l0.944-0.379l0.972-0.38l1.008-0.379l1.044-0.379l1.079-0.379l1.115-0.38l1.151-0.379
			l1.188-0.379l1.222-0.379l1.258-0.379l1.293-0.38l1.328-0.379l1.362-0.379l1.396-0.379l1.429-0.379l1.46-0.38l1.492-0.379
			l1.522-0.379l1.552-0.379l1.58-0.38l1.609-0.379l1.634-0.379l1.659-0.379l1.682-0.379l1.704-0.38l1.724-0.379l1.741-0.379
			l1.76-0.379l1.774-0.379l1.787-0.38l1.799-0.379l1.808-0.379l1.815-0.379l1.82-0.38l1.821-0.379l1.822-0.379l1.819-0.379
			l1.816-0.379l1.809-0.38l1.806-0.379l1.789-0.379l1.776-0.379l1.76-0.379l1.742-0.38l1.722-0.379l1.698-0.379l1.674-0.379
			l1.647-0.38l1.619-0.379l1.589-0.379l1.556-0.379l1.522-0.379l1.486-0.38l1.449-0.379l1.411-0.379l1.371-0.379l1.331-0.38
			l1.288-0.379l1.242-0.379l1.201-0.379l1.155-0.379l1.109-0.38l1.063-0.379l1.015-0.379l0.968-0.379l0.919-0.379l0.868-0.38
			l0.819-0.379l0.767-0.379l0.717-0.379l0.664-0.38l0.609-0.379l0.557-0.379l0.502-0.379l0.446-0.379l0.389-0.38l0.331-0.379
			l0.272-0.379l0.212-0.379l0.15-0.379l0.088-0.38l0.023-0.379l-0.043-0.379l-0.109-0.379l-0.18-0.379l-0.249-0.38l-0.32-0.379
			l-0.395-0.379l-0.469-0.379l-0.546-0.38l-0.623-0.379l-0.702-0.379l-0.783-0.379l-0.865-0.379l-0.948-0.38l-1.033-0.379
			l-1.117-0.379l-1.205-0.379l-1.289-0.379l-1.375-0.38l-1.463-0.379l-1.549-0.379l-1.637-0.379l-1.723-0.38l-1.807-0.379
			l-1.891-0.379l-1.975-0.379l-2.057-0.379l-2.135-0.38l-2.213-0.379l-2.288-0.379l-2.361-0.379l-2.433-0.379l-2.498-0.38
			l-2.563-0.379l-2.622-0.379l-2.677-0.379l-2.73-0.38l-2.777-0.379l-2.821-0.379l-2.859-0.379l-2.894-0.379l-2.921-0.38
			l-2.946-0.379l-2.965-0.379l-2.977-0.379l-2.985-0.38l-2.987-0.379l-2.984-0.379l-2.977-0.379l-2.962-0.379l-2.944-0.38
			l-2.919-0.379l-2.89-0.379l-2.855-0.379l-2.817-0.379l-2.772-0.38l-2.73-0.379l-2.673-0.379l-2.617-0.379l-2.559-0.38
			l-2.496-0.379l-2.432-0.379l-2.362-0.379l-2.292-0.379l-2.219-0.38l-2.145-0.379l-2.068-0.379l-1.992-0.379l-1.914-0.379
			l-1.838-0.38l-1.757-0.379l-1.679-0.379l-1.602-0.379l-1.523-0.38l-1.447-0.379l-1.375-0.379l-1.298-0.379l-1.226-0.379
			l-1.155-0.38l-1.087-0.379l-1.021-0.379l-0.955-0.379l-0.896-0.379l-0.834-0.38l-0.776-0.379l-0.723-0.379l-0.67-0.379
			l-0.62-0.379l-0.573-0.38l-0.528-0.379l-0.486-0.379l-0.446-0.379l-0.41-0.38l-0.374-0.379l-0.341-0.379l-0.318-0.379
			l-0.281-0.379l-0.256-0.38l-0.23-0.379l-0.21-0.379l-0.188-0.379l-0.171-0.38l-0.154-0.379l-0.136-0.379l-0.123-0.379
			l-0.108-0.379l-0.099-0.38l-0.087-0.379l-0.078-0.379l-0.067-0.379l-0.06-0.379l-0.053-0.38l-0.047-0.379l-0.103,217.648
			l0.001-0.036l0.017-0.379l0.018-0.379l0.018-0.379l0.021-0.38l0.021-0.379l0.023-0.379l0.024-0.379l0.025-0.379l0.028-0.38
			l0.029-0.379l0.031-0.379l0.033-0.379l0.034-0.38l0.037-0.379l0.039-0.379l0.041-0.379l0.043-0.379l0.045-0.38l0.048-0.379
			l0.05-0.379l0.053-0.379l0.055-0.379l0.058-0.38l0.061-0.379l0.063-0.379l0.066-0.379l0.069-0.38l0.072-0.379l0.075-0.379
			l0.078-0.379l0.082-0.379l0.086-0.38l0.089-0.379l0.092-0.379l0.096-0.379l0.099-0.38l0.103-0.379l0.105-0.379l0.109-0.379
			l0.112-0.379l0.116-0.379l0.118-0.38l0.121-0.379l0.124-0.379l0.126-0.379l0.129-0.38l0.13-0.379l0.132-0.379l0.133-0.379
			l0.134-0.379l0.134-0.38l0.133-0.379l0.134-0.379l0.132-0.379l0.13-0.379l0.128-0.38l0.126-0.379l0.122-0.379l0.118-0.379
			l0.114-0.38l0.109-0.379l0.104-0.379l0.098-0.379l0.092-0.379l0.085-0.38l0.077-0.379l0.069-0.379l0.062-0.379l0.054-0.38
			l0.045-0.379l0.036-0.379l0.027-0.379l0.019-0.379l0.009-0.38l0.001-0.379l-0.009-0.379l-0.017-0.379l-0.025-0.379l-0.033-0.38
			l-0.042-0.379l-0.049-0.379l-0.056-0.379l-0.063-0.38l-0.068-0.379l-0.074-0.379l-0.078-0.379l-0.084-0.379l-0.087-0.38
			l-0.09-0.379l-0.093-0.379l-0.095-0.379l-0.096-0.379l-0.096-0.38l-0.097-0.379l-0.096-0.379l-0.094-0.379l-0.094-0.38
			l-0.091-0.379l-0.088-0.379l-0.085-0.379l-0.082-0.379l-0.078-0.38l-0.073-0.379l-0.069-0.379l-0.064-0.379l-0.061-0.379
			l-0.055-0.38l-0.05-0.379l-0.044-0.379l-0.039-0.379l-0.033-0.38l-0.028-0.379l-0.022-0.379l-0.018-0.379l-0.012-0.379
			l-0.006-0.38l-0.001-0.379l0.005-0.379l0.01-0.379l0.016-0.379l0.021-0.38l0.026-0.379l0.032-0.379l0.037-0.379l0.043-0.38
			l0.049-0.379l0.054-0.379l0.06-0.379l0.065-0.379l0.071-0.38l0.078-0.379l0.083-0.379l0.09-0.379l0.097-0.379l0.104-0.38
			l0.11-0.379l0.118-0.379l0.125-0.379l0.134-0.38l0.141-0.379l0.149-0.379l0.158-0.379l0.167-0.379l0.176-0.38l0.188-0.379
			l0.196-0.379l0.206-0.379l0.216-0.379l0.227-0.38l0.237-0.379l0.25-0.379l0.26-0.379l0.271-0.38l0.284-0.379l0.296-0.379
			l0.308-0.379l0.319-0.379l0.332-0.38l0.345-0.379l0.356-0.379l0.369-0.379l0.381-0.379l0.393-0.38l0.406-0.379l0.417-0.379
			l0.429-0.379l0.441-0.38l0.451-0.379l0.461-0.379l0.473-0.379l0.48-0.379l0.49-0.38l0.498-0.379l0.507-0.379l0.513-0.379
			l0.518-0.38l0.524-0.379l0.528-0.379l0.531-0.379l0.533-0.379l0.535-0.38l0.534-0.379l0.534-0.379l0.532-0.379l0.528-0.379
			l0.523-0.38l0.519-0.379l0.511-0.379l0.504-0.379l0.494-0.38l0.484-0.379l0.473-0.379l0.461-0.379l0.448-0.379l0.433-0.38
			l0.418-0.379l0.403-0.379l0.387-0.379l0.368-0.379l0.352-0.38l0.334-0.379l0.314-0.379l0.297-0.379l0.278-0.38l0.26-0.379
			l0.24-0.379l0.222-0.379l0.203-0.379l0.186-0.38l0.167-0.379l0.149-0.379l0.134-0.379l0.117-0.379l0.102-0.38l0.087-0.379
			l0.073-0.379l0.059-0.379l0.048-0.379l0.035-0.38l0.025-0.379l0.015-0.379l0.007-0.379l-0.002-0.38l-0.009-0.379l-0.016-0.379
			l-0.021-0.379l-0.025-0.379l-0.029-0.38l-0.032-0.379l-0.035-0.379l-0.036-0.379l-0.038-0.379l-0.038-0.38l-0.038-0.379
			l-0.038-0.379l-0.036-0.379L339.987,229.893z M308.439,421.726l-0.001,0.379l0.004,0.38l0.001,0.379v0.379l0.001,0.379l0.001,0.38
			l0.002,0.379l0.001,0.379l0.002,0.379l0.002,0.379l0.003,0.38l0.003,0.379l0.004,0.379l0.004,0.379l0.005,0.379l0.005,0.38
			l0.007,0.379l0.007,0.379l0.008,0.379l0.01,0.379l0.011,0.38l0.012,0.379l0.014,0.379l0.016,0.379l0.018,0.38l0.005,0.09
			l0.011-23.409l-0.007,0.192l-0.013,0.379l-0.012,0.38l-0.012,0.379l-0.01,0.379l-0.01,0.379l-0.009,0.38l-0.008,0.379
			l-0.008,0.379l-0.007,0.379l-0.006,0.379l-0.006,0.38l-0.006,0.379l-0.004,0.379l-0.005,0.379l-0.004,0.379l-0.003,0.38
			l-0.003,0.379l-0.003,0.379l-0.003,0.379l-0.002,0.38l-0.002,0.379l-0.002,0.379l-0.002,0.379l-0.001,0.379l-0.001,0.38
			l-0.001,0.379l-0.002,0.379v0.379l-0.001,0.379l-0.001,0.38v0.379l-0.001,0.379v0.379l-0.001,0.379v0.38V421.726z"/>
	</g>
	<g>
		<path fill="none" stroke="#000000" stroke-width="0.6597" stroke-linecap="square" stroke-miterlimit="10" d="M308.558,480.869
			l0.018-0.38l0.02-0.379l0.021-0.379l0.025-0.379l0.027-0.379l0.031-0.38l0.034-0.379l0.038-0.379l0.042-0.379l0.047-0.379
			l0.051-0.38l0.057-0.379l0.063-0.379l0.067-0.379l0.074-0.38l0.081-0.379l0.088-0.379l0.096-0.379l0.103-0.379l0.111-0.38
			l0.12-0.379l0.128-0.379l0.138-0.379l0.147-0.379l0.155-0.38l0.166-0.379l0.177-0.379l0.186-0.379l0.195-0.38l0.206-0.379
			l0.216-0.379l0.225-0.379l0.234-0.379l0.244-0.38l0.252-0.379l0.261-0.379l0.268-0.379l0.275-0.379l0.281-0.38l0.286-0.379
			l0.291-0.379l0.294-0.379l0.297-0.38l0.298-0.379l0.298-0.379l0.296-0.379l0.295-0.379l0.29-0.38l0.284-0.379l0.279-0.379
			l0.27-0.379l0.261-0.38l0.25-0.379l0.238-0.379l0.225-0.379l0.21-0.379l0.193-0.38l0.177-0.379l0.158-0.379l0.14-0.379l0.12-0.379
			l0.099-0.38l0.078-0.379l0.057-0.379l0.034-0.379l0.012-0.379l-0.011-0.38l-0.032-0.379l-0.055-0.379l-0.077-0.379l-0.097-0.38
			l-0.118-0.379l-0.139-0.379l-0.157-0.379l-0.176-0.379l-0.192-0.38l-0.209-0.379l-0.223-0.379l-0.237-0.379l-0.249-0.379
			l-0.261-0.38l-0.27-0.379l-0.277-0.379l-0.285-0.379l-0.289-0.38l-0.294-0.379l-0.297-0.379l-0.298-0.379l-0.298-0.379
			l-0.297-0.38l-0.294-0.379l-0.291-0.379l-0.287-0.379l-0.281-0.38l-0.275-0.379l-0.269-0.379l-0.261-0.379l-0.253-0.379
			l-0.244-0.38l-0.235-0.379l-0.226-0.379l-0.217-0.379l-0.206-0.379l-0.196-0.38l-0.187-0.379l-0.177-0.379l-0.167-0.379
			l-0.157-0.38l-0.147-0.379l-0.138-0.379l-0.129-0.379l-0.12-0.379l-0.112-0.38l-0.104-0.379l-0.096-0.379l-0.089-0.379
			l-0.081-0.379l-0.074-0.38l-0.068-0.379l-0.063-0.379l-0.058-0.379l-0.052-0.379l-0.047-0.38l-0.042-0.379l-0.039-0.379
			l-0.034-0.379l-0.031-0.38l-0.027-0.379l-0.025-0.379l-0.022-0.379l-0.02-0.379l-0.018-0.38l-0.016-0.379l-0.014-0.379
			l-0.012-0.379l-0.011-0.38l-0.01-0.379l-0.008-0.379l-0.007-0.379l-0.007-0.379l-0.005-0.38l-0.005-0.379l-0.004-0.379
			l-0.004-0.379l-0.003-0.379l-0.003-0.38l-0.002-0.379l-0.002-0.379l-0.001-0.379l-0.002-0.379l-0.001-0.38l-0.001-0.379v-0.379
			l-0.001-0.379l-0.004-0.38l0.001-0.379v-0.379v-0.38l0.001-0.379v-0.379l0.001-0.379v-0.379l0.001-0.38l0.001-0.379v-0.379
			l0.002-0.379l0.001-0.379l0.001-0.38l0.001-0.379l0.002-0.379l0.002-0.379l0.002-0.379l0.002-0.38l0.003-0.379l0.003-0.379
			l0.003-0.379l0.003-0.38l0.004-0.379l0.005-0.379l0.004-0.379l0.006-0.379l0.006-0.38l0.006-0.379l0.007-0.379l0.008-0.379
			l0.008-0.379l0.009-0.38l0.01-0.379l0.01-0.379l0.012-0.379l0.012-0.38l0.013-0.379l0.014-0.379l0.016-0.379l0.016-0.379
			l0.017-0.38l0.018-0.379l0.02-0.379l0.021-0.379l0.021-0.379l0.022-0.38l0.023-0.379l0.024-0.379l0.026-0.379l0.027-0.38
			l0.028-0.379l0.03-0.379l0.03-0.379l0.032-0.379l0.033-0.38l0.034-0.379l0.035-0.379l0.037-0.379l0.037-0.38l0.038-0.379
			l0.04-0.379l0.04-0.379l0.041-0.379l0.041-0.38l0.043-0.379l0.043-0.379l0.043-0.379l0.044-0.379l0.045-0.38l0.045-0.379
			l0.045-0.379l0.045-0.379l0.045-0.38l0.046-0.379l0.045-0.379l0.045-0.379l0.045-0.379l0.045-0.38l0.045-0.379l0.044-0.379
			l0.044-0.379l0.043-0.379l0.043-0.38l0.042-0.379l0.042-0.379l0.041-0.379l0.04-0.379l0.039-0.38l0.039-0.379l0.037-0.379
			l0.037-0.379l0.036-0.38l0.034-0.379l0.034-0.379l0.033-0.379l0.031-0.379l0.03-0.38l0.03-0.379l0.028-0.379l0.026-0.379
			l0.026-0.379l0.024-0.38l0.023-0.379l0.021-0.379l0.021-0.379l0.02-0.38l0.019-0.379l0.017-0.379l0.016-0.379l0.014-0.379
			l0.014-0.38l0.012-0.379l0.01-0.379l0.009-0.379l0.008-0.379l0.007-0.38l0.006-0.379l0.004-0.379l0.003-0.379l0.002-0.38
			l0.001-0.379v-0.379l-0.001-0.379l-0.002-0.379l-0.003-0.38l-0.004-0.379l-0.005-0.379l-0.006-0.379l-0.007-0.379l-0.007-0.38
			l-0.009-0.379l-0.009-0.379l-0.011-0.379l-0.011-0.38l-0.012-0.379l-0.013-0.379l-0.014-0.379l-0.015-0.379l-0.016-0.38
			l-0.017-0.379l-0.018-0.379l-0.02-0.379l-0.02-0.38l-0.021-0.379l-0.022-0.379l-0.023-0.379l-0.024-0.379l-0.025-0.38
			l-0.026-0.379l-0.028-0.379l-0.029-0.379l-0.03-0.379l-0.031-0.38l-0.032-0.379l-0.033-0.379l-0.035-0.379l-0.035-0.38
			l-0.036-0.379l-0.036-0.379l-0.038-0.379l-0.038-0.379l-0.038-0.38l-0.038-0.379l-0.039-0.379l-0.039-0.379l-0.038-0.38
			l-0.039-0.379l-0.038-0.379l-0.037-0.379l-0.037-0.379l-0.036-0.379l-0.035-0.38l-0.034-0.379l-0.033-0.379l-0.032-0.379
			l-0.031-0.38l-0.029-0.379l-0.028-0.379l-0.026-0.379l-0.025-0.379l-0.024-0.38l-0.022-0.379l-0.021-0.379l-0.02-0.379
			l-0.019-0.379l-0.018-0.38l-0.016-0.379l-0.016-0.379l-0.014-0.379l-0.013-0.38l-0.013-0.379l-0.012-0.379l-0.011-0.379
			l-0.01-0.379l-0.011-0.38l-0.01-0.379l-0.01-0.379l-0.009-0.379l-0.01-0.38l-0.011-0.379l-0.01-0.379l-0.011-0.379l-0.011-0.379
			l-0.012-0.38l-0.013-0.379l-0.013-0.379l-0.014-0.379l-0.014-0.379l-0.016-0.38l-0.016-0.379l-0.017-0.379l-0.017-0.379
			l-0.019-0.38l-0.019-0.379l-0.019-0.379l-0.021-0.379l-0.021-0.379l-0.021-0.38l-0.021-0.379l-0.021-0.379l-0.021-0.379
			l-0.022-0.379l-0.022-0.38l-0.022-0.379l-0.022-0.379l-0.021-0.379l-0.022-0.38l-0.021-0.379l-0.021-0.379l-0.021-0.379
			l-0.021-0.379l-0.021-0.38l-0.02-0.379l-0.019-0.379l-0.019-0.379l-0.018-0.379l-0.018-0.38l-0.016-0.379l-0.016-0.379
			l-0.015-0.379l-0.014-0.38l-0.014-0.379l-0.012-0.379l-0.011-0.379l-0.011-0.379l-0.009-0.38l-0.009-0.379l-0.008-0.379
			l-0.007-0.379l-0.006-0.379l-0.005-0.38l-0.004-0.379l-0.003-0.379l-0.002-0.379l-0.001-0.38l-0.001-0.379l0.002-0.379
			l0.002-0.379l0.003-0.379l0.003-0.38l0.005-0.379l0.006-0.379l0.007-0.379l0.008-0.379l0.009-0.38l0.01-0.379l0.011-0.379
			l0.013-0.379l0.013-0.38l0.015-0.379l0.017-0.379l0.018-0.379l0.018-0.379l0.021-0.38l0.021-0.379l0.023-0.379l0.024-0.379
			l0.025-0.379l0.028-0.38l0.029-0.379l0.031-0.379l0.033-0.379l0.034-0.38l0.037-0.379l0.039-0.379l0.041-0.379l0.043-0.379
			l0.045-0.38l0.048-0.379l0.05-0.379l0.053-0.379l0.055-0.379l0.058-0.38l0.061-0.379l0.063-0.379l0.066-0.379l0.069-0.38
			l0.072-0.379l0.075-0.379l0.078-0.379l0.082-0.379l0.086-0.38l0.089-0.379l0.092-0.379l0.096-0.379l0.099-0.38l0.103-0.379
			l0.105-0.379l0.109-0.379l0.112-0.379l0.116-0.379l0.118-0.38l0.121-0.379l0.124-0.379l0.126-0.379l0.129-0.38l0.13-0.379
			l0.132-0.379l0.133-0.379l0.134-0.379l0.134-0.38l0.133-0.379l0.134-0.379l0.132-0.379l0.13-0.379l0.128-0.38l0.126-0.379
			l0.122-0.379l0.118-0.379l0.114-0.38l0.109-0.379l0.104-0.379l0.098-0.379l0.092-0.379l0.085-0.38l0.077-0.379l0.069-0.379
			l0.062-0.379l0.054-0.38l0.045-0.379l0.036-0.379l0.027-0.379l0.019-0.379l0.009-0.38l0.001-0.379l-0.009-0.379l-0.017-0.379
			l-0.025-0.379l-0.033-0.38l-0.042-0.379l-0.049-0.379l-0.056-0.379l-0.063-0.38l-0.068-0.379l-0.074-0.379l-0.078-0.379
			l-0.084-0.379l-0.087-0.38l-0.09-0.379l-0.093-0.379l-0.095-0.379l-0.096-0.379l-0.096-0.38l-0.097-0.379l-0.096-0.379
			l-0.094-0.379l-0.094-0.38l-0.091-0.379l-0.088-0.379l-0.085-0.379l-0.082-0.379l-0.078-0.38l-0.073-0.379l-0.069-0.379
			l-0.064-0.379l-0.061-0.379l-0.055-0.38l-0.05-0.379l-0.044-0.379l-0.039-0.379l-0.033-0.38l-0.028-0.379l-0.022-0.379
			l-0.018-0.379l-0.012-0.379l-0.006-0.38l-0.001-0.379l0.005-0.379l0.01-0.379l0.016-0.379l0.021-0.38l0.026-0.379l0.032-0.379
			l0.037-0.379l0.043-0.38l0.049-0.379l0.054-0.379l0.06-0.379l0.065-0.379l0.071-0.38l0.078-0.379l0.083-0.379l0.09-0.379
			l0.097-0.379l0.104-0.38l0.11-0.379l0.118-0.379l0.125-0.379l0.134-0.38l0.141-0.379l0.149-0.379l0.158-0.379l0.167-0.379
			l0.176-0.38l0.188-0.379l0.196-0.379l0.206-0.379l0.216-0.379l0.227-0.38l0.237-0.379l0.25-0.379l0.26-0.379l0.271-0.38
			l0.284-0.379l0.296-0.379l0.308-0.379l0.319-0.379l0.332-0.38l0.345-0.379l0.356-0.379l0.369-0.379l0.381-0.379l0.393-0.38
			l0.406-0.379l0.417-0.379l0.429-0.379l0.441-0.38l0.451-0.379l0.461-0.379l0.473-0.379l0.48-0.379l0.49-0.38l0.498-0.379
			l0.507-0.379l0.513-0.379l0.518-0.38l0.524-0.379l0.528-0.379l0.531-0.379l0.533-0.379l0.535-0.38l0.534-0.379l0.534-0.379
			l0.532-0.379l0.528-0.379l0.523-0.38l0.519-0.379l0.511-0.379l0.504-0.379l0.494-0.38l0.484-0.379l0.473-0.379l0.461-0.379
			l0.448-0.379l0.433-0.38l0.418-0.379l0.403-0.379l0.387-0.379l0.368-0.379l0.352-0.38l0.334-0.379l0.314-0.379l0.297-0.379
			l0.278-0.38l0.26-0.379l0.24-0.379l0.222-0.379l0.203-0.379l0.186-0.38l0.167-0.379l0.149-0.379l0.134-0.379l0.117-0.379
			l0.102-0.38l0.087-0.379l0.073-0.379l0.059-0.379l0.048-0.379l0.035-0.38l0.025-0.379l0.015-0.379l0.007-0.379l-0.002-0.38
			l-0.009-0.379l-0.016-0.379l-0.021-0.379l-0.025-0.379l-0.029-0.38l-0.032-0.379l-0.035-0.379l-0.036-0.379l-0.038-0.379
			l-0.038-0.38l-0.038-0.379l-0.038-0.379l-0.036-0.379l-0.036-0.38l-0.034-0.379l-0.031-0.379l-0.029-0.379l-0.027-0.379
			l-0.025-0.38l-0.021-0.379l-0.02-0.379l-0.019-0.379l-0.014-0.38l-0.013-0.379l-0.011-0.379l-0.008-0.379l-0.006-0.379
			l-0.005-0.38l-0.003-0.379l-0.003-0.379l-0.002-0.379l-0.001-0.379l-0.001-0.38l-0.003-0.379l-0.003-0.379l-0.005-0.379
			l-0.006-0.38l-0.008-0.379l-0.011-0.379l-0.012-0.379l-0.017-0.379l-0.02-0.38l-0.023-0.379l-0.028-0.379l-0.032-0.379
			l-0.036-0.379l-0.043-0.38l-0.046-0.379l-0.051-0.379l-0.056-0.379l-0.061-0.38l-0.065-0.379l-0.068-0.379l-0.073-0.379
			l-0.077-0.379l-0.08-0.38l-0.084-0.379l-0.086-0.379l-0.088-0.379l-0.089-0.379l-0.09-0.38l-0.09-0.379l-0.089-0.379l-0.088-0.379
			l-0.084-0.379l-0.081-0.38l-0.077-0.379l-0.071-0.379l-0.065-0.379l-0.06-0.38l-0.051-0.379l-0.043-0.379l-0.033-0.379
			l-0.023-0.379l-0.012-0.38l-0.001-0.379l0.013-0.379l0.025-0.379l0.042-0.379l0.054-0.38l0.069-0.379l0.084-0.379l0.101-0.379
			l0.117-0.38l0.134-0.379l0.148-0.379l0.166-0.379l0.183-0.379l0.198-0.38l0.214-0.379l0.229-0.379l0.245-0.379l0.26-0.38
			l0.274-0.379l0.288-0.379l0.302-0.379l0.313-0.379l0.323-0.38l0.337-0.379l0.345-0.379l0.355-0.379l0.362-0.379l0.37-0.38
			l0.376-0.379l0.382-0.379l0.386-0.379l0.389-0.38l0.392-0.379l0.394-0.379l0.394-0.379l0.394-0.379l0.395-0.38l0.393-0.379
			l0.39-0.379l0.388-0.379l0.385-0.379l0.381-0.38l0.378-0.379l0.38-0.379l0.37-0.379l0.368-0.38l0.364-0.379l0.362-0.379
			l0.36-0.379l0.358-0.379l0.355-0.38l0.354-0.379l0.356-0.379l0.356-0.379l0.358-0.379l0.362-0.38l0.368-0.379l0.372-0.379
			l0.379-0.379l0.388-0.38l0.396-0.379l0.407-0.379l0.423-0.379l0.434-0.379l0.449-0.38l0.467-0.379l0.484-0.379l0.504-0.379
			l0.523-0.38l0.549-0.379l0.571-0.379l0.596-0.379l0.623-0.379l0.649-0.379l0.678-0.38l0.709-0.379l0.738-0.379l0.77-0.379
			l0.801-0.38l0.836-0.379l0.868-0.379l0.901-0.379l0.944-0.379l0.972-0.38l1.008-0.379l1.044-0.379l1.079-0.379l1.115-0.38
			l1.151-0.379l1.188-0.379l1.222-0.379l1.258-0.379l1.293-0.38l1.328-0.379l1.362-0.379l1.396-0.379l1.429-0.379l1.46-0.38
			l1.492-0.379l1.522-0.379l1.552-0.379l1.58-0.38l1.609-0.379l1.634-0.379l1.659-0.379l1.682-0.379l1.704-0.38l1.724-0.379
			l1.741-0.379l1.76-0.379l1.774-0.379l1.787-0.38l1.799-0.379l1.808-0.379l1.815-0.379l1.82-0.38l1.821-0.379l1.822-0.379
			l1.819-0.379l1.816-0.379l1.809-0.38l1.806-0.379l1.789-0.379l1.776-0.379l1.76-0.379l1.742-0.38l1.722-0.379l1.698-0.379
			l1.674-0.379l1.647-0.38l1.619-0.379l1.589-0.379l1.556-0.379l1.522-0.379l1.486-0.38l1.449-0.379l1.411-0.379l1.371-0.379
			l1.331-0.38l1.288-0.379l1.242-0.379l1.201-0.379l1.155-0.379l1.109-0.38l1.063-0.379l1.015-0.379l0.968-0.379l0.919-0.379
			l0.868-0.38l0.819-0.379l0.767-0.379l0.717-0.379l0.664-0.38l0.609-0.379l0.557-0.379l0.502-0.379l0.446-0.379l0.389-0.38
			l0.331-0.379l0.272-0.379l0.212-0.379l0.15-0.379l0.088-0.38l0.023-0.379l-0.043-0.379l-0.109-0.379l-0.18-0.379l-0.249-0.38
			l-0.32-0.379l-0.395-0.379l-0.469-0.379l-0.546-0.38l-0.623-0.379l-0.702-0.379l-0.783-0.379l-0.865-0.379l-0.948-0.38
			l-1.033-0.379l-1.117-0.379l-1.205-0.379l-1.289-0.379l-1.375-0.38l-1.463-0.379l-1.549-0.379l-1.637-0.379l-1.723-0.38
			l-1.807-0.379l-1.891-0.379l-1.975-0.379l-2.057-0.379l-2.135-0.38l-2.213-0.379l-2.288-0.379l-2.361-0.379l-2.433-0.379
			l-2.498-0.38l-2.563-0.379l-2.622-0.379l-2.677-0.379l-2.73-0.38l-2.777-0.379l-2.821-0.379l-2.859-0.379l-2.894-0.379
			l-2.921-0.38l-2.946-0.379l-2.965-0.379l-2.977-0.379l-2.985-0.38l-2.987-0.379l-2.984-0.379l-2.977-0.379l-2.962-0.379
			l-2.944-0.38l-2.919-0.379l-2.89-0.379l-2.855-0.379l-2.817-0.379l-2.772-0.38l-2.73-0.379l-2.673-0.379l-2.617-0.379l-2.559-0.38
			l-2.496-0.379l-2.432-0.379l-2.362-0.379l-2.292-0.379l-2.219-0.38l-2.145-0.379l-2.068-0.379l-1.992-0.379l-1.914-0.379
			l-1.838-0.38l-1.757-0.379l-1.679-0.379l-1.602-0.379l-1.523-0.38l-1.447-0.379l-1.375-0.379l-1.298-0.379l-1.226-0.379
			l-1.155-0.38l-1.087-0.379l-1.021-0.379l-0.955-0.379l-0.896-0.379l-0.834-0.38l-0.776-0.379l-0.723-0.379l-0.67-0.379
			l-0.62-0.379l-0.573-0.38l-0.528-0.379l-0.486-0.379l-0.446-0.379l-0.41-0.38l-0.374-0.379l-0.341-0.379l-0.318-0.379
			l-0.281-0.379l-0.256-0.38l-0.23-0.379l-0.21-0.379l-0.188-0.379l-0.171-0.38l-0.154-0.379l-0.136-0.379l-0.123-0.379
			l-0.108-0.379l-0.099-0.38l-0.087-0.379l-0.078-0.379l-0.067-0.379l-0.06-0.379l-0.053-0.38l-0.047-0.379L308.558,480.869"/>
	</g>
	<g>
		<path fill="#808080" d="M237.625,142.106v49.087h70.813v-49.087H237.625z"/>
	</g>
	<g>
		<path fill="none" stroke="#000000" stroke-width="0.6597" stroke-linecap="square" stroke-miterlimit="10" d="M237.625,142.106
			v49.087V142.106h70.813l0,0v49.087l0,0h-70.813V142.106"/>
		
			<line fill="none" stroke="#000000" stroke-width="2.6389" stroke-linejoin="round" stroke-miterlimit="10" x1="237.625" y1="157.046" x2="308.438" y2="157.046"/>
		
			<line fill="none" stroke="#000000" stroke-width="1.9792" stroke-linejoin="round" stroke-miterlimit="10" x1="273.031" y1="260.263" x2="273.031" y2="191.193"/>
		
			<line fill="none" stroke="#000000" stroke-width="1.9792" stroke-linejoin="round" stroke-miterlimit="10" x1="273.031" y1="127.167" x2="273.031" y2="142.106"/>
		<path fill="none" stroke="#000000" stroke-width="0.6597" stroke-miterlimit="10" d="M264.71,369.85v10 M259.71,374.85h10
			 M261.412,371.552l6.597,6.597 M261.412,378.148l6.597-6.597"/>
		<path fill="none" stroke="#000000" stroke-width="0.6597" stroke-miterlimit="10" d="M272.14,339.837v10 M267.14,344.837h10
			 M268.841,341.538l6.597,6.597 M268.841,348.135l6.597-6.597"/>
		<path fill="none" stroke="#000000" stroke-width="0.6597" stroke-miterlimit="10" d="M291.361,358.488v10 M286.361,363.488h10
			 M288.063,360.189l6.597,6.597 M288.063,366.786l6.597-6.597"/>
		<path fill="none" stroke="#000000" stroke-width="0.6597" stroke-miterlimit="10" d="M262.095,373.393v10 M257.095,378.393h10
			 M258.796,375.094l6.598,6.598 M258.796,381.692l6.598-6.598"/>
		<path fill="none" stroke="#000000" stroke-width="0.6597" stroke-miterlimit="10" d="M251.896,359.557v10 M246.896,364.557h10
			 M248.599,361.259l6.597,6.598 M248.599,367.856l6.597-6.598"/>
		<path fill="none" stroke="#000000" stroke-width="0.6597" stroke-miterlimit="10" d="M267.444,387.365v10 M262.444,392.365h10
			 M264.146,389.066l6.598,6.598 M264.146,395.664l6.598-6.598"/>
		<path fill="none" stroke="#000000" stroke-width="0.6597" stroke-miterlimit="10" d="M290.688,379.586v10 M285.688,384.586h10
			 M287.39,381.287l6.597,6.597 M287.39,387.884l6.597-6.597"/>
		<path fill="none" stroke="#000000" stroke-width="0.6597" stroke-miterlimit="10" d="M256.829,450.834v10 M251.829,455.834h10
			 M253.53,452.535l6.597,6.598 M253.53,459.133l6.597-6.598"/>
		<path fill="none" stroke="#000000" stroke-width="0.6597" stroke-miterlimit="10" d="M256.375,450.834v10 M251.375,455.834h10
			 M253.076,452.535l6.598,6.598 M253.076,459.133l6.598-6.598"/>
		<path fill="none" stroke="#000000" stroke-width="0.6597" stroke-miterlimit="10" d="M265.803,265.931v10 M260.803,270.931h10
			 M262.504,267.633l6.597,6.598 M262.504,274.23l6.597-6.598"/>
		<path fill="none" stroke="#000000" stroke-width="0.6597" stroke-miterlimit="10" d="M276.572,288.376v10 M271.572,293.376h10
			 M273.273,290.077l6.597,6.597 M273.273,296.674l6.597-6.597"/>
		<path fill="none" stroke="#000000" stroke-width="0.6597" stroke-miterlimit="10" d="M274.969,450.834v10 M269.969,455.834h10
			 M271.67,452.535l6.598,6.598 M271.67,459.133l6.598-6.598"/>
		<path fill="none" stroke="#000000" stroke-width="0.6597" stroke-miterlimit="10" d="M270.98,450.834v10 M265.98,455.834h10
			 M267.682,452.535l6.598,6.598 M267.682,459.133l6.598-6.598"/>
		<path fill="none" stroke="#000000" stroke-width="0.6597" stroke-miterlimit="10" d="M271.21,450.834v10 M266.21,455.834h10
			 M267.912,452.535l6.597,6.598 M267.912,459.133l6.597-6.598"/>
		<path fill="none" stroke="#000000" stroke-width="0.6597" stroke-miterlimit="10" d="M293.785,286.5v10 M288.785,291.5h10
			 M290.487,288.202l6.597,6.597 M290.487,294.799l6.597-6.597"/>
		<path fill="none" stroke="#000000" stroke-width="0.6597" stroke-miterlimit="10" d="M275.284,286.5v10 M270.284,291.5h10
			 M271.985,288.202l6.598,6.597 M271.985,294.799l6.598-6.597"/>
		<path fill="none" stroke="#000000" stroke-width="0.6597" stroke-miterlimit="10" d="M266.285,286.5v10 M261.285,291.5h10
			 M262.986,288.202l6.597,6.597 M262.986,294.799l6.597-6.597"/>
		<path fill="none" stroke="#000000" stroke-width="0.6597" stroke-miterlimit="10" d="M256.899,286.5v10 M251.899,291.5h10
			 M253.601,288.202l6.598,6.597 M253.601,294.799l6.598-6.597"/>
		<path fill="none" stroke="#000000" stroke-width="0.6597" stroke-miterlimit="10" d="M279.737,286.5v10 M274.737,291.5h10
			 M276.438,288.202l6.597,6.597 M276.438,294.799l6.597-6.597"/>
		<path fill="none" stroke="#000000" stroke-width="0.6597" stroke-miterlimit="10" d="M253.326,450.834v10 M248.326,455.834h10
			 M250.028,452.535l6.597,6.598 M250.028,459.133l6.597-6.598"/>
		<path fill="none" stroke="#000000" stroke-width="0.6597" stroke-miterlimit="10" d="M254.096,450.834v10 M249.096,455.834h10
			 M250.797,452.535l6.598,6.598 M250.797,459.133l6.598-6.598"/>
		<path fill="none" stroke="#000000" stroke-width="0.6597" stroke-miterlimit="10" d="M272.738,272.993v10 M267.738,277.993h10
			 M269.439,274.695l6.598,6.597 M269.439,281.292l6.598-6.597"/>
		<path fill="none" stroke="#000000" stroke-width="0.6597" stroke-miterlimit="10" d="M249.876,300.194v10 M244.876,305.194h10
			 M246.577,301.896l6.598,6.597 M246.577,308.493l6.598-6.597"/>
		<path fill="none" stroke="#000000" stroke-width="0.6597" stroke-miterlimit="10" d="M266.084,450.834v10 M261.084,455.834h10
			 M262.785,452.535l6.597,6.598 M262.785,459.133l6.597-6.598"/>
		<path fill="none" stroke="#000000" stroke-width="0.6597" stroke-miterlimit="10" d="M289.746,450.834v10 M284.746,455.834h10
			 M286.448,452.535l6.597,6.598 M286.448,459.133l6.597-6.598"/>
		<path fill="none" stroke="#000000" stroke-width="0.6597" stroke-miterlimit="10" d="M262.307,450.834v10 M257.307,455.834h10
			 M259.008,452.535l6.598,6.598 M259.008,459.133l6.598-6.598"/>
		<path fill="none" stroke="#000000" stroke-width="0.6597" stroke-miterlimit="10" d="M278.672,450.834v10 M273.672,455.834h10
			 M275.374,452.535l6.597,6.598 M275.374,459.133l6.597-6.598"/>
		<path fill="none" stroke="#000000" stroke-width="0.6597" stroke-miterlimit="10" d="M253.878,286.5v10 M248.878,291.5h10
			 M250.579,288.202l6.597,6.597 M250.579,294.799l6.597-6.597"/>
		<path fill="none" stroke="#000000" stroke-width="0.6597" stroke-miterlimit="10" d="M282.226,265.158v10 M277.226,270.158h10
			 M278.928,266.859l6.597,6.598 M278.928,273.457l6.597-6.598"/>
		<path fill="none" stroke="#000000" stroke-width="0.6597" stroke-miterlimit="10" d="M284.573,450.834v10 M279.573,455.834h10
			 M281.274,452.535l6.598,6.598 M281.274,459.133l6.598-6.598"/>
		<path fill="none" stroke="#000000" stroke-width="0.6597" stroke-miterlimit="10" d="M291.047,450.834v10 M286.047,455.834h10
			 M287.748,452.535l6.597,6.598 M287.748,459.133l6.597-6.598"/>
		<path fill="none" stroke="#000000" stroke-width="0.6597" stroke-miterlimit="10" d="M293.556,450.834v10 M288.556,455.834h10
			 M290.257,452.535l6.598,6.598 M290.257,459.133l6.598-6.598"/>
	</g>
	<g>
		<path fill="#CCCCCC" fill-opacity="0.6" d="M619.917,427.662l-0.017-0.398l-0.015-0.398l-0.014-0.399l-0.012-0.398l-0.011-0.398
			l-0.009-0.399l-0.008-0.398l-0.008-0.398l-0.005-0.398l-0.005-0.399l-0.004-0.398l-0.003-0.398l-0.002-0.399l-0.001-0.398v-0.398
			v-0.399l0.001-0.398l0.001-0.398l0.003-0.398l0.002-0.399l0.003-0.398l0.003-0.398l0.004-0.399l0.004-0.398l0.004-0.398
			l0.005-0.398l0.005-0.399l0.005-0.398l0.004-0.398l0.006-0.399l0.005-0.398l0.005-0.398l0.006-0.398l0.005-0.399l0.006-0.398
			l0.005-0.398l0.006-0.399l0.005-0.398l0.005-0.398l0.006-0.398l0.005-0.399l0.006-0.398l0.005-0.398l0.005-0.399l0.005-0.398
			l0.004-0.398l0.005-0.399l0.005-0.398l0.006-0.398l0.005-0.398l0.005-0.399l0.006-0.398l0.005-0.398l0.005-0.398l0.006-0.399
			l0.005-0.398l0.006-0.398l0.006-0.399l0.005-0.398l0.006-0.398l0.006-0.398l0.006-0.399l0.007-0.398l0.006-0.398l0.007-0.399
			l0.007-0.398l0.007-0.398l0.007-0.398l0.008-0.399l0.008-0.398l0.008-0.398l0.008-0.399l0.008-0.398l0.009-0.398l0.009-0.398
			l0.009-0.399l0.009-0.398l0.009-0.398l0.01-0.399l0.01-0.398l0.01-0.398l0.01-0.398l0.01-0.399l0.01-0.398l0.01-0.398l0.01-0.399
			l0.011-0.398l0.01-0.398l0.011-0.399l0.01-0.398l0.01-0.398l0.01-0.398l0.01-0.399l0.01-0.398l0.009-0.398l0.01-0.398l0.009-0.399
			l0.009-0.398l0.008-0.398l0.009-0.399l0.008-0.398l0.008-0.398l0.007-0.398l0.007-0.399l0.006-0.398l0.006-0.398l0.006-0.399
			l0.005-0.398l0.005-0.398l0.004-0.398l0.004-0.399l0.003-0.398l0.003-0.398l0.002-0.399l0.002-0.398l0.002-0.398l0.001-0.398
			v-0.399v-0.398v-0.398l-0.001-0.399l-0.002-0.398l-0.001-0.398l-0.003-0.399l-0.002-0.398l-0.003-0.398l-0.004-0.398l-0.004-0.399
			l-0.004-0.398l-0.004-0.398l-0.005-0.399l-0.005-0.398l-0.006-0.398l-0.005-0.398l-0.006-0.399l-0.006-0.398l-0.007-0.398
			l-0.007-0.399l-0.006-0.398l-0.008-0.398l-0.006-0.398l-0.008-0.399l-0.007-0.398l-0.008-0.398l-0.008-0.398l-0.007-0.399
			l-0.008-0.398l-0.008-0.398l-0.008-0.399l-0.008-0.398l-0.008-0.398l-0.008-0.398l-0.008-0.399l-0.008-0.398l-0.008-0.398
			l-0.008-0.399l-0.007-0.398l-0.008-0.398l-0.008-0.399l-0.007-0.398l-0.008-0.398l-0.007-0.398l-0.007-0.399l-0.007-0.398
			l-0.006-0.398l-0.007-0.399l-0.006-0.398l-0.006-0.398l-0.006-0.398l-0.005-0.399l-0.005-0.398l-0.005-0.398l-0.004-0.399
			l-0.005-0.398l-0.003-0.398l-0.003-0.398l-0.003-0.399l-0.002-0.398l-0.002-0.398l-0.001-0.399l-0.001-0.398l-0.001-0.398
			l0.001-0.398l0.001-0.399l0.001-0.398l0.002-0.398l0.003-0.398l0.004-0.399l0.004-0.398l0.005-0.398l0.005-0.399l0.006-0.398
			l0.007-0.398l0.008-0.398l0.008-0.399l0.009-0.398l0.01-0.398l0.011-0.399l0.011-0.398l0.012-0.398l0.013-0.399l0.014-0.398
			l0.014-0.398l0.015-0.398l0.015-0.399l0.016-0.398l0.017-0.398l0.018-0.399l0.018-0.398l0.018-0.398l0.02-0.398l0.019-0.399
			l0.021-0.398l0.02-0.398l0.021-0.399l0.021-0.398l0.021-0.398l0.022-0.398l0.021-0.399l0.022-0.398l0.022-0.398l0.022-0.399
			l0.023-0.398l0.022-0.398l0.023-0.398l0.029-0.399l0.024-0.398l0.024-0.398l0.025-0.398l0.024-0.399l0.025-0.398l0.025-0.398
			l0.025-0.399l0.025-0.398l0.025-0.398l0.026-0.399l0.025-0.398l0.026-0.398l0.027-0.398l0.026-0.399l0.027-0.398l0.028-0.398
			l0.028-0.399l0.028-0.398l0.029-0.398l0.029-0.398l0.031-0.399l0.031-0.398l0.032-0.398l0.032-0.399l0.035-0.398l0.035-0.398
			l0.036-0.398l0.038-0.399l0.039-0.398l0.041-0.398l0.043-0.399l0.045-0.398l0.047-0.398l0.049-0.398l0.052-0.399l0.054-0.398
			l0.057-0.398l0.06-0.398l0.063-0.399l0.066-0.398l0.07-0.398l0.073-0.399l0.078-0.398l0.082-0.398l0.087-0.398l0.092-0.399
			l0.096-0.398l0.103-0.398l0.107-0.399l0.112-0.398l0.119-0.398l0.126-0.399l0.132-0.398l0.139-0.398l0.146-0.398l0.153-0.399
			l0.16-0.398l0.169-0.398l0.176-0.399l0.184-0.398l0.192-0.398l0.201-0.398l0.21-0.399l0.217-0.398l0.228-0.398l0.235-0.399
			l0.244-0.398l0.253-0.398l0.262-0.398l0.27-0.399l0.279-0.398l0.287-0.398l0.296-0.399l0.303-0.398l0.312-0.398l0.318-0.398
			l0.325-0.399l0.333-0.398l0.338-0.398l0.345-0.399l0.35-0.398l0.354-0.398l0.358-0.398l0.362-0.399l0.365-0.398l0.367-0.398
			l0.37-0.399l0.369-0.398l0.37-0.398l0.368-0.398l0.367-0.399l0.365-0.398l0.361-0.398l0.357-0.399l0.353-0.398l0.346-0.398
			l0.34-0.398l0.332-0.399l0.324-0.398l0.313-0.398l0.305-0.399l0.293-0.398l0.282-0.398l0.27-0.398l0.257-0.399l0.244-0.398
			l0.229-0.398l0.215-0.399l0.2-0.398l0.185-0.398l0.168-0.398l0.153-0.399l0.137-0.398l0.119-0.398l0.104-0.399l0.087-0.398
			l0.071-0.398l0.055-0.398l0.039-0.399l0.023-0.398l0.008-0.398l-0.007-0.399l-0.021-0.398l-0.035-0.398l-0.048-0.398l-0.061-0.399
			l-0.072-0.398l-0.082-0.398l-0.093-0.399l-0.101-0.398l-0.109-0.398l-0.115-0.398l-0.123-0.399l-0.126-0.398l-0.131-0.398
			l-0.133-0.399l-0.136-0.398l-0.135-0.398l-0.134-0.398l-0.131-0.399l-0.128-0.398l-0.124-0.398l-0.118-0.399l-0.11-0.398
			l-0.103-0.398l-0.093-0.398l-0.083-0.399l-0.071-0.398l-0.058-0.398l-0.044-0.399l-0.029-0.398l-0.013-0.398l0.004-0.398
			l0.021-0.399l0.041-0.398l0.061-0.398l0.081-0.399l0.103-0.398l0.125-0.398l0.148-0.398l0.171-0.399l0.196-0.398l0.221-0.398
			l0.246-0.399l0.272-0.398l0.298-0.398l0.326-0.398l0.354-0.399l0.38-0.398l0.408-0.398l0.437-0.399l0.465-0.398l0.494-0.398
			l0.521-0.399l0.551-0.398l0.579-0.398l0.608-0.398l0.637-0.399l0.664-0.398l0.693-0.398l0.721-0.398l0.748-0.399l0.775-0.398
			l0.802-0.398l0.828-0.399l0.854-0.398l0.88-0.398l0.903-0.398l0.927-0.399l0.95-0.398l0.973-0.398l0.993-0.399l1.014-0.398
			l1.032-0.398l1.051-0.398l1.068-0.399l1.084-0.398l1.098-0.398l1.111-0.399l1.123-0.398l1.134-0.398l1.143-0.398l1.149-0.399
			l1.156-0.398l1.16-0.398l1.163-0.399l1.165-0.398l1.163-0.398l1.162-0.398l1.157-0.399l1.151-0.398l1.144-0.398l1.135-0.399
			l1.124-0.398l1.111-0.398l1.097-0.399l1.081-0.398l1.063-0.398l1.044-0.398l1.023-0.399l1.001-0.398l0.977-0.398l0.951-0.399
			l0.925-0.398l0.896-0.398l0.867-0.398l0.838-0.399l0.806-0.398l0.772-0.398l0.74-0.398l0.705-0.399l0.665-0.398l0.637-0.398
			l0.6-0.399l0.563-0.398l0.526-0.398l0.49-0.398l0.452-0.399l0.416-0.398l0.379-0.398l0.342-0.399l0.306-0.398l0.271-0.398
			l0.234-0.398l0.199-0.399l0.166-0.398l0.132-0.398l0.1-0.399l0.068-0.398l0.037-0.398l0.007-0.399l-0.021-0.398l-0.049-0.398
			l-0.074-0.398l-0.101-0.399l-0.124-0.398l-0.146-0.398l-0.167-0.399l-0.188-0.398l-0.206-0.398l-0.225-0.398l-0.237-0.399
			l-0.254-0.398l-0.269-0.398l-0.28-0.399l-0.292-0.398l-0.301-0.398l-0.311-0.398l-0.318-0.399l-0.325-0.398l-0.33-0.398
			l-0.335-0.398l-0.34-0.399l-0.342-0.398l-0.345-0.398l-0.347-0.399l-0.348-0.398l-0.348-0.398l-0.349-0.398l-0.347-0.399
			l-0.346-0.398l-0.345-0.398l-0.343-0.399l-0.341-0.398l-0.339-0.398l-0.337-0.398l-0.334-0.399l-0.331-0.398l-0.328-0.398
			l-0.326-0.399l-0.323-0.398l-0.32-0.398l-0.317-0.399l-0.315-0.398l-0.313-0.398l-0.311-0.398l-0.309-0.399l-0.307-0.398
			l-0.303-0.398l-0.303-0.399l-0.301-0.398l-0.3-0.398l-0.298-0.398l-0.297-0.399l-0.295-0.398l-0.294-0.398l-0.293-0.399
			l-0.292-0.398l-0.29-0.398l-0.29-0.398l-0.288-0.399l-0.286-0.398l-0.286-0.398l-0.285-0.398l-0.283-0.399l-0.281-0.398
			l-0.28-0.398l-0.277-0.399l-0.275-0.398l-0.274-0.398l-0.27-0.398l-0.268-0.399l-0.265-0.398l-0.261-0.398l-0.257-0.399
			l-0.253-0.398l-0.248-0.398l-0.242-0.399l-0.236-0.398l-0.231-0.398l-0.224-0.398l-0.219-0.399l-0.21-0.398l-0.202-0.398
			l-0.194-0.399l-0.185-0.398l-0.173-0.398l-0.166-0.398l-0.154-0.399l-0.145-0.398l-0.132-0.398l-0.121-0.399l-0.108-0.398
			l-0.095-0.398l-0.083-0.398l-0.066-0.399l-0.053-0.398l-0.039-0.398l-0.022-0.399l-0.007-0.398l0.009-0.398l0.025-0.398
			l0.043-0.399l0.061-0.398l0.079-0.398l0.096-0.399l0.115-0.398l0.134-0.398l0.152-0.398l0.171-0.399l0.19-0.398l0.212-0.398
			l0.229-0.398l0.25-0.399l0.271-0.398l0.29-0.398l0.312-0.399l0.332-0.398l0.352-0.398l0.373-0.399l0.394-0.398l0.413-0.398
			l0.433-0.398l0.458-0.399l0.474-0.398l0.494-0.398l0.515-0.399l0.534-0.398l0.554-0.398l0.574-0.398l0.593-0.399l0.611-0.398
			l0.63-0.398l0.649-0.399l0.668-0.398l0.686-0.398l0.704-0.398l0.723-0.399l0.739-0.398l0.757-0.398l0.774-0.399l0.791-0.398
			l0.809-0.398l0.825-0.398l0.84-0.399l0.857-0.398l0.872-0.398l0.889-0.399l0.904-0.398l0.919-0.398l0.934-0.398l0.95-0.399
			l0.964-0.398l0.979-0.398l0.994-0.399l1.009-0.398l1.021-0.398l1.037-0.398l1.051-0.399l1.065-0.398l1.079-0.398l1.098-0.399
			l1.108-0.398l1.121-0.398l1.135-0.398l1.148-0.399l1.162-0.398l1.175-0.398l1.188-0.399l1.2-0.398l1.214-0.398l1.227-0.398
			l1.238-0.399l1.25-0.398l1.261-0.398l1.273-0.399l1.283-0.398l1.293-0.398l1.304-0.398l1.312-0.399l1.32-0.398l1.328-0.398
			l1.336-0.399l1.341-0.398l1.347-0.398l1.352-0.398l1.354-0.399l1.356-0.398l1.357-0.398l1.357-0.399l1.355-0.398l1.354-0.398
			l1.349-0.398l1.344-0.399l1.336-0.398l1.327-0.398l1.316-0.399l1.304-0.398l1.29-0.398l1.273-0.398l1.256-0.399l1.235-0.398
			l1.213-0.398l1.188-0.399l1.164-0.398l1.134-0.398l1.104-0.398l1.07-0.399l1.036-0.398l0.998-0.398l0.959-0.399l0.917-0.398
			l0.872-0.398l0.827-0.398l0.777-0.399l0.728-0.398l0.675-0.398l0.619-0.399l0.563-0.398l0.503-0.398l0.443-0.398l0.38-0.399
			l0.315-0.398l0.249-0.398l0.182-0.399l0.111-0.398l0.042-0.398l-0.031-0.398l-0.104-0.399l-0.179-0.398l-0.254-0.398l-0.33-0.399
			l-0.407-0.398l-0.484-0.398l-0.562-0.398l-0.64-0.399l-0.718-0.398l-0.797-0.398l-0.874-0.399l-0.952-0.398l-1.029-0.398
			l-1.105-0.398l-1.183-0.399l-1.256-0.398l-1.333-0.398l-1.403-0.399l-1.475-0.398l-1.544-0.398l-1.613-0.399l-1.679-0.398
			l-1.744-0.398l-1.807-0.398l-1.867-0.399l-1.926-0.398l-1.98-0.398l-2.035-0.398l-2.085-0.399l-2.134-0.398l-2.178-0.398
			l-2.222-0.399l-2.261-0.398l-2.298-0.398l-2.332-0.398l-2.362-0.399l-2.39-0.398l-2.414-0.398l-2.437-0.399l-2.453-0.398
			l-2.469-0.398l-2.48-0.398l-2.49-0.399l-2.495-0.398l-2.498-0.398l-2.498-0.399l-2.493-0.398l-2.488-0.398l-2.479-0.398
			l-2.466-0.399l-2.451-0.398l-2.434-0.398l-2.413-0.399l-2.394-0.398l-2.365-0.398l-2.338-0.399l-2.308-0.398l-2.277-0.398
			l-2.243-0.398l-2.207-0.399l-2.17-0.398l-2.131-0.398l-2.091-0.399l-2.048-0.398l-2.005-0.398l-1.961-0.398l-1.916-0.399
			l-1.869-0.398l-1.821-0.398l-1.774-0.398l-1.726-0.399l-1.677-0.398l-1.628-0.398l-1.578-0.399l-1.528-0.398l-1.48-0.398
			l-1.43-0.398l-1.381-0.399l-1.332-0.398l-1.283-0.398l-1.235-0.399l-1.188-0.398l-1.142-0.398l-1.096-0.398l-1.05-0.399
			l-1.005-0.398l-0.962-0.398l-0.919-0.399l-0.877-0.398l-0.836-0.398l-0.797-0.398l-0.761-0.399l-0.721-0.398l-0.685-0.398
			l-0.648-0.399l-0.615-0.398l-0.582-0.398l-0.55-0.399l-0.52-0.398l-0.49-0.398l-0.463-0.398l-0.435-0.399l-0.409-0.398
			l-0.385-0.398l-0.36-0.399l-0.338-0.398l-0.316-0.398l-0.296-0.398l-0.277-0.399l-0.259-0.398l-0.24-0.398l-0.225-0.399
			l-0.208-0.398l-0.193-0.398l-0.179-0.398l-0.167-0.399l-0.155-0.398l-0.142-0.398l-0.132-0.398l-0.122-0.399l-0.111-0.398
			l-0.104-0.398l-0.096-0.399l-0.088-0.398l-0.08-0.398l-0.073-0.398l-0.067-0.399l-0.062-0.398l-0.061-0.398l-0.05-0.399
			l-0.047-0.398l-0.042-0.398l-0.039-0.399l-0.035-0.398l-0.032-0.398l-0.028-0.398l-0.026-0.399l-0.163,398.318l0.006-0.398
			l0.007-0.398l0.007-0.398l0.008-0.399l0.009-0.398l0.01-0.398l0.01-0.399l0.011-0.398l0.013-0.398l0.013-0.398l0.015-0.399
			l0.015-0.398l0.017-0.398l0.018-0.399l0.02-0.398l0.02-0.398l0.022-0.398l0.023-0.399l0.024-0.398l0.027-0.398l0.028-0.399
			l0.03-0.398l0.033-0.398l0.034-0.398l0.036-0.399l0.039-0.398l0.041-0.398l0.043-0.399l0.046-0.398l0.048-0.398l0.051-0.398
			l0.053-0.399l0.055-0.398l0.059-0.398l0.061-0.399l0.063-0.398l0.066-0.398l0.068-0.398l0.071-0.399l0.074-0.398l0.076-0.398
			l0.08-0.399l0.081-0.398l0.085-0.398l0.086-0.398l0.089-0.399l0.091-0.398l0.094-0.398l0.095-0.399l0.098-0.398l0.099-0.398
			l0.101-0.398l0.102-0.399l0.103-0.398l0.104-0.398l0.104-0.399l0.105-0.398l0.105-0.398l0.104-0.398l0.105-0.399l0.104-0.398
			l0.104-0.398l0.104-0.399l0.102-0.398l0.1-0.398l0.099-0.398l0.097-0.399l0.094-0.398l0.091-0.398l0.089-0.399l0.085-0.398
			l0.081-0.398l0.078-0.398l0.073-0.399l0.069-0.398l0.065-0.398l0.061-0.399l0.056-0.398l0.05-0.398l0.046-0.398l0.039-0.399
			l0.034-0.398l0.028-0.398l0.023-0.399l0.017-0.398l0.011-0.398l0.006-0.399l-0.002-0.398l-0.006-0.398l-0.014-0.398l-0.019-0.399
			l-0.024-0.398l-0.03-0.398l-0.036-0.399l-0.041-0.398l-0.047-0.398l-0.052-0.398l-0.057-0.399l-0.063-0.398l-0.066-0.398
			l-0.07-0.398l-0.075-0.399l-0.079-0.398l-0.082-0.398l-0.086-0.399l-0.09-0.398l-0.092-0.398l-0.095-0.398l-0.096-0.399
			l-0.1-0.398l-0.101-0.398l-0.102-0.399l-0.104-0.398l-0.104-0.398l-0.104-0.398l-0.105-0.399l-0.104-0.398l-0.105-0.398
			l-0.104-0.399l-0.104-0.398l-0.104-0.398l-0.102-0.398l-0.101-0.399l-0.099-0.398l-0.098-0.398l-0.096-0.399l-0.094-0.398
			l-0.092-0.398l-0.09-0.399l-0.087-0.398l-0.085-0.398l-0.082-0.398l-0.08-0.399l-0.077-0.398l-0.074-0.398l-0.071-0.399
			l-0.069-0.398l-0.065-0.398l-0.063-0.398l-0.061-0.399l-0.058-0.398l-0.056-0.398l-0.052-0.398l-0.05-0.399l-0.048-0.398
			l-0.044-0.398l-0.042-0.399l-0.039-0.398l-0.037-0.398l-0.034-0.398l-0.032-0.399l-0.03-0.398l-0.028-0.398l-0.025-0.399
			l-0.023-0.398l-0.022-0.398l-0.021-0.398L619.917,427.662z"/>
	</g>
	<g>
		<path fill="none" stroke="#000000" stroke-width="0.6597" stroke-linecap="square" stroke-miterlimit="10" d="M619.619,490.659
			l0.006-0.398l0.007-0.398l0.007-0.398l0.008-0.399l0.009-0.398l0.01-0.398l0.01-0.399l0.011-0.398l0.013-0.398l0.013-0.398
			l0.015-0.399l0.015-0.398l0.017-0.398l0.018-0.399l0.02-0.398l0.02-0.398l0.022-0.398l0.023-0.399l0.024-0.398l0.027-0.398
			l0.028-0.399l0.03-0.398l0.033-0.398l0.034-0.398l0.036-0.399l0.039-0.398l0.041-0.398l0.043-0.399l0.046-0.398l0.048-0.398
			l0.051-0.398l0.053-0.399l0.055-0.398l0.059-0.398l0.061-0.399l0.063-0.398l0.066-0.398l0.068-0.398l0.071-0.399l0.074-0.398
			l0.076-0.398l0.08-0.399l0.081-0.398l0.085-0.398l0.086-0.398l0.089-0.399l0.091-0.398l0.094-0.398l0.095-0.399l0.098-0.398
			l0.099-0.398l0.101-0.398l0.102-0.399l0.103-0.398l0.104-0.398l0.104-0.399l0.105-0.398l0.105-0.398l0.104-0.398l0.105-0.399
			l0.104-0.398l0.104-0.398l0.104-0.399l0.102-0.398l0.1-0.398l0.099-0.398l0.097-0.399l0.094-0.398l0.091-0.398l0.089-0.399
			l0.085-0.398l0.081-0.398l0.078-0.398l0.073-0.399l0.069-0.398l0.065-0.398l0.061-0.399l0.056-0.398l0.05-0.398l0.046-0.398
			l0.039-0.399l0.034-0.398l0.028-0.398l0.023-0.399l0.017-0.398l0.011-0.398l0.006-0.399l-0.002-0.398l-0.006-0.398l-0.014-0.398
			l-0.019-0.399l-0.024-0.398l-0.03-0.398l-0.036-0.399l-0.041-0.398l-0.047-0.398l-0.052-0.398l-0.057-0.399l-0.063-0.398
			l-0.066-0.398l-0.07-0.398l-0.075-0.399l-0.079-0.398l-0.082-0.398l-0.086-0.399l-0.09-0.398l-0.092-0.398l-0.095-0.398
			l-0.096-0.399l-0.1-0.398l-0.101-0.398l-0.102-0.399l-0.104-0.398l-0.104-0.398l-0.104-0.398l-0.105-0.399l-0.104-0.398
			l-0.105-0.398l-0.104-0.399l-0.104-0.398l-0.104-0.398l-0.102-0.398l-0.101-0.399l-0.099-0.398l-0.098-0.398l-0.096-0.399
			l-0.094-0.398l-0.092-0.398l-0.09-0.399l-0.087-0.398l-0.085-0.398l-0.082-0.398l-0.08-0.399l-0.077-0.398l-0.074-0.398
			l-0.071-0.399l-0.069-0.398l-0.065-0.398l-0.063-0.398l-0.061-0.399l-0.058-0.398l-0.056-0.398l-0.052-0.398l-0.05-0.399
			l-0.048-0.398l-0.044-0.398l-0.042-0.399l-0.039-0.398l-0.037-0.398l-0.034-0.398l-0.032-0.399l-0.03-0.398l-0.028-0.398
			l-0.025-0.399l-0.023-0.398l-0.022-0.398l-0.021-0.398l-0.018-0.399l-0.017-0.398l-0.015-0.398l-0.014-0.399l-0.012-0.398
			l-0.011-0.398l-0.009-0.399l-0.008-0.398l-0.008-0.398l-0.005-0.398l-0.005-0.399l-0.004-0.398l-0.003-0.398l-0.002-0.399
			l-0.001-0.398v-0.398v-0.399l0.001-0.398l0.001-0.398l0.003-0.398l0.002-0.399l0.003-0.398l0.003-0.398l0.004-0.399l0.004-0.398
			l0.004-0.398l0.005-0.398l0.005-0.399l0.005-0.398l0.004-0.398l0.006-0.399l0.005-0.398l0.005-0.398l0.006-0.398l0.005-0.399
			l0.006-0.398l0.005-0.398l0.006-0.399l0.005-0.398l0.005-0.398l0.006-0.398l0.005-0.399l0.006-0.398l0.005-0.398l0.005-0.399
			l0.005-0.398l0.004-0.398l0.005-0.399l0.005-0.398l0.006-0.398l0.005-0.398l0.005-0.399l0.006-0.398l0.005-0.398l0.005-0.398
			l0.006-0.399l0.005-0.398l0.006-0.398l0.006-0.399l0.005-0.398l0.006-0.398l0.006-0.398l0.006-0.399l0.007-0.398l0.006-0.398
			l0.007-0.399l0.007-0.398l0.007-0.398l0.007-0.398l0.008-0.399l0.008-0.398l0.008-0.398l0.008-0.399l0.008-0.398l0.009-0.398
			l0.009-0.398l0.009-0.399l0.009-0.398l0.009-0.398l0.01-0.399l0.01-0.398l0.01-0.398l0.01-0.398l0.01-0.399l0.01-0.398l0.01-0.398
			l0.01-0.399l0.011-0.398l0.01-0.398l0.011-0.399l0.01-0.398l0.01-0.398l0.01-0.398l0.01-0.399l0.01-0.398l0.009-0.398l0.01-0.398
			l0.009-0.399l0.009-0.398l0.008-0.398l0.009-0.399l0.008-0.398l0.008-0.398l0.007-0.398l0.007-0.399l0.006-0.398l0.006-0.398
			l0.006-0.399l0.005-0.398l0.005-0.398l0.004-0.398l0.004-0.399l0.003-0.398l0.003-0.398l0.002-0.399l0.002-0.398l0.002-0.398
			l0.001-0.398v-0.399v-0.398v-0.398l-0.001-0.399l-0.002-0.398l-0.001-0.398l-0.003-0.399l-0.002-0.398l-0.003-0.398l-0.004-0.398
			l-0.004-0.399l-0.004-0.398l-0.004-0.398l-0.005-0.399l-0.005-0.398l-0.006-0.398l-0.005-0.398l-0.006-0.399l-0.006-0.398
			l-0.007-0.398l-0.007-0.399l-0.006-0.398l-0.008-0.398l-0.006-0.398l-0.008-0.399l-0.007-0.398l-0.008-0.398l-0.008-0.398
			l-0.007-0.399l-0.008-0.398l-0.008-0.398l-0.008-0.399l-0.008-0.398l-0.008-0.398l-0.008-0.398l-0.008-0.399l-0.008-0.398
			l-0.008-0.398l-0.008-0.399l-0.007-0.398l-0.008-0.398l-0.008-0.399l-0.007-0.398l-0.008-0.398l-0.007-0.398l-0.007-0.399
			l-0.007-0.398l-0.006-0.398l-0.007-0.399l-0.006-0.398l-0.006-0.398l-0.006-0.398l-0.005-0.399l-0.005-0.398l-0.005-0.398
			l-0.004-0.399l-0.005-0.398l-0.003-0.398l-0.003-0.398l-0.003-0.399l-0.002-0.398l-0.002-0.398l-0.001-0.399l-0.001-0.398
			l-0.001-0.398l0.001-0.398l0.001-0.399l0.001-0.398l0.002-0.398l0.003-0.398l0.004-0.399l0.004-0.398l0.005-0.398l0.005-0.399
			l0.006-0.398l0.007-0.398l0.008-0.398l0.008-0.399l0.009-0.398l0.01-0.398l0.011-0.399l0.011-0.398l0.012-0.398l0.013-0.399
			l0.014-0.398l0.014-0.398l0.015-0.398l0.015-0.399l0.016-0.398l0.017-0.398l0.018-0.399l0.018-0.398l0.018-0.398l0.02-0.398
			l0.019-0.399l0.021-0.398l0.02-0.398l0.021-0.399l0.021-0.398l0.021-0.398l0.022-0.398l0.021-0.399l0.022-0.398l0.022-0.398
			l0.022-0.399l0.023-0.398l0.022-0.398l0.023-0.398l0.029-0.399l0.024-0.398l0.024-0.398l0.025-0.398l0.024-0.399l0.025-0.398
			l0.025-0.398l0.025-0.399l0.025-0.398l0.025-0.398l0.026-0.399l0.025-0.398l0.026-0.398l0.027-0.398l0.026-0.399l0.027-0.398
			l0.028-0.398l0.028-0.399l0.028-0.398l0.029-0.398l0.029-0.398l0.031-0.399l0.031-0.398l0.032-0.398l0.032-0.399l0.035-0.398
			l0.035-0.398l0.036-0.398l0.038-0.399l0.039-0.398l0.041-0.398l0.043-0.399l0.045-0.398l0.047-0.398l0.049-0.398l0.052-0.399
			l0.054-0.398l0.057-0.398l0.06-0.398l0.063-0.399l0.066-0.398l0.07-0.398l0.073-0.399l0.078-0.398l0.082-0.398l0.087-0.398
			l0.092-0.399l0.096-0.398l0.103-0.398l0.107-0.399l0.112-0.398l0.119-0.398l0.126-0.399l0.132-0.398l0.139-0.398l0.146-0.398
			l0.153-0.399l0.16-0.398l0.169-0.398l0.176-0.399l0.184-0.398l0.192-0.398l0.201-0.398l0.21-0.399l0.217-0.398l0.228-0.398
			l0.235-0.399l0.244-0.398l0.253-0.398l0.262-0.398l0.27-0.399l0.279-0.398l0.287-0.398l0.296-0.399l0.303-0.398l0.312-0.398
			l0.318-0.398l0.325-0.399l0.333-0.398l0.338-0.398l0.345-0.399l0.35-0.398l0.354-0.398l0.358-0.398l0.362-0.399l0.365-0.398
			l0.367-0.398l0.37-0.399l0.369-0.398l0.37-0.398l0.368-0.398l0.367-0.399l0.365-0.398l0.361-0.398l0.357-0.399l0.353-0.398
			l0.346-0.398l0.34-0.398l0.332-0.399l0.324-0.398l0.313-0.398l0.305-0.399l0.293-0.398l0.282-0.398l0.27-0.398l0.257-0.399
			l0.244-0.398l0.229-0.398l0.215-0.399l0.2-0.398l0.185-0.398l0.168-0.398l0.153-0.399l0.137-0.398l0.119-0.398l0.104-0.399
			l0.087-0.398l0.071-0.398l0.055-0.398l0.039-0.399l0.023-0.398l0.008-0.398l-0.007-0.399l-0.021-0.398l-0.035-0.398l-0.048-0.398
			l-0.061-0.399l-0.072-0.398l-0.082-0.398l-0.093-0.399l-0.101-0.398l-0.109-0.398l-0.115-0.398l-0.123-0.399l-0.126-0.398
			l-0.131-0.398l-0.133-0.399l-0.136-0.398l-0.135-0.398l-0.134-0.398l-0.131-0.399l-0.128-0.398l-0.124-0.398l-0.118-0.399
			l-0.11-0.398l-0.103-0.398l-0.093-0.398l-0.083-0.399l-0.071-0.398l-0.058-0.398l-0.044-0.399l-0.029-0.398l-0.013-0.398
			l0.004-0.398l0.021-0.399l0.041-0.398l0.061-0.398l0.081-0.399l0.103-0.398l0.125-0.398l0.148-0.398l0.171-0.399l0.196-0.398
			l0.221-0.398l0.246-0.399l0.272-0.398l0.298-0.398l0.326-0.398l0.354-0.399l0.38-0.398l0.408-0.398l0.437-0.399l0.465-0.398
			l0.494-0.398l0.521-0.399l0.551-0.398l0.579-0.398l0.608-0.398l0.637-0.399l0.664-0.398l0.693-0.398l0.721-0.398l0.748-0.399
			l0.775-0.398l0.802-0.398l0.828-0.399l0.854-0.398l0.88-0.398l0.903-0.398l0.927-0.399l0.95-0.398l0.973-0.398l0.993-0.399
			l1.014-0.398l1.032-0.398l1.051-0.398l1.068-0.399l1.084-0.398l1.098-0.398l1.111-0.399l1.123-0.398l1.134-0.398l1.143-0.398
			l1.149-0.399l1.156-0.398l1.16-0.398l1.163-0.399l1.165-0.398l1.163-0.398l1.162-0.398l1.157-0.399l1.151-0.398l1.144-0.398
			l1.135-0.399l1.124-0.398l1.111-0.398l1.097-0.399l1.081-0.398l1.063-0.398l1.044-0.398l1.023-0.399l1.001-0.398l0.977-0.398
			l0.951-0.399l0.925-0.398l0.896-0.398l0.867-0.398l0.838-0.399l0.806-0.398l0.772-0.398l0.74-0.398l0.705-0.399l0.665-0.398
			l0.637-0.398l0.6-0.399l0.563-0.398l0.526-0.398l0.49-0.398l0.452-0.399l0.416-0.398l0.379-0.398l0.342-0.399l0.306-0.398
			l0.271-0.398l0.234-0.398l0.199-0.399l0.166-0.398l0.132-0.398l0.1-0.399l0.068-0.398l0.037-0.398l0.007-0.399l-0.021-0.398
			l-0.049-0.398l-0.074-0.398l-0.101-0.399l-0.124-0.398l-0.146-0.398l-0.167-0.399l-0.188-0.398l-0.206-0.398l-0.225-0.398
			l-0.237-0.399l-0.254-0.398l-0.269-0.398l-0.28-0.399l-0.292-0.398l-0.301-0.398l-0.311-0.398l-0.318-0.399l-0.325-0.398
			l-0.33-0.398l-0.335-0.398l-0.34-0.399l-0.342-0.398l-0.345-0.398l-0.347-0.399l-0.348-0.398l-0.348-0.398l-0.349-0.398
			l-0.347-0.399l-0.346-0.398l-0.345-0.398l-0.343-0.399l-0.341-0.398l-0.339-0.398l-0.337-0.398l-0.334-0.399l-0.331-0.398
			l-0.328-0.398l-0.326-0.399l-0.323-0.398l-0.32-0.398l-0.317-0.399l-0.315-0.398l-0.313-0.398l-0.311-0.398l-0.309-0.399
			l-0.307-0.398l-0.303-0.398l-0.303-0.399l-0.301-0.398l-0.3-0.398l-0.298-0.398l-0.297-0.399l-0.295-0.398l-0.294-0.398
			l-0.293-0.399l-0.292-0.398l-0.29-0.398l-0.29-0.398l-0.288-0.399l-0.286-0.398l-0.286-0.398l-0.285-0.398l-0.283-0.399
			l-0.281-0.398l-0.28-0.398l-0.277-0.399l-0.275-0.398l-0.274-0.398l-0.27-0.398l-0.268-0.399l-0.265-0.398l-0.261-0.398
			l-0.257-0.399l-0.253-0.398l-0.248-0.398l-0.242-0.399l-0.236-0.398l-0.231-0.398l-0.224-0.398l-0.219-0.399l-0.21-0.398
			l-0.202-0.398l-0.194-0.399l-0.185-0.398l-0.173-0.398l-0.166-0.398l-0.154-0.399l-0.145-0.398l-0.132-0.398l-0.121-0.399
			l-0.108-0.398l-0.095-0.398l-0.083-0.398l-0.066-0.399l-0.053-0.398l-0.039-0.398l-0.022-0.399l-0.007-0.398l0.009-0.398
			l0.025-0.398l0.043-0.399l0.061-0.398l0.079-0.398l0.096-0.399l0.115-0.398l0.134-0.398l0.152-0.398l0.171-0.399l0.19-0.398
			l0.212-0.398l0.229-0.398l0.25-0.399l0.271-0.398l0.29-0.398l0.312-0.399l0.332-0.398l0.352-0.398l0.373-0.399l0.394-0.398
			l0.413-0.398l0.433-0.398l0.458-0.399l0.474-0.398l0.494-0.398l0.515-0.399l0.534-0.398l0.554-0.398l0.574-0.398l0.593-0.399
			l0.611-0.398l0.63-0.398l0.649-0.399l0.668-0.398l0.686-0.398l0.704-0.398l0.723-0.399l0.739-0.398l0.757-0.398l0.774-0.399
			l0.791-0.398l0.809-0.398l0.825-0.398l0.84-0.399l0.857-0.398l0.872-0.398l0.889-0.399l0.904-0.398l0.919-0.398l0.934-0.398
			l0.95-0.399l0.964-0.398l0.979-0.398l0.994-0.399l1.009-0.398l1.021-0.398l1.037-0.398l1.051-0.399l1.065-0.398l1.079-0.398
			l1.098-0.399l1.108-0.398l1.121-0.398l1.135-0.398l1.148-0.399l1.162-0.398l1.175-0.398l1.188-0.399l1.2-0.398l1.214-0.398
			l1.227-0.398l1.238-0.399l1.25-0.398l1.261-0.398l1.273-0.399l1.283-0.398l1.293-0.398l1.304-0.398l1.312-0.399l1.32-0.398
			l1.328-0.398l1.336-0.399l1.341-0.398l1.347-0.398l1.352-0.398l1.354-0.399l1.356-0.398l1.357-0.398l1.357-0.399l1.355-0.398
			l1.354-0.398l1.349-0.398l1.344-0.399l1.336-0.398l1.327-0.398l1.316-0.399l1.304-0.398l1.29-0.398l1.273-0.398l1.256-0.399
			l1.235-0.398l1.213-0.398l1.188-0.399l1.164-0.398l1.134-0.398l1.104-0.398l1.07-0.399l1.036-0.398l0.998-0.398l0.959-0.399
			l0.917-0.398l0.872-0.398l0.827-0.398l0.777-0.399l0.728-0.398l0.675-0.398l0.619-0.399l0.563-0.398l0.503-0.398l0.443-0.398
			l0.38-0.399l0.315-0.398l0.249-0.398l0.182-0.399l0.111-0.398l0.042-0.398l-0.031-0.398l-0.104-0.399l-0.179-0.398l-0.254-0.398
			l-0.33-0.399l-0.407-0.398l-0.484-0.398l-0.562-0.398l-0.64-0.399l-0.718-0.398l-0.797-0.398l-0.874-0.399l-0.952-0.398
			l-1.029-0.398l-1.105-0.398l-1.183-0.399l-1.256-0.398l-1.333-0.398l-1.403-0.399l-1.475-0.398l-1.544-0.398l-1.613-0.399
			l-1.679-0.398l-1.744-0.398l-1.807-0.398l-1.867-0.399l-1.926-0.398l-1.98-0.398l-2.035-0.398l-2.085-0.399l-2.134-0.398
			l-2.178-0.398l-2.222-0.399l-2.261-0.398l-2.298-0.398l-2.332-0.398l-2.362-0.399l-2.39-0.398l-2.414-0.398l-2.437-0.399
			l-2.453-0.398l-2.469-0.398l-2.48-0.398l-2.49-0.399l-2.495-0.398l-2.498-0.398l-2.498-0.399l-2.493-0.398l-2.488-0.398
			l-2.479-0.398l-2.466-0.399l-2.451-0.398l-2.434-0.398l-2.413-0.399l-2.394-0.398l-2.365-0.398l-2.338-0.399l-2.308-0.398
			l-2.277-0.398l-2.243-0.398l-2.207-0.399l-2.17-0.398l-2.131-0.398l-2.091-0.399l-2.048-0.398l-2.005-0.398l-1.961-0.398
			l-1.916-0.399l-1.869-0.398l-1.821-0.398l-1.774-0.398l-1.726-0.399l-1.677-0.398l-1.628-0.398l-1.578-0.399l-1.528-0.398
			l-1.48-0.398l-1.43-0.398l-1.381-0.399l-1.332-0.398l-1.283-0.398l-1.235-0.399l-1.188-0.398l-1.142-0.398l-1.096-0.398
			l-1.05-0.399l-1.005-0.398l-0.962-0.398l-0.919-0.399l-0.877-0.398l-0.836-0.398l-0.797-0.398l-0.761-0.399l-0.721-0.398
			l-0.685-0.398l-0.648-0.399l-0.615-0.398l-0.582-0.398l-0.55-0.399l-0.52-0.398l-0.49-0.398l-0.463-0.398l-0.435-0.399
			l-0.409-0.398l-0.385-0.398l-0.36-0.399l-0.338-0.398l-0.316-0.398l-0.296-0.398l-0.277-0.399l-0.259-0.398l-0.24-0.398
			l-0.225-0.399l-0.208-0.398l-0.193-0.398l-0.179-0.398l-0.167-0.399l-0.155-0.398l-0.142-0.398l-0.132-0.398l-0.122-0.399
			l-0.111-0.398l-0.104-0.398l-0.096-0.399l-0.088-0.398l-0.08-0.398l-0.073-0.398l-0.067-0.399l-0.062-0.398l-0.061-0.398
			l-0.05-0.399l-0.047-0.398l-0.042-0.398l-0.039-0.399l-0.035-0.398l-0.032-0.398l-0.028-0.398l-0.026-0.399L619.619,490.659"/>
	</g>
	<g>
		<path fill="#CCCCCC" d="M548.75,147.598v81.156h70.813v-81.156H548.75z"/>
	</g>
	<g>
		<path fill="none" stroke="#000000" stroke-width="0.6597" stroke-linecap="square" stroke-miterlimit="10" d="M548.75,147.598
			v81.156V147.598h70.813l0,0v81.156l0,0H548.75V147.598"/>
		
			<line fill="none" stroke="#000000" stroke-width="2.6389" stroke-linejoin="round" stroke-miterlimit="10" x1="548.75" y1="173.036" x2="619.563" y2="173.036"/>
		
			<line fill="none" stroke="#000000" stroke-width="1.9792" stroke-linejoin="round" stroke-miterlimit="10" x1="584.156" y1="335.322" x2="584.156" y2="228.755"/>
		
			<line fill="none" stroke="#000000" stroke-width="1.9792" stroke-linejoin="round" stroke-miterlimit="10" x1="584.156" y1="127.167" x2="584.156" y2="147.598"/>
		<path fill="none" stroke="#000000" stroke-width="0.6597" stroke-miterlimit="10" d="M561.957,379.79v10 M556.957,384.79h10
			 M558.659,381.491l6.597,6.598 M558.659,388.089l6.597-6.598"/>
		<path fill="none" stroke="#000000" stroke-width="0.6597" stroke-miterlimit="10" d="M584.752,450.834v10 M579.752,455.834h10
			 M581.453,452.535l6.598,6.598 M581.453,459.133l6.598-6.598"/>
		<path fill="none" stroke="#000000" stroke-width="0.6597" stroke-miterlimit="10" d="M588.346,450.834v10 M583.346,455.834h10
			 M585.048,452.535l6.597,6.598 M585.048,459.133l6.597-6.598"/>
		<path fill="none" stroke="#000000" stroke-width="0.6597" stroke-miterlimit="10" d="M564.16,368.479v10 M559.16,373.479h10
			 M560.861,370.18l6.598,6.598 M560.861,376.778l6.598-6.598"/>
		<path fill="none" stroke="#000000" stroke-width="0.6597" stroke-miterlimit="10" d="M571.019,404.483v10 M566.019,409.483h10
			 M567.72,406.184l6.598,6.598 M567.72,412.782l6.598-6.598"/>
		<path fill="none" stroke="#000000" stroke-width="0.6597" stroke-miterlimit="10" d="M599.327,450.834v10 M594.327,455.834h10
			 M596.028,452.535l6.598,6.598 M596.028,459.133l6.598-6.598"/>
		<path fill="none" stroke="#000000" stroke-width="0.6597" stroke-miterlimit="10" d="M580.526,355.693v10 M575.526,360.693h10
			 M577.228,357.394l6.597,6.598 M577.228,363.992l6.597-6.598"/>
		<path fill="none" stroke="#000000" stroke-width="0.6597" stroke-miterlimit="10" d="M587.028,450.834v10 M582.028,455.834h10
			 M583.729,452.535l6.598,6.598 M583.729,459.133l6.598-6.598"/>
		<path fill="none" stroke="#000000" stroke-width="0.6597" stroke-miterlimit="10" d="M564.437,450.834v10 M559.437,455.834h10
			 M561.138,452.535l6.598,6.598 M561.138,459.133l6.598-6.598"/>
		<path fill="none" stroke="#000000" stroke-width="0.6597" stroke-miterlimit="10" d="M600.447,450.834v10 M595.447,455.834h10
			 M597.149,452.535l6.597,6.598 M597.149,459.133l6.597-6.598"/>
		<path fill="none" stroke="#000000" stroke-width="0.6597" stroke-miterlimit="10" d="M607.65,450.834v10 M602.65,455.834h10
			 M604.352,452.535l6.598,6.598 M604.352,459.133l6.598-6.598"/>
		<path fill="none" stroke="#000000" stroke-width="0.6597" stroke-miterlimit="10" d="M589.637,450.834v10 M584.637,455.834h10
			 M586.338,452.535l6.598,6.598 M586.338,459.133l6.598-6.598"/>
		<path fill="none" stroke="#000000" stroke-width="0.6597" stroke-miterlimit="10" d="M568.751,450.834v10 M563.751,455.834h10
			 M565.452,452.535l6.598,6.598 M565.452,459.133l6.598-6.598"/>
		<path fill="none" stroke="#000000" stroke-width="0.6597" stroke-miterlimit="10" d="M605.558,450.834v10 M600.558,455.834h10
			 M602.259,452.535l6.598,6.598 M602.259,459.133l6.598-6.598"/>
		<path fill="none" stroke="#000000" stroke-width="0.6597" stroke-miterlimit="10" d="M578.693,450.834v10 M573.693,455.834h10
			 M575.395,452.535l6.598,6.598 M575.395,459.133l6.598-6.598"/>
		<path fill="none" stroke="#000000" stroke-width="0.6597" stroke-miterlimit="10" d="M562.923,450.834v10 M557.923,455.834h10
			 M559.625,452.535l6.597,6.598 M559.625,459.133l6.597-6.598"/>
		<path fill="none" stroke="#000000" stroke-width="0.6597" stroke-miterlimit="10" d="M606.85,450.834v10 M601.85,455.834h10
			 M603.551,452.535l6.598,6.598 M603.551,459.133l6.598-6.598"/>
		<path fill="none" stroke="#000000" stroke-width="0.6597" stroke-miterlimit="10" d="M599.85,450.834v10 M594.85,455.834h10
			 M596.551,452.535l6.598,6.598 M596.551,459.133l6.598-6.598"/>
		<path fill="none" stroke="#000000" stroke-width="0.6597" stroke-miterlimit="10" d="M596.865,450.834v10 M591.865,455.834h10
			 M593.566,452.535l6.598,6.598 M593.566,459.133l6.598-6.598"/>
		<path fill="none" stroke="#000000" stroke-width="0.6597" stroke-miterlimit="10" d="M593.631,450.834v10 M588.631,455.834h10
			 M590.333,452.535l6.597,6.598 M590.333,459.133l6.597-6.598"/>
		<path fill="none" stroke="#000000" stroke-width="0.6597" stroke-miterlimit="10" d="M577.093,450.834v10 M572.093,455.834h10
			 M573.794,452.535l6.598,6.598 M573.794,459.133l6.598-6.598"/>
		<path fill="none" stroke="#000000" stroke-width="0.6597" stroke-miterlimit="10" d="M570.651,381.307v10 M565.651,386.307h10
			 M567.353,383.01l6.598,6.597 M567.353,389.606l6.598-6.597"/>
	</g>
</g>
</svg>
