<?xml version="1.0" encoding="utf-8"?>
<!-- Generator: Adobe Illustrator 16.0.0, SVG Export Plug-In . SVG Version: 6.00 Build 0)  -->
<!DOCTYPE svg PUBLIC "-//W3C//DTD SVG 1.1//EN" "http://www.w3.org/Graphics/SVG/1.1/DTD/svg11.dtd">
<svg version="1.1" id="Layer_1" xmlns="http://www.w3.org/2000/svg" xmlns:xlink="http://www.w3.org/1999/xlink" x="0px" y="0px"
	 width="1462px" height="634px" viewBox="0 0 1462 634" enable-background="new 0 0 1462 634" xml:space="preserve">
<g>
	<g>
		<defs>
			<rect id="SVGID_1_" x="0" width="1462" height="634"/>
		</defs>
		<clipPath id="SVGID_2_">
			<use xlink:href="#SVGID_1_"  overflow="visible"/>
		</clipPath>
		<rect x="0" clip-path="url(#SVGID_2_)" fill="#FFFFFF" width="1462" height="634"/>
	</g>
</g>
<rect x="0" fill="#FFFFFF" width="1462" height="634"/>
<path fill="#FFFFFF" d="M190,564h1133V48H190V564z"/>
<g>
	
		<line fill="none" stroke="#000000" stroke-width="2.2431" stroke-linecap="square" stroke-linejoin="round" stroke-miterlimit="10" x1="190" y1="564" x2="1323" y2="564"/>
	
		<line fill="none" stroke="#000000" stroke-width="2.2431" stroke-linecap="square" stroke-linejoin="round" stroke-miterlimit="10" x1="448.62" y1="564" x2="448.62" y2="575.33"/>
	
		<line fill="none" stroke="#000000" stroke-width="2.2431" stroke-linecap="square" stroke-linejoin="round" stroke-miterlimit="10" x1="1064.381" y1="564" x2="1064.381" y2="575.33"/>
</g>
<g transform="translate(448.6196,581.1356)">
	<text transform="matrix(1 0 0 1 -16.4998 17.0001)" font-family="'MyriadPro-Regular'" font-size="15.8333">SWS</text>
</g>
<g transform="translate(1064.3805,581.1356)">
	<text transform="matrix(1 0 0 1 -16.4999 17.0001)" font-family="'MyriadPro-Regular'" font-size="15.8333">REM</text>
</g>
<g>
	
		<line fill="none" stroke="#000000" stroke-width="2.2431" stroke-linecap="square" stroke-linejoin="round" stroke-miterlimit="10" x1="190" y1="564" x2="190" y2="48"/>
	
		<line fill="none" stroke="#000000" stroke-width="2.2431" stroke-linecap="square" stroke-linejoin="round" stroke-miterlimit="10" x1="190" y1="539.429" x2="178.67" y2="539.429"/>
	
		<line fill="none" stroke="#000000" stroke-width="2.2431" stroke-linecap="square" stroke-linejoin="round" stroke-miterlimit="10" x1="190" y1="490.286" x2="178.67" y2="490.286"/>
	
		<line fill="none" stroke="#000000" stroke-width="2.2431" stroke-linecap="square" stroke-linejoin="round" stroke-miterlimit="10" x1="190" y1="441.143" x2="178.67" y2="441.143"/>
	
		<line fill="none" stroke="#000000" stroke-width="2.2431" stroke-linecap="square" stroke-linejoin="round" stroke-miterlimit="10" x1="190" y1="392" x2="178.67" y2="392"/>
	
		<line fill="none" stroke="#000000" stroke-width="2.2431" stroke-linecap="square" stroke-linejoin="round" stroke-miterlimit="10" x1="190" y1="342.857" x2="178.67" y2="342.857"/>
	
		<line fill="none" stroke="#000000" stroke-width="2.2431" stroke-linecap="square" stroke-linejoin="round" stroke-miterlimit="10" x1="190" y1="293.714" x2="178.67" y2="293.714"/>
	
		<line fill="none" stroke="#000000" stroke-width="2.2431" stroke-linecap="square" stroke-linejoin="round" stroke-miterlimit="10" x1="190" y1="244.571" x2="178.67" y2="244.571"/>
	
		<line fill="none" stroke="#000000" stroke-width="2.2431" stroke-linecap="square" stroke-linejoin="round" stroke-miterlimit="10" x1="190" y1="195.429" x2="178.67" y2="195.429"/>
	
		<line fill="none" stroke="#000000" stroke-width="2.2431" stroke-linecap="square" stroke-linejoin="round" stroke-miterlimit="10" x1="190" y1="146.286" x2="178.67" y2="146.286"/>
	
		<line fill="none" stroke="#000000" stroke-width="2.2431" stroke-linecap="square" stroke-linejoin="round" stroke-miterlimit="10" x1="190" y1="97.143" x2="178.67" y2="97.143"/>
	
		<line fill="none" stroke="#000000" stroke-width="2.2431" stroke-linecap="square" stroke-linejoin="round" stroke-miterlimit="10" x1="190" y1="48" x2="178.67" y2="48"/>
</g>
<g transform="translate(172.8644,539.4286)">
	<text transform="matrix(1 0 0 1 -9.9999 6.0001)" font-family="'MyriadPro-Regular'" font-size="15.8333">0</text>
</g>
<g transform="translate(172.8644,490.2857)">
	<text transform="matrix(1 0 0 1 -18.9999 6.0005)" font-family="'MyriadPro-Regular'" font-size="15.8333">10</text>
</g>
<g transform="translate(172.8644,441.1429)">
	<text transform="matrix(1 0 0 1 -18.9999 5.9996)" font-family="'MyriadPro-Regular'" font-size="15.8333">20</text>
</g>
<g transform="translate(172.8644,392)">
	<text transform="matrix(1 0 0 1 -18.9999 6)" font-family="'MyriadPro-Regular'" font-size="15.8333">30</text>
</g>
<g transform="translate(172.8644,342.8571)">
	<text transform="matrix(1 0 0 1 -18.9999 6.0004)" font-family="'MyriadPro-Regular'" font-size="15.8333">40</text>
</g>
<g transform="translate(172.8644,293.7143)">
	<text transform="matrix(1 0 0 1 -18.9999 5.9995)" font-family="'MyriadPro-Regular'" font-size="15.8333">50</text>
</g>
<g transform="translate(172.8644,244.5714)">
	<text transform="matrix(1 0 0 1 -18.9999 5.9999)" font-family="'MyriadPro-Regular'" font-size="15.8333">60</text>
</g>
<g transform="translate(172.8644,195.4286)">
	<text transform="matrix(1 0 0 1 -18.9999 6.0001)" font-family="'MyriadPro-Regular'" font-size="15.8333">70</text>
</g>
<g transform="translate(172.8644,146.2857)">
	<text transform="matrix(1 0 0 1 -18.9999 6.0005)" font-family="'MyriadPro-Regular'" font-size="15.8333">80</text>
</g>
<g transform="translate(172.8644,97.1429)">
	<text transform="matrix(1 0 0 1 -18.9999 5.9996)" font-family="'MyriadPro-Regular'" font-size="15.8333">90</text>
</g>
<g transform="translate(172.8644,48)">
	<text transform="matrix(1 0 0 1 -27.9999 6)" font-family="'MyriadPro-Regular'" font-size="15.8333">100</text>
</g>
<g transform="translate(140.9061,305.9998) rotate(-90)">
	<text transform="matrix(1 0 0 1 -120.5002 -6.0001)" font-family="'MyriadPro-Regular'" font-size="19">Percentage of slow rhythm</text>
</g>
<g transform="translate(756.5007,44.1)">
	<text transform="matrix(1 0 0 1 -320 -6.9994)" font-family="'MyriadPro-Regular'" font-size="20.5833">Percentage of slow rhythm in SWS vs REM across different regions</text>
</g>
<g>
	<path fill="#FA6659" d="M251.576,230.229v132.923h24.631V230.229H251.576z"/>
</g>
<g>
	<path fill="none" stroke="#000000" stroke-width="0.6597" stroke-linecap="square" stroke-miterlimit="10" d="M251.576,230.229
		v132.923V230.229h24.631l0,0v132.923l0,0h-24.631V230.229"/>
	
		<line fill="none" stroke="#000000" stroke-width="2.6389" stroke-linejoin="round" stroke-miterlimit="10" x1="251.576" y1="256.104" x2="276.207" y2="256.104"/>
	
		<line fill="none" stroke="#000000" stroke-width="1.9792" stroke-linejoin="round" stroke-miterlimit="10" x1="263.891" y1="539.429" x2="263.891" y2="363.152"/>
	
		<line fill="none" stroke="#000000" stroke-width="1.9792" stroke-linejoin="round" stroke-miterlimit="10" x1="263.891" y1="170.937" x2="263.891" y2="230.229"/>
</g>
<g transform="translate(234.0879,196.6407)">
	<circle fill="#FA6659" fill-opacity="0.6" cx="0" cy="0" r="4.665"/>
</g>
<g transform="translate(234.0879,196.6407)">
	<path d="M0-4.335c2.395,0,4.335,1.941,4.335,4.335l0,0c0,2.395-1.94,4.335-4.335,4.335c-2.394,0-4.335-1.94-4.335-4.335
		C-4.335-2.394-2.394-4.335,0-4.335z M0-4.995c-2.758,0-4.994,2.236-4.994,4.995c0,2.759,2.236,4.995,4.994,4.995
		c2.759,0,4.995-2.236,4.995-4.995l0,0C4.995-2.758,2.758-4.995,0-4.995z"/>
</g>
<g transform="translate(235.0056,286.5628)">
	<circle fill="#FA6659" fill-opacity="0.6" cx="0" cy="0" r="4.665"/>
</g>
<g transform="translate(235.0056,286.5628)">
	<path d="M0-4.335c2.395,0,4.335,1.941,4.335,4.335l0,0c0,2.395-1.94,4.335-4.335,4.335S-4.335,2.394-4.335,0
		C-4.335-2.394-2.395-4.335,0-4.335z M0-4.995c-2.759,0-4.995,2.236-4.995,4.995c0,2.759,2.236,4.995,4.995,4.995
		S4.995,2.759,4.995,0l0,0C4.995-2.759,2.759-4.995,0-4.995z"/>
</g>
<g transform="translate(238.0965,371.8646)">
	<circle fill="#FA6659" fill-opacity="0.6" cx="0" cy="0" r="4.665"/>
</g>
<g transform="translate(238.0965,371.8646)">
	<path d="M0-4.335c2.395,0,4.335,1.941,4.335,4.336l0,0c0,2.394-1.94,4.334-4.335,4.334s-4.335-1.94-4.335-4.334
		C-4.335-2.394-2.395-4.335,0-4.335z M0-4.995c-2.759,0-4.995,2.235-4.995,4.995c0,2.758,2.236,4.994,4.995,4.994
		s4.995-2.236,4.995-4.994l0,0C4.995-2.759,2.759-4.995,0-4.995z"/>
</g>
<g transform="translate(225.0448,243.6975)">
	<circle fill="#FA6659" fill-opacity="0.6" cx="0" cy="0" r="4.665"/>
</g>
<g transform="translate(225.0448,243.6975)">
	<path d="M0-4.335c2.395,0,4.335,1.941,4.335,4.335l0,0c0,2.395-1.94,4.335-4.335,4.335c-2.394,0-4.335-1.941-4.335-4.335
		C-4.335-2.394-2.394-4.335,0-4.335z M0-4.995c-2.759,0-4.994,2.236-4.994,4.995c0,2.759,2.235,4.995,4.994,4.995
		S4.995,2.759,4.995,0l0,0C4.995-2.759,2.759-4.995,0-4.995z"/>
</g>
<g transform="translate(237.8573,234.3362)">
	<circle fill="#FA6659" fill-opacity="0.6" cx="0" cy="0" r="4.665"/>
</g>
<g transform="translate(237.8573,234.3362)">
	<path d="M0-4.335c2.395,0,4.335,1.941,4.335,4.335l0,0c0,2.395-1.94,4.335-4.335,4.335c-2.394,0-4.335-1.941-4.335-4.335
		C-4.335-2.394-2.394-4.335,0-4.335z M0-4.995c-2.759,0-4.994,2.236-4.994,4.995c0,2.759,2.235,4.995,4.994,4.995
		S4.995,2.759,4.995,0l0,0C4.995-2.759,2.759-4.995,0-4.995z"/>
</g>
<g transform="translate(234.6284,434.9759)">
	<circle fill="#FA6659" fill-opacity="0.6" cx="0" cy="0" r="4.665"/>
</g>
<g transform="translate(234.6284,434.9759)">
	<path d="M0-4.335c2.394,0,4.335,1.941,4.335,4.335l0,0c0,2.395-1.941,4.335-4.335,4.335c-2.395,0-4.335-1.94-4.335-4.335
		C-4.335-2.394-2.394-4.335,0-4.335z M0-4.994c-2.759,0-4.995,2.236-4.995,4.994c0,2.759,2.236,4.995,4.995,4.995
		S4.994,2.759,4.994,0l0,0C4.994-2.758,2.759-4.994,0-4.994z"/>
</g>
<g transform="translate(225.345,188.5455)">
	<circle fill="#FA6659" fill-opacity="0.6" cx="0" cy="0" r="4.665"/>
</g>
<g transform="translate(225.345,188.5455)">
	<path d="M0-4.335c2.394,0,4.335,1.941,4.335,4.335l0,0c0,2.394-1.941,4.335-4.335,4.335c-2.395,0-4.336-1.941-4.336-4.335
		S-2.394-4.335,0-4.335z M0-4.995c-2.759,0-4.995,2.236-4.995,4.995c0,2.759,2.236,4.995,4.995,4.995
		c2.758,0,4.994-2.236,4.994-4.995l0,0C4.995-2.758,2.758-4.995,0-4.995z"/>
</g>
<g transform="translate(231.8775,170.937)">
	<circle fill="#FA6659" fill-opacity="0.6" cx="0" cy="0" r="4.665"/>
</g>
<g transform="translate(231.8775,170.937)">
	<path d="M0-4.335c2.394,0,4.335,1.941,4.335,4.335l0,0c0,2.394-1.941,4.335-4.335,4.335c-2.395,0-4.335-1.941-4.335-4.335
		S-2.394-4.335,0-4.335z M0-4.995c-2.759,0-4.995,2.236-4.995,4.995S-2.759,4.995,0,4.995S4.994,2.758,4.994,0l0,0
		C4.994-2.758,2.759-4.995,0-4.995z"/>
</g>
<g transform="translate(229.9787,224.9469)">
	<circle fill="#FA6659" fill-opacity="0.6" cx="0" cy="0" r="4.665"/>
</g>
<g transform="translate(229.9787,224.9469)">
	<path d="M0-4.335c2.394,0,4.335,1.941,4.335,4.335l0,0c0,2.394-1.941,4.335-4.335,4.335c-2.395,0-4.336-1.941-4.336-4.335
		S-2.394-4.335,0-4.335z M0-4.995c-2.759,0-4.995,2.236-4.995,4.995c0,2.759,2.236,4.995,4.995,4.995
		c2.758,0,4.994-2.236,4.994-4.995l0,0C4.995-2.758,2.758-4.995,0-4.995z"/>
</g>
<g transform="translate(230.5067,208.3304)">
	<circle fill="#FA6659" fill-opacity="0.6" cx="0" cy="0" r="4.665"/>
</g>
<g transform="translate(230.5067,208.3304)">
	<path d="M0-4.335c2.395,0,4.335,1.941,4.335,4.335l0,0c0,2.394-1.94,4.335-4.335,4.335c-2.394,0-4.335-1.941-4.335-4.335
		S-2.394-4.335,0-4.335z M0-4.995c-2.759,0-4.994,2.236-4.994,4.995c0,2.758,2.235,4.995,4.994,4.995S4.995,2.758,4.995,0l0,0
		C4.995-2.759,2.759-4.995,0-4.995z"/>
</g>
<g transform="translate(228.6164,428.1008)">
	<circle fill="#FA6659" fill-opacity="0.6" cx="0" cy="0" r="4.665"/>
</g>
<g transform="translate(228.6164,428.1008)">
	<path d="M0-4.335c2.394,0,4.335,1.941,4.335,4.335l0,0c0,2.395-1.941,4.335-4.335,4.335c-2.395,0-4.336-1.94-4.336-4.335
		C-4.335-2.394-2.394-4.335,0-4.335z M0-4.994c-2.759,0-4.995,2.236-4.995,4.994c0,2.759,2.236,4.995,4.995,4.995
		c2.758,0,4.994-2.236,4.994-4.995l0,0C4.995-2.758,2.758-4.994,0-4.994z"/>
</g>
<g transform="translate(239.6002,430.3773)">
	<circle fill="#FA6659" fill-opacity="0.6" cx="0" cy="0" r="4.665"/>
</g>
<g transform="translate(239.6002,430.3773)">
	<path d="M0-4.335c2.395,0,4.335,1.941,4.335,4.335l0,0c0,2.395-1.94,4.335-4.335,4.335S-4.335,2.394-4.335,0
		C-4.335-2.394-2.394-4.335,0-4.335z M0-4.995c-2.759,0-4.995,2.236-4.995,4.994c0,2.759,2.236,4.995,4.995,4.995
		S4.995,2.758,4.995,0l0,0C4.995-2.758,2.759-4.995,0-4.995z"/>
</g>
<g transform="translate(231.4139,273.5931)">
	<circle fill="#FA6659" fill-opacity="0.6" cx="0" cy="0" r="4.665"/>
</g>
<g transform="translate(231.4139,273.5931)">
	<path d="M0-4.335c2.395,0,4.335,1.941,4.335,4.335l0,0c0,2.394-1.94,4.335-4.335,4.335c-2.394,0-4.335-1.941-4.335-4.335
		S-2.394-4.335,0-4.335z M0-4.995c-2.759,0-4.994,2.236-4.994,4.995c0,2.758,2.235,4.995,4.994,4.995S4.995,2.758,4.995,0l0,0
		C4.995-2.759,2.759-4.995,0-4.995z"/>
</g>
<g transform="translate(239.5552,539.4286)">
	<circle fill="#FA6659" fill-opacity="0.6" cx="0" cy="0" r="4.665"/>
</g>
<g transform="translate(239.5552,539.4286)">
	<path d="M0-4.335c2.394,0,4.335,1.94,4.335,4.335l0,0c0,2.395-1.941,4.335-4.335,4.335c-2.395,0-4.335-1.94-4.335-4.335
		S-2.394-4.335,0-4.335z M0-4.995c-2.759,0-4.995,2.236-4.995,4.995S-2.759,4.994,0,4.994S4.994,2.759,4.994,0l0,0
		C4.994-2.759,2.759-4.995,0-4.995z"/>
</g>
<g transform="translate(226.5,240.38)">
	<circle fill="#FA6659" fill-opacity="0.6" cx="0" cy="0" r="4.665"/>
</g>
<g transform="translate(226.5,240.38)">
	<path d="M0-4.335c2.395,0,4.335,1.941,4.335,4.335l0,0c0,2.395-1.94,4.335-4.335,4.335c-2.394,0-4.335-1.94-4.335-4.335
		C-4.335-2.394-2.394-4.335,0-4.335z M0-4.995c-2.758,0-4.994,2.236-4.994,4.995c0,2.759,2.236,4.995,4.994,4.995
		c2.759,0,4.995-2.236,4.995-4.995l0,0C4.995-2.758,2.758-4.995,0-4.995z"/>
</g>
<g transform="translate(234.4992,332.7491)">
	<circle fill="#FA6659" fill-opacity="0.6" cx="0" cy="0" r="4.665"/>
</g>
<g transform="translate(234.4992,332.7491)">
	<path d="M0-4.335c2.394,0,4.335,1.941,4.335,4.335l0,0c0,2.395-1.941,4.335-4.335,4.335c-2.395,0-4.336-1.94-4.336-4.335
		C-4.336-2.394-2.394-4.335,0-4.335z M0-4.995c-2.759,0-4.995,2.236-4.995,4.995S-2.758,4.995,0,4.995
		c2.758,0,4.994-2.236,4.994-4.995l0,0C4.995-2.759,2.758-4.995,0-4.995z"/>
</g>
<g transform="translate(226.1786,372.8959)">
	<circle fill="#FA6659" fill-opacity="0.6" cx="0" cy="0" r="4.665"/>
</g>
<g transform="translate(226.1786,372.8959)">
	<path d="M0-4.335c2.395,0,4.335,1.941,4.335,4.336l0,0c0,2.394-1.94,4.334-4.335,4.334c-2.394,0-4.335-1.94-4.335-4.334
		C-4.335-2.394-2.394-4.335,0-4.335z M0-4.995c-2.759,0-4.994,2.235-4.994,4.995c0,2.758,2.235,4.994,4.994,4.994
		s4.995-2.236,4.995-4.994l0,0C4.995-2.759,2.759-4.995,0-4.995z"/>
</g>
<g transform="translate(236.0414,256.1039)">
	<circle fill="#FA6659" fill-opacity="0.6" cx="0" cy="0" r="4.665"/>
</g>
<g transform="translate(236.0414,256.1039)">
	<path d="M0-4.335c2.394,0,4.335,1.941,4.335,4.335l0,0c0,2.394-1.941,4.335-4.335,4.335c-2.395,0-4.335-1.941-4.335-4.335
		S-2.394-4.335,0-4.335z M0-4.995c-2.759,0-4.995,2.236-4.995,4.995c0,2.758,2.236,4.995,4.995,4.995
		c2.758,0,4.994-2.236,4.994-4.995l0,0C4.994-2.759,2.758-4.995,0-4.995z"/>
</g>
<g transform="translate(230.5336,337.0158)">
	<circle fill="#FA6659" fill-opacity="0.6" cx="0" cy="0" r="4.665"/>
</g>
<g transform="translate(230.5336,337.0158)">
	<path d="M0-4.335c2.394,0,4.335,1.94,4.335,4.335l0,0c0,2.395-1.941,4.336-4.335,4.336c-2.395,0-4.335-1.941-4.335-4.336
		S-2.394-4.335,0-4.335z M0-4.994c-2.759,0-4.995,2.236-4.995,4.994c0,2.759,2.236,4.995,4.995,4.995
		c2.758,0,4.994-2.236,4.994-4.995l0,0C4.994-2.758,2.758-4.994,0-4.994z"/>
</g>
<g transform="translate(224.685,228.9097)">
	<circle fill="#FA6659" fill-opacity="0.6" cx="0" cy="0" r="4.665"/>
</g>
<g transform="translate(224.685,228.9097)">
	<path d="M0-4.335c2.394,0,4.335,1.941,4.335,4.335l0,0c0,2.394-1.941,4.335-4.335,4.335c-2.395,0-4.335-1.941-4.335-4.335
		S-2.394-4.335,0-4.335z M0-4.995c-2.759,0-4.995,2.236-4.995,4.995S-2.759,4.995,0,4.995S4.994,2.758,4.994,0l0,0
		C4.994-2.758,2.759-4.995,0-4.995z"/>
</g>
<g transform="translate(239.2972,499.4608)">
	<circle fill="#FA6659" fill-opacity="0.6" cx="0" cy="0" r="4.665"/>
</g>
<g transform="translate(239.2972,499.4608)">
	<path d="M0-4.335c2.394,0,4.335,1.94,4.335,4.335l0,0c0,2.394-1.941,4.335-4.335,4.335c-2.395,0-4.335-1.941-4.335-4.335
		C-4.335-2.394-2.394-4.335,0-4.335z M0-4.995c-2.759,0-4.995,2.236-4.995,4.995S-2.758,4.995,0,4.995
		c2.758,0,4.994-2.236,4.994-4.995l0,0C4.995-2.759,2.758-4.995,0-4.995z"/>
</g>
<g transform="translate(239.1956,245.9942)">
	<circle fill="#FA6659" fill-opacity="0.6" cx="0" cy="0" r="4.665"/>
</g>
<g transform="translate(239.1956,245.9942)">
	<path d="M0-4.335c2.394,0,4.335,1.941,4.335,4.335l0,0c0,2.394-1.941,4.335-4.335,4.335c-2.395,0-4.336-1.941-4.336-4.335
		S-2.394-4.335,0-4.335z M0-4.995c-2.759,0-4.995,2.236-4.995,4.995S-2.758,4.995,0,4.995c2.758,0,4.994-2.236,4.994-4.995l0,0
		C4.995-2.759,2.758-4.995,0-4.995z"/>
</g>
<g transform="translate(239.7433,288.5432)">
	<circle fill="#FA6659" fill-opacity="0.6" cx="0" cy="0" r="4.665"/>
</g>
<g transform="translate(239.7433,288.5432)">
	<path d="M0-4.335c2.395,0,4.336,1.941,4.336,4.335l0,0c0,2.395-1.941,4.335-4.336,4.335c-2.394,0-4.335-1.941-4.335-4.335
		C-4.335-2.394-2.394-4.335,0-4.335z M0-4.995c-2.758,0-4.994,2.236-4.994,4.995c0,2.759,2.236,4.995,4.994,4.995
		c2.759,0,4.995-2.236,4.995-4.995l0,0C4.995-2.759,2.758-4.995,0-4.995z"/>
</g>
<g transform="translate(228.8918,234.1882)">
	<circle fill="#FA6659" fill-opacity="0.6" cx="0" cy="0" r="4.665"/>
</g>
<g transform="translate(228.8918,234.1882)">
	<path d="M0-4.335c2.394,0,4.335,1.941,4.335,4.335l0,0c0,2.394-1.941,4.335-4.335,4.335c-2.395,0-4.336-1.941-4.336-4.335
		C-4.335-2.394-2.394-4.335,0-4.335z M0-4.995c-2.759,0-4.995,2.236-4.995,4.995c0,2.758,2.236,4.995,4.995,4.995
		c2.758,0,4.994-2.236,4.994-4.995l0,0C4.995-2.759,2.758-4.995,0-4.995z"/>
</g>
<g transform="translate(230.2522,210.5213)">
	<circle fill="#FA6659" fill-opacity="0.6" cx="0" cy="0" r="4.665"/>
</g>
<g transform="translate(230.2522,210.5213)">
	<path d="M0-4.335c2.394,0,4.335,1.941,4.335,4.335l0,0c0,2.394-1.941,4.335-4.335,4.335c-2.395,0-4.336-1.941-4.336-4.335
		C-4.336-2.394-2.394-4.335,0-4.335z M0-4.995c-2.759,0-4.995,2.236-4.995,4.995c0,2.758,2.236,4.995,4.995,4.995
		c2.758,0,4.994-2.236,4.994-4.995l0,0C4.995-2.759,2.758-4.995,0-4.995z"/>
</g>
<g transform="translate(238.2095,279.9997)">
	<circle fill="#FA6659" fill-opacity="0.6" cx="0" cy="0" r="4.665"/>
</g>
<g transform="translate(238.2095,279.9997)">
	<path d="M0-4.335c2.394,0,4.335,1.941,4.335,4.335l0,0c0,2.394-1.941,4.335-4.335,4.335c-2.395,0-4.335-1.941-4.335-4.335
		C-4.335-2.394-2.394-4.335,0-4.335z M0-4.995c-2.759,0-4.995,2.236-4.995,4.995c0,2.758,2.236,4.995,4.995,4.995
		S4.994,2.759,4.994,0l0,0C4.994-2.759,2.759-4.995,0-4.995z"/>
</g>
<g transform="translate(227.0073,238.2358)">
	<circle fill="#FA6659" fill-opacity="0.6" cx="0" cy="0" r="4.665"/>
</g>
<g transform="translate(227.0073,238.2358)">
	<path d="M0-4.335c2.394,0,4.335,1.941,4.335,4.335l0,0c0,2.394-1.941,4.335-4.335,4.335c-2.395,0-4.335-1.941-4.335-4.335
		S-2.394-4.335,0-4.335z M0-4.995c-2.759,0-4.995,2.236-4.995,4.995S-2.759,4.995,0,4.995S4.994,2.758,4.994,0l0,0
		C4.994-2.758,2.759-4.995,0-4.995z"/>
</g>
<g>
	<path fill="#FA6659" d="M867.338,488.526v50.902h24.63v-50.902H867.338z"/>
</g>
<g>
	<path fill="none" stroke="#000000" stroke-width="0.6597" stroke-linecap="square" stroke-miterlimit="10" d="M867.338,488.526
		v50.902V488.526h24.63l0,0v50.902l0,0h-24.63V488.526"/>
	
		<line fill="none" stroke="#000000" stroke-width="2.6389" stroke-linejoin="round" stroke-miterlimit="10" x1="867.338" y1="525.108" x2="891.967" y2="525.108"/>
	
		<line fill="none" stroke="#000000" stroke-width="1.9792" stroke-linejoin="round" stroke-miterlimit="10" x1="879.652" y1="539.429" x2="879.652" y2="539.429"/>
	
		<line fill="none" stroke="#000000" stroke-width="1.9792" stroke-linejoin="round" stroke-miterlimit="10" x1="879.652" y1="439.749" x2="879.652" y2="488.526"/>
</g>
<g transform="translate(845.6974,539.4286)">
	<circle fill="#FA6659" fill-opacity="0.6" cx="0" cy="0" r="4.665"/>
</g>
<g transform="translate(845.6974,539.4286)">
	<path d="M0-4.335c2.394,0,4.335,1.94,4.335,4.335l0,0c0,2.395-1.941,4.335-4.335,4.335c-2.395,0-4.335-1.94-4.335-4.335
		S-2.394-4.335,0-4.335z M0-4.995c-2.759,0-4.995,2.236-4.995,4.995S-2.758,4.994,0,4.994c2.758,0,4.994-2.235,4.994-4.994l0,0
		C4.995-2.759,2.758-4.995,0-4.995z"/>
</g>
<g transform="translate(854.6899,531.3413)">
	<circle fill="#FA6659" fill-opacity="0.6" cx="0" cy="0" r="4.665"/>
</g>
<g transform="translate(854.6899,531.3413)">
	<path d="M0-4.335c2.395,0,4.335,1.941,4.335,4.335l0,0c0,2.395-1.94,4.336-4.335,4.336S-4.335,2.394-4.335,0
		C-4.335-2.394-2.394-4.335,0-4.335z M0-4.995c-2.759,0-4.995,2.236-4.995,4.994c0,2.759,2.236,4.995,4.995,4.995
		S4.995,2.758,4.995,0l0,0C4.995-2.758,2.759-4.995,0-4.995z"/>
</g>
<g transform="translate(854.7052,539.4286)">
	<circle fill="#FA6659" fill-opacity="0.6" cx="0" cy="0" r="4.665"/>
</g>
<g transform="translate(854.7052,539.4286)">
	<path d="M0-4.335c2.394,0,4.335,1.94,4.335,4.335l0,0c0,2.395-1.941,4.335-4.335,4.335c-2.395,0-4.335-1.94-4.335-4.335
		S-2.394-4.335,0-4.335z M0-4.995c-2.759,0-4.995,2.236-4.995,4.995S-2.758,4.994,0,4.994c2.758,0,4.994-2.235,4.994-4.994l0,0
		C4.995-2.759,2.758-4.995,0-4.995z"/>
</g>
<g transform="translate(853.6095,498.3932)">
	<circle fill="#FA6659" fill-opacity="0.6" cx="0" cy="0" r="4.665"/>
</g>
<g transform="translate(853.6095,498.3932)">
	<path d="M0-4.336c2.394,0,4.335,1.941,4.335,4.336l0,0c0,2.394-1.941,4.335-4.335,4.335c-2.395,0-4.335-1.941-4.335-4.335
		C-4.334-2.394-2.394-4.336,0-4.336z M0-4.995c-2.759,0-4.995,2.236-4.995,4.995c0,2.758,2.236,4.994,4.995,4.994
		c2.758,0,4.994-2.236,4.994-4.994l0,0C4.995-2.758,2.758-4.995,0-4.995z"/>
</g>
<g transform="translate(842.8889,439.7487)">
	<circle fill="#FA6659" fill-opacity="0.6" cx="0" cy="0" r="4.665"/>
</g>
<g transform="translate(842.8889,439.7487)">
	<path d="M0-4.336c2.394,0,4.335,1.941,4.335,4.336l0,0c0,2.394-1.941,4.335-4.335,4.335c-2.395,0-4.335-1.941-4.335-4.335
		C-4.335-2.394-2.394-4.336,0-4.336z M0-4.995c-2.759,0-4.995,2.236-4.995,4.995c0,2.758,2.236,4.994,4.995,4.994
		S4.995,2.758,4.995,0l0,0C4.995-2.758,2.759-4.995,0-4.995z"/>
</g>
<g transform="translate(854.3256,539.4286)">
	<circle fill="#FA6659" fill-opacity="0.6" cx="0" cy="0" r="4.665"/>
</g>
<g transform="translate(854.3256,539.4286)">
	<path d="M0-4.335c2.395,0,4.335,1.94,4.335,4.335l0,0c0,2.395-1.94,4.335-4.335,4.335S-4.335,2.395-4.335,0S-2.394-4.335,0-4.335z
		 M0-4.995c-2.759,0-4.995,2.236-4.995,4.995S-2.759,4.994,0,4.994S4.995,2.759,4.995,0l0,0C4.995-2.759,2.759-4.995,0-4.995z"/>
</g>
<g transform="translate(851.9369,454.7705)">
	<circle fill="#FA6659" fill-opacity="0.6" cx="0" cy="0" r="4.665"/>
</g>
<g transform="translate(851.9369,454.7705)">
	<path d="M0-4.335c2.395,0,4.335,1.94,4.335,4.335l0,0c0,2.395-1.94,4.335-4.335,4.335S-4.335,2.395-4.335,0S-2.394-4.335,0-4.335z
		 M0-4.995c-2.759,0-4.995,2.236-4.995,4.995S-2.759,4.995,0,4.995S4.994,2.759,4.994,0l0,0C4.994-2.759,2.759-4.995,0-4.995z"/>
</g>
<g transform="translate(851.842,486.6194)">
	<circle fill="#FA6659" fill-opacity="0.6" cx="0" cy="0" r="4.665"/>
</g>
<g transform="translate(851.842,486.6194)">
	<path d="M0-4.335c2.394,0,4.335,1.941,4.335,4.335l0,0c0,2.395-1.941,4.335-4.335,4.335c-2.395,0-4.335-1.94-4.335-4.335
		C-4.334-2.394-2.394-4.335,0-4.335z M0-4.994c-2.759,0-4.995,2.235-4.995,4.994S-2.758,4.995,0,4.995S4.995,2.759,4.995,0l0,0
		C4.995-2.759,2.759-4.994,0-4.994z"/>
</g>
<g transform="translate(854.1216,498.5778)">
	<circle fill="#FA6659" fill-opacity="0.6" cx="0" cy="0" r="4.665"/>
</g>
<g transform="translate(854.1216,498.5778)">
	<path d="M0-4.335c2.395,0,4.335,1.94,4.335,4.335l0,0c0,2.394-1.94,4.335-4.335,4.335S-4.335,2.394-4.335,0
		C-4.335-2.394-2.394-4.335,0-4.335z M0-4.995c-2.759,0-4.995,2.236-4.995,4.995c0,2.758,2.236,4.994,4.995,4.994
		S4.995,2.758,4.995,0l0,0C4.995-2.758,2.759-4.995,0-4.995z"/>
</g>
<g transform="translate(841.7484,504.067)">
	<circle fill="#FA6659" fill-opacity="0.6" cx="0" cy="0" r="4.665"/>
</g>
<g transform="translate(841.7484,504.067)">
	<path d="M0-4.336c2.394,0,4.335,1.941,4.335,4.336l0,0c0,2.394-1.941,4.335-4.335,4.335c-2.395,0-4.335-1.941-4.335-4.335
		C-4.335-2.394-2.394-4.336,0-4.336z M0-4.995c-2.759,0-4.995,2.236-4.995,4.995c0,2.758,2.236,4.994,4.995,4.994
		S4.995,2.758,4.995,0l0,0C4.995-2.758,2.759-4.995,0-4.995z"/>
</g>
<g transform="translate(844.3781,539.4286)">
	<circle fill="#FA6659" fill-opacity="0.6" cx="0" cy="0" r="4.665"/>
</g>
<g transform="translate(844.3781,539.4286)">
	<path d="M0-4.335c2.394,0,4.335,1.94,4.335,4.335l0,0c0,2.395-1.941,4.335-4.335,4.335c-2.395,0-4.335-1.94-4.335-4.335
		S-2.394-4.335,0-4.335z M0-4.995c-2.759,0-4.995,2.236-4.995,4.995S-2.758,4.994,0,4.994c2.758,0,4.994-2.235,4.994-4.994l0,0
		C4.995-2.759,2.758-4.995,0-4.995z"/>
</g>
<g transform="translate(843.7945,539.4286)">
	<circle fill="#FA6659" fill-opacity="0.6" cx="0" cy="0" r="4.665"/>
</g>
<g transform="translate(843.7945,539.4286)">
	<path d="M0-4.335c2.395,0,4.335,1.94,4.335,4.335l0,0c0,2.395-1.94,4.335-4.335,4.335S-4.335,2.395-4.335,0S-2.394-4.335,0-4.335z
		 M0-4.995c-2.759,0-4.995,2.236-4.995,4.995S-2.759,4.994,0,4.994S4.995,2.759,4.995,0l0,0C4.995-2.759,2.759-4.995,0-4.995z"/>
</g>
<g transform="translate(845.1609,539.4286)">
	<circle fill="#FA6659" fill-opacity="0.6" cx="0" cy="0" r="4.665"/>
</g>
<g transform="translate(845.1609,539.4286)">
	<path d="M0-4.335c2.395,0,4.335,1.94,4.335,4.335l0,0c0,2.395-1.94,4.335-4.335,4.335c-2.394,0-4.335-1.94-4.335-4.335
		S-2.394-4.335,0-4.335z M0-4.995c-2.759,0-4.994,2.236-4.994,4.995S-2.759,4.994,0,4.994S4.995,2.759,4.995,0l0,0
		C4.995-2.759,2.759-4.995,0-4.995z"/>
</g>
<g transform="translate(847.3654,539.4286)">
	<circle fill="#FA6659" fill-opacity="0.6" cx="0" cy="0" r="4.665"/>
</g>
<g transform="translate(847.3654,539.4286)">
	<path d="M0-4.335c2.394,0,4.335,1.94,4.335,4.335l0,0c0,2.395-1.941,4.335-4.335,4.335c-2.395,0-4.335-1.94-4.335-4.335
		S-2.394-4.335,0-4.335z M0-4.995c-2.759,0-4.995,2.236-4.995,4.995S-2.758,4.994,0,4.994S4.995,2.759,4.995,0l0,0
		C4.995-2.759,2.759-4.995,0-4.995z"/>
</g>
<g transform="translate(850.4833,491.531)">
	<circle fill="#FA6659" fill-opacity="0.6" cx="0" cy="0" r="4.665"/>
</g>
<g transform="translate(850.4833,491.531)">
	<path d="M0-4.335c2.395,0,4.335,1.94,4.335,4.335l0,0c0,2.394-1.94,4.335-4.335,4.335c-2.394,0-4.335-1.941-4.335-4.335
		C-4.335-2.394-2.394-4.335,0-4.335z M0-4.995c-2.758,0-4.994,2.236-4.994,4.995S-2.758,4.994,0,4.994
		c2.759,0,4.995-2.235,4.995-4.994l0,0C4.995-2.759,2.759-4.995,0-4.995z"/>
</g>
<g transform="translate(844.9762,528.2825)">
	<circle fill="#FA6659" fill-opacity="0.6" cx="0" cy="0" r="4.665"/>
</g>
<g transform="translate(844.9762,528.2825)">
	<path d="M0-4.335c2.395,0,4.335,1.941,4.335,4.335l0,0c0,2.395-1.94,4.335-4.335,4.335S-4.335,2.394-4.335,0
		C-4.335-2.394-2.395-4.335,0-4.335z M0-4.994c-2.759,0-4.994,2.236-4.994,4.994c0,2.759,2.235,4.995,4.994,4.995
		S4.995,2.759,4.995,0l0,0C4.995-2.758,2.759-4.994,0-4.994z"/>
</g>
<g transform="translate(853.9123,539.4286)">
	<circle fill="#FA6659" fill-opacity="0.6" cx="0" cy="0" r="4.665"/>
</g>
<g transform="translate(853.9123,539.4286)">
	<path d="M0-4.335c2.394,0,4.335,1.94,4.335,4.335l0,0c0,2.395-1.941,4.335-4.335,4.335c-2.395,0-4.335-1.94-4.335-4.335
		S-2.394-4.335,0-4.335z M0-4.995c-2.759,0-4.995,2.236-4.995,4.995S-2.758,4.994,0,4.994S4.995,2.759,4.995,0l0,0
		C4.995-2.759,2.759-4.995,0-4.995z"/>
</g>
<g transform="translate(853.4155,511.3683)">
	<circle fill="#FA6659" fill-opacity="0.6" cx="0" cy="0" r="4.665"/>
</g>
<g transform="translate(853.4155,511.3683)">
	<path d="M0-4.335c2.395,0,4.335,1.94,4.335,4.335l0,0c0,2.395-1.94,4.335-4.335,4.335S-4.335,2.394-4.335,0S-2.394-4.335,0-4.335z
		 M0-4.994c-2.759,0-4.995,2.235-4.995,4.994S-2.759,4.995,0,4.995S4.995,2.759,4.995,0l0,0C4.995-2.759,2.759-4.994,0-4.994z"/>
</g>
<g transform="translate(855.5182,454.2952)">
	<circle fill="#FA6659" fill-opacity="0.6" cx="0" cy="0" r="4.665"/>
</g>
<g transform="translate(855.5182,454.2952)">
	<path d="M0-4.335c2.395,0,4.335,1.941,4.335,4.335l0,0c0,2.395-1.94,4.335-4.335,4.335c-2.394,0-4.335-1.94-4.335-4.335
		C-4.335-2.394-2.393-4.335,0-4.335z M0-4.994c-2.759,0-4.995,2.235-4.995,4.994S-2.759,4.995,0,4.995S4.995,2.759,4.995,0l0,0
		C4.995-2.759,2.759-4.994,0-4.994z"/>
</g>
<g transform="translate(840.0089,504.2737)">
	<circle fill="#FA6659" fill-opacity="0.6" cx="0.001" cy="0" r="4.665"/>
</g>
<g transform="translate(840.0089,504.2737)">
	<path d="M0.001-4.335c2.394,0,4.335,1.941,4.335,4.335l0,0c0,2.395-1.941,4.335-4.335,4.335c-2.395,0-4.336-1.94-4.336-4.335
		C-4.335-2.394-2.394-4.335,0.001-4.335z M0.001-4.994c-2.759,0-4.995,2.235-4.995,4.994s2.236,4.995,4.995,4.995
		c2.758,0,4.994-2.236,4.994-4.995l0,0C4.995-2.759,2.758-4.994,0.001-4.994z"/>
</g>
<g transform="translate(839.9089,539.4286)">
	<circle fill="#FA6659" fill-opacity="0.6" cx="0" cy="0" r="4.665"/>
</g>
<g transform="translate(839.9089,539.4286)">
	<path d="M0-4.335c2.395,0,4.335,1.94,4.335,4.335l0,0c0,2.395-1.94,4.335-4.335,4.335c-2.394,0-4.335-1.94-4.335-4.335
		S-2.394-4.335,0-4.335z M0-4.995c-2.759,0-4.994,2.236-4.994,4.995S-2.759,4.994,0,4.994S4.995,2.759,4.995,0l0,0
		C4.995-2.759,2.759-4.995,0-4.995z"/>
</g>
<g transform="translate(853.809,526.5681)">
	<circle fill="#FA6659" fill-opacity="0.6" cx="0" cy="0" r="4.665"/>
</g>
<g transform="translate(853.809,526.5681)">
	<path d="M0-4.335c2.395,0,4.335,1.94,4.335,4.335l0,0c0,2.394-1.94,4.335-4.335,4.335S-4.335,2.394-4.335,0
		C-4.335-2.394-2.394-4.335,0-4.335z M0-4.995c-2.759,0-4.995,2.236-4.995,4.995S-2.759,4.994,0,4.994S4.995,2.759,4.995,0l0,0
		C4.995-2.759,2.759-4.995,0-4.995z"/>
</g>
<g transform="translate(848.1677,539.4286)">
	<circle fill="#FA6659" fill-opacity="0.6" cx="0" cy="0" r="4.665"/>
</g>
<g transform="translate(848.1677,539.4286)">
	<path d="M0-4.335c2.395,0,4.335,1.94,4.335,4.335l0,0c0,2.395-1.94,4.335-4.335,4.335c-2.394,0-4.335-1.94-4.335-4.335
		S-2.394-4.335,0-4.335z M0-4.995c-2.758,0-4.994,2.236-4.994,4.995S-2.758,4.994,0,4.994c2.759,0,4.995-2.235,4.995-4.994l0,0
		C4.995-2.759,2.759-4.995,0-4.995z"/>
</g>
<g transform="translate(845.0596,469.9886)">
	<circle fill="#FA6659" fill-opacity="0.6" cx="0.001" cy="0" r="4.665"/>
</g>
<g transform="translate(845.0596,469.9886)">
	<path d="M0.001-4.335c2.394,0,4.335,1.941,4.335,4.335l0,0c0,2.395-1.941,4.335-4.335,4.335c-2.395,0-4.336-1.94-4.336-4.335
		C-4.335-2.394-2.394-4.335,0.001-4.335z M0.001-4.994c-2.759,0-4.995,2.235-4.995,4.994s2.236,4.995,4.995,4.995
		c2.758,0,4.994-2.236,4.994-4.995l0,0C4.995-2.759,2.759-4.994,0.001-4.994z"/>
</g>
<g transform="translate(851.0778,487.5253)">
	<circle fill="#FA6659" fill-opacity="0.6" cx="0" cy="0" r="4.665"/>
</g>
<g transform="translate(851.0778,487.5253)">
	<path d="M0-4.335c2.395,0,4.335,1.94,4.335,4.335l0,0c0,2.394-1.94,4.335-4.335,4.335c-2.394,0-4.335-1.941-4.335-4.335
		C-4.335-2.394-2.394-4.335,0-4.335z M0-4.995c-2.758,0-4.994,2.236-4.994,4.995S-2.758,4.995,0,4.995
		c2.759,0,4.995-2.236,4.995-4.995l0,0C4.995-2.759,2.759-4.995,0-4.995z"/>
</g>
<g transform="translate(843.4531,525.1081)">
	<circle fill="#FA6659" fill-opacity="0.6" cx="0" cy="0" r="4.665"/>
</g>
<g transform="translate(843.4531,525.1081)">
	<path d="M0-4.335c2.395,0,4.336,1.94,4.336,4.335l0,0c0,2.394-1.941,4.335-4.336,4.335c-2.394,0-4.335-1.941-4.335-4.335
		C-4.335-2.394-2.394-4.335,0-4.335z M0-4.995c-2.758,0-4.994,2.236-4.994,4.995c0,2.758,2.236,4.994,4.994,4.994
		c2.759,0,4.995-2.236,4.995-4.994l0,0C4.995-2.759,2.759-4.995,0-4.995z"/>
</g>
<g transform="translate(846.6783,463.2085)">
	<circle fill="#FA6659" fill-opacity="0.6" cx="0" cy="0" r="4.665"/>
</g>
<g transform="translate(846.6783,463.2085)">
	<path d="M0-4.335c2.395,0,4.335,1.941,4.335,4.335l0,0c0,2.395-1.94,4.336-4.335,4.336S-4.335,2.394-4.335,0
		C-4.335-2.394-2.394-4.335,0-4.335z M0-4.995c-2.759,0-4.995,2.236-4.995,4.994c0,2.759,2.236,4.995,4.995,4.995
		S4.995,2.758,4.995,0l0,0C4.995-2.758,2.759-4.995,0-4.995z"/>
	<path fill="none" stroke="#000000" stroke-width="0.6597" stroke-linecap="square" stroke-miterlimit="10" d="M-471.95,76.22
		L-471.95,76.22L-471.95,76.22h24.631l0,0l0,0l0,0H-471.95L-471.95,76.22"/>
	
		<line fill="none" stroke="#000000" stroke-width="2.6389" stroke-linejoin="round" stroke-miterlimit="10" x1="-471.95" y1="76.22" x2="-447.319" y2="76.22"/>
	
		<line fill="none" stroke="#000000" stroke-width="1.9792" stroke-linejoin="round" stroke-miterlimit="10" x1="-459.635" y1="76.22" x2="-459.635" y2="76.22"/>
	
		<line fill="none" stroke="#000000" stroke-width="1.9792" stroke-linejoin="round" stroke-miterlimit="10" x1="-459.635" y1="76.22" x2="-459.635" y2="76.22"/>
	<path fill="none" stroke="#000000" stroke-width="0.6597" stroke-miterlimit="10" d="M-492.199-98.853v10 M-497.199-93.853h10
		 M-495.497-97.152l6.597,6.597 M-495.497-90.555l6.597-6.597"/>
</g>
<g transform="translate(356.2096,539.4286)">
	<circle fill="#73CCB0" fill-opacity="0.6" cx="0" cy="0" r="4.665"/>
</g>
<g transform="translate(356.2096,539.4286)">
	<path d="M0-4.335c2.395,0,4.335,1.94,4.335,4.335l0,0c0,2.395-1.94,4.335-4.335,4.335c-2.394,0-4.335-1.94-4.335-4.335
		S-2.393-4.335,0-4.335z M0-4.995c-2.759,0-4.995,2.236-4.995,4.995S-2.759,4.994,0,4.994S4.995,2.759,4.995,0l0,0
		C4.995-2.759,2.759-4.995,0-4.995z"/>
</g>
<g transform="translate(358.8466,539.4286)">
	<circle fill="#73CCB0" fill-opacity="0.6" cx="0" cy="0" r="4.665"/>
</g>
<g transform="translate(358.8466,539.4286)">
	<path d="M0-4.335c2.395,0,4.335,1.94,4.335,4.335l0,0c0,2.395-1.94,4.335-4.335,4.335c-2.394,0-4.335-1.94-4.335-4.335
		S-2.394-4.335,0-4.335z M0-4.995c-2.758,0-4.994,2.236-4.994,4.995S-2.758,4.994,0,4.994c2.759,0,4.995-2.235,4.995-4.994l0,0
		C4.995-2.759,2.759-4.995,0-4.995z"/>
</g>
<g transform="translate(350.8575,539.4286)">
	<circle fill="#73CCB0" fill-opacity="0.6" cx="0.001" cy="0" r="4.665"/>
</g>
<g transform="translate(350.8575,539.4286)">
	<path d="M0.001-4.335c2.394,0,4.335,1.94,4.335,4.335l0,0c0,2.395-1.941,4.335-4.335,4.335c-2.395,0-4.335-1.94-4.335-4.335
		S-2.394-4.335,0.001-4.335z M0.001-4.995c-2.759,0-4.995,2.236-4.995,4.995s2.236,4.994,4.995,4.994
		c2.758,0,4.994-2.235,4.994-4.994l0,0C4.995-2.759,2.758-4.995,0.001-4.995z"/>
</g>
<g transform="translate(348.4825,539.4286)">
	<circle fill="#73CCB0" fill-opacity="0.6" cx="0.001" cy="0" r="4.665"/>
</g>
<g transform="translate(348.4825,539.4286)">
	<path d="M0.001-4.335c2.394,0,4.335,1.94,4.335,4.335l0,0c0,2.395-1.941,4.335-4.335,4.335c-2.395,0-4.335-1.94-4.335-4.335
		S-2.394-4.335,0.001-4.335z M0.001-4.995c-2.759,0-4.995,2.236-4.995,4.995s2.236,4.994,4.995,4.994
		c2.758,0,4.994-2.235,4.994-4.994l0,0C4.995-2.759,2.758-4.995,0.001-4.995z"/>
</g>
<g transform="translate(351.2728,539.4286)">
	<circle fill="#73CCB0" fill-opacity="0.6" cx="0" cy="0" r="4.665"/>
</g>
<g transform="translate(351.2728,539.4286)">
	<path d="M0-4.335c2.395,0,4.335,1.94,4.335,4.335l0,0c0,2.395-1.94,4.335-4.335,4.335S-4.335,2.395-4.335,0S-2.394-4.335,0-4.335z
		 M0-4.995c-2.759,0-4.995,2.236-4.995,4.995S-2.758,4.994,0,4.994S4.995,2.759,4.995,0l0,0C4.995-2.759,2.759-4.995,0-4.995z"/>
</g>
<g transform="translate(356.5538,539.4286)">
	<circle fill="#73CCB0" fill-opacity="0.6" cx="0.001" cy="0" r="4.665"/>
</g>
<g transform="translate(356.5538,539.4286)">
	<path d="M0.001-4.335c2.394,0,4.335,1.94,4.335,4.335l0,0c0,2.395-1.941,4.335-4.335,4.335c-2.395,0-4.336-1.94-4.336-4.335
		S-2.394-4.335,0.001-4.335z M0.001-4.995c-2.759,0-4.995,2.236-4.995,4.995s2.236,4.994,4.995,4.994
		c2.758,0,4.994-2.235,4.994-4.994l0,0C4.995-2.759,2.758-4.995,0.001-4.995z"/>
</g>
<g transform="translate(347.8266,539.4286)">
	<circle fill="#73CCB0" fill-opacity="0.6" cx="0" cy="0" r="4.665"/>
</g>
<g transform="translate(347.8266,539.4286)">
	<path d="M0-4.335c2.395,0,4.335,1.94,4.335,4.335l0,0c0,2.395-1.94,4.335-4.335,4.335S-4.335,2.395-4.335,0S-2.394-4.335,0-4.335z
		 M0-4.995c-2.759,0-4.995,2.236-4.995,4.995S-2.758,4.994,0,4.994S4.995,2.759,4.995,0l0,0C4.995-2.759,2.759-4.995,0-4.995z"/>
</g>
<g transform="translate(359.0399,539.4286)">
	<circle fill="#73CCB0" fill-opacity="0.6" cx="0" cy="0" r="4.665"/>
</g>
<g transform="translate(359.0399,539.4286)">
	<path d="M0-4.335c2.395,0,4.335,1.94,4.335,4.335l0,0c0,2.395-1.94,4.335-4.335,4.335c-2.394,0-4.335-1.94-4.335-4.335
		S-2.394-4.335,0-4.335z M0-4.995c-2.758,0-4.994,2.236-4.994,4.995S-2.758,4.994,0,4.994c2.759,0,4.995-2.235,4.995-4.994l0,0
		C4.995-2.759,2.759-4.995,0-4.995z"/>
</g>
<g transform="translate(347.5567,539.4286)">
	<circle fill="#73CCB0" fill-opacity="0.6" cx="0" cy="0" r="4.665"/>
</g>
<g transform="translate(347.5567,539.4286)">
	<path d="M0-4.335c2.395,0,4.336,1.94,4.336,4.335l0,0c0,2.395-1.941,4.335-4.336,4.335c-2.394,0-4.335-1.94-4.335-4.335
		S-2.394-4.335,0-4.335z M0-4.995c-2.758,0-4.994,2.236-4.994,4.995S-2.758,4.994,0,4.994c2.759,0,4.995-2.235,4.995-4.994l0,0
		C4.995-2.759,2.759-4.995,0-4.995z"/>
</g>
<g transform="translate(358.8376,539.4286)">
	<circle fill="#73CCB0" fill-opacity="0.6" cx="0" cy="0" r="4.665"/>
</g>
<g transform="translate(358.8376,539.4286)">
	<path d="M0-4.335c2.395,0,4.335,1.94,4.335,4.335l0,0c0,2.395-1.94,4.335-4.335,4.335c-2.394,0-4.335-1.94-4.335-4.335
		S-2.393-4.335,0-4.335z M0-4.995c-2.758,0-4.994,2.236-4.994,4.995S-2.758,4.994,0,4.994c2.759,0,4.995-2.235,4.995-4.994l0,0
		C4.995-2.759,2.759-4.995,0-4.995z"/>
</g>
<g transform="translate(359.1276,539.4286)">
	<circle fill="#73CCB0" fill-opacity="0.6" cx="0" cy="0" r="4.665"/>
</g>
<g transform="translate(359.1276,539.4286)">
	<path d="M0-4.335c2.395,0,4.335,1.94,4.335,4.335l0,0c0,2.395-1.94,4.335-4.335,4.335c-2.394,0-4.335-1.94-4.335-4.335
		S-2.393-4.335,0-4.335z M0-4.995c-2.759,0-4.995,2.236-4.995,4.995S-2.759,4.994,0,4.994S4.995,2.759,4.995,0l0,0
		C4.995-2.759,2.759-4.995,0-4.995z"/>
</g>
<g transform="translate(348.0014,539.4286)">
	<circle fill="#73CCB0" fill-opacity="0.6" cx="0" cy="0" r="4.665"/>
</g>
<g transform="translate(348.0014,539.4286)">
	<path d="M0-4.335c2.395,0,4.335,1.94,4.335,4.335l0,0c0,2.395-1.94,4.335-4.335,4.335S-4.335,2.395-4.335,0S-2.394-4.335,0-4.335z
		 M0-4.995c-2.759,0-4.995,2.236-4.995,4.995S-2.758,4.994,0,4.994S4.995,2.759,4.995,0l0,0C4.995-2.759,2.759-4.995,0-4.995z"/>
</g>
<g transform="translate(362.1079,539.4286)">
	<circle fill="#73CCB0" fill-opacity="0.6" cx="0" cy="0" r="4.665"/>
</g>
<g transform="translate(362.1079,539.4286)">
	<path d="M0-4.335c2.395,0,4.335,1.94,4.335,4.335l0,0c0,2.395-1.94,4.335-4.335,4.335S-4.335,2.395-4.335,0S-2.394-4.335,0-4.335z
		 M0-4.995c-2.759,0-4.995,2.236-4.995,4.995S-2.758,4.994,0,4.994S4.995,2.759,4.995,0l0,0C4.995-2.759,2.759-4.995,0-4.995z"/>
</g>
<g transform="translate(358.3178,539.4286)">
	<circle fill="#73CCB0" fill-opacity="0.6" cx="0" cy="0" r="4.665"/>
</g>
<g transform="translate(358.3178,539.4286)">
	<path d="M0-4.335c2.395,0,4.335,1.94,4.335,4.335l0,0c0,2.395-1.94,4.335-4.335,4.335S-4.335,2.395-4.335,0S-2.394-4.335,0-4.335z
		 M0-4.995c-2.759,0-4.995,2.236-4.995,4.995S-2.758,4.994,0,4.994S4.995,2.759,4.995,0l0,0C4.995-2.759,2.759-4.995,0-4.995z"/>
</g>
<g transform="translate(353.5201,539.4286)">
	<circle fill="#73CCB0" fill-opacity="0.6" cx="0" cy="0" r="4.665"/>
</g>
<g transform="translate(353.5201,539.4286)">
	<path d="M0-4.335c2.395,0,4.335,1.94,4.335,4.335l0,0c0,2.395-1.94,4.335-4.335,4.335c-2.394,0-4.335-1.94-4.335-4.335
		S-2.393-4.335,0-4.335z M0-4.995c-2.759,0-4.995,2.236-4.995,4.995S-2.759,4.994,0,4.994S4.995,2.759,4.995,0l0,0
		C4.995-2.759,2.759-4.995,0-4.995z"/>
</g>
<g transform="translate(359.8958,539.4286)">
	<circle fill="#73CCB0" fill-opacity="0.6" cx="0" cy="0" r="4.665"/>
</g>
<g transform="translate(359.8958,539.4286)">
	<path d="M0-4.335c2.394,0,4.335,1.94,4.335,4.335l0,0c0,2.395-1.941,4.335-4.335,4.335c-2.395,0-4.335-1.94-4.335-4.335
		S-2.394-4.335,0-4.335z M0-4.995c-2.759,0-4.995,2.236-4.995,4.995S-2.758,4.994,0,4.994c2.758,0,4.994-2.235,4.994-4.994l0,0
		C4.995-2.759,2.758-4.995,0-4.995z"/>
</g>
<g transform="translate(352.7927,539.4286)">
	<circle fill="#73CCB0" fill-opacity="0.6" cx="0" cy="0" r="4.665"/>
</g>
<g transform="translate(352.7927,539.4286)">
	<path d="M0-4.335c2.395,0,4.335,1.94,4.335,4.335l0,0c0,2.395-1.94,4.335-4.335,4.335c-2.394,0-4.335-1.94-4.335-4.335
		S-2.393-4.335,0-4.335z M0-4.995c-2.758,0-4.994,2.236-4.994,4.995S-2.758,4.994,0,4.994c2.759,0,4.995-2.235,4.995-4.994l0,0
		C4.995-2.759,2.759-4.995,0-4.995z"/>
</g>
<g transform="translate(350.1246,539.4286)">
	<circle fill="#73CCB0" fill-opacity="0.6" cx="0" cy="0" r="4.665"/>
</g>
<g transform="translate(350.1246,539.4286)">
	<path d="M0-4.335c2.395,0,4.335,1.94,4.335,4.335l0,0c0,2.395-1.94,4.335-4.335,4.335S-4.335,2.395-4.335,0S-2.394-4.335,0-4.335z
		 M0-4.995c-2.759,0-4.994,2.236-4.994,4.995S-2.759,4.994,0,4.994S4.995,2.759,4.995,0l0,0C4.995-2.759,2.759-4.995,0-4.995z"/>
</g>
<g transform="translate(354.996,539.4286)">
	<circle fill="#73CCB0" fill-opacity="0.6" cx="0" cy="0" r="4.665"/>
</g>
<g transform="translate(354.996,539.4286)">
	<path d="M0-4.335c2.395,0,4.336,1.94,4.336,4.335l0,0c0,2.395-1.941,4.335-4.336,4.335c-2.394,0-4.335-1.94-4.335-4.335
		S-2.394-4.335,0-4.335z M0-4.995c-2.758,0-4.994,2.236-4.994,4.995S-2.758,4.994,0,4.994c2.759,0,4.995-2.235,4.995-4.994l0,0
		C4.995-2.759,2.759-4.995,0-4.995z"/>
</g>
<g transform="translate(352.5475,539.4286)">
	<circle fill="#73CCB0" fill-opacity="0.6" cx="0" cy="0" r="4.665"/>
</g>
<g transform="translate(352.5475,539.4286)">
	<path d="M0-4.335c2.395,0,4.335,1.94,4.335,4.335l0,0c0,2.395-1.94,4.335-4.335,4.335c-2.394,0-4.335-1.94-4.335-4.335
		S-2.393-4.335,0-4.335z M0-4.995c-2.759,0-4.995,2.236-4.995,4.995S-2.759,4.994,0,4.994S4.995,2.759,4.995,0l0,0
		C4.995-2.759,2.759-4.995,0-4.995z"/>
</g>
<g transform="translate(350.1642,539.4286)">
	<circle fill="#73CCB0" fill-opacity="0.6" cx="0.001" cy="0" r="4.665"/>
</g>
<g transform="translate(350.1642,539.4286)">
	<path d="M0.001-4.335c2.394,0,4.335,1.94,4.335,4.335l0,0c0,2.395-1.941,4.335-4.335,4.335c-2.395,0-4.335-1.94-4.335-4.335
		S-2.394-4.335,0.001-4.335z M0.001-4.995c-2.759,0-4.995,2.236-4.995,4.995s2.236,4.994,4.995,4.994
		c2.758,0,4.994-2.235,4.994-4.994l0,0C4.995-2.759,2.759-4.995,0.001-4.995z"/>
</g>
<g transform="translate(359.402,539.4286)">
	<circle fill="#73CCB0" fill-opacity="0.6" cx="0" cy="0" r="4.665"/>
</g>
<g transform="translate(359.402,539.4286)">
	<path d="M0-4.335c2.395,0,4.335,1.94,4.335,4.335l0,0c0,2.395-1.94,4.335-4.335,4.335S-4.335,2.395-4.335,0S-2.394-4.335,0-4.335z
		 M0-4.995c-2.759,0-4.994,2.236-4.994,4.995S-2.759,4.994,0,4.994S4.995,2.759,4.995,0l0,0C4.995-2.759,2.759-4.995,0-4.995z"/>
</g>
<g transform="translate(353.3681,539.4286)">
	<circle fill="#73CCB0" fill-opacity="0.6" cx="0.001" cy="0" r="4.665"/>
</g>
<g transform="translate(353.3681,539.4286)">
	<path d="M0.001-4.335c2.394,0,4.335,1.94,4.335,4.335l0,0c0,2.395-1.941,4.335-4.335,4.335c-2.395,0-4.336-1.94-4.336-4.335
		S-2.394-4.335,0.001-4.335z M0.001-4.995c-2.759,0-4.995,2.236-4.995,4.995s2.236,4.994,4.995,4.994
		c2.758,0,4.994-2.235,4.994-4.994l0,0C4.995-2.759,2.759-4.995,0.001-4.995z"/>
</g>
<g transform="translate(361.3874,539.4286)">
	<circle fill="#73CCB0" fill-opacity="0.6" cx="0" cy="0" r="4.665"/>
</g>
<g transform="translate(361.3874,539.4286)">
	<path d="M0-4.335c2.395,0,4.335,1.94,4.335,4.335l0,0c0,2.395-1.94,4.335-4.335,4.335c-2.394,0-4.335-1.94-4.335-4.335
		S-2.393-4.335,0-4.335z M0-4.995c-2.759,0-4.994,2.236-4.994,4.995S-2.759,4.994,0,4.994S4.995,2.759,4.995,0l0,0
		C4.995-2.759,2.759-4.995,0-4.995z"/>
</g>
<g transform="translate(354.765,539.4286)">
	<circle fill="#73CCB0" fill-opacity="0.6" cx="0.001" cy="0" r="4.665"/>
</g>
<g transform="translate(354.765,539.4286)">
	<path d="M0.001-4.335c2.395,0,4.335,1.94,4.335,4.335l0,0c0,2.395-1.94,4.335-4.335,4.335S-4.334,2.395-4.334,0
		S-2.394-4.335,0.001-4.335z M0.001-4.995c-2.759,0-4.995,2.236-4.995,4.995s2.236,4.994,4.995,4.994S4.995,2.759,4.995,0l0,0
		C4.995-2.759,2.759-4.995,0.001-4.995z"/>
</g>
<g transform="translate(349.4765,539.4286)">
	<circle fill="#73CCB0" fill-opacity="0.6" cx="0" cy="0" r="4.665"/>
</g>
<g transform="translate(349.4765,539.4286)">
	<path d="M0-4.335c2.395,0,4.336,1.94,4.336,4.335l0,0c0,2.395-1.941,4.335-4.336,4.335c-2.394,0-4.335-1.94-4.335-4.335
		S-2.394-4.335,0-4.335z M0-4.995c-2.758,0-4.994,2.236-4.994,4.995S-2.758,4.994,0,4.994c2.759,0,4.995-2.235,4.995-4.994l0,0
		C4.995-2.759,2.759-4.995,0-4.995z"/>
	<path fill="none" stroke="#000000" stroke-width="0.6597" stroke-linecap="square" stroke-miterlimit="10" d="M641.013,0L641.013,0
		L641.013,0h24.631l0,0l0,0l0,0H641.013L641.013,0"/>
	
		<line fill="none" stroke="#000000" stroke-width="2.6389" stroke-linejoin="round" stroke-miterlimit="10" x1="641.013" y1="0" x2="665.644" y2="0"/>
	
		<line fill="none" stroke="#000000" stroke-width="1.9792" stroke-linejoin="round" stroke-miterlimit="10" x1="653.328" y1="0" x2="653.328" y2="0"/>
	
		<line fill="none" stroke="#000000" stroke-width="1.9792" stroke-linejoin="round" stroke-miterlimit="10" x1="653.328" y1="0" x2="653.328" y2="0"/>
	<path fill="none" stroke="#000000" stroke-width="0.6597" stroke-miterlimit="10" d="M627.693-280.651v10 M622.693-275.651h10
		 M624.395-278.949l6.598,6.597 M624.395-272.352l6.598-6.597"/>
</g>
<g transform="translate(963.8752,539.4286)">
	<circle fill="#73CCB0" fill-opacity="0.6" cx="0.001" cy="0" r="4.665"/>
</g>
<g transform="translate(963.8752,539.4286)">
	<path d="M0.001-4.335c2.394,0,4.335,1.94,4.335,4.335l0,0c0,2.395-1.941,4.335-4.335,4.335c-2.395,0-4.335-1.94-4.335-4.335
		S-2.394-4.335,0.001-4.335z M0.001-4.995c-2.759,0-4.995,2.236-4.995,4.995s2.236,4.994,4.995,4.994S4.995,2.759,4.995,0l0,0
		C4.995-2.759,2.76-4.995,0.001-4.995z"/>
</g>
<g transform="translate(970.8139,539.4286)">
	<circle fill="#73CCB0" fill-opacity="0.6" cx="0" cy="0" r="4.665"/>
</g>
<g transform="translate(970.8139,539.4286)">
	<path d="M0-4.335c2.395,0,4.335,1.94,4.335,4.335l0,0c0,2.395-1.94,4.335-4.335,4.335S-4.334,2.395-4.334,0S-2.394-4.335,0-4.335z
		 M0-4.995c-2.759,0-4.995,2.236-4.995,4.995S-2.758,4.994,0,4.994S4.996,2.759,4.996,0l0,0C4.996-2.759,2.759-4.995,0-4.995z"/>
</g>
<g transform="translate(974.4365,539.4286)">
	<circle fill="#73CCB0" fill-opacity="0.6" cx="0.001" cy="0" r="4.665"/>
</g>
<g transform="translate(974.4365,539.4286)">
	<path d="M0.001-4.335c2.394,0,4.335,1.94,4.335,4.335l0,0c0,2.395-1.941,4.335-4.335,4.335c-2.395,0-4.336-1.94-4.336-4.335
		S-2.394-4.335,0.001-4.335z M0.001-4.995c-2.759,0-4.995,2.236-4.995,4.995s2.236,4.994,4.995,4.994
		c2.758,0,4.994-2.235,4.994-4.994l0,0C4.995-2.759,2.759-4.995,0.001-4.995z"/>
</g>
<g transform="translate(968.2803,539.4286)">
	<circle fill="#73CCB0" fill-opacity="0.6" cx="0.001" cy="0" r="4.665"/>
</g>
<g transform="translate(968.2803,539.4286)">
	<path d="M0.001-4.335c2.394,0,4.335,1.94,4.335,4.335l0,0c0,2.395-1.941,4.335-4.335,4.335c-2.395,0-4.336-1.94-4.336-4.335
		S-2.394-4.335,0.001-4.335z M0.001-4.995c-2.759,0-4.995,2.236-4.995,4.995s2.236,4.994,4.995,4.994
		c2.758,0,4.994-2.235,4.994-4.994l0,0C4.995-2.759,2.759-4.995,0.001-4.995z"/>
</g>
<g transform="translate(963.9326,539.4286)">
	<circle fill="#73CCB0" fill-opacity="0.6" cx="0.001" cy="0" r="4.665"/>
</g>
<g transform="translate(963.9326,539.4286)">
	<path d="M0.001-4.335c2.394,0,4.335,1.94,4.335,4.335l0,0c0,2.395-1.941,4.335-4.335,4.335c-2.395,0-4.336-1.94-4.336-4.335
		S-2.394-4.335,0.001-4.335z M0.001-4.995c-2.759,0-4.995,2.236-4.995,4.995s2.236,4.994,4.995,4.994
		c2.758,0,4.994-2.235,4.994-4.994l0,0C4.995-2.759,2.759-4.995,0.001-4.995z"/>
</g>
<g transform="translate(970.6232,539.4286)">
	<circle fill="#73CCB0" fill-opacity="0.6" cx="0.001" cy="0" r="4.665"/>
</g>
<g transform="translate(970.6232,539.4286)">
	<path d="M0.001-4.335c2.394,0,4.335,1.94,4.335,4.335l0,0c0,2.395-1.941,4.335-4.335,4.335c-2.395,0-4.335-1.94-4.335-4.335
		S-2.394-4.335,0.001-4.335z M0.001-4.995c-2.759,0-4.995,2.236-4.995,4.995s2.236,4.994,4.995,4.994S4.995,2.759,4.995,0l0,0
		C4.995-2.759,2.76-4.995,0.001-4.995z"/>
</g>
<g transform="translate(962.9984,539.4286)">
	<circle fill="#73CCB0" fill-opacity="0.6" cx="0" cy="0" r="4.665"/>
</g>
<g transform="translate(962.9984,539.4286)">
	<path d="M0-4.335c2.394,0,4.335,1.94,4.335,4.335l0,0c0,2.395-1.941,4.335-4.335,4.335c-2.395,0-4.335-1.94-4.335-4.335
		S-2.394-4.335,0-4.335z M0-4.995c-2.759,0-4.995,2.236-4.995,4.995S-2.758,4.994,0,4.994S4.996,2.759,4.996,0l0,0
		C4.996-2.759,2.759-4.995,0-4.995z"/>
</g>
<g transform="translate(975.7556,539.4286)">
	<circle fill="#73CCB0" fill-opacity="0.6" cx="0" cy="0" r="4.665"/>
</g>
<g transform="translate(975.7556,539.4286)">
	<path d="M0-4.335c2.395,0,4.335,1.94,4.335,4.335l0,0c0,2.395-1.94,4.335-4.335,4.335c-2.394,0-4.335-1.94-4.335-4.335
		S-2.393-4.335,0-4.335z M0-4.995c-2.758,0-4.994,2.236-4.994,4.995S-2.758,4.994,0,4.994c2.759,0,4.995-2.235,4.995-4.994l0,0
		C4.995-2.759,2.759-4.995,0-4.995z"/>
</g>
<g transform="translate(974.1123,539.4286)">
	<circle fill="#73CCB0" fill-opacity="0.6" cx="0.001" cy="0" r="4.665"/>
</g>
<g transform="translate(974.1123,539.4286)">
	<path d="M0.001-4.335c2.394,0,4.335,1.94,4.335,4.335l0,0c0,2.395-1.941,4.335-4.335,4.335c-2.395,0-4.336-1.94-4.336-4.335
		S-2.394-4.335,0.001-4.335z M0.001-4.995c-2.759,0-4.995,2.236-4.995,4.995s2.236,4.994,4.995,4.994
		c2.758,0,4.994-2.235,4.994-4.994l0,0C4.995-2.759,2.759-4.995,0.001-4.995z"/>
</g>
<g transform="translate(972.4856,539.4286)">
	<circle fill="#73CCB0" fill-opacity="0.6" cx="0.001" cy="0" r="4.665"/>
</g>
<g transform="translate(972.4856,539.4286)">
	<path d="M0.001-4.335c2.394,0,4.335,1.94,4.335,4.335l0,0c0,2.395-1.941,4.335-4.335,4.335c-2.395,0-4.335-1.94-4.335-4.335
		S-2.394-4.335,0.001-4.335z M0.001-4.995c-2.759,0-4.995,2.236-4.995,4.995s2.236,4.994,4.995,4.994
		c2.758,0,4.994-2.235,4.994-4.994l0,0C4.995-2.759,2.758-4.995,0.001-4.995z"/>
</g>
<g transform="translate(972.086,539.4286)">
	<circle fill="#73CCB0" fill-opacity="0.6" cx="0" cy="0" r="4.665"/>
</g>
<g transform="translate(972.086,539.4286)">
	<path d="M0-4.335c2.395,0,4.336,1.94,4.336,4.335l0,0c0,2.395-1.941,4.335-4.336,4.335c-2.394,0-4.335-1.94-4.335-4.335
		S-2.394-4.335,0-4.335z M0-4.995c-2.758,0-4.994,2.236-4.994,4.995S-2.758,4.994,0,4.994c2.759,0,4.995-2.235,4.995-4.994l0,0
		C4.995-2.759,2.759-4.995,0-4.995z"/>
</g>
<g transform="translate(973.8804,539.4286)">
	<circle fill="#73CCB0" fill-opacity="0.6" cx="0" cy="0" r="4.665"/>
</g>
<g transform="translate(973.8804,539.4286)">
	<path d="M0-4.335c2.395,0,4.335,1.94,4.335,4.335l0,0c0,2.395-1.94,4.335-4.335,4.335S-4.335,2.395-4.335,0S-2.394-4.335,0-4.335z
		 M0-4.995c-2.759,0-4.995,2.236-4.995,4.995S-2.759,4.994,0,4.994S4.995,2.759,4.995,0l0,0C4.995-2.759,2.759-4.995,0-4.995z"/>
</g>
<g transform="translate(967.6019,539.4286)">
	<circle fill="#73CCB0" fill-opacity="0.6" cx="0" cy="0" r="4.665"/>
</g>
<g transform="translate(967.6019,539.4286)">
	<path d="M0-4.335c2.394,0,4.335,1.94,4.335,4.335l0,0c0,2.395-1.941,4.335-4.335,4.335c-2.395,0-4.335-1.94-4.335-4.335
		S-2.394-4.335,0-4.335z M0-4.995c-2.759,0-4.995,2.236-4.995,4.995S-2.758,4.994,0,4.994S4.995,2.759,4.995,0l0,0
		C4.995-2.759,2.759-4.995,0-4.995z"/>
</g>
<g transform="translate(977.4863,539.4286)">
	<circle fill="#73CCB0" fill-opacity="0.6" cx="0" cy="0" r="4.665"/>
</g>
<g transform="translate(977.4863,539.4286)">
	<path d="M0-4.335c2.395,0,4.336,1.94,4.336,4.335l0,0c0,2.395-1.941,4.335-4.336,4.335c-2.394,0-4.335-1.94-4.335-4.335
		S-2.394-4.335,0-4.335z M0-4.995c-2.758,0-4.994,2.236-4.994,4.995S-2.758,4.994,0,4.994c2.759,0,4.995-2.235,4.995-4.994l0,0
		C4.995-2.759,2.759-4.995,0-4.995z"/>
</g>
<g transform="translate(972.3925,539.4286)">
	<circle fill="#73CCB0" fill-opacity="0.6" cx="0" cy="0" r="4.665"/>
</g>
<g transform="translate(972.3925,539.4286)">
	<path d="M0-4.335c2.395,0,4.336,1.94,4.336,4.335l0,0c0,2.395-1.941,4.335-4.336,4.335c-2.394,0-4.335-1.94-4.335-4.335
		S-2.394-4.335,0-4.335z M0-4.995c-2.758,0-4.994,2.236-4.994,4.995S-2.758,4.994,0,4.994c2.759,0,4.995-2.235,4.995-4.994l0,0
		C4.995-2.759,2.759-4.995,0-4.995z"/>
</g>
<g transform="translate(974.148,539.4286)">
	<circle fill="#73CCB0" fill-opacity="0.6" cx="0" cy="0" r="4.665"/>
</g>
<g transform="translate(974.148,539.4286)">
	<path d="M0-4.335c2.395,0,4.335,1.94,4.335,4.335l0,0c0,2.395-1.94,4.335-4.335,4.335S-4.335,2.395-4.335,0S-2.394-4.335,0-4.335z
		 M0-4.995c-2.759,0-4.995,2.236-4.995,4.995S-2.759,4.994,0,4.994S4.995,2.759,4.995,0l0,0C4.995-2.759,2.759-4.995,0-4.995z"/>
</g>
<g transform="translate(973.9622,539.4286)">
	<circle fill="#73CCB0" fill-opacity="0.6" cx="0" cy="0" r="4.665"/>
</g>
<g transform="translate(973.9622,539.4286)">
	<path d="M0-4.335c2.394,0,4.335,1.94,4.335,4.335l0,0c0,2.395-1.941,4.335-4.335,4.335c-2.395,0-4.335-1.94-4.335-4.335
		S-2.394-4.335,0-4.335z M0-4.995c-2.759,0-4.995,2.236-4.995,4.995S-2.758,4.994,0,4.994c2.758,0,4.994-2.235,4.994-4.994l0,0
		C4.995-2.759,2.758-4.995,0-4.995z"/>
</g>
<g transform="translate(977.2616,539.4286)">
	<circle fill="#73CCB0" fill-opacity="0.6" cx="0" cy="0" r="4.665"/>
</g>
<g transform="translate(977.2616,539.4286)">
	<path d="M0-4.335c2.395,0,4.336,1.94,4.336,4.335l0,0c0,2.395-1.941,4.335-4.336,4.335c-2.394,0-4.335-1.94-4.335-4.335
		S-2.394-4.335,0-4.335z M0-4.995c-2.758,0-4.994,2.236-4.994,4.995S-2.758,4.994,0,4.994c2.759,0,4.995-2.235,4.995-4.994l0,0
		C4.995-2.759,2.759-4.995,0-4.995z"/>
</g>
<g transform="translate(969.2441,539.4286)">
	<circle fill="#73CCB0" fill-opacity="0.6" cx="0" cy="0" r="4.665"/>
</g>
<g transform="translate(969.2441,539.4286)">
	<path d="M0-4.335c2.395,0,4.336,1.94,4.336,4.335l0,0c0,2.395-1.941,4.335-4.336,4.335c-2.394,0-4.335-1.94-4.335-4.335
		S-2.394-4.335,0-4.335z M0-4.995c-2.758,0-4.994,2.236-4.994,4.995S-2.758,4.994,0,4.994c2.759,0,4.995-2.235,4.995-4.994l0,0
		C4.995-2.759,2.759-4.995,0-4.995z"/>
</g>
<g transform="translate(974.3525,539.4286)">
	<circle fill="#73CCB0" fill-opacity="0.6" cx="0.001" cy="0" r="4.665"/>
</g>
<g transform="translate(974.3525,539.4286)">
	<path d="M0.001-4.335c2.394,0,4.335,1.94,4.335,4.335l0,0c0,2.395-1.941,4.335-4.335,4.335c-2.395,0-4.336-1.94-4.336-4.335
		S-2.394-4.335,0.001-4.335z M0.001-4.995c-2.759,0-4.995,2.236-4.995,4.995s2.236,4.994,4.995,4.994
		c2.758,0,4.994-2.235,4.994-4.994l0,0C4.995-2.759,2.759-4.995,0.001-4.995z"/>
</g>
<g transform="translate(976.4461,539.4286)">
	<circle fill="#73CCB0" fill-opacity="0.6" cx="0" cy="0" r="4.665"/>
</g>
<g transform="translate(976.4461,539.4286)">
	<path d="M0-4.335c2.395,0,4.335,1.94,4.335,4.335l0,0c0,2.395-1.94,4.335-4.335,4.335c-2.394,0-4.335-1.94-4.335-4.335
		S-2.394-4.335,0-4.335z M0-4.995c-2.759,0-4.994,2.236-4.994,4.995S-2.759,4.994,0,4.994S4.995,2.759,4.995,0l0,0
		C4.995-2.759,2.759-4.995,0-4.995z"/>
</g>
<g transform="translate(978.9841,539.4286)">
	<circle fill="#73CCB0" fill-opacity="0.6" cx="0" cy="0" r="4.665"/>
</g>
<g transform="translate(978.9841,539.4286)">
	<path d="M0-4.335c2.395,0,4.335,1.94,4.335,4.335l0,0c0,2.395-1.94,4.335-4.335,4.335c-2.394,0-4.335-1.94-4.335-4.335
		S-2.394-4.335,0-4.335z M0-4.995c-2.758,0-4.994,2.236-4.994,4.995S-2.758,4.994,0,4.994c2.759,0,4.995-2.235,4.995-4.994l0,0
		C4.995-2.759,2.759-4.995,0-4.995z"/>
</g>
<g transform="translate(974.3382,539.4286)">
	<circle fill="#73CCB0" fill-opacity="0.6" cx="0" cy="0" r="4.665"/>
</g>
<g transform="translate(974.3382,539.4286)">
	<path d="M0-4.335c2.394,0,4.335,1.94,4.335,4.335l0,0c0,2.395-1.941,4.335-4.335,4.335c-2.395,0-4.335-1.94-4.335-4.335
		S-2.394-4.335,0-4.335z M0-4.995c-2.759,0-4.995,2.236-4.995,4.995S-2.758,4.994,0,4.994S4.995,2.759,4.995,0l0,0
		C4.995-2.759,2.759-4.995,0-4.995z"/>
</g>
<g transform="translate(969.9504,539.4286)">
	<circle fill="#73CCB0" fill-opacity="0.6" cx="0" cy="0" r="4.665"/>
</g>
<g transform="translate(969.9504,539.4286)">
	<path d="M0-4.335c2.394,0,4.335,1.94,4.335,4.335l0,0c0,2.395-1.941,4.335-4.335,4.335c-2.395,0-4.335-1.94-4.335-4.335
		S-2.394-4.335,0-4.335z M0-4.995c-2.759,0-4.995,2.236-4.995,4.995S-2.758,4.994,0,4.994c2.758,0,4.994-2.235,4.994-4.994l0,0
		C4.995-2.759,2.758-4.995,0-4.995z"/>
</g>
<g transform="translate(964.6945,539.4286)">
	<circle fill="#73CCB0" fill-opacity="0.6" cx="0" cy="0" r="4.665"/>
</g>
<g transform="translate(964.6945,539.4286)">
	<path d="M0-4.335c2.394,0,4.335,1.94,4.335,4.335l0,0c0,2.395-1.941,4.335-4.335,4.335c-2.395,0-4.335-1.94-4.335-4.335
		S-2.394-4.335,0-4.335z M0-4.995c-2.759,0-4.995,2.236-4.995,4.995S-2.758,4.994,0,4.994c2.758,0,4.994-2.235,4.994-4.994l0,0
		C4.995-2.759,2.758-4.995,0-4.995z"/>
</g>
<g transform="translate(978.3011,539.4286)">
	<circle fill="#73CCB0" fill-opacity="0.6" cx="0" cy="0" r="4.665"/>
</g>
<g transform="translate(978.3011,539.4286)">
	<path d="M0-4.335c2.394,0,4.335,1.94,4.335,4.335l0,0c0,2.395-1.941,4.335-4.335,4.335c-2.395,0-4.335-1.94-4.335-4.335
		S-2.394-4.335,0-4.335z M0-4.995c-2.759,0-4.995,2.236-4.995,4.995S-2.758,4.994,0,4.994S4.995,2.759,4.995,0l0,0
		C4.995-2.759,2.759-4.995,0-4.995z"/>
	<path fill="none" stroke="#000000" stroke-width="0.6597" stroke-linecap="square" stroke-miterlimit="10" d="M-480.421,0
		L-480.421,0L-480.421,0h24.631l0,0l0,0l0,0H-480.421L-480.421,0"/>
	
		<line fill="none" stroke="#000000" stroke-width="2.6389" stroke-linejoin="round" stroke-miterlimit="10" x1="-480.421" y1="0" x2="-455.79" y2="0"/>
	
		<line fill="none" stroke="#000000" stroke-width="1.9792" stroke-linejoin="round" stroke-miterlimit="10" x1="-468.105" y1="0" x2="-468.105" y2="0"/>
	
		<line fill="none" stroke="#000000" stroke-width="1.9792" stroke-linejoin="round" stroke-miterlimit="10" x1="-468.105" y1="0" x2="-468.105" y2="0"/>
</g>
<g transform="translate(471.5304,539.4286)">
	<circle fill="#8C99C9" fill-opacity="0.6" cx="0.001" cy="0" r="4.665"/>
</g>
<g transform="translate(471.5304,539.4286)">
	<path d="M0.001-4.335c2.394,0,4.335,1.94,4.335,4.335l0,0c0,2.395-1.941,4.335-4.335,4.335c-2.395,0-4.336-1.94-4.336-4.335
		S-2.394-4.335,0.001-4.335z M0.001-4.995c-2.759,0-4.995,2.236-4.995,4.995s2.236,4.994,4.995,4.994
		c2.758,0,4.994-2.235,4.994-4.994l0,0C4.995-2.759,2.758-4.995,0.001-4.995z"/>
</g>
<g transform="translate(484.2356,539.4286)">
	<circle fill="#8C99C9" fill-opacity="0.6" cx="0" cy="0" r="4.665"/>
</g>
<g transform="translate(484.2356,539.4286)">
	<path d="M0-4.335c2.394,0,4.335,1.94,4.335,4.335l0,0c0,2.395-1.941,4.335-4.335,4.335c-2.395,0-4.335-1.94-4.335-4.335
		S-2.394-4.335,0-4.335z M0-4.995c-2.759,0-4.995,2.236-4.995,4.995S-2.758,4.994,0,4.994c2.758,0,4.994-2.235,4.994-4.994l0,0
		C4.995-2.759,2.758-4.995,0-4.995z"/>
</g>
<g transform="translate(472.6961,539.4286)">
	<circle fill="#8C99C9" fill-opacity="0.6" cx="0" cy="0" r="4.665"/>
</g>
<g transform="translate(472.6961,539.4286)">
	<path d="M0-4.335c2.395,0,4.335,1.94,4.335,4.335l0,0c0,2.395-1.94,4.335-4.335,4.335c-2.394,0-4.335-1.94-4.335-4.335
		S-2.394-4.335,0-4.335z M0-4.995c-2.759,0-4.994,2.236-4.994,4.995S-2.759,4.994,0,4.994S4.995,2.759,4.995,0l0,0
		C4.995-2.759,2.759-4.995,0-4.995z"/>
</g>
<g transform="translate(473.2423,539.4286)">
	<circle fill="#8C99C9" fill-opacity="0.6" cx="0.001" cy="0" r="4.665"/>
</g>
<g transform="translate(473.2423,539.4286)">
	<path d="M0.001-4.335c2.394,0,4.335,1.94,4.335,4.335l0,0c0,2.395-1.941,4.335-4.335,4.335c-2.395,0-4.335-1.94-4.335-4.335
		S-2.394-4.335,0.001-4.335z M0.001-4.995c-2.759,0-4.995,2.236-4.995,4.995s2.236,4.994,4.995,4.994
		c2.758,0,4.994-2.235,4.994-4.994l0,0C4.995-2.759,2.758-4.995,0.001-4.995z"/>
</g>
<g transform="translate(471.3144,539.4286)">
	<circle fill="#8C99C9" fill-opacity="0.6" cx="0" cy="0" r="4.665"/>
</g>
<g transform="translate(471.3144,539.4286)">
	<path d="M0-4.335c2.395,0,4.336,1.94,4.336,4.335l0,0c0,2.395-1.941,4.335-4.336,4.335c-2.394,0-4.335-1.94-4.335-4.335
		S-2.394-4.335,0-4.335z M0-4.995c-2.758,0-4.994,2.236-4.994,4.995S-2.758,4.994,0,4.994c2.759,0,4.995-2.235,4.995-4.994l0,0
		C4.995-2.759,2.759-4.995,0-4.995z"/>
</g>
<g transform="translate(484.1317,539.4286)">
	<circle fill="#8C99C9" fill-opacity="0.6" cx="0" cy="0" r="4.665"/>
</g>
<g transform="translate(484.1317,539.4286)">
	<path d="M0-4.335c2.395,0,4.335,1.94,4.335,4.335l0,0c0,2.395-1.94,4.335-4.335,4.335c-2.394,0-4.335-1.94-4.335-4.335
		S-2.394-4.335,0-4.335z M0-4.995c-2.758,0-4.994,2.236-4.994,4.995S-2.758,4.994,0,4.994c2.759,0,4.995-2.235,4.995-4.994l0,0
		C4.995-2.759,2.759-4.995,0-4.995z"/>
</g>
<g transform="translate(478.0984,539.4286)">
	<circle fill="#8C99C9" fill-opacity="0.6" cx="0" cy="0" r="4.665"/>
</g>
<g transform="translate(478.0984,539.4286)">
	<path d="M0-4.335c2.395,0,4.335,1.94,4.335,4.335l0,0c0,2.395-1.94,4.335-4.335,4.335c-2.394,0-4.335-1.94-4.335-4.335
		S-2.394-4.335,0-4.335z M0-4.995c-2.759,0-4.994,2.236-4.994,4.995S-2.759,4.994,0,4.994S4.995,2.759,4.995,0l0,0
		C4.995-2.759,2.759-4.995,0-4.995z"/>
</g>
<g transform="translate(479.7367,539.4286)">
	<circle fill="#8C99C9" fill-opacity="0.6" cx="0" cy="0" r="4.665"/>
</g>
<g transform="translate(479.7367,539.4286)">
	<path d="M0-4.335c2.394,0,4.335,1.94,4.335,4.335l0,0c0,2.395-1.941,4.335-4.335,4.335c-2.395,0-4.335-1.94-4.335-4.335
		S-2.394-4.335,0-4.335z M0-4.995c-2.759,0-4.995,2.236-4.995,4.995S-2.758,4.994,0,4.994S4.995,2.759,4.995,0l0,0
		C4.995-2.759,2.759-4.995,0-4.995z"/>
</g>
<g transform="translate(483.5361,539.4286)">
	<circle fill="#8C99C9" fill-opacity="0.6" cx="0.001" cy="0" r="4.665"/>
</g>
<g transform="translate(483.5361,539.4286)">
	<path d="M0.001-4.335c2.394,0,4.335,1.94,4.335,4.335l0,0c0,2.395-1.941,4.335-4.335,4.335c-2.395,0-4.336-1.94-4.336-4.335
		S-2.394-4.335,0.001-4.335z M0.001-4.995c-2.759,0-4.995,2.236-4.995,4.995s2.236,4.994,4.995,4.994
		c2.758,0,4.994-2.235,4.994-4.994l0,0C4.995-2.759,2.759-4.995,0.001-4.995z"/>
</g>
<g transform="translate(476.9416,539.4286)">
	<circle fill="#8C99C9" fill-opacity="0.6" cx="0" cy="0" r="4.665"/>
</g>
<g transform="translate(476.9416,539.4286)">
	<path d="M0-4.335c2.394,0,4.335,1.94,4.335,4.335l0,0c0,2.395-1.941,4.335-4.335,4.335c-2.395,0-4.335-1.94-4.335-4.335
		S-2.394-4.335,0-4.335z M0-4.995c-2.759,0-4.995,2.236-4.995,4.995S-2.758,4.994,0,4.994S4.995,2.759,4.995,0l0,0
		C4.995-2.759,2.759-4.995,0-4.995z"/>
</g>
<g transform="translate(476.432,539.4286)">
	<circle fill="#8C99C9" fill-opacity="0.6" cx="0" cy="0" r="4.665"/>
</g>
<g transform="translate(476.432,539.4286)">
	<path d="M0-4.335c2.394,0,4.335,1.94,4.335,4.335l0,0c0,2.395-1.941,4.335-4.335,4.335c-2.395,0-4.335-1.94-4.335-4.335
		S-2.394-4.335,0-4.335z M0-4.995c-2.759,0-4.995,2.236-4.995,4.995S-2.758,4.994,0,4.994S4.995,2.759,4.995,0l0,0
		C4.995-2.759,2.759-4.995,0-4.995z"/>
</g>
<g transform="translate(482.865,539.4286)">
	<circle fill="#8C99C9" fill-opacity="0.6" cx="0" cy="0" r="4.665"/>
</g>
<g transform="translate(482.865,539.4286)">
	<path d="M0-4.335c2.395,0,4.335,1.94,4.335,4.335l0,0c0,2.395-1.94,4.335-4.335,4.335c-2.394,0-4.335-1.94-4.335-4.335
		S-2.394-4.335,0-4.335z M0-4.995c-2.758,0-4.994,2.236-4.994,4.995S-2.758,4.994,0,4.994c2.759,0,4.995-2.235,4.995-4.994l0,0
		C4.995-2.759,2.759-4.995,0-4.995z"/>
</g>
<g transform="translate(477.8488,539.4286)">
	<circle fill="#8C99C9" fill-opacity="0.6" cx="0" cy="0" r="4.665"/>
</g>
<g transform="translate(477.8488,539.4286)">
	<path d="M0-4.335c2.394,0,4.335,1.94,4.335,4.335l0,0c0,2.395-1.941,4.335-4.335,4.335c-2.395,0-4.336-1.94-4.336-4.335
		S-2.394-4.335,0-4.335z M0-4.995c-2.759,0-4.995,2.236-4.995,4.995S-2.758,4.994,0,4.994c2.758,0,4.994-2.235,4.994-4.994l0,0
		C4.995-2.759,2.758-4.995,0-4.995z"/>
</g>
<g transform="translate(470.1435,539.4286)">
	<circle fill="#8C99C9" fill-opacity="0.6" cx="0.001" cy="0" r="4.665"/>
</g>
<g transform="translate(470.1435,539.4286)">
	<path d="M0.001-4.335c2.394,0,4.335,1.94,4.335,4.335l0,0c0,2.395-1.941,4.335-4.335,4.335c-2.395,0-4.336-1.94-4.336-4.335
		S-2.394-4.335,0.001-4.335z M0.001-4.995c-2.759,0-4.995,2.236-4.995,4.995s2.236,4.994,4.995,4.994
		c2.758,0,4.994-2.235,4.994-4.994l0,0C4.995-2.759,2.759-4.995,0.001-4.995z"/>
</g>
<g transform="translate(478.3417,539.4286)">
	<circle fill="#8C99C9" fill-opacity="0.6" cx="0" cy="0" r="4.665"/>
</g>
<g transform="translate(478.3417,539.4286)">
	<path d="M0-4.335c2.395,0,4.336,1.94,4.336,4.335l0,0c0,2.395-1.941,4.335-4.336,4.335c-2.394,0-4.335-1.94-4.335-4.335
		S-2.394-4.335,0-4.335z M0-4.995c-2.758,0-4.994,2.236-4.994,4.995S-2.758,4.994,0,4.994c2.759,0,4.995-2.235,4.995-4.994l0,0
		C4.995-2.759,2.759-4.995,0-4.995z"/>
</g>
<g transform="translate(474.9762,539.4286)">
	<circle fill="#8C99C9" fill-opacity="0.6" cx="0" cy="0" r="4.665"/>
</g>
<g transform="translate(474.9762,539.4286)">
	<path d="M0-4.335c2.395,0,4.335,1.94,4.335,4.335l0,0c0,2.395-1.94,4.335-4.335,4.335S-4.335,2.395-4.335,0S-2.395-4.335,0-4.335z
		 M0-4.995c-2.759,0-4.994,2.236-4.994,4.995S-2.759,4.994,0,4.994S4.995,2.759,4.995,0l0,0C4.995-2.759,2.759-4.995,0-4.995z"/>
</g>
<g transform="translate(479.6306,539.4286)">
	<circle fill="#8C99C9" fill-opacity="0.6" cx="0" cy="0" r="4.665"/>
</g>
<g transform="translate(479.6306,539.4286)">
	<path d="M0-4.335c2.395,0,4.335,1.94,4.335,4.335l0,0c0,2.395-1.94,4.335-4.335,4.335c-2.394,0-4.335-1.94-4.335-4.335
		S-2.394-4.335,0-4.335z M0-4.995c-2.758,0-4.994,2.236-4.994,4.995S-2.758,4.994,0,4.994c2.759,0,4.995-2.235,4.995-4.994l0,0
		C4.995-2.759,2.759-4.995,0-4.995z"/>
</g>
<g transform="translate(485.8152,539.4286)">
	<circle fill="#8C99C9" fill-opacity="0.6" cx="0" cy="0" r="4.665"/>
</g>
<g transform="translate(485.8152,539.4286)">
	<path d="M0-4.335c2.395,0,4.335,1.94,4.335,4.335l0,0c0,2.395-1.94,4.335-4.335,4.335c-2.394,0-4.335-1.94-4.335-4.335
		S-2.394-4.335,0-4.335z M0-4.995c-2.759,0-4.994,2.236-4.994,4.995S-2.759,4.994,0,4.994S4.995,2.759,4.995,0l0,0
		C4.995-2.759,2.759-4.995,0-4.995z"/>
</g>
<g transform="translate(481.5779,539.4286)">
	<circle fill="#8C99C9" fill-opacity="0.6" cx="0" cy="0" r="4.665"/>
</g>
<g transform="translate(481.5779,539.4286)">
	<path d="M0-4.335c2.395,0,4.335,1.94,4.335,4.335l0,0c0,2.395-1.94,4.335-4.335,4.335c-2.394,0-4.335-1.94-4.335-4.335
		S-2.394-4.335,0-4.335z M0-4.995c-2.758,0-4.994,2.236-4.994,4.995S-2.758,4.994,0,4.994c2.759,0,4.995-2.235,4.995-4.994l0,0
		C4.995-2.759,2.759-4.995,0-4.995z"/>
</g>
<g transform="translate(473.2263,539.4286)">
	<circle fill="#8C99C9" fill-opacity="0.6" cx="0" cy="0" r="4.665"/>
</g>
<g transform="translate(473.2263,539.4286)">
	<path d="M0-4.335c2.395,0,4.335,1.94,4.335,4.335l0,0c0,2.395-1.94,4.335-4.335,4.335c-2.394,0-4.335-1.94-4.335-4.335
		S-2.394-4.335,0-4.335z M0-4.995c-2.758,0-4.994,2.236-4.994,4.995S-2.758,4.994,0,4.994c2.759,0,4.995-2.235,4.995-4.994l0,0
		C4.995-2.759,2.759-4.995,0-4.995z"/>
</g>
<g transform="translate(480.6966,539.4286)">
	<circle fill="#8C99C9" fill-opacity="0.6" cx="0" cy="0" r="4.665"/>
</g>
<g transform="translate(480.6966,539.4286)">
	<path d="M0-4.335c2.394,0,4.335,1.94,4.335,4.335l0,0c0,2.395-1.941,4.335-4.335,4.335c-2.395,0-4.335-1.94-4.335-4.335
		S-2.394-4.335,0-4.335z M0-4.995c-2.759,0-4.995,2.236-4.995,4.995S-2.758,4.994,0,4.994c2.758,0,4.994-2.235,4.994-4.994l0,0
		C4.995-2.759,2.758-4.995,0-4.995z"/>
</g>
<g transform="translate(485.0182,539.4286)">
	<circle fill="#8C99C9" fill-opacity="0.6" cx="0" cy="0" r="4.665"/>
</g>
<g transform="translate(485.0182,539.4286)">
	<path d="M0-4.335c2.395,0,4.335,1.94,4.335,4.335l0,0c0,2.395-1.94,4.335-4.335,4.335c-2.394,0-4.335-1.94-4.335-4.335
		S-2.393-4.335,0-4.335z M0-4.995c-2.759,0-4.995,2.236-4.995,4.995S-2.759,4.994,0,4.994S4.995,2.759,4.995,0l0,0
		C4.995-2.759,2.759-4.995,0-4.995z"/>
</g>
<g transform="translate(477.9937,539.4286)">
	<circle fill="#8C99C9" fill-opacity="0.6" cx="0" cy="0" r="4.665"/>
</g>
<g transform="translate(477.9937,539.4286)">
	<path d="M0-4.335c2.395,0,4.335,1.94,4.335,4.335l0,0c0,2.395-1.94,4.335-4.335,4.335S-4.335,2.395-4.335,0S-2.394-4.335,0-4.335z
		 M0-4.995c-2.759,0-4.995,2.236-4.995,4.995S-2.759,4.994,0,4.994S4.995,2.759,4.995,0l0,0C4.995-2.759,2.759-4.995,0-4.995z"/>
</g>
<g transform="translate(480.3627,539.4286)">
	<circle fill="#8C99C9" fill-opacity="0.6" cx="0" cy="0" r="4.665"/>
</g>
<g transform="translate(480.3627,539.4286)">
	<path d="M0-4.335c2.395,0,4.335,1.94,4.335,4.335l0,0c0,2.395-1.94,4.335-4.335,4.335S-4.335,2.395-4.335,0S-2.394-4.335,0-4.335z
		 M0-4.995c-2.759,0-4.995,2.236-4.995,4.995S-2.759,4.994,0,4.994S4.994,2.759,4.994,0l0,0C4.994-2.759,2.759-4.995,0-4.995z"/>
</g>
<g transform="translate(474.2438,539.4286)">
	<circle fill="#8C99C9" fill-opacity="0.6" cx="0" cy="0" r="4.665"/>
</g>
<g transform="translate(474.2438,539.4286)">
	<path d="M0-4.335c2.395,0,4.335,1.94,4.335,4.335l0,0c0,2.395-1.94,4.335-4.335,4.335S-4.335,2.395-4.335,0S-2.395-4.335,0-4.335z
		 M0-4.995c-2.759,0-4.994,2.236-4.994,4.995S-2.759,4.994,0,4.994S4.995,2.759,4.995,0l0,0C4.995-2.759,2.759-4.995,0-4.995z"/>
</g>
<g transform="translate(477.7699,539.4286)">
	<circle fill="#8C99C9" fill-opacity="0.6" cx="0" cy="0" r="4.665"/>
</g>
<g transform="translate(477.7699,539.4286)">
	<path d="M0-4.335c2.394,0,4.335,1.94,4.335,4.335l0,0c0,2.395-1.941,4.335-4.335,4.335c-2.395,0-4.335-1.94-4.335-4.335
		S-2.394-4.335,0-4.335z M0-4.995c-2.759,0-4.995,2.236-4.995,4.995S-2.759,4.994,0,4.994S4.995,2.759,4.995,0l0,0
		C4.995-2.759,2.759-4.995,0-4.995z"/>
</g>
<g transform="translate(473.1758,539.4286)">
	<circle fill="#8C99C9" fill-opacity="0.6" cx="0" cy="0" r="4.665"/>
</g>
<g transform="translate(473.1758,539.4286)">
	<path d="M0-4.335c2.395,0,4.336,1.94,4.336,4.335l0,0c0,2.395-1.941,4.335-4.336,4.335c-2.394,0-4.335-1.94-4.335-4.335
		S-2.394-4.335,0-4.335z M0-4.995c-2.758,0-4.994,2.236-4.994,4.995S-2.758,4.994,0,4.994c2.759,0,4.995-2.235,4.995-4.994l0,0
		C4.995-2.759,2.758-4.995,0-4.995z"/>
	<path fill="none" stroke="#000000" stroke-width="0.6597" stroke-linecap="square" stroke-miterlimit="10" d="M640.465,0L640.465,0
		L640.465,0h24.631l0,0l0,0l0,0H640.465L640.465,0"/>
	
		<line fill="none" stroke="#000000" stroke-width="2.6389" stroke-linejoin="round" stroke-miterlimit="10" x1="640.465" y1="0" x2="665.096" y2="0"/>
	
		<line fill="none" stroke="#000000" stroke-width="1.9792" stroke-linejoin="round" stroke-miterlimit="10" x1="652.781" y1="0" x2="652.781" y2="0"/>
	
		<line fill="none" stroke="#000000" stroke-width="1.9792" stroke-linejoin="round" stroke-miterlimit="10" x1="652.781" y1="0" x2="652.781" y2="0"/>
</g>
<g transform="translate(1088.7333,539.4286)">
	<circle fill="#8C99C9" fill-opacity="0.6" cx="0" cy="0" r="4.665"/>
</g>
<g transform="translate(1088.7333,539.4286)">
	<path d="M0-4.335c2.395,0,4.335,1.94,4.335,4.335l0,0c0,2.395-1.94,4.335-4.335,4.335c-2.394,0-4.335-1.94-4.335-4.335
		S-2.394-4.335,0-4.335z M0-4.995c-2.758,0-4.994,2.236-4.994,4.995S-2.758,4.994,0,4.994c2.759,0,4.995-2.235,4.995-4.994l0,0
		C4.995-2.759,2.759-4.995,0-4.995z"/>
</g>
<g transform="translate(1099.036,539.4286)">
	<circle fill="#8C99C9" fill-opacity="0.6" cx="0" cy="0" r="4.665"/>
</g>
<g transform="translate(1099.036,539.4286)">
	<path d="M0-4.335c2.395,0,4.335,1.94,4.335,4.335l0,0c0,2.395-1.94,4.335-4.335,4.335c-2.394,0-4.335-1.94-4.335-4.335
		S-2.394-4.335,0-4.335z M0-4.995c-2.758,0-4.994,2.236-4.994,4.995S-2.758,4.994,0,4.994c2.759,0,4.995-2.235,4.995-4.994l0,0
		C4.995-2.759,2.759-4.995,0-4.995z"/>
</g>
<g transform="translate(1100.1161,539.4286)">
	<circle fill="#8C99C9" fill-opacity="0.6" cx="0" cy="0" r="4.665"/>
</g>
<g transform="translate(1100.1161,539.4286)">
	<path d="M0-4.335c2.395,0,4.335,1.94,4.335,4.335l0,0c0,2.395-1.94,4.335-4.335,4.335c-2.394,0-4.335-1.94-4.335-4.335
		S-2.394-4.335,0-4.335z M0-4.995c-2.758,0-4.994,2.236-4.994,4.995S-2.758,4.994,0,4.994c2.759,0,4.995-2.235,4.995-4.994l0,0
		C4.995-2.759,2.759-4.995,0-4.995z"/>
</g>
<g transform="translate(1088.6661,539.4286)">
	<circle fill="#8C99C9" fill-opacity="0.6" cx="0" cy="0" r="4.665"/>
</g>
<g transform="translate(1088.6661,539.4286)">
	<path d="M0-4.335c2.394,0,4.335,1.94,4.335,4.335l0,0c0,2.395-1.941,4.335-4.335,4.335c-2.395,0-4.335-1.94-4.335-4.335
		S-2.394-4.335,0-4.335z M0-4.995c-2.759,0-4.995,2.236-4.995,4.995S-2.758,4.994,0,4.994c2.758,0,4.994-2.235,4.994-4.994l0,0
		C4.995-2.759,2.758-4.995,0-4.995z"/>
</g>
<g transform="translate(1091.6726,539.4286)">
	<circle fill="#8C99C9" fill-opacity="0.6" cx="0" cy="0" r="4.665"/>
</g>
<g transform="translate(1091.6726,539.4286)">
	<path d="M0-4.335c2.395,0,4.335,1.94,4.335,4.335l0,0c0,2.395-1.94,4.335-4.335,4.335c-2.394,0-4.335-1.94-4.335-4.335
		S-2.394-4.335,0-4.335z M0-4.995c-2.759,0-4.994,2.236-4.994,4.995S-2.759,4.994,0,4.994S4.995,2.759,4.995,0l0,0
		C4.995-2.759,2.759-4.995,0-4.995z"/>
</g>
<g transform="translate(1101.8824,539.4286)">
	<circle fill="#8C99C9" fill-opacity="0.6" cx="0" cy="0" r="4.665"/>
</g>
<g transform="translate(1101.8824,539.4286)">
	<path d="M0-4.335c2.395,0,4.335,1.94,4.335,4.335l0,0c0,2.395-1.94,4.335-4.335,4.335S-4.335,2.395-4.335,0S-2.395-4.335,0-4.335z
		 M0-4.995c-2.759,0-4.994,2.236-4.994,4.995S-2.759,4.994,0,4.994S4.995,2.759,4.995,0l0,0C4.995-2.759,2.759-4.995,0-4.995z"/>
</g>
<g transform="translate(1087.4353,539.4286)">
	<circle fill="#8C99C9" fill-opacity="0.6" cx="0" cy="0" r="4.665"/>
</g>
<g transform="translate(1087.4353,539.4286)">
	<path d="M0-4.335c2.395,0,4.335,1.94,4.335,4.335l0,0c0,2.395-1.94,4.335-4.335,4.335c-2.394,0-4.335-1.94-4.335-4.335
		S-2.394-4.335,0-4.335z M0-4.995c-2.758,0-4.994,2.236-4.994,4.995S-2.758,4.994,0,4.994c2.759,0,4.995-2.235,4.995-4.994l0,0
		C4.995-2.759,2.759-4.995,0-4.995z"/>
</g>
<g transform="translate(1093.6844,539.4286)">
	<circle fill="#8C99C9" fill-opacity="0.6" cx="0" cy="0" r="4.665"/>
</g>
<g transform="translate(1093.6844,539.4286)">
	<path d="M0-4.335c2.395,0,4.335,1.94,4.335,4.335l0,0c0,2.395-1.94,4.335-4.335,4.335c-2.394,0-4.335-1.94-4.335-4.335
		S-2.394-4.335,0-4.335z M0-4.995c-2.758,0-4.994,2.236-4.994,4.995S-2.758,4.994,0,4.994c2.759,0,4.995-2.235,4.995-4.994l0,0
		C4.995-2.759,2.759-4.995,0-4.995z"/>
</g>
<g transform="translate(1093.2059,539.4286)">
	<circle fill="#8C99C9" fill-opacity="0.6" cx="0" cy="0" r="4.665"/>
</g>
<g transform="translate(1093.2059,539.4286)">
	<path d="M0-4.335c2.395,0,4.335,1.94,4.335,4.335l0,0c0,2.395-1.94,4.335-4.335,4.335c-2.394,0-4.335-1.94-4.335-4.335
		S-2.394-4.335,0-4.335z M0-4.995c-2.758,0-4.994,2.236-4.994,4.995S-2.758,4.994,0,4.994c2.759,0,4.995-2.235,4.995-4.994l0,0
		C4.995-2.759,2.759-4.995,0-4.995z"/>
</g>
<g transform="translate(1092.1891,539.4286)">
	<circle fill="#8C99C9" fill-opacity="0.6" cx="0" cy="0" r="4.665"/>
</g>
<g transform="translate(1092.1891,539.4286)">
	<path d="M0-4.335c2.395,0,4.335,1.94,4.335,4.335l0,0c0,2.395-1.94,4.335-4.335,4.335S-4.335,2.395-4.335,0S-2.395-4.335,0-4.335z
		 M0-4.995c-2.759,0-4.994,2.236-4.994,4.995S-2.759,4.994,0,4.994S4.995,2.759,4.995,0l0,0C4.995-2.759,2.759-4.995,0-4.995z"/>
</g>
<g transform="translate(1089.6605,539.4286)">
	<circle fill="#8C99C9" fill-opacity="0.6" cx="0" cy="0" r="4.665"/>
</g>
<g transform="translate(1089.6605,539.4286)">
	<path d="M0-4.335c2.394,0,4.335,1.94,4.335,4.335l0,0c0,2.395-1.941,4.335-4.335,4.335c-2.395,0-4.335-1.94-4.335-4.335
		S-2.394-4.335,0-4.335z M0-4.995c-2.759,0-4.995,2.236-4.995,4.995S-2.759,4.994,0,4.994S4.995,2.759,4.995,0l0,0
		C4.995-2.759,2.759-4.995,0-4.995z"/>
</g>
<g transform="translate(1088.1021,539.4286)">
	<circle fill="#8C99C9" fill-opacity="0.6" cx="0" cy="0" r="4.665"/>
</g>
<g transform="translate(1088.1021,539.4286)">
	<path d="M0-4.335c2.395,0,4.335,1.94,4.335,4.335l0,0c0,2.395-1.94,4.335-4.335,4.335S-4.335,2.395-4.335,0S-2.394-4.335,0-4.335z
		 M0-4.995c-2.759,0-4.995,2.236-4.995,4.995S-2.759,4.994,0,4.994S4.995,2.759,4.995,0l0,0C4.995-2.759,2.759-4.995,0-4.995z"/>
</g>
<g transform="translate(1095.8604,539.4286)">
	<circle fill="#8C99C9" fill-opacity="0.6" cx="0.001" cy="0" r="4.665"/>
</g>
<g transform="translate(1095.8604,539.4286)">
	<path d="M0.001-4.335c2.394,0,4.335,1.94,4.335,4.335l0,0c0,2.395-1.941,4.335-4.335,4.335c-2.395,0-4.336-1.94-4.336-4.335
		S-2.394-4.335,0.001-4.335z M0.001-4.995c-2.759,0-4.995,2.236-4.995,4.995s2.236,4.994,4.995,4.994
		c2.758,0,4.994-2.235,4.994-4.994l0,0C4.995-2.759,2.758-4.995,0.001-4.995z"/>
</g>
<g transform="translate(1100.7572,539.4286)">
	<circle fill="#8C99C9" fill-opacity="0.6" cx="0" cy="0" r="4.665"/>
</g>
<g transform="translate(1100.7572,539.4286)">
	<path d="M0-4.335c2.395,0,4.335,1.94,4.335,4.335l0,0c0,2.395-1.94,4.335-4.335,4.335S-4.335,2.395-4.335,0S-2.394-4.335,0-4.335z
		 M0-4.995c-2.759,0-4.995,2.236-4.995,4.995S-2.759,4.994,0,4.994S4.994,2.759,4.994,0l0,0C4.994-2.759,2.759-4.995,0-4.995z"/>
</g>
<g transform="translate(1090.0967,539.4286)">
	<circle fill="#8C99C9" fill-opacity="0.6" cx="0.001" cy="0" r="4.665"/>
</g>
<g transform="translate(1090.0967,539.4286)">
	<path d="M0.001-4.335c2.394,0,4.335,1.94,4.335,4.335l0,0c0,2.395-1.941,4.335-4.335,4.335c-2.395,0-4.336-1.94-4.336-4.335
		S-2.394-4.335,0.001-4.335z M0.001-4.995c-2.759,0-4.995,2.236-4.995,4.995s2.236,4.994,4.995,4.994
		c2.758,0,4.994-2.235,4.994-4.994l0,0C4.995-2.759,2.758-4.995,0.001-4.995z"/>
</g>
<g transform="translate(1096.6957,539.4286)">
	<circle fill="#8C99C9" fill-opacity="0.6" cx="0" cy="0" r="4.665"/>
</g>
<g transform="translate(1096.6957,539.4286)">
	<path d="M0-4.335c2.394,0,4.335,1.94,4.335,4.335l0,0c0,2.395-1.941,4.335-4.335,4.335c-2.395,0-4.335-1.94-4.335-4.335
		S-2.394-4.335,0-4.335z M0-4.995c-2.759,0-4.995,2.236-4.995,4.995S-2.759,4.994,0,4.994S4.995,2.759,4.995,0l0,0
		C4.995-2.759,2.759-4.995,0-4.995z"/>
</g>
<g transform="translate(1088.3582,539.4286)">
	<circle fill="#8C99C9" fill-opacity="0.6" cx="0" cy="0" r="4.665"/>
</g>
<g transform="translate(1088.3582,539.4286)">
	<path d="M0-4.335c2.395,0,4.335,1.94,4.335,4.335l0,0c0,2.395-1.94,4.335-4.335,4.335c-2.394,0-4.335-1.94-4.335-4.335
		S-2.394-4.335,0-4.335z M0-4.995c-2.759,0-4.994,2.236-4.994,4.995S-2.759,4.994,0,4.994S4.995,2.759,4.995,0l0,0
		C4.995-2.759,2.759-4.995,0-4.995z"/>
</g>
<g transform="translate(1096.0433,539.4286)">
	<circle fill="#8C99C9" fill-opacity="0.6" cx="0" cy="0" r="4.665"/>
</g>
<g transform="translate(1096.0433,539.4286)">
	<path d="M0-4.335c2.394,0,4.335,1.94,4.335,4.335l0,0c0,2.395-1.941,4.335-4.335,4.335c-2.395,0-4.335-1.94-4.335-4.335
		S-2.394-4.335,0-4.335z M0-4.995c-2.759,0-4.995,2.236-4.995,4.995S-2.759,4.994,0,4.994S4.995,2.759,4.995,0l0,0
		C4.995-2.759,2.759-4.995,0-4.995z"/>
</g>
<g transform="translate(1088.5475,539.4286)">
	<circle fill="#8C99C9" fill-opacity="0.6" cx="0" cy="0" r="4.665"/>
</g>
<g transform="translate(1088.5475,539.4286)">
	<path d="M0-4.335c2.395,0,4.335,1.94,4.335,4.335l0,0c0,2.395-1.94,4.335-4.335,4.335c-2.394,0-4.335-1.94-4.335-4.335
		S-2.394-4.335,0-4.335z M0-4.995c-2.759,0-4.995,2.236-4.995,4.995S-2.759,4.994,0,4.994S4.995,2.759,4.995,0l0,0
		C4.995-2.759,2.759-4.995,0-4.995z"/>
</g>
<g transform="translate(1099.2485,539.4286)">
	<circle fill="#8C99C9" fill-opacity="0.6" cx="0" cy="0" r="4.665"/>
</g>
<g transform="translate(1099.2485,539.4286)">
	<path d="M0-4.335c2.395,0,4.335,1.94,4.335,4.335l0,0c0,2.395-1.94,4.335-4.335,4.335S-4.335,2.395-4.335,0S-2.394-4.335,0-4.335z
		 M0-4.995c-2.759,0-4.995,2.236-4.995,4.995S-2.759,4.994,0,4.994S4.995,2.759,4.995,0l0,0C4.995-2.759,2.759-4.995,0-4.995z"/>
</g>
<g transform="translate(1100.0204,539.4286)">
	<circle fill="#8C99C9" fill-opacity="0.6" cx="0" cy="0" r="4.665"/>
</g>
<g transform="translate(1100.0204,539.4286)">
	<path d="M0-4.335c2.395,0,4.335,1.94,4.335,4.335l0,0c0,2.395-1.94,4.335-4.335,4.335c-2.394,0-4.335-1.94-4.335-4.335
		S-2.394-4.335,0-4.335z M0-4.995c-2.758,0-4.994,2.236-4.994,4.995S-2.758,4.994,0,4.994c2.759,0,4.995-2.235,4.995-4.994l0,0
		C4.995-2.759,2.759-4.995,0-4.995z"/>
</g>
<g transform="translate(1087.6991,539.4286)">
	<circle fill="#8C99C9" fill-opacity="0.6" cx="0" cy="0" r="4.665"/>
</g>
<g transform="translate(1087.6991,539.4286)">
	<path d="M0-4.335c2.395,0,4.336,1.94,4.336,4.335l0,0c0,2.395-1.941,4.335-4.336,4.335c-2.394,0-4.335-1.94-4.335-4.335
		S-2.394-4.335,0-4.335z M0-4.995c-2.758,0-4.994,2.236-4.994,4.995S-2.758,4.994,0,4.994c2.759,0,4.995-2.235,4.995-4.994l0,0
		C4.995-2.759,2.759-4.995,0-4.995z"/>
</g>
<g transform="translate(1101.4232,539.4286)">
	<circle fill="#8C99C9" fill-opacity="0.6" cx="0" cy="0" r="4.665"/>
</g>
<g transform="translate(1101.4232,539.4286)">
	<path d="M0-4.335c2.395,0,4.335,1.94,4.335,4.335l0,0c0,2.395-1.94,4.335-4.335,4.335S-4.335,2.395-4.335,0S-2.394-4.335,0-4.335z
		 M0-4.995c-2.759,0-4.995,2.236-4.995,4.995S-2.759,4.994,0,4.994S4.994,2.759,4.994,0l0,0C4.994-2.759,2.759-4.995,0-4.995z"/>
</g>
<g transform="translate(1090.871,539.4286)">
	<circle fill="#8C99C9" fill-opacity="0.6" cx="0" cy="0" r="4.665"/>
</g>
<g transform="translate(1090.871,539.4286)">
	<path d="M0-4.335c2.395,0,4.336,1.94,4.336,4.335l0,0c0,2.395-1.941,4.335-4.336,4.335c-2.394,0-4.335-1.94-4.335-4.335
		S-2.394-4.335,0-4.335z M0-4.995c-2.758,0-4.994,2.236-4.994,4.995S-2.758,4.994,0,4.994c2.759,0,4.995-2.235,4.995-4.994l0,0
		C4.995-2.759,2.759-4.995,0-4.995z"/>
</g>
<g transform="translate(1090.0984,539.4286)">
	<circle fill="#8C99C9" fill-opacity="0.6" cx="0" cy="0" r="4.665"/>
</g>
<g transform="translate(1090.0984,539.4286)">
	<path d="M0-4.335c2.395,0,4.335,1.94,4.335,4.335l0,0c0,2.395-1.94,4.335-4.335,4.335c-2.394,0-4.335-1.94-4.335-4.335
		S-2.394-4.335,0-4.335z M0-4.995c-2.759,0-4.994,2.236-4.994,4.995S-2.759,4.994,0,4.994S4.995,2.759,4.995,0l0,0
		C4.995-2.759,2.759-4.995,0-4.995z"/>
</g>
<g transform="translate(1094.9686,539.4286)">
	<circle fill="#8C99C9" fill-opacity="0.6" cx="0" cy="0" r="4.665"/>
</g>
<g transform="translate(1094.9686,539.4286)">
	<path d="M0-4.335c2.395,0,4.336,1.94,4.336,4.335l0,0c0,2.395-1.941,4.335-4.336,4.335c-2.394,0-4.335-1.94-4.335-4.335
		S-2.394-4.335,0-4.335z M0-4.995c-2.758,0-4.994,2.236-4.994,4.995S-2.758,4.994,0,4.994c2.759,0,4.995-2.235,4.995-4.994l0,0
		C4.995-2.759,2.759-4.995,0-4.995z"/>
</g>
<g transform="translate(1095.91,539.4286)">
	<circle fill="#8C99C9" fill-opacity="0.6" cx="0" cy="0" r="4.665"/>
</g>
<g transform="translate(1095.91,539.4286)">
	<path d="M0-4.335c2.395,0,4.336,1.94,4.336,4.335l0,0c0,2.395-1.941,4.335-4.336,4.335c-2.394,0-4.335-1.94-4.335-4.335
		S-2.394-4.335,0-4.335z M0-4.995c-2.758,0-4.994,2.236-4.994,4.995S-2.758,4.994,0,4.994c2.759,0,4.995-2.235,4.995-4.994l0,0
		C4.995-2.759,2.759-4.995,0-4.995z"/>
	<path fill="none" stroke="#000000" stroke-width="0.6597" stroke-linecap="square" stroke-miterlimit="10" d="M-474.877,0
		L-474.877,0L-474.877,0h24.631l0,0l0,0l0,0H-474.877L-474.877,0"/>
	
		<line fill="none" stroke="#000000" stroke-width="2.6389" stroke-linejoin="round" stroke-miterlimit="10" x1="-474.877" y1="0" x2="-450.246" y2="0"/>
	
		<line fill="none" stroke="#000000" stroke-width="1.9792" stroke-linejoin="round" stroke-miterlimit="10" x1="-462.562" y1="0" x2="-462.562" y2="0"/>
	
		<line fill="none" stroke="#000000" stroke-width="1.9792" stroke-linejoin="round" stroke-miterlimit="10" x1="-462.562" y1="0" x2="-462.562" y2="0"/>
</g>
<g transform="translate(593.4521,539.4286)">
	<circle fill="#E6B34D" fill-opacity="0.6" cx="0.001" cy="0" r="4.665"/>
</g>
<g transform="translate(593.4521,539.4286)">
	<path d="M0.001-4.335c2.394,0,4.335,1.94,4.335,4.335l0,0c0,2.395-1.941,4.335-4.335,4.335c-2.395,0-4.336-1.94-4.336-4.335
		S-2.394-4.335,0.001-4.335z M0.001-4.995c-2.759,0-4.995,2.236-4.995,4.995s2.236,4.994,4.995,4.994
		c2.758,0,4.994-2.235,4.994-4.994l0,0C4.995-2.759,2.759-4.995,0.001-4.995z"/>
</g>
<g transform="translate(602.9869,539.4286)">
	<circle fill="#E6B34D" fill-opacity="0.6" cx="0" cy="0" r="4.665"/>
</g>
<g transform="translate(602.9869,539.4286)">
	<path d="M0-4.335c2.395,0,4.335,1.94,4.335,4.335l0,0c0,2.395-1.94,4.335-4.335,4.335S-4.335,2.395-4.335,0S-2.394-4.335,0-4.335z
		 M0-4.995c-2.759,0-4.995,2.236-4.995,4.995S-2.759,4.994,0,4.994S4.995,2.759,4.995,0l0,0C4.995-2.759,2.759-4.995,0-4.995z"/>
</g>
<g transform="translate(602.3104,539.4286)">
	<circle fill="#E6B34D" fill-opacity="0.6" cx="0" cy="0" r="4.665"/>
</g>
<g transform="translate(602.3104,539.4286)">
	<path d="M0-4.335c2.395,0,4.336,1.94,4.336,4.335l0,0c0,2.395-1.941,4.335-4.336,4.335c-2.394,0-4.335-1.94-4.335-4.335
		S-2.394-4.335,0-4.335z M0-4.995c-2.758,0-4.994,2.236-4.994,4.995S-2.758,4.994,0,4.994c2.759,0,4.995-2.235,4.995-4.994l0,0
		C4.995-2.759,2.759-4.995,0-4.995z"/>
</g>
<g transform="translate(606.9636,539.4286)">
	<circle fill="#E6B34D" fill-opacity="0.6" cx="0" cy="0" r="4.665"/>
</g>
<g transform="translate(606.9636,539.4286)">
	<path d="M0-4.335c2.395,0,4.335,1.94,4.335,4.335l0,0c0,2.395-1.94,4.335-4.335,4.335c-2.394,0-4.335-1.94-4.335-4.335
		S-2.394-4.335,0-4.335z M0-4.995c-2.759,0-4.994,2.236-4.994,4.995S-2.759,4.994,0,4.994S4.995,2.759,4.995,0l0,0
		C4.995-2.759,2.759-4.995,0-4.995z"/>
</g>
<g transform="translate(604.1848,539.4286)">
	<circle fill="#E6B34D" fill-opacity="0.6" cx="0" cy="0" r="4.665"/>
</g>
<g transform="translate(604.1848,539.4286)">
	<path d="M0-4.335c2.394,0,4.335,1.94,4.335,4.335l0,0c0,2.395-1.941,4.335-4.335,4.335c-2.395,0-4.335-1.94-4.335-4.335
		S-2.394-4.335,0-4.335z M0-4.995c-2.759,0-4.995,2.236-4.995,4.995S-2.758,4.994,0,4.994c2.758,0,4.994-2.235,4.994-4.994l0,0
		C4.995-2.759,2.758-4.995,0-4.995z"/>
</g>
<g transform="translate(604.3814,539.4286)">
	<circle fill="#E6B34D" fill-opacity="0.6" cx="0" cy="0" r="4.665"/>
</g>
<g transform="translate(604.3814,539.4286)">
	<path d="M0-4.335c2.395,0,4.335,1.94,4.335,4.335l0,0c0,2.395-1.94,4.335-4.335,4.335S-4.335,2.395-4.335,0S-2.395-4.335,0-4.335z
		 M0-4.995c-2.759,0-4.995,2.236-4.995,4.995S-2.759,4.994,0,4.994S4.995,2.759,4.995,0l0,0C4.995-2.759,2.759-4.995,0-4.995z"/>
</g>
<g transform="translate(594.8504,539.4286)">
	<circle fill="#E6B34D" fill-opacity="0.6" cx="0" cy="0" r="4.665"/>
</g>
<g transform="translate(594.8504,539.4286)">
	<path d="M0-4.335c2.395,0,4.335,1.94,4.335,4.335l0,0c0,2.395-1.94,4.335-4.335,4.335c-2.394,0-4.335-1.94-4.335-4.335
		S-2.394-4.335,0-4.335z M0-4.995c-2.759,0-4.994,2.236-4.994,4.995S-2.759,4.994,0,4.994S4.995,2.759,4.995,0l0,0
		C4.995-2.759,2.759-4.995,0-4.995z"/>
</g>
<g transform="translate(605.4822,539.4286)">
	<circle fill="#E6B34D" fill-opacity="0.6" cx="0" cy="0" r="4.665"/>
</g>
<g transform="translate(605.4822,539.4286)">
	<path d="M0-4.335c2.395,0,4.335,1.94,4.335,4.335l0,0c0,2.395-1.94,4.335-4.335,4.335c-2.394,0-4.335-1.94-4.335-4.335
		S-2.394-4.335,0-4.335z M0-4.995c-2.758,0-4.994,2.236-4.994,4.995S-2.758,4.994,0,4.994c2.759,0,4.995-2.235,4.995-4.994l0,0
		C4.995-2.759,2.759-4.995,0-4.995z"/>
</g>
<g transform="translate(604.437,539.4286)">
	<circle fill="#E6B34D" fill-opacity="0.6" cx="0" cy="0" r="4.665"/>
</g>
<g transform="translate(604.437,539.4286)">
	<path d="M0-4.335c2.395,0,4.335,1.94,4.335,4.335l0,0c0,2.395-1.94,4.335-4.335,4.335S-4.335,2.395-4.335,0S-2.395-4.335,0-4.335z
		 M0-4.995c-2.759,0-4.995,2.236-4.995,4.995S-2.759,4.994,0,4.994S4.995,2.759,4.995,0l0,0C4.995-2.759,2.759-4.995,0-4.995z"/>
</g>
<g transform="translate(602.8246,539.4286)">
	<circle fill="#E6B34D" fill-opacity="0.6" cx="0" cy="0" r="4.665"/>
</g>
<g transform="translate(602.8246,539.4286)">
	<path d="M0-4.335c2.394,0,4.335,1.94,4.335,4.335l0,0c0,2.395-1.941,4.335-4.335,4.335c-2.395,0-4.335-1.94-4.335-4.335
		S-2.394-4.335,0-4.335z M0-4.995c-2.759,0-4.995,2.236-4.995,4.995S-2.759,4.994,0,4.994S4.995,2.759,4.995,0l0,0
		C4.995-2.759,2.759-4.995,0-4.995z"/>
	<path fill="none" stroke="#000000" stroke-width="0.6597" stroke-linecap="square" stroke-miterlimit="10" d="M633.969,0L633.969,0
		L633.969,0h24.63l0,0l0,0l0,0H633.969L633.969,0"/>
	
		<line fill="none" stroke="#000000" stroke-width="2.6389" stroke-linejoin="round" stroke-miterlimit="10" x1="633.969" y1="0" x2="658.599" y2="0"/>
	
		<line fill="none" stroke="#000000" stroke-width="1.9792" stroke-linejoin="round" stroke-miterlimit="10" x1="646.284" y1="0" x2="646.284" y2="0"/>
	
		<line fill="none" stroke="#000000" stroke-width="1.9792" stroke-linejoin="round" stroke-miterlimit="10" x1="646.284" y1="0" x2="646.284" y2="0"/>
</g>
<g transform="translate(1213.6736,539.4286)">
	<circle fill="#E6B34D" fill-opacity="0.6" cx="0" cy="0" r="4.665"/>
</g>
<g transform="translate(1213.6736,539.4286)">
	<path d="M0-4.335c2.395,0,4.336,1.94,4.336,4.335l0,0c0,2.395-1.941,4.335-4.336,4.335S-4.335,2.395-4.335,0S-2.395-4.335,0-4.335z
		 M0-4.995c-2.758,0-4.994,2.236-4.994,4.995S-2.758,4.994,0,4.994c2.759,0,4.995-2.235,4.995-4.994l0,0
		C4.995-2.759,2.759-4.995,0-4.995z"/>
</g>
<g transform="translate(1222.9407,539.4286)">
	<circle fill="#E6B34D" fill-opacity="0.6" cx="0" cy="0" r="4.665"/>
</g>
<g transform="translate(1222.9407,539.4286)">
	<path d="M0-4.335c2.395,0,4.335,1.94,4.335,4.335l0,0c0,2.395-1.94,4.335-4.335,4.335S-4.336,2.395-4.336,0S-2.394-4.335,0-4.335z
		 M0-4.995c-2.759,0-4.995,2.236-4.995,4.995S-2.759,4.994,0,4.994c2.758,0,4.994-2.235,4.994-4.994l0,0
		C4.994-2.759,2.758-4.995,0-4.995z"/>
</g>
<g transform="translate(1210.9919,539.4286)">
	<circle fill="#E6B34D" fill-opacity="0.6" cx="0" cy="0" r="4.665"/>
</g>
<g transform="translate(1210.9919,539.4286)">
	<path d="M0-4.335c2.395,0,4.336,1.94,4.336,4.335l0,0c0,2.395-1.941,4.335-4.336,4.335S-4.335,2.395-4.335,0S-2.395-4.335,0-4.335z
		 M0-4.995c-2.758,0-4.994,2.236-4.994,4.995S-2.758,4.994,0,4.994c2.759,0,4.995-2.235,4.995-4.994l0,0
		C4.995-2.759,2.759-4.995,0-4.995z"/>
</g>
<g transform="translate(1223.9338,539.4286)">
	<circle fill="#E6B34D" fill-opacity="0.6" cx="0" cy="0" r="4.665"/>
</g>
<g transform="translate(1223.9338,539.4286)">
	<path d="M0-4.335c2.394,0,4.335,1.94,4.335,4.335l0,0c0,2.395-1.941,4.335-4.335,4.335c-2.395,0-4.335-1.94-4.335-4.335
		S-2.394-4.335,0-4.335z M0-4.995c-2.759,0-4.995,2.236-4.995,4.995S-2.759,4.994,0,4.994S4.995,2.759,4.995,0l0,0
		C4.995-2.759,2.759-4.995,0-4.995z"/>
</g>
<g transform="translate(1217.7174,539.4286)">
	<circle fill="#E6B34D" fill-opacity="0.6" cx="0" cy="0" r="4.665"/>
</g>
<g transform="translate(1217.7174,539.4286)">
	<path d="M0-4.335c2.395,0,4.335,1.94,4.335,4.335l0,0c0,2.395-1.94,4.335-4.335,4.335S-4.335,2.395-4.335,0S-2.395-4.335,0-4.335z
		 M0-4.995c-2.759,0-4.995,2.236-4.995,4.995S-2.759,4.994,0,4.994S4.995,2.759,4.995,0l0,0C4.995-2.759,2.759-4.995,0-4.995z"/>
</g>
<g transform="translate(1224.8002,539.4286)">
	<circle fill="#E6B34D" fill-opacity="0.6" cx="0" cy="0" r="4.665"/>
</g>
<g transform="translate(1224.8002,539.4286)">
	<path d="M0-4.335c2.395,0,4.335,1.94,4.335,4.335l0,0c0,2.395-1.94,4.335-4.335,4.335S-4.335,2.395-4.335,0S-2.394-4.335,0-4.335z
		 M0-4.995c-2.759,0-4.995,2.236-4.995,4.995S-2.759,4.994,0,4.994S4.995,2.759,4.995,0l0,0C4.995-2.759,2.759-4.995,0-4.995z"/>
</g>
<g transform="translate(1212.9314,539.4286)">
	<circle fill="#E6B34D" fill-opacity="0.6" cx="0" cy="0" r="4.665"/>
</g>
<g transform="translate(1212.9314,539.4286)">
	<path d="M0-4.335c2.395,0,4.336,1.94,4.336,4.335l0,0c0,2.395-1.941,4.335-4.336,4.335S-4.335,2.395-4.335,0S-2.395-4.335,0-4.335z
		 M0-4.995c-2.758,0-4.994,2.236-4.994,4.995S-2.758,4.994,0,4.994c2.759,0,4.995-2.235,4.995-4.994l0,0
		C4.995-2.759,2.759-4.995,0-4.995z"/>
</g>
<g transform="translate(1213.8043,539.4286)">
	<circle fill="#E6B34D" fill-opacity="0.6" cx="0" cy="0" r="4.665"/>
</g>
<g transform="translate(1213.8043,539.4286)">
	<path d="M0-4.335c2.395,0,4.335,1.94,4.335,4.335l0,0c0,2.395-1.94,4.335-4.335,4.335S-4.335,2.395-4.335,0S-2.395-4.335,0-4.335z
		 M0-4.995c-2.759,0-4.995,2.236-4.995,4.995S-2.759,4.994,0,4.994S4.995,2.759,4.995,0l0,0C4.995-2.759,2.759-4.995,0-4.995z"/>
</g>
<g transform="translate(1221.777,539.4286)">
	<circle fill="#E6B34D" fill-opacity="0.6" cx="0" cy="0" r="4.665"/>
</g>
<g transform="translate(1221.777,539.4286)">
	<path d="M0-4.335c2.395,0,4.335,1.94,4.335,4.335l0,0c0,2.395-1.94,4.335-4.335,4.335S-4.335,2.395-4.335,0S-2.395-4.335,0-4.335z
		 M0-4.995c-2.759,0-4.995,2.236-4.995,4.995S-2.759,4.994,0,4.994S4.995,2.759,4.995,0l0,0C4.995-2.759,2.759-4.995,0-4.995z"/>
</g>
<g transform="translate(1214.135,539.4286)">
	<circle fill="#E6B34D" fill-opacity="0.6" cx="0" cy="0" r="4.665"/>
</g>
<g transform="translate(1214.135,539.4286)">
	<path d="M0-4.335c2.394,0,4.335,1.94,4.335,4.335l0,0c0,2.395-1.941,4.335-4.335,4.335c-2.395,0-4.335-1.94-4.335-4.335
		S-2.394-4.335,0-4.335z M0-4.995c-2.759,0-4.995,2.236-4.995,4.995S-2.759,4.994,0,4.994S4.995,2.759,4.995,0l0,0
		C4.995-2.759,2.759-4.995,0-4.995z"/>
</g>
<g>
	<g>
		<path fill="#FFFFFF" d="M1323,148V59h-55v89H1323z"/>
	</g>
	<g transform="translate(1268.7152,71.4302)">
		<circle fill="#FA6659" fill-opacity="0.6" cx="11" cy="0" r="3.958"/>
	</g>
	<g transform="translate(1268.7152,92.8101)">
		<circle fill="#73CCB0" fill-opacity="0.6" cx="11" cy="0" r="3.958"/>
	</g>
	<g transform="translate(1268.7152,114.1899)">
		<path d="M11-3.628c2.004,0,3.628,1.625,3.628,3.628l0,0c0,2.004-1.624,3.628-3.628,3.628S7.372,2.004,7.372,0
			S8.996-3.628,11-3.628z M11-4.288c-2.368,0-4.288,1.92-4.288,4.288S8.632,4.288,11,4.288S15.288,2.368,15.288,0l0,0
			C15.288-2.368,13.368-4.288,11-4.288z"/>
	</g>
	<g transform="translate(1268.7152,135.5698)">
		<circle fill="#E6B34D" fill-opacity="0.6" cx="11" cy="0" r="3.958"/>
	</g>
	<g transform="translate(1279.444,71.4302)">
		<text transform="matrix(1 0 0 1 10.9999 5.5005)" font-family="'MyriadPro-Regular'" font-size="14.25">NR</text>
	</g>
	<g transform="translate(1268.7152,71.4302)">
		<path d="M11-3.628c2.004,0,3.628,1.625,3.628,3.628l0,0c0,2.004-1.624,3.628-3.628,3.628S7.372,2.004,7.372,0
			S8.996-3.628,11-3.628z M11-4.288c-2.368,0-4.288,1.92-4.288,4.288S8.632,4.288,11,4.288S15.288,2.368,15.288,0l0,0
			C15.288-2.368,13.368-4.288,11-4.288z"/>
	</g>
	<g transform="translate(1279.444,92.8101)">
		<text transform="matrix(1 0 0 1 10.9999 5.4995)" font-family="'MyriadPro-Regular'" font-size="14.25">HPC</text>
	</g>
	<g transform="translate(1268.7152,92.8101)">
		<path d="M11-3.628c2.004,0,3.628,1.625,3.628,3.628l0,0c0,2.004-1.624,3.628-3.628,3.628S7.372,2.004,7.372,0
			S8.996-3.628,11-3.628z M11-4.288c-2.368,0-4.288,1.92-4.288,4.288S8.632,4.288,11,4.288S15.288,2.368,15.288,0l0,0
			C15.288-2.368,13.368-4.288,11-4.288z"/>
	</g>
	<g transform="translate(1279.444,114.1899)">
		<text transform="matrix(1 0 0 1 10.9999 5.5005)" font-family="'MyriadPro-Regular'" font-size="14.25">PFC</text>
	</g>
	<g transform="translate(1268.7152,114.1899)">
		<circle fill="#8C99C9" fill-opacity="0.6" cx="11" cy="0" r="3.958"/>
	</g>
	<g transform="translate(1279.444,135.5698)">
		<text transform="matrix(1 0 0 1 10.9999 5.4995)" font-family="'MyriadPro-Regular'" font-size="14.25">Th</text>
	</g>
	<g transform="translate(1268.7152,135.5698)">
		<path d="M11-3.628c2.004,0,3.628,1.625,3.628,3.628l0,0c0,2.004-1.624,3.628-3.628,3.628S7.372,2.004,7.372,0
			S8.996-3.628,11-3.628z M11-4.288c-2.368,0-4.288,1.92-4.288,4.288S8.632,4.288,11,4.288S15.288,2.368,15.288,0l0,0
			C15.288-2.368,13.368-4.288,11-4.288z"/>
	</g>
	<g>
		<path fill="none" stroke="#262626" stroke-width="2.2431" stroke-miterlimit="10" d="M1268,148V59h55v89H1268z"/>
	</g>
</g>
<line fill="none" stroke="#000000" stroke-width="1.9792" stroke-linejoin="round" stroke-miterlimit="10" x1="262.417" y1="141.994" x2="386" y2="141.994"/>
<g transform="translate(441.7778,128.8029)">
	<text transform="matrix(1 0 0 1 -129.0684 14.9999)" font-family="'MyriadPro-Regular'" font-size="18.4722">***</text>
</g>
<g transform="translate(441.7778,115.4538)">
	<text transform="matrix(1 0 0 1 -141.3721 13.5002)" font-family="'MyriadPro-Regular'" font-size="13.1944">6.50e-26</text>
</g>
<g>
	
		<line fill="none" stroke="#000000" stroke-width="1.9792" stroke-linejoin="round" stroke-miterlimit="10" x1="262.416" y1="112.33" x2="509.999" y2="112.33"/>
</g>
<g transform="translate(599.1389,99.1382)">
	<text transform="matrix(1 0 0 1 -224.4294 14.9995)" font-family="'MyriadPro-Regular'" font-size="18.4722">***</text>
</g>
<g transform="translate(599.1389,85.789)">
	<text transform="matrix(1 0 0 1 -236.7332 13.5)" font-family="'MyriadPro-Regular'" font-size="13.1944">1.05e-26</text>
</g>
<g>
	
		<line fill="none" stroke="#000000" stroke-width="1.9792" stroke-linejoin="round" stroke-miterlimit="10" x1="262.417" y1="82.665" x2="632.833" y2="82.665"/>
</g>
<g transform="translate(756.5,69.4734)">
	<text transform="matrix(1 0 0 1 -320.374 15.0002)" font-family="'MyriadPro-Regular'" font-size="18.4722">***</text>
</g>
<g transform="translate(756.5,56.1243)">
	<text transform="matrix(1 0 0 1 -332.6772 13.4998)" font-family="'MyriadPro-Regular'" font-size="13.1944">1.49e-18</text>
</g>
<line fill="none" stroke="#000000" stroke-width="1.9792" stroke-linejoin="round" stroke-miterlimit="10" x1="882.75" y1="112.33" x2="1123.503" y2="112.33"/>
<g>
	<g transform="translate(599.1389,99.1382)">
		<text transform="matrix(1 0 0 1 392.4895 14.9995)" font-family="'MyriadPro-Regular'" font-size="18.4722">***</text>
	</g>
	<g transform="translate(599.1389,85.789)">
		<text transform="matrix(1 0 0 1 380.1858 13.5)" font-family="'MyriadPro-Regular'" font-size="13.1944">5.93e-05</text>
	</g>
</g>
<g>
	
		<line fill="none" stroke="#000000" stroke-width="1.9792" stroke-linejoin="round" stroke-miterlimit="10" x1="882.747" y1="82.665" x2="1248.834" y2="82.669"/>
</g>
<g>
	<g transform="translate(756.5,69.4734)">
		<text transform="matrix(1 0 0 1 301.6245 15.0002)" font-family="'MyriadPro-Regular'" font-size="18.4722">**</text>
	</g>
	<g transform="translate(756.5,56.1243)">
		<text transform="matrix(1 0 0 1 285.4888 13.4998)" font-family="'MyriadPro-Regular'" font-size="13.1944">6.64e-03</text>
	</g>
</g>
</svg>
