<?xml version="1.0" encoding="utf-8"?>
<!-- Generator: Adobe Illustrator 16.0.0, SVG Export Plug-In . SVG Version: 6.00 Build 0)  -->
<!DOCTYPE svg PUBLIC "-//W3C//DTD SVG 1.1//EN" "http://www.w3.org/Graphics/SVG/1.1/DTD/svg11.dtd">
<svg version="1.1" id="Layer_1" xmlns="http://www.w3.org/2000/svg" xmlns:xlink="http://www.w3.org/1999/xlink" x="0px" y="0px"
	 width="1462px" height="678px" viewBox="0 0 1462 678" enable-background="new 0 0 1462 678" xml:space="preserve">
<line fill="none" stroke="#000000" stroke-width="2.2431" stroke-linecap="square" stroke-linejoin="round" stroke-miterlimit="10" x1="190" y1="603" x2="1323" y2="603"/>
<line fill="none" stroke="#000000" stroke-width="2.2431" stroke-linecap="square" stroke-linejoin="round" stroke-miterlimit="10" x1="284.417" y1="603" x2="284.417" y2="614.33"/>
<line fill="none" stroke="#000000" stroke-width="2.2431" stroke-linecap="square" stroke-linejoin="round" stroke-miterlimit="10" x1="599.139" y1="603" x2="599.139" y2="614.33"/>
<line fill="none" stroke="#000000" stroke-width="2.2431" stroke-linecap="square" stroke-linejoin="round" stroke-miterlimit="10" x1="913.861" y1="603" x2="913.861" y2="614.33"/>
<line fill="none" stroke="#000000" stroke-width="2.2431" stroke-linecap="square" stroke-linejoin="round" stroke-miterlimit="10" x1="1228.584" y1="603" x2="1228.584" y2="614.33"/>
<text transform="matrix(1 0 0 1 273.4167 637.1357)" font-family="'MyriadPro-Regular'" font-size="15.8333">NR</text>
<text transform="matrix(1 0 0 1 583.1394 637.1357)" font-family="'MyriadPro-Regular'" font-size="15.8333">HPC</text>
<text transform="matrix(1 0 0 1 899.8611 637.1357)" font-family="'MyriadPro-Regular'" font-size="15.8333">PFC</text>
<text transform="matrix(1 0 0 1 1219.0837 637.1357)" font-family="'MyriadPro-Regular'" font-size="15.8333">Th</text>
<line fill="none" stroke="#000000" stroke-width="2.2431" stroke-linecap="square" stroke-linejoin="round" stroke-miterlimit="10" x1="190" y1="603" x2="190" y2="51"/>
<line fill="none" stroke="#000000" stroke-width="2.2431" stroke-linecap="square" stroke-linejoin="round" stroke-miterlimit="10" x1="190" y1="583.229" x2="178.67" y2="583.229"/>
<line fill="none" stroke="#000000" stroke-width="2.2431" stroke-linecap="square" stroke-linejoin="round" stroke-miterlimit="10" x1="190" y1="504.146" x2="178.67" y2="504.146"/>
<line fill="none" stroke="#000000" stroke-width="2.2431" stroke-linecap="square" stroke-linejoin="round" stroke-miterlimit="10" x1="190" y1="425.063" x2="178.67" y2="425.063"/>
<line fill="none" stroke="#000000" stroke-width="2.2431" stroke-linecap="square" stroke-linejoin="round" stroke-miterlimit="10" x1="190" y1="345.98" x2="178.67" y2="345.98"/>
<line fill="none" stroke="#000000" stroke-width="2.2431" stroke-linecap="square" stroke-linejoin="round" stroke-miterlimit="10" x1="190" y1="266.897" x2="178.67" y2="266.897"/>
<line fill="none" stroke="#000000" stroke-width="2.2431" stroke-linecap="square" stroke-linejoin="round" stroke-miterlimit="10" x1="190" y1="187.814" x2="178.67" y2="187.814"/>
<line fill="none" stroke="#000000" stroke-width="2.2431" stroke-linecap="square" stroke-linejoin="round" stroke-miterlimit="10" x1="190" y1="108.73" x2="178.67" y2="108.73"/>
<text transform="matrix(1 0 0 1 162.8645 589.2295)" font-family="'MyriadPro-Regular'" font-size="15.8333">0</text>
<text transform="matrix(1 0 0 1 153.8645 510.1465)" font-family="'MyriadPro-Regular'" font-size="15.8333">20</text>
<text transform="matrix(1 0 0 1 153.8645 431.0635)" font-family="'MyriadPro-Regular'" font-size="15.8333">40</text>
<text transform="matrix(1 0 0 1 153.8645 351.9795)" font-family="'MyriadPro-Regular'" font-size="15.8333">60</text>
<text transform="matrix(1 0 0 1 153.8645 272.8975)" font-family="'MyriadPro-Regular'" font-size="15.8333">80</text>
<text transform="matrix(1 0 0 1 144.8645 193.8135)" font-family="'MyriadPro-Regular'" font-size="15.8333">100</text>
<text transform="matrix(1 0 0 1 144.8645 114.7305)" font-family="'MyriadPro-Regular'" font-size="15.8333">120</text>
<text transform="matrix(6.123234e-017 -1 1 6.123234e-017 134.906 447.5)" font-family="'MyriadPro-Regular'" font-size="19">Percentage of slow rhythm</text>
<text transform="matrix(1 0 0 1 468.5007 40.1006)" font-family="'MyriadPro-Regular'" font-size="20.5833">Percentage of slow rhythm in sleep across different regions</text>
<path fill="#BE95FF" d="M268.68,363.258v105.193h31.473V363.258H268.68z"/>
<path fill="none" stroke="#000000" stroke-width="0.6597" stroke-linecap="square" stroke-miterlimit="10" d="M268.68,363.258
	v105.193V363.258h31.473l0,0v105.193l0,0H268.68V363.258"/>
<line fill="none" stroke="#000000" stroke-width="2.6389" stroke-linejoin="round" stroke-miterlimit="10" x1="268.68" y1="383.428" x2="300.153" y2="383.428"/>
<line fill="none" stroke="#000000" stroke-width="1.9792" stroke-linejoin="round" stroke-miterlimit="10" x1="284.417" y1="583.229" x2="284.417" y2="468.451"/>
<line fill="none" stroke="#000000" stroke-width="1.9792" stroke-linejoin="round" stroke-miterlimit="10" x1="284.417" y1="321.263" x2="284.417" y2="363.258"/>
<circle fill="#BE95FF" fill-opacity="0.6" cx="233.839" cy="365.911" r="4.665"/>
<path d="M233.839,361.576c2.395,0,4.335,1.941,4.335,4.335l0,0c0,2.394-1.94,4.335-4.335,4.335s-4.335-1.941-4.335-4.335
	S231.444,361.576,233.839,361.576z M233.839,360.916c-2.759,0-4.995,2.236-4.995,4.995s2.236,4.995,4.995,4.995
	s4.995-2.236,4.995-4.995l0,0C238.834,363.152,236.597,360.916,233.839,360.916z"/>
<circle fill="#BE95FF" fill-opacity="0.6" cx="233.79" cy="438.696" r="4.665"/>
<path d="M233.79,434.361c2.395,0,4.335,1.94,4.335,4.335l0,0c0,2.394-1.94,4.335-4.335,4.335c-2.394,0-4.335-1.941-4.335-4.335
	C229.455,436.302,231.396,434.361,233.79,434.361z M233.79,433.701c-2.758,0-4.994,2.236-4.994,4.995
	c0,2.758,2.236,4.994,4.994,4.994c2.759,0,4.995-2.236,4.995-4.994l0,0C238.785,435.938,236.549,433.701,233.79,433.701z"/>
<circle fill="#BE95FF" fill-opacity="0.6" cx="236.982" cy="472.221" r="4.665"/>
<path d="M236.982,467.886c2.394,0,4.335,1.941,4.335,4.335l0,0c0,2.395-1.941,4.335-4.335,4.335c-2.395,0-4.335-1.94-4.335-4.335
	C232.647,469.827,234.588,467.886,236.982,467.886z M236.982,467.227c-2.759,0-4.995,2.235-4.995,4.994s2.236,4.995,4.995,4.995
	s4.994-2.236,4.994-4.995l0,0C241.976,469.462,239.741,467.227,236.982,467.227z"/>
<circle fill="#BE95FF" fill-opacity="0.6" cx="242.677" cy="383.428" r="4.665"/>
<path d="M242.677,379.093c2.395,0,4.335,1.94,4.335,4.335l0,0c0,2.395-1.94,4.335-4.335,4.335s-4.335-1.94-4.335-4.335
	S240.282,379.093,242.677,379.093z M242.677,378.433c-2.759,0-4.995,2.236-4.995,4.995c0,2.758,2.236,4.994,4.995,4.994
	s4.995-2.236,4.995-4.994l0,0C247.672,380.669,245.435,378.433,242.677,378.433z"/>
<circle fill="#BE95FF" fill-opacity="0.6" cx="233.588" cy="359.104" r="4.665"/>
<path d="M233.588,354.77c2.394,0,4.335,1.941,4.335,4.336l0,0c0,2.394-1.941,4.334-4.335,4.334c-2.395,0-4.335-1.94-4.335-4.334
	C229.253,356.711,231.193,354.77,233.588,354.77z M233.588,354.11c-2.759,0-4.995,2.235-4.995,4.995
	c0,2.758,2.236,4.994,4.995,4.994c2.758,0,4.994-2.236,4.994-4.994l0,0C238.582,356.346,236.345,354.11,233.588,354.11z"/>
<circle fill="#BE95FF" fill-opacity="0.6" cx="241.087" cy="509.354" r="4.665"/>
<path d="M241.087,505.02c2.394,0,4.335,1.94,4.335,4.335l0,0c0,2.394-1.941,4.335-4.335,4.335c-2.395,0-4.335-1.941-4.335-4.335
	C236.752,506.96,238.692,505.02,241.087,505.02z M241.087,504.359c-2.759,0-4.995,2.236-4.995,4.995
	c0,2.758,2.236,4.994,4.995,4.994c2.758,0,4.994-2.236,4.994-4.994l0,0C246.081,506.596,243.844,504.359,241.087,504.359z"/>
<circle fill="#BE95FF" fill-opacity="0.6" cx="236.96" cy="321.262" r="4.665"/>
<path d="M236.96,316.927c2.394,0,4.335,1.941,4.335,4.335l0,0c0,2.394-1.941,4.335-4.335,4.335c-2.395,0-4.335-1.941-4.335-4.335
	C232.625,318.868,234.565,316.927,236.96,316.927z M236.96,316.268c-2.759,0-4.995,2.236-4.995,4.995
	c0,2.758,2.236,4.995,4.995,4.995c2.758,0,4.994-2.236,4.994-4.995l0,0C241.954,318.504,239.718,316.268,236.96,316.268z"/>
<circle fill="#BE95FF" fill-opacity="0.6" cx="234.661" cy="325.223" r="4.665"/>
<path d="M234.661,320.888c2.395,0,4.336,1.941,4.336,4.335l0,0c0,2.395-1.941,4.335-4.336,4.335c-2.394,0-4.335-1.941-4.335-4.335
	C230.326,322.829,232.267,320.888,234.661,320.888z M234.661,320.228c-2.758,0-4.994,2.236-4.994,4.995
	c0,2.759,2.236,4.995,4.994,4.995c2.759,0,4.995-2.236,4.995-4.995l0,0C239.656,322.464,237.42,320.228,234.661,320.228z"/>
<circle fill="#BE95FF" fill-opacity="0.6" cx="246.659" cy="370.343" r="4.665"/>
<path d="M246.659,366.008c2.395,0,4.335,1.94,4.335,4.334l0,0c0,2.395-1.94,4.336-4.335,4.336s-4.335-1.941-4.335-4.336
	C242.324,367.948,244.264,366.008,246.659,366.008z M246.659,365.348c-2.759,0-4.995,2.236-4.995,4.994
	c0,2.759,2.236,4.995,4.995,4.995s4.995-2.236,4.995-4.995l0,0C251.654,367.584,249.418,365.348,246.659,365.348z"/>
<circle fill="#BE95FF" fill-opacity="0.6" cx="251.219" cy="351.474" r="4.665"/>
<path d="M251.219,347.139c2.395,0,4.336,1.941,4.336,4.335l0,0c0,2.394-1.941,4.335-4.336,4.335c-2.394,0-4.335-1.941-4.335-4.335
	S248.826,347.139,251.219,347.139z M251.219,346.479c-2.758,0-4.994,2.236-4.994,4.995s2.236,4.995,4.994,4.995
	c2.759,0,4.995-2.236,4.995-4.995l0,0C256.215,348.715,253.978,346.479,251.219,346.479z"/>
<circle fill="#BE95FF" fill-opacity="0.6" cx="243.587" cy="506.112" r="4.665"/>
<path d="M243.587,501.776c2.395,0,4.336,1.941,4.336,4.336l0,0c0,2.394-1.941,4.335-4.336,4.335c-2.394,0-4.335-1.941-4.335-4.335
	C239.252,503.718,241.193,501.776,243.587,501.776z M243.587,501.117c-2.758,0-4.994,2.236-4.994,4.995
	c0,2.758,2.236,4.994,4.994,4.994c2.759,0,4.995-2.236,4.995-4.994l0,0C248.582,503.354,246.345,501.117,243.587,501.117z"/>
<circle fill="#BE95FF" fill-opacity="0.6" cx="236.978" cy="505.195" r="4.665"/>
<path d="M236.978,500.86c2.395,0,4.335,1.941,4.335,4.335l0,0c0,2.395-1.94,4.335-4.335,4.335c-2.394,0-4.335-1.94-4.335-4.335
	C232.643,502.802,234.585,500.86,236.978,500.86z M236.978,500.201c-2.758,0-4.994,2.235-4.994,4.994s2.236,4.995,4.994,4.995
	c2.759,0,4.995-2.236,4.995-4.995l0,0C241.973,502.437,239.737,500.201,236.978,500.201z"/>
<circle fill="#BE95FF" fill-opacity="0.6" cx="240.77" cy="398.469" r="4.665"/>
<path d="M240.77,394.134c2.395,0,4.335,1.94,4.335,4.335l0,0c0,2.395-1.94,4.335-4.335,4.335s-4.335-1.94-4.335-4.335
	S238.376,394.134,240.77,394.134z M240.77,393.474c-2.759,0-4.995,2.236-4.995,4.995c0,2.758,2.236,4.994,4.995,4.994
	s4.995-2.236,4.995-4.994l0,0C245.765,395.71,243.529,393.474,240.77,393.474z"/>
<circle fill="#BE95FF" fill-opacity="0.6" cx="242.51" cy="583.229" r="4.665"/>
<path d="M242.51,578.895c2.395,0,4.335,1.94,4.335,4.335l0,0c0,2.394-1.94,4.335-4.335,4.335s-4.335-1.941-4.335-4.335
	C238.175,580.835,240.115,578.895,242.51,578.895z M242.51,578.234c-2.759,0-4.995,2.236-4.995,4.995
	c0,2.758,2.236,4.994,4.995,4.994s4.995-2.236,4.995-4.994l0,0C247.505,580.471,245.268,578.234,242.51,578.234z"/>
<circle fill="#BE95FF" fill-opacity="0.6" cx="248.52" cy="368.079" r="4.665"/>
<path d="M248.52,363.744c2.395,0,4.335,1.94,4.335,4.334l0,0c0,2.395-1.94,4.336-4.335,4.336s-4.335-1.941-4.335-4.336
	C244.185,365.685,246.126,363.744,248.52,363.744z M248.52,363.084c-2.759,0-4.995,2.236-4.995,4.994
	c0,2.759,2.236,4.995,4.995,4.995s4.995-2.236,4.995-4.995l0,0C253.515,365.32,251.279,363.084,248.52,363.084z"/>
<circle fill="#BE95FF" fill-opacity="0.6" cx="249.277" cy="457.144" r="4.665"/>
<path d="M249.277,452.809c2.395,0,4.335,1.94,4.335,4.335l0,0c0,2.394-1.94,4.335-4.335,4.335s-4.335-1.941-4.335-4.335
	C244.942,454.749,246.883,452.809,249.277,452.809z M249.277,452.148c-2.759,0-4.995,2.236-4.995,4.995
	c0,2.758,2.236,4.994,4.995,4.994s4.995-2.236,4.995-4.994l0,0C254.272,454.385,252.036,452.148,249.277,452.148z"/>
<circle fill="#BE95FF" fill-opacity="0.6" cx="244.125" cy="478.692" r="4.665"/>
<path d="M244.125,474.357c2.395,0,4.335,1.94,4.335,4.335l0,0c0,2.395-1.94,4.335-4.335,4.335c-2.394,0-4.335-1.94-4.335-4.335
	S241.731,474.357,244.125,474.357z M244.125,473.697c-2.758,0-4.994,2.236-4.994,4.995s2.236,4.995,4.994,4.995
	c2.759,0,4.995-2.236,4.995-4.995l0,0C249.12,475.934,246.884,473.697,244.125,473.697z"/>
<circle fill="#BE95FF" fill-opacity="0.6" cx="240.022" cy="376.546" r="4.665"/>
<path d="M240.022,372.211c2.394,0,4.335,1.94,4.335,4.334l0,0c0,2.395-1.941,4.336-4.335,4.336c-2.395,0-4.335-1.941-4.335-4.336
	C235.687,374.151,237.628,372.211,240.022,372.211z M240.022,371.551c-2.759,0-4.995,2.236-4.995,4.994
	c0,2.76,2.236,4.995,4.995,4.995s4.994-2.235,4.994-4.995l0,0C245.016,373.787,242.781,371.551,240.022,371.551z"/>
<circle fill="#BE95FF" fill-opacity="0.6" cx="236.153" cy="439.036" r="4.665"/>
<path d="M236.153,434.7c2.394,0,4.335,1.941,4.335,4.336l0,0c0,2.394-1.941,4.335-4.335,4.335c-2.395,0-4.335-1.941-4.335-4.335
	C231.818,436.642,233.759,434.7,236.153,434.7z M236.153,434.041c-2.759,0-4.995,2.236-4.995,4.995c0,2.758,2.236,4.994,4.995,4.994
	c2.758,0,4.994-2.236,4.994-4.994l0,0C241.147,436.277,238.911,434.041,236.153,434.041z"/>
<circle fill="#BE95FF" fill-opacity="0.6" cx="237.696" cy="366.483" r="4.665"/>
<path d="M237.696,362.148c2.395,0,4.335,1.94,4.335,4.335l0,0c0,2.394-1.94,4.335-4.335,4.335c-2.394,0-4.335-1.941-4.335-4.335
	C233.361,364.089,235.302,362.148,237.696,362.148z M237.696,361.488c-2.758,0-4.994,2.236-4.994,4.995s2.236,4.995,4.994,4.995
	c2.759,0,4.995-2.236,4.995-4.995l0,0C242.691,363.725,240.455,361.488,237.696,361.488z"/>
<circle fill="#BE95FF" fill-opacity="0.6" cx="234.921" cy="557.161" r="4.665"/>
<path d="M234.921,552.826c2.395,0,4.335,1.94,4.335,4.335l0,0c0,2.395-1.94,4.335-4.335,4.335s-4.335-1.94-4.335-4.335
	S232.526,552.826,234.921,552.826z M234.921,552.166c-2.759,0-4.995,2.236-4.995,4.995s2.236,4.994,4.995,4.994
	s4.995-2.235,4.995-4.994l0,0C239.916,554.402,237.679,552.166,234.921,552.166z"/>
<circle fill="#BE95FF" fill-opacity="0.6" cx="234.921" cy="373.917" r="4.665"/>
<path d="M234.921,369.581c2.395,0,4.336,1.94,4.336,4.335l0,0c0,2.395-1.941,4.336-4.336,4.336c-2.394,0-4.335-1.941-4.335-4.336
	S232.527,369.581,234.921,369.581z M234.921,368.922c-2.758,0-4.994,2.236-4.994,4.994c0,2.759,2.236,4.995,4.994,4.995
	c2.759,0,4.995-2.236,4.995-4.995l0,0C239.916,371.158,237.679,368.922,234.921,368.922z"/>
<circle fill="#BE95FF" fill-opacity="0.6" cx="242.507" cy="395.677" r="4.665"/>
<path d="M242.507,391.342c2.395,0,4.336,1.941,4.336,4.336l0,0c0,2.395-1.941,4.335-4.336,4.335c-2.394,0-4.335-1.94-4.335-4.335
	S240.113,391.342,242.507,391.342z M242.507,390.683c-2.758,0-4.994,2.236-4.994,4.995c0,2.758,2.236,4.994,4.994,4.994
	c2.759,0,4.995-2.236,4.995-4.994l0,0C247.502,392.919,245.265,390.683,242.507,390.683z"/>
<circle fill="#BE95FF" fill-opacity="0.6" cx="251.94" cy="357.602" r="4.665"/>
<path d="M251.94,353.267c2.394,0,4.335,1.94,4.335,4.335l0,0c0,2.395-1.941,4.335-4.335,4.335c-2.395,0-4.335-1.94-4.335-4.335
	S249.546,353.267,251.94,353.267z M251.94,352.607c-2.759,0-4.995,2.236-4.995,4.994c0,2.759,2.236,4.995,4.995,4.995
	s4.994-2.236,4.994-4.995l0,0C256.934,354.844,254.699,352.607,251.94,352.607z"/>
<circle fill="#BE95FF" fill-opacity="0.6" cx="252.565" cy="347.388" r="4.665"/>
<path d="M252.565,343.053c2.395,0,4.335,1.941,4.335,4.335l0,0c0,2.394-1.94,4.335-4.335,4.335c-2.394,0-4.335-1.941-4.335-4.335
	S250.172,343.053,252.565,343.053z M252.565,342.393c-2.759,0-4.994,2.236-4.994,4.995s2.235,4.995,4.994,4.995
	s4.995-2.236,4.995-4.995l0,0C257.56,344.629,255.324,342.393,252.565,342.393z"/>
<circle fill="#BE95FF" fill-opacity="0.6" cx="243.807" cy="397.026" r="4.665"/>
<path d="M243.807,392.69c2.395,0,4.336,1.94,4.336,4.335l0,0c0,2.395-1.941,4.336-4.336,4.336c-2.394,0-4.335-1.941-4.335-4.336
	S241.414,392.69,243.807,392.69z M243.807,392.031c-2.758,0-4.994,2.236-4.994,4.994c0,2.759,2.236,4.995,4.994,4.995
	c2.759,0,4.995-2.236,4.995-4.995l0,0C248.802,394.268,246.566,392.031,243.807,392.031z"/>
<circle fill="#BE95FF" fill-opacity="0.6" cx="240.542" cy="362.374" r="4.665"/>
<path d="M240.542,358.039c2.395,0,4.335,1.941,4.335,4.335l0,0c0,2.395-1.94,4.335-4.335,4.335s-4.335-1.94-4.335-4.335
	C236.207,359.98,238.147,358.039,240.542,358.039z M240.542,357.379c-2.759,0-4.995,2.236-4.995,4.995s2.236,4.995,4.995,4.995
	s4.995-2.236,4.995-4.995l0,0C245.537,359.615,243.301,357.379,240.542,357.379z"/>
<path fill="none" stroke="#000000" stroke-width="0.6597" stroke-linecap="square" stroke-miterlimit="10" d="M583.403,583.229
	L583.403,583.229L583.403,583.229h31.472l0,0l0,0l0,0H583.403L583.403,583.229"/>
<line fill="none" stroke="#000000" stroke-width="2.6389" stroke-linejoin="round" stroke-miterlimit="10" x1="583.403" y1="583.229" x2="614.875" y2="583.229"/>
<line fill="none" stroke="#000000" stroke-width="1.9792" stroke-linejoin="round" stroke-miterlimit="10" x1="599.139" y1="583.229" x2="599.139" y2="583.229"/>
<line fill="none" stroke="#000000" stroke-width="1.9792" stroke-linejoin="round" stroke-miterlimit="10" x1="599.139" y1="583.229" x2="599.139" y2="583.229"/>
<path fill="none" stroke="#000000" stroke-width="0.6597" stroke-miterlimit="10" d="M568.627,425.199v10 M563.627,430.199h10
	 M565.328,426.901l6.598,6.597 M565.328,433.498l6.598-6.597"/>
<circle fill="#42BE65" fill-opacity="0.6" cx="563.396" cy="583.229" r="4.665"/>
<path d="M563.396,578.895c2.395,0,4.335,1.94,4.335,4.335l0,0c0,2.394-1.94,4.335-4.335,4.335s-4.335-1.941-4.335-4.335
	C559.061,580.835,561.002,578.895,563.396,578.895z M563.396,578.234c-2.759,0-4.995,2.236-4.995,4.995
	c0,2.758,2.236,4.994,4.995,4.994s4.995-2.236,4.995-4.994l0,0C568.391,580.471,566.155,578.234,563.396,578.234z"/>
<circle fill="#42BE65" fill-opacity="0.6" cx="563.516" cy="583.229" r="4.665"/>
<path d="M563.516,578.895c2.395,0,4.335,1.94,4.335,4.335l0,0c0,2.394-1.94,4.335-4.335,4.335s-4.335-1.941-4.335-4.335
	C559.181,580.835,561.122,578.895,563.516,578.895z M563.516,578.234c-2.759,0-4.995,2.236-4.995,4.995
	c0,2.758,2.236,4.994,4.995,4.994s4.995-2.236,4.995-4.994l0,0C568.511,580.471,566.275,578.234,563.516,578.234z"/>
<circle fill="#42BE65" fill-opacity="0.6" cx="561.183" cy="583.229" r="4.665"/>
<path d="M561.183,578.895c2.395,0,4.335,1.94,4.335,4.335l0,0c0,2.394-1.94,4.335-4.335,4.335c-2.394,0-4.335-1.941-4.335-4.335
	C556.848,580.835,558.79,578.895,561.183,578.895z M561.183,578.234c-2.758,0-4.994,2.236-4.994,4.995
	c0,2.758,2.236,4.994,4.994,4.994c2.759,0,4.995-2.236,4.995-4.994l0,0C566.178,580.471,563.942,578.234,561.183,578.234z"/>
<circle fill="#42BE65" fill-opacity="0.6" cx="564.127" cy="583.229" r="4.665"/>
<path d="M564.127,578.895c2.394,0,4.335,1.94,4.335,4.335l0,0c0,2.394-1.941,4.335-4.335,4.335c-2.395,0-4.336-1.941-4.336-4.335
	C559.791,580.835,561.732,578.895,564.127,578.895z M564.127,578.234c-2.759,0-4.995,2.236-4.995,4.995
	c0,2.758,2.236,4.994,4.995,4.994c2.758,0,4.994-2.236,4.994-4.994l0,0C569.121,580.471,566.885,578.234,564.127,578.234z"/>
<circle fill="#42BE65" fill-opacity="0.6" cx="560.814" cy="583.229" r="4.665"/>
<path d="M560.814,578.895c2.394,0,4.335,1.94,4.335,4.335l0,0c0,2.394-1.941,4.335-4.335,4.335c-2.395,0-4.336-1.941-4.336-4.335
	C556.478,580.835,558.42,578.895,560.814,578.895z M560.814,578.234c-2.759,0-4.995,2.236-4.995,4.995
	c0,2.758,2.236,4.994,4.995,4.994c2.758,0,4.994-2.236,4.994-4.994l0,0C565.808,580.471,563.572,578.234,560.814,578.234z"/>
<circle fill="#42BE65" fill-opacity="0.6" cx="567.582" cy="583.229" r="4.665"/>
<path d="M567.582,578.895c2.395,0,4.336,1.94,4.336,4.335l0,0c0,2.394-1.941,4.335-4.336,4.335c-2.394,0-4.335-1.941-4.335-4.335
	C563.247,580.835,565.188,578.895,567.582,578.895z M567.582,578.234c-2.758,0-4.994,2.236-4.994,4.995
	c0,2.758,2.236,4.994,4.994,4.994c2.759,0,4.995-2.236,4.995-4.994l0,0C572.577,580.471,570.341,578.234,567.582,578.234z"/>
<circle fill="#42BE65" fill-opacity="0.6" cx="562.923" cy="583.229" r="4.665"/>
<path d="M562.923,578.895c2.394,0,4.335,1.94,4.335,4.335l0,0c0,2.394-1.941,4.335-4.335,4.335c-2.395,0-4.335-1.941-4.335-4.335
	C558.588,580.835,560.528,578.895,562.923,578.895z M562.923,578.234c-2.759,0-4.995,2.236-4.995,4.995
	c0,2.758,2.236,4.994,4.995,4.994s4.994-2.236,4.994-4.994l0,0C567.917,580.471,565.681,578.234,562.923,578.234z"/>
<circle fill="#42BE65" fill-opacity="0.6" cx="557.738" cy="583.229" r="4.665"/>
<path d="M557.738,578.895c2.395,0,4.335,1.94,4.335,4.335l0,0c0,2.394-1.94,4.335-4.335,4.335s-4.335-1.941-4.335-4.335
	C553.403,580.835,555.344,578.895,557.738,578.895z M557.738,578.234c-2.759,0-4.995,2.236-4.995,4.995
	c0,2.758,2.236,4.994,4.995,4.994s4.995-2.236,4.995-4.994l0,0C562.733,580.471,560.497,578.234,557.738,578.234z"/>
<circle fill="#42BE65" fill-opacity="0.6" cx="565.523" cy="583.229" r="4.665"/>
<path d="M565.523,578.895c2.395,0,4.335,1.94,4.335,4.335l0,0c0,2.394-1.94,4.335-4.335,4.335s-4.335-1.941-4.335-4.335
	C561.188,580.835,563.129,578.895,565.523,578.895z M565.523,578.234c-2.759,0-4.995,2.236-4.995,4.995
	c0,2.758,2.236,4.994,4.995,4.994s4.995-2.236,4.995-4.994l0,0C570.518,580.471,568.282,578.234,565.523,578.234z"/>
<circle fill="#42BE65" fill-opacity="0.6" cx="555.908" cy="583.229" r="4.665"/>
<path d="M555.908,578.895c2.394,0,4.335,1.94,4.335,4.335l0,0c0,2.394-1.941,4.335-4.335,4.335c-2.395,0-4.336-1.941-4.336-4.335
	C551.572,580.835,553.513,578.895,555.908,578.895z M555.908,578.234c-2.759,0-4.995,2.236-4.995,4.995
	c0,2.758,2.236,4.994,4.995,4.994c2.758,0,4.994-2.236,4.994-4.994l0,0C560.902,580.471,558.666,578.234,555.908,578.234z"/>
<circle fill="#42BE65" fill-opacity="0.6" cx="567.101" cy="583.229" r="4.665"/>
<path d="M567.101,578.895c2.394,0,4.335,1.94,4.335,4.335l0,0c0,2.394-1.941,4.335-4.335,4.335c-2.395,0-4.336-1.941-4.336-4.335
	C562.765,580.835,564.707,578.895,567.101,578.895z M567.101,578.234c-2.759,0-4.995,2.236-4.995,4.995
	c0,2.758,2.236,4.994,4.995,4.994c2.758,0,4.994-2.236,4.994-4.994l0,0C572.095,580.471,569.859,578.234,567.101,578.234z"/>
<circle fill="#42BE65" fill-opacity="0.6" cx="567.308" cy="583.229" r="4.665"/>
<path d="M567.308,578.895c2.395,0,4.335,1.94,4.335,4.335l0,0c0,2.394-1.94,4.335-4.335,4.335c-2.394,0-4.335-1.941-4.335-4.335
	C562.973,580.835,564.915,578.895,567.308,578.895z M567.308,578.234c-2.758,0-4.994,2.236-4.994,4.995
	c0,2.758,2.236,4.994,4.994,4.994c2.759,0,4.995-2.236,4.995-4.994l0,0C572.303,580.471,570.067,578.234,567.308,578.234z"/>
<circle fill="#42BE65" fill-opacity="0.6" cx="561.867" cy="583.229" r="4.665"/>
<path d="M561.867,578.895c2.395,0,4.336,1.94,4.336,4.335l0,0c0,2.394-1.941,4.335-4.336,4.335c-2.394,0-4.335-1.941-4.335-4.335
	C557.532,580.835,559.473,578.895,561.867,578.895z M561.867,578.234c-2.758,0-4.994,2.236-4.994,4.995
	c0,2.758,2.236,4.994,4.994,4.994c2.759,0,4.995-2.236,4.995-4.994l0,0C566.862,580.471,564.626,578.234,561.867,578.234z"/>
<circle fill="#42BE65" fill-opacity="0.6" cx="554.535" cy="583.229" r="4.665"/>
<path d="M554.535,578.895c2.395,0,4.335,1.94,4.335,4.335l0,0c0,2.394-1.94,4.335-4.335,4.335c-2.394,0-4.335-1.941-4.335-4.335
	C550.2,580.835,552.141,578.895,554.535,578.895z M554.535,578.234c-2.758,0-4.994,2.236-4.994,4.995
	c0,2.758,2.236,4.994,4.994,4.994c2.759,0,4.995-2.236,4.995-4.994l0,0C559.53,580.471,557.294,578.234,554.535,578.234z"/>
<circle fill="#42BE65" fill-opacity="0.6" cx="555.575" cy="583.229" r="4.665"/>
<path d="M555.575,578.895c2.395,0,4.335,1.94,4.335,4.335l0,0c0,2.394-1.94,4.335-4.335,4.335c-2.394,0-4.335-1.941-4.335-4.335
	C551.24,580.835,553.181,578.895,555.575,578.895z M555.575,578.234c-2.759,0-4.994,2.236-4.994,4.995
	c0,2.758,2.235,4.994,4.994,4.994s4.995-2.236,4.995-4.994l0,0C560.57,580.471,558.334,578.234,555.575,578.234z"/>
<circle fill="#42BE65" fill-opacity="0.6" cx="564.437" cy="583.229" r="4.665"/>
<path d="M564.437,578.895c2.394,0,4.335,1.94,4.335,4.335l0,0c0,2.394-1.941,4.335-4.335,4.335c-2.395,0-4.336-1.941-4.336-4.335
	C560.101,580.835,562.043,578.895,564.437,578.895z M564.437,578.234c-2.759,0-4.995,2.236-4.995,4.995
	c0,2.758,2.236,4.994,4.995,4.994c2.758,0,4.994-2.236,4.994-4.994l0,0C569.431,580.471,567.195,578.234,564.437,578.234z"/>
<circle fill="#42BE65" fill-opacity="0.6" cx="560.138" cy="583.229" r="4.665"/>
<path d="M560.138,578.895c2.395,0,4.335,1.94,4.335,4.335l0,0c0,2.394-1.94,4.335-4.335,4.335s-4.335-1.941-4.335-4.335
	C555.803,580.835,557.744,578.895,560.138,578.895z M560.138,578.234c-2.759,0-4.995,2.236-4.995,4.995
	c0,2.758,2.236,4.994,4.995,4.994s4.995-2.236,4.995-4.994l0,0C565.134,580.471,562.897,578.234,560.138,578.234z"/>
<circle fill="#42BE65" fill-opacity="0.6" cx="552.089" cy="583.229" r="4.665"/>
<path d="M552.089,578.895c2.395,0,4.335,1.94,4.335,4.335l0,0c0,2.394-1.94,4.335-4.335,4.335c-2.394,0-4.335-1.941-4.335-4.335
	C547.754,580.835,549.695,578.895,552.089,578.895z M552.089,578.234c-2.759,0-4.994,2.236-4.994,4.995
	c0,2.758,2.235,4.994,4.994,4.994s4.995-2.236,4.995-4.994l0,0C557.084,580.471,554.847,578.234,552.089,578.234z"/>
<circle fill="#42BE65" fill-opacity="0.6" cx="550.694" cy="583.229" r="4.665"/>
<path d="M550.694,578.895c2.395,0,4.335,1.94,4.335,4.335l0,0c0,2.394-1.94,4.335-4.335,4.335c-2.394,0-4.335-1.941-4.335-4.335
	C546.359,580.835,548.301,578.895,550.694,578.895z M550.694,578.234c-2.759,0-4.994,2.236-4.994,4.995
	c0,2.758,2.235,4.994,4.994,4.994s4.995-2.236,4.995-4.994l0,0C555.689,580.471,553.453,578.234,550.694,578.234z"/>
<circle fill="#42BE65" fill-opacity="0.6" cx="561.45" cy="583.229" r="4.665"/>
<path d="M561.45,578.895c2.395,0,4.335,1.94,4.335,4.335l0,0c0,2.394-1.94,4.335-4.335,4.335s-4.335-1.941-4.335-4.335
	C557.115,580.835,559.055,578.895,561.45,578.895z M561.45,578.234c-2.759,0-4.995,2.236-4.995,4.995
	c0,2.758,2.236,4.994,4.995,4.994s4.995-2.236,4.995-4.994l0,0C566.445,580.471,564.209,578.234,561.45,578.234z"/>
<circle fill="#42BE65" fill-opacity="0.6" cx="548.135" cy="583.229" r="4.665"/>
<path d="M548.135,578.895c2.394,0,4.335,1.94,4.335,4.335l0,0c0,2.394-1.941,4.335-4.335,4.335c-2.395,0-4.335-1.941-4.335-4.335
	C543.8,580.835,545.74,578.895,548.135,578.895z M548.135,578.234c-2.759,0-4.995,2.236-4.995,4.995
	c0,2.758,2.236,4.994,4.995,4.994c2.758,0,4.994-2.236,4.994-4.994l0,0C553.129,580.471,550.892,578.234,548.135,578.234z"/>
<circle fill="#42BE65" fill-opacity="0.6" cx="563.325" cy="583.229" r="4.665"/>
<path d="M563.325,578.895c2.395,0,4.335,1.94,4.335,4.335l0,0c0,2.394-1.94,4.335-4.335,4.335c-2.394,0-4.335-1.941-4.335-4.335
	C558.99,580.835,560.931,578.895,563.325,578.895z M563.325,578.234c-2.759,0-4.995,2.236-4.995,4.995
	c0,2.758,2.236,4.994,4.995,4.994s4.995-2.236,4.995-4.994l0,0C568.32,580.471,566.084,578.234,563.325,578.234z"/>
<circle fill="#42BE65" fill-opacity="0.6" cx="558.79" cy="583.229" r="4.665"/>
<path d="M558.79,578.895c2.395,0,4.335,1.94,4.335,4.335l0,0c0,2.394-1.94,4.335-4.335,4.335s-4.335-1.941-4.335-4.335
	C554.455,580.835,556.395,578.895,558.79,578.895z M558.79,578.234c-2.759,0-4.995,2.236-4.995,4.995
	c0,2.758,2.236,4.994,4.995,4.994s4.995-2.236,4.995-4.994l0,0C563.785,580.471,561.549,578.234,558.79,578.234z"/>
<circle fill="#42BE65" fill-opacity="0.6" cx="564.771" cy="583.229" r="4.665"/>
<path d="M564.771,578.895c2.394,0,4.335,1.94,4.335,4.335l0,0c0,2.394-1.941,4.335-4.335,4.335c-2.395,0-4.336-1.941-4.336-4.335
	C560.435,580.835,562.377,578.895,564.771,578.895z M564.771,578.234c-2.759,0-4.995,2.236-4.995,4.995
	c0,2.758,2.236,4.994,4.995,4.994c2.758,0,4.994-2.236,4.994-4.994l0,0C569.765,580.471,567.529,578.234,564.771,578.234z"/>
<circle fill="#42BE65" fill-opacity="0.6" cx="551.756" cy="583.229" r="4.665"/>
<path d="M551.756,578.895c2.395,0,4.335,1.94,4.335,4.335l0,0c0,2.394-1.94,4.335-4.335,4.335s-4.335-1.941-4.335-4.335
	C547.421,580.835,549.361,578.895,551.756,578.895z M551.756,578.234c-2.759,0-4.994,2.236-4.994,4.995
	c0,2.758,2.235,4.994,4.994,4.994s4.995-2.236,4.995-4.994l0,0C556.751,580.471,554.514,578.234,551.756,578.234z"/>
<circle fill="#42BE65" fill-opacity="0.6" cx="554.654" cy="583.229" r="4.665"/>
<path d="M554.654,578.895c2.395,0,4.335,1.94,4.335,4.335l0,0c0,2.394-1.94,4.335-4.335,4.335c-2.394,0-4.335-1.941-4.335-4.335
	C550.319,580.835,552.26,578.895,554.654,578.895z M554.654,578.234c-2.758,0-4.994,2.236-4.994,4.995
	c0,2.758,2.236,4.994,4.994,4.994c2.759,0,4.995-2.236,4.995-4.994l0,0C559.649,580.471,557.413,578.234,554.654,578.234z"/>
<path fill="none" stroke="#000000" stroke-width="0.6597" stroke-linecap="square" stroke-miterlimit="10" d="M898.125,583.229
	L898.125,583.229L898.125,583.229h31.473l0,0l0,0l0,0H898.125L898.125,583.229"/>
<line fill="none" stroke="#000000" stroke-width="2.6389" stroke-linejoin="round" stroke-miterlimit="10" x1="898.125" y1="583.229" x2="929.597" y2="583.229"/>
<line fill="none" stroke="#000000" stroke-width="1.9792" stroke-linejoin="round" stroke-miterlimit="10" x1="913.861" y1="583.229" x2="913.861" y2="583.229"/>
<line fill="none" stroke="#000000" stroke-width="1.9792" stroke-linejoin="round" stroke-miterlimit="10" x1="913.861" y1="583.229" x2="913.861" y2="583.229"/>
<circle fill="#648FFF" fill-opacity="0.6" cx="863.054" cy="583.229" r="4.665"/>
<path d="M863.054,578.895c2.395,0,4.336,1.94,4.336,4.335l0,0c0,2.394-1.941,4.335-4.336,4.335c-2.394,0-4.335-1.941-4.335-4.335
	C858.719,580.835,860.661,578.895,863.054,578.895z M863.054,578.234c-2.758,0-4.994,2.236-4.994,4.995
	c0,2.758,2.236,4.994,4.994,4.994c2.759,0,4.995-2.236,4.995-4.994l0,0C868.05,580.471,865.813,578.234,863.054,578.234z"/>
<circle fill="#648FFF" fill-opacity="0.6" cx="882.926" cy="583.229" r="4.665"/>
<path d="M882.926,578.895c2.395,0,4.335,1.94,4.335,4.335l0,0c0,2.394-1.94,4.335-4.335,4.335c-2.394,0-4.335-1.941-4.335-4.335
	C878.591,580.835,880.532,578.895,882.926,578.895z M882.926,578.234c-2.758,0-4.994,2.236-4.994,4.995
	c0,2.758,2.236,4.994,4.994,4.994c2.759,0,4.995-2.236,4.995-4.994l0,0C887.921,580.471,885.684,578.234,882.926,578.234z"/>
<circle fill="#648FFF" fill-opacity="0.6" cx="876.218" cy="583.229" r="4.665"/>
<path d="M876.218,578.895c2.395,0,4.335,1.94,4.335,4.335l0,0c0,2.394-1.94,4.335-4.335,4.335c-2.394,0-4.335-1.941-4.335-4.335
	C871.883,580.835,873.824,578.895,876.218,578.895z M876.218,578.234c-2.759,0-4.994,2.236-4.994,4.995
	c0,2.758,2.235,4.994,4.994,4.994s4.995-2.236,4.995-4.994l0,0C881.213,580.471,878.976,578.234,876.218,578.234z"/>
<circle fill="#648FFF" fill-opacity="0.6" cx="873.415" cy="583.229" r="4.665"/>
<path d="M873.415,578.895c2.394,0,4.335,1.94,4.335,4.335l0,0c0,2.394-1.941,4.335-4.335,4.335c-2.395,0-4.335-1.941-4.335-4.335
	C869.08,580.835,871.02,578.895,873.415,578.895z M873.415,578.234c-2.759,0-4.995,2.236-4.995,4.995
	c0,2.758,2.236,4.994,4.995,4.994c2.758,0,4.994-2.236,4.994-4.994l0,0C878.409,580.471,876.173,578.234,873.415,578.234z"/>
<circle fill="#648FFF" fill-opacity="0.6" cx="881.363" cy="583.229" r="4.665"/>
<path d="M881.363,578.895c2.394,0,4.335,1.94,4.335,4.335l0,0c0,2.394-1.941,4.335-4.335,4.335c-2.395,0-4.335-1.941-4.335-4.335
	C877.028,580.835,878.969,578.895,881.363,578.895z M881.363,578.234c-2.759,0-4.995,2.236-4.995,4.995
	c0,2.758,2.236,4.994,4.995,4.994c2.758,0,4.994-2.236,4.994-4.994l0,0C886.357,580.471,884.121,578.234,881.363,578.234z"/>
<circle fill="#648FFF" fill-opacity="0.6" cx="871.651" cy="583.229" r="4.665"/>
<path d="M871.651,578.895c2.394,0,4.335,1.94,4.335,4.335l0,0c0,2.394-1.941,4.335-4.335,4.335c-2.395,0-4.335-1.941-4.335-4.335
	C867.316,580.835,869.257,578.895,871.651,578.895z M871.651,578.234c-2.759,0-4.995,2.236-4.995,4.995
	c0,2.758,2.236,4.994,4.995,4.994s4.994-2.236,4.994-4.994l0,0C876.645,580.471,874.41,578.234,871.651,578.234z"/>
<circle fill="#648FFF" fill-opacity="0.6" cx="872.25" cy="583.229" r="4.665"/>
<path d="M872.25,578.895c2.394,0,4.335,1.94,4.335,4.335l0,0c0,2.394-1.941,4.335-4.335,4.335c-2.395,0-4.335-1.941-4.335-4.335
	C867.915,580.835,869.855,578.895,872.25,578.895z M872.25,578.234c-2.759,0-4.995,2.236-4.995,4.995
	c0,2.758,2.236,4.994,4.995,4.994c2.758,0,4.994-2.236,4.994-4.994l0,0C877.244,580.471,875.008,578.234,872.25,578.234z"/>
<circle fill="#648FFF" fill-opacity="0.6" cx="869.992" cy="583.229" r="4.665"/>
<path d="M869.992,578.895c2.394,0,4.335,1.94,4.335,4.335l0,0c0,2.394-1.941,4.335-4.335,4.335c-2.395,0-4.335-1.941-4.335-4.335
	C865.657,580.835,867.597,578.895,869.992,578.895z M869.992,578.234c-2.759,0-4.995,2.236-4.995,4.995
	c0,2.758,2.236,4.994,4.995,4.994c2.758,0,4.994-2.236,4.994-4.994l0,0C874.986,580.471,872.75,578.234,869.992,578.234z"/>
<circle fill="#648FFF" fill-opacity="0.6" cx="873.946" cy="583.229" r="4.665"/>
<path d="M873.946,578.895c2.394,0,4.335,1.94,4.335,4.335l0,0c0,2.394-1.941,4.335-4.335,4.335c-2.395,0-4.335-1.941-4.335-4.335
	C869.611,580.835,871.552,578.895,873.946,578.895z M873.946,578.234c-2.759,0-4.995,2.236-4.995,4.995
	c0,2.758,2.236,4.994,4.995,4.994s4.995-2.236,4.995-4.994l0,0C878.941,580.471,876.705,578.234,873.946,578.234z"/>
<circle fill="#648FFF" fill-opacity="0.6" cx="877.137" cy="583.229" r="4.665"/>
<path d="M877.137,578.895c2.394,0,4.335,1.94,4.335,4.335l0,0c0,2.394-1.941,4.335-4.335,4.335c-2.395,0-4.335-1.941-4.335-4.335
	C872.802,580.835,874.743,578.895,877.137,578.895z M877.137,578.234c-2.759,0-4.995,2.236-4.995,4.995
	c0,2.758,2.236,4.994,4.995,4.994s4.994-2.236,4.994-4.994l0,0C882.132,580.471,879.896,578.234,877.137,578.234z"/>
<circle fill="#648FFF" fill-opacity="0.6" cx="880.642" cy="583.229" r="4.665"/>
<path d="M880.642,578.895c2.394,0,4.335,1.94,4.335,4.335l0,0c0,2.394-1.941,4.335-4.335,4.335c-2.395,0-4.335-1.941-4.335-4.335
	C876.307,580.835,878.248,578.895,880.642,578.895z M880.642,578.234c-2.759,0-4.995,2.236-4.995,4.995
	c0,2.758,2.236,4.994,4.995,4.994c2.758,0,4.994-2.236,4.994-4.994l0,0C885.636,580.471,883.4,578.234,880.642,578.234z"/>
<circle fill="#648FFF" fill-opacity="0.6" cx="875.594" cy="583.229" r="4.665"/>
<path d="M875.594,578.895c2.395,0,4.335,1.94,4.335,4.335l0,0c0,2.394-1.94,4.335-4.335,4.335s-4.335-1.941-4.335-4.335
	C871.259,580.835,873.199,578.895,875.594,578.895z M875.594,578.234c-2.759,0-4.995,2.236-4.995,4.995
	c0,2.758,2.236,4.994,4.995,4.994s4.995-2.236,4.995-4.994l0,0C880.589,580.471,878.352,578.234,875.594,578.234z"/>
<circle fill="#648FFF" fill-opacity="0.6" cx="881.281" cy="583.229" r="4.665"/>
<path d="M881.281,578.895c2.394,0,4.335,1.94,4.335,4.335l0,0c0,2.394-1.941,4.335-4.335,4.335c-2.395,0-4.335-1.941-4.335-4.335
	C876.946,580.835,878.886,578.895,881.281,578.895z M881.281,578.234c-2.759,0-4.995,2.236-4.995,4.995
	c0,2.758,2.236,4.994,4.995,4.994c2.758,0,4.994-2.236,4.994-4.994l0,0C886.275,580.471,884.039,578.234,881.281,578.234z"/>
<circle fill="#648FFF" fill-opacity="0.6" cx="863.083" cy="583.229" r="4.665"/>
<path d="M863.083,578.895c2.395,0,4.335,1.94,4.335,4.335l0,0c0,2.394-1.94,4.335-4.335,4.335c-2.394,0-4.335-1.941-4.335-4.335
	C858.748,580.835,860.689,578.895,863.083,578.895z M863.083,578.234c-2.759,0-4.994,2.236-4.994,4.995
	c0,2.758,2.235,4.994,4.994,4.994s4.995-2.236,4.995-4.994l0,0C868.078,580.471,865.842,578.234,863.083,578.234z"/>
<circle fill="#648FFF" fill-opacity="0.6" cx="869.204" cy="583.229" r="4.665"/>
<path d="M869.204,578.895c2.394,0,4.335,1.94,4.335,4.335l0,0c0,2.394-1.941,4.335-4.335,4.335c-2.395,0-4.335-1.941-4.335-4.335
	C864.869,580.835,866.809,578.895,869.204,578.895z M869.204,578.234c-2.759,0-4.995,2.236-4.995,4.995
	c0,2.758,2.236,4.994,4.995,4.994s4.994-2.236,4.994-4.994l0,0C874.198,580.471,871.963,578.234,869.204,578.234z"/>
<circle fill="#648FFF" fill-opacity="0.6" cx="868.181" cy="583.229" r="4.665"/>
<path d="M868.181,578.895c2.395,0,4.336,1.94,4.336,4.335l0,0c0,2.394-1.941,4.335-4.336,4.335c-2.394,0-4.335-1.941-4.335-4.335
	C863.846,580.835,865.788,578.895,868.181,578.895z M868.181,578.234c-2.758,0-4.994,2.236-4.994,4.995
	c0,2.758,2.236,4.994,4.994,4.994c2.759,0,4.995-2.236,4.995-4.994l0,0C873.177,580.471,870.94,578.234,868.181,578.234z"/>
<circle fill="#648FFF" fill-opacity="0.6" cx="865.007" cy="583.229" r="4.665"/>
<path d="M865.007,578.895c2.394,0,4.335,1.94,4.335,4.335l0,0c0,2.394-1.941,4.335-4.335,4.335c-2.395,0-4.335-1.941-4.335-4.335
	C860.672,580.835,862.612,578.895,865.007,578.895z M865.007,578.234c-2.759,0-4.995,2.236-4.995,4.995
	c0,2.758,2.236,4.994,4.995,4.994c2.758,0,4.994-2.236,4.994-4.994l0,0C870.001,580.471,867.764,578.234,865.007,578.234z"/>
<circle fill="#648FFF" fill-opacity="0.6" cx="878.231" cy="583.229" r="4.665"/>
<path d="M878.231,578.895c2.395,0,4.335,1.94,4.335,4.335l0,0c0,2.394-1.94,4.335-4.335,4.335s-4.335-1.941-4.335-4.335
	C873.896,580.835,875.837,578.895,878.231,578.895z M878.231,578.234c-2.759,0-4.995,2.236-4.995,4.995
	c0,2.758,2.236,4.994,4.995,4.994s4.995-2.236,4.995-4.994l0,0C883.226,580.471,880.99,578.234,878.231,578.234z"/>
<circle fill="#648FFF" fill-opacity="0.6" cx="875.275" cy="583.229" r="4.665"/>
<path d="M875.275,578.895c2.395,0,4.336,1.94,4.336,4.335l0,0c0,2.394-1.941,4.335-4.336,4.335c-2.394,0-4.335-1.941-4.335-4.335
	C870.94,580.835,872.882,578.895,875.275,578.895z M875.275,578.234c-2.758,0-4.994,2.236-4.994,4.995
	c0,2.758,2.236,4.994,4.994,4.994c2.759,0,4.995-2.236,4.995-4.994l0,0C880.27,580.471,878.034,578.234,875.275,578.234z"/>
<circle fill="#648FFF" fill-opacity="0.6" cx="877.562" cy="583.229" r="4.665"/>
<path d="M877.562,578.895c2.395,0,4.335,1.94,4.335,4.335l0,0c0,2.394-1.94,4.335-4.335,4.335s-4.335-1.941-4.335-4.335
	C873.227,580.835,875.168,578.895,877.562,578.895z M877.562,578.234c-2.759,0-4.995,2.236-4.995,4.995
	c0,2.758,2.236,4.994,4.995,4.994s4.995-2.236,4.995-4.994l0,0C882.557,580.471,880.321,578.234,877.562,578.234z"/>
<circle fill="#648FFF" fill-opacity="0.6" cx="872.75" cy="583.229" r="4.665"/>
<path d="M872.75,578.895c2.395,0,4.335,1.94,4.335,4.335l0,0c0,2.394-1.94,4.335-4.335,4.335c-2.394,0-4.335-1.941-4.335-4.335
	C868.415,580.835,870.356,578.895,872.75,578.895z M872.75,578.234c-2.758,0-4.994,2.236-4.994,4.995
	c0,2.758,2.236,4.994,4.994,4.994c2.759,0,4.995-2.236,4.995-4.994l0,0C877.745,580.471,875.509,578.234,872.75,578.234z"/>
<circle fill="#648FFF" fill-opacity="0.6" cx="881.831" cy="583.229" r="4.665"/>
<path d="M881.831,578.895c2.395,0,4.335,1.94,4.335,4.335l0,0c0,2.394-1.94,4.335-4.335,4.335s-4.335-1.941-4.335-4.335
	C877.496,580.835,879.436,578.895,881.831,578.895z M881.831,578.234c-2.759,0-4.995,2.236-4.995,4.995
	c0,2.758,2.236,4.994,4.995,4.994s4.995-2.236,4.995-4.994l0,0C886.826,580.471,884.59,578.234,881.831,578.234z"/>
<circle fill="#648FFF" fill-opacity="0.6" cx="868.931" cy="583.229" r="4.665"/>
<path d="M868.931,578.895c2.395,0,4.336,1.94,4.336,4.335l0,0c0,2.394-1.941,4.335-4.336,4.335c-2.394,0-4.335-1.941-4.335-4.335
	C864.596,580.835,866.538,578.895,868.931,578.895z M868.931,578.234c-2.758,0-4.994,2.236-4.994,4.995
	c0,2.758,2.236,4.994,4.994,4.994c2.759,0,4.995-2.236,4.995-4.994l0,0C873.927,580.471,871.69,578.234,868.931,578.234z"/>
<circle fill="#648FFF" fill-opacity="0.6" cx="882.483" cy="583.229" r="4.665"/>
<path d="M882.483,578.895c2.395,0,4.335,1.94,4.335,4.335l0,0c0,2.394-1.94,4.335-4.335,4.335c-2.394,0-4.335-1.941-4.335-4.335
	C878.148,580.835,880.09,578.895,882.483,578.895z M882.483,578.234c-2.759,0-4.994,2.236-4.994,4.995
	c0,2.758,2.235,4.994,4.994,4.994s4.995-2.236,4.995-4.994l0,0C887.478,580.471,885.242,578.234,882.483,578.234z"/>
<circle fill="#648FFF" fill-opacity="0.6" cx="879.355" cy="583.229" r="4.665"/>
<path d="M879.355,578.895c2.394,0,4.335,1.94,4.335,4.335l0,0c0,2.394-1.941,4.335-4.335,4.335c-2.395,0-4.335-1.941-4.335-4.335
	C875.02,580.835,876.961,578.895,879.355,578.895z M879.355,578.234c-2.759,0-4.995,2.236-4.995,4.995
	c0,2.758,2.236,4.994,4.995,4.994c2.758,0,4.994-2.236,4.994-4.994l0,0C884.349,580.471,882.113,578.234,879.355,578.234z"/>
<circle fill="#648FFF" fill-opacity="0.6" cx="872.659" cy="583.229" r="4.665"/>
<path d="M872.659,578.895c2.395,0,4.335,1.94,4.335,4.335l0,0c0,2.394-1.94,4.335-4.335,4.335s-4.335-1.941-4.335-4.335
	C868.324,580.835,870.264,578.895,872.659,578.895z M872.659,578.234c-2.759,0-4.995,2.236-4.995,4.995
	c0,2.758,2.236,4.994,4.995,4.994s4.995-2.236,4.995-4.994l0,0C877.654,580.471,875.418,578.234,872.659,578.234z"/>
<circle fill="#648FFF" fill-opacity="0.6" cx="871.234" cy="583.229" r="4.665"/>
<path d="M871.234,578.895c2.395,0,4.335,1.94,4.335,4.335l0,0c0,2.394-1.94,4.335-4.335,4.335s-4.335-1.941-4.335-4.335
	C866.899,580.835,868.84,578.895,871.234,578.895z M871.234,578.234c-2.759,0-4.995,2.236-4.995,4.995
	c0,2.758,2.236,4.994,4.995,4.994s4.995-2.236,4.995-4.994l0,0C876.229,580.471,873.993,578.234,871.234,578.234z"/>
<path fill="none" stroke="#000000" stroke-width="0.6597" stroke-linecap="square" stroke-miterlimit="10" d="M1212.847,583.229
	L1212.847,583.229L1212.847,583.229h31.473l0,0l0,0l0,0H1212.847L1212.847,583.229"/>
<line fill="none" stroke="#000000" stroke-width="2.6389" stroke-linejoin="round" stroke-miterlimit="10" x1="1212.847" y1="583.229" x2="1244.32" y2="583.229"/>
<line fill="none" stroke="#000000" stroke-width="1.9792" stroke-linejoin="round" stroke-miterlimit="10" x1="1228.584" y1="583.229" x2="1228.584" y2="583.229"/>
<line fill="none" stroke="#000000" stroke-width="1.9792" stroke-linejoin="round" stroke-miterlimit="10" x1="1228.584" y1="583.229" x2="1228.584" y2="583.229"/>
<circle fill="#E6B34D" fill-opacity="0.6" cx="1184.8" cy="583.229" r="4.665"/>
<path d="M1184.8,578.895c2.395,0,4.335,1.94,4.335,4.335l0,0c0,2.394-1.94,4.335-4.335,4.335s-4.335-1.941-4.335-4.335
	C1180.465,580.835,1182.405,578.895,1184.8,578.895z M1184.8,578.234c-2.759,0-4.995,2.236-4.995,4.995
	c0,2.758,2.236,4.994,4.995,4.994s4.995-2.236,4.995-4.994l0,0C1189.795,580.471,1187.558,578.234,1184.8,578.234z"/>
<circle fill="#E6B34D" fill-opacity="0.6" cx="1193.573" cy="583.229" r="4.665"/>
<path d="M1193.573,578.895c2.395,0,4.335,1.94,4.335,4.335l0,0c0,2.394-1.94,4.335-4.335,4.335s-4.335-1.941-4.335-4.335
	C1189.238,580.835,1191.178,578.895,1193.573,578.895z M1193.573,578.234c-2.759,0-4.995,2.236-4.995,4.995
	c0,2.758,2.236,4.994,4.995,4.994s4.995-2.236,4.995-4.994l0,0C1198.568,580.471,1196.332,578.234,1193.573,578.234z"/>
<circle fill="#E6B34D" fill-opacity="0.6" cx="1186.885" cy="583.229" r="4.665"/>
<path d="M1186.885,578.895c2.394,0,4.335,1.94,4.335,4.335l0,0c0,2.394-1.941,4.335-4.335,4.335c-2.395,0-4.336-1.941-4.336-4.335
	C1182.549,580.835,1184.49,578.895,1186.885,578.895z M1186.885,578.234c-2.759,0-4.995,2.236-4.995,4.995
	c0,2.758,2.236,4.994,4.995,4.994c2.758,0,4.994-2.236,4.994-4.994l0,0C1191.879,580.471,1189.642,578.234,1186.885,578.234z"/>
<circle fill="#E6B34D" fill-opacity="0.6" cx="1185.872" cy="583.229" r="4.665"/>
<path d="M1185.872,578.895c2.395,0,4.335,1.94,4.335,4.335l0,0c0,2.394-1.94,4.335-4.335,4.335s-4.335-1.941-4.335-4.335
	C1181.537,580.835,1183.477,578.895,1185.872,578.895z M1185.872,578.234c-2.759,0-4.995,2.236-4.995,4.995
	c0,2.758,2.236,4.994,4.995,4.994s4.995-2.236,4.995-4.994l0,0C1190.867,580.471,1188.631,578.234,1185.872,578.234z"/>
<circle fill="#E6B34D" fill-opacity="0.6" cx="1180.701" cy="583.229" r="4.665"/>
<path d="M1180.701,578.895c2.394,0,4.335,1.94,4.335,4.335l0,0c0,2.394-1.941,4.335-4.335,4.335c-2.395,0-4.336-1.941-4.336-4.335
	C1176.365,580.835,1178.306,578.895,1180.701,578.895z M1180.701,578.234c-2.759,0-4.995,2.236-4.995,4.995
	c0,2.758,2.236,4.994,4.995,4.994c2.758,0,4.994-2.236,4.994-4.994l0,0C1185.695,580.471,1183.459,578.234,1180.701,578.234z"/>
<circle fill="#E6B34D" fill-opacity="0.6" cx="1191.873" cy="583.229" r="4.665"/>
<path d="M1191.873,578.895c2.395,0,4.336,1.94,4.336,4.335l0,0c0,2.394-1.941,4.335-4.336,4.335c-2.394,0-4.335-1.941-4.335-4.335
	C1187.538,580.835,1189.479,578.895,1191.873,578.895z M1191.873,578.234c-2.758,0-4.994,2.236-4.994,4.995
	c0,2.758,2.236,4.994,4.994,4.994c2.759,0,4.995-2.236,4.995-4.994l0,0C1196.868,580.471,1194.632,578.234,1191.873,578.234z"/>
<circle fill="#E6B34D" fill-opacity="0.6" cx="1180.132" cy="583.229" r="4.665"/>
<path d="M1180.132,578.895c2.395,0,4.335,1.94,4.335,4.335l0,0c0,2.394-1.94,4.335-4.335,4.335s-4.335-1.941-4.335-4.335
	C1175.797,580.835,1177.737,578.895,1180.132,578.895z M1180.132,578.234c-2.759,0-4.995,2.236-4.995,4.995
	c0,2.758,2.236,4.994,4.995,4.994s4.995-2.236,4.995-4.994l0,0C1185.127,580.471,1182.89,578.234,1180.132,578.234z"/>
<circle fill="#E6B34D" fill-opacity="0.6" cx="1196.603" cy="583.229" r="4.665"/>
<path d="M1196.603,578.895c2.395,0,4.335,1.94,4.335,4.335l0,0c0,2.394-1.94,4.335-4.335,4.335s-4.335-1.941-4.335-4.335
	C1192.268,580.835,1194.209,578.895,1196.603,578.895z M1196.603,578.234c-2.759,0-4.995,2.236-4.995,4.995
	c0,2.758,2.236,4.994,4.995,4.994s4.995-2.236,4.995-4.994l0,0C1201.598,580.471,1199.362,578.234,1196.603,578.234z"/>
<circle fill="#E6B34D" fill-opacity="0.6" cx="1190.784" cy="583.229" r="4.665"/>
<path d="M1190.784,578.895c2.395,0,4.335,1.94,4.335,4.335l0,0c0,2.394-1.94,4.335-4.335,4.335c-2.394,0-4.335-1.941-4.335-4.335
	C1186.449,580.835,1188.39,578.895,1190.784,578.895z M1190.784,578.234c-2.759,0-4.995,2.236-4.995,4.995
	c0,2.758,2.236,4.994,4.995,4.994s4.995-2.236,4.995-4.994l0,0C1195.779,580.471,1193.543,578.234,1190.784,578.234z"/>
<circle fill="#E6B34D" fill-opacity="0.6" cx="1194.927" cy="583.229" r="4.665"/>
<path d="M1194.927,578.895c2.394,0,4.335,1.94,4.335,4.335l0,0c0,2.394-1.941,4.335-4.335,4.335c-2.395,0-4.336-1.941-4.336-4.335
	C1190.592,580.835,1192.533,578.895,1194.927,578.895z M1194.927,578.234c-2.759,0-4.995,2.236-4.995,4.995
	c0,2.758,2.236,4.994,4.995,4.994c2.758,0,4.994-2.236,4.994-4.994l0,0C1199.922,580.471,1197.685,578.234,1194.927,578.234z"/>
<line fill="none" stroke="#000000" stroke-width="1.9792" stroke-linejoin="round" stroke-miterlimit="10" x1="284.417" y1="150.645" x2="599.139" y2="150.645"/>
<text transform="matrix(1 0 0 1 426.2781 151.832)" font-family="'MyriadPro-Regular'" font-size="18.4722">***</text>
<text transform="matrix(1 0 0 1 415.2781 135.3857)" font-family="'MyriadPro-Regular'" font-size="13.1944">6.87e-24</text>
<line fill="none" stroke="#000000" stroke-width="1.9792" stroke-linejoin="round" stroke-miterlimit="10" x1="284.417" y1="117.43" x2="913.861" y2="117.43"/>
<text transform="matrix(1 0 0 1 583.6394 118.6172)" font-family="'MyriadPro-Regular'" font-size="18.4722">***</text>
<text transform="matrix(1 0 0 1 572.6394 102.1709)" font-family="'MyriadPro-Regular'" font-size="13.1944">7.70e-25</text>
<line fill="none" stroke="#000000" stroke-width="1.9792" stroke-linejoin="round" stroke-miterlimit="10" x1="284.417" y1="84.215" x2="1228.584" y2="84.215"/>
<text transform="matrix(1 0 0 1 740.9998 85.4023)" font-family="'MyriadPro-Regular'" font-size="18.4722">***</text>
<text transform="matrix(1 0 0 1 730.0002 68.9561)" font-family="'MyriadPro-Regular'" font-size="13.1944">4.09e-17</text>
<text transform="matrix(0.7284 0 0 1 520.8938 144.6685)" font-family="'MyriadPro-Regular'" font-size="14">CI = [33.85 ; 49.08]</text>
<text transform="matrix(0.7284 0 0 1 834.2273 110.335)" font-family="'MyriadPro-Regular'" font-size="14">CI = [35.28 ; 50.52]</text>
<text transform="matrix(0.7284 0 0 1 1149.2283 77.002)" font-family="'MyriadPro-Regular'" font-size="14">CI = [32.54 ; 53.26]</text>
</svg>
