<?xml version="1.0" encoding="utf-8"?>
<!-- Generator: Adobe Illustrator 16.0.0, SVG Export Plug-In . SVG Version: 6.00 Build 0)  -->
<!DOCTYPE svg PUBLIC "-//W3C//DTD SVG 1.1//EN" "http://www.w3.org/Graphics/SVG/1.1/DTD/svg11.dtd">
<svg version="1.1" id="Layer_1" xmlns="http://www.w3.org/2000/svg" xmlns:xlink="http://www.w3.org/1999/xlink" x="0px" y="0px"
	 width="1462px" height="634px" viewBox="0 0 1462 634" enable-background="new 0 0 1462 634" xml:space="preserve">
<g>
	
		<line fill="none" stroke="#000000" stroke-width="2.2431" stroke-linecap="square" stroke-linejoin="round" stroke-miterlimit="10" x1="190" y1="564" x2="1323" y2="564"/>
	
		<line fill="none" stroke="#000000" stroke-width="2.2431" stroke-linecap="square" stroke-linejoin="round" stroke-miterlimit="10" x1="402.438" y1="564" x2="402.438" y2="575.33"/>
	
		<line fill="none" stroke="#000000" stroke-width="2.2431" stroke-linecap="square" stroke-linejoin="round" stroke-miterlimit="10" x1="1110.563" y1="564" x2="1110.563" y2="575.33"/>
	<text transform="matrix(1 0 0 1 363.4375 598.1355)" font-family="'MyriadPro-Regular'" font-size="15.8333">Ripples up</text>
	<text transform="matrix(1 0 0 1 1060.5625 598.1355)" font-family="'MyriadPro-Regular'" font-size="15.8333">Ripples down</text>
	
		<line fill="none" stroke="#000000" stroke-width="2.2431" stroke-linecap="square" stroke-linejoin="round" stroke-miterlimit="10" x1="190" y1="564" x2="190" y2="48"/>
	
		<line fill="none" stroke="#000000" stroke-width="2.2431" stroke-linecap="square" stroke-linejoin="round" stroke-miterlimit="10" x1="190" y1="564" x2="178.67" y2="564"/>
	
		<line fill="none" stroke="#000000" stroke-width="2.2431" stroke-linecap="square" stroke-linejoin="round" stroke-miterlimit="10" x1="190" y1="514.857" x2="178.67" y2="514.857"/>
	
		<line fill="none" stroke="#000000" stroke-width="2.2431" stroke-linecap="square" stroke-linejoin="round" stroke-miterlimit="10" x1="190" y1="465.715" x2="178.67" y2="465.715"/>
	
		<line fill="none" stroke="#000000" stroke-width="2.2431" stroke-linecap="square" stroke-linejoin="round" stroke-miterlimit="10" x1="190" y1="416.571" x2="178.67" y2="416.571"/>
	
		<line fill="none" stroke="#000000" stroke-width="2.2431" stroke-linecap="square" stroke-linejoin="round" stroke-miterlimit="10" x1="190" y1="367.428" x2="178.67" y2="367.428"/>
	
		<line fill="none" stroke="#000000" stroke-width="2.2431" stroke-linecap="square" stroke-linejoin="round" stroke-miterlimit="10" x1="190" y1="318.286" x2="178.67" y2="318.286"/>
	
		<line fill="none" stroke="#000000" stroke-width="2.2431" stroke-linecap="square" stroke-linejoin="round" stroke-miterlimit="10" x1="190" y1="269.143" x2="178.67" y2="269.143"/>
	
		<line fill="none" stroke="#000000" stroke-width="2.2431" stroke-linecap="square" stroke-linejoin="round" stroke-miterlimit="10" x1="190" y1="220" x2="178.67" y2="220"/>
	
		<line fill="none" stroke="#000000" stroke-width="2.2431" stroke-linecap="square" stroke-linejoin="round" stroke-miterlimit="10" x1="190" y1="170.857" x2="178.67" y2="170.857"/>
	
		<line fill="none" stroke="#000000" stroke-width="2.2431" stroke-linecap="square" stroke-linejoin="round" stroke-miterlimit="10" x1="190" y1="121.715" x2="178.67" y2="121.715"/>
	
		<line fill="none" stroke="#000000" stroke-width="2.2431" stroke-linecap="square" stroke-linejoin="round" stroke-miterlimit="10" x1="190" y1="72.571" x2="178.67" y2="72.571"/>
	<text transform="matrix(1 0 0 1 162.8643 569.9998)" font-family="'MyriadPro-Regular'" font-size="15.8333">0</text>
	<text transform="matrix(1 0 0 1 153.8643 520.8572)" font-family="'MyriadPro-Regular'" font-size="15.8333">10</text>
	<text transform="matrix(1 0 0 1 153.8643 471.7146)" font-family="'MyriadPro-Regular'" font-size="15.8333">20</text>
	<text transform="matrix(1 0 0 1 153.8643 422.572)" font-family="'MyriadPro-Regular'" font-size="15.8333">30</text>
	<text transform="matrix(1 0 0 1 153.8643 373.4285)" font-family="'MyriadPro-Regular'" font-size="15.8333">40</text>
	<text transform="matrix(1 0 0 1 153.8643 324.2859)" font-family="'MyriadPro-Regular'" font-size="15.8333">50</text>
	<text transform="matrix(1 0 0 1 153.8643 275.1433)" font-family="'MyriadPro-Regular'" font-size="15.8333">60</text>
	<text transform="matrix(1 0 0 1 153.8643 225.9998)" font-family="'MyriadPro-Regular'" font-size="15.8333">70</text>
	<text transform="matrix(1 0 0 1 153.8643 176.8572)" font-family="'MyriadPro-Regular'" font-size="15.8333">80</text>
	<text transform="matrix(1 0 0 1 153.8643 127.7146)" font-family="'MyriadPro-Regular'" font-size="15.8333">90</text>
	<text transform="matrix(1 0 0 1 144.8643 78.572)" font-family="'MyriadPro-Regular'" font-size="15.8333">100</text>
	<text transform="matrix(6.123234e-017 -1 1 6.123234e-017 134.9063 407.9998)" font-family="'MyriadPro-Regular'" font-size="19">Percentage of neurons</text>
	<text transform="matrix(1 0 0 1 320.5005 37.1003)" font-family="'MyriadPro-Regular'" font-size="20.5833">Percentage of neurons recruted in PFC during ripples occuring at up vs down of the NR US</text>
	<path fill="#98C6EA" d="M367.031,553.08V564h70.813v-10.92H367.031z"/>
	<path fill="none" stroke="#000000" stroke-width="0.6597" stroke-linecap="square" stroke-miterlimit="10" d="M367.031,553.08V564
		V553.08h70.813l0,0V564l0,0h-70.813V553.08"/>
	
		<line fill="none" stroke="#000000" stroke-width="2.6389" stroke-linejoin="round" stroke-miterlimit="10" x1="367.031" y1="564" x2="437.844" y2="564"/>
	
		<line fill="none" stroke="#000000" stroke-width="1.9792" stroke-linejoin="round" stroke-miterlimit="10" x1="402.438" y1="564" x2="402.438" y2="564"/>
	
		<line fill="none" stroke="#000000" stroke-width="1.9792" stroke-linejoin="round" stroke-miterlimit="10" x1="402.438" y1="537.674" x2="402.438" y2="553.08"/>
	<circle fill="#98C6EA" fill-opacity="0.6" cx="314.305" cy="564" r="4.665"/>
	<path d="M314.305,559.665c2.395,0,4.335,1.941,4.335,4.335l0,0c0,2.395-1.94,4.336-4.335,4.336s-4.335-1.941-4.335-4.336
		C309.97,561.606,311.91,559.665,314.305,559.665z M314.305,559.006c-2.759,0-4.995,2.236-4.995,4.994
		c0,2.759,2.236,4.995,4.995,4.995s4.995-2.236,4.995-4.995l0,0C319.3,561.242,317.063,559.006,314.305,559.006z"/>
	<circle fill="#98C6EA" fill-opacity="0.6" cx="321.261" cy="564" r="4.665"/>
	<path d="M321.261,559.665c2.395,0,4.335,1.941,4.335,4.335l0,0c0,2.395-1.94,4.336-4.335,4.336s-4.335-1.941-4.335-4.336
		C316.926,561.606,318.866,559.665,321.261,559.665z M321.261,559.006c-2.759,0-4.995,2.236-4.995,4.994
		c0,2.759,2.236,4.995,4.995,4.995s4.995-2.236,4.995-4.995l0,0C326.256,561.242,324.02,559.006,321.261,559.006z"/>
	<circle fill="#98C6EA" fill-opacity="0.6" cx="290.413" cy="553.08" r="4.665"/>
	<path d="M290.413,548.745c2.394,0,4.335,1.94,4.335,4.335l0,0c0,2.394-1.941,4.335-4.335,4.335c-2.395,0-4.335-1.941-4.335-4.335
		C286.078,550.685,288.019,548.745,290.413,548.745z M290.413,548.085c-2.759,0-4.995,2.236-4.995,4.995
		c0,2.758,2.236,4.994,4.995,4.994c2.758,0,4.995-2.236,4.995-4.994l0,0C295.408,550.321,293.171,548.085,290.413,548.085z"/>
	<circle fill="#98C6EA" fill-opacity="0.6" cx="302.982" cy="564" r="4.665"/>
	<path d="M302.982,559.665c2.394,0,4.335,1.941,4.335,4.335l0,0c0,2.395-1.941,4.336-4.335,4.336c-2.395,0-4.335-1.941-4.335-4.336
		C298.647,561.606,300.588,559.665,302.982,559.665z M302.982,559.006c-2.759,0-4.995,2.236-4.995,4.994
		c0,2.759,2.236,4.995,4.995,4.995s4.994-2.236,4.994-4.995l0,0C307.977,561.242,305.741,559.006,302.982,559.006z"/>
	<circle fill="#98C6EA" fill-opacity="0.6" cx="324.375" cy="551.068" r="4.665"/>
	<path d="M324.375,546.733c2.395,0,4.335,1.94,4.335,4.335l0,0c0,2.394-1.94,4.335-4.335,4.335s-4.335-1.941-4.335-4.335
		C320.04,548.674,321.98,546.733,324.375,546.733z M324.375,546.073c-2.759,0-4.995,2.236-4.995,4.995s2.236,4.994,4.995,4.994
		s4.995-2.235,4.995-4.994l0,0C329.37,548.309,327.134,546.073,324.375,546.073z"/>
	<circle fill="#98C6EA" fill-opacity="0.6" cx="310.719" cy="552.014" r="4.665"/>
	<path d="M310.719,547.679c2.394,0,4.335,1.94,4.335,4.335l0,0c0,2.394-1.941,4.335-4.335,4.335c-2.395,0-4.335-1.941-4.335-4.335
		C306.384,549.62,308.324,547.679,310.719,547.679z M310.719,547.019c-2.759,0-4.995,2.236-4.995,4.995s2.236,4.994,4.995,4.994
		c2.758,0,4.994-2.235,4.994-4.994l0,0C315.713,549.256,313.477,547.019,310.719,547.019z"/>
	<circle fill="#98C6EA" fill-opacity="0.6" cx="316.91" cy="558.351" r="4.665"/>
	<path d="M316.91,554.016c2.394,0,4.335,1.941,4.335,4.335l0,0c0,2.395-1.941,4.335-4.335,4.335c-2.395,0-4.335-1.94-4.335-4.335
		C312.575,555.958,314.516,554.016,316.91,554.016z M316.91,553.357c-2.759,0-4.995,2.236-4.995,4.994
		c0,2.759,2.236,4.995,4.995,4.995s4.994-2.236,4.994-4.995l0,0C321.904,555.594,319.669,553.357,316.91,553.357z"/>
	<circle fill="#98C6EA" fill-opacity="0.6" cx="295.187" cy="539.012" r="4.665"/>
	<path d="M295.187,534.677c2.394,0,4.335,1.94,4.335,4.335l0,0c0,2.395-1.941,4.335-4.335,4.335c-2.395,0-4.335-1.94-4.335-4.335
		S292.792,534.677,295.187,534.677z M295.187,534.017c-2.759,0-4.995,2.236-4.995,4.995s2.236,4.995,4.995,4.995
		c2.758,0,4.994-2.236,4.994-4.995l0,0C300.181,536.254,297.945,534.017,295.187,534.017z"/>
	<circle fill="#98C6EA" fill-opacity="0.6" cx="327.108" cy="564" r="4.665"/>
	<path d="M327.108,559.665c2.395,0,4.336,1.941,4.336,4.335l0,0c0,2.395-1.941,4.336-4.336,4.336c-2.394,0-4.335-1.941-4.335-4.336
		C322.773,561.606,324.715,559.665,327.108,559.665z M327.108,559.006c-2.758,0-4.994,2.236-4.994,4.994
		c0,2.759,2.236,4.995,4.994,4.995c2.759,0,4.995-2.236,4.995-4.995l0,0C332.104,561.242,329.867,559.006,327.108,559.006z"/>
	<circle fill="#98C6EA" fill-opacity="0.6" cx="332.257" cy="537.674" r="4.665"/>
	<path d="M332.257,533.339c2.395,0,4.335,1.941,4.335,4.335l0,0c0,2.395-1.94,4.335-4.335,4.335s-4.335-1.94-4.335-4.335
		C327.922,535.28,329.862,533.339,332.257,533.339z M332.257,532.679c-2.759,0-4.995,2.235-4.995,4.994s2.236,4.995,4.995,4.995
		s4.995-2.236,4.995-4.995l0,0C337.252,534.915,335.016,532.679,332.257,532.679z"/>
	<circle fill="#98C6EA" fill-opacity="0.6" cx="331.64" cy="540.599" r="4.665"/>
	<path d="M331.64,536.263c2.394,0,4.335,1.941,4.335,4.335l0,0c0,2.395-1.941,4.336-4.335,4.336c-2.395,0-4.335-1.941-4.335-4.336
		C327.305,538.205,329.245,536.263,331.64,536.263z M331.64,535.604c-2.759,0-4.995,2.236-4.995,4.994
		c0,2.759,2.236,4.995,4.995,4.995s4.994-2.236,4.994-4.995l0,0C336.634,537.841,334.398,535.604,331.64,535.604z"/>
	<circle fill="#98C6EA" fill-opacity="0.6" cx="297.546" cy="564" r="4.665"/>
	<path d="M297.546,559.665c2.394,0,4.334,1.941,4.334,4.335l0,0c0,2.395-1.94,4.336-4.334,4.336c-2.395,0-4.335-1.941-4.335-4.336
		C293.211,561.606,295.152,559.665,297.546,559.665z M297.546,559.006c-2.759,0-4.995,2.236-4.995,4.994
		c0,2.759,2.236,4.995,4.995,4.995c2.758,0,4.995-2.236,4.995-4.995l0,0C302.541,561.242,300.305,559.006,297.546,559.006z"/>
	<circle fill="#98C6EA" fill-opacity="0.6" cx="313.505" cy="564" r="4.665"/>
	<path d="M313.505,559.665c2.395,0,4.335,1.941,4.335,4.335l0,0c0,2.395-1.94,4.336-4.335,4.336c-2.394,0-4.335-1.941-4.335-4.336
		C309.17,561.606,311.111,559.665,313.505,559.665z M313.505,559.006c-2.759,0-4.994,2.236-4.994,4.994
		c0,2.759,2.235,4.995,4.994,4.995s4.995-2.236,4.995-4.995l0,0C318.5,561.242,316.264,559.006,313.505,559.006z"/>
	<circle fill="#98C6EA" fill-opacity="0.6" cx="314.228" cy="564" r="4.665"/>
	<path d="M314.228,559.665c2.394,0,4.335,1.941,4.335,4.335l0,0c0,2.395-1.941,4.336-4.335,4.336c-2.395,0-4.335-1.941-4.335-4.336
		C309.893,561.606,311.833,559.665,314.228,559.665z M314.228,559.006c-2.759,0-4.995,2.236-4.995,4.994
		c0,2.759,2.236,4.995,4.995,4.995s4.994-2.236,4.994-4.995l0,0C319.222,561.242,316.986,559.006,314.228,559.006z"/>
	<circle fill="#98C6EA" fill-opacity="0.6" cx="304.072" cy="564" r="4.665"/>
	<path d="M304.072,559.665c2.395,0,4.335,1.941,4.335,4.335l0,0c0,2.395-1.94,4.336-4.335,4.336s-4.335-1.941-4.335-4.336
		C299.737,561.606,301.678,559.665,304.072,559.665z M304.072,559.006c-2.759,0-4.995,2.236-4.995,4.994
		c0,2.759,2.236,4.995,4.995,4.995s4.995-2.236,4.995-4.995l0,0C309.067,561.242,306.831,559.006,304.072,559.006z"/>
	<circle fill="#98C6EA" fill-opacity="0.6" cx="332.271" cy="564" r="4.665"/>
	<path d="M332.271,559.665c2.394,0,4.335,1.941,4.335,4.335l0,0c0,2.395-1.941,4.336-4.335,4.336c-2.395,0-4.335-1.941-4.335-4.336
		C327.937,561.606,329.877,559.665,332.271,559.665z M332.271,559.006c-2.759,0-4.995,2.236-4.995,4.994
		c0,2.759,2.236,4.995,4.995,4.995s4.994-2.236,4.994-4.995l0,0C337.266,561.242,335.03,559.006,332.271,559.006z"/>
	<circle fill="#98C6EA" fill-opacity="0.6" cx="329.281" cy="564" r="4.665"/>
	<path d="M329.281,559.665c2.395,0,4.336,1.941,4.336,4.335l0,0c0,2.395-1.941,4.336-4.336,4.336c-2.394,0-4.335-1.941-4.335-4.336
		C324.946,561.606,326.888,559.665,329.281,559.665z M329.281,559.006c-2.758,0-4.994,2.236-4.994,4.994
		c0,2.759,2.236,4.995,4.994,4.995c2.759,0,4.995-2.236,4.995-4.995l0,0C334.276,561.242,332.04,559.006,329.281,559.006z"/>
	<circle fill="#98C6EA" fill-opacity="0.6" cx="292.622" cy="549.547" r="4.665"/>
	<path d="M292.622,545.212c2.395,0,4.335,1.94,4.335,4.335l0,0c0,2.394-1.941,4.335-4.335,4.335c-2.394,0-4.335-1.941-4.335-4.335
		C288.287,547.152,290.228,545.212,292.622,545.212z M292.622,544.552c-2.758,0-4.995,2.236-4.995,4.995s2.236,4.994,4.995,4.994
		c2.759,0,4.995-2.235,4.995-4.994l0,0C297.617,546.788,295.38,544.552,292.622,544.552z"/>
	<circle fill="#98C6EA" fill-opacity="0.6" cx="309.438" cy="564" r="4.665"/>
	<path d="M309.438,559.665c2.395,0,4.335,1.941,4.335,4.335l0,0c0,2.395-1.94,4.336-4.335,4.336c-2.394,0-4.335-1.941-4.335-4.336
		C305.103,561.606,307.044,559.665,309.438,559.665z M309.438,559.006c-2.759,0-4.994,2.236-4.994,4.994
		c0,2.759,2.235,4.995,4.994,4.995s4.995-2.236,4.995-4.995l0,0C314.433,561.242,312.196,559.006,309.438,559.006z"/>
	<circle fill="#98C6EA" fill-opacity="0.6" cx="312.925" cy="564" r="4.665"/>
	<path d="M312.925,559.665c2.394,0,4.335,1.941,4.335,4.335l0,0c0,2.395-1.941,4.336-4.335,4.336c-2.395,0-4.335-1.941-4.335-4.336
		C308.59,561.606,310.53,559.665,312.925,559.665z M312.925,559.006c-2.759,0-4.995,2.236-4.995,4.994
		c0,2.759,2.236,4.995,4.995,4.995s4.994-2.236,4.994-4.995l0,0C317.919,561.242,315.684,559.006,312.925,559.006z"/>
	<circle fill="#98C6EA" fill-opacity="0.6" cx="330.646" cy="564" r="4.665"/>
	<path d="M330.646,559.665c2.395,0,4.335,1.941,4.335,4.335l0,0c0,2.395-1.94,4.336-4.335,4.336s-4.335-1.941-4.335-4.336
		C326.312,561.606,328.252,559.665,330.646,559.665z M330.646,559.006c-2.759,0-4.995,2.236-4.995,4.994
		c0,2.759,2.236,4.995,4.995,4.995s4.995-2.236,4.995-4.995l0,0C335.642,561.242,333.405,559.006,330.646,559.006z"/>
	<circle fill="#98C6EA" fill-opacity="0.6" cx="315.506" cy="564" r="4.665"/>
	<path d="M315.506,559.665c2.394,0,4.335,1.941,4.335,4.335l0,0c0,2.395-1.941,4.336-4.335,4.336c-2.395,0-4.336-1.941-4.336-4.336
		C311.17,561.606,313.111,559.665,315.506,559.665z M315.506,559.006c-2.759,0-4.995,2.236-4.995,4.994
		c0,2.759,2.236,4.995,4.995,4.995c2.758,0,4.994-2.236,4.994-4.995l0,0C320.5,561.242,318.264,559.006,315.506,559.006z"/>
	<circle fill="#98C6EA" fill-opacity="0.6" cx="322.486" cy="564" r="4.665"/>
	<path d="M322.486,559.665c2.395,0,4.335,1.941,4.335,4.335l0,0c0,2.395-1.94,4.336-4.335,4.336c-2.394,0-4.335-1.941-4.335-4.336
		C318.151,561.606,320.093,559.665,322.486,559.665z M322.486,559.006c-2.759,0-4.994,2.236-4.994,4.994
		c0,2.759,2.235,4.995,4.994,4.995s4.995-2.236,4.995-4.995l0,0C327.481,561.242,325.245,559.006,322.486,559.006z"/>
	<circle fill="#98C6EA" fill-opacity="0.6" cx="291.379" cy="564" r="4.665"/>
	<path d="M291.379,559.665c2.394,0,4.335,1.941,4.335,4.335l0,0c0,2.395-1.941,4.336-4.335,4.336s-4.335-1.941-4.335-4.336
		C287.044,561.606,288.985,559.665,291.379,559.665z M291.379,559.006c-2.759,0-4.995,2.236-4.995,4.994
		c0,2.759,2.236,4.995,4.995,4.995s4.995-2.236,4.995-4.995l0,0C296.374,561.242,294.138,559.006,291.379,559.006z"/>
	<circle fill="#98C6EA" fill-opacity="0.6" cx="299.488" cy="564" r="4.665"/>
	<path d="M299.488,559.665c2.395,0,4.335,1.941,4.335,4.335l0,0c0,2.395-1.94,4.336-4.335,4.336s-4.335-1.941-4.335-4.336
		C295.153,561.606,297.094,559.665,299.488,559.665z M299.488,559.006c-2.759,0-4.995,2.236-4.995,4.994
		c0,2.759,2.236,4.995,4.995,4.995s4.995-2.236,4.995-4.995l0,0C304.483,561.242,302.247,559.006,299.488,559.006z"/>
	<circle fill="#98C6EA" fill-opacity="0.6" cx="322.266" cy="564" r="4.665"/>
	<path d="M322.266,559.665c2.395,0,4.335,1.941,4.335,4.335l0,0c0,2.395-1.94,4.336-4.335,4.336s-4.335-1.941-4.335-4.336
		C317.931,561.606,319.871,559.665,322.266,559.665z M322.266,559.006c-2.759,0-4.995,2.236-4.995,4.994
		c0,2.759,2.236,4.995,4.995,4.995s4.995-2.236,4.995-4.995l0,0C327.261,561.242,325.024,559.006,322.266,559.006z"/>
	<path fill="#006BA4" d="M1075.156,552.014V564h70.813v-11.985H1075.156z"/>
	<path fill="none" stroke="#000000" stroke-width="0.6597" stroke-linecap="square" stroke-miterlimit="10" d="M1075.156,552.014
		V564V552.014h70.813l0,0V564l0,0h-70.813V552.014"/>
	
		<line fill="none" stroke="#000000" stroke-width="2.6389" stroke-linejoin="round" stroke-miterlimit="10" x1="1075.156" y1="560.386" x2="1145.969" y2="560.386"/>
	
		<line fill="none" stroke="#000000" stroke-width="1.9792" stroke-linejoin="round" stroke-miterlimit="10" x1="1110.563" y1="564" x2="1110.563" y2="564"/>
	
		<line fill="none" stroke="#000000" stroke-width="1.9792" stroke-linejoin="round" stroke-miterlimit="10" x1="1110.563" y1="537.436" x2="1110.563" y2="552.014"/>
	<path fill="none" stroke="#000000" stroke-width="0.6597" stroke-miterlimit="10" d="M1025.758,523.042v10 M1020.758,528.042h10
		 M1022.459,524.744l6.597,6.597 M1022.459,531.341l6.597-6.597"/>
	<path fill="none" stroke="#000000" stroke-width="0.6597" stroke-miterlimit="10" d="M998.25,519.46v10 M993.25,524.46h10
		 M994.951,521.162l6.597,6.597 M994.951,527.759l6.597-6.597"/>
	<circle fill="#006BA4" fill-opacity="0.6" cx="996.158" cy="564" r="4.665"/>
	<path d="M996.158,559.665c2.395,0,4.335,1.941,4.335,4.335l0,0c0,2.395-1.94,4.336-4.335,4.336c-2.394,0-4.335-1.941-4.335-4.336
		C991.823,561.606,993.765,559.665,996.158,559.665z M996.158,559.006c-2.759,0-4.995,2.236-4.995,4.994
		c0,2.759,2.236,4.995,4.995,4.995s4.995-2.236,4.995-4.995l0,0C1001.153,561.242,998.917,559.006,996.158,559.006z"/>
	<circle fill="#006BA4" fill-opacity="0.6" cx="1030.062" cy="564" r="4.665"/>
	<path d="M1030.062,559.665c2.394,0,4.335,1.941,4.335,4.335l0,0c0,2.395-1.941,4.336-4.335,4.336c-2.395,0-4.335-1.941-4.335-4.336
		C1025.727,561.606,1027.667,559.665,1030.062,559.665z M1030.062,559.006c-2.759,0-4.995,2.236-4.995,4.994
		c0,2.759,2.236,4.995,4.995,4.995c2.758,0,4.994-2.236,4.994-4.995l0,0C1035.056,561.242,1032.819,559.006,1030.062,559.006z"/>
	<circle fill="#006BA4" fill-opacity="0.6" cx="1001.171" cy="553.08" r="4.665"/>
	<path d="M1001.171,548.745c2.395,0,4.336,1.94,4.336,4.335l0,0c0,2.394-1.941,4.335-4.336,4.335c-2.394,0-4.335-1.941-4.335-4.335
		C996.836,550.685,998.777,548.745,1001.171,548.745z M1001.171,548.085c-2.758,0-4.994,2.236-4.994,4.995
		c0,2.758,2.236,4.994,4.994,4.994c2.759,0,4.995-2.236,4.995-4.994l0,0C1006.166,550.321,1003.93,548.085,1001.171,548.085z"/>
	<circle fill="#006BA4" fill-opacity="0.6" cx="1017.153" cy="552.014" r="4.665"/>
	<path d="M1017.153,547.679c2.394,0,4.335,1.94,4.335,4.335l0,0c0,2.394-1.941,4.335-4.335,4.335c-2.395,0-4.335-1.941-4.335-4.335
		C1012.818,549.62,1014.759,547.679,1017.153,547.679z M1017.153,547.019c-2.759,0-4.995,2.236-4.995,4.995s2.236,4.994,4.995,4.994
		c2.758,0,4.994-2.235,4.994-4.994l0,0C1022.147,549.256,1019.911,547.019,1017.153,547.019z"/>
	<circle fill="#006BA4" fill-opacity="0.6" cx="998.098" cy="564" r="4.665"/>
	<path d="M998.098,559.665c2.394,0,4.335,1.941,4.335,4.335l0,0c0,2.395-1.941,4.336-4.335,4.336c-2.395,0-4.336-1.941-4.336-4.336
		C993.762,561.606,995.703,559.665,998.098,559.665z M998.098,559.006c-2.759,0-4.995,2.236-4.995,4.994
		c0,2.759,2.236,4.995,4.995,4.995c2.758,0,4.994-2.236,4.994-4.995l0,0C1003.092,561.242,1000.855,559.006,998.098,559.006z"/>
	<circle fill="#006BA4" fill-opacity="0.6" cx="1028.715" cy="555.671" r="4.665"/>
	<path d="M1028.715,551.336c2.394,0,4.335,1.941,4.335,4.335l0,0c0,2.395-1.941,4.335-4.335,4.335c-2.395,0-4.335-1.94-4.335-4.335
		C1024.38,553.277,1026.32,551.336,1028.715,551.336z M1028.715,550.677c-2.759,0-4.995,2.235-4.995,4.994s2.236,4.995,4.995,4.995
		s4.994-2.236,4.994-4.995l0,0C1033.709,552.912,1031.474,550.677,1028.715,550.677z"/>
	<circle fill="#006BA4" fill-opacity="0.6" cx="1002.926" cy="537.436" r="4.665"/>
	<path d="M1002.926,533.101c2.395,0,4.335,1.941,4.335,4.335l0,0c0,2.395-1.94,4.335-4.335,4.335c-2.394,0-4.335-1.94-4.335-4.335
		C998.591,535.043,1000.532,533.101,1002.926,533.101z M1002.926,532.442c-2.759,0-4.994,2.235-4.994,4.994s2.235,4.995,4.994,4.995
		s4.995-2.236,4.995-4.995l0,0C1007.921,534.677,1005.685,532.442,1002.926,532.442z"/>
	<circle fill="#006BA4" fill-opacity="0.6" cx="1031.159" cy="546.449" r="4.665"/>
	<path d="M1031.159,542.114c2.395,0,4.335,1.941,4.335,4.335l0,0c0,2.395-1.94,4.335-4.335,4.335s-4.335-1.94-4.335-4.335
		C1026.824,544.055,1028.765,542.114,1031.159,542.114z M1031.159,541.455c-2.759,0-4.995,2.235-4.995,4.994
		s2.236,4.995,4.995,4.995s4.994-2.236,4.994-4.995l0,0C1036.153,543.69,1033.918,541.455,1031.159,541.455z"/>
	<circle fill="#006BA4" fill-opacity="0.6" cx="997.858" cy="548.399" r="4.665"/>
	<path d="M997.858,544.064c2.395,0,4.335,1.941,4.335,4.335l0,0c0,2.395-1.94,4.335-4.335,4.335s-4.335-1.94-4.335-4.335
		C993.523,546.006,995.464,544.064,997.858,544.064z M997.858,543.404c-2.759,0-4.995,2.236-4.995,4.995s2.236,4.995,4.995,4.995
		s4.995-2.236,4.995-4.995l0,0C1002.854,545.64,1000.617,543.404,997.858,543.404z"/>
	<circle fill="#006BA4" fill-opacity="0.6" cx="1007.616" cy="552.3" r="4.665"/>
	<path d="M1007.616,547.965c2.395,0,4.336,1.94,4.336,4.335l0,0c0,2.395-1.941,4.335-4.336,4.335c-2.394,0-4.335-1.94-4.335-4.335
		S1005.223,547.965,1007.616,547.965z M1007.616,547.304c-2.758,0-4.994,2.236-4.994,4.995s2.236,4.995,4.994,4.995
		c2.759,0,4.995-2.236,4.995-4.995l0,0C1012.611,549.541,1010.375,547.304,1007.616,547.304z"/>
	<circle fill="#006BA4" fill-opacity="0.6" cx="1035.489" cy="553.654" r="4.665"/>
	<path d="M1035.489,549.319c2.395,0,4.335,1.941,4.335,4.335l0,0c0,2.395-1.94,4.335-4.335,4.335s-4.335-1.94-4.335-4.335
		C1031.154,551.26,1033.095,549.319,1035.489,549.319z M1035.489,548.66c-2.759,0-4.994,2.236-4.994,4.994
		c0,2.759,2.235,4.995,4.994,4.995s4.995-2.236,4.995-4.995l0,0C1040.484,550.896,1038.248,548.66,1035.489,548.66z"/>
	<circle fill="#006BA4" fill-opacity="0.6" cx="1015.436" cy="550.719" r="4.665"/>
	<path d="M1015.436,546.384c2.394,0,4.335,1.94,4.335,4.335l0,0c0,2.394-1.941,4.335-4.335,4.335c-2.395,0-4.335-1.941-4.335-4.335
		C1011.101,548.324,1013.041,546.384,1015.436,546.384z M1015.436,545.723c-2.759,0-4.995,2.236-4.995,4.995
		s2.236,4.994,4.995,4.994s4.994-2.235,4.994-4.994l0,0C1020.43,547.96,1018.194,545.723,1015.436,545.723z"/>
	<circle fill="#006BA4" fill-opacity="0.6" cx="1025.449" cy="564" r="4.665"/>
	<path d="M1025.449,559.665c2.394,0,4.335,1.941,4.335,4.335l0,0c0,2.395-1.941,4.336-4.335,4.336c-2.395,0-4.335-1.941-4.335-4.336
		C1021.114,561.606,1023.055,559.665,1025.449,559.665z M1025.449,559.006c-2.759,0-4.995,2.236-4.995,4.994
		c0,2.759,2.236,4.995,4.995,4.995c2.758,0,4.994-2.236,4.994-4.995l0,0C1030.443,561.242,1028.207,559.006,1025.449,559.006z"/>
	<circle fill="#006BA4" fill-opacity="0.6" cx="1028.249" cy="564" r="4.665"/>
	<path d="M1028.249,559.665c2.395,0,4.335,1.941,4.335,4.335l0,0c0,2.395-1.94,4.336-4.335,4.336s-4.335-1.941-4.335-4.336
		C1023.914,561.606,1025.854,559.665,1028.249,559.665z M1028.249,559.006c-2.759,0-4.995,2.236-4.995,4.994
		c0,2.759,2.236,4.995,4.995,4.995s4.995-2.236,4.995-4.995l0,0C1033.244,561.242,1031.008,559.006,1028.249,559.006z"/>
	<circle fill="#006BA4" fill-opacity="0.6" cx="999.384" cy="564" r="4.665"/>
	<path d="M999.384,559.665c2.395,0,4.335,1.941,4.335,4.335l0,0c0,2.395-1.94,4.336-4.335,4.336s-4.335-1.941-4.335-4.336
		C995.049,561.606,996.989,559.665,999.384,559.665z M999.384,559.006c-2.759,0-4.995,2.236-4.995,4.994
		c0,2.759,2.236,4.995,4.995,4.995s4.995-2.236,4.995-4.995l0,0C1004.379,561.242,1002.143,559.006,999.384,559.006z"/>
	<circle fill="#006BA4" fill-opacity="0.6" cx="1010.142" cy="556.773" r="4.665"/>
	<path d="M1010.142,552.438c2.394,0,4.335,1.94,4.335,4.335l0,0c0,2.395-1.941,4.335-4.335,4.335c-2.395,0-4.335-1.94-4.335-4.335
		S1007.747,552.438,1010.142,552.438z M1010.142,551.778c-2.759,0-4.995,2.236-4.995,4.995s2.236,4.995,4.995,4.995
		c2.758,0,4.994-2.236,4.994-4.995l0,0C1015.136,554.014,1012.899,551.778,1010.142,551.778z"/>
	<circle fill="#006BA4" fill-opacity="0.6" cx="1037.597" cy="564" r="4.665"/>
	<path d="M1037.597,559.665c2.394,0,4.335,1.941,4.335,4.335l0,0c0,2.395-1.941,4.336-4.335,4.336c-2.395,0-4.336-1.941-4.336-4.336
		C1033.261,561.606,1035.202,559.665,1037.597,559.665z M1037.597,559.006c-2.759,0-4.995,2.236-4.995,4.994
		c0,2.759,2.236,4.995,4.995,4.995c2.758,0,4.994-2.236,4.994-4.995l0,0C1042.591,561.242,1040.354,559.006,1037.597,559.006z"/>
	<circle fill="#006BA4" fill-opacity="0.6" cx="1030.784" cy="553.971" r="4.665"/>
	<path d="M1030.784,549.635c2.395,0,4.335,1.941,4.335,4.336l0,0c0,2.394-1.94,4.335-4.335,4.335s-4.335-1.941-4.335-4.335
		C1026.449,551.577,1028.39,549.635,1030.784,549.635z M1030.784,548.976c-2.759,0-4.994,2.236-4.994,4.995
		c0,2.758,2.235,4.994,4.994,4.994s4.995-2.236,4.995-4.994l0,0C1035.779,551.213,1033.543,548.976,1030.784,548.976z"/>
	<circle fill="#006BA4" fill-opacity="0.6" cx="1017.627" cy="564" r="4.665"/>
	<path d="M1017.627,559.665c2.394,0,4.335,1.941,4.335,4.335l0,0c0,2.395-1.941,4.336-4.335,4.336c-2.395,0-4.335-1.941-4.335-4.336
		C1013.292,561.606,1015.232,559.665,1017.627,559.665z M1017.627,559.006c-2.759,0-4.995,2.236-4.995,4.994
		c0,2.759,2.236,4.995,4.995,4.995s4.995-2.236,4.995-4.995l0,0C1022.622,561.242,1020.386,559.006,1017.627,559.006z"/>
	<circle fill="#006BA4" fill-opacity="0.6" cx="1001.259" cy="564" r="4.665"/>
	<path d="M1001.259,559.665c2.395,0,4.335,1.941,4.335,4.335l0,0c0,2.395-1.94,4.336-4.335,4.336s-4.335-1.941-4.335-4.336
		C996.924,561.606,998.864,559.665,1001.259,559.665z M1001.259,559.006c-2.759,0-4.995,2.236-4.995,4.994
		c0,2.759,2.236,4.995,4.995,4.995s4.995-2.236,4.995-4.995l0,0C1006.254,561.242,1004.018,559.006,1001.259,559.006z"/>
	<circle fill="#006BA4" fill-opacity="0.6" cx="1022.895" cy="564" r="4.665"/>
	<path d="M1022.895,559.665c2.394,0,4.335,1.941,4.335,4.335l0,0c0,2.395-1.941,4.336-4.335,4.336c-2.395,0-4.335-1.941-4.335-4.336
		C1018.56,561.606,1020.5,559.665,1022.895,559.665z M1022.895,559.006c-2.759,0-4.995,2.236-4.995,4.994
		c0,2.759,2.236,4.995,4.995,4.995s4.994-2.236,4.994-4.995l0,0C1027.889,561.242,1025.653,559.006,1022.895,559.006z"/>
	<circle fill="#006BA4" fill-opacity="0.6" cx="1036.102" cy="564" r="4.665"/>
	<path d="M1036.102,559.665c2.395,0,4.335,1.941,4.335,4.335l0,0c0,2.395-1.94,4.336-4.335,4.336c-2.394,0-4.335-1.941-4.335-4.336
		C1031.767,561.606,1033.708,559.665,1036.102,559.665z M1036.102,559.006c-2.759,0-4.995,2.236-4.995,4.994
		c0,2.759,2.236,4.995,4.995,4.995s4.995-2.236,4.995-4.995l0,0C1041.097,561.242,1038.86,559.006,1036.102,559.006z"/>
	<circle fill="#006BA4" fill-opacity="0.6" cx="1038.422" cy="564" r="4.665"/>
	<path d="M1038.422,559.665c2.394,0,4.335,1.941,4.335,4.335l0,0c0,2.395-1.941,4.336-4.335,4.336c-2.395,0-4.335-1.941-4.335-4.336
		C1034.087,561.606,1036.027,559.665,1038.422,559.665z M1038.422,559.006c-2.759,0-4.995,2.236-4.995,4.994
		c0,2.759,2.236,4.995,4.995,4.995s4.995-2.236,4.995-4.995l0,0C1043.417,561.242,1041.181,559.006,1038.422,559.006z"/>
	<circle fill="#006BA4" fill-opacity="0.6" cx="1009.874" cy="564" r="4.665"/>
	<path d="M1009.874,559.665c2.395,0,4.336,1.941,4.336,4.335l0,0c0,2.395-1.941,4.336-4.336,4.336c-2.394,0-4.335-1.941-4.335-4.336
		C1005.539,561.606,1007.48,559.665,1009.874,559.665z M1009.874,559.006c-2.758,0-4.994,2.236-4.994,4.994
		c0,2.759,2.236,4.995,4.994,4.995c2.759,0,4.995-2.236,4.995-4.995l0,0C1014.869,561.242,1012.633,559.006,1009.874,559.006z"/>
</g>
</svg>
