<?xml version="1.0" encoding="utf-8"?>
<!-- Generator: Adobe Illustrator 16.0.0, SVG Export Plug-In . SVG Version: 6.00 Build 0)  -->
<!DOCTYPE svg PUBLIC "-//W3C//DTD SVG 1.1//EN" "http://www.w3.org/Graphics/SVG/1.1/DTD/svg11.dtd">
<svg version="1.1" id="Layer_1" xmlns="http://www.w3.org/2000/svg" xmlns:xlink="http://www.w3.org/1999/xlink" x="0px" y="0px"
	 width="2924px" height="764px" viewBox="0 0 2924 764" enable-background="new 0 0 2924 764" xml:space="preserve">
<g>
	<g>
		
			<line fill="none" stroke="#000000" stroke-width="2.2431" stroke-linecap="square" stroke-linejoin="round" stroke-miterlimit="10" x1="380" y1="680" x2="2646" y2="680"/>
		
			<line fill="none" stroke="#000000" stroke-width="2.2431" stroke-linecap="square" stroke-linejoin="round" stroke-miterlimit="10" x1="804.875" y1="680" x2="804.875" y2="702.66"/>
		
			<line fill="none" stroke="#000000" stroke-width="2.2431" stroke-linecap="square" stroke-linejoin="round" stroke-miterlimit="10" x1="2221.125" y1="680" x2="2221.125" y2="702.66"/>
	</g>
	<g transform="translate(804.875,708.4656)">
		<text transform="matrix(1 0 0 1 -39 17)" font-family="'MyriadPro-Regular'" font-size="15.8333">Ripples up</text>
	</g>
	<g transform="translate(2221.125,708.4656)">
		<text transform="matrix(1 0 0 1 -50 17)" font-family="'MyriadPro-Regular'" font-size="15.8333">Ripples down</text>
	</g>
	<g>
		
			<line fill="none" stroke="#000000" stroke-width="2.2431" stroke-linecap="square" stroke-linejoin="round" stroke-miterlimit="10" x1="380" y1="680" x2="380" y2="57"/>
		
			<line fill="none" stroke="#000000" stroke-width="2.2431" stroke-linecap="square" stroke-linejoin="round" stroke-miterlimit="10" x1="380" y1="680" x2="357.34" y2="680"/>
		
			<line fill="none" stroke="#000000" stroke-width="2.2431" stroke-linecap="square" stroke-linejoin="round" stroke-miterlimit="10" x1="380" y1="620.667" x2="357.34" y2="620.667"/>
		
			<line fill="none" stroke="#000000" stroke-width="2.2431" stroke-linecap="square" stroke-linejoin="round" stroke-miterlimit="10" x1="380" y1="561.334" x2="357.34" y2="561.334"/>
		
			<line fill="none" stroke="#000000" stroke-width="2.2431" stroke-linecap="square" stroke-linejoin="round" stroke-miterlimit="10" x1="380" y1="502" x2="357.34" y2="502"/>
		
			<line fill="none" stroke="#000000" stroke-width="2.2431" stroke-linecap="square" stroke-linejoin="round" stroke-miterlimit="10" x1="380" y1="442.667" x2="357.34" y2="442.667"/>
		
			<line fill="none" stroke="#000000" stroke-width="2.2431" stroke-linecap="square" stroke-linejoin="round" stroke-miterlimit="10" x1="380" y1="383.334" x2="357.34" y2="383.334"/>
		
			<line fill="none" stroke="#000000" stroke-width="2.2431" stroke-linecap="square" stroke-linejoin="round" stroke-miterlimit="10" x1="380" y1="324" x2="357.34" y2="324"/>
		
			<line fill="none" stroke="#000000" stroke-width="2.2431" stroke-linecap="square" stroke-linejoin="round" stroke-miterlimit="10" x1="380" y1="264.667" x2="357.34" y2="264.667"/>
		
			<line fill="none" stroke="#000000" stroke-width="2.2431" stroke-linecap="square" stroke-linejoin="round" stroke-miterlimit="10" x1="380" y1="205.334" x2="357.34" y2="205.334"/>
		
			<line fill="none" stroke="#000000" stroke-width="2.2431" stroke-linecap="square" stroke-linejoin="round" stroke-miterlimit="10" x1="380" y1="146" x2="357.34" y2="146"/>
		
			<line fill="none" stroke="#000000" stroke-width="2.2431" stroke-linecap="square" stroke-linejoin="round" stroke-miterlimit="10" x1="380" y1="86.667" x2="357.34" y2="86.667"/>
	</g>
	<g transform="translate(351.5345,680)">
		<text transform="matrix(1 0 0 1 -9.9998 5.9998)" font-family="'MyriadPro-Regular'" font-size="15.8333">0</text>
	</g>
	<g transform="translate(351.5345,620.6667)">
		<text transform="matrix(1 0 0 1 -18.9998 6.0001)" font-family="'MyriadPro-Regular'" font-size="15.8333">10</text>
	</g>
	<g transform="translate(351.5345,561.3333)">
		<text transform="matrix(1 0 0 1 -18.9998 6.0004)" font-family="'MyriadPro-Regular'" font-size="15.8333">20</text>
	</g>
	<g transform="translate(351.5345,502)">
		<text transform="matrix(1 0 0 1 -18.9998 5.9998)" font-family="'MyriadPro-Regular'" font-size="15.8333">30</text>
	</g>
	<g transform="translate(351.5345,442.6667)">
		<text transform="matrix(1 0 0 1 -18.9998 6.0001)" font-family="'MyriadPro-Regular'" font-size="15.8333">40</text>
	</g>
	<g transform="translate(351.5345,383.3333)">
		<text transform="matrix(1 0 0 1 -18.9998 6.0004)" font-family="'MyriadPro-Regular'" font-size="15.8333">50</text>
	</g>
	<g transform="translate(351.5345,324)">
		<text transform="matrix(1 0 0 1 -18.9998 5.9998)" font-family="'MyriadPro-Regular'" font-size="15.8333">60</text>
	</g>
	<g transform="translate(351.5345,264.6667)">
		<text transform="matrix(1 0 0 1 -18.9998 6.0001)" font-family="'MyriadPro-Regular'" font-size="15.8333">70</text>
	</g>
	<g transform="translate(351.5345,205.3333)">
		<text transform="matrix(1 0 0 1 -18.9998 6.0004)" font-family="'MyriadPro-Regular'" font-size="15.8333">80</text>
	</g>
	<g transform="translate(351.5345,146)">
		<text transform="matrix(1 0 0 1 -18.9998 5.9998)" font-family="'MyriadPro-Regular'" font-size="15.8333">90</text>
	</g>
	<g transform="translate(351.5345,86.6667)">
		<text transform="matrix(1 0 0 1 -27.9998 6.0001)" font-family="'MyriadPro-Regular'" font-size="15.8333">100</text>
	</g>
	<g transform="translate(319.5761,368.4997) rotate(-90)">
		<text transform="matrix(1 0 0 1 -102.0001 -5.9999)" font-family="'MyriadPro-Regular'" font-size="19">Percentage of neurons</text>
	</g>
	<g transform="translate(1513.0013,53.1)">
		<text transform="matrix(1 0 0 1 -438.4999 -6.9996)" font-family="'MyriadPro-Regular'" font-size="20.5833">Percentage of neurons recruted in HPC during ripples occuring at up vs down of the NR US</text>
	</g>
	<g>
		<path fill="#A2C891" d="M734.063,668.91V680h141.625v-11.09H734.063z"/>
	</g>
	<g>
		<path fill="none" stroke="#000000" stroke-width="0.6597" stroke-linecap="square" stroke-miterlimit="10" d="M734.063,668.91V680
			V668.91h141.625l0,0V680l0,0H734.063V668.91"/>
		
			<line fill="none" stroke="#000000" stroke-width="2.6389" stroke-linejoin="round" stroke-miterlimit="10" x1="734.063" y1="677.175" x2="875.688" y2="677.175"/>
		
			<line fill="none" stroke="#000000" stroke-width="1.9792" stroke-linejoin="round" stroke-miterlimit="10" x1="804.875" y1="680" x2="804.875" y2="680"/>
		
			<line fill="none" stroke="#000000" stroke-width="1.9792" stroke-linejoin="round" stroke-miterlimit="10" x1="804.875" y1="659.059" x2="804.875" y2="668.91"/>
		<path fill="none" stroke="#000000" stroke-width="0.6597" stroke-miterlimit="10" d="M644.687,613.621v10 M639.687,618.621h10
			 M641.388,615.322l6.597,6.598 M641.388,621.92l6.597-6.598"/>
	</g>
	<g transform="translate(631.232,672.3932)">
		<circle fill="#A2C891" fill-opacity="0.6" cx="0" cy="0" r="4.665"/>
	</g>
	<g transform="translate(631.232,672.3932)">
		<path d="M0-4.335c2.394,0,4.335,1.94,4.335,4.335l0,0c0,2.395-1.941,4.335-4.335,4.335c-2.395,0-4.336-1.94-4.336-4.335
			S-2.394-4.335,0-4.335z M0-4.995c-2.759,0-4.995,2.236-4.995,4.995S-2.758,4.995,0,4.995c2.758,0,4.994-2.236,4.994-4.995l0,0
			C4.995-2.759,2.758-4.995,0-4.995z"/>
	</g>
	<g transform="translate(641.5128,674.3492)">
		<circle fill="#A2C891" fill-opacity="0.6" cx="0" cy="0" r="4.665"/>
	</g>
	<g transform="translate(641.5128,674.3492)">
		<path d="M0-4.335c2.395,0,4.335,1.94,4.335,4.335l0,0c0,2.395-1.94,4.335-4.335,4.335S-4.335,2.395-4.335,0S-2.395-4.335,0-4.335z
			 M0-4.995c-2.759,0-4.995,2.236-4.995,4.995S-2.759,4.995,0,4.995S4.995,2.759,4.995,0l0,0C4.995-2.759,2.759-4.995,0-4.995z"/>
	</g>
	<g transform="translate(595.3372,670.2733)">
		<circle fill="#A2C891" fill-opacity="0.6" cx="0" cy="0" r="4.665"/>
	</g>
	<g transform="translate(595.3372,670.2733)">
		<path d="M0-4.335c2.395,0,4.335,1.941,4.335,4.335l0,0c0,2.395-1.94,4.336-4.335,4.336c-2.394,0-4.335-1.941-4.335-4.336
			C-4.335-2.394-2.394-4.335,0-4.335z M0-4.994c-2.758,0-4.994,2.236-4.994,4.994c0,2.759,2.236,4.995,4.994,4.995
			c2.759,0,4.995-2.236,4.995-4.995l0,0C4.995-2.758,2.758-4.994,0-4.994z"/>
	</g>
	<g transform="translate(654.9294,662.549)">
		<circle fill="#A2C891" fill-opacity="0.6" cx="0" cy="0.001" r="4.665"/>
	</g>
	<g transform="translate(654.9294,662.549)">
		<path d="M0-4.334c2.394,0,4.335,1.94,4.335,4.335l0,0c0,2.394-1.941,4.335-4.335,4.335c-2.395,0-4.335-1.941-4.335-4.335
			C-4.335-2.394-2.394-4.334,0-4.334z M0-4.995c-2.759,0-4.995,2.236-4.995,4.995S-2.758,4.995,0,4.995s4.994-2.235,4.994-4.994l0,0
			C4.994-2.758,2.759-4.995,0-4.995z"/>
	</g>
	<g transform="translate(650.0477,668.9097)">
		<circle fill="#A2C891" fill-opacity="0.6" cx="0" cy="0" r="4.665"/>
	</g>
	<g transform="translate(650.0477,668.9097)">
		<path d="M0-4.335c2.395,0,4.335,1.94,4.335,4.335l0,0c0,2.395-1.94,4.335-4.335,4.335S-4.335,2.395-4.335,0S-2.394-4.335,0-4.335z
			 M0-4.995c-2.759,0-4.995,2.236-4.995,4.995S-2.759,4.995,0,4.995S4.995,2.759,4.995,0l0,0C4.995-2.759,2.759-4.995,0-4.995z"/>
	</g>
	<g transform="translate(607.7386,670.7292)">
		<circle fill="#A2C891" fill-opacity="0.6" cx="0" cy="0" r="4.665"/>
	</g>
	<g transform="translate(607.7386,670.7292)">
		<path d="M0-4.335c2.395,0,4.335,1.941,4.335,4.335l0,0c0,2.395-1.94,4.335-4.335,4.335c-2.394,0-4.335-1.94-4.335-4.335
			C-4.335-2.393-2.394-4.335,0-4.335z M0-4.994c-2.759,0-4.994,2.235-4.994,4.994S-2.759,4.995,0,4.995S4.995,2.759,4.995,0l0,0
			C4.995-2.759,2.758-4.994,0-4.994z"/>
	</g>
	<g transform="translate(636.2161,667.1014)">
		<circle fill="#A2C891" fill-opacity="0.6" cx="0" cy="0" r="4.665"/>
	</g>
	<g transform="translate(636.2161,667.1014)">
		<path d="M0-4.335c2.395,0,4.335,1.941,4.335,4.335l0,0c0,2.395-1.94,4.335-4.335,4.335c-2.394,0-4.335-1.94-4.335-4.335
			C-4.335-2.394-2.394-4.335,0-4.335z M0-4.994c-2.758,0-4.994,2.236-4.994,4.994c0,2.759,2.236,4.995,4.994,4.995
			c2.759,0,4.995-2.236,4.995-4.995l0,0C4.995-2.758,2.758-4.994,0-4.994z"/>
	</g>
	<g transform="translate(575.8043,659.0588)">
		<circle fill="#A2C891" fill-opacity="0.6" cx="0" cy="0.001" r="4.665"/>
	</g>
	<g transform="translate(575.8043,659.0588)">
		<path d="M0-4.334c2.394,0,4.335,1.94,4.335,4.335l0,0c0,2.394-1.941,4.335-4.335,4.335c-2.395,0-4.335-1.941-4.335-4.335
			C-4.335-2.394-2.394-4.334,0-4.334z M0-4.995c-2.759,0-4.995,2.236-4.995,4.995S-2.758,4.995,0,4.995
			c2.758,0,4.994-2.235,4.994-4.994l0,0C4.995-2.758,2.758-4.995,0-4.995z"/>
	</g>
	<g transform="translate(645.1368,659.1813)">
		<circle fill="#A2C891" fill-opacity="0.6" cx="0" cy="0" r="4.665"/>
	</g>
	<g transform="translate(645.1368,659.1813)">
		<path d="M0-4.335c2.395,0,4.335,1.94,4.335,4.335l0,0c0,2.395-1.94,4.335-4.335,4.335S-4.335,2.395-4.335,0S-2.395-4.335,0-4.335z
			 M0-4.995c-2.759,0-4.995,2.236-4.995,4.995S-2.759,4.995,0,4.995S4.995,2.759,4.995,0l0,0C4.995-2.759,2.759-4.995,0-4.995z"/>
	</g>
	<g transform="translate(640.6937,662.2886)">
		<circle fill="#A2C891" fill-opacity="0.6" cx="0" cy="0" r="4.665"/>
	</g>
	<g transform="translate(640.6937,662.2886)">
		<path d="M0-4.335c2.395,0,4.335,1.94,4.335,4.335l0,0c0,2.395-1.94,4.335-4.335,4.335c-2.394,0-4.335-1.94-4.335-4.335
			S-2.394-4.335,0-4.335z M0-4.995c-2.758,0-4.994,2.236-4.994,4.995S-2.758,4.995,0,4.995c2.759,0,4.995-2.236,4.995-4.995l0,0
			C4.995-2.759,2.758-4.995,0-4.995z"/>
	</g>
	<g transform="translate(650.7682,680)">
		<circle fill="#A2C891" fill-opacity="0.6" cx="0" cy="0" r="4.665"/>
	</g>
	<g transform="translate(650.7682,680)">
		<path d="M0-4.335c2.394,0,4.335,1.941,4.335,4.335l0,0c0,2.395-1.941,4.336-4.335,4.336c-2.395,0-4.336-1.941-4.336-4.336
			C-4.336-2.394-2.394-4.335,0-4.335z M0-4.994c-2.759,0-4.995,2.236-4.995,4.994c0,2.759,2.236,4.995,4.995,4.995
			c2.758,0,4.994-2.236,4.994-4.995l0,0C4.995-2.758,2.758-4.994,0-4.994z"/>
	</g>
	<g transform="translate(647.9737,680)">
		<circle fill="#A2C891" fill-opacity="0.6" cx="0" cy="0" r="4.665"/>
	</g>
	<g transform="translate(647.9737,680)">
		<path d="M0-4.335c2.395,0,4.335,1.941,4.335,4.335l0,0c0,2.395-1.94,4.336-4.335,4.336S-4.335,2.394-4.335,0
			C-4.335-2.394-2.395-4.335,0-4.335z M0-4.994c-2.759,0-4.995,2.236-4.995,4.994c0,2.759,2.236,4.995,4.995,4.995
			S4.995,2.759,4.995,0l0,0C4.995-2.758,2.759-4.994,0-4.994z"/>
	</g>
	<g transform="translate(645.329,680)">
		<circle fill="#A2C891" fill-opacity="0.6" cx="0" cy="0" r="4.665"/>
	</g>
	<g transform="translate(645.329,680)">
		<path d="M0-4.335c2.395,0,4.335,1.941,4.335,4.335l0,0c0,2.395-1.94,4.336-4.335,4.336S-4.335,2.394-4.335,0
			C-4.335-2.394-2.394-4.335,0-4.335z M0-4.994c-2.759,0-4.995,2.236-4.995,4.994c0,2.759,2.236,4.995,4.995,4.995
			S4.995,2.759,4.995,0l0,0C4.995-2.758,2.759-4.994,0-4.994z"/>
	</g>
	<g transform="translate(618.5824,680)">
		<circle fill="#A2C891" fill-opacity="0.6" cx="0" cy="0" r="4.665"/>
	</g>
	<g transform="translate(618.5824,680)">
		<path d="M0-4.335c2.395,0,4.335,1.941,4.335,4.335l0,0c0,2.395-1.94,4.336-4.335,4.336c-2.394,0-4.335-1.941-4.335-4.336
			C-4.335-2.394-2.394-4.335,0-4.335z M0-4.994c-2.758,0-4.994,2.236-4.994,4.994c0,2.759,2.236,4.995,4.994,4.995
			c2.759,0,4.995-2.236,4.995-4.995l0,0C4.995-2.758,2.758-4.994,0-4.994z"/>
	</g>
	<g transform="translate(639.0267,680)">
		<circle fill="#A2C891" fill-opacity="0.6" cx="0" cy="0" r="4.665"/>
	</g>
	<g transform="translate(639.0267,680)">
		<path d="M0-4.335c2.395,0,4.335,1.941,4.335,4.335l0,0c0,2.395-1.94,4.336-4.335,4.336c-2.394,0-4.335-1.941-4.335-4.336
			C-4.335-2.394-2.394-4.335,0-4.335z M0-4.994c-2.758,0-4.994,2.236-4.994,4.994c0,2.759,2.236,4.995,4.994,4.995
			c2.759,0,4.995-2.236,4.995-4.995l0,0C4.995-2.758,2.758-4.994,0-4.994z"/>
	</g>
	<g transform="translate(637.4985,680)">
		<circle fill="#A2C891" fill-opacity="0.6" cx="0" cy="0" r="4.665"/>
	</g>
	<g transform="translate(637.4985,680)">
		<path d="M0-4.335c2.395,0,4.336,1.941,4.336,4.335l0,0c0,2.395-1.941,4.336-4.336,4.336c-2.394,0-4.335-1.941-4.335-4.336
			C-4.335-2.394-2.394-4.335,0-4.335z M0-4.994c-2.758,0-4.994,2.236-4.994,4.994c0,2.759,2.236,4.995,4.994,4.995
			c2.759,0,4.995-2.236,4.995-4.995l0,0C4.995-2.758,2.758-4.994,0-4.994z"/>
	</g>
	<g transform="translate(654.9617,672.9365)">
		<circle fill="#A2C891" fill-opacity="0.6" cx="0" cy="0" r="4.665"/>
	</g>
	<g transform="translate(654.9617,672.9365)">
		<path d="M0-4.335c2.394,0,4.335,1.941,4.335,4.336l0,0c0,2.394-1.941,4.335-4.335,4.335c-2.395,0-4.335-1.941-4.335-4.335
			C-4.335-2.394-2.394-4.335,0-4.335z M0-4.994c-2.759,0-4.995,2.236-4.995,4.995c0,2.758,2.236,4.994,4.995,4.994
			s4.994-2.236,4.994-4.994l0,0C4.994-2.758,2.759-4.994,0-4.994z"/>
	</g>
	<g transform="translate(643.6751,680)">
		<circle fill="#A2C891" fill-opacity="0.6" cx="0" cy="0" r="4.665"/>
	</g>
	<g transform="translate(643.6751,680)">
		<path d="M0-4.335c2.395,0,4.335,1.941,4.335,4.335l0,0c0,2.395-1.94,4.336-4.335,4.336c-2.394,0-4.335-1.941-4.335-4.336
			C-4.335-2.394-2.394-4.335,0-4.335z M0-4.994c-2.758,0-4.994,2.236-4.994,4.994c0,2.759,2.236,4.995,4.994,4.995
			c2.759,0,4.995-2.236,4.995-4.995l0,0C4.995-2.758,2.758-4.994,0-4.994z"/>
	</g>
	<g transform="translate(594.3066,669.4985)">
		<circle fill="#A2C891" fill-opacity="0.6" cx="0" cy="0" r="4.665"/>
	</g>
	<g transform="translate(594.3066,669.4985)">
		<path d="M0-4.335c2.395,0,4.335,1.94,4.335,4.335l0,0c0,2.395-1.94,4.335-4.335,4.335S-4.335,2.395-4.335,0S-2.394-4.335,0-4.335z
			 M0-4.995c-2.759,0-4.995,2.236-4.995,4.995S-2.759,4.995,0,4.995S4.995,2.759,4.995,0l0,0C4.995-2.758,2.759-4.995,0-4.995z"/>
	</g>
	<g transform="translate(606.2593,680)">
		<circle fill="#A2C891" fill-opacity="0.6" cx="0" cy="0" r="4.665"/>
	</g>
	<g transform="translate(606.2593,680)">
		<path d="M0-4.335c2.395,0,4.336,1.941,4.336,4.335l0,0c0,2.395-1.941,4.336-4.336,4.336c-2.394,0-4.335-1.941-4.335-4.336
			C-4.335-2.394-2.394-4.335,0-4.335z M0-4.994c-2.758,0-4.994,2.236-4.994,4.994c0,2.759,2.236,4.995,4.994,4.995
			c2.759,0,4.995-2.236,4.995-4.995l0,0C4.995-2.758,2.758-4.994,0-4.994z"/>
	</g>
	<g transform="translate(663.0283,680)">
		<circle fill="#A2C891" fill-opacity="0.6" cx="0" cy="0" r="4.665"/>
	</g>
	<g transform="translate(663.0283,680)">
		<path d="M0-4.335c2.395,0,4.335,1.941,4.335,4.335l0,0c0,2.395-1.94,4.336-4.335,4.336S-4.335,2.394-4.335,0
			C-4.335-2.394-2.395-4.335,0-4.335z M0-4.994c-2.759,0-4.995,2.236-4.995,4.994c0,2.759,2.236,4.995,4.995,4.995
			S4.995,2.759,4.995,0l0,0C4.995-2.758,2.759-4.994,0-4.994z"/>
	</g>
	<g transform="translate(645.8256,680)">
		<circle fill="#A2C891" fill-opacity="0.6" cx="0" cy="0" r="4.665"/>
	</g>
	<g transform="translate(645.8256,680)">
		<path d="M0-4.335c2.395,0,4.336,1.941,4.336,4.335l0,0c0,2.395-1.941,4.336-4.336,4.336c-2.394,0-4.335-1.941-4.335-4.336
			C-4.335-2.394-2.394-4.335,0-4.335z M0-4.994c-2.758,0-4.994,2.236-4.994,4.994c0,2.759,2.236,4.995,4.994,4.995
			c2.759,0,4.995-2.236,4.995-4.995l0,0C4.995-2.758,2.758-4.994,0-4.994z"/>
	</g>
	<g transform="translate(636.6481,680)">
		<circle fill="#A2C891" fill-opacity="0.6" cx="0" cy="0" r="4.665"/>
	</g>
	<g transform="translate(636.6481,680)">
		<path d="M0-4.335c2.394,0,4.335,1.941,4.335,4.335l0,0c0,2.395-1.941,4.336-4.335,4.336c-2.395,0-4.335-1.941-4.335-4.336
			C-4.335-2.394-2.394-4.335,0-4.335z M0-4.994c-2.759,0-4.995,2.236-4.995,4.994c0,2.759,2.236,4.995,4.995,4.995
			c2.758,0,4.994-2.236,4.994-4.995l0,0C4.995-2.758,2.758-4.994,0-4.994z"/>
	</g>
	<g transform="translate(573.668,680)">
		<circle fill="#A2C891" fill-opacity="0.6" cx="0" cy="0" r="4.665"/>
	</g>
	<g transform="translate(573.668,680)">
		<path d="M0-4.335c2.395,0,4.335,1.941,4.335,4.335l0,0c0,2.395-1.94,4.336-4.335,4.336S-4.335,2.394-4.335,0
			C-4.335-2.394-2.395-4.335,0-4.335z M0-4.994c-2.759,0-4.995,2.236-4.995,4.994c0,2.759,2.236,4.995,4.995,4.995
			S4.995,2.759,4.995,0l0,0C4.995-2.758,2.759-4.994,0-4.994z"/>
	</g>
	<g transform="translate(618.1146,680)">
		<circle fill="#A2C891" fill-opacity="0.6" cx="0" cy="0" r="4.665"/>
	</g>
	<g transform="translate(618.1146,680)">
		<path d="M0-4.335c2.395,0,4.336,1.941,4.336,4.335l0,0c0,2.395-1.941,4.336-4.336,4.336c-2.394,0-4.335-1.941-4.335-4.336
			C-4.335-2.394-2.394-4.335,0-4.335z M0-4.994c-2.758,0-4.994,2.236-4.994,4.994c0,2.759,2.236,4.995,4.994,4.995
			c2.759,0,4.995-2.236,4.995-4.995l0,0C4.995-2.758,2.758-4.994,0-4.994z"/>
	</g>
	<g>
		<path fill="#006D2C" d="M2150.313,663.365V680h141.625v-16.635H2150.313z"/>
	</g>
	<g>
		<path fill="none" stroke="#000000" stroke-width="0.6597" stroke-linecap="square" stroke-miterlimit="10" d="M2150.313,663.365
			V680V663.365h141.625l0,0V680l0,0h-141.625V663.365"/>
		
			<line fill="none" stroke="#000000" stroke-width="2.6389" stroke-linejoin="round" stroke-miterlimit="10" x1="2150.313" y1="672.978" x2="2291.938" y2="672.978"/>
		
			<line fill="none" stroke="#000000" stroke-width="1.9792" stroke-linejoin="round" stroke-miterlimit="10" x1="2221.125" y1="680" x2="2221.125" y2="680"/>
		
			<line fill="none" stroke="#000000" stroke-width="1.9792" stroke-linejoin="round" stroke-miterlimit="10" x1="2221.125" y1="645.098" x2="2221.125" y2="663.365"/>
		<path fill="none" stroke="#000000" stroke-width="0.6597" stroke-miterlimit="10" d="M2064.479,613.621v10 M2059.479,618.621h10
			 M2061.181,615.322l6.597,6.598 M2061.181,621.92l6.597-6.598"/>
	</g>
	<g transform="translate(2048.9919,664.7863)">
		<circle fill="#006D2C" fill-opacity="0.6" cx="0" cy="0.001" r="4.665"/>
	</g>
	<g transform="translate(2048.9919,664.7863)">
		<path d="M0-4.334c2.394,0,4.335,1.94,4.335,4.335l0,0c0,2.394-1.941,4.335-4.335,4.335c-2.395,0-4.335-1.941-4.335-4.335
			C-4.335-2.394-2.394-4.334,0-4.334z M0-4.995c-2.759,0-4.995,2.236-4.995,4.995c0,2.758,2.236,4.994,4.995,4.994
			s4.995-2.236,4.995-4.994l0,0C4.995-2.758,2.759-4.995,0-4.995z"/>
	</g>
	<g transform="translate(2027.2246,668.6984)">
		<circle fill="#006D2C" fill-opacity="0.6" cx="0" cy="0.001" r="4.665"/>
	</g>
	<g transform="translate(2027.2246,668.6984)">
		<path d="M0-4.334c2.395,0,4.335,1.94,4.335,4.335l0,0c0,2.394-1.94,4.335-4.335,4.335s-4.335-1.941-4.335-4.335
			C-4.335-2.394-2.395-4.334,0-4.334z M0-4.995c-2.759,0-4.995,2.236-4.995,4.995c0,2.758,2.236,4.994,4.995,4.994
			s4.995-2.236,4.995-4.994l0,0C4.995-2.758,2.759-4.995,0-4.995z"/>
	</g>
	<g transform="translate(1999.552,670.2733)">
		<circle fill="#006D2C" fill-opacity="0.6" cx="0" cy="0" r="4.665"/>
	</g>
	<g transform="translate(1999.552,670.2733)">
		<path d="M0-4.335c2.395,0,4.335,1.941,4.335,4.335l0,0c0,2.395-1.94,4.336-4.335,4.336c-2.394,0-4.335-1.941-4.335-4.336
			C-4.335-2.394-2.394-4.335,0-4.335z M0-4.994c-2.758,0-4.994,2.236-4.994,4.994c0,2.759,2.236,4.995,4.994,4.995
			c2.759,0,4.995-2.236,4.995-4.995l0,0C4.995-2.758,2.759-4.994,0-4.994z"/>
	</g>
	<g transform="translate(2012.3596,645.098)">
		<circle fill="#006D2C" fill-opacity="0.6" cx="0" cy="0" r="4.665"/>
	</g>
	<g transform="translate(2012.3596,645.098)">
		<path d="M0-4.335c2.395,0,4.335,1.94,4.335,4.335l0,0c0,2.395-1.94,4.335-4.335,4.335c-2.394,0-4.335-1.94-4.335-4.335
			S-2.394-4.335,0-4.335z M0-4.995c-2.759,0-4.994,2.236-4.994,4.995S-2.759,4.995,0,4.995S4.995,2.759,4.995,0l0,0
			C4.995-2.758,2.759-4.995,0-4.995z"/>
	</g>
	<g transform="translate(2048.3286,663.3645)">
		<circle fill="#006D2C" fill-opacity="0.6" cx="0" cy="0" r="4.665"/>
	</g>
	<g transform="translate(2048.3286,663.3645)">
		<path d="M0-4.334c2.394,0,4.335,1.94,4.335,4.335l0,0c0,2.394-1.941,4.335-4.335,4.335c-2.395,0-4.336-1.941-4.336-4.335
			C-4.335-2.394-2.394-4.334,0-4.334z M0-4.995c-2.759,0-4.995,2.236-4.995,4.995S-2.758,4.995,0,4.995
			c2.758,0,4.994-2.235,4.994-4.994l0,0C4.995-2.758,2.758-4.995,0-4.995z"/>
	</g>
	<g transform="translate(2074.5525,670.7292)">
		<circle fill="#006D2C" fill-opacity="0.6" cx="0" cy="0" r="4.665"/>
	</g>
	<g transform="translate(2074.5525,670.7292)">
		<path d="M0-4.335c2.394,0,4.335,1.941,4.335,4.335l0,0c0,2.395-1.941,4.335-4.335,4.335c-2.395,0-4.335-1.94-4.335-4.335
			C-4.335-2.393-2.394-4.335,0-4.335z M0-4.994c-2.759,0-4.995,2.235-4.995,4.994S-2.759,4.995,0,4.995S4.995,2.759,4.995,0l0,0
			C4.995-2.759,2.759-4.994,0-4.994z"/>
	</g>
	<g transform="translate(2003.4563,654.2029)">
		<circle fill="#006D2C" fill-opacity="0.6" cx="0" cy="0" r="4.665"/>
	</g>
	<g transform="translate(2003.4563,654.2029)">
		<path d="M0-4.335c2.395,0,4.335,1.941,4.335,4.335l0,0c0,2.395-1.94,4.335-4.335,4.335c-2.394,0-4.335-1.94-4.335-4.335
			C-4.335-2.394-2.394-4.335,0-4.335z M0-4.994c-2.758,0-4.994,2.235-4.994,4.994S-2.758,4.995,0,4.995
			c2.759,0,4.995-2.236,4.995-4.995l0,0C4.995-2.759,2.759-4.994,0-4.994z"/>
	</g>
	<g transform="translate(2047.3926,673.0196)">
		<circle fill="#006D2C" fill-opacity="0.6" cx="0" cy="0" r="4.665"/>
	</g>
	<g transform="translate(2047.3926,673.0196)">
		<path d="M0-4.335c2.395,0,4.335,1.941,4.335,4.336l0,0c0,2.394-1.94,4.335-4.335,4.335s-4.335-1.941-4.335-4.335
			C-4.335-2.394-2.395-4.335,0-4.335z M0-4.994c-2.759,0-4.995,2.236-4.995,4.995c0,2.758,2.236,4.994,4.995,4.994
			s4.995-2.236,4.995-4.994l0,0C4.995-2.758,2.759-4.994,0-4.994z"/>
	</g>
	<g transform="translate(2024.2805,659.1813)">
		<circle fill="#006D2C" fill-opacity="0.6" cx="0" cy="0" r="4.665"/>
	</g>
	<g transform="translate(2024.2805,659.1813)">
		<path d="M0-4.335c2.395,0,4.335,1.94,4.335,4.335l0,0c0,2.395-1.94,4.335-4.335,4.335c-2.394,0-4.335-1.94-4.335-4.335
			S-2.394-4.335,0-4.335z M0-4.995c-2.758,0-4.994,2.236-4.994,4.995S-2.758,4.995,0,4.995c2.759,0,4.995-2.236,4.995-4.995l0,0
			C4.995-2.759,2.759-4.995,0-4.995z"/>
	</g>
	<g transform="translate(2019.8783,662.2886)">
		<circle fill="#006D2C" fill-opacity="0.6" cx="0" cy="0" r="4.665"/>
	</g>
	<g transform="translate(2019.8783,662.2886)">
		<path d="M0-4.335c2.395,0,4.336,1.94,4.336,4.335l0,0c0,2.395-1.941,4.335-4.336,4.335c-2.394,0-4.335-1.94-4.335-4.335
			S-2.394-4.335,0-4.335z M0-4.995c-2.758,0-4.994,2.236-4.994,4.995S-2.758,4.995,0,4.995c2.759,0,4.995-2.236,4.995-4.995l0,0
			C4.995-2.759,2.758-4.995,0-4.995z"/>
	</g>
	<g transform="translate(1991.3259,665.873)">
		<circle fill="#006D2C" fill-opacity="0.6" cx="0" cy="0" r="4.665"/>
	</g>
	<g transform="translate(1991.3259,665.873)">
		<path d="M0-4.335c2.394,0,4.335,1.941,4.335,4.335l0,0c0,2.395-1.941,4.336-4.335,4.336c-2.395,0-4.335-1.941-4.335-4.336
			C-4.335-2.394-2.394-4.335,0-4.335z M0-4.994c-2.759,0-4.995,2.236-4.995,4.994c0,2.759,2.236,4.995,4.995,4.995
			S4.994,2.759,4.994,0l0,0C4.994-2.758,2.759-4.994,0-4.994z"/>
	</g>
	<g transform="translate(2022.6656,680)">
		<circle fill="#006D2C" fill-opacity="0.6" cx="0" cy="0" r="4.665"/>
	</g>
	<g transform="translate(2022.6656,680)">
		<path d="M0-4.335c2.394,0,4.335,1.941,4.335,4.335l0,0c0,2.395-1.941,4.336-4.335,4.336c-2.395,0-4.335-1.941-4.335-4.336
			C-4.335-2.394-2.394-4.335,0-4.335z M0-4.994c-2.759,0-4.995,2.236-4.995,4.994c0,2.759,2.236,4.995,4.995,4.995
			c2.758,0,4.994-2.236,4.994-4.995l0,0C4.995-2.758,2.758-4.994,0-4.994z"/>
	</g>
	<g transform="translate(2057.3213,680)">
		<circle fill="#006D2C" fill-opacity="0.6" cx="0" cy="0" r="4.665"/>
	</g>
	<g transform="translate(2057.3213,680)">
		<path d="M0-4.335c2.395,0,4.335,1.941,4.335,4.335l0,0c0,2.395-1.94,4.336-4.335,4.336S-4.335,2.394-4.335,0
			C-4.335-2.394-2.395-4.335,0-4.335z M0-4.994c-2.759,0-4.995,2.236-4.995,4.994c0,2.759,2.236,4.995,4.995,4.995
			S4.995,2.759,4.995,0l0,0C4.995-2.758,2.759-4.994,0-4.994z"/>
	</g>
	<g transform="translate(1996.1199,680)">
		<circle fill="#006D2C" fill-opacity="0.6" cx="0" cy="0" r="4.665"/>
	</g>
	<g transform="translate(1996.1199,680)">
		<path d="M0-4.335c2.394,0,4.335,1.941,4.335,4.335l0,0c0,2.395-1.941,4.336-4.335,4.336c-2.395,0-4.335-1.941-4.335-4.336
			C-4.335-2.394-2.394-4.335,0-4.335z M0-4.994c-2.759,0-4.995,2.236-4.995,4.994c0,2.759,2.236,4.995,4.995,4.995
			c2.758,0,4.994-2.236,4.994-4.995l0,0C4.994-2.758,2.758-4.994,0-4.994z"/>
	</g>
	<g transform="translate(2045.542,660.2222)">
		<circle fill="#006D2C" fill-opacity="0.6" cx="0" cy="0" r="4.665"/>
	</g>
	<g transform="translate(2045.542,660.2222)">
		<path d="M0-4.335c2.395,0,4.335,1.94,4.335,4.335l0,0c0,2.395-1.94,4.335-4.335,4.335S-4.335,2.395-4.335,0S-2.395-4.335,0-4.335z
			 M0-4.995c-2.759,0-4.995,2.236-4.995,4.995S-2.759,4.995,0,4.995S4.995,2.759,4.995,0l0,0C4.995-2.759,2.759-4.995,0-4.995z"/>
	</g>
	<g transform="translate(2020.9821,674.183)">
		<circle fill="#006D2C" fill-opacity="0.6" cx="0" cy="0" r="4.665"/>
	</g>
	<g transform="translate(2020.9821,674.183)">
		<path d="M0-4.335c2.394,0,4.335,1.94,4.335,4.335l0,0c0,2.395-1.941,4.335-4.335,4.335c-2.395,0-4.335-1.94-4.335-4.335
			S-2.394-4.335,0-4.335z M0-4.995c-2.759,0-4.995,2.236-4.995,4.995S-2.758,4.995,0,4.995c2.758,0,4.994-2.236,4.994-4.995l0,0
			C4.995-2.758,2.758-4.995,0-4.995z"/>
	</g>
	<g transform="translate(2017.5697,672.9365)">
		<circle fill="#006D2C" fill-opacity="0.6" cx="0" cy="0" r="4.665"/>
	</g>
	<g transform="translate(2017.5697,672.9365)">
		<path d="M0-4.335c2.395,0,4.336,1.941,4.336,4.336l0,0c0,2.394-1.941,4.335-4.336,4.335c-2.394,0-4.335-1.941-4.335-4.335
			C-4.335-2.394-2.394-4.335,0-4.335z M0-4.994c-2.758,0-4.994,2.236-4.994,4.995c0,2.758,2.236,4.994,4.994,4.994
			c2.759,0,4.995-2.236,4.995-4.994l0,0C4.995-2.758,2.758-4.994,0-4.994z"/>
	</g>
	<g transform="translate(2045.5879,680)">
		<circle fill="#006D2C" fill-opacity="0.6" cx="0" cy="0" r="4.665"/>
	</g>
	<g transform="translate(2045.5879,680)">
		<path d="M0-4.335c2.395,0,4.335,1.941,4.335,4.335l0,0c0,2.395-1.94,4.336-4.335,4.336S-4.335,2.394-4.335,0
			C-4.335-2.394-2.395-4.335,0-4.335z M0-4.994c-2.759,0-4.995,2.236-4.995,4.994c0,2.759,2.236,4.995,4.995,4.995
			S4.995,2.759,4.995,0l0,0C4.995-2.758,2.759-4.994,0-4.994z"/>
	</g>
	<g transform="translate(2055.9561,680)">
		<circle fill="#006D2C" fill-opacity="0.6" cx="0" cy="0" r="4.665"/>
	</g>
	<g transform="translate(2055.9561,680)">
		<path d="M0-4.335c2.395,0,4.335,1.941,4.335,4.335l0,0c0,2.395-1.94,4.336-4.335,4.336S-4.335,2.394-4.335,0
			C-4.335-2.394-2.395-4.335,0-4.335z M0-4.994c-2.759,0-4.995,2.236-4.995,4.994c0,2.759,2.236,4.995,4.995,4.995
			S4.995,2.759,4.995,0l0,0C4.995-2.758,2.759-4.994,0-4.994z"/>
	</g>
	<g transform="translate(2027.7295,680)">
		<circle fill="#006D2C" fill-opacity="0.6" cx="0" cy="0" r="4.665"/>
	</g>
	<g transform="translate(2027.7295,680)">
		<path d="M0-4.335c2.395,0,4.335,1.941,4.335,4.335l0,0c0,2.395-1.94,4.336-4.335,4.336S-4.335,2.394-4.335,0
			C-4.335-2.394-2.395-4.335,0-4.335z M0-4.994c-2.759,0-4.995,2.236-4.995,4.994c0,2.759,2.236,4.995,4.995,4.995
			S4.995,2.759,4.995,0l0,0C4.995-2.758,2.759-4.994,0-4.994z"/>
	</g>
	<g transform="translate(2057.2646,680)">
		<circle fill="#006D2C" fill-opacity="0.6" cx="0" cy="0" r="4.665"/>
	</g>
	<g transform="translate(2057.2646,680)">
		<path d="M0-4.335c2.395,0,4.335,1.941,4.335,4.335l0,0c0,2.395-1.94,4.336-4.335,4.336S-4.335,2.394-4.335,0
			C-4.335-2.394-2.395-4.335,0-4.335z M0-4.994c-2.759,0-4.995,2.236-4.995,4.994c0,2.759,2.236,4.995,4.995,4.995
			S4.995,2.759,4.995,0l0,0C4.995-2.758,2.759-4.994,0-4.994z"/>
	</g>
	<g transform="translate(2069.804,680)">
		<circle fill="#006D2C" fill-opacity="0.6" cx="0" cy="0" r="4.665"/>
	</g>
	<g transform="translate(2069.804,680)">
		<path d="M0-4.335c2.395,0,4.336,1.941,4.336,4.335l0,0c0,2.395-1.941,4.336-4.336,4.336S-4.335,2.394-4.335,0
			C-4.335-2.394-2.395-4.335,0-4.335z M0-4.994c-2.758,0-4.994,2.236-4.994,4.994c0,2.759,2.236,4.995,4.994,4.995
			c2.759,0,4.995-2.236,4.995-4.995l0,0C4.995-2.758,2.759-4.994,0-4.994z"/>
	</g>
	<g transform="translate(2078.7837,680)">
		<circle fill="#006D2C" fill-opacity="0.6" cx="0" cy="0" r="4.665"/>
	</g>
	<g transform="translate(2078.7837,680)">
		<path d="M0-4.335c2.394,0,4.335,1.941,4.335,4.335l0,0c0,2.395-1.941,4.336-4.335,4.336c-2.395,0-4.336-1.941-4.336-4.336
			C-4.335-2.394-2.394-4.335,0-4.335z M0-4.994c-2.759,0-4.995,2.236-4.995,4.994c0,2.759,2.236,4.995,4.995,4.995
			c2.758,0,4.994-2.236,4.994-4.995l0,0C4.995-2.758,2.758-4.994,0-4.994z"/>
	</g>
	<g transform="translate(2075.4985,680)">
		<circle fill="#006D2C" fill-opacity="0.6" cx="0" cy="0" r="4.665"/>
	</g>
	<g transform="translate(2075.4985,680)">
		<path d="M0-4.335c2.394,0,4.335,1.941,4.335,4.335l0,0c0,2.395-1.941,4.336-4.335,4.336c-2.395,0-4.336-1.941-4.336-4.336
			C-4.335-2.394-2.394-4.335,0-4.335z M0-4.994c-2.759,0-4.995,2.236-4.995,4.994c0,2.759,2.236,4.995,4.995,4.995
			c2.758,0,4.994-2.236,4.994-4.995l0,0C4.995-2.758,2.758-4.994,0-4.994z"/>
	</g>
	<g transform="translate(1999.0154,680)">
		<circle fill="#006D2C" fill-opacity="0.6" cx="0" cy="0" r="4.665"/>
	</g>
	<g transform="translate(1999.0154,680)">
		<path d="M0-4.335c2.394,0,4.335,1.941,4.335,4.335l0,0c0,2.395-1.941,4.336-4.335,4.336c-2.395,0-4.335-1.941-4.335-4.336
			C-4.335-2.394-2.394-4.335,0-4.335z M0-4.994c-2.759,0-4.995,2.236-4.995,4.994c0,2.759,2.236,4.995,4.995,4.995
			S4.994,2.759,4.994,0l0,0C4.994-2.758,2.759-4.994,0-4.994z"/>
	</g>
</g>
</svg>
