<?xml version="1.0" encoding="utf-8"?>
<!-- Generator: Adobe Illustrator 16.0.0, SVG Export Plug-In . SVG Version: 6.00 Build 0)  -->
<!DOCTYPE svg PUBLIC "-//W3C//DTD SVG 1.1//EN" "http://www.w3.org/Graphics/SVG/1.1/DTD/svg11.dtd">
<svg version="1.1" id="Layer_1" xmlns="http://www.w3.org/2000/svg" xmlns:xlink="http://www.w3.org/1999/xlink" x="0px" y="0px"
	 width="2924px" height="764px" viewBox="0 0 2924 764" enable-background="new 0 0 2924 764" xml:space="preserve">
<g>
	
		<line fill="none" stroke="#000000" stroke-width="2.2431" stroke-linecap="square" stroke-linejoin="round" stroke-miterlimit="10" x1="463.5" y1="680" x2="1613.5" y2="680"/>
	
		<line fill="none" stroke="#000000" stroke-width="2.2431" stroke-linecap="square" stroke-linejoin="round" stroke-miterlimit="10" x1="804.875" y1="680" x2="804.875" y2="702.66"/>
	
		<line fill="none" stroke="#000000" stroke-width="2.2431" stroke-linecap="square" stroke-linejoin="round" stroke-miterlimit="10" x1="1379.125" y1="680" x2="1379.125" y2="702.66"/>
	<g transform="translate(804.875,708.4656)">
		<text transform="matrix(1 0 0 1 -39 17)" font-family="'MyriadPro-Regular'" font-size="15.8333">Ripples up</text>
	</g>
	<text transform="matrix(1 0 0 1 1329.125 725.4656)" font-family="'MyriadPro-Regular'" font-size="15.8333">Ripples down</text>
	
		<line fill="none" stroke="#000000" stroke-width="2.2431" stroke-linecap="square" stroke-linejoin="round" stroke-miterlimit="10" x1="466" y1="680" x2="466" y2="307.166"/>
	
		<line fill="none" stroke="#000000" stroke-width="2.2431" stroke-linecap="square" stroke-linejoin="round" stroke-miterlimit="10" x1="466" y1="680" x2="443.34" y2="680"/>
	
		<line fill="none" stroke="#000000" stroke-width="2.2431" stroke-linecap="square" stroke-linejoin="round" stroke-miterlimit="10" x1="466" y1="617.7" x2="443.34" y2="617.7"/>
	
		<line fill="none" stroke="#000000" stroke-width="2.2431" stroke-linecap="square" stroke-linejoin="round" stroke-miterlimit="10" x1="466" y1="555.4" x2="443.34" y2="555.4"/>
	
		<line fill="none" stroke="#000000" stroke-width="2.2431" stroke-linecap="square" stroke-linejoin="round" stroke-miterlimit="10" x1="466" y1="493.1" x2="443.34" y2="493.1"/>
	
		<line fill="none" stroke="#000000" stroke-width="2.2431" stroke-linecap="square" stroke-linejoin="round" stroke-miterlimit="10" x1="466" y1="430.801" x2="443.34" y2="430.801"/>
	
		<line fill="none" stroke="#000000" stroke-width="2.2431" stroke-linecap="square" stroke-linejoin="round" stroke-miterlimit="10" x1="466" y1="368.5" x2="443.34" y2="368.5"/>
	
		<line fill="none" stroke="#000000" stroke-width="2.2431" stroke-linecap="square" stroke-linejoin="round" stroke-miterlimit="10" x1="466" y1="306.2" x2="443.34" y2="306.2"/>
	<g transform="translate(351.5345,680)">
		<text transform="matrix(1 0 0 1 68.0002 5.9998)" font-family="'MyriadPro-Regular'" font-size="15.8333">0</text>
	</g>
	<g transform="translate(351.5345,617.7)">
		<text transform="matrix(1 0 0 1 55.0002 5.9999)" font-family="'MyriadPro-Regular'" font-size="15.8333">0.1</text>
	</g>
	<g transform="translate(351.5345,555.4)">
		<text transform="matrix(1 0 0 1 55.0002 6.0001)" font-family="'MyriadPro-Regular'" font-size="15.8333">0.2</text>
	</g>
	<g transform="translate(351.5345,493.1)">
		<text transform="matrix(1 0 0 1 55.0002 6.0003)" font-family="'MyriadPro-Regular'" font-size="15.8333">0.3</text>
	</g>
	<g transform="translate(351.5345,430.8)">
		<text transform="matrix(1 0 0 1 55.0002 6.0005)" font-family="'MyriadPro-Regular'" font-size="15.8333">0.4</text>
	</g>
	<g transform="translate(351.5345,368.5)">
		<text transform="matrix(1 0 0 1 55.0002 5.9998)" font-family="'MyriadPro-Regular'" font-size="15.8333">0.5</text>
	</g>
	<g transform="translate(351.5345,306.2)">
		<text transform="matrix(1 0 0 1 55.0002 5.9999)" font-family="'MyriadPro-Regular'" font-size="15.8333">0.6</text>
	</g>
	<g transform="translate(324.5761,368.4997) rotate(-90)">
		<text transform="matrix(1 0 0 1 -192.0001 33.0001)" font-family="'MyriadPro-Regular'" font-size="19">Events per seconds (Hz)</text>
	</g>
	<g transform="translate(1513.0013,53.1)">
		<text transform="matrix(1 0 0 1 -673.3119 174.0004)" font-family="'MyriadPro-Regular'" font-size="20.5833">Ripples per second in up vs down of the NR US</text>
	</g>
	<g>
		<path fill="#FFFAAA" d="M734.063,638.803v22.789h141.625v-22.789H734.063z"/>
	</g>
	<path fill="none" stroke="#000000" stroke-width="0.6597" stroke-linecap="square" stroke-miterlimit="10" d="M734.063,638.803
		v22.789V638.803h141.625l0,0v22.789l0,0H734.063V638.803"/>
	
		<line fill="none" stroke="#000000" stroke-width="2.6389" stroke-linejoin="round" stroke-miterlimit="10" x1="734.063" y1="649.63" x2="875.688" y2="649.63"/>
	
		<line fill="none" stroke="#000000" stroke-width="1.9792" stroke-linejoin="round" stroke-miterlimit="10" x1="804.875" y1="673.757" x2="804.875" y2="661.593"/>
	
		<line fill="none" stroke="#000000" stroke-width="1.9792" stroke-linejoin="round" stroke-miterlimit="10" x1="804.875" y1="616.099" x2="804.875" y2="638.803"/>
	<path fill="none" stroke="#000000" stroke-width="0.6597" stroke-miterlimit="10" d="M589.49,579.048v10 M584.49,584.048h10
		 M586.192,580.749l6.597,6.598 M586.192,587.346l6.597-6.598"/>
	<g transform="translate(578.2502,638.8035)">
		<circle fill="#FFFAAA" fill-opacity="0.6" cx="0" cy="0" r="4.665"/>
	</g>
	<g transform="translate(578.2502,638.8035)">
		<path d="M0-4.335c2.395,0,4.335,1.941,4.335,4.335l0,0c0,2.395-1.94,4.335-4.335,4.335c-2.394,0-4.335-1.94-4.335-4.335
			C-4.335-2.394-2.394-4.335,0-4.335z M0-4.994c-2.759,0-4.995,2.235-4.995,4.994S-2.759,4.995,0,4.995S4.995,2.759,4.995,0l0,0
			C4.995-2.759,2.759-4.994,0-4.994z"/>
	</g>
	<g transform="translate(624.8247,665.8475)">
		<circle fill="#FFFAAA" fill-opacity="0.6" cx="0" cy="0" r="4.665"/>
	</g>
	<g transform="translate(624.8247,665.8475)">
		<path d="M0-4.335c2.394,0,4.335,1.941,4.335,4.335l0,0c0,2.395-1.941,4.335-4.335,4.335c-2.395,0-4.336-1.94-4.336-4.335
			C-4.335-2.394-2.394-4.335,0-4.335z M0-4.994c-2.759,0-4.995,2.236-4.995,4.994c0,2.759,2.236,4.995,4.995,4.995
			c2.758,0,4.994-2.236,4.994-4.995l0,0C4.995-2.758,2.758-4.994,0-4.994z"/>
	</g>
	<g transform="translate(658.8244,645.1218)">
		<circle fill="#FFFAAA" fill-opacity="0.6" cx="0" cy="0" r="4.665"/>
	</g>
	<g transform="translate(658.8244,645.1218)">
		<path d="M0-4.335c2.395,0,4.335,1.941,4.335,4.335l0,0c0,2.395-1.94,4.335-4.335,4.335c-2.394,0-4.335-1.94-4.335-4.335
			C-4.335-2.394-2.394-4.335,0-4.335z M0-4.994c-2.759,0-4.995,2.235-4.995,4.994S-2.759,4.995,0,4.995S4.995,2.759,4.995,0l0,0
			C4.995-2.759,2.759-4.994,0-4.994z"/>
	</g>
	<g transform="translate(592.0083,620.6912)">
		<circle fill="#FFFAAA" fill-opacity="0.6" cx="0" cy="0" r="4.665"/>
	</g>
	<g transform="translate(592.0083,620.6912)">
		<path d="M0-4.335c2.394,0,4.335,1.941,4.335,4.335l0,0c0,2.395-1.941,4.335-4.335,4.335c-2.395,0-4.336-1.94-4.336-4.335
			C-4.335-2.394-2.394-4.335,0-4.335z M0-4.994c-2.759,0-4.995,2.236-4.995,4.994c0,2.759,2.236,4.995,4.995,4.995
			c2.758,0,4.994-2.236,4.994-4.995l0,0C4.995-2.758,2.758-4.994,0-4.994z"/>
	</g>
	<g transform="translate(665.577,616.0995)">
		<circle fill="#FFFAAA" fill-opacity="0.6" cx="0" cy="0" r="4.665"/>
	</g>
	<g transform="translate(665.577,616.0995)">
		<path d="M0-4.335c2.395,0,4.335,1.941,4.335,4.335l0,0c0,2.395-1.94,4.336-4.335,4.336S-4.335,2.394-4.335,0
			C-4.335-2.394-2.394-4.335,0-4.335z M0-4.994c-2.759,0-4.995,2.236-4.995,4.994c0,2.759,2.236,4.995,4.995,4.995
			S4.995,2.759,4.995,0l0,0C4.995-2.758,2.759-4.994,0-4.994z"/>
	</g>
	<g transform="translate(641.2492,647.6569)">
		<circle fill="#FFFAAA" fill-opacity="0.6" cx="0" cy="0" r="4.665"/>
	</g>
	<g transform="translate(641.2492,647.6569)">
		<path d="M0-4.335c2.395,0,4.335,1.941,4.335,4.335l0,0c0,2.395-1.94,4.335-4.335,4.335S-4.335,2.395-4.335,0
			C-4.335-2.393-2.395-4.335,0-4.335z M0-4.994c-2.759,0-4.994,2.235-4.994,4.994S-2.759,4.995,0,4.995S4.995,2.759,4.995,0l0,0
			C4.995-2.759,2.759-4.994,0-4.994z"/>
	</g>
	<g transform="translate(620.2189,621.9984)">
		<circle fill="#FFFAAA" fill-opacity="0.6" cx="0" cy="0" r="4.665"/>
	</g>
	<g transform="translate(620.2189,621.9984)">
		<path d="M0-4.335c2.395,0,4.335,1.94,4.335,4.335l0,0c0,2.395-1.94,4.335-4.335,4.335S-4.335,2.395-4.335,0S-2.395-4.335,0-4.335z
			 M0-4.995c-2.759,0-4.995,2.236-4.995,4.995S-2.759,4.995,0,4.995S4.995,2.759,4.995,0l0,0C4.995-2.758,2.759-4.995,0-4.995z"/>
	</g>
	<g transform="translate(583.8407,627.5826)">
		<circle fill="#FFFAAA" fill-opacity="0.6" cx="0" cy="0" r="4.665"/>
	</g>
	<g transform="translate(583.8407,627.5826)">
		<path d="M0-4.335c2.395,0,4.335,1.94,4.335,4.335l0,0c0,2.395-1.94,4.335-4.335,4.335S-4.335,2.395-4.335,0S-2.394-4.335,0-4.335z
			 M0-4.995c-2.759,0-4.995,2.236-4.995,4.995S-2.759,4.995,0,4.995S4.995,2.759,4.995,0l0,0C4.995-2.759,2.759-4.995,0-4.995z"/>
	</g>
	<g transform="translate(599.8327,619.3878)">
		<circle fill="#FFFAAA" fill-opacity="0.6" cx="0" cy="0" r="4.665"/>
	</g>
	<g transform="translate(599.8327,619.3878)">
		<path d="M0-4.335c2.394,0,4.335,1.941,4.335,4.336l0,0c0,2.394-1.941,4.335-4.335,4.335c-2.395,0-4.335-1.941-4.335-4.335
			C-4.335-2.394-2.394-4.335,0-4.335z M0-4.995c-2.759,0-4.995,2.236-4.995,4.995c0,2.758,2.236,4.994,4.995,4.994
			c2.758,0,4.994-2.236,4.994-4.994l0,0C4.994-2.758,2.758-4.995,0-4.995z"/>
	</g>
	<g transform="translate(600.4823,652.3723)">
		<circle fill="#FFFAAA" fill-opacity="0.6" cx="0" cy="0" r="4.665"/>
	</g>
	<g transform="translate(600.4823,652.3723)">
		<path d="M0-4.334c2.395,0,4.335,1.94,4.335,4.335l0,0c0,2.394-1.94,4.335-4.335,4.335S-4.335,2.394-4.335,0
			C-4.335-2.394-2.394-4.334,0-4.334z M0-4.995c-2.759,0-4.995,2.236-4.995,4.995S-2.759,4.995,0,4.995S4.995,2.759,4.995,0l0,0
			C4.995-2.758,2.759-4.995,0-4.995z"/>
	</g>
	<g transform="translate(579.2784,660.6246)">
		<circle fill="#FFFAAA" fill-opacity="0.6" cx="0" cy="0" r="4.665"/>
	</g>
	<g transform="translate(579.2784,660.6246)">
		<path d="M0-4.335c2.395,0,4.335,1.94,4.335,4.335l0,0c0,2.395-1.94,4.335-4.335,4.335S-4.335,2.395-4.335,0S-2.395-4.335,0-4.335z
			 M0-4.995c-2.759,0-4.995,2.236-4.995,4.995S-2.759,4.995,0,4.995S4.995,2.759,4.995,0l0,0C4.995-2.759,2.759-4.995,0-4.995z"/>
	</g>
	<g transform="translate(634.8769,661.5926)">
		<circle fill="#FFFAAA" fill-opacity="0.6" cx="0" cy="0" r="4.665"/>
	</g>
	<g transform="translate(634.8769,661.5926)">
		<path d="M0-4.335c2.395,0,4.335,1.941,4.335,4.335l0,0c0,2.395-1.94,4.335-4.335,4.335S-4.335,2.394-4.335,0
			C-4.335-2.394-2.394-4.335,0-4.335z M0-4.994c-2.759,0-4.995,2.235-4.995,4.994S-2.759,4.995,0,4.995S4.995,2.759,4.995,0l0,0
			C4.995-2.759,2.759-4.994,0-4.994z"/>
	</g>
	<g transform="translate(667.2551,666.1638)">
		<circle fill="#FFFAAA" fill-opacity="0.6" cx="0" cy="0" r="4.665"/>
	</g>
	<g transform="translate(667.2551,666.1638)">
		<path d="M0-4.335c2.395,0,4.335,1.941,4.335,4.335l0,0c0,2.395-1.94,4.335-4.335,4.335c-2.394,0-4.335-1.94-4.335-4.335
			C-4.335-2.394-2.394-4.335,0-4.335z M0-4.994c-2.759,0-4.994,2.235-4.994,4.994S-2.759,4.995,0,4.995S4.995,2.759,4.995,0l0,0
			C4.995-2.759,2.759-4.994,0-4.994z"/>
	</g>
	<g transform="translate(660.962,670.6407)">
		<circle fill="#FFFAAA" fill-opacity="0.6" cx="0" cy="0" r="4.665"/>
	</g>
	<g transform="translate(660.962,670.6407)">
		<path d="M0-4.335c2.395,0,4.335,1.941,4.335,4.336l0,0c0,2.394-1.94,4.335-4.335,4.335s-4.335-1.941-4.335-4.335
			C-4.335-2.394-2.395-4.335,0-4.335z M0-4.994c-2.759,0-4.995,2.236-4.995,4.995c0,2.758,2.236,4.994,4.995,4.994
			s4.995-2.236,4.995-4.994l0,0C4.995-2.758,2.759-4.994,0-4.994z"/>
	</g>
	<g transform="translate(582.2972,646.8797)">
		<circle fill="#FFFAAA" fill-opacity="0.6" cx="0" cy="0" r="4.665"/>
	</g>
	<g transform="translate(582.2972,646.8797)">
		<path d="M0-4.335c2.395,0,4.335,1.941,4.335,4.335l0,0c0,2.395-1.94,4.335-4.335,4.335c-2.394,0-4.335-1.94-4.335-4.335
			C-4.335-2.394-2.394-4.335,0-4.335z M0-4.994c-2.759,0-4.994,2.235-4.994,4.994S-2.759,4.995,0,4.995S4.995,2.759,4.995,0l0,0
			C4.995-2.759,2.758-4.994,0-4.994z"/>
	</g>
	<g transform="translate(646.0908,648.4512)">
		<circle fill="#FFFAAA" fill-opacity="0.6" cx="0" cy="0" r="4.665"/>
	</g>
	<g transform="translate(646.0908,648.4512)">
		<path d="M0-4.335c2.395,0,4.335,1.941,4.335,4.335l0,0c0,2.395-1.94,4.336-4.335,4.336S-4.335,2.394-4.335,0
			C-4.335-2.394-2.395-4.335,0-4.335z M0-4.994c-2.759,0-4.995,2.236-4.995,4.994c0,2.759,2.236,4.995,4.995,4.995
			S4.995,2.759,4.995,0l0,0C4.995-2.758,2.759-4.994,0-4.994z"/>
	</g>
	<g transform="translate(651.9323,662.1606)">
		<circle fill="#FFFAAA" fill-opacity="0.6" cx="0" cy="0" r="4.665"/>
	</g>
	<g transform="translate(651.9323,662.1606)">
		<path d="M0-4.335c2.394,0,4.335,1.94,4.335,4.335l0,0c0,2.395-1.941,4.335-4.335,4.335c-2.395,0-4.335-1.94-4.335-4.335
			S-2.394-4.335,0-4.335z M0-4.995c-2.759,0-4.995,2.236-4.995,4.995S-2.758,4.995,0,4.995c2.758,0,4.994-2.236,4.994-4.995l0,0
			C4.994-2.758,2.758-4.995,0-4.995z"/>
	</g>
	<g transform="translate(640.8448,657.8942)">
		<circle fill="#FFFAAA" fill-opacity="0.6" cx="0" cy="0" r="4.665"/>
	</g>
	<g transform="translate(640.8448,657.8942)">
		<path d="M0-4.335c2.395,0,4.335,1.941,4.335,4.335l0,0c0,2.395-1.94,4.335-4.335,4.335S-4.335,2.395-4.335,0
			C-4.335-2.393-2.395-4.335,0-4.335z M0-4.994c-2.759,0-4.995,2.235-4.995,4.994S-2.759,4.995,0,4.995S4.995,2.759,4.995,0l0,0
			C4.995-2.759,2.759-4.994,0-4.994z"/>
	</g>
	<g transform="translate(641.3365,673.7565)">
		<circle fill="#FFFAAA" fill-opacity="0.6" cx="0" cy="0" r="4.665"/>
	</g>
	<g transform="translate(641.3365,673.7565)">
		<path d="M0-4.335c2.394,0,4.335,1.94,4.335,4.335l0,0c0,2.395-1.941,4.335-4.335,4.335c-2.395,0-4.336-1.94-4.336-4.335
			S-2.394-4.335,0-4.335z M0-4.995c-2.759,0-4.995,2.236-4.995,4.995S-2.758,4.995,0,4.995c2.758,0,4.994-2.236,4.994-4.995l0,0
			C4.995-2.759,2.758-4.995,0-4.995z"/>
	</g>
	<g transform="translate(644.28,646.2161)">
		<circle fill="#FFFAAA" fill-opacity="0.6" cx="0" cy="0" r="4.665"/>
	</g>
	<g transform="translate(644.28,646.2161)">
		<path d="M0-4.335c2.394,0,4.335,1.94,4.335,4.335l0,0c0,2.394-1.941,4.335-4.335,4.335c-2.395,0-4.335-1.941-4.335-4.335
			C-4.335-2.394-2.394-4.335,0-4.335z M0-4.995c-2.759,0-4.995,2.236-4.995,4.995S-2.759,4.995,0,4.995S4.994,2.759,4.994,0l0,0
			C4.994-2.758,2.759-4.995,0-4.995z"/>
	</g>
	<g transform="translate(578.1088,660.5234)">
		<circle fill="#FFFAAA" fill-opacity="0.6" cx="0" cy="0" r="4.665"/>
	</g>
	<g transform="translate(578.1088,660.5234)">
		<path d="M0-4.335c2.395,0,4.336,1.941,4.336,4.335l0,0c0,2.395-1.941,4.336-4.336,4.336c-2.394,0-4.335-1.941-4.335-4.336
			C-4.335-2.394-2.394-4.335,0-4.335z M0-4.994c-2.758,0-4.994,2.236-4.994,4.994c0,2.759,2.236,4.995,4.994,4.995
			c2.759,0,4.995-2.236,4.995-4.995l0,0C4.995-2.758,2.758-4.994,0-4.994z"/>
	</g>
	<g transform="translate(616.704,657.4438)">
		<circle fill="#FFFAAA" fill-opacity="0.6" cx="0" cy="0" r="4.665"/>
	</g>
	<g transform="translate(616.704,657.4438)">
		<path d="M0-4.335c2.395,0,4.335,1.94,4.335,4.335l0,0c0,2.395-1.94,4.335-4.335,4.335S-4.335,2.395-4.335,0S-2.394-4.335,0-4.335z
			 M0-4.995c-2.759,0-4.995,2.236-4.995,4.995S-2.759,4.995,0,4.995S4.995,2.759,4.995,0l0,0C4.995-2.758,2.759-4.995,0-4.995z"/>
	</g>
	<g transform="translate(633.4828,650.6104)">
		<circle fill="#FFFAAA" fill-opacity="0.6" cx="0" cy="0" r="4.665"/>
	</g>
	<g transform="translate(633.4828,650.6104)">
		<path d="M0-4.335c2.395,0,4.335,1.941,4.335,4.336l0,0c0,2.394-1.94,4.335-4.335,4.335c-2.394,0-4.335-1.941-4.335-4.335
			C-4.335-2.394-2.394-4.335,0-4.335z M0-4.994c-2.758,0-4.994,2.236-4.994,4.995c0,2.758,2.236,4.994,4.994,4.994
			c2.759,0,4.995-2.236,4.995-4.994l0,0C4.995-2.758,2.758-4.994,0-4.994z"/>
	</g>
	<g transform="translate(665.3838,663.5335)">
		<circle fill="#FFFAAA" fill-opacity="0.6" cx="0" cy="0" r="4.665"/>
	</g>
	<g transform="translate(665.3838,663.5335)">
		<path d="M0-4.335c2.395,0,4.335,1.94,4.335,4.335l0,0c0,2.394-1.94,4.335-4.335,4.335S-4.335,2.394-4.335,0
			C-4.335-2.394-2.395-4.335,0-4.335z M0-4.995c-2.759,0-4.995,2.236-4.995,4.995S-2.759,4.995,0,4.995S4.995,2.759,4.995,0l0,0
			C4.995-2.758,2.759-4.995,0-4.995z"/>
	</g>
	<g transform="translate(633.1143,648.6475)">
		<circle fill="#FFFAAA" fill-opacity="0.6" cx="0" cy="0" r="4.665"/>
	</g>
	<g transform="translate(633.1143,648.6475)">
		<path d="M0-4.335c2.395,0,4.335,1.941,4.335,4.336l0,0c0,2.394-1.94,4.335-4.335,4.335s-4.335-1.941-4.335-4.335
			C-4.335-2.394-2.395-4.335,0-4.335z M0-4.994c-2.759,0-4.995,2.236-4.995,4.995c0,2.758,2.236,4.994,4.995,4.994
			s4.995-2.236,4.995-4.994l0,0C4.995-2.758,2.759-4.994,0-4.994z"/>
	</g>
	<path fill="#CC7900" d="M1308.313,589.515v57.959h141.625v-57.959H1308.313z"/>
	<path fill="none" stroke="#000000" stroke-width="0.6597" stroke-linecap="square" stroke-miterlimit="10" d="M1308.313,589.515
		v57.959V589.515h141.625l0,0v57.959l0,0h-141.625V589.515"/>
	
		<line fill="none" stroke="#000000" stroke-width="2.6389" stroke-linejoin="round" stroke-miterlimit="10" x1="1308.313" y1="610.677" x2="1449.938" y2="610.677"/>
	
		<line fill="none" stroke="#000000" stroke-width="1.9792" stroke-linejoin="round" stroke-miterlimit="10" x1="1379.125" y1="668.81" x2="1379.125" y2="647.474"/>
	
		<line fill="none" stroke="#000000" stroke-width="1.9792" stroke-linejoin="round" stroke-miterlimit="10" x1="1379.125" y1="568.592" x2="1379.125" y2="589.515"/>
	<circle fill="#CC7900" fill-opacity="0.6" cx="1155.19" cy="628.321" r="4.665"/>
	<path d="M1155.19,623.986c2.394,0,4.335,1.94,4.335,4.335l0,0c0,2.395-1.941,4.335-4.335,4.335c-2.395,0-4.335-1.94-4.335-4.335
		S1152.796,623.986,1155.19,623.986z M1155.19,623.326c-2.759,0-4.995,2.236-4.995,4.995s2.236,4.995,4.995,4.995
		c2.758,0,4.994-2.236,4.994-4.995l0,0C1160.185,625.562,1157.948,623.326,1155.19,623.326z"/>
	<circle fill="#CC7900" fill-opacity="0.6" cx="1230.365" cy="649.15" r="4.665"/>
	<path d="M1230.365,644.815c2.395,0,4.335,1.94,4.335,4.335l0,0c0,2.394-1.94,4.335-4.335,4.335s-4.335-1.941-4.335-4.335
		C1226.03,646.756,1227.971,644.815,1230.365,644.815z M1230.365,644.155c-2.759,0-4.995,2.236-4.995,4.995
		c0,2.758,2.236,4.994,4.995,4.994s4.995-2.236,4.995-4.994l0,0C1235.36,646.391,1233.124,644.155,1230.365,644.155z"/>
	<circle fill="#CC7900" fill-opacity="0.6" cx="1218.271" cy="647.474" r="4.665"/>
	<path d="M1218.271,643.139c2.395,0,4.336,1.94,4.336,4.335l0,0c0,2.394-1.941,4.335-4.336,4.335c-2.394,0-4.335-1.941-4.335-4.335
		C1213.936,645.08,1215.877,643.139,1218.271,643.139z M1218.271,642.479c-2.758,0-4.994,2.236-4.994,4.995s2.236,4.994,4.994,4.994
		c2.759,0,4.995-2.235,4.995-4.994l0,0C1223.266,644.716,1221.029,642.479,1218.271,642.479z"/>
	<circle fill="#CC7900" fill-opacity="0.6" cx="1214.855" cy="610.52" r="4.665"/>
	<path d="M1214.855,606.184c2.395,0,4.335,1.941,4.335,4.335l0,0c0,2.395-1.94,4.336-4.335,4.336c-2.394,0-4.335-1.941-4.335-4.336
		C1210.521,608.126,1212.462,606.184,1214.855,606.184z M1214.855,605.525c-2.759,0-4.995,2.236-4.995,4.994
		c0,2.759,2.236,4.995,4.995,4.995s4.995-2.236,4.995-4.995l0,0C1219.851,607.761,1217.614,605.525,1214.855,605.525z"/>
	<circle fill="#CC7900" fill-opacity="0.6" cx="1232.048" cy="610.835" r="4.665"/>
	<path d="M1232.048,606.5c2.395,0,4.336,1.94,4.336,4.335l0,0c0,2.395-1.941,4.335-4.336,4.335c-2.394,0-4.335-1.94-4.335-4.335
		S1229.654,606.5,1232.048,606.5z M1232.048,605.84c-2.758,0-4.994,2.236-4.994,4.995s2.236,4.995,4.994,4.995
		c2.759,0,4.995-2.236,4.995-4.995l0,0C1237.043,608.076,1234.807,605.84,1232.048,605.84z"/>
	<circle fill="#CC7900" fill-opacity="0.6" cx="1207.036" cy="653.698" r="4.665"/>
	<path d="M1207.036,649.363c2.395,0,4.335,1.941,4.335,4.335l0,0c0,2.395-1.94,4.336-4.335,4.336s-4.335-1.941-4.335-4.336
		C1202.701,651.304,1204.642,649.363,1207.036,649.363z M1207.036,648.704c-2.759,0-4.995,2.236-4.995,4.994
		c0,2.759,2.236,4.995,4.995,4.995s4.995-2.236,4.995-4.995l0,0C1212.031,650.94,1209.795,648.704,1207.036,648.704z"/>
	<circle fill="#CC7900" fill-opacity="0.6" cx="1169.961" cy="584.599" r="4.665"/>
	<path d="M1169.961,580.263c2.394,0,4.335,1.941,4.335,4.335l0,0c0,2.395-1.941,4.336-4.335,4.336c-2.395,0-4.335-1.941-4.335-4.336
		C1165.626,582.205,1167.566,580.263,1169.961,580.263z M1169.961,579.604c-2.759,0-4.995,2.236-4.995,4.994
		c0,2.759,2.236,4.995,4.995,4.995s4.995-2.236,4.995-4.995l0,0C1174.956,581.841,1172.72,579.604,1169.961,579.604z"/>
	<circle fill="#CC7900" fill-opacity="0.6" cx="1220.46" cy="600.079" r="4.665"/>
	<path d="M1220.46,595.744c2.395,0,4.335,1.941,4.335,4.335l0,0c0,2.395-1.94,4.335-4.335,4.335s-4.335-1.94-4.335-4.335
		C1216.125,597.685,1218.065,595.744,1220.46,595.744z M1220.46,595.085c-2.759,0-4.995,2.235-4.995,4.994s2.236,4.995,4.995,4.995
		s4.995-2.236,4.995-4.995l0,0C1225.455,597.32,1223.219,595.085,1220.46,595.085z"/>
	<circle fill="#CC7900" fill-opacity="0.6" cx="1190.623" cy="616.358" r="4.665"/>
	<path d="M1190.623,612.022c2.394,0,4.335,1.941,4.335,4.336l0,0c0,2.394-1.941,4.335-4.335,4.335c-2.395,0-4.335-1.941-4.335-4.335
		C1186.288,613.964,1188.229,612.022,1190.623,612.022z M1190.623,611.363c-2.759,0-4.995,2.236-4.995,4.995
		c0,2.758,2.236,4.994,4.995,4.994s4.994-2.236,4.994-4.994l0,0C1195.617,613.599,1193.382,611.363,1190.623,611.363z"/>
	<circle fill="#CC7900" fill-opacity="0.6" cx="1148.302" cy="600.844" r="4.665"/>
	<path d="M1148.302,596.509c2.395,0,4.335,1.941,4.335,4.335l0,0c0,2.395-1.94,4.336-4.335,4.336s-4.335-1.941-4.335-4.336
		C1143.967,598.45,1145.907,596.509,1148.302,596.509z M1148.302,595.849c-2.759,0-4.994,2.236-4.994,4.994
		c0,2.759,2.235,4.995,4.994,4.995s4.995-2.236,4.995-4.995l0,0C1153.297,598.086,1151.061,595.849,1148.302,595.849z"/>
	<circle fill="#CC7900" fill-opacity="0.6" cx="1239.153" cy="654.363" r="4.665"/>
	<path d="M1239.153,650.027c2.395,0,4.335,1.941,4.335,4.336l0,0c0,2.394-1.94,4.335-4.335,4.335s-4.336-1.941-4.336-4.335
		C1234.817,651.969,1236.759,650.027,1239.153,650.027z M1239.153,649.368c-2.759,0-4.995,2.236-4.995,4.995
		c0,2.758,2.236,4.994,4.995,4.994c2.758,0,4.994-2.236,4.994-4.994l0,0C1244.147,651.604,1241.911,649.368,1239.153,649.368z"/>
	<circle fill="#CC7900" fill-opacity="0.6" cx="1154.275" cy="664.153" r="4.665"/>
	<path d="M1154.275,659.818c2.394,0,4.335,1.941,4.335,4.335l0,0c0,2.395-1.941,4.335-4.335,4.335c-2.395,0-4.335-1.94-4.335-4.335
		C1149.94,661.76,1151.881,659.818,1154.275,659.818z M1154.275,659.159c-2.759,0-4.995,2.235-4.995,4.994s2.236,4.995,4.995,4.995
		s4.995-2.236,4.995-4.995l0,0C1159.271,661.394,1157.034,659.159,1154.275,659.159z"/>
	<circle fill="#CC7900" fill-opacity="0.6" cx="1161.944" cy="636.935" r="4.665"/>
	<path d="M1161.944,632.599c2.395,0,4.335,1.941,4.335,4.336l0,0c0,2.394-1.94,4.335-4.335,4.335c-2.394,0-4.335-1.941-4.335-4.335
		C1157.609,634.541,1159.551,632.599,1161.944,632.599z M1161.944,631.94c-2.758,0-4.994,2.236-4.994,4.995
		c0,2.758,2.236,4.994,4.994,4.994c2.759,0,4.995-2.236,4.995-4.994l0,0C1166.939,634.177,1164.703,631.94,1161.944,631.94z"/>
	<circle fill="#CC7900" fill-opacity="0.6" cx="1149.767" cy="585.473" r="4.665"/>
	<path d="M1149.767,581.138c2.394,0,4.335,1.94,4.335,4.335l0,0c0,2.395-1.941,4.335-4.335,4.335c-2.395,0-4.336-1.94-4.336-4.335
		S1147.372,581.138,1149.767,581.138z M1149.767,580.478c-2.759,0-4.995,2.236-4.995,4.995s2.236,4.995,4.995,4.995
		c2.758,0,4.994-2.236,4.994-4.995l0,0C1154.761,582.715,1152.524,580.478,1149.767,580.478z"/>
	<circle fill="#CC7900" fill-opacity="0.6" cx="1241.108" cy="631.489" r="4.665"/>
	<path d="M1241.108,627.154c2.395,0,4.336,1.94,4.336,4.335l0,0c0,2.395-1.941,4.335-4.336,4.335c-2.394,0-4.335-1.94-4.335-4.335
		S1238.715,627.154,1241.108,627.154z M1241.108,626.494c-2.758,0-4.994,2.236-4.994,4.995s2.236,4.995,4.994,4.995
		c2.759,0,4.995-2.236,4.995-4.995l0,0C1246.104,628.73,1243.867,626.494,1241.108,626.494z"/>
	<circle fill="#CC7900" fill-opacity="0.6" cx="1206.719" cy="633.522" r="4.665"/>
	<path d="M1206.719,629.186c2.395,0,4.335,1.941,4.335,4.336l0,0c0,2.394-1.94,4.335-4.335,4.335c-2.394,0-4.335-1.941-4.335-4.335
		C1202.384,631.128,1204.325,629.186,1206.719,629.186z M1206.719,628.527c-2.759,0-4.994,2.236-4.994,4.995
		c0,2.758,2.235,4.994,4.994,4.994s4.995-2.236,4.995-4.994l0,0C1211.714,630.763,1209.478,628.527,1206.719,628.527z"/>
	<circle fill="#CC7900" fill-opacity="0.6" cx="1182.531" cy="592.75" r="4.665"/>
	<path d="M1182.531,588.415c2.395,0,4.335,1.941,4.335,4.335l0,0c0,2.395-1.94,4.336-4.335,4.336s-4.335-1.941-4.335-4.336
		C1178.196,590.356,1180.137,588.415,1182.531,588.415z M1182.531,587.756c-2.759,0-4.995,2.236-4.995,4.994
		c0,2.759,2.236,4.995,4.995,4.995s4.995-2.236,4.995-4.995l0,0C1187.526,589.992,1185.29,587.756,1182.531,587.756z"/>
	<circle fill="#CC7900" fill-opacity="0.6" cx="1159.209" cy="658.394" r="4.665"/>
	<path d="M1159.209,654.059c2.395,0,4.335,1.941,4.335,4.335l0,0c0,2.395-1.94,4.335-4.335,4.335s-4.335-1.94-4.335-4.335
		C1154.874,656.001,1156.814,654.059,1159.209,654.059z M1159.209,653.4c-2.759,0-4.995,2.235-4.995,4.994s2.236,4.995,4.995,4.995
		s4.995-2.236,4.995-4.995l0,0C1164.204,655.635,1161.968,653.4,1159.209,653.4z"/>
	<circle fill="#CC7900" fill-opacity="0.6" cx="1240.667" cy="585.316" r="4.665"/>
	<path d="M1240.667,580.981c2.395,0,4.336,1.94,4.336,4.335l0,0c0,2.395-1.941,4.335-4.336,4.335c-2.394,0-4.335-1.94-4.335-4.335
		S1238.273,580.981,1240.667,580.981z M1240.667,580.321c-2.758,0-4.994,2.236-4.994,4.995s2.236,4.995,4.994,4.995
		c2.759,0,4.995-2.236,4.995-4.995l0,0C1245.662,582.557,1243.426,580.321,1240.667,580.321z"/>
	<circle fill="#CC7900" fill-opacity="0.6" cx="1212.812" cy="668.81" r="4.665"/>
	<path d="M1212.812,664.475c2.394,0,4.335,1.94,4.335,4.335l0,0c0,2.395-1.941,4.335-4.335,4.335c-2.395,0-4.336-1.94-4.336-4.335
		S1210.417,664.475,1212.812,664.475z M1212.812,663.815c-2.759,0-4.995,2.236-4.995,4.995s2.236,4.995,4.995,4.995
		c2.758,0,4.994-2.236,4.994-4.995l0,0C1217.806,666.052,1215.569,663.815,1212.812,663.815z"/>
	<circle fill="#CC7900" fill-opacity="0.6" cx="1162.413" cy="593.562" r="4.665"/>
	<path d="M1162.413,589.227c2.395,0,4.335,1.941,4.335,4.335l0,0c0,2.395-1.94,4.335-4.335,4.335s-4.335-1.94-4.335-4.335
		C1158.078,591.169,1160.019,589.227,1162.413,589.227z M1162.413,588.568c-2.759,0-4.995,2.235-4.995,4.994
		s2.236,4.995,4.995,4.995s4.994-2.236,4.994-4.995l0,0C1167.407,590.803,1165.172,588.568,1162.413,588.568z"/>
	<circle fill="#CC7900" fill-opacity="0.6" cx="1215.211" cy="579.949" r="4.665"/>
	<path d="M1215.211,575.614c2.395,0,4.335,1.94,4.335,4.335l0,0c0,2.395-1.94,4.335-4.335,4.335c-2.394,0-4.335-1.94-4.335-4.335
		S1212.817,575.614,1215.211,575.614z M1215.211,574.954c-2.759,0-4.995,2.236-4.995,4.995s2.236,4.995,4.995,4.995
		s4.995-2.236,4.995-4.995l0,0C1220.206,577.19,1217.97,574.954,1215.211,574.954z"/>
	<circle fill="#CC7900" fill-opacity="0.6" cx="1193.526" cy="577.07" r="4.665"/>
	<path d="M1193.526,572.735c2.395,0,4.335,1.94,4.335,4.335l0,0c0,2.395-1.94,4.335-4.335,4.335c-2.394,0-4.335-1.94-4.335-4.335
		S1191.133,572.735,1193.526,572.735z M1193.526,572.075c-2.758,0-4.994,2.236-4.994,4.995s2.236,4.995,4.994,4.995
		c2.759,0,4.995-2.236,4.995-4.995l0,0C1198.521,574.311,1196.285,572.075,1193.526,572.075z"/>
	<circle fill="#CC7900" fill-opacity="0.6" cx="1225.034" cy="568.592" r="4.665"/>
	<path d="M1225.034,564.257c2.395,0,4.335,1.94,4.335,4.335l0,0c0,2.394-1.94,4.335-4.335,4.335s-4.336-1.941-4.336-4.335
		C1220.698,566.197,1222.64,564.257,1225.034,564.257z M1225.034,563.596c-2.759,0-4.995,2.236-4.995,4.995s2.236,4.994,4.995,4.994
		c2.758,0,4.994-2.235,4.994-4.994l0,0C1230.028,565.833,1227.792,563.596,1225.034,563.596z"/>
	<circle fill="#CC7900" fill-opacity="0.6" cx="1186.053" cy="599.355" r="4.665"/>
	<path d="M1186.053,595.02c2.394,0,4.335,1.94,4.335,4.335l0,0c0,2.395-1.941,4.335-4.335,4.335c-2.395,0-4.335-1.94-4.335-4.335
		S1183.658,595.02,1186.053,595.02z M1186.053,594.36c-2.759,0-4.995,2.236-4.995,4.995s2.236,4.995,4.995,4.995
		c2.758,0,4.994-2.236,4.994-4.995l0,0C1191.047,596.596,1188.811,594.36,1186.053,594.36z"/>
	<circle fill="#CC7900" fill-opacity="0.6" cx="1151.56" cy="589.515" r="4.665"/>
	<path d="M1151.56,585.18c2.395,0,4.336,1.941,4.336,4.335l0,0c0,2.395-1.941,4.335-4.336,4.335c-2.394,0-4.335-1.94-4.335-4.335
		C1147.225,587.122,1149.166,585.18,1151.56,585.18z M1151.56,584.521c-2.758,0-4.994,2.235-4.994,4.994s2.236,4.995,4.994,4.995
		c2.759,0,4.995-2.236,4.995-4.995l0,0C1156.555,586.757,1154.318,584.521,1151.56,584.521z"/>
	
		<line fill="none" stroke="#000000" stroke-width="1.9792" stroke-linejoin="round" stroke-miterlimit="10" x1="804.875" y1="385.9" x2="1377.5" y2="385.9"/>
	<g>
		<g transform="translate(1513,231.44)">
			<text transform="matrix(1 0 0 1 -432.1143 143.0002)" font-family="'MyriadPro-Regular'" font-size="15.8333">***</text>
		</g>
		<g transform="translate(1513,209.012)">
			<text transform="matrix(1 0 0 1 -445.6143 142.5005)" font-family="'MyriadPro-Regular'" font-size="13.1944">7.34e-04</text>
		</g>
	</g>
</g>
</svg>
