<?xml version="1.0" encoding="utf-8"?>
<!-- Generator: Adobe Illustrator 16.0.0, SVG Export Plug-In . SVG Version: 6.00 Build 0)  -->
<!DOCTYPE svg PUBLIC "-//W3C//DTD SVG 1.1//EN" "http://www.w3.org/Graphics/SVG/1.1/DTD/svg11.dtd">
<svg version="1.1" id="Layer_1" xmlns="http://www.w3.org/2000/svg" xmlns:xlink="http://www.w3.org/1999/xlink" x="0px" y="0px"
	 width="1462px" height="634px" viewBox="0 0 1462 634" enable-background="new 0 0 1462 634" xml:space="preserve">
<g transform="translate(756.5007,44.1)">
	<text transform="matrix(1 0 0 1 -97.5002 -6.9996)" font-family="'MyriadPro-Regular'" font-size="20.5833">Frequency of events</text>
</g>
<g>
	
		<line fill="none" stroke="#000000" stroke-width="2.2431" stroke-linecap="square" stroke-linejoin="round" stroke-miterlimit="10" x1="190" y1="564" x2="491.5" y2="564"/>
	
		<line fill="none" stroke="#000000" stroke-width="2.2431" stroke-linecap="square" stroke-linejoin="round" stroke-miterlimit="10" x1="261.73" y1="564" x2="261.73" y2="575.33"/>
	
		<line fill="none" stroke="#000000" stroke-width="2.2431" stroke-linecap="square" stroke-linejoin="round" stroke-miterlimit="10" x1="348.5" y1="564" x2="348.5" y2="575.33"/>
	
		<line fill="none" stroke="#000000" stroke-width="2.2431" stroke-linecap="square" stroke-linejoin="round" stroke-miterlimit="10" x1="437.27" y1="564" x2="437.27" y2="575.33"/>
	<g transform="translate(320.7308,581.1356)">
		<text transform="matrix(1 0 0 1 -89.4998 16.9999)" font-family="'MyriadPro-Regular'" font-size="15.8333">Pre-task</text>
	</g>
	<g transform="translate(756.5,581.1356)">
		<text transform="matrix(1 0 0 1 -449 16.9999)" font-family="'MyriadPro-Regular'" font-size="15.8333">Post-task 1</text>
	</g>
	<g transform="translate(1192.2693,581.1356)">
		<text transform="matrix(1 0 0 1 -795.9998 16.9999)" font-family="'MyriadPro-Regular'" font-size="15.8333">Post-task 2</text>
	</g>
	<g>
		
			<line fill="none" stroke="#000000" stroke-width="2.2431" stroke-linecap="square" stroke-linejoin="round" stroke-miterlimit="10" x1="190" y1="564" x2="190" y2="48"/>
		
			<line fill="none" stroke="#000000" stroke-width="2.2431" stroke-linecap="square" stroke-linejoin="round" stroke-miterlimit="10" x1="190" y1="564" x2="178.67" y2="564"/>
		
			<line fill="none" stroke="#000000" stroke-width="2.2431" stroke-linecap="square" stroke-linejoin="round" stroke-miterlimit="10" x1="190" y1="478" x2="178.67" y2="478"/>
		
			<line fill="none" stroke="#000000" stroke-width="2.2431" stroke-linecap="square" stroke-linejoin="round" stroke-miterlimit="10" x1="190" y1="392" x2="178.67" y2="392"/>
		
			<line fill="none" stroke="#000000" stroke-width="2.2431" stroke-linecap="square" stroke-linejoin="round" stroke-miterlimit="10" x1="190" y1="306" x2="178.67" y2="306"/>
		
			<line fill="none" stroke="#000000" stroke-width="2.2431" stroke-linecap="square" stroke-linejoin="round" stroke-miterlimit="10" x1="190" y1="220" x2="178.67" y2="220"/>
		
			<line fill="none" stroke="#000000" stroke-width="2.2431" stroke-linecap="square" stroke-linejoin="round" stroke-miterlimit="10" x1="190" y1="134" x2="178.67" y2="134"/>
		
			<line fill="none" stroke="#000000" stroke-width="2.2431" stroke-linecap="square" stroke-linejoin="round" stroke-miterlimit="10" x1="190" y1="48" x2="178.67" y2="48"/>
	</g>
	<g transform="translate(172.8644,564)">
		<text transform="matrix(1 0 0 1 -10.0001 5.9998)" font-family="'MyriadPro-Regular'" font-size="15.8333">0</text>
	</g>
	<g transform="translate(172.8644,478)">
		<text transform="matrix(1 0 0 1 -32.0001 5.9998)" font-family="'MyriadPro-Regular'" font-size="15.8333">0.05</text>
	</g>
	<g transform="translate(172.8644,392)">
		<text transform="matrix(1 0 0 1 -23.0001 5.9998)" font-family="'MyriadPro-Regular'" font-size="15.8333">0.1</text>
	</g>
	<g transform="translate(172.8644,306)">
		<text transform="matrix(1 0 0 1 -32.0001 5.9998)" font-family="'MyriadPro-Regular'" font-size="15.8333">0.15</text>
	</g>
	<g transform="translate(172.8644,220)">
		<text transform="matrix(1 0 0 1 -23.0001 5.9998)" font-family="'MyriadPro-Regular'" font-size="15.8333">0.2</text>
	</g>
	<g transform="translate(172.8644,134)">
		<text transform="matrix(1 0 0 1 -32.0001 5.9998)" font-family="'MyriadPro-Regular'" font-size="15.8333">0.25</text>
	</g>
	<g transform="translate(172.8644,48)">
		<text transform="matrix(1 0 0 1 -23.0001 5.9998)" font-family="'MyriadPro-Regular'" font-size="15.8333">0.3</text>
	</g>
	<g transform="translate(136.9061,305.9997) rotate(-90)">
		<text transform="matrix(1 0 0 1 -106.0001 -5.9998)" font-family="'MyriadPro-Regular'" font-size="19">Events per seconds (Hz)</text>
	</g>
	<g>
		<path fill="#808080" d="M239.942,314.187v160.014h43.577V314.187H239.942z"/>
	</g>
	<g>
		<path fill="none" stroke="#000000" stroke-width="0.6597" stroke-linecap="square" stroke-miterlimit="10" d="M239.942,314.187
			v160.014V314.187h43.577l0,0v160.014l0,0h-43.577V314.187"/>
		
			<line fill="none" stroke="#000000" stroke-width="2.6389" stroke-linejoin="round" stroke-miterlimit="10" x1="239.942" y1="372.611" x2="283.52" y2="372.611"/>
		
			<line fill="none" stroke="#000000" stroke-width="1.9792" stroke-linejoin="round" stroke-miterlimit="10" x1="261.73" y1="533.106" x2="261.73" y2="474.201"/>
		
			<line fill="none" stroke="#000000" stroke-width="1.9792" stroke-linejoin="round" stroke-miterlimit="10" x1="261.73" y1="256.419" x2="261.73" y2="314.187"/>
	</g>
	<g>
		<path fill="#CCCCCC" d="M326.712,310.382v137.521h43.576V310.382H326.712z"/>
	</g>
	<g>
		<path fill="none" stroke="#000000" stroke-width="0.6597" stroke-linecap="square" stroke-miterlimit="10" d="M326.712,310.382
			v137.521V310.382h43.576l0,0v137.521l0,0h-43.576V310.382"/>
		
			<line fill="none" stroke="#000000" stroke-width="2.6389" stroke-linejoin="round" stroke-miterlimit="10" x1="326.712" y1="384.695" x2="370.288" y2="384.695"/>
		
			<line fill="none" stroke="#000000" stroke-width="1.9792" stroke-linejoin="round" stroke-miterlimit="10" x1="348.5" y1="473.779" x2="348.5" y2="447.902"/>
		
			<line fill="none" stroke="#000000" stroke-width="1.9792" stroke-linejoin="round" stroke-miterlimit="10" x1="348.5" y1="133.158" x2="348.5" y2="310.382"/>
	</g>
	<g>
		<path fill="#B3B3B3" d="M415.48,332.383v105.306h43.577V332.383H415.48z"/>
	</g>
	<g>
		<path fill="none" stroke="#000000" stroke-width="0.6597" stroke-linecap="square" stroke-miterlimit="10" d="M415.48,332.383
			v105.306V332.383h43.577l0,0v105.306l0,0H415.48V332.383"/>
		
			<line fill="none" stroke="#000000" stroke-width="2.6389" stroke-linejoin="round" stroke-miterlimit="10" x1="415.48" y1="392.936" x2="459.058" y2="392.936"/>
		
			<line fill="none" stroke="#000000" stroke-width="1.9792" stroke-linejoin="round" stroke-miterlimit="10" x1="437.27" y1="504.103" x2="437.27" y2="437.688"/>
		
			<line fill="none" stroke="#000000" stroke-width="1.9792" stroke-linejoin="round" stroke-miterlimit="10" x1="437.27" y1="214.865" x2="437.27" y2="332.383"/>
	</g>
</g>
</svg>
