<?xml version="1.0" encoding="utf-8"?>
<!-- Generator: Adobe Illustrator 16.0.0, SVG Export Plug-In . SVG Version: 6.00 Build 0)  -->
<!DOCTYPE svg PUBLIC "-//W3C//DTD SVG 1.1//EN" "http://www.w3.org/Graphics/SVG/1.1/DTD/svg11.dtd">
<svg version="1.1" id="Layer_1" xmlns="http://www.w3.org/2000/svg" xmlns:xlink="http://www.w3.org/1999/xlink" x="0px" y="0px"
	 width="1462px" height="634px" viewBox="0 0 1462 634" enable-background="new 0 0 1462 634" xml:space="preserve">
<g transform="translate(756.5007,44.1)">
	<text transform="matrix(1 0 0 1 -95.5002 -6.9996)" font-family="'MyriadPro-Regular'" font-size="20.5833">Fqcy Down spindles</text>
</g>
<g>
	
		<line fill="none" stroke="#000000" stroke-width="2.2431" stroke-linecap="square" stroke-linejoin="round" stroke-miterlimit="10" x1="190" y1="564" x2="509" y2="564"/>
	
		<line fill="none" stroke="#000000" stroke-width="2.2431" stroke-linecap="square" stroke-linejoin="round" stroke-miterlimit="10" x1="262.73" y1="564" x2="262.73" y2="575.33"/>
	
		<line fill="none" stroke="#000000" stroke-width="2.2431" stroke-linecap="square" stroke-linejoin="round" stroke-miterlimit="10" x1="358.5" y1="564" x2="358.5" y2="575.33"/>
	
		<line fill="none" stroke="#000000" stroke-width="2.2431" stroke-linecap="square" stroke-linejoin="round" stroke-miterlimit="10" x1="459.27" y1="564" x2="459.27" y2="575.33"/>
	<g transform="translate(320.7308,581.1356)">
		<text transform="matrix(1 0 0 1 -88.4998 16.9999)" font-family="'MyriadPro-Regular'" font-size="15.8333">Pre-task</text>
	</g>
	<g transform="translate(756.5,581.1356)">
		<text transform="matrix(1 0 0 1 -439 16.9999)" font-family="'MyriadPro-Regular'" font-size="15.8333">Post-task 1</text>
	</g>
	<g transform="translate(1192.2693,581.1356)">
		<text transform="matrix(1 0 0 1 -773.9998 16.9999)" font-family="'MyriadPro-Regular'" font-size="15.8333">Post-task 2</text>
	</g>
	<g>
		
			<line fill="none" stroke="#000000" stroke-width="2.2431" stroke-linecap="square" stroke-linejoin="round" stroke-miterlimit="10" x1="190" y1="564" x2="190" y2="48"/>
		
			<line fill="none" stroke="#000000" stroke-width="2.2431" stroke-linecap="square" stroke-linejoin="round" stroke-miterlimit="10" x1="190" y1="564" x2="178.67" y2="564"/>
		
			<line fill="none" stroke="#000000" stroke-width="2.2431" stroke-linecap="square" stroke-linejoin="round" stroke-miterlimit="10" x1="190" y1="499.5" x2="178.67" y2="499.5"/>
		
			<line fill="none" stroke="#000000" stroke-width="2.2431" stroke-linecap="square" stroke-linejoin="round" stroke-miterlimit="10" x1="190" y1="435" x2="178.67" y2="435"/>
		
			<line fill="none" stroke="#000000" stroke-width="2.2431" stroke-linecap="square" stroke-linejoin="round" stroke-miterlimit="10" x1="190" y1="370.5" x2="178.67" y2="370.5"/>
		
			<line fill="none" stroke="#000000" stroke-width="2.2431" stroke-linecap="square" stroke-linejoin="round" stroke-miterlimit="10" x1="190" y1="306" x2="178.67" y2="306"/>
		
			<line fill="none" stroke="#000000" stroke-width="2.2431" stroke-linecap="square" stroke-linejoin="round" stroke-miterlimit="10" x1="190" y1="241.5" x2="178.67" y2="241.5"/>
		
			<line fill="none" stroke="#000000" stroke-width="2.2431" stroke-linecap="square" stroke-linejoin="round" stroke-miterlimit="10" x1="190" y1="177" x2="178.67" y2="177"/>
		
			<line fill="none" stroke="#000000" stroke-width="2.2431" stroke-linecap="square" stroke-linejoin="round" stroke-miterlimit="10" x1="190" y1="112.5" x2="178.67" y2="112.5"/>
		
			<line fill="none" stroke="#000000" stroke-width="2.2431" stroke-linecap="square" stroke-linejoin="round" stroke-miterlimit="10" x1="190" y1="48" x2="178.67" y2="48"/>
	</g>
	<g transform="translate(172.8644,564)">
		<text transform="matrix(1 0 0 1 -10.0001 5.9998)" font-family="'MyriadPro-Regular'" font-size="15.8333">0</text>
	</g>
	<g transform="translate(172.8644,499.5)">
		<text transform="matrix(1 0 0 1 -23.0001 5.9998)" font-family="'MyriadPro-Regular'" font-size="15.8333">0.1</text>
	</g>
	<g transform="translate(172.8644,435)">
		<text transform="matrix(1 0 0 1 -23.0001 5.9998)" font-family="'MyriadPro-Regular'" font-size="15.8333">0.2</text>
	</g>
	<g transform="translate(172.8644,370.5)">
		<text transform="matrix(1 0 0 1 -23.0001 5.9998)" font-family="'MyriadPro-Regular'" font-size="15.8333">0.3</text>
	</g>
	<g transform="translate(172.8644,306)">
		<text transform="matrix(1 0 0 1 -23.0001 5.9998)" font-family="'MyriadPro-Regular'" font-size="15.8333">0.4</text>
	</g>
	<g transform="translate(172.8644,241.5)">
		<text transform="matrix(1 0 0 1 -23.0001 5.9998)" font-family="'MyriadPro-Regular'" font-size="15.8333">0.5</text>
	</g>
	<g transform="translate(172.8644,177)">
		<text transform="matrix(1 0 0 1 -23.0001 5.9998)" font-family="'MyriadPro-Regular'" font-size="15.8333">0.6</text>
	</g>
	<g transform="translate(172.8644,112.5)">
		<text transform="matrix(1 0 0 1 -23.0001 5.9998)" font-family="'MyriadPro-Regular'" font-size="15.8333">0.7</text>
	</g>
	<g transform="translate(172.8644,48)">
		<text transform="matrix(1 0 0 1 -23.0001 5.9998)" font-family="'MyriadPro-Regular'" font-size="15.8333">0.8</text>
	</g>
	<g transform="translate(145.9061,305.9998) rotate(-90)">
		<text transform="matrix(1 0 0 1 -106 -5.9998)" font-family="'MyriadPro-Regular'" font-size="19">Events per seconds (Hz)</text>
	</g>
	<g>
		<path fill="#808080" d="M240.942,533.863v18.788h43.577v-18.788H240.942z"/>
	</g>
	<g>
		<path fill="none" stroke="#000000" stroke-width="0.6597" stroke-linecap="square" stroke-miterlimit="10" d="M240.942,533.863
			v18.788V533.863h43.577l0,0v18.788l0,0h-43.577V533.863"/>
		
			<line fill="none" stroke="#000000" stroke-width="2.6389" stroke-linejoin="round" stroke-miterlimit="10" x1="240.942" y1="538.732" x2="284.52" y2="538.732"/>
		
			<line fill="none" stroke="#000000" stroke-width="1.9792" stroke-linejoin="round" stroke-miterlimit="10" x1="262.73" y1="558.503" x2="262.73" y2="552.651"/>
		
			<line fill="none" stroke="#000000" stroke-width="1.9792" stroke-linejoin="round" stroke-miterlimit="10" x1="262.73" y1="513.365" x2="262.73" y2="533.863"/>
	</g>
	<g>
		<path fill="#CCCCCC" d="M336.712,529.422v14.729h43.576v-14.729H336.712z"/>
	</g>
	<g>
		<path fill="none" stroke="#000000" stroke-width="0.6597" stroke-linecap="square" stroke-miterlimit="10" d="M336.712,529.422
			v14.729V529.422h43.576l0,0v14.729l0,0h-43.576V529.422"/>
		
			<line fill="none" stroke="#000000" stroke-width="2.6389" stroke-linejoin="round" stroke-miterlimit="10" x1="336.712" y1="541.115" x2="380.288" y2="541.115"/>
		
			<line fill="none" stroke="#000000" stroke-width="1.9792" stroke-linejoin="round" stroke-miterlimit="10" x1="358.5" y1="554.617" x2="358.5" y2="544.15"/>
		
			<line fill="none" stroke="#000000" stroke-width="1.9792" stroke-linejoin="round" stroke-miterlimit="10" x1="358.5" y1="511.308" x2="358.5" y2="529.422"/>
		<path fill="none" stroke="#000000" stroke-width="0.6597" stroke-miterlimit="10" d="M347.441,104.774v10 M342.441,109.774h10
			 M344.143,106.476l6.597,6.597 M344.143,113.073l6.597-6.597"/>
	</g>
	<g>
		<path fill="#B3B3B3" d="M437.48,538.978v13.001h43.577v-13.001H437.48z"/>
	</g>
	<g>
		<path fill="none" stroke="#000000" stroke-width="0.6597" stroke-linecap="square" stroke-miterlimit="10" d="M437.48,538.978
			v13.001V538.978h43.577l0,0v13.001l0,0H437.48V538.978"/>
		
			<line fill="none" stroke="#000000" stroke-width="2.6389" stroke-linejoin="round" stroke-miterlimit="10" x1="437.48" y1="543.5" x2="481.058" y2="543.5"/>
		
			<line fill="none" stroke="#000000" stroke-width="1.9792" stroke-linejoin="round" stroke-miterlimit="10" x1="459.27" y1="557.921" x2="459.27" y2="551.979"/>
		
			<line fill="none" stroke="#000000" stroke-width="1.9792" stroke-linejoin="round" stroke-miterlimit="10" x1="459.27" y1="524.205" x2="459.27" y2="538.978"/>
	</g>
</g>
</svg>
