<?xml version="1.0" encoding="utf-8"?>
<!-- Generator: Adobe Illustrator 16.0.0, SVG Export Plug-In . SVG Version: 6.00 Build 0)  -->
<!DOCTYPE svg PUBLIC "-//W3C//DTD SVG 1.1//EN" "http://www.w3.org/Graphics/SVG/1.1/DTD/svg11.dtd">
<svg version="1.1" id="Layer_1" xmlns="http://www.w3.org/2000/svg" xmlns:xlink="http://www.w3.org/1999/xlink" x="0px" y="0px"
	 width="560px" height="449px" viewBox="0 0 560 449" enable-background="new 0 0 560 449" xml:space="preserve">
<g transform="translate(290.0003,31.25)">
	<text transform="matrix(1 0 0 1 -82.9998 -43.0002)" font-family="'MyriadPro-Regular'" font-size="14.5139">Smooth histogram (KDE)</text>
</g>
<g>
	
		<line fill="none" stroke="#262626" stroke-width="0.6597" stroke-linecap="square" stroke-linejoin="round" stroke-miterlimit="10" x1="73" y1="400" x2="486.5" y2="400"/>
	
		<line fill="none" stroke="#262626" stroke-width="0.6597" stroke-linecap="square" stroke-linejoin="round" stroke-miterlimit="10" x1="73" y1="400" x2="73" y2="395.66"/>
	
		<line fill="none" stroke="#262626" stroke-width="0.6597" stroke-linecap="square" stroke-linejoin="round" stroke-miterlimit="10" x1="116.4" y1="400" x2="116.4" y2="395.66"/>
	
		<line fill="none" stroke="#262626" stroke-width="0.6597" stroke-linecap="square" stroke-linejoin="round" stroke-miterlimit="10" x1="159.8" y1="400" x2="159.8" y2="395.66"/>
	
		<line fill="none" stroke="#262626" stroke-width="0.6597" stroke-linecap="square" stroke-linejoin="round" stroke-miterlimit="10" x1="203.2" y1="400" x2="203.2" y2="395.66"/>
	
		<line fill="none" stroke="#262626" stroke-width="0.6597" stroke-linecap="square" stroke-linejoin="round" stroke-miterlimit="10" x1="246.6" y1="400" x2="246.6" y2="395.66"/>
	
		<line fill="none" stroke="#262626" stroke-width="0.6597" stroke-linecap="square" stroke-linejoin="round" stroke-miterlimit="10" x1="290" y1="400" x2="290" y2="395.66"/>
	
		<line fill="none" stroke="#262626" stroke-width="0.6597" stroke-linecap="square" stroke-linejoin="round" stroke-miterlimit="10" x1="333.4" y1="400" x2="333.4" y2="395.66"/>
	
		<line fill="none" stroke="#262626" stroke-width="0.6597" stroke-linecap="square" stroke-linejoin="round" stroke-miterlimit="10" x1="376.8" y1="400" x2="376.8" y2="395.66"/>
	
		<line fill="none" stroke="#262626" stroke-width="0.6597" stroke-linecap="square" stroke-linejoin="round" stroke-miterlimit="10" x1="420.2" y1="400" x2="420.2" y2="395.66"/>
	
		<line fill="none" stroke="#262626" stroke-width="0.6597" stroke-linecap="square" stroke-linejoin="round" stroke-miterlimit="10" x1="463.6" y1="400" x2="463.6" y2="395.66"/>
	
		<line fill="none" stroke="#262626" stroke-width="0.6597" stroke-linecap="square" stroke-linejoin="round" stroke-miterlimit="10" x1="73" y1="34" x2="73" y2="38.34"/>
	<g transform="translate(73,405.2778)">
		<text transform="matrix(1 0 0 1 -8 15.0003)" fill="#262626" font-family="'MyriadPro-Regular'" font-size="13.1944">10</text>
	</g>
	<g transform="translate(116.4,405.2778)">
		<text transform="matrix(1 0 0 1 -8.0001 15.0003)" fill="#262626" font-family="'MyriadPro-Regular'" font-size="13.1944">20</text>
	</g>
	<g transform="translate(159.8,405.2778)">
		<text transform="matrix(1 0 0 1 -8.0002 15.0003)" fill="#262626" font-family="'MyriadPro-Regular'" font-size="13.1944">30</text>
	</g>
	<g transform="translate(203.2,405.2778)">
		<text transform="matrix(1 0 0 1 -7.9998 15.0003)" fill="#262626" font-family="'MyriadPro-Regular'" font-size="13.1944">40</text>
	</g>
	<g transform="translate(246.6,405.2778)">
		<text transform="matrix(1 0 0 1 -7.9999 15.0003)" fill="#262626" font-family="'MyriadPro-Regular'" font-size="13.1944">50</text>
	</g>
	<g transform="translate(290,405.2778)">
		<text transform="matrix(1 0 0 1 -8 15.0003)" fill="#262626" font-family="'MyriadPro-Regular'" font-size="13.1944">60</text>
	</g>
	<g transform="translate(333.4,405.2778)">
		<text transform="matrix(1 0 0 1 -7.9996 15.0003)" fill="#262626" font-family="'MyriadPro-Regular'" font-size="13.1944">70</text>
	</g>
	<g transform="translate(376.8,405.2778)">
		<text transform="matrix(1 0 0 1 -8.0002 15.0003)" fill="#262626" font-family="'MyriadPro-Regular'" font-size="13.1944">80</text>
	</g>
	<g transform="translate(420.2,405.2778)">
		<text transform="matrix(1 0 0 1 -7.9998 15.0003)" fill="#262626" font-family="'MyriadPro-Regular'" font-size="13.1944">90</text>
	</g>
	<g transform="translate(463.6,405.2778)">
		<text transform="matrix(1 0 0 1 -11.5004 15.0003)" fill="#262626" font-family="'MyriadPro-Regular'" font-size="13.1944">100</text>
	</g>
	<g transform="translate(290.0002,425.5972)">
		<text transform="matrix(1 0 0 1 -47.0002 16.0002)" fill="#262626" font-family="'MyriadPro-Regular'" font-size="14.5139">Duration (ms)</text>
	</g>
	
		<line fill="none" stroke="#262626" stroke-width="0.6597" stroke-linecap="square" stroke-linejoin="round" stroke-miterlimit="10" x1="73" y1="400" x2="73" y2="34"/>
	
		<line fill="none" stroke="#262626" stroke-width="0.6597" stroke-linecap="square" stroke-linejoin="round" stroke-miterlimit="10" x1="73" y1="400" x2="77.34" y2="400"/>
	
		<line fill="none" stroke="#262626" stroke-width="0.6597" stroke-linecap="square" stroke-linejoin="round" stroke-miterlimit="10" x1="73" y1="359.334" x2="77.34" y2="359.334"/>
	
		<line fill="none" stroke="#262626" stroke-width="0.6597" stroke-linecap="square" stroke-linejoin="round" stroke-miterlimit="10" x1="73" y1="318.667" x2="77.34" y2="318.667"/>
	
		<line fill="none" stroke="#262626" stroke-width="0.6597" stroke-linecap="square" stroke-linejoin="round" stroke-miterlimit="10" x1="73" y1="278" x2="77.34" y2="278"/>
	
		<line fill="none" stroke="#262626" stroke-width="0.6597" stroke-linecap="square" stroke-linejoin="round" stroke-miterlimit="10" x1="73" y1="237.334" x2="77.34" y2="237.334"/>
	
		<line fill="none" stroke="#262626" stroke-width="0.6597" stroke-linecap="square" stroke-linejoin="round" stroke-miterlimit="10" x1="73" y1="196.667" x2="77.34" y2="196.667"/>
	
		<line fill="none" stroke="#262626" stroke-width="0.6597" stroke-linecap="square" stroke-linejoin="round" stroke-miterlimit="10" x1="73" y1="156" x2="77.34" y2="156"/>
	
		<line fill="none" stroke="#262626" stroke-width="0.6597" stroke-linecap="square" stroke-linejoin="round" stroke-miterlimit="10" x1="73" y1="115.334" x2="77.34" y2="115.334"/>
	
		<line fill="none" stroke="#262626" stroke-width="0.6597" stroke-linecap="square" stroke-linejoin="round" stroke-miterlimit="10" x1="73" y1="74.667" x2="77.34" y2="74.667"/>
	
		<line fill="none" stroke="#262626" stroke-width="0.6597" stroke-linecap="square" stroke-linejoin="round" stroke-miterlimit="10" x1="73" y1="34" x2="77.34" y2="34"/>
	<g transform="translate(67.7222,400)">
		<text transform="matrix(1 0 0 1 -8 5.4998)" fill="#262626" font-family="'MyriadPro-Regular'" font-size="13.1944">0</text>
	</g>
	<g transform="translate(67.7222,359.3333)">
		<text transform="matrix(1 0 0 1 -34 5.5004)" fill="#262626" font-family="'MyriadPro-Regular'" font-size="13.1944">0.005</text>
	</g>
	<g transform="translate(67.7222,318.6667)">
		<text transform="matrix(1 0 0 1 -27 5.5001)" fill="#262626" font-family="'MyriadPro-Regular'" font-size="13.1944">0.01</text>
	</g>
	<g transform="translate(67.7222,278)">
		<text transform="matrix(1 0 0 1 -34 5.4998)" fill="#262626" font-family="'MyriadPro-Regular'" font-size="13.1944">0.015</text>
	</g>
	<g transform="translate(67.7222,237.3333)">
		<text transform="matrix(1 0 0 1 -27 5.5004)" fill="#262626" font-family="'MyriadPro-Regular'" font-size="13.1944">0.02</text>
	</g>
	<g transform="translate(67.7222,196.6667)">
		<text transform="matrix(1 0 0 1 -34 5.5001)" fill="#262626" font-family="'MyriadPro-Regular'" font-size="13.1944">0.025</text>
	</g>
	<g transform="translate(67.7222,156)">
		<text transform="matrix(1 0 0 1 -27 5.4998)" fill="#262626" font-family="'MyriadPro-Regular'" font-size="13.1944">0.03</text>
	</g>
	<g transform="translate(67.7222,115.3333)">
		<text transform="matrix(1 0 0 1 -34 5.5004)" fill="#262626" font-family="'MyriadPro-Regular'" font-size="13.1944">0.035</text>
	</g>
	<g transform="translate(67.7222,74.6667)">
		<text transform="matrix(1 0 0 1 -27 5.5001)" fill="#262626" font-family="'MyriadPro-Regular'" font-size="13.1944">0.04</text>
	</g>
	<g transform="translate(67.7222,34)">
		<text transform="matrix(1 0 0 1 -34 5.4998)" fill="#262626" font-family="'MyriadPro-Regular'" font-size="13.1944">0.045</text>
	</g>
	<g transform="translate(29.7639,216.9998) rotate(-90)">
		<text transform="matrix(1 0 0 1 -36.9999 -5.0002)" fill="#262626" font-family="'MyriadPro-Regular'" font-size="14.5139">Probability</text>
	</g>
	<g>
		<path fill="none" stroke="#0000FF" stroke-width="2.6389" stroke-linejoin="round" stroke-miterlimit="10" d="M116.4,201.604
			l1.745-32.924l1.745-5.124l1.745,2.675l1.745-0.422l1.745-7.533l1.745-18.335l1.745-28.725l1.745-29.181l1.745-16.944l1.745,3.09
			l1.745,21.819l1.745,28.242l1.745,20.604l1.745,5.667l1.745-9.437l1.745-17.616l1.745-16.901l1.745-8.707l1.745,1.887l1.745,8.371
			l1.745,9.228l1.745,7.228l1.745,5.062l1.745,4.304l1.745,2.873l1.745-1.893l1.745-6.858l1.745-5.241l1.745,1.02l1.745,4.463
			l1.745,3.669l1.745,2.411l1.745,2.426l1.745,3.479l1.745,4.828l1.745,5.992l1.745,6.398l1.745,5.529l1.745,2.883l1.745-0.85
			l1.745-2.418l1.745,2.009l1.745,9.475l1.745,13.418l1.745,11.884l1.745,7.122l1.745,3.409l1.745,4.148l1.745,5.397l1.745,1.539
			l1.745-3.396l1.745-1.618l1.745,3.621l1.745,4.63l1.745,3.498l1.745,6.35l1.745,10.172l1.745,8.331l1.745,3.092l1.745,0.871
			l1.745,1.896l1.745,2.991l1.745,2.859l1.745,2.065l1.745,1.87l1.745,3.197l1.745,4.877l1.745,5.29l1.745,4.814l1.745,4.604
			l1.745,4.518l1.745,4.001l1.745,3.429l1.745,3.386l1.745,3.328l1.745,2.847l1.745,3.266l1.745,5.451l1.745,6.443l1.745,3.401
			l1.745-0.541l1.745-1.079l1.745,0.632l1.745,1.812l1.745,2.541l1.745,3.736l1.745,4.318l1.745,3.063l1.745,1.303l1.745,0.767
			l1.745,1l1.745,0.992l1.745,0.914l1.745,1.396l1.745,2.45l1.745,3.483l1.745,3.31l1.744,1.391l1.745-0.602l1.744-0.839
			l1.745,0.435l1.744,1.873l1.745,1.794l1.745-0.038l1.744-0.675l1.745,1.721l1.744,3.754l1.745,2.387l1.745,0.046l1.744-0.414
			l1.745,0.031l1.745-0.183l1.744-0.518l1.745-0.132l1.744,0.524l1.745,1.087l1.744,2.247l1.745,4.032l1.745,4.451l1.744,2.567
			l1.745,0.967l1.744,1.501l1.745,2.22l1.745,1.156l1.744-0.864l1.745-2.159l1.744-1.581l1.745,0.451l1.745,1.232l1.744-0.399
			l1.745-1.661l1.744-0.648l1.745,0.709l1.745,0.529l1.744-0.613l1.745-1.37l1.744-0.684l1.745,1.274l1.745,2.517l1.744,1.828
			l1.745,0.203l1.744-1.114l1.745-1.489l1.745-0.852l1.744,0.295l1.745,1.427l1.744,2.094l1.745,2.104l1.745,1.621l1.744,0.911
			l1.745,0.324l1.744-0.032l1.745-0.334l1.744-0.581l1.745-0.481l1.745-0.188l1.744-0.477l1.745-1.204l1.745-0.876l1.744,0.583
			l1.745,1.005l1.744-0.205l1.745-0.803l1.745,0.312l1.744,1.681l1.745,1.962l1.744,0.981l1.745-0.489l1.745-1.007l1.744-0.47
			l1.745-0.378l1.744-0.833l1.745-0.013l1.744,2.18l1.745,3.214l1.745,2.035l1.744,0.149l1.745-1.02l1.744-0.936l1.745-0.155
			l1.745,0.003l1.744-0.538l1.745-0.467l1.744,0.355l1.745,0.581l1.745-0.014l1.744-0.168l1.745,0.401l1.744,0.65l1.745,0.194
			l1.745-0.325l1.744-0.468l1.745-0.27l1.744-0.024l1.745-0.063l1.745-0.129l1.744,0.462l1.745,1.513l1.744,1.931"/>
		<path fill="none" stroke="#FF0000" stroke-width="2.6389" stroke-linejoin="round" stroke-miterlimit="10" d="M116.4,210.734
			l1.745-30.529l1.745-4.659l1.745,0.947l1.745-3.623l1.745-9.793l1.745-15.659l1.745-19.767l1.745-18.836l1.745-11.672l1.745,0.442
			l1.745,13.069l1.745,19.43l1.745,16.541l1.745,5.935l1.745-7.274l1.745-15.158l1.745-15.575l1.745-10.316l1.745-1.999l1.745,6.737
			l1.745,12.282l1.745,11.086l1.745,5.063l1.745,0.208l1.745-1.653l1.745-1.896l1.745-2.385l1.745-3.722l1.745-4.625l1.745-2.681
			l1.745,1.369l1.745,4.738l1.745,5.871l1.745,4.694l1.745,1.975l1.745-0.468l1.745-0.422l1.745,3.747l1.745,8.627l1.745,8.925
			l1.745,5.525l1.745,3.19l1.745,2.926l1.745,3.03l1.745,2.035l1.745,0.107l1.745-0.183l1.745,3.94l1.745,9.431l1.745,10.93
			l1.745,8.781l1.745,6.476l1.745,4.634l1.745,2.21l1.745-0.592l1.745-2.113l1.745-0.84l1.745,3.703l1.745,8.247l1.745,8.635
			l1.745,5.461l1.745,2.073l1.745,0.974l1.745,2.851l1.745,4.623l1.745,3.28l1.745,1.726l1.745,4.06l1.745,7.345l1.745,6.753
			l1.745,4.183l1.745,3.782l1.745,4.649l1.745,4.053l1.745,2.551l1.745,2.313l1.745,3.919l1.745,6.511l1.745,7.801l1.745,5.677
			l1.745,0.927l1.745-3.756l1.745-4.825l1.745-0.358l1.745,5.529l1.745,7.662l1.745,5.819l1.745,2.313l1.745-0.116l1.745,0.074
			l1.745,1.313l1.745,1.607l1.745,1.133l1.745,0.866l1.745,1.088l1.745,1.604l1.745,2.021l1.744,2.021l1.745,1.636l1.744,1.135
			l1.745,0.972l1.744,1.387l1.745,1.945l1.745,2.268l1.744,2.627l1.745,3.215l1.744,3.46l1.745,2.818l1.745,1.651l1.744,0.528
			l1.745-0.218l1.745-0.4l1.744,0.017l1.745,0.809l1.744,1.234l1.745,0.819l1.744,0.058l1.745-0.361l1.745-0.108l1.744,0.626
			l1.745,0.97l1.744,0.57l1.745,0.415l1.745,1.161l1.744,1.94l1.745,1.987l1.744,1.713l1.745,1.475l1.745,0.843l1.744-0.414
			l1.745-1.556l1.744-2.025l1.745-2.098l1.745-1.99l1.744-1.401l1.745-0.18l1.744,1.13l1.745,1.968l1.745,2.118l1.744,1.714
			l1.745,1.288l1.744,1.089l1.745,0.833l1.745,0.462l1.744,0.479l1.745,0.956l1.744,1.057l1.745,0.397l1.745-0.275l1.744-0.32
			l1.745,0.175l1.744,0.698l1.745,0.505l1.744-0.402l1.745-0.913l1.745-0.515l1.744,0.065l1.745,0.344l1.745,0.576l1.744,0.823
			l1.745,0.615l1.744-0.135l1.745-0.752l1.745-0.819l1.744-0.528l1.745-0.203l1.744-0.111l1.745-0.229l1.745-0.203l1.744,0.185
			l1.745,0.812l1.744,1.258l1.745,0.936l1.744-0.063l1.745-0.755l1.745-0.687l1.744-0.249l1.745,0.089l1.744,0.059l1.745-0.138
			l1.745,0.068l1.744,0.724l1.745,1.182l1.744,1.063l1.745,0.494l1.745-0.185l1.744-0.506l1.745-0.258l1.744,0.422l1.745,1.003
			l1.745,0.731l1.744-0.336l1.745-1.209l1.744-1.259l1.745-0.434l1.745,0.875l1.744,1.913l1.745,2.257l1.744,1.849"/>
	</g>
	<g>
		<path fill="#FFFFFF" d="M458,122.5v-38H326v38H458z"/>
	</g>
	<g transform="translate(410.3784,55.3636)">
		<text transform="matrix(1 0 0 1 -37.9995 44.0004)" font-family="'MyriadPro-Regular'" font-size="11.875">Ripples UP</text>
	</g>
	<g>
		
			<line fill="none" stroke="#0000FF" stroke-width="2.6389" stroke-linejoin="round" stroke-miterlimit="10" x1="329.982" y1="94.864" x2="369.392" y2="94.864"/>
	</g>
	<g transform="translate(410.3784,72.6364)">
		<text transform="matrix(1 0 0 1 -37.9995 44.0001)" font-family="'MyriadPro-Regular'" font-size="11.875">Ripples DOWN</text>
	</g>
	<g>
		
			<line fill="none" stroke="#FF0000" stroke-width="2.6389" stroke-linejoin="round" stroke-miterlimit="10" x1="329.982" y1="112.136" x2="369.392" y2="112.136"/>
	</g>
	<g>
		<path fill="none" stroke="#262626" stroke-width="0.6597" stroke-miterlimit="10" d="M326,122.5v-38h132v38H326z"/>
	</g>
</g>
</svg>
