<?xml version="1.0" encoding="utf-8"?>
<!-- Generator: Adobe Illustrator 16.0.0, SVG Export Plug-In . SVG Version: 6.00 Build 0)  -->
<!DOCTYPE svg PUBLIC "-//W3C//DTD SVG 1.1//EN" "http://www.w3.org/Graphics/SVG/1.1/DTD/svg11.dtd">
<svg version="1.1" id="Layer_1" xmlns="http://www.w3.org/2000/svg" xmlns:xlink="http://www.w3.org/1999/xlink" x="0px" y="0px"
	 width="560px" height="449px" viewBox="0 0 560 449" enable-background="new 0 0 560 449" xml:space="preserve">
<g transform="translate(290.0003,31.25)">
	<text transform="matrix(1 0 0 1 -66.9998 -60.0002)" font-family="'MyriadPro-Regular'" font-size="14.5139">Smooth histogram (KDE)</text>
</g>
<g>
	
		<line fill="none" stroke="#262626" stroke-width="0.6597" stroke-linecap="square" stroke-linejoin="round" stroke-miterlimit="10" x1="73" y1="400" x2="507" y2="400"/>
	
		<line fill="none" stroke="#262626" stroke-width="0.6597" stroke-linecap="square" stroke-linejoin="round" stroke-miterlimit="10" x1="73" y1="400" x2="73" y2="395.66"/>
	
		<line fill="none" stroke="#262626" stroke-width="0.6597" stroke-linecap="square" stroke-linejoin="round" stroke-miterlimit="10" x1="121.222" y1="400" x2="121.222" y2="395.66"/>
	
		<line fill="none" stroke="#262626" stroke-width="0.6597" stroke-linecap="square" stroke-linejoin="round" stroke-miterlimit="10" x1="169.444" y1="400" x2="169.444" y2="395.66"/>
	
		<line fill="none" stroke="#262626" stroke-width="0.6597" stroke-linecap="square" stroke-linejoin="round" stroke-miterlimit="10" x1="217.667" y1="400" x2="217.667" y2="395.66"/>
	
		<line fill="none" stroke="#262626" stroke-width="0.6597" stroke-linecap="square" stroke-linejoin="round" stroke-miterlimit="10" x1="265.889" y1="400" x2="265.889" y2="395.66"/>
	
		<line fill="none" stroke="#262626" stroke-width="0.6597" stroke-linecap="square" stroke-linejoin="round" stroke-miterlimit="10" x1="314.111" y1="400" x2="314.111" y2="395.66"/>
	
		<line fill="none" stroke="#262626" stroke-width="0.6597" stroke-linecap="square" stroke-linejoin="round" stroke-miterlimit="10" x1="362.333" y1="400" x2="362.333" y2="395.66"/>
	
		<line fill="none" stroke="#262626" stroke-width="0.6597" stroke-linecap="square" stroke-linejoin="round" stroke-miterlimit="10" x1="410.556" y1="400" x2="410.556" y2="395.66"/>
	
		<line fill="none" stroke="#262626" stroke-width="0.6597" stroke-linecap="square" stroke-linejoin="round" stroke-miterlimit="10" x1="458.777" y1="400" x2="458.777" y2="395.66"/>
	
		<line fill="none" stroke="#262626" stroke-width="0.6597" stroke-linecap="square" stroke-linejoin="round" stroke-miterlimit="10" x1="507" y1="400" x2="507" y2="395.66"/>
	
		<line fill="none" stroke="#262626" stroke-width="0.6597" stroke-linecap="square" stroke-linejoin="round" stroke-miterlimit="10" x1="73" y1="34" x2="73" y2="38.34"/>
	<g transform="translate(73,405.2778)">
		<text transform="matrix(1 0 0 1 -8 15.0003)" fill="#262626" font-family="'MyriadPro-Regular'" font-size="13.1944">10</text>
	</g>
	<g transform="translate(121.2222,405.2778)">
		<text transform="matrix(1 0 0 1 -8 15.0003)" fill="#262626" font-family="'MyriadPro-Regular'" font-size="13.1944">20</text>
	</g>
	<g transform="translate(169.4444,405.2778)">
		<text transform="matrix(1 0 0 1 -8.0001 15.0003)" fill="#262626" font-family="'MyriadPro-Regular'" font-size="13.1944">30</text>
	</g>
	<g transform="translate(217.6667,405.2778)">
		<text transform="matrix(1 0 0 1 -8.0002 15.0003)" fill="#262626" font-family="'MyriadPro-Regular'" font-size="13.1944">40</text>
	</g>
	<g transform="translate(265.8889,405.2778)">
		<text transform="matrix(1 0 0 1 -8.0002 15.0003)" fill="#262626" font-family="'MyriadPro-Regular'" font-size="13.1944">50</text>
	</g>
	<g transform="translate(314.1111,405.2778)">
		<text transform="matrix(1 0 0 1 -7.9998 15.0003)" fill="#262626" font-family="'MyriadPro-Regular'" font-size="13.1944">60</text>
	</g>
	<g transform="translate(362.3333,405.2778)">
		<text transform="matrix(1 0 0 1 -7.9993 15.0003)" fill="#262626" font-family="'MyriadPro-Regular'" font-size="13.1944">70</text>
	</g>
	<g transform="translate(410.5555,405.2778)">
		<text transform="matrix(1 0 0 1 -7.9998 15.0003)" fill="#262626" font-family="'MyriadPro-Regular'" font-size="13.1944">80</text>
	</g>
	<g transform="translate(458.7778,405.2778)">
		<text transform="matrix(1 0 0 1 -8.0005 15.0003)" fill="#262626" font-family="'MyriadPro-Regular'" font-size="13.1944">90</text>
	</g>
	<g transform="translate(507,405.2778)">
		<text transform="matrix(1 0 0 1 -11.5 15.0003)" fill="#262626" font-family="'MyriadPro-Regular'" font-size="13.1944">100</text>
	</g>
	<g transform="translate(290.0002,425.5972)">
		<text transform="matrix(1 0 0 1 -47.0002 16.0002)" fill="#262626" font-family="'MyriadPro-Regular'" font-size="14.5139">Duration (ms)</text>
	</g>
	
		<line fill="none" stroke="#262626" stroke-width="0.6597" stroke-linecap="square" stroke-linejoin="round" stroke-miterlimit="10" x1="73" y1="400" x2="73" y2="34"/>
	
		<line fill="none" stroke="#262626" stroke-width="0.6597" stroke-linecap="square" stroke-linejoin="round" stroke-miterlimit="10" x1="73" y1="400" x2="77.34" y2="400"/>
	
		<line fill="none" stroke="#262626" stroke-width="0.6597" stroke-linecap="square" stroke-linejoin="round" stroke-miterlimit="10" x1="73" y1="354.25" x2="77.34" y2="354.25"/>
	
		<line fill="none" stroke="#262626" stroke-width="0.6597" stroke-linecap="square" stroke-linejoin="round" stroke-miterlimit="10" x1="73" y1="308.5" x2="77.34" y2="308.5"/>
	
		<line fill="none" stroke="#262626" stroke-width="0.6597" stroke-linecap="square" stroke-linejoin="round" stroke-miterlimit="10" x1="73" y1="262.75" x2="77.34" y2="262.75"/>
	
		<line fill="none" stroke="#262626" stroke-width="0.6597" stroke-linecap="square" stroke-linejoin="round" stroke-miterlimit="10" x1="73" y1="217" x2="77.34" y2="217"/>
	
		<line fill="none" stroke="#262626" stroke-width="0.6597" stroke-linecap="square" stroke-linejoin="round" stroke-miterlimit="10" x1="73" y1="171.25" x2="77.34" y2="171.25"/>
	
		<line fill="none" stroke="#262626" stroke-width="0.6597" stroke-linecap="square" stroke-linejoin="round" stroke-miterlimit="10" x1="73" y1="125.5" x2="77.34" y2="125.5"/>
	
		<line fill="none" stroke="#262626" stroke-width="0.6597" stroke-linecap="square" stroke-linejoin="round" stroke-miterlimit="10" x1="73" y1="79.75" x2="77.34" y2="79.75"/>
	
		<line fill="none" stroke="#262626" stroke-width="0.6597" stroke-linecap="square" stroke-linejoin="round" stroke-miterlimit="10" x1="73" y1="34" x2="77.34" y2="34"/>
	
		<line fill="none" stroke="#262626" stroke-width="0.6597" stroke-linecap="square" stroke-linejoin="round" stroke-miterlimit="10" x1="507" y1="400" x2="502.66" y2="400"/>
	<g transform="translate(67.7222,400)">
		<text transform="matrix(1 0 0 1 -8 5.4998)" fill="#262626" font-family="'MyriadPro-Regular'" font-size="13.1944">0</text>
	</g>
	<g transform="translate(67.7222,354.25)">
		<text transform="matrix(1 0 0 1 -34 5.4998)" fill="#262626" font-family="'MyriadPro-Regular'" font-size="13.1944">0.005</text>
	</g>
	<g transform="translate(67.7222,308.5)">
		<text transform="matrix(1 0 0 1 -27 5.4998)" fill="#262626" font-family="'MyriadPro-Regular'" font-size="13.1944">0.01</text>
	</g>
	<g transform="translate(67.7222,262.75)">
		<text transform="matrix(1 0 0 1 -34 5.4998)" fill="#262626" font-family="'MyriadPro-Regular'" font-size="13.1944">0.015</text>
	</g>
	<g transform="translate(67.7222,217)">
		<text transform="matrix(1 0 0 1 -27 5.4998)" fill="#262626" font-family="'MyriadPro-Regular'" font-size="13.1944">0.02</text>
	</g>
	<g transform="translate(67.7222,171.25)">
		<text transform="matrix(1 0 0 1 -34 5.4998)" fill="#262626" font-family="'MyriadPro-Regular'" font-size="13.1944">0.025</text>
	</g>
	<g transform="translate(67.7222,125.5)">
		<text transform="matrix(1 0 0 1 -27 5.4998)" fill="#262626" font-family="'MyriadPro-Regular'" font-size="13.1944">0.03</text>
	</g>
	<g transform="translate(67.7222,79.75)">
		<text transform="matrix(1 0 0 1 -34 5.4998)" fill="#262626" font-family="'MyriadPro-Regular'" font-size="13.1944">0.035</text>
	</g>
	<g transform="translate(67.7222,34)">
		<text transform="matrix(1 0 0 1 -27 5.4998)" fill="#262626" font-family="'MyriadPro-Regular'" font-size="13.1944">0.04</text>
	</g>
	<g transform="translate(29.7639,216.9998) rotate(-90)">
		<text transform="matrix(1 0 0 1 -36.9999 -5.0002)" fill="#262626" font-family="'MyriadPro-Regular'" font-size="14.5139">Probability</text>
	</g>
	<g>
		<path fill="none" stroke="#0000FF" stroke-width="2.6389" stroke-linejoin="round" stroke-miterlimit="10" d="M121.222,222.334
			l1.938-33.484l1.939-23.596l1.938-15.817l1.938-12.278l1.938-12.301l1.938-13.674l1.939-13.967l1.938-11.72l1.938-6.726
			l1.938-0.261l1.938,5.436l1.939,8.354l1.938,7.329l1.938,3.135l1.938-2.301l1.938-6.438l1.939-7.738l1.938-5.813l1.938-1.887
			l1.939,2.414l1.938,5.276l1.938,6.056l1.938,4.844l1.938,2.692l1.939,0.439l1.938-1.248l1.938-2.31l1.938-2.56l1.938-2.07
			l1.939-0.753l1.938,0.903l1.938,2.46l1.938,3.279l1.938,3.367l1.939,2.987l1.938,2.892l1.938,3.399l1.938,4.524l1.939,5.584
			l1.938,6.098l1.938,5.757l1.938,4.938l1.938,3.918l1.939,3.117l1.938,2.644l1.938,2.853l1.938,3.796l1.938,5.398l1.939,6.973
			l1.938,7.923l1.938,7.753l1.938,6.627l1.939,4.868l1.938,3.121l1.938,1.864l1.938,1.612l1.938,2.359l1.939,3.77l1.938,5.016
			l1.938,5.555l1.938,5.212l1.938,4.476l1.939,3.816l1.938,3.567l1.938,3.63l1.938,3.945l1.939,4.407l1.938,5.001l1.938,5.468
			l1.938,5.653l1.938,5.458l1.939,5.076l1.938,4.641l1.938,4.333l1.938,4.243l1.938,4.492l1.939,4.916l1.938,5.164l1.938,4.729
			l1.938,3.498l1.938,1.839l1.939,0.601l1.939,0.438l1.938,1.413l1.939,2.833l1.938,3.829l1.938,3.892l1.938,3.203l1.938,2.281
			l1.939,1.613l1.938,1.313l1.938,1.268l1.939,1.315l1.938,1.407l1.938,1.53l1.938,1.684l1.938,1.791l1.938,1.813l1.938,1.752
			l1.938,1.69l1.938,1.715l1.939,1.887l1.938,2.177l1.938,2.525l1.938,2.82l1.938,2.956l1.938,2.828l1.938,2.418l1.938,1.799
			l1.938,1.151l1.939,0.651l1.938,0.413l1.938,0.404l1.938,0.508l1.938,0.565l1.938,0.515l1.938,0.393l1.938,0.313l1.938,0.342
			l1.938,0.473l1.939,0.651l1.938,0.853l1.938,1.084l1.938,1.339l1.938,1.553l1.938,1.618l1.938,1.456l1.938,1.036l1.938,0.405
			l1.939-0.329l1.938-1.009l1.938-1.473l1.938-1.614l1.938-1.391l1.938-0.848l1.938-0.105l1.938,0.653l1.938,1.246l1.939,1.569
			l1.938,1.617l1.938,1.479l1.938,1.26l1.938,1.049l1.938,0.898l1.938,0.806l1.938,0.723l1.938,0.597l1.939,0.429l1.938,0.271
			l1.938,0.183l1.938,0.155l1.938,0.119l1.938,0.018l1.938-0.122l1.938-0.207l1.938-0.163l1.938,0.003l1.939,0.206l1.938,0.347
			l1.938,0.346l1.938,0.194l1.938-0.053l1.938-0.288l1.938-0.426l1.938-0.439l1.938-0.364l1.939-0.239l1.938-0.082l1.938,0.117
			l1.938,0.338l1.938,0.512l1.938,0.547l1.938,0.404l1.938,0.146l1.938-0.102l1.939-0.234l1.938-0.229l1.938-0.134l1.938,0.009
			l1.938,0.18l1.938,0.38l1.938,0.565l1.938,0.661l1.938,0.609l1.938,0.437l1.939,0.238l1.938,0.13l1.938,0.146l1.938,0.216
			l1.938,0.214l1.938,0.066l1.938-0.167l1.938-0.321l1.938-0.224l1.939,0.159l1.938,0.707l1.938,1.203l1.938,1.46l1.938,1.417"/>
		<path fill="none" stroke="#FF0000" stroke-width="2.6389" stroke-linejoin="round" stroke-miterlimit="10" d="M121.222,228.026
			l1.938-38.322l1.939-29.299l1.938-20.884l1.938-16.208l1.938-15.475l1.938-16.393l1.939-15.89l1.938-12.415l1.938-6.606
			l1.938-0.577l1.938,3.73l1.939,5.566l1.938,4.866l1.938,2.338l1.938-1.2l1.938-4.413l1.939-6.275l1.938-5.957l1.938-3.597
			l1.939,0.314l1.938,4.31l1.938,7.108l1.938,7.703l1.938,6.477l1.939,4.357l1.938,2.545l1.938,1.336l1.938,0.734l1.938,0.398
			l1.939,0.466l1.938,0.743l1.938,1.162l1.938,1.345l1.938,1.473l1.939,1.687l1.938,2.279l1.938,3.022l1.938,3.885l1.939,4.794
			l1.938,6.052l1.938,7.525l1.938,8.955l1.938,9.677l1.939,9.5l1.938,8.417l1.938,6.967l1.938,5.505l1.938,4.422l1.939,3.596
			l1.938,2.969l1.938,2.348l1.938,2.001l1.939,2.147l1.938,3.119l1.938,4.711l1.938,6.508l1.938,7.8l1.939,8.225l1.938,7.685
			l1.938,6.606l1.938,5.417l1.938,4.589l1.939,4.235l1.938,4.371l1.938,4.695l1.938,4.964l1.939,4.871l1.938,4.455l1.938,3.844
			l1.938,3.342l1.938,3.094l1.939,3.305l1.938,4.005l1.938,5.08l1.938,6.036l1.938,6.398l1.939,5.917l1.938,4.857l1.938,3.609
			l1.938,2.564l1.938,1.891l1.939,1.718l1.939,2.021l1.938,2.655l1.939,3.236l1.938,3.443l1.938,3.115l1.938,2.414l1.938,1.623
			l1.939,1.015l1.938,0.674l1.938,0.523l1.939,0.381l1.938,0.156l1.938-0.115l1.938-0.268l1.938-0.173l1.938,0.255l1.938,1.008
			l1.938,1.995l1.938,2.971l1.939,3.604l1.938,3.61l1.938,2.967l1.938,1.948l1.938,0.992l1.938,0.424l1.938,0.308l1.938,0.467
			l1.938,0.677l1.939,0.805l1.938,0.849l1.938,0.824l1.938,0.723l1.938,0.535l1.938,0.318l1.938,0.171l1.938,0.124l1.938,0.103
			l1.938,0.046l1.939,0.021l1.938,0.209l1.938,0.729l1.938,1.482l1.938,2.166l1.938,2.453l1.938,2.2l1.938,1.517l1.938,0.687
			l1.939-0.004l1.938-0.409l1.938-0.521l1.938-0.414l1.938-0.154l1.938,0.213l1.938,0.634l1.938,1.006l1.938,1.19l1.939,1.114
			l1.938,0.808l1.938,0.405l1.938,0.011l1.938-0.35l1.938-0.706l1.938-1.028l1.938-1.189l1.938-1.037l1.939-0.518l1.938,0.24
			l1.938,0.975l1.938,1.417l1.938,1.429l1.938,1.077l1.938,0.569l1.938,0.137l1.938-0.113l1.938-0.219l1.939-0.274l1.938-0.317
			l1.938-0.278l1.938-0.074l1.938,0.28l1.938,0.63l1.938,0.777l1.938,0.632l1.938,0.292l1.939,0.002l1.938-0.051l1.938,0.145
			l1.938,0.392l1.938,0.454l1.938,0.253l1.938-0.058l1.938-0.219l1.938-0.08l1.939,0.264l1.938,0.569l1.938,0.646l1.938,0.484
			l1.938,0.21l1.938-0.05l1.938-0.235l1.938-0.3l1.938-0.208l1.938,0.024l1.939,0.261l1.938,0.312l1.938,0.102l1.938-0.232
			l1.938-0.438l1.938-0.33l1.938,0.082l1.938,0.612l1.938,1.046l1.939,1.257l1.938,1.262l1.938,1.152l1.938,1.004l1.938,0.835"/>
		<path fill="none" stroke="#000000" stroke-width="2.6389" stroke-linejoin="round" stroke-miterlimit="10" d="M121.222,205.13
			l1.938-43.469l1.939-33.438l1.938-23.605l1.938-17.023l1.938-14.043l1.938-13.01l1.939-11.628l1.938-8.602l1.938-4.051
			l1.938,0.658l1.938,3.898l1.939,4.944l1.938,3.889l1.938,1.884l1.938-0.142l1.938-1.374l1.939-1.784l1.938-1.328l1.938-0.434
			l1.939,0.792l1.938,1.896l1.938,2.817l1.938,3.143l1.938,2.752l1.939,1.414l1.938-0.314l1.938-1.654l1.938-1.479l1.938,0.356
			l1.939,3.377l1.938,6.285l1.938,8.337l1.938,9.104l1.938,8.923l1.939,7.939l1.938,6.588l1.938,5.137l1.938,4.235l1.939,4.109
			l1.938,4.837l1.938,5.814l1.938,6.703l1.938,7.159l1.939,7.377l1.938,7.346l1.938,7.202l1.938,6.809l1.938,6.346l1.939,5.891
			l1.938,5.681l1.938,5.53l1.938,5.263l1.939,4.546l1.938,3.574l1.938,2.754l1.938,2.703l1.938,3.442l1.939,4.585l1.938,5.38
			l1.938,5.561l1.938,5.317l1.938,5.287l1.939,5.735l1.938,6.521l1.938,7.061l1.938,7.032l1.939,6.445l1.938,5.714l1.938,5.051
			l1.938,4.524l1.938,3.973l1.939,3.442l1.938,3.042l1.938,2.936l1.938,2.993l1.938,3.058l1.939,2.962l1.938,2.806l1.938,2.741
			l1.938,2.927l1.938,3.308l1.939,3.737l1.939,3.946l1.938,3.729l1.939,2.965l1.938,1.774l1.938,0.429l1.938-0.677l1.938-1.222
			l1.939-1.01l1.938-0.1l1.938,1.241l1.939,2.546l1.938,3.375l1.938,3.465l1.938,2.884l1.938,1.949l1.938,1.109l1.938,0.686
			l1.938,0.746l1.938,1.075l1.939,1.382l1.938,1.474l1.938,1.396l1.938,1.311l1.938,1.373l1.938,1.561l1.938,1.717l1.938,1.656
			l1.938,1.309l1.939,0.779l1.938,0.271l1.938-0.054l1.938-0.165l1.938-0.138l1.938-0.063l1.938-0.003l1.938,0.016l1.938-0.02
			l1.938-0.075l1.939-0.09l1.938,0.008l1.938,0.233l1.938,0.561l1.938,0.922l1.938,1.263l1.938,1.526l1.938,1.679l1.938,1.672
			l1.939,1.47l1.938,1.062l1.938,0.53l1.938,0.031l1.938-0.266l1.938-0.269l1.938,0.006l1.938,0.448l1.938,0.885l1.939,1.128
			l1.938,1.071l1.938,0.748l1.938,0.307l1.938-0.074l1.938-0.304l1.938-0.383l1.938-0.368l1.938-0.298l1.939-0.173h1.938
			l1.938,0.172l1.938,0.268l1.938,0.248l1.938,0.172l1.938,0.152l1.938,0.27l1.938,0.486l1.938,0.679l1.939,0.725l1.938,0.604
			l1.938,0.383l1.938,0.16l1.938-0.01l1.938-0.114l1.938-0.161l1.938-0.168l1.938-0.146l1.939-0.075l1.938,0.098l1.938,0.401
			l1.938,0.756l1.938,0.986l1.938,0.915l1.938,0.502l1.938-0.138l1.938-0.775l1.939-1.188l1.938-1.231l1.938-0.898l1.938-0.321
			l1.938,0.263l1.938,0.633l1.938,0.675l1.938,0.433l1.938,0.07l1.938-0.225l1.939-0.335l1.938-0.258l1.938-0.072l1.938,0.143
			l1.938,0.348l1.938,0.511l1.938,0.601l1.938,0.589l1.938,0.515l1.939,0.479l1.938,0.56l1.938,0.735l1.938,0.903l1.938,0.956"/>
	</g>
	<g>
		<path fill="#FFFFFF" d="M496,101V45H332v56H496z"/>
	</g>
	<g transform="translate(378.4182,55.5)">
		<text transform="matrix(1 0 0 1 -2.441406e-004 4.4998)" font-family="'MyriadPro-Regular'" font-size="11.875">Ripples DOWN m</text>
	</g>
	<g>
		
			<line fill="none" stroke="#0000FF" stroke-width="2.6389" stroke-linejoin="round" stroke-miterlimit="10" x1="335.985" y1="55.5" x2="375.429" y2="55.5"/>
	</g>
	<g transform="translate(378.4182,73)">
		<text transform="matrix(1 0 0 1 -2.441406e-004 4.4998)" font-family="'MyriadPro-Regular'" font-size="11.875">Ripples DOWN noon</text>
	</g>
	<g>
		
			<line fill="none" stroke="#FF0000" stroke-width="2.6389" stroke-linejoin="round" stroke-miterlimit="10" x1="335.985" y1="73" x2="375.429" y2="73"/>
	</g>
	<g transform="translate(378.4182,90.5)">
		<text transform="matrix(1 0 0 1 -2.441406e-004 4.4998)" font-family="'MyriadPro-Regular'" font-size="11.875">Ripples DOWN soir</text>
	</g>
	<g>
		
			<line fill="none" stroke="#000000" stroke-width="2.6389" stroke-linejoin="round" stroke-miterlimit="10" x1="335.985" y1="90.5" x2="375.429" y2="90.5"/>
	</g>
	<g>
		<path fill="none" stroke="#262626" stroke-width="0.6597" stroke-miterlimit="10" d="M332,101V45h164v56H332z"/>
	</g>
</g>
</svg>
