<?xml version="1.0" encoding="utf-8"?>
<!-- Generator: Adobe Illustrator 16.0.0, SVG Export Plug-In . SVG Version: 6.00 Build 0)  -->
<!DOCTYPE svg PUBLIC "-//W3C//DTD SVG 1.1//EN" "http://www.w3.org/Graphics/SVG/1.1/DTD/svg11.dtd">
<svg version="1.1" id="Layer_1" xmlns="http://www.w3.org/2000/svg" xmlns:xlink="http://www.w3.org/1999/xlink" x="0px" y="0px"
	 width="627px" height="449px" viewBox="0 0 627 449" enable-background="new 0 0 627 449" xml:space="preserve">
<g transform="translate(324.5003,31.25)">
	<path d="M-79.05-53.36c0,0.948-0.344,1.706-1.031,2.273c-0.688,0.568-1.662,0.852-2.922,0.852c-1.125,0-2.136-0.219-3.031-0.656
		V-53c0.51,0.219,1.039,0.422,1.586,0.609s1.091,0.281,1.632,0.281c0.552,0,0.946-0.109,1.18-0.328s0.352-0.489,0.352-0.813
		c0-0.271-0.091-0.502-0.273-0.695c-0.183-0.192-0.43-0.369-0.742-0.531c-0.313-0.161-0.667-0.341-1.063-0.539
		c-0.25-0.114-0.521-0.255-0.813-0.422c-0.292-0.166-0.57-0.372-0.836-0.617c-0.266-0.244-0.482-0.541-0.648-0.891
		c-0.167-0.349-0.25-0.768-0.25-1.258c0-0.958,0.325-1.705,0.977-2.242c0.651-0.536,1.534-0.805,2.648-0.805
		c0.563,0,1.096,0.065,1.602,0.195c0.505,0.131,1.034,0.315,1.586,0.555l-0.734,1.766c-0.49-0.197-0.93-0.352-1.32-0.461
		s-0.794-0.164-1.211-0.164c-0.427,0-0.755,0.1-0.984,0.297c-0.229,0.198-0.344,0.459-0.344,0.781c0,0.386,0.169,0.688,0.508,0.906
		c0.338,0.219,0.846,0.484,1.523,0.797c0.542,0.261,1.005,0.531,1.391,0.813c0.385,0.281,0.685,0.612,0.898,0.992
		C-79.157-54.393-79.05-53.922-79.05-53.36z M-67.945-58.735c0.938,0,1.643,0.237,2.117,0.711c0.474,0.475,0.711,1.237,0.711,2.289
		v5.344h-2.234v-4.781c0-1.188-0.412-1.781-1.234-1.781c-0.594,0-1.016,0.211-1.266,0.633s-0.375,1.029-0.375,1.82v4.109h-2.234
		v-4.781c0-1.188-0.406-1.781-1.219-1.781c-0.625,0-1.055,0.234-1.289,0.703s-0.352,1.136-0.352,2v3.859h-2.234v-8.188h1.703
		l0.313,1.047h0.109c0.25-0.416,0.594-0.721,1.031-0.914c0.438-0.192,0.891-0.289,1.359-0.289c0.594,0,1.102,0.1,1.523,0.297
		c0.422,0.198,0.742,0.5,0.961,0.906h0.203c0.25-0.416,0.596-0.721,1.039-0.914C-68.869-58.638-68.413-58.735-67.945-58.735z
		 M-55.867-54.5c0,1.365-0.356,2.417-1.07,3.156c-0.714,0.74-1.685,1.109-2.915,1.109c-0.76,0-1.44-0.166-2.039-0.5
		c-0.599-0.333-1.068-0.817-1.407-1.453c-0.338-0.635-0.508-1.406-0.508-2.313c0-1.364,0.357-2.411,1.07-3.141
		c0.714-0.729,1.69-1.094,2.93-1.094c0.761,0,1.438,0.167,2.032,0.5c0.594,0.334,1.06,0.813,1.398,1.438
		C-56.036-56.172-55.867-55.406-55.867-54.5z M-61.523-54.5c0,0.813,0.133,1.425,0.398,1.836c0.265,0.412,0.7,0.617,1.305,0.617
		c0.583,0,1.008-0.205,1.273-0.617c0.266-0.411,0.399-1.023,0.399-1.836s-0.133-1.422-0.399-1.828
		c-0.265-0.406-0.695-0.609-1.289-0.609c-0.594,0-1.024,0.203-1.289,0.609C-61.39-55.922-61.523-55.313-61.523-54.5z M-46.885-54.5
		c0,1.365-0.356,2.417-1.07,3.156c-0.713,0.74-1.685,1.109-2.914,1.109c-0.76,0-1.44-0.166-2.039-0.5
		c-0.599-0.333-1.067-0.817-1.406-1.453c-0.338-0.635-0.508-1.406-0.508-2.313c0-1.364,0.357-2.411,1.07-3.141
		c0.714-0.729,1.69-1.094,2.93-1.094c0.761,0,1.438,0.167,2.031,0.5c0.594,0.334,1.06,0.813,1.398,1.438
		C-47.054-56.172-46.885-55.406-46.885-54.5z M-52.541-54.5c0,0.813,0.133,1.425,0.398,1.836c0.266,0.412,0.701,0.617,1.305,0.617
		c0.583,0,1.007-0.205,1.273-0.617c0.266-0.411,0.398-1.023,0.398-1.836s-0.133-1.422-0.398-1.828s-0.695-0.609-1.289-0.609
		s-1.023,0.203-1.289,0.609S-52.541-55.313-52.541-54.5z M-41.887-52.031c0.25,0,0.49-0.023,0.719-0.07
		c0.229-0.047,0.458-0.106,0.688-0.18v1.672c-0.239,0.094-0.536,0.18-0.891,0.258c-0.354,0.078-0.745,0.117-1.172,0.117
		c-0.489,0-0.927-0.08-1.313-0.242c-0.385-0.161-0.69-0.439-0.914-0.836c-0.224-0.396-0.336-0.942-0.336-1.641v-3.953h-1.063v-0.938
		l1.234-0.75l0.641-1.734h1.422v1.75h2.297v1.672h-2.297v3.953c0,0.313,0.091,0.545,0.273,0.695
		C-42.415-52.107-42.178-52.031-41.887-52.031z M-36.807-59.469c0,0.406-0.013,0.795-0.039,1.164
		c-0.026,0.37-0.049,0.628-0.07,0.773h0.125c0.261-0.416,0.597-0.721,1.008-0.914c0.412-0.192,0.867-0.289,1.367-0.289
		c0.886,0,1.597,0.237,2.133,0.711c0.537,0.475,0.805,1.237,0.805,2.289v5.344h-2.234v-4.781c0-1.188-0.442-1.781-1.328-1.781
		c-0.667,0-1.127,0.234-1.383,0.703c-0.255,0.469-0.383,1.136-0.383,2v3.859h-2.234v-11.406h2.234V-59.469z M-23.5-59.469
		c0,0.406-0.014,0.795-0.039,1.164c-0.026,0.37-0.05,0.628-0.07,0.773h0.125c0.26-0.416,0.596-0.721,1.008-0.914
		c0.411-0.192,0.867-0.289,1.367-0.289c0.885,0,1.596,0.237,2.133,0.711c0.536,0.475,0.805,1.237,0.805,2.289v5.344h-2.234v-4.781
		c0-1.188-0.443-1.781-1.328-1.781c-0.667,0-1.128,0.234-1.383,0.703c-0.256,0.469-0.383,1.136-0.383,2v3.859h-2.235v-11.406h2.235
		V-59.469z M-15.076-61.797c0.334,0,0.62,0.078,0.859,0.234c0.24,0.156,0.359,0.443,0.359,0.859c0,0.417-0.119,0.706-0.359,0.867
		c-0.239,0.162-0.525,0.242-0.859,0.242c-0.344,0-0.633-0.08-0.867-0.242c-0.234-0.161-0.352-0.45-0.352-0.867
		c0-0.416,0.117-0.703,0.352-0.859S-15.42-61.797-15.076-61.797z M-13.967-58.578v8.188h-2.234v-8.188H-13.967z M-6.057-52.828
		c0,0.834-0.294,1.475-0.883,1.922c-0.588,0.448-1.461,0.672-2.617,0.672c-0.572,0-1.063-0.039-1.469-0.117s-0.817-0.2-1.234-0.367
		v-1.844c0.438,0.198,0.912,0.362,1.422,0.492c0.511,0.131,0.964,0.195,1.359,0.195c0.438,0,0.75-0.064,0.938-0.195
		c0.188-0.13,0.281-0.299,0.281-0.508c0-0.146-0.039-0.273-0.117-0.383s-0.242-0.234-0.492-0.375s-0.641-0.32-1.172-0.539
		c-0.51-0.219-0.93-0.435-1.258-0.648c-0.328-0.213-0.572-0.474-0.734-0.781c-0.161-0.307-0.242-0.689-0.242-1.148
		c0-0.76,0.295-1.33,0.883-1.711c0.589-0.38,1.378-0.57,2.367-0.57c0.511,0,0.995,0.05,1.453,0.148
		c0.459,0.1,0.933,0.269,1.422,0.508l-0.672,1.594c-0.406-0.166-0.789-0.307-1.148-0.422c-0.359-0.114-0.721-0.172-1.086-0.172
		c-0.666,0-1,0.178-1,0.531c0,0.136,0.045,0.256,0.133,0.359c0.089,0.104,0.256,0.217,0.5,0.336c0.245,0.12,0.607,0.279,1.086,0.477
		c0.469,0.198,0.873,0.398,1.211,0.602c0.339,0.203,0.602,0.456,0.789,0.758C-6.151-53.713-6.057-53.318-6.057-52.828z
		 M-1.11-52.031c0.25,0,0.489-0.023,0.718-0.07c0.229-0.047,0.459-0.106,0.688-0.18v1.672c-0.239,0.094-0.536,0.18-0.891,0.258
		c-0.354,0.078-0.744,0.117-1.172,0.117c-0.489,0-0.927-0.08-1.313-0.242c-0.385-0.161-0.689-0.439-0.913-0.836
		c-0.225-0.396-0.337-0.942-0.337-1.641v-3.953h-1.063v-0.938l1.234-0.75l0.641-1.734h1.422v1.75h2.298v1.672h-2.298v3.953
		c0,0.313,0.092,0.545,0.274,0.695C-1.639-52.107-1.402-52.031-1.11-52.031z M9.172-54.5c0,1.365-0.356,2.417-1.07,3.156
		c-0.713,0.74-1.685,1.109-2.914,1.109c-0.76,0-1.439-0.166-2.039-0.5c-0.599-0.333-1.067-0.817-1.406-1.453
		c-0.338-0.635-0.508-1.406-0.508-2.313c0-1.364,0.357-2.411,1.07-3.141c0.714-0.729,1.69-1.094,2.93-1.094
		c0.761,0,1.438,0.167,2.031,0.5c0.594,0.334,1.061,0.813,1.398,1.438C9.003-56.172,9.172-55.406,9.172-54.5z M3.515-54.5
		c0,0.813,0.133,1.425,0.398,1.836c0.266,0.412,0.701,0.617,1.305,0.617c0.584,0,1.008-0.205,1.273-0.617
		C6.758-53.075,6.89-53.688,6.89-54.5s-0.133-1.422-0.398-1.828s-0.695-0.609-1.289-0.609s-1.023,0.203-1.289,0.609
		S3.515-55.313,3.515-54.5z M13.373-58.735c1.011,0,1.797,0.401,2.359,1.203h0.063l0.188-1.047h1.891v8.203
		c0,1.167-0.346,2.055-1.039,2.664c-0.692,0.609-1.711,0.914-3.055,0.914c-0.583,0-1.122-0.033-1.617-0.102
		c-0.494-0.067-0.977-0.189-1.445-0.367v-1.797c1.011,0.428,2.073,0.641,3.188,0.641c1.156,0,1.734-0.619,1.734-1.859v-0.172
		c0-0.166,0.008-0.341,0.023-0.523c0.016-0.182,0.029-0.341,0.039-0.477h-0.063c-0.281,0.428-0.617,0.737-1.008,0.93
		c-0.391,0.193-0.83,0.289-1.32,0.289c-0.969,0-1.727-0.372-2.273-1.117c-0.547-0.744-0.82-1.783-0.82-3.117
		c0-1.344,0.281-2.391,0.844-3.141S12.394-58.735,13.373-58.735z M14.076-56.922c-1.052,0-1.578,0.828-1.578,2.484
		c0,1.625,0.537,2.438,1.609,2.438c0.573,0,0.995-0.161,1.266-0.484c0.271-0.322,0.406-0.891,0.406-1.703v-0.266
		c0-0.885-0.133-1.518-0.398-1.898C15.115-56.732,14.68-56.922,14.076-56.922z M24.48-58.735c0.104,0,0.232,0.006,0.383,0.016
		c0.151,0.011,0.273,0.026,0.367,0.047l-0.172,2.094c-0.072-0.01-0.177-0.023-0.313-0.039c-0.135-0.016-0.25-0.023-0.344-0.023
		c-0.385,0-0.752,0.068-1.102,0.203c-0.349,0.136-0.63,0.352-0.844,0.648c-0.213,0.297-0.32,0.706-0.32,1.227v4.172h-2.234v-8.188
		h1.688l0.328,1.375h0.109c0.24-0.416,0.57-0.775,0.992-1.078C23.441-58.583,23.928-58.735,24.48-58.735z M29.85-58.75
		c1.104,0,1.947,0.237,2.531,0.711c0.583,0.475,0.875,1.206,0.875,2.195v5.453h-1.563L31.257-51.5h-0.063
		c-0.344,0.438-0.712,0.758-1.102,0.961c-0.391,0.203-0.925,0.305-1.603,0.305c-0.739,0-1.349-0.213-1.827-0.641
		c-0.479-0.427-0.719-1.078-0.719-1.953s0.305-1.521,0.913-1.938c0.61-0.416,1.529-0.646,2.758-0.688l1.423-0.031v-0.359
		c0-0.438-0.112-0.755-0.336-0.953c-0.225-0.197-0.539-0.297-0.945-0.297c-0.396,0-0.784,0.058-1.164,0.172
		c-0.381,0.115-0.764,0.256-1.148,0.422l-0.734-1.516c0.447-0.229,0.938-0.408,1.468-0.539C28.71-58.685,29.266-58.75,29.85-58.75z
		 M30.163-54.156c-0.719,0.021-1.219,0.151-1.5,0.391c-0.282,0.24-0.423,0.553-0.423,0.938c0,0.344,0.102,0.589,0.305,0.734
		c0.204,0.146,0.462,0.219,0.774,0.219c0.479,0,0.885-0.143,1.219-0.43c0.333-0.286,0.5-0.689,0.5-1.211v-0.672L30.163-54.156z
		 M44.865-58.735c0.938,0,1.643,0.237,2.117,0.711c0.474,0.475,0.711,1.237,0.711,2.289v5.344h-2.234v-4.781
		c0-1.188-0.412-1.781-1.234-1.781c-0.594,0-1.016,0.211-1.266,0.633s-0.375,1.029-0.375,1.82v4.109h-2.234v-4.781
		c0-1.188-0.406-1.781-1.219-1.781c-0.625,0-1.055,0.234-1.289,0.703s-0.352,1.136-0.352,2v3.859h-2.234v-8.188h1.703l0.313,1.047
		h0.109c0.25-0.416,0.594-0.721,1.031-0.914c0.438-0.192,0.891-0.289,1.359-0.289c0.594,0,1.102,0.1,1.523,0.297
		c0.422,0.198,0.742,0.5,0.961,0.906h0.203c0.25-0.416,0.596-0.721,1.039-0.914C43.94-58.638,44.396-58.735,44.865-58.735z
		 M52.7-54.5c0-1.219,0.18-2.396,0.539-3.531c0.359-1.135,0.919-2.156,1.68-3.063h1.828c-0.688,0.938-1.208,1.972-1.563,3.102
		c-0.354,1.131-0.531,2.289-0.531,3.477c0,1.156,0.177,2.297,0.531,3.422s0.87,2.151,1.547,3.078h-1.813
		c-0.761-0.885-1.32-1.885-1.68-3C52.88-52.13,52.7-53.291,52.7-54.5z M66.978-50.391H64.4l-2.797-4.516l-0.969,0.688v3.828h-2.266
		v-10.703h2.266v4.891c0.156-0.208,0.311-0.416,0.461-0.625c0.151-0.208,0.3-0.416,0.445-0.625l2.891-3.641h2.531l-3.75,4.734
		L66.978-50.391z M76.895-55.844c0,1.803-0.513,3.162-1.539,4.078c-1.026,0.917-2.466,1.375-4.32,1.375h-3.031v-10.703h3.359
		c1.125,0,2.099,0.198,2.922,0.594c0.823,0.396,1.464,0.982,1.922,1.758C76.666-57.966,76.895-57,76.895-55.844z M74.536-55.797
		c0-1.188-0.261-2.057-0.781-2.609c-0.521-0.552-1.276-0.828-2.266-0.828H70.27v6.969h0.984
		C73.442-52.266,74.536-53.443,74.536-55.797z M84.915-50.391h-6.172v-10.703h6.172v1.859h-3.906v2.344h3.641v1.859h-3.641v2.766
		h3.906V-50.391z M90.009-54.5c0,1.209-0.177,2.37-0.531,3.484c-0.354,1.115-0.911,2.115-1.672,3h-1.813
		c0.677-0.927,1.19-1.953,1.539-3.078s0.523-2.266,0.523-3.422c0-1.188-0.177-2.346-0.531-3.477c-0.354-1.13-0.87-2.164-1.547-3.102
		h1.828c0.761,0.906,1.317,1.928,1.672,3.063C89.833-56.896,90.009-55.719,90.009-54.5z"/>
</g>
<g>
	
		<line fill="none" stroke="#262626" stroke-width="0.6597" stroke-linecap="square" stroke-linejoin="round" stroke-miterlimit="10" x1="82" y1="400" x2="567" y2="400"/>
	
		<line fill="none" stroke="#262626" stroke-width="0.6597" stroke-linecap="square" stroke-linejoin="round" stroke-miterlimit="10" x1="82" y1="400" x2="82" y2="395.15"/>
	
		<line fill="none" stroke="#262626" stroke-width="0.6597" stroke-linecap="square" stroke-linejoin="round" stroke-miterlimit="10" x1="151.286" y1="400" x2="151.286" y2="395.15"/>
	
		<line fill="none" stroke="#262626" stroke-width="0.6597" stroke-linecap="square" stroke-linejoin="round" stroke-miterlimit="10" x1="220.571" y1="400" x2="220.571" y2="395.15"/>
	
		<line fill="none" stroke="#262626" stroke-width="0.6597" stroke-linecap="square" stroke-linejoin="round" stroke-miterlimit="10" x1="289.857" y1="400" x2="289.857" y2="395.15"/>
	
		<line fill="none" stroke="#262626" stroke-width="0.6597" stroke-linecap="square" stroke-linejoin="round" stroke-miterlimit="10" x1="359.143" y1="400" x2="359.143" y2="395.15"/>
	
		<line fill="none" stroke="#262626" stroke-width="0.6597" stroke-linecap="square" stroke-linejoin="round" stroke-miterlimit="10" x1="428.429" y1="400" x2="428.429" y2="395.15"/>
	
		<line fill="none" stroke="#262626" stroke-width="0.6597" stroke-linecap="square" stroke-linejoin="round" stroke-miterlimit="10" x1="497.714" y1="400" x2="497.714" y2="395.15"/>
	
		<line fill="none" stroke="#262626" stroke-width="0.6597" stroke-linecap="square" stroke-linejoin="round" stroke-miterlimit="10" x1="567" y1="400" x2="567" y2="395.15"/>
	
		<line fill="none" stroke="#262626" stroke-width="0.6597" stroke-linecap="square" stroke-linejoin="round" stroke-miterlimit="10" x1="82" y1="34" x2="82" y2="38.85"/>
	<g transform="translate(82,405.2778)">
		<path fill="#262626" d="M2.797,10.344c0,1-0.104,1.856-0.313,2.57c-0.208,0.713-0.537,1.26-0.984,1.641
			c-0.448,0.38-1.047,0.57-1.797,0.57c-1.052,0-1.826-0.422-2.32-1.266s-0.742-2.016-0.742-3.516c0-1,0.102-1.857,0.305-2.57
			c0.203-0.714,0.529-1.258,0.977-1.633s1.042-0.563,1.781-0.563c1.042,0,1.818,0.416,2.328,1.25
			C2.542,7.661,2.797,8.833,2.797,10.344z M-2.219,10.344c0,1.271,0.146,2.224,0.438,2.859c0.292,0.635,0.787,0.953,1.484,0.953
			s1.195-0.315,1.492-0.945c0.297-0.631,0.445-1.586,0.445-2.867c0-1.261-0.148-2.209-0.445-2.844
			C0.898,6.865,0.401,6.547-0.297,6.547S-1.49,6.865-1.781,7.5C-2.073,8.135-2.219,9.083-2.219,10.344z"/>
	</g>
	<g transform="translate(151.2857,405.2778)">
		<path fill="#262626" d="M-7.922,9.313c0.948,0,1.703,0.236,2.266,0.711c0.563,0.474,0.844,1.143,0.844,2.008
			c0,0.969-0.305,1.727-0.914,2.273s-1.461,0.82-2.555,0.82c-0.469,0-0.914-0.042-1.336-0.125c-0.422-0.084-0.779-0.209-1.07-0.375
			v-1.078c0.313,0.188,0.693,0.336,1.141,0.445s0.875,0.164,1.281,0.164c0.688,0,1.242-0.162,1.664-0.484
			c0.422-0.323,0.633-0.828,0.633-1.516c0-0.604-0.188-1.07-0.563-1.398s-0.963-0.492-1.766-0.492c-0.25,0-0.531,0.021-0.844,0.063
			c-0.313,0.041-0.563,0.088-0.75,0.141l-0.563-0.375l0.344-4.375h4.656v1.047h-3.688l-0.219,2.688
			c0.146-0.031,0.346-0.063,0.602-0.094S-8.224,9.313-7.922,9.313z M2.838,10.344c0,1-0.104,1.856-0.313,2.57
			c-0.208,0.713-0.537,1.26-0.984,1.641c-0.448,0.38-1.047,0.57-1.797,0.57c-1.052,0-1.826-0.422-2.32-1.266
			s-0.742-2.016-0.742-3.516c0-1,0.102-1.857,0.305-2.57c0.203-0.714,0.529-1.258,0.977-1.633s1.042-0.563,1.781-0.563
			c1.042,0,1.818,0.416,2.328,1.25C2.582,7.661,2.838,8.833,2.838,10.344z M-2.178,10.344c0,1.271,0.146,2.224,0.438,2.859
			c0.292,0.635,0.787,0.953,1.484,0.953s1.195-0.315,1.492-0.945c0.297-0.631,0.445-1.586,0.445-2.867
			c0-1.261-0.148-2.209-0.445-2.844C0.939,6.865,0.442,6.547-0.256,6.547S-1.448,6.865-1.74,7.5
			C-2.032,8.135-2.178,9.083-2.178,10.344z M10.379,10.344c0,1-0.104,1.856-0.313,2.57c-0.208,0.713-0.537,1.26-0.984,1.641
			c-0.448,0.38-1.047,0.57-1.797,0.57c-1.052,0-1.826-0.422-2.32-1.266s-0.742-2.016-0.742-3.516c0-1,0.102-1.857,0.305-2.57
			C4.73,7.06,5.056,6.516,5.504,6.141s1.042-0.563,1.781-0.563c1.042,0,1.818,0.416,2.328,1.25
			C10.123,7.661,10.379,8.833,10.379,10.344z M5.363,10.344c0,1.271,0.146,2.224,0.438,2.859c0.292,0.635,0.787,0.953,1.484,0.953
			s1.195-0.315,1.492-0.945c0.297-0.631,0.445-1.586,0.445-2.867c0-1.261-0.148-2.209-0.445-2.844
			C8.48,6.865,7.983,6.547,7.285,6.547S6.092,6.865,5.801,7.5C5.509,8.135,5.363,9.083,5.363,10.344z"/>
	</g>
	<g transform="translate(220.5714,405.2778)">
		<path fill="#262626" d="M-10.891,15H-12V8.516c0-0.375,0.003-0.675,0.008-0.898c0.005-0.225,0.019-0.461,0.039-0.711
			c-0.135,0.146-0.26,0.266-0.375,0.359c-0.114,0.094-0.255,0.213-0.422,0.359l-1,0.813l-0.594-0.766l2.516-1.953h0.938V15z
			 M-1.162,10.344c0,1-0.104,1.856-0.313,2.57c-0.208,0.713-0.536,1.26-0.984,1.641c-0.448,0.38-1.047,0.57-1.797,0.57
			c-1.052,0-1.825-0.422-2.32-1.266c-0.495-0.844-0.742-2.016-0.742-3.516c0-1,0.102-1.857,0.305-2.57
			c0.203-0.714,0.529-1.258,0.977-1.633c0.448-0.375,1.042-0.563,1.781-0.563c1.042,0,1.818,0.416,2.328,1.25
			C-1.417,7.661-1.162,8.833-1.162,10.344z M-6.178,10.344c0,1.271,0.146,2.224,0.438,2.859c0.292,0.635,0.787,0.953,1.484,0.953
			c0.698,0,1.195-0.315,1.492-0.945c0.297-0.631,0.445-1.586,0.445-2.867c0-1.261-0.148-2.209-0.445-2.844
			c-0.297-0.636-0.794-0.953-1.492-0.953c-0.698,0-1.192,0.317-1.484,0.953C-6.032,8.135-6.178,9.083-6.178,10.344z M6.379,10.344
			c0,1-0.104,1.856-0.313,2.57c-0.208,0.713-0.536,1.26-0.984,1.641c-0.448,0.38-1.047,0.57-1.797,0.57
			c-1.052,0-1.826-0.422-2.32-1.266s-0.742-2.016-0.742-3.516c0-1,0.102-1.857,0.305-2.57C0.73,7.06,1.056,6.516,1.504,6.141
			c0.448-0.375,1.042-0.563,1.781-0.563c1.042,0,1.818,0.416,2.328,1.25C6.124,7.661,6.379,8.833,6.379,10.344z M1.363,10.344
			c0,1.271,0.146,2.224,0.438,2.859c0.292,0.635,0.787,0.953,1.484,0.953c0.698,0,1.195-0.315,1.492-0.945
			c0.297-0.631,0.445-1.586,0.445-2.867c0-1.261-0.148-2.209-0.445-2.844C4.48,6.865,3.983,6.547,3.285,6.547
			c-0.698,0-1.192,0.317-1.484,0.953C1.509,8.135,1.363,9.083,1.363,10.344z M13.92,10.344c0,1-0.104,1.856-0.313,2.57
			c-0.208,0.713-0.536,1.26-0.984,1.641c-0.448,0.38-1.047,0.57-1.797,0.57c-1.052,0-1.825-0.422-2.32-1.266
			c-0.495-0.844-0.742-2.016-0.742-3.516c0-1,0.102-1.857,0.305-2.57C8.271,7.06,8.597,6.516,9.045,6.141
			c0.448-0.375,1.042-0.563,1.781-0.563c1.042,0,1.818,0.416,2.328,1.25C13.665,7.661,13.92,8.833,13.92,10.344z M8.904,10.344
			c0,1.271,0.146,2.224,0.438,2.859c0.292,0.635,0.787,0.953,1.484,0.953c0.698,0,1.195-0.315,1.492-0.945
			c0.297-0.631,0.445-1.586,0.445-2.867c0-1.261-0.148-2.209-0.445-2.844c-0.297-0.636-0.794-0.953-1.492-0.953
			c-0.698,0-1.192,0.317-1.484,0.953C9.05,8.135,8.904,9.083,8.904,10.344z"/>
	</g>
	<g transform="translate(289.8571,405.2778)">
		<path fill="#262626" d="M-10.891,15H-12V8.516c0-0.375,0.003-0.675,0.008-0.898c0.005-0.225,0.019-0.461,0.039-0.711
			c-0.135,0.146-0.26,0.266-0.375,0.359c-0.114,0.094-0.255,0.213-0.422,0.359l-1,0.813l-0.594-0.766l2.516-1.953h0.938V15z
			 M-4.381,9.313c0.948,0,1.703,0.236,2.266,0.711c0.563,0.474,0.844,1.143,0.844,2.008c0,0.969-0.305,1.727-0.914,2.273
			s-1.461,0.82-2.555,0.82c-0.469,0-0.914-0.042-1.336-0.125c-0.422-0.084-0.778-0.209-1.07-0.375v-1.078
			c0.313,0.188,0.693,0.336,1.141,0.445c0.448,0.109,0.875,0.164,1.281,0.164c0.688,0,1.242-0.162,1.664-0.484
			c0.422-0.323,0.633-0.828,0.633-1.516c0-0.604-0.188-1.07-0.563-1.398s-0.963-0.492-1.766-0.492c-0.25,0-0.531,0.021-0.844,0.063
			c-0.313,0.041-0.563,0.088-0.75,0.141l-0.563-0.375l0.344-4.375h4.656v1.047H-5.6l-0.219,2.688
			c0.146-0.031,0.347-0.063,0.602-0.094C-4.962,9.328-4.683,9.313-4.381,9.313z M6.379,10.344c0,1-0.104,1.856-0.313,2.57
			c-0.208,0.713-0.536,1.26-0.984,1.641c-0.448,0.38-1.047,0.57-1.797,0.57c-1.052,0-1.825-0.422-2.32-1.266
			c-0.495-0.844-0.742-2.016-0.742-3.516c0-1,0.102-1.857,0.305-2.57C0.73,7.06,1.056,6.516,1.504,6.141
			c0.448-0.375,1.042-0.563,1.781-0.563c1.042,0,1.818,0.416,2.328,1.25C6.124,7.661,6.379,8.833,6.379,10.344z M1.363,10.344
			c0,1.271,0.146,2.224,0.438,2.859c0.292,0.635,0.787,0.953,1.484,0.953c0.698,0,1.195-0.315,1.492-0.945
			c0.297-0.631,0.445-1.586,0.445-2.867c0-1.261-0.148-2.209-0.445-2.844C4.48,6.865,3.983,6.547,3.285,6.547
			c-0.698,0-1.192,0.317-1.484,0.953C1.509,8.135,1.363,9.083,1.363,10.344z M13.92,10.344c0,1-0.104,1.856-0.313,2.57
			c-0.209,0.713-0.537,1.26-0.984,1.641c-0.448,0.38-1.047,0.57-1.797,0.57c-1.053,0-1.826-0.422-2.32-1.266
			c-0.495-0.844-0.743-2.016-0.743-3.516c0-1,0.102-1.857,0.305-2.57C8.272,7.06,8.597,6.516,9.045,6.141
			c0.447-0.375,1.041-0.563,1.781-0.563c1.041,0,1.817,0.416,2.328,1.25C13.664,7.661,13.92,8.833,13.92,10.344z M8.905,10.344
			c0,1.271,0.146,2.224,0.438,2.859c0.291,0.635,0.786,0.953,1.484,0.953c0.697,0,1.195-0.315,1.492-0.945
			c0.297-0.631,0.445-1.586,0.445-2.867c0-1.261-0.148-2.209-0.445-2.844c-0.297-0.636-0.795-0.953-1.492-0.953
			c-0.698,0-1.193,0.317-1.484,0.953C9.05,8.135,8.905,9.083,8.905,10.344z"/>
	</g>
	<g transform="translate(359.1429,405.2778)">
		<path fill="#262626" d="M-8.735,15h-6.141v-0.953l2.438-2.453c0.459-0.469,0.85-0.886,1.172-1.25
			c0.323-0.365,0.568-0.722,0.734-1.07c0.167-0.35,0.25-0.732,0.25-1.148c0-0.511-0.153-0.898-0.461-1.164
			c-0.307-0.266-0.7-0.398-1.18-0.398c-0.447,0-0.844,0.078-1.188,0.234s-0.692,0.375-1.047,0.656l-0.609-0.766
			c0.365-0.313,0.781-0.573,1.25-0.781c0.469-0.209,1-0.313,1.594-0.313c0.865,0,1.55,0.219,2.055,0.656
			C-9.362,6.688-9.11,7.291-9.11,8.063c0,0.479-0.102,0.932-0.305,1.359c-0.203,0.427-0.481,0.846-0.836,1.258
			c-0.354,0.411-0.771,0.852-1.25,1.32l-1.938,1.906v0.047h4.703V15z M-1.162,10.344c0,1-0.104,1.856-0.313,2.57
			c-0.208,0.713-0.536,1.26-0.984,1.641c-0.447,0.38-1.047,0.57-1.797,0.57c-1.052,0-1.825-0.422-2.32-1.266
			c-0.494-0.844-0.742-2.016-0.742-3.516c0-1,0.102-1.857,0.305-2.57c0.203-0.714,0.529-1.258,0.977-1.633
			c0.448-0.375,1.042-0.563,1.781-0.563c1.042,0,1.818,0.416,2.328,1.25C-1.417,7.661-1.162,8.833-1.162,10.344z M-6.178,10.344
			c0,1.271,0.146,2.224,0.438,2.859c0.292,0.635,0.787,0.953,1.484,0.953c0.698,0,1.195-0.315,1.492-0.945
			c0.297-0.631,0.445-1.586,0.445-2.867c0-1.261-0.148-2.209-0.445-2.844c-0.297-0.636-0.794-0.953-1.492-0.953
			c-0.697,0-1.192,0.317-1.484,0.953C-6.032,8.135-6.178,9.083-6.178,10.344z M6.379,10.344c0,1-0.104,1.856-0.313,2.57
			c-0.208,0.713-0.536,1.26-0.984,1.641c-0.447,0.38-1.047,0.57-1.797,0.57c-1.052,0-1.825-0.422-2.32-1.266
			c-0.494-0.844-0.742-2.016-0.742-3.516c0-1,0.102-1.857,0.305-2.57C0.73,7.06,1.056,6.516,1.504,6.141
			c0.448-0.375,1.042-0.563,1.781-0.563c1.042,0,1.818,0.416,2.328,1.25C6.124,7.661,6.379,8.833,6.379,10.344z M1.363,10.344
			c0,1.271,0.146,2.224,0.438,2.859c0.292,0.635,0.787,0.953,1.484,0.953c0.698,0,1.195-0.315,1.492-0.945
			c0.297-0.631,0.445-1.586,0.445-2.867c0-1.261-0.148-2.209-0.445-2.844C4.48,6.865,3.983,6.547,3.285,6.547
			C2.588,6.547,2.092,6.865,1.8,7.5C1.509,8.135,1.363,9.083,1.363,10.344z M13.92,10.344c0,1-0.104,1.856-0.313,2.57
			c-0.208,0.713-0.536,1.26-0.984,1.641c-0.447,0.38-1.047,0.57-1.797,0.57c-1.052,0-1.825-0.422-2.32-1.266
			c-0.494-0.844-0.742-2.016-0.742-3.516c0-1,0.102-1.857,0.305-2.57C8.271,7.06,8.597,6.516,9.045,6.141
			c0.448-0.375,1.042-0.563,1.781-0.563c1.042,0,1.818,0.416,2.328,1.25C13.665,7.661,13.92,8.833,13.92,10.344z M8.904,10.344
			c0,1.271,0.146,2.224,0.438,2.859c0.292,0.635,0.787,0.953,1.484,0.953c0.698,0,1.195-0.315,1.492-0.945
			c0.297-0.631,0.445-1.586,0.445-2.867c0-1.261-0.148-2.209-0.445-2.844c-0.297-0.636-0.794-0.953-1.492-0.953
			c-0.697,0-1.192,0.317-1.484,0.953C9.05,8.135,8.904,9.083,8.904,10.344z"/>
	</g>
	<g transform="translate(428.4286,405.2778)">
		<path fill="#262626" d="M-8.734,15h-6.141v-0.953l2.438-2.453c0.458-0.469,0.849-0.886,1.172-1.25
			c0.323-0.365,0.567-0.722,0.734-1.07c0.167-0.35,0.25-0.732,0.25-1.148c0-0.511-0.153-0.898-0.461-1.164s-0.7-0.398-1.18-0.398
			c-0.448,0-0.844,0.078-1.188,0.234s-0.692,0.375-1.047,0.656l-0.609-0.766c0.364-0.313,0.781-0.573,1.25-0.781
			c0.469-0.209,1-0.313,1.594-0.313c0.864,0,1.55,0.219,2.055,0.656s0.758,1.041,0.758,1.813c0,0.479-0.102,0.932-0.305,1.359
			c-0.203,0.427-0.482,0.846-0.836,1.258c-0.354,0.411-0.771,0.852-1.25,1.32l-1.938,1.906v0.047h4.703V15z M-4.381,9.313
			c0.948,0,1.703,0.236,2.266,0.711c0.563,0.474,0.844,1.143,0.844,2.008c0,0.969-0.305,1.727-0.914,2.273s-1.461,0.82-2.555,0.82
			c-0.469,0-0.914-0.042-1.336-0.125c-0.422-0.084-0.778-0.209-1.07-0.375v-1.078c0.313,0.188,0.692,0.336,1.141,0.445
			s0.875,0.164,1.281,0.164c0.688,0,1.242-0.162,1.664-0.484c0.422-0.323,0.633-0.828,0.633-1.516c0-0.604-0.188-1.07-0.563-1.398
			s-0.964-0.492-1.766-0.492c-0.25,0-0.531,0.021-0.844,0.063c-0.313,0.041-0.563,0.088-0.75,0.141l-0.563-0.375l0.344-4.375h4.656
			v1.047h-3.688l-0.219,2.688c0.146-0.031,0.347-0.063,0.602-0.094S-4.682,9.313-4.381,9.313z M6.379,10.344
			c0,1-0.104,1.856-0.313,2.57c-0.208,0.713-0.536,1.26-0.984,1.641c-0.448,0.38-1.047,0.57-1.797,0.57
			c-1.052,0-1.826-0.422-2.32-1.266c-0.495-0.844-0.742-2.016-0.742-3.516c0-1,0.102-1.857,0.305-2.57
			C0.731,7.06,1.056,6.516,1.504,6.141s1.042-0.563,1.781-0.563c1.042,0,1.817,0.416,2.328,1.25
			C6.124,7.661,6.379,8.833,6.379,10.344z M1.363,10.344c0,1.271,0.146,2.224,0.438,2.859c0.292,0.635,0.786,0.953,1.484,0.953
			s1.195-0.315,1.492-0.945c0.297-0.631,0.445-1.586,0.445-2.867c0-1.261-0.148-2.209-0.445-2.844
			C4.481,6.865,3.984,6.547,3.285,6.547S2.093,6.865,1.801,7.5C1.509,8.135,1.363,9.083,1.363,10.344z M13.92,10.344
			c0,1-0.104,1.856-0.313,2.57c-0.208,0.713-0.537,1.26-0.984,1.641c-0.448,0.38-1.047,0.57-1.797,0.57
			c-1.052,0-1.825-0.422-2.32-1.266s-0.742-2.016-0.742-3.516c0-1,0.102-1.857,0.305-2.57C8.272,7.06,8.597,6.516,9.045,6.141
			s1.042-0.563,1.781-0.563c1.042,0,1.817,0.416,2.328,1.25C13.665,7.661,13.92,8.833,13.92,10.344z M8.904,10.344
			c0,1.271,0.146,2.224,0.438,2.859c0.292,0.635,0.786,0.953,1.484,0.953s1.195-0.315,1.492-0.945
			c0.297-0.631,0.445-1.586,0.445-2.867c0-1.261-0.148-2.209-0.445-2.844c-0.297-0.636-0.794-0.953-1.492-0.953
			S9.634,6.865,9.342,7.5C9.05,8.135,8.904,9.083,8.904,10.344z"/>
	</g>
	<g transform="translate(497.7143,405.2778)">
		<path fill="#262626" d="M-9.094,7.891c0,0.625-0.172,1.122-0.516,1.492c-0.344,0.369-0.813,0.611-1.406,0.727v0.047
			c0.75,0.094,1.305,0.33,1.664,0.711c0.359,0.38,0.539,0.877,0.539,1.492c0,0.541-0.125,1.021-0.375,1.438
			c-0.25,0.416-0.635,0.742-1.156,0.977c-0.521,0.234-1.192,0.352-2.016,0.352c-0.489,0-0.942-0.037-1.359-0.109
			c-0.416-0.073-0.817-0.203-1.203-0.391v-1.063c0.396,0.188,0.818,0.336,1.266,0.445c0.448,0.109,0.881,0.164,1.297,0.164
			c0.834,0,1.436-0.164,1.805-0.492c0.37-0.328,0.555-0.779,0.555-1.352c0-0.573-0.227-0.987-0.68-1.242
			c-0.453-0.256-1.091-0.383-1.914-0.383H-13.5V9.719h0.906c0.771,0,1.352-0.159,1.742-0.477c0.391-0.318,0.586-0.742,0.586-1.273
			c0-0.448-0.15-0.797-0.453-1.047c-0.302-0.25-0.713-0.375-1.234-0.375c-0.5,0-0.927,0.072-1.281,0.219
			c-0.354,0.146-0.708,0.333-1.063,0.563l-0.563-0.781c0.323-0.261,0.729-0.484,1.219-0.672c0.49-0.188,1.047-0.281,1.672-0.281
			c0.969,0,1.69,0.216,2.164,0.648C-9.331,6.674-9.094,7.224-9.094,7.891z M-1.163,10.344c0,1-0.104,1.856-0.313,2.57
			c-0.208,0.713-0.536,1.26-0.984,1.641c-0.447,0.38-1.047,0.57-1.797,0.57c-1.052,0-1.825-0.422-2.32-1.266
			c-0.494-0.844-0.742-2.016-0.742-3.516c0-1,0.102-1.857,0.305-2.57c0.203-0.714,0.529-1.258,0.977-1.633
			c0.448-0.375,1.042-0.563,1.781-0.563c1.042,0,1.818,0.416,2.328,1.25C-1.417,7.661-1.163,8.833-1.163,10.344z M-6.178,10.344
			c0,1.271,0.146,2.224,0.438,2.859c0.292,0.635,0.787,0.953,1.484,0.953c0.698,0,1.195-0.315,1.492-0.945
			c0.297-0.631,0.445-1.586,0.445-2.867c0-1.261-0.148-2.209-0.445-2.844c-0.297-0.636-0.794-0.953-1.492-0.953
			c-0.697,0-1.192,0.317-1.484,0.953C-6.032,8.135-6.178,9.083-6.178,10.344z M6.378,10.344c0,1-0.104,1.856-0.313,2.57
			c-0.208,0.713-0.536,1.26-0.984,1.641c-0.447,0.38-1.047,0.57-1.797,0.57c-1.052,0-1.825-0.422-2.32-1.266
			c-0.494-0.844-0.742-2.016-0.742-3.516c0-1,0.102-1.857,0.305-2.57C0.73,7.06,1.056,6.516,1.503,6.141
			c0.448-0.375,1.042-0.563,1.781-0.563c1.042,0,1.818,0.416,2.328,1.25C6.124,7.661,6.378,8.833,6.378,10.344z M1.363,10.344
			c0,1.271,0.146,2.224,0.438,2.859c0.292,0.635,0.787,0.953,1.484,0.953c0.698,0,1.195-0.315,1.492-0.945
			c0.297-0.631,0.445-1.586,0.445-2.867c0-1.261-0.148-2.209-0.445-2.844C4.48,6.865,3.983,6.547,3.285,6.547
			C2.587,6.547,2.092,6.865,1.8,7.5C1.509,8.135,1.363,9.083,1.363,10.344z M13.919,10.344c0,1-0.104,1.856-0.313,2.57
			c-0.208,0.713-0.536,1.26-0.984,1.641c-0.447,0.38-1.047,0.57-1.797,0.57c-1.052,0-1.825-0.422-2.32-1.266
			c-0.494-0.844-0.742-2.016-0.742-3.516c0-1,0.102-1.857,0.305-2.57C8.271,7.06,8.597,6.516,9.044,6.141
			c0.448-0.375,1.042-0.563,1.781-0.563c1.042,0,1.818,0.416,2.328,1.25C13.665,7.661,13.919,8.833,13.919,10.344z M8.904,10.344
			c0,1.271,0.146,2.224,0.438,2.859c0.292,0.635,0.787,0.953,1.484,0.953c0.698,0,1.195-0.315,1.492-0.945
			c0.297-0.631,0.445-1.586,0.445-2.867c0-1.261-0.148-2.209-0.445-2.844c-0.297-0.636-0.794-0.953-1.492-0.953
			c-0.697,0-1.192,0.317-1.484,0.953C9.05,8.135,8.904,9.083,8.904,10.344z"/>
	</g>
	<g transform="translate(567,405.2778)">
		<path fill="#262626" d="M-9.094,7.891c0,0.625-0.172,1.122-0.516,1.492c-0.344,0.369-0.813,0.611-1.406,0.727v0.047
			c0.75,0.094,1.305,0.33,1.664,0.711c0.359,0.38,0.539,0.877,0.539,1.492c0,0.541-0.125,1.021-0.375,1.438
			c-0.25,0.416-0.636,0.742-1.156,0.977s-1.192,0.352-2.016,0.352c-0.489,0-0.942-0.037-1.359-0.109
			c-0.417-0.073-0.817-0.203-1.203-0.391v-1.063c0.396,0.188,0.817,0.336,1.266,0.445s0.88,0.164,1.297,0.164
			c0.833,0,1.435-0.164,1.805-0.492S-10,12.901-10,12.328c0-0.573-0.227-0.987-0.68-1.242c-0.453-0.256-1.091-0.383-1.914-0.383
			H-13.5V9.719h0.906c0.771,0,1.352-0.159,1.742-0.477c0.391-0.318,0.586-0.742,0.586-1.273c0-0.448-0.151-0.797-0.453-1.047
			s-0.714-0.375-1.234-0.375c-0.5,0-0.927,0.072-1.281,0.219c-0.354,0.146-0.708,0.333-1.063,0.563l-0.563-0.781
			c0.323-0.261,0.729-0.484,1.219-0.672s1.047-0.281,1.672-0.281c0.969,0,1.69,0.216,2.164,0.648
			C-9.331,6.674-9.094,7.224-9.094,7.891z M-4.381,9.313c0.948,0,1.703,0.236,2.266,0.711c0.563,0.474,0.844,1.143,0.844,2.008
			c0,0.969-0.305,1.727-0.914,2.273s-1.461,0.82-2.555,0.82c-0.469,0-0.914-0.042-1.336-0.125c-0.422-0.084-0.778-0.209-1.07-0.375
			v-1.078c0.313,0.188,0.692,0.336,1.141,0.445s0.875,0.164,1.281,0.164c0.688,0,1.242-0.162,1.664-0.484
			c0.422-0.323,0.633-0.828,0.633-1.516c0-0.604-0.188-1.07-0.563-1.398s-0.964-0.492-1.766-0.492c-0.25,0-0.531,0.021-0.844,0.063
			c-0.313,0.041-0.563,0.088-0.75,0.141l-0.563-0.375l0.344-4.375h4.656v1.047H-5.6l-0.219,2.688
			c0.146-0.031,0.347-0.063,0.602-0.094S-4.683,9.313-4.381,9.313z M6.379,10.344c0,1-0.104,1.856-0.313,2.57
			c-0.208,0.713-0.536,1.26-0.984,1.641c-0.448,0.38-1.047,0.57-1.797,0.57c-1.052,0-1.825-0.422-2.32-1.266
			s-0.742-2.016-0.742-3.516c0-1,0.102-1.857,0.305-2.57C0.73,7.06,1.056,6.516,1.504,6.141s1.042-0.563,1.781-0.563
			c1.042,0,1.817,0.416,2.328,1.25C6.124,7.661,6.379,8.833,6.379,10.344z M1.363,10.344c0,1.271,0.146,2.224,0.438,2.859
			c0.292,0.635,0.786,0.953,1.484,0.953s1.195-0.315,1.492-0.945c0.297-0.631,0.445-1.586,0.445-2.867
			c0-1.261-0.148-2.209-0.445-2.844C4.48,6.865,3.983,6.547,3.285,6.547S2.093,6.865,1.801,7.5
			C1.509,8.135,1.363,9.083,1.363,10.344z M13.92,10.344c0,1-0.104,1.856-0.313,2.57c-0.208,0.713-0.536,1.26-0.984,1.641
			c-0.448,0.38-1.047,0.57-1.797,0.57c-1.052,0-1.825-0.422-2.32-1.266s-0.742-2.016-0.742-3.516c0-1,0.102-1.857,0.305-2.57
			C8.271,7.06,8.597,6.516,9.045,6.141s1.042-0.563,1.781-0.563c1.042,0,1.817,0.416,2.328,1.25
			C13.665,7.661,13.92,8.833,13.92,10.344z M8.904,10.344c0,1.271,0.146,2.224,0.438,2.859c0.292,0.635,0.786,0.953,1.484,0.953
			s1.195-0.315,1.492-0.945c0.297-0.631,0.445-1.586,0.445-2.867c0-1.261-0.148-2.209-0.445-2.844
			c-0.297-0.636-0.794-0.953-1.492-0.953S9.634,6.865,9.342,7.5C9.05,8.135,8.904,9.083,8.904,10.344z"/>
	</g>
	<g transform="translate(324.5002,425.5972)">
		<path fill="#262626" d="M-36.969,10.547c0,1.802-0.492,3.161-1.477,4.078S-40.802,16-42.563,16h-2.984V5.297h3.297
			c1.083,0,2.021,0.198,2.813,0.594c0.792,0.396,1.401,0.981,1.828,1.758C-37.182,8.425-36.969,9.391-36.969,10.547z
			 M-38.391,10.578c0-1.427-0.352-2.474-1.055-3.141s-1.7-1-2.992-1h-1.75v8.406h1.453C-39.839,14.844-38.391,13.422-38.391,10.578z
			 M-28.407,7.953V16h-1.078l-0.203-1.063h-0.063c-0.26,0.417-0.62,0.724-1.078,0.922s-0.948,0.297-1.469,0.297
			c-0.969,0-1.698-0.234-2.188-0.703s-0.734-1.214-0.734-2.234V7.953h1.328v5.188c0,1.281,0.599,1.922,1.797,1.922
			c0.885,0,1.5-0.25,1.844-0.75s0.516-1.224,0.516-2.172V7.953H-28.407z M-22.407,7.813c0.146,0,0.307,0.008,0.484,0.023
			c0.177,0.016,0.328,0.039,0.453,0.07l-0.156,1.203c-0.136-0.031-0.281-0.055-0.438-0.07s-0.303-0.023-0.438-0.023
			c-0.417,0-0.805,0.112-1.164,0.336s-0.646,0.539-0.859,0.945c-0.214,0.406-0.32,0.875-0.32,1.406V16h-1.313V7.953h1.078
			l0.141,1.484h0.063c0.26-0.448,0.596-0.831,1.008-1.148C-23.457,7.972-22.97,7.813-22.407,7.813z M-17.133,7.828
			c0.989,0,1.719,0.214,2.188,0.641s0.703,1.114,0.703,2.063V16h-0.969l-0.25-1.141h-0.063c-0.344,0.438-0.709,0.763-1.094,0.977
			c-0.386,0.214-0.922,0.32-1.609,0.32c-0.729,0-1.334-0.192-1.813-0.578c-0.479-0.386-0.719-0.989-0.719-1.813
			c0-0.802,0.314-1.419,0.945-1.852c0.63-0.433,1.602-0.669,2.914-0.711l1.359-0.047v-0.484c0-0.667-0.144-1.13-0.43-1.391
			c-0.287-0.261-0.695-0.391-1.227-0.391c-0.428,0-0.831,0.063-1.211,0.188c-0.381,0.125-0.732,0.266-1.055,0.422l-0.406-0.984
			c0.344-0.188,0.758-0.349,1.242-0.484S-17.644,7.828-17.133,7.828z M-16.742,12.11c-1,0.042-1.69,0.203-2.07,0.484
			c-0.381,0.281-0.57,0.677-0.57,1.188c0,0.448,0.135,0.776,0.406,0.984c0.271,0.208,0.625,0.313,1.063,0.313
			c0.677,0,1.239-0.188,1.688-0.563c0.447-0.375,0.672-0.948,0.672-1.719v-0.734L-16.742,12.11z M-9.352,15.063
			c0.208,0,0.416-0.016,0.625-0.047c0.208-0.031,0.375-0.067,0.5-0.109v1c-0.136,0.073-0.334,0.133-0.594,0.18
			c-0.261,0.047-0.511,0.07-0.75,0.07c-0.417,0-0.803-0.073-1.156-0.219c-0.354-0.146-0.644-0.398-0.867-0.758
			c-0.225-0.359-0.336-0.867-0.336-1.523V8.985h-1.141V8.344l1.156-0.516l0.531-1.719h0.781v1.844h2.328v1.031h-2.328v4.641
			c0,0.489,0.117,0.852,0.352,1.086S-9.717,15.063-9.352,15.063z M-6.113,4.938c0.198,0,0.375,0.067,0.531,0.203
			s0.234,0.349,0.234,0.641c0,0.281-0.078,0.492-0.234,0.633s-0.333,0.211-0.531,0.211c-0.219,0-0.403-0.07-0.555-0.211
			s-0.227-0.352-0.227-0.633c0-0.292,0.075-0.505,0.227-0.641S-6.332,4.938-6.113,4.938z M-5.473,7.953V16h-1.313V7.953H-5.473z
			 M3.943,11.969c0,1.323-0.339,2.352-1.016,3.086c-0.678,0.734-1.589,1.102-2.734,1.102c-0.709,0-1.342-0.164-1.898-0.492
			c-0.558-0.328-0.995-0.805-1.313-1.43c-0.318-0.625-0.477-1.38-0.477-2.266c0-1.333,0.333-2.359,1-3.078
			c0.666-0.719,1.578-1.078,2.734-1.078c0.729,0,1.369,0.161,1.922,0.484C2.714,8.62,3.148,9.089,3.467,9.703
			C3.784,10.318,3.943,11.073,3.943,11.969z M-2.135,11.969c0,0.948,0.188,1.7,0.563,2.258s0.974,0.836,1.797,0.836
			c0.813,0,1.408-0.278,1.789-0.836c0.38-0.558,0.57-1.31,0.57-2.258s-0.19-1.692-0.57-2.234C1.633,9.193,1.031,8.922,0.209,8.922
			c-0.823,0-1.42,0.271-1.789,0.813C-1.95,10.277-2.135,11.021-2.135,11.969z M9.597,7.813c0.958,0,1.685,0.231,2.18,0.695
			c0.494,0.464,0.742,1.216,0.742,2.258V16h-1.313V10.86c0-1.292-0.6-1.938-1.797-1.938c-0.896,0-1.514,0.25-1.852,0.75
			c-0.339,0.5-0.508,1.219-0.508,2.156V16H5.738V7.953h1.063l0.188,1.109h0.078c0.26-0.427,0.619-0.742,1.078-0.945
			C8.602,7.914,9.087,7.813,9.597,7.813z M17.791,11.891c0-1.219,0.18-2.396,0.539-3.531s0.919-2.156,1.68-3.063h1.234
			c-0.698,0.938-1.224,1.972-1.578,3.102s-0.531,2.289-0.531,3.477c0,1.156,0.177,2.292,0.531,3.406s0.875,2.146,1.563,3.094H20.01
			c-0.761-0.886-1.32-1.886-1.68-3S17.791,13.099,17.791,11.891z M31.644,7.813c0.906,0,1.586,0.231,2.039,0.695
			s0.68,1.216,0.68,2.258V16h-1.313v-5.172c0-1.271-0.542-1.906-1.625-1.906c-0.781,0-1.341,0.224-1.68,0.672
			s-0.508,1.104-0.508,1.969V16h-1.297v-5.172c0-1.271-0.552-1.906-1.656-1.906c-0.802,0-1.359,0.25-1.672,0.75
			s-0.469,1.219-0.469,2.156V16h-1.313V7.953h1.063l0.188,1.109h0.078c0.25-0.427,0.589-0.742,1.016-0.945s0.88-0.305,1.359-0.305
			c1.261,0,2.078,0.448,2.453,1.344h0.078c0.271-0.458,0.638-0.797,1.102-1.016S31.124,7.813,31.644,7.813z M41.634,13.781
			c0,0.781-0.291,1.372-0.875,1.773c-0.583,0.401-1.364,0.602-2.344,0.602c-0.563,0-1.044-0.047-1.445-0.141
			c-0.4-0.094-0.758-0.219-1.07-0.375v-1.203c0.323,0.167,0.711,0.315,1.164,0.445s0.914,0.195,1.383,0.195
			c0.667,0,1.151-0.106,1.453-0.32c0.303-0.214,0.453-0.497,0.453-0.852c0-0.208-0.055-0.391-0.164-0.547s-0.307-0.315-0.594-0.477
			c-0.286-0.161-0.695-0.341-1.227-0.539c-0.521-0.198-0.966-0.398-1.336-0.602c-0.369-0.203-0.653-0.445-0.852-0.727
			c-0.197-0.281-0.297-0.641-0.297-1.078c0-0.677,0.279-1.2,0.836-1.57c0.558-0.37,1.284-0.555,2.18-0.555
			c0.49,0,0.948,0.047,1.375,0.141c0.428,0.094,0.823,0.224,1.188,0.391l-0.453,1.063c-0.333-0.146-0.685-0.269-1.055-0.367
			c-0.369-0.099-0.752-0.148-1.148-0.148c-0.541,0-0.953,0.089-1.234,0.266s-0.422,0.411-0.422,0.703
			c0,0.219,0.065,0.406,0.195,0.563c0.131,0.156,0.347,0.308,0.648,0.453c0.303,0.146,0.709,0.317,1.219,0.516
			c0.511,0.198,0.945,0.396,1.305,0.594s0.636,0.44,0.828,0.727C41.538,12.997,41.634,13.355,41.634,13.781z M45.975,11.891
			c0,1.208-0.18,2.37-0.539,3.484s-0.919,2.114-1.68,3h-1.219c0.688-0.948,1.208-1.979,1.563-3.094s0.531-2.25,0.531-3.406
			c0-1.188-0.177-2.347-0.531-3.477s-0.88-2.164-1.578-3.102h1.234c0.761,0.906,1.32,1.927,1.68,3.063S45.975,10.672,45.975,11.891z
			"/>
	</g>
	
		<line fill="none" stroke="#262626" stroke-width="0.6597" stroke-linecap="square" stroke-linejoin="round" stroke-miterlimit="10" x1="82" y1="400" x2="82" y2="34"/>
	
		<line fill="none" stroke="#262626" stroke-width="0.6597" stroke-linecap="square" stroke-linejoin="round" stroke-miterlimit="10" x1="82" y1="400" x2="86.85" y2="400"/>
	
		<line fill="none" stroke="#262626" stroke-width="0.6597" stroke-linecap="square" stroke-linejoin="round" stroke-miterlimit="10" x1="82" y1="359.334" x2="86.85" y2="359.334"/>
	
		<line fill="none" stroke="#262626" stroke-width="0.6597" stroke-linecap="square" stroke-linejoin="round" stroke-miterlimit="10" x1="82" y1="318.667" x2="86.85" y2="318.667"/>
	
		<line fill="none" stroke="#262626" stroke-width="0.6597" stroke-linecap="square" stroke-linejoin="round" stroke-miterlimit="10" x1="82" y1="278" x2="86.85" y2="278"/>
	
		<line fill="none" stroke="#262626" stroke-width="0.6597" stroke-linecap="square" stroke-linejoin="round" stroke-miterlimit="10" x1="82" y1="237.334" x2="86.85" y2="237.334"/>
	
		<line fill="none" stroke="#262626" stroke-width="0.6597" stroke-linecap="square" stroke-linejoin="round" stroke-miterlimit="10" x1="82" y1="196.667" x2="86.85" y2="196.667"/>
	
		<line fill="none" stroke="#262626" stroke-width="0.6597" stroke-linecap="square" stroke-linejoin="round" stroke-miterlimit="10" x1="82" y1="156" x2="86.85" y2="156"/>
	
		<line fill="none" stroke="#262626" stroke-width="0.6597" stroke-linecap="square" stroke-linejoin="round" stroke-miterlimit="10" x1="82" y1="115.334" x2="86.85" y2="115.334"/>
	
		<line fill="none" stroke="#262626" stroke-width="0.6597" stroke-linecap="square" stroke-linejoin="round" stroke-miterlimit="10" x1="82" y1="74.667" x2="86.85" y2="74.667"/>
	
		<line fill="none" stroke="#262626" stroke-width="0.6597" stroke-linecap="square" stroke-linejoin="round" stroke-miterlimit="10" x1="82" y1="34" x2="86.85" y2="34"/>
	
		<line fill="none" stroke="#262626" stroke-width="0.6597" stroke-linecap="square" stroke-linejoin="round" stroke-miterlimit="10" x1="567" y1="400" x2="562.15" y2="400"/>
	<g transform="translate(76.7222,400)">
		<path fill="#262626" d="M-1.203,0.844c0,1-0.104,1.857-0.313,2.57C-1.724,4.128-2.052,4.675-2.5,5.054
			c-0.448,0.381-1.047,0.57-1.797,0.57c-1.052,0-1.826-0.422-2.32-1.266s-0.742-2.016-0.742-3.516c0-1,0.102-1.856,0.305-2.57
			C-6.852-2.44-6.526-2.985-6.078-3.36s1.042-0.563,1.781-0.563c1.042,0,1.818,0.417,2.328,1.25
			C-1.459-1.838-1.203-0.666-1.203,0.844z M-6.219,0.844c0,1.271,0.146,2.225,0.438,2.859c0.292,0.636,0.787,0.953,1.484,0.953
			s1.195-0.314,1.492-0.945c0.297-0.63,0.445-1.586,0.445-2.867c0-1.26-0.148-2.208-0.445-2.844
			c-0.297-0.635-0.794-0.953-1.492-0.953S-5.49-2.635-5.781-2C-6.073-1.365-6.219-0.416-6.219,0.844z"/>
	</g>
	<g transform="translate(76.7222,359.3333)">
		<path fill="#262626" d="M-3.391,5.5H-4.5v-6.484c0-0.375,0.002-0.675,0.008-0.898c0.005-0.225,0.018-0.461,0.039-0.711
			c-0.135,0.146-0.26,0.266-0.375,0.359S-5.084-2.021-5.25-1.875l-1,0.813l-0.594-0.766l2.516-1.953h0.938V5.5z"/>
	</g>
	<g transform="translate(76.7222,318.6667)">
		<path fill="#262626" d="M-1.234,5.5h-6.141V4.547l2.438-2.453c0.458-0.469,0.849-0.886,1.172-1.25s0.568-0.722,0.734-1.07
			s0.25-0.731,0.25-1.148c0-0.511-0.154-0.898-0.461-1.164s-0.701-0.398-1.18-0.398c-0.448,0-0.844,0.078-1.188,0.234
			s-0.693,0.375-1.047,0.656l-0.609-0.766c0.365-0.313,0.781-0.573,1.25-0.781s1-0.313,1.594-0.313c0.865,0,1.549,0.219,2.055,0.656
			s0.758,1.042,0.758,1.813c0,0.479-0.102,0.933-0.305,1.359S-2.396,0.769-2.75,1.18S-3.521,2.031-4,2.5l-1.938,1.906v0.047h4.703
			V5.5z"/>
	</g>
	<g transform="translate(76.7222,278)">
		<path fill="#262626" d="M-1.594-1.61c0,0.625-0.172,1.123-0.516,1.492c-0.344,0.37-0.813,0.612-1.406,0.727v0.047
			c0.75,0.094,1.305,0.331,1.664,0.711c0.359,0.381,0.539,0.878,0.539,1.492c0,0.542-0.125,1.021-0.375,1.438
			c-0.25,0.417-0.635,0.742-1.156,0.977s-1.193,0.352-2.016,0.352c-0.49,0-0.943-0.036-1.359-0.109
			c-0.417-0.072-0.818-0.203-1.203-0.391V4.062c0.396,0.188,0.818,0.336,1.266,0.445s0.88,0.164,1.297,0.164
			c0.833,0,1.435-0.164,1.805-0.492S-2.5,3.401-2.5,2.828c0-0.572-0.227-0.986-0.68-1.242c-0.453-0.255-1.091-0.383-1.914-0.383H-6
			V0.219h0.906c0.771,0,1.352-0.158,1.742-0.477C-2.961-0.575-2.766-1-2.766-1.531c0-0.447-0.151-0.797-0.453-1.047
			s-0.713-0.375-1.234-0.375c-0.5,0-0.927,0.073-1.281,0.219c-0.354,0.146-0.708,0.334-1.063,0.563l-0.563-0.781
			c0.323-0.26,0.729-0.484,1.219-0.672s1.047-0.281,1.672-0.281c0.969,0,1.69,0.217,2.164,0.648
			C-1.831-2.825-1.594-2.276-1.594-1.61z"/>
	</g>
	<g transform="translate(76.7222,237.3333)">
		<path fill="#262626" d="M-0.828,3.391h-1.344V5.5h-1.109V3.391h-4.453V2.422l4.375-6.25h1.188V2.36h1.344V3.391z M-3.281-0.562
			c0-0.448,0.008-0.831,0.023-1.148c0.016-0.318,0.029-0.617,0.039-0.898h-0.047c-0.073,0.166-0.162,0.344-0.266,0.531
			s-0.203,0.349-0.297,0.484L-6.609,2.36h3.328V-0.562z"/>
	</g>
	<g transform="translate(76.7222,196.6667)">
		<path fill="#262626" d="M-4.422-0.187c0.948,0,1.703,0.237,2.266,0.711s0.844,1.144,0.844,2.008c0,0.969-0.305,1.727-0.914,2.273
			s-1.461,0.82-2.555,0.82c-0.469,0-0.914-0.042-1.336-0.125s-0.779-0.208-1.07-0.375V4.047c0.313,0.188,0.693,0.336,1.141,0.445
			s0.875,0.164,1.281,0.164c0.688,0,1.242-0.161,1.664-0.484s0.633-0.828,0.633-1.516c0-0.604-0.188-1.07-0.563-1.398
			s-0.963-0.492-1.766-0.492c-0.25,0-0.531,0.021-0.844,0.063s-0.563,0.089-0.75,0.141l-0.563-0.375l0.344-4.375h4.656v1.047h-3.688
			l-0.219,2.688c0.146-0.031,0.346-0.063,0.602-0.094S-4.724-0.187-4.422-0.187z"/>
	</g>
	<g transform="translate(76.7222,156)">
		<path fill="#262626" d="M-7.281,1.531c0-0.666,0.057-1.322,0.172-1.969c0.115-0.646,0.326-1.229,0.633-1.75
			c0.307-0.521,0.74-0.938,1.297-1.25s1.273-0.469,2.148-0.469c0.177,0,0.377,0.008,0.602,0.023s0.404,0.045,0.539,0.086v0.984
			C-2.047-2.865-2.221-2.904-2.414-2.93c-0.193-0.025-0.393-0.039-0.602-0.039c-0.594,0-1.088,0.1-1.484,0.297
			C-4.896-2.474-5.211-2.203-5.445-1.86s-0.404,0.742-0.508,1.195S-6.12,0.271-6.141,0.781h0.078
			c0.198-0.302,0.474-0.56,0.828-0.773c0.354-0.213,0.813-0.32,1.375-0.32c0.802,0,1.451,0.245,1.945,0.734
			c0.495,0.49,0.742,1.188,0.742,2.094c0,0.969-0.268,1.729-0.805,2.281c-0.537,0.553-1.252,0.828-2.148,0.828
			c-0.594,0-1.127-0.146-1.602-0.438c-0.474-0.291-0.852-0.742-1.133-1.352S-7.281,2.459-7.281,1.531z M-4.141,4.672
			c0.552,0,0.995-0.177,1.328-0.531c0.333-0.354,0.5-0.896,0.5-1.625c0-0.594-0.148-1.063-0.445-1.406S-3.5,0.594-4.094,0.594
			c-0.417,0-0.776,0.084-1.078,0.25C-5.474,1.01-5.709,1.224-5.875,1.484c-0.167,0.261-0.25,0.526-0.25,0.797
			c0,0.375,0.073,0.748,0.219,1.117c0.146,0.37,0.367,0.675,0.664,0.914C-4.945,4.552-4.578,4.672-4.141,4.672z"/>
	</g>
	<g transform="translate(76.7222,115.3333)">
		<path fill="#262626" d="M-6.234,5.5l3.813-8.234h-5v-1.047h6.219v0.891L-4.969,5.5H-6.234z"/>
	</g>
	<g transform="translate(76.7222,74.6667)">
		<path fill="#262626" d="M-4.297-3.906c0.813,0,1.479,0.19,2,0.57s0.781,0.93,0.781,1.648c0,0.375-0.081,0.7-0.242,0.977
			S-2.133-0.19-2.398,0.023s-0.56,0.403-0.883,0.57c0.385,0.177,0.734,0.38,1.047,0.609S-1.674,1.698-1.492,2
			s0.273,0.667,0.273,1.094c0,0.781-0.273,1.398-0.82,1.852s-1.284,0.68-2.211,0.68c-1,0-1.768-0.219-2.305-0.656
			s-0.805-1.047-0.805-1.828c0-0.427,0.088-0.797,0.266-1.109s0.412-0.581,0.703-0.805s0.609-0.414,0.953-0.57
			c-0.448-0.261-0.831-0.575-1.148-0.945S-7.063-1.13-7.063-1.703c0-0.479,0.12-0.88,0.359-1.203s0.568-0.57,0.984-0.742
			S-4.828-3.906-4.297-3.906z M-4.313-2.984c-0.469,0-0.859,0.114-1.172,0.344s-0.469,0.558-0.469,0.984
			c0,0.323,0.078,0.594,0.234,0.813s0.362,0.403,0.617,0.555s0.539,0.294,0.852,0.43c0.458-0.188,0.841-0.417,1.148-0.688
			s0.461-0.641,0.461-1.109c0-0.427-0.151-0.755-0.453-0.984S-3.802-2.984-4.313-2.984z M-6.25,3.141
			c0,0.458,0.162,0.836,0.484,1.133s0.818,0.445,1.484,0.445c0.635,0,1.12-0.148,1.453-0.445s0.5-0.685,0.5-1.164
			c0-0.448-0.177-0.823-0.531-1.125s-0.828-0.563-1.422-0.781l-0.203-0.078c-0.573,0.239-1.01,0.519-1.313,0.836
			S-6.25,2.672-6.25,3.141z"/>
	</g>
	<g transform="translate(76.7222,34)">
		<path fill="#262626" d="M-1.234,0.187c0,0.667-0.06,1.323-0.18,1.969c-0.12,0.646-0.333,1.229-0.641,1.75
			c-0.307,0.521-0.74,0.938-1.297,1.25S-4.625,5.625-5.5,5.625c-0.177,0-0.38-0.01-0.609-0.031C-6.338,5.573-6.526,5.542-6.672,5.5
			V4.531c0.333,0.104,0.713,0.156,1.141,0.156c0.604,0,1.104-0.099,1.5-0.297c0.396-0.197,0.711-0.469,0.945-0.813
			s0.404-0.742,0.508-1.195s0.167-0.93,0.188-1.43h-0.078c-0.198,0.292-0.477,0.545-0.836,0.758c-0.359,0.214-0.82,0.32-1.383,0.32
			c-0.792,0-1.432-0.244-1.922-0.734c-0.49-0.489-0.734-1.182-0.734-2.078c0-0.646,0.123-1.203,0.367-1.672s0.588-0.828,1.031-1.078
			s0.961-0.375,1.555-0.375s1.127,0.148,1.602,0.445s0.852,0.748,1.133,1.352C-1.375-1.505-1.234-0.74-1.234,0.187z M-4.391-2.953
			c-0.531,0-0.969,0.178-1.313,0.531c-0.344,0.354-0.516,0.896-0.516,1.625c0,0.604,0.146,1.076,0.438,1.414
			c0.292,0.339,0.74,0.508,1.344,0.508c0.417,0,0.776-0.083,1.078-0.25c0.302-0.166,0.539-0.38,0.711-0.641
			c0.172-0.26,0.258-0.531,0.258-0.813c0-0.364-0.076-0.729-0.227-1.094C-2.768-2.036-2.99-2.341-3.281-2.586
			C-3.573-2.83-3.943-2.953-4.391-2.953z"/>
	</g>
	<g transform="translate(64.7639,216.9998) rotate(-90)">
		<path fill="#262626" d="M-32.703-15.703c1.396,0,2.414,0.273,3.055,0.82c0.641,0.547,0.961,1.32,0.961,2.32
			c0,0.594-0.133,1.148-0.398,1.665c-0.266,0.515-0.711,0.932-1.336,1.25c-0.625,0.317-1.474,0.476-2.547,0.476h-1.219V-5h-1.359
			v-10.703H-32.703z M-32.828-14.563h-1.359v4.235h1.078c1.021,0,1.781-0.164,2.281-0.493c0.5-0.328,0.75-0.888,0.75-1.68
			c0-0.687-0.222-1.203-0.664-1.547C-31.185-14.391-31.88-14.563-32.828-14.563z M-23.189-13.188c0.146,0,0.307,0.008,0.484,0.023
			c0.177,0.016,0.328,0.039,0.453,0.07l-0.156,1.204c-0.136-0.032-0.281-0.055-0.438-0.07c-0.156-0.016-0.303-0.024-0.438-0.024
			c-0.417,0-0.805,0.112-1.164,0.336c-0.359,0.224-0.646,0.539-0.859,0.945c-0.214,0.406-0.32,0.875-0.32,1.406V-5h-1.313v-8.047
			h1.078l0.141,1.484h0.063c0.26-0.448,0.596-0.831,1.008-1.148C-24.239-13.029-23.752-13.188-23.189-13.188z M-13.962-9.031
			c0,1.323-0.339,2.351-1.016,3.085c-0.678,0.734-1.589,1.102-2.734,1.102c-0.709,0-1.342-0.164-1.898-0.492
			c-0.558-0.328-0.995-0.805-1.313-1.43c-0.318-0.625-0.477-1.38-0.477-2.266c0-1.333,0.333-2.359,1-3.079
			c0.666-0.719,1.578-1.078,2.734-1.078c0.729,0,1.369,0.162,1.922,0.485c0.552,0.323,0.986,0.792,1.305,1.406
			C-14.121-10.682-13.962-9.927-13.962-9.031z M-20.04-9.031c0,0.948,0.188,1.7,0.563,2.258c0.375,0.557,0.974,0.835,1.797,0.835
			c0.813,0,1.408-0.278,1.789-0.835c0.38-0.558,0.57-1.31,0.57-2.258c0-0.948-0.19-1.693-0.57-2.234
			c-0.381-0.542-0.982-0.813-1.805-0.813c-0.823,0-1.42,0.271-1.789,0.813C-19.855-10.724-20.04-9.979-20.04-9.031z M-10.854-13.625
			c0,0.344-0.008,0.662-0.023,0.953c-0.016,0.292-0.034,0.526-0.055,0.703h0.078c0.229-0.344,0.544-0.63,0.945-0.859
			c0.4-0.229,0.914-0.344,1.539-0.344c1,0,1.805,0.347,2.414,1.039c0.609,0.693,0.914,1.732,0.914,3.118
			c0,1.375-0.308,2.414-0.922,3.117C-6.579-5.196-7.381-4.844-8.37-4.844c-0.625,0-1.139-0.117-1.539-0.352
			c-0.401-0.234-0.717-0.508-0.945-0.82h-0.109L-11.229-5h-0.938v-11.406h1.313V-13.625z M-8.589-12.078
			c-0.854,0-1.445,0.245-1.773,0.734c-0.328,0.49-0.492,1.25-0.492,2.281V-9c0,0.99,0.161,1.748,0.484,2.273
			c0.322,0.526,0.927,0.789,1.813,0.789c0.719,0,1.255-0.266,1.609-0.797c0.354-0.531,0.531-1.296,0.531-2.296
			C-6.417-11.062-7.142-12.078-8.589-12.078z M-0.212-13.172c0.99,0,1.719,0.214,2.188,0.641c0.469,0.427,0.703,1.114,0.703,2.062
			V-5H1.71L1.46-6.14H1.398C1.054-5.703,0.69-5.378,0.304-5.164c-0.385,0.214-0.922,0.32-1.609,0.32
			c-0.729,0-1.333-0.192-1.813-0.578c-0.479-0.385-0.719-0.989-0.719-1.813c0-0.802,0.315-1.419,0.945-1.851
			c0.631-0.433,1.602-0.669,2.914-0.711l1.359-0.047v-0.484c0-0.667-0.143-1.13-0.43-1.391c-0.286-0.26-0.695-0.391-1.227-0.391
			c-0.427,0-0.831,0.063-1.211,0.188S-2.217-11.656-2.54-11.5l-0.406-0.984c0.344-0.188,0.758-0.349,1.242-0.484
			C-1.22-13.104-0.722-13.172-0.212-13.172z M0.179-8.89c-1,0.042-1.689,0.203-2.07,0.484c-0.38,0.281-0.57,0.677-0.57,1.187
			c0,0.448,0.136,0.776,0.406,0.984c0.271,0.208,0.625,0.313,1.063,0.313c0.677,0,1.239-0.188,1.688-0.563s0.672-0.948,0.672-1.718
			v-0.735L0.179-8.89z M6.21-13.625c0,0.344-0.008,0.662-0.023,0.953c-0.016,0.292-0.033,0.526-0.055,0.703H6.21
			c0.229-0.344,0.545-0.63,0.945-0.859c0.401-0.229,0.914-0.344,1.539-0.344c1,0,1.805,0.347,2.414,1.039
			c0.609,0.693,0.914,1.732,0.914,3.118c0,1.375-0.307,2.414-0.922,3.117c-0.614,0.703-1.416,1.054-2.406,1.054
			c-0.625,0-1.138-0.117-1.539-0.352C6.755-5.43,6.44-5.703,6.21-6.015H6.101L5.835-5H4.898v-11.406H6.21V-13.625z M8.476-12.078
			c-0.854,0-1.445,0.245-1.773,0.734c-0.328,0.49-0.492,1.25-0.492,2.281V-9c0,0.99,0.162,1.748,0.484,2.273
			C7.018-6.2,7.622-5.938,8.507-5.938c0.719,0,1.256-0.266,1.609-0.797c0.354-0.531,0.531-1.296,0.531-2.296
			C10.648-11.062,9.924-12.078,8.476-12.078z M14.494-16.063c0.197,0,0.375,0.068,0.531,0.203c0.156,0.136,0.234,0.349,0.234,0.641
			c0,0.281-0.078,0.492-0.234,0.633c-0.156,0.14-0.334,0.21-0.531,0.21c-0.219,0-0.404-0.07-0.555-0.21
			c-0.151-0.141-0.227-0.352-0.227-0.633c0-0.292,0.075-0.505,0.227-0.641C14.09-15.995,14.275-16.063,14.494-16.063z
			 M15.135-13.047V-5h-1.313v-8.047H15.135z M18.878-5h-1.313v-11.406h1.313V-5z M21.982-16.063c0.198,0,0.375,0.068,0.531,0.203
			c0.156,0.136,0.234,0.349,0.234,0.641c0,0.281-0.078,0.492-0.234,0.633c-0.156,0.14-0.333,0.21-0.531,0.21
			c-0.219,0-0.403-0.07-0.555-0.21c-0.15-0.141-0.227-0.352-0.227-0.633c0-0.292,0.076-0.505,0.227-0.641
			C21.578-15.995,21.763-16.063,21.982-16.063z M22.622-13.047V-5H21.31v-8.047H22.622z M27.726-5.938
			c0.208,0,0.417-0.016,0.625-0.047c0.208-0.031,0.375-0.067,0.5-0.109v1c-0.136,0.073-0.333,0.133-0.594,0.18
			s-0.511,0.07-0.75,0.07c-0.417,0-0.802-0.073-1.156-0.219c-0.354-0.146-0.644-0.398-0.867-0.758
			c-0.224-0.359-0.336-0.867-0.336-1.523v-4.671h-1.141v-0.641l1.156-0.516l0.531-1.718h0.781v1.843h2.328v1.032h-2.328v4.64
			c0,0.49,0.117,0.852,0.352,1.086S27.361-5.938,27.726-5.938z M29.026-13.047h1.406l1.75,4.578
			c0.146,0.406,0.279,0.792,0.398,1.156c0.12,0.365,0.211,0.708,0.273,1.032h0.063c0.053-0.25,0.144-0.576,0.273-0.977
			c0.131-0.401,0.269-0.81,0.414-1.227l1.625-4.563h1.438L33.198-3.89c-0.281,0.76-0.643,1.364-1.086,1.813
			c-0.442,0.448-1.055,0.672-1.836,0.672c-0.239,0-0.45-0.011-0.633-0.032c-0.182-0.021-0.336-0.047-0.461-0.078v-1.047
			c0.104,0.011,0.234,0.026,0.391,0.047c0.156,0.021,0.318,0.031,0.484,0.031c0.459,0,0.831-0.13,1.117-0.391
			c0.287-0.26,0.508-0.604,0.664-1.031l0.422-1.063L29.026-13.047z"/>
	</g>
	<g transform="translate(82,30)">
		<path fill="#262626" d="M1.906-0.375c0-0.063,0.021-0.125,0.063-0.188L4.672-3.25L1.969-5.953
			C1.927-5.994,1.906-6.052,1.906-6.125c0-0.063,0.026-0.122,0.078-0.18c0.052-0.057,0.115-0.086,0.188-0.086
			c0.063,0,0.13,0.031,0.203,0.094L5.063-3.61l2.672-2.688C7.807-6.36,7.87-6.391,7.922-6.391c0.073,0,0.135,0.026,0.188,0.078
			C8.162-6.26,8.188-6.198,8.188-6.125c0,0.073-0.021,0.131-0.063,0.172L5.422-3.25l2.703,2.688C8.167-0.5,8.188-0.438,8.188-0.375
			c0,0.073-0.026,0.136-0.078,0.188C8.057-0.135,7.995-0.11,7.922-0.11c-0.063,0-0.125-0.031-0.188-0.094L5.063-2.891L2.375-0.203
			C2.302-0.141,2.234-0.11,2.172-0.11c-0.073,0-0.135-0.028-0.188-0.086C1.932-0.252,1.906-0.313,1.906-0.375z"/>
	</g>
	<g transform="translate(93,30)">
		<path fill="#262626" d="M4.609,0H3.5v-6.484c0-0.375,0.002-0.674,0.008-0.898c0.005-0.224,0.018-0.461,0.039-0.711
			c-0.135,0.146-0.26,0.266-0.375,0.359S2.917-7.521,2.75-7.375l-1,0.813L1.156-7.328l2.516-1.953h0.938V0z M14.338-4.656
			c0,1-0.104,1.857-0.313,2.57c-0.208,0.714-0.537,1.261-0.984,1.641c-0.448,0.381-1.047,0.57-1.797,0.57
			c-1.052,0-1.826-0.422-2.32-1.266S8.182-3.156,8.182-4.656c0-1,0.102-1.856,0.305-2.57C8.689-7.94,9.015-8.485,9.463-8.86
			s1.042-0.563,1.781-0.563c1.042,0,1.818,0.417,2.328,1.25C14.083-7.338,14.338-6.166,14.338-4.656z M9.322-4.656
			c0,1.271,0.146,2.225,0.438,2.859c0.292,0.636,0.787,0.953,1.484,0.953s1.195-0.314,1.492-0.945
			c0.297-0.63,0.445-1.586,0.445-2.867c0-1.26-0.148-2.208-0.445-2.844c-0.297-0.635-0.794-0.953-1.492-0.953S10.051-8.135,9.76-7.5
			C9.468-6.865,9.322-5.916,9.322-4.656z"/>
	</g>
	<g transform="translate(109,24)">
		<path fill="#262626" d="M0.438-2.516v-0.859h2.672v0.859H0.438z M9.473-1.781H8.317V0H7.395v-1.781H3.629V-2.61l3.688-5.281h1
			v5.234h1.156V-1.781z M7.395-5.125c0-0.385,0.005-0.711,0.016-0.977C7.421-6.367,7.432-6.619,7.442-6.86H7.395
			C7.343-6.724,7.273-6.575,7.184-6.414C7.096-6.252,7.01-6.115,6.926-6L4.567-2.656h2.828V-5.125z"/>
	</g>
	<g>
		<path fill="none" stroke="#0000FF" stroke-width="2.6389" stroke-linejoin="round" stroke-miterlimit="10" d="M137.54,358.34
			l2.157-26.927l2.157-33.869l2.157-38.141l2.157-38.807l2.157-36.066l2.157-31.105l2.157-25.459l2.157-20.397l2.157-16.514
			l2.157-13.532l2.157-10.381l2.157-5.827l2.157,0.473l2.157,7.396l2.157,12.939l2.157,15.431l2.157,14.563l2.157,11.424
			l2.157,7.863l2.157,5.702l2.157,5.895l2.157,7.689l2.157,8.801l2.157,7.115l2.157,2.682l2.157-2.304l2.157-5.575l2.157-6.655
			l2.157-6.402l2.157-5.37l2.157-3.228l2.157,0.05l2.157,3.295l2.157,4.932l2.157,4.409l2.157,2.468l2.157,0.218l2.157-1.604
			l2.157-2.525l2.157-2.144l2.157-0.513l2.157,1.433l2.157,2.34l2.157,1.685l2.157,0.236l2.157-0.915l2.157-1.499l2.157-2.121
			l2.157-3.077l2.157-3.827l2.157-3.561l2.157-2.194l2.157-0.427l2.157,0.999l2.157,2.009l2.157,3.046l2.157,4.649l2.157,6.832
			l2.157,8.872l2.157,9.605l2.157,8.306l2.157,5.365l2.157,1.952l2.157-0.905l2.157-2.855l2.157-3.893l2.157-3.904l2.157-2.431
			l2.157,0.916l2.157,5.748l2.157,10.418l2.157,12.825l2.157,11.993l2.157,8.887l2.157,5.518l2.157,3.322l2.157,2.297l2.157,1.447
			l2.156-0.202l2.157-2.762l2.157-5.276l2.157-6.207l2.156-4.426l2.157-0.26l2.157,4.435l2.157,7.596l2.156,8.456l2.157,7.854
			l2.157,7.146l2.157,7.015l2.156,7.074l2.157,6.423l2.157,4.754l2.157,2.785l2.156,1.476l2.157,0.947l2.157,0.629l2.157,0.271
			l2.156,0.256l2.157,0.71l2.157,0.911l2.157,0.094l2.156-1.374l2.157-2.027l2.157-0.823l2.156,1.744l2.157,4.239l2.157,5.817
			l2.157,6.709l2.157,7.302l2.156,7.273l2.157,6.016l2.157,3.516l2.157,0.569l2.156-1.783l2.157-2.756l2.157-2.174l2.157-0.55
			l2.156,1.239l2.157,2.664l2.157,3.721l2.156,4.509l2.157,4.847l2.157,4.524l2.157,3.668l2.156,2.688l2.157,1.91l2.157,1.393
			l2.157,1.068l2.156,0.935l2.157,1.026l2.157,1.257l2.157,1.363l2.156,1.128l2.157,0.516l2.157-0.246l2.157-0.762l2.156-0.669
			l2.157,0.068l2.157,1.047l2.157,1.734l2.156,1.895l2.157,1.751l2.157,1.697l2.157,1.935l2.156,2.245l2.157,2.134l2.157,1.262
			l2.157-0.119l2.156-1.249l2.157-1.477l2.157-0.822l2.157,0.122l2.156,0.772l2.157,0.979l2.157,0.963l2.157,1.01l2.156,1.278
			l2.157,1.728l2.157,2.141l2.157,2.247l2.156,1.945l2.157,1.394l2.157,0.844l2.157,0.396l2.156,0.02l2.157-0.275l2.157-0.38
			l2.157-0.219l2.156,0.118l2.157,0.394l2.157,0.385l2.157,0.081l2.156-0.27l2.157-0.341l2.157-0.021l2.157,0.506l2.156,0.925
			l2.157,1.023l2.157,0.784l2.156,0.327l2.157-0.181l2.157-0.594l2.157-0.803l2.157-0.686l2.156-0.156l2.157,0.724l2.157,1.659
			l2.156,2.243l2.157,2.185l2.157,1.495l2.157,0.488l2.157-0.39l2.156-0.767l2.157-0.537l2.157,0.158l2.156,1.009l2.157,1.668
			l2.157,1.898"/>
		<path fill="none" stroke="#FF0000" stroke-width="2.6389" stroke-linejoin="round" stroke-miterlimit="10" d="M137.54,369.247
			l2.157-19.192l2.157-23.847l2.157-27.145l2.157-29.355l2.157-31.231l2.157-33.137l2.157-34.678l2.157-34.925l2.157-32.509
			l2.157-26.142l2.157-15.953l2.157-4.247l2.157,5.838l2.157,12.438l2.157,15.582l2.157,16.284l2.157,15.289l2.157,12.599
			l2.157,8.091l2.157,2.73l2.157-1.095l2.157-1.25l2.157,2.265l2.157,6.872l2.157,8.841l2.157,6.057l2.157-0.28l2.157-6.52
			l2.157-9.812l2.157-9.901l2.157-8.038l2.157-4.841l2.157-0.13l2.157,5.688l2.157,10.635l2.157,12.186l2.157,9.482l2.157,4.463
			l2.157,0.207l2.157-1.792l2.157-2.706l2.157-4.26l2.157-6.408l2.157-7.491l2.157-6.323l2.157-3.542l2.157-0.769l2.157,1.103
			l2.157,2.49l2.157,4.16l2.157,6.097l2.157,7.266l2.157,6.587l2.157,4.229l2.157,1.707l2.157,0.652l2.157,1.443l2.157,3.04
			l2.157,3.998l2.157,3.643l2.157,2.407l2.157,1.31l2.157,0.891l2.157,0.761l2.157,0.154l2.157-1.206l2.157-2.573l2.157-2.601
			l2.157-0.543l2.157,2.73l2.157,5.271l2.157,5.639l2.157,4.185l2.157,2.442l2.157,1.595l2.157,1.649l2.157,2.085l2.157,2.748
			l2.156,3.89l2.157,5.517l2.157,7.241l2.157,8.586l2.156,9.142l2.157,8.529l2.157,6.561l2.157,3.416l2.156-0.22l2.157-3.046
			l2.157-3.73l2.157-1.83l2.156,1.693l2.157,5.206l2.157,7.503l2.157,8.186l2.156,7.352l2.157,5.475l2.157,3.137l2.157,0.68
			l2.156-1.595l2.157-2.923l2.157-2.318l2.157,0.17l2.156,2.846l2.157,3.802l2.157,2.908l2.156,1.71l2.157,1.56l2.157,2.383
			l2.157,3.376l2.157,4.218l2.156,4.944l2.157,5.185l2.157,4.214l2.157,1.963l2.156-0.325l2.157-0.879l2.157,0.916l2.157,3.802
			l2.156,5.67l2.157,5.29l2.157,3.024l2.156,0.188l2.157-1.858l2.157-2.224l2.157-0.856l2.156,1.386l2.157,3.161l2.157,3.549
			l2.157,2.436l2.156,0.319l2.157-2.146l2.157-4.438l2.157-6.29l2.156-7.498l2.157-7.518l2.157-5.605l2.157-1.708l2.156,2.886
			l2.157,6.295l2.157,7.447l2.157,6.697l2.156,5.162l2.157,3.758l2.157,2.722l2.157,1.906l2.156,1.316l2.157,1.293l2.157,2.104
			l2.157,3.399l2.156,4.289l2.157,4.104l2.157,2.995l2.157,1.701l2.156,0.72l2.157-0.212l2.157-1.557l2.157-3.196l2.156-4.281
			l2.157-3.954l2.157-2.121l2.157,0.396l2.156,2.375l2.157,3.039l2.157,2.528l2.157,1.545l2.156,0.558l2.157-0.458l2.157-1.582
			l2.157-2.402l2.156-2.128l2.157-0.304l2.157,2.537l2.157,5.057l2.156,5.997l2.157,5.042l2.157,2.875l2.157,0.604l2.156-0.904
			l2.157-1.423l2.157-1.292l2.156-0.941l2.157-0.502l2.157,0.151l2.157,1.014l2.157,1.829l2.156,2.326l2.157,2.431l2.157,2.182
			l2.156,1.605l2.157,0.747l2.157-0.23l2.157-1.032l2.157-1.333l2.156-0.956l2.157-0.084l2.157,0.821l2.156,1.415l2.157,1.71
			l2.157,1.885"/>
		<path fill="none" stroke="#000000" stroke-width="2.6389" stroke-linejoin="round" stroke-miterlimit="10" d="M137.54,367.317
			l2.157-19.967l2.157-24.822l2.157-28.312l2.157-30.49l2.157-32.002l2.157-33.661l2.157-35.704l2.157-37.118l2.157-35.538
			l2.157-28.91l2.157-17.657l2.157-4.89l2.157,5.758l2.157,12.386l2.157,15.316l2.157,15.973l2.157,15.839l2.157,15.801
			l2.157,15.788l2.157,14.819l2.157,11.861l2.157,6.968l2.157,1.705l2.157-2.038l2.157-3.582l2.157-3.425l2.157-2.115l2.157,0.319
			l2.157,3.406l2.157,5.53l2.157,5.146l2.157,2.415l2.157-0.965l2.157-3.39l2.157-4.298l2.157-3.737l2.157-2.064l2.157-0.227
			l2.157,0.521l2.157-0.389l2.157-2.289l2.157-3.997l2.157-4.635l2.157-3.787l2.157-1.309l2.157,2.429l2.157,6.253l2.157,8.706
			l2.157,9.136l2.157,8.172l2.157,6.872l2.157,5.711l2.157,4.473l2.157,2.876l2.157,1.104l2.157-0.377l2.157-1.218l2.157-1.313
			l2.157-0.729l2.157,0.355l2.157,1.602l2.157,2.492l2.157,2.438l2.157,1.02l2.157-1.516l2.157-4.017l2.157-4.964l2.157-3.694
			l2.157-0.838l2.157,2.209l2.157,4.427l2.157,5.743l2.157,6.722l2.157,7.729l2.157,8.461l2.157,8.393l2.157,7.311l2.157,5.366
			l2.156,2.87l2.157,0.522l2.157-0.652l2.157,0.049l2.156,2.193l2.157,4.194l2.157,4.375l2.157,2.207l2.156-1.14l2.157-3.589
			l2.157-3.833l2.157-2.182l2.156-0.157l2.157,0.931l2.157,0.87l2.157,0.371l2.156,0.281l2.157,1.015l2.157,2.439l2.157,3.995
			l2.156,5.032l2.157,5.219l2.157,4.632l2.157,3.581l2.156,2.401l2.157,1.439l2.157,0.99l2.156,1.18l2.157,1.992l2.157,3.121
			l2.157,4.003l2.157,4.104l2.156,3.567l2.157,3.148l2.157,3.423l2.157,4.117l2.156,4.394l2.157,3.655l2.157,2.101l2.157,0.523
			l2.156-0.249l2.157-0.073l2.157,0.391l2.156,0.334l2.157-0.35l2.157-0.895l2.157-0.408l2.156,1.131l2.157,2.7l2.157,3.108
			l2.157,2.198l2.156,0.928l2.157,0.22l2.157,0.143l2.157,0.375l2.156,1.003l2.157,2.254l2.157,3.646l2.157,4.068l2.156,2.881
			l2.157,0.744l2.157-0.84l2.157-0.884l2.156,0.263l2.157,1.346l2.157,1.519l2.157,0.987l2.156,0.459l2.157,0.18l2.157-0.187
			l2.157-0.819l2.156-1.247l2.157-0.814l2.157,0.511l2.157,2.028l2.156,3.006l2.157,3.245l2.157,2.881l2.157,1.923l2.156,0.357
			l2.157-1.266l2.157-1.811l2.157-0.618l2.156,1.596l2.157,3.102l2.157,2.743l2.157,0.971l2.156-0.586l2.157-0.58l2.157,0.958
			l2.157,2.825l2.156,3.661l2.157,2.889l2.157,1.044l2.157-0.689l2.156-1.391l2.157-1.067l2.157-0.44l2.157-0.099l2.156-0.02
			l2.157,0.188l2.157,0.647l2.156,0.973l2.157,0.565l2.157-0.737l2.157-2.329l2.157-3.151l2.156-2.446l2.157-0.334l2.157,2.303
			l2.156,4.396l2.157,5.206l2.157,4.563l2.157,2.813l2.157,0.678l2.156-1.043l2.157-1.801l2.157-1.503l2.156-0.376l2.157,1.207
			l2.157,2.765"/>
	</g>
	<g>
		<path fill="#FFFFFF" d="M556,101V45H385v56H556z"/>
	</g>
	<g transform="translate(431.425,55.5)">
		<path d="M6.031,2.203c0,0.761-0.276,1.354-0.828,1.781C4.651,4.412,3.906,4.625,2.969,4.625c-0.479,0-0.924-0.036-1.336-0.109
			C1.221,4.443,0.881,4.344,0.609,4.219V3.187c0.292,0.125,0.651,0.24,1.078,0.344c0.428,0.104,0.87,0.156,1.328,0.156
			c0.636,0,1.115-0.125,1.438-0.375c0.323-0.25,0.484-0.588,0.484-1.016c0-0.271-0.06-0.502-0.18-0.695
			C4.638,1.409,4.432,1.229,4.14,1.062C3.849,0.896,3.443,0.724,2.922,0.547C2.203,0.276,1.656-0.052,1.281-0.438
			C0.906-0.823,0.719-1.344,0.719-2c0-0.458,0.117-0.849,0.352-1.172c0.234-0.322,0.558-0.572,0.969-0.75
			c0.412-0.177,0.883-0.266,1.414-0.266c0.469,0,0.901,0.045,1.297,0.133C5.146-3.966,5.5-3.849,5.812-3.703L5.484-2.781
			c-0.291-0.125-0.611-0.231-0.961-0.32C4.175-3.19,3.812-3.235,3.437-3.235c-0.541,0-0.947,0.112-1.219,0.336
			C1.948-2.674,1.812-2.369,1.812-1.985c0,0.281,0.061,0.519,0.18,0.711c0.12,0.193,0.315,0.365,0.586,0.516
			c0.271,0.151,0.641,0.315,1.109,0.492c0.5,0.188,0.925,0.386,1.273,0.594c0.35,0.209,0.615,0.461,0.797,0.758
			C5.94,1.383,6.031,1.756,6.031,2.203z M10.596-2.047c0.792,0,1.43,0.276,1.914,0.828c0.484,0.553,0.727,1.381,0.727,2.484
			c0,1.104-0.242,1.94-0.727,2.508c-0.484,0.568-1.128,0.852-1.93,0.852c-0.489,0-0.896-0.094-1.219-0.281S8.783,3.937,8.596,3.687
			H8.517c0.021,0.136,0.039,0.308,0.055,0.516c0.016,0.209,0.023,0.386,0.023,0.531v2.641H7.533v-9.313h0.875l0.141,0.875h0.047
			c0.188-0.271,0.438-0.502,0.75-0.695C9.658-1.95,10.075-2.047,10.596-2.047z M10.408-1.156c-0.656,0-1.12,0.183-1.391,0.547
			C8.747-0.244,8.606,0.312,8.596,1.062v0.203c0,0.792,0.13,1.404,0.391,1.836C9.247,3.534,9.725,3.75,10.424,3.75
			c0.396,0,0.719-0.109,0.969-0.328s0.438-0.513,0.563-0.883c0.125-0.369,0.188-0.794,0.188-1.273c0-0.739-0.141-1.328-0.422-1.766
			S11.002-1.156,10.408-1.156z M15.381-4.344c0.156,0,0.297,0.055,0.422,0.164s0.188,0.279,0.188,0.508
			c0,0.219-0.063,0.386-0.188,0.5C15.678-3.057,15.537-3,15.381-3c-0.177,0-0.325-0.057-0.445-0.172
			c-0.12-0.114-0.18-0.281-0.18-0.5c0-0.229,0.06-0.398,0.18-0.508S15.204-4.344,15.381-4.344z M15.896-1.938V4.5h-1.063v-6.438
			H15.896z M20.99-2.047c0.771,0,1.352,0.186,1.742,0.555c0.391,0.37,0.586,0.972,0.586,1.805V4.5h-1.031V0.39
			c0-1.031-0.484-1.547-1.453-1.547c-0.708,0-1.197,0.198-1.469,0.594c-0.271,0.396-0.406,0.969-0.406,1.719V4.5h-1.063v-6.438
			h0.859l0.156,0.875h0.063c0.209-0.333,0.495-0.58,0.859-0.742C20.199-1.966,20.584-2.047,20.99-2.047z M27.514,4.625
			c-0.802,0-1.442-0.278-1.922-0.836c-0.479-0.557-0.719-1.388-0.719-2.492c0-1.104,0.242-1.938,0.727-2.5s1.128-0.844,1.93-0.844
			c0.5,0,0.906,0.092,1.219,0.273c0.313,0.183,0.567,0.404,0.766,0.664h0.078c-0.011-0.104-0.026-0.258-0.047-0.461
			s-0.031-0.361-0.031-0.477v-2.578h1.063V4.5h-0.844L29.577,3.64h-0.063c-0.188,0.271-0.44,0.503-0.758,0.695
			C28.439,4.529,28.025,4.625,27.514,4.625z M27.686,3.75c0.677,0,1.153-0.188,1.43-0.563S29.53,2.25,29.53,1.5V1.312
			c0-0.802-0.13-1.416-0.391-1.844c-0.261-0.427-0.75-0.641-1.469-0.641c-0.563,0-0.987,0.227-1.273,0.68s-0.43,1.055-0.43,1.805
			c0,0.771,0.144,1.37,0.43,1.797C26.683,3.537,27.113,3.75,27.686,3.75z M33.596,4.5h-1.063v-9.125h1.063V4.5z M38.081-2.047
			c0.553,0,1.026,0.12,1.422,0.359c0.396,0.24,0.701,0.576,0.914,1.008c0.214,0.433,0.32,0.945,0.32,1.539v0.625h-4.406
			c0.021,0.729,0.209,1.284,0.563,1.664c0.354,0.381,0.85,0.57,1.484,0.57c0.417,0,0.781-0.039,1.094-0.117s0.641-0.185,0.984-0.32
			v0.922c-0.333,0.146-0.658,0.253-0.977,0.32c-0.317,0.068-0.7,0.102-1.148,0.102c-0.604,0-1.141-0.125-1.609-0.375
			s-0.833-0.619-1.094-1.109c-0.26-0.489-0.391-1.094-0.391-1.813c0-0.697,0.12-1.299,0.359-1.805c0.24-0.505,0.573-0.893,1-1.164
			C37.024-1.911,37.518-2.047,38.081-2.047z M38.065-1.188c-0.5,0-0.896,0.162-1.188,0.484c-0.291,0.323-0.463,0.771-0.516,1.344
			h3.266c0-0.541-0.125-0.981-0.375-1.32C39.003-1.018,38.607-1.188,38.065-1.188z M46.48,2.719c0,0.625-0.232,1.1-0.695,1.422
			c-0.464,0.323-1.087,0.484-1.867,0.484c-0.448,0-0.834-0.036-1.157-0.109c-0.322-0.072-0.609-0.172-0.859-0.297V3.25
			c0.261,0.125,0.57,0.242,0.93,0.352s0.727,0.164,1.102,0.164c0.542,0,0.933-0.086,1.173-0.258
			c0.239-0.172,0.358-0.403,0.358-0.695c0-0.156-0.044-0.297-0.133-0.422c-0.088-0.125-0.247-0.252-0.476-0.383
			c-0.229-0.13-0.553-0.273-0.97-0.43c-0.416-0.166-0.773-0.328-1.07-0.484s-0.525-0.346-0.688-0.57
			C41.967,0.3,41.886,0.01,41.886-0.344c0-0.541,0.222-0.961,0.665-1.258c0.442-0.297,1.028-0.445,1.757-0.445
			c0.386,0,0.748,0.037,1.086,0.109c0.339,0.073,0.659,0.178,0.962,0.313l-0.36,0.844c-0.271-0.114-0.555-0.211-0.852-0.289
			s-0.602-0.117-0.913-0.117c-0.438,0-0.769,0.07-0.992,0.211c-0.225,0.141-0.337,0.331-0.337,0.57c0,0.178,0.053,0.328,0.156,0.453
			c0.104,0.125,0.276,0.245,0.516,0.359c0.24,0.115,0.568,0.25,0.984,0.406c0.407,0.156,0.753,0.315,1.04,0.477
			c0.286,0.162,0.505,0.354,0.655,0.578C46.404,2.092,46.48,2.375,46.48,2.719z M58.081,0.125c0,1.448-0.396,2.539-1.188,3.273
			S55.003,4.5,53.596,4.5h-2.391v-8.563h2.641c0.864,0,1.614,0.159,2.25,0.477c0.636,0.318,1.125,0.787,1.469,1.406
			C57.909-1.56,58.081-0.791,58.081,0.125z M56.94,0.172c0-1.146-0.281-1.984-0.844-2.516s-1.364-0.797-2.406-0.797H52.3v6.719
			h1.156C55.779,3.578,56.94,2.443,56.94,0.172z M67.356,0.203c0,0.886-0.151,1.659-0.453,2.32
			c-0.302,0.662-0.745,1.178-1.328,1.547c-0.583,0.37-1.308,0.555-2.172,0.555c-0.886,0-1.622-0.185-2.211-0.555
			c-0.589-0.369-1.026-0.885-1.313-1.547c-0.286-0.661-0.43-1.439-0.43-2.336c0-0.875,0.144-1.641,0.43-2.297
			s0.724-1.169,1.313-1.539c0.589-0.369,1.331-0.555,2.227-0.555c0.854,0,1.573,0.183,2.156,0.547
			c0.583,0.365,1.026,0.878,1.328,1.539C67.205-1.455,67.356-0.682,67.356,0.203z M60.591,0.203c0,1.084,0.227,1.936,0.68,2.555
			c0.453,0.62,1.164,0.93,2.133,0.93c0.979,0,1.692-0.31,2.141-0.93c0.448-0.619,0.672-1.471,0.672-2.555
			c0-1.083-0.224-1.93-0.672-2.539S64.388-3.25,63.419-3.25s-1.683,0.305-2.141,0.914S60.591-0.88,60.591,0.203z M78.987-4.063
			L76.706,4.5h-1.094L73.956-1.11c-0.063-0.239-0.128-0.474-0.195-0.703c-0.067-0.229-0.12-0.435-0.156-0.617
			c-0.036-0.182-0.065-0.31-0.086-0.383c-0.011,0.104-0.052,0.328-0.125,0.672s-0.167,0.698-0.281,1.063L71.487,4.5h-1.094
			l-2.266-8.563h1.125l1.344,5.219c0.094,0.375,0.175,0.734,0.242,1.078s0.122,0.667,0.164,0.969
			c0.042-0.313,0.102-0.653,0.18-1.023c0.078-0.369,0.169-0.727,0.273-1.07l1.516-5.172h1.109l1.578,5.203
			c0.114,0.365,0.211,0.729,0.289,1.094c0.078,0.365,0.138,0.688,0.18,0.969c0.042-0.291,0.097-0.611,0.164-0.961
			c0.067-0.349,0.153-0.711,0.258-1.086l1.313-5.219H78.987z M86.98,4.5h-1.25L81.137-2.61H81.09
			c0.021,0.271,0.042,0.615,0.063,1.031c0.021,0.417,0.031,0.85,0.031,1.297V4.5h-1v-8.563h1.25l4.578,7.094h0.047
			c-0.01-0.135-0.021-0.33-0.031-0.586c-0.01-0.255-0.021-0.533-0.031-0.836c-0.01-0.302-0.016-0.583-0.016-0.844v-4.828h1V4.5z
			 M99.215-2.047c0.729,0,1.273,0.186,1.633,0.555c0.359,0.37,0.539,0.972,0.539,1.805V4.5h-1.047V0.359
			c0-1.01-0.438-1.516-1.313-1.516c-0.625,0-1.07,0.18-1.336,0.539s-0.398,0.883-0.398,1.57V4.5h-1.047V0.359
			c0-1.01-0.438-1.516-1.313-1.516c-0.656,0-1.107,0.198-1.352,0.594c-0.245,0.396-0.367,0.969-0.367,1.719V4.5h-1.063v-6.438h0.859
			l0.156,0.875h0.063c0.197-0.333,0.466-0.58,0.805-0.742c0.338-0.161,0.7-0.242,1.086-0.242c1.01,0,1.666,0.359,1.969,1.078h0.063
			c0.219-0.375,0.513-0.648,0.883-0.82C98.404-1.961,98.798-2.047,99.215-2.047z"/>
	</g>
	<g>
		
			<line fill="none" stroke="#0000FF" stroke-width="2.6389" stroke-linejoin="round" stroke-miterlimit="10" x1="388.986" y1="55.5" x2="428.436" y2="55.5"/>
	</g>
	<g transform="translate(431.425,73)">
		<path d="M6.031,2.203c0,0.761-0.276,1.354-0.828,1.781C4.651,4.412,3.906,4.625,2.969,4.625c-0.479,0-0.924-0.036-1.336-0.109
			C1.221,4.443,0.881,4.344,0.609,4.219V3.187c0.292,0.125,0.651,0.24,1.078,0.344c0.428,0.104,0.87,0.156,1.328,0.156
			c0.636,0,1.115-0.125,1.438-0.375c0.323-0.25,0.484-0.588,0.484-1.016c0-0.271-0.06-0.502-0.18-0.695
			C4.638,1.409,4.432,1.229,4.14,1.062C3.849,0.896,3.443,0.724,2.922,0.547C2.203,0.276,1.656-0.052,1.281-0.438
			C0.906-0.823,0.719-1.344,0.719-2c0-0.458,0.117-0.849,0.352-1.172c0.234-0.322,0.558-0.572,0.969-0.75
			c0.412-0.177,0.883-0.266,1.414-0.266c0.469,0,0.901,0.045,1.297,0.133C5.146-3.966,5.5-3.849,5.812-3.703L5.484-2.781
			c-0.291-0.125-0.611-0.231-0.961-0.32C4.175-3.19,3.812-3.235,3.437-3.235c-0.541,0-0.947,0.112-1.219,0.336
			C1.948-2.674,1.812-2.369,1.812-1.985c0,0.281,0.061,0.519,0.18,0.711c0.12,0.193,0.315,0.365,0.586,0.516
			c0.271,0.151,0.641,0.315,1.109,0.492c0.5,0.188,0.925,0.386,1.273,0.594c0.35,0.209,0.615,0.461,0.797,0.758
			C5.94,1.383,6.031,1.756,6.031,2.203z M10.596-2.047c0.792,0,1.43,0.276,1.914,0.828c0.484,0.553,0.727,1.381,0.727,2.484
			c0,1.104-0.242,1.94-0.727,2.508c-0.484,0.568-1.128,0.852-1.93,0.852c-0.489,0-0.896-0.094-1.219-0.281S8.783,3.937,8.596,3.687
			H8.517c0.021,0.136,0.039,0.308,0.055,0.516c0.016,0.209,0.023,0.386,0.023,0.531v2.641H7.533v-9.313h0.875l0.141,0.875h0.047
			c0.188-0.271,0.438-0.502,0.75-0.695C9.658-1.95,10.075-2.047,10.596-2.047z M10.408-1.156c-0.656,0-1.12,0.183-1.391,0.547
			C8.747-0.244,8.606,0.312,8.596,1.062v0.203c0,0.792,0.13,1.404,0.391,1.836C9.247,3.534,9.725,3.75,10.424,3.75
			c0.396,0,0.719-0.109,0.969-0.328s0.438-0.513,0.563-0.883c0.125-0.369,0.188-0.794,0.188-1.273c0-0.739-0.141-1.328-0.422-1.766
			S11.002-1.156,10.408-1.156z M15.381-4.344c0.156,0,0.297,0.055,0.422,0.164s0.188,0.279,0.188,0.508
			c0,0.219-0.063,0.386-0.188,0.5C15.678-3.057,15.537-3,15.381-3c-0.177,0-0.325-0.057-0.445-0.172
			c-0.12-0.114-0.18-0.281-0.18-0.5c0-0.229,0.06-0.398,0.18-0.508S15.204-4.344,15.381-4.344z M15.896-1.938V4.5h-1.063v-6.438
			H15.896z M20.99-2.047c0.771,0,1.352,0.186,1.742,0.555c0.391,0.37,0.586,0.972,0.586,1.805V4.5h-1.031V0.39
			c0-1.031-0.484-1.547-1.453-1.547c-0.708,0-1.197,0.198-1.469,0.594c-0.271,0.396-0.406,0.969-0.406,1.719V4.5h-1.063v-6.438
			h0.859l0.156,0.875h0.063c0.209-0.333,0.495-0.58,0.859-0.742C20.199-1.966,20.584-2.047,20.99-2.047z M27.514,4.625
			c-0.802,0-1.442-0.278-1.922-0.836c-0.479-0.557-0.719-1.388-0.719-2.492c0-1.104,0.242-1.938,0.727-2.5s1.128-0.844,1.93-0.844
			c0.5,0,0.906,0.092,1.219,0.273c0.313,0.183,0.567,0.404,0.766,0.664h0.078c-0.011-0.104-0.026-0.258-0.047-0.461
			s-0.031-0.361-0.031-0.477v-2.578h1.063V4.5h-0.844L29.577,3.64h-0.063c-0.188,0.271-0.44,0.503-0.758,0.695
			C28.439,4.529,28.025,4.625,27.514,4.625z M27.686,3.75c0.677,0,1.153-0.188,1.43-0.563S29.53,2.25,29.53,1.5V1.312
			c0-0.802-0.13-1.416-0.391-1.844c-0.261-0.427-0.75-0.641-1.469-0.641c-0.563,0-0.987,0.227-1.273,0.68s-0.43,1.055-0.43,1.805
			c0,0.771,0.144,1.37,0.43,1.797C26.683,3.537,27.113,3.75,27.686,3.75z M33.596,4.5h-1.063v-9.125h1.063V4.5z M38.081-2.047
			c0.553,0,1.026,0.12,1.422,0.359c0.396,0.24,0.701,0.576,0.914,1.008c0.214,0.433,0.32,0.945,0.32,1.539v0.625h-4.406
			c0.021,0.729,0.209,1.284,0.563,1.664c0.354,0.381,0.85,0.57,1.484,0.57c0.417,0,0.781-0.039,1.094-0.117s0.641-0.185,0.984-0.32
			v0.922c-0.333,0.146-0.658,0.253-0.977,0.32c-0.317,0.068-0.7,0.102-1.148,0.102c-0.604,0-1.141-0.125-1.609-0.375
			s-0.833-0.619-1.094-1.109c-0.26-0.489-0.391-1.094-0.391-1.813c0-0.697,0.12-1.299,0.359-1.805c0.24-0.505,0.573-0.893,1-1.164
			C37.024-1.911,37.518-2.047,38.081-2.047z M38.065-1.188c-0.5,0-0.896,0.162-1.188,0.484c-0.291,0.323-0.463,0.771-0.516,1.344
			h3.266c0-0.541-0.125-0.981-0.375-1.32C39.003-1.018,38.607-1.188,38.065-1.188z M46.48,2.719c0,0.625-0.232,1.1-0.695,1.422
			c-0.464,0.323-1.087,0.484-1.867,0.484c-0.448,0-0.834-0.036-1.157-0.109c-0.322-0.072-0.609-0.172-0.859-0.297V3.25
			c0.261,0.125,0.57,0.242,0.93,0.352s0.727,0.164,1.102,0.164c0.542,0,0.933-0.086,1.173-0.258
			c0.239-0.172,0.358-0.403,0.358-0.695c0-0.156-0.044-0.297-0.133-0.422c-0.088-0.125-0.247-0.252-0.476-0.383
			c-0.229-0.13-0.553-0.273-0.97-0.43c-0.416-0.166-0.773-0.328-1.07-0.484s-0.525-0.346-0.688-0.57
			C41.967,0.3,41.886,0.01,41.886-0.344c0-0.541,0.222-0.961,0.665-1.258c0.442-0.297,1.028-0.445,1.757-0.445
			c0.386,0,0.748,0.037,1.086,0.109c0.339,0.073,0.659,0.178,0.962,0.313l-0.36,0.844c-0.271-0.114-0.555-0.211-0.852-0.289
			s-0.602-0.117-0.913-0.117c-0.438,0-0.769,0.07-0.992,0.211c-0.225,0.141-0.337,0.331-0.337,0.57c0,0.178,0.053,0.328,0.156,0.453
			c0.104,0.125,0.276,0.245,0.516,0.359c0.24,0.115,0.568,0.25,0.984,0.406c0.407,0.156,0.753,0.315,1.04,0.477
			c0.286,0.162,0.505,0.354,0.655,0.578C46.404,2.092,46.48,2.375,46.48,2.719z M58.081,0.125c0,1.448-0.396,2.539-1.188,3.273
			S55.003,4.5,53.596,4.5h-2.391v-8.563h2.641c0.864,0,1.614,0.159,2.25,0.477c0.636,0.318,1.125,0.787,1.469,1.406
			C57.909-1.56,58.081-0.791,58.081,0.125z M56.94,0.172c0-1.146-0.281-1.984-0.844-2.516s-1.364-0.797-2.406-0.797H52.3v6.719
			h1.156C55.779,3.578,56.94,2.443,56.94,0.172z M67.356,0.203c0,0.886-0.151,1.659-0.453,2.32
			c-0.302,0.662-0.745,1.178-1.328,1.547c-0.583,0.37-1.308,0.555-2.172,0.555c-0.886,0-1.622-0.185-2.211-0.555
			c-0.589-0.369-1.026-0.885-1.313-1.547c-0.286-0.661-0.43-1.439-0.43-2.336c0-0.875,0.144-1.641,0.43-2.297
			s0.724-1.169,1.313-1.539c0.589-0.369,1.331-0.555,2.227-0.555c0.854,0,1.573,0.183,2.156,0.547
			c0.583,0.365,1.026,0.878,1.328,1.539C67.205-1.455,67.356-0.682,67.356,0.203z M60.591,0.203c0,1.084,0.227,1.936,0.68,2.555
			c0.453,0.62,1.164,0.93,2.133,0.93c0.979,0,1.692-0.31,2.141-0.93c0.448-0.619,0.672-1.471,0.672-2.555
			c0-1.083-0.224-1.93-0.672-2.539S64.388-3.25,63.419-3.25s-1.683,0.305-2.141,0.914S60.591-0.88,60.591,0.203z M78.987-4.063
			L76.706,4.5h-1.094L73.956-1.11c-0.063-0.239-0.128-0.474-0.195-0.703c-0.067-0.229-0.12-0.435-0.156-0.617
			c-0.036-0.182-0.065-0.31-0.086-0.383c-0.011,0.104-0.052,0.328-0.125,0.672s-0.167,0.698-0.281,1.063L71.487,4.5h-1.094
			l-2.266-8.563h1.125l1.344,5.219c0.094,0.375,0.175,0.734,0.242,1.078s0.122,0.667,0.164,0.969
			c0.042-0.313,0.102-0.653,0.18-1.023c0.078-0.369,0.169-0.727,0.273-1.07l1.516-5.172h1.109l1.578,5.203
			c0.114,0.365,0.211,0.729,0.289,1.094c0.078,0.365,0.138,0.688,0.18,0.969c0.042-0.291,0.097-0.611,0.164-0.961
			c0.067-0.349,0.153-0.711,0.258-1.086l1.313-5.219H78.987z M86.98,4.5h-1.25L81.137-2.61H81.09
			c0.021,0.271,0.042,0.615,0.063,1.031c0.021,0.417,0.031,0.85,0.031,1.297V4.5h-1v-8.563h1.25l4.578,7.094h0.047
			c-0.01-0.135-0.021-0.33-0.031-0.586c-0.01-0.255-0.021-0.533-0.031-0.836c-0.01-0.302-0.016-0.583-0.016-0.844v-4.828h1V4.5z
			 M95.246-2.047c0.771,0,1.352,0.186,1.742,0.555c0.391,0.37,0.586,0.972,0.586,1.805V4.5h-1.031V0.39
			c0-1.031-0.484-1.547-1.453-1.547c-0.709,0-1.198,0.198-1.469,0.594c-0.271,0.396-0.406,0.969-0.406,1.719V4.5h-1.063v-6.438
			h0.859l0.156,0.875h0.063c0.208-0.333,0.494-0.58,0.859-0.742C94.454-1.966,94.84-2.047,95.246-2.047z M105.082,1.265
			c0,1.073-0.271,1.901-0.813,2.484c-0.541,0.584-1.271,0.875-2.188,0.875c-0.563,0-1.067-0.13-1.516-0.391
			c-0.447-0.26-0.799-0.641-1.055-1.141c-0.255-0.5-0.383-1.109-0.383-1.828c0-1.063,0.269-1.88,0.805-2.453
			c0.537-0.572,1.264-0.859,2.18-0.859c0.594,0,1.112,0.131,1.555,0.391c0.443,0.261,0.789,0.636,1.039,1.125
			C104.957-0.041,105.082,0.557,105.082,1.265z M100.222,1.265c0,0.761,0.151,1.365,0.453,1.813
			c0.303,0.448,0.781,0.672,1.438,0.672c0.646,0,1.12-0.224,1.422-0.672c0.303-0.447,0.453-1.052,0.453-1.813
			c0-0.76-0.15-1.354-0.453-1.781c-0.302-0.427-0.781-0.641-1.438-0.641s-1.133,0.214-1.43,0.641
			C100.371-0.088,100.222,0.506,100.222,1.265z M112.264,1.265c0,1.073-0.271,1.901-0.813,2.484
			c-0.542,0.584-1.271,0.875-2.188,0.875c-0.563,0-1.067-0.13-1.516-0.391c-0.448-0.26-0.8-0.641-1.055-1.141
			s-0.383-1.109-0.383-1.828c0-1.063,0.269-1.88,0.805-2.453c0.536-0.572,1.263-0.859,2.18-0.859c0.594,0,1.112,0.131,1.555,0.391
			c0.442,0.261,0.789,0.636,1.039,1.125C112.139-0.041,112.264,0.557,112.264,1.265z M107.405,1.265c0,0.761,0.15,1.365,0.453,1.813
			c0.302,0.448,0.781,0.672,1.438,0.672c0.646,0,1.12-0.224,1.422-0.672c0.302-0.447,0.453-1.052,0.453-1.813
			c0-0.76-0.151-1.354-0.453-1.781c-0.302-0.427-0.781-0.641-1.438-0.641s-1.133,0.214-1.43,0.641
			C107.554-0.088,107.405,0.506,107.405,1.265z M116.946-2.047c0.771,0,1.352,0.186,1.742,0.555c0.391,0.37,0.586,0.972,0.586,1.805
			V4.5h-1.031V0.39c0-1.031-0.484-1.547-1.453-1.547c-0.708,0-1.197,0.198-1.469,0.594c-0.271,0.396-0.406,0.969-0.406,1.719V4.5
			h-1.063v-6.438h0.859l0.156,0.875h0.063c0.209-0.333,0.495-0.58,0.859-0.742C116.155-1.966,116.54-2.047,116.946-2.047z"/>
	</g>
	<g>
		
			<line fill="none" stroke="#FF0000" stroke-width="2.6389" stroke-linejoin="round" stroke-miterlimit="10" x1="388.986" y1="73" x2="428.436" y2="73"/>
	</g>
	<g transform="translate(431.425,90.5)">
		<path d="M6.031,2.203c0,0.761-0.276,1.354-0.828,1.781C4.651,4.412,3.906,4.625,2.969,4.625c-0.479,0-0.924-0.036-1.336-0.109
			C1.221,4.443,0.881,4.344,0.609,4.219V3.187c0.292,0.125,0.651,0.24,1.078,0.344c0.428,0.104,0.87,0.156,1.328,0.156
			c0.636,0,1.115-0.125,1.438-0.375c0.323-0.25,0.484-0.588,0.484-1.016c0-0.271-0.06-0.502-0.18-0.695
			C4.638,1.409,4.432,1.229,4.14,1.062C3.849,0.896,3.443,0.724,2.922,0.547C2.203,0.276,1.656-0.052,1.281-0.438
			C0.906-0.823,0.719-1.344,0.719-2c0-0.458,0.117-0.849,0.352-1.172c0.234-0.322,0.558-0.572,0.969-0.75
			c0.412-0.177,0.883-0.266,1.414-0.266c0.469,0,0.901,0.045,1.297,0.133C5.146-3.966,5.5-3.849,5.812-3.703L5.484-2.781
			c-0.291-0.125-0.611-0.231-0.961-0.32C4.175-3.19,3.812-3.235,3.437-3.235c-0.541,0-0.947,0.112-1.219,0.336
			C1.948-2.674,1.812-2.369,1.812-1.985c0,0.281,0.061,0.519,0.18,0.711c0.12,0.193,0.315,0.365,0.586,0.516
			c0.271,0.151,0.641,0.315,1.109,0.492c0.5,0.188,0.925,0.386,1.273,0.594c0.35,0.209,0.615,0.461,0.797,0.758
			C5.94,1.383,6.031,1.756,6.031,2.203z M10.596-2.047c0.792,0,1.43,0.276,1.914,0.828c0.484,0.553,0.727,1.381,0.727,2.484
			c0,1.104-0.242,1.94-0.727,2.508c-0.484,0.568-1.128,0.852-1.93,0.852c-0.489,0-0.896-0.094-1.219-0.281S8.783,3.937,8.596,3.687
			H8.517c0.021,0.136,0.039,0.308,0.055,0.516c0.016,0.209,0.023,0.386,0.023,0.531v2.641H7.533v-9.313h0.875l0.141,0.875h0.047
			c0.188-0.271,0.438-0.502,0.75-0.695C9.658-1.95,10.075-2.047,10.596-2.047z M10.408-1.156c-0.656,0-1.12,0.183-1.391,0.547
			C8.747-0.244,8.606,0.312,8.596,1.062v0.203c0,0.792,0.13,1.404,0.391,1.836C9.247,3.534,9.725,3.75,10.424,3.75
			c0.396,0,0.719-0.109,0.969-0.328s0.438-0.513,0.563-0.883c0.125-0.369,0.188-0.794,0.188-1.273c0-0.739-0.141-1.328-0.422-1.766
			S11.002-1.156,10.408-1.156z M15.381-4.344c0.156,0,0.297,0.055,0.422,0.164s0.188,0.279,0.188,0.508
			c0,0.219-0.063,0.386-0.188,0.5C15.678-3.057,15.537-3,15.381-3c-0.177,0-0.325-0.057-0.445-0.172
			c-0.12-0.114-0.18-0.281-0.18-0.5c0-0.229,0.06-0.398,0.18-0.508S15.204-4.344,15.381-4.344z M15.896-1.938V4.5h-1.063v-6.438
			H15.896z M20.99-2.047c0.771,0,1.352,0.186,1.742,0.555c0.391,0.37,0.586,0.972,0.586,1.805V4.5h-1.031V0.39
			c0-1.031-0.484-1.547-1.453-1.547c-0.708,0-1.197,0.198-1.469,0.594c-0.271,0.396-0.406,0.969-0.406,1.719V4.5h-1.063v-6.438
			h0.859l0.156,0.875h0.063c0.209-0.333,0.495-0.58,0.859-0.742C20.199-1.966,20.584-2.047,20.99-2.047z M27.514,4.625
			c-0.802,0-1.442-0.278-1.922-0.836c-0.479-0.557-0.719-1.388-0.719-2.492c0-1.104,0.242-1.938,0.727-2.5s1.128-0.844,1.93-0.844
			c0.5,0,0.906,0.092,1.219,0.273c0.313,0.183,0.567,0.404,0.766,0.664h0.078c-0.011-0.104-0.026-0.258-0.047-0.461
			s-0.031-0.361-0.031-0.477v-2.578h1.063V4.5h-0.844L29.577,3.64h-0.063c-0.188,0.271-0.44,0.503-0.758,0.695
			C28.439,4.529,28.025,4.625,27.514,4.625z M27.686,3.75c0.677,0,1.153-0.188,1.43-0.563S29.53,2.25,29.53,1.5V1.312
			c0-0.802-0.13-1.416-0.391-1.844c-0.261-0.427-0.75-0.641-1.469-0.641c-0.563,0-0.987,0.227-1.273,0.68s-0.43,1.055-0.43,1.805
			c0,0.771,0.144,1.37,0.43,1.797C26.683,3.537,27.113,3.75,27.686,3.75z M33.596,4.5h-1.063v-9.125h1.063V4.5z M38.081-2.047
			c0.553,0,1.026,0.12,1.422,0.359c0.396,0.24,0.701,0.576,0.914,1.008c0.214,0.433,0.32,0.945,0.32,1.539v0.625h-4.406
			c0.021,0.729,0.209,1.284,0.563,1.664c0.354,0.381,0.85,0.57,1.484,0.57c0.417,0,0.781-0.039,1.094-0.117s0.641-0.185,0.984-0.32
			v0.922c-0.333,0.146-0.658,0.253-0.977,0.32c-0.317,0.068-0.7,0.102-1.148,0.102c-0.604,0-1.141-0.125-1.609-0.375
			s-0.833-0.619-1.094-1.109c-0.26-0.489-0.391-1.094-0.391-1.813c0-0.697,0.12-1.299,0.359-1.805c0.24-0.505,0.573-0.893,1-1.164
			C37.024-1.911,37.518-2.047,38.081-2.047z M38.065-1.188c-0.5,0-0.896,0.162-1.188,0.484c-0.291,0.323-0.463,0.771-0.516,1.344
			h3.266c0-0.541-0.125-0.981-0.375-1.32C39.003-1.018,38.607-1.188,38.065-1.188z M46.48,2.719c0,0.625-0.232,1.1-0.695,1.422
			c-0.464,0.323-1.087,0.484-1.867,0.484c-0.448,0-0.834-0.036-1.157-0.109c-0.322-0.072-0.609-0.172-0.859-0.297V3.25
			c0.261,0.125,0.57,0.242,0.93,0.352s0.727,0.164,1.102,0.164c0.542,0,0.933-0.086,1.173-0.258
			c0.239-0.172,0.358-0.403,0.358-0.695c0-0.156-0.044-0.297-0.133-0.422c-0.088-0.125-0.247-0.252-0.476-0.383
			c-0.229-0.13-0.553-0.273-0.97-0.43c-0.416-0.166-0.773-0.328-1.07-0.484s-0.525-0.346-0.688-0.57
			C41.967,0.3,41.886,0.01,41.886-0.344c0-0.541,0.222-0.961,0.665-1.258c0.442-0.297,1.028-0.445,1.757-0.445
			c0.386,0,0.748,0.037,1.086,0.109c0.339,0.073,0.659,0.178,0.962,0.313l-0.36,0.844c-0.271-0.114-0.555-0.211-0.852-0.289
			s-0.602-0.117-0.913-0.117c-0.438,0-0.769,0.07-0.992,0.211c-0.225,0.141-0.337,0.331-0.337,0.57c0,0.178,0.053,0.328,0.156,0.453
			c0.104,0.125,0.276,0.245,0.516,0.359c0.24,0.115,0.568,0.25,0.984,0.406c0.407,0.156,0.753,0.315,1.04,0.477
			c0.286,0.162,0.505,0.354,0.655,0.578C46.404,2.092,46.48,2.375,46.48,2.719z M58.081,0.125c0,1.448-0.396,2.539-1.188,3.273
			S55.003,4.5,53.596,4.5h-2.391v-8.563h2.641c0.864,0,1.614,0.159,2.25,0.477c0.636,0.318,1.125,0.787,1.469,1.406
			C57.909-1.56,58.081-0.791,58.081,0.125z M56.94,0.172c0-1.146-0.281-1.984-0.844-2.516s-1.364-0.797-2.406-0.797H52.3v6.719
			h1.156C55.779,3.578,56.94,2.443,56.94,0.172z M67.356,0.203c0,0.886-0.151,1.659-0.453,2.32
			c-0.302,0.662-0.745,1.178-1.328,1.547c-0.583,0.37-1.308,0.555-2.172,0.555c-0.886,0-1.622-0.185-2.211-0.555
			c-0.589-0.369-1.026-0.885-1.313-1.547c-0.286-0.661-0.43-1.439-0.43-2.336c0-0.875,0.144-1.641,0.43-2.297
			s0.724-1.169,1.313-1.539c0.589-0.369,1.331-0.555,2.227-0.555c0.854,0,1.573,0.183,2.156,0.547
			c0.583,0.365,1.026,0.878,1.328,1.539C67.205-1.455,67.356-0.682,67.356,0.203z M60.591,0.203c0,1.084,0.227,1.936,0.68,2.555
			c0.453,0.62,1.164,0.93,2.133,0.93c0.979,0,1.692-0.31,2.141-0.93c0.448-0.619,0.672-1.471,0.672-2.555
			c0-1.083-0.224-1.93-0.672-2.539S64.388-3.25,63.419-3.25s-1.683,0.305-2.141,0.914S60.591-0.88,60.591,0.203z M78.987-4.063
			L76.706,4.5h-1.094L73.956-1.11c-0.063-0.239-0.128-0.474-0.195-0.703c-0.067-0.229-0.12-0.435-0.156-0.617
			c-0.036-0.182-0.065-0.31-0.086-0.383c-0.011,0.104-0.052,0.328-0.125,0.672s-0.167,0.698-0.281,1.063L71.487,4.5h-1.094
			l-2.266-8.563h1.125l1.344,5.219c0.094,0.375,0.175,0.734,0.242,1.078s0.122,0.667,0.164,0.969
			c0.042-0.313,0.102-0.653,0.18-1.023c0.078-0.369,0.169-0.727,0.273-1.07l1.516-5.172h1.109l1.578,5.203
			c0.114,0.365,0.211,0.729,0.289,1.094c0.078,0.365,0.138,0.688,0.18,0.969c0.042-0.291,0.097-0.611,0.164-0.961
			c0.067-0.349,0.153-0.711,0.258-1.086l1.313-5.219H78.987z M86.98,4.5h-1.25L81.137-2.61H81.09
			c0.021,0.271,0.042,0.615,0.063,1.031c0.021,0.417,0.031,0.85,0.031,1.297V4.5h-1v-8.563h1.25l4.578,7.094h0.047
			c-0.01-0.135-0.021-0.33-0.031-0.586c-0.01-0.255-0.021-0.533-0.031-0.836c-0.01-0.302-0.016-0.583-0.016-0.844v-4.828h1V4.5z
			 M96.34,2.719c0,0.625-0.232,1.1-0.695,1.422c-0.464,0.323-1.086,0.484-1.867,0.484c-0.448,0-0.834-0.036-1.156-0.109
			c-0.323-0.072-0.609-0.172-0.859-0.297V3.25c0.26,0.125,0.57,0.242,0.93,0.352s0.727,0.164,1.102,0.164
			c0.541,0,0.932-0.086,1.172-0.258c0.239-0.172,0.359-0.403,0.359-0.695c0-0.156-0.045-0.297-0.133-0.422
			c-0.089-0.125-0.248-0.252-0.477-0.383c-0.229-0.13-0.553-0.273-0.969-0.43c-0.417-0.166-0.773-0.328-1.07-0.484
			s-0.526-0.346-0.688-0.57C91.826,0.3,91.746,0.01,91.746-0.344c0-0.541,0.221-0.961,0.664-1.258
			c0.442-0.297,1.028-0.445,1.758-0.445c0.385,0,0.747,0.037,1.086,0.109c0.338,0.073,0.658,0.178,0.961,0.313l-0.359,0.844
			c-0.271-0.114-0.555-0.211-0.852-0.289s-0.602-0.117-0.914-0.117c-0.438,0-0.769,0.07-0.992,0.211
			c-0.225,0.141-0.336,0.331-0.336,0.57c0,0.178,0.052,0.328,0.156,0.453c0.104,0.125,0.275,0.245,0.516,0.359
			c0.239,0.115,0.567,0.25,0.984,0.406c0.406,0.156,0.752,0.315,1.039,0.477c0.286,0.162,0.505,0.354,0.656,0.578
			C96.263,2.092,96.34,2.375,96.34,2.719z M103.432,1.265c0,1.073-0.271,1.901-0.813,2.484c-0.542,0.584-1.271,0.875-2.188,0.875
			c-0.563,0-1.068-0.13-1.516-0.391c-0.448-0.26-0.8-0.641-1.055-1.141c-0.256-0.5-0.383-1.109-0.383-1.828
			c0-1.063,0.268-1.88,0.805-2.453c0.536-0.572,1.263-0.859,2.18-0.859c0.594,0,1.111,0.131,1.554,0.391
			c0.443,0.261,0.79,0.636,1.04,1.125C103.307-0.041,103.432,0.557,103.432,1.265z M98.572,1.265c0,0.761,0.151,1.365,0.454,1.813
			c0.302,0.448,0.781,0.672,1.438,0.672c0.646,0,1.119-0.224,1.421-0.672c0.303-0.447,0.454-1.052,0.454-1.813
			c0-0.76-0.151-1.354-0.454-1.781c-0.302-0.427-0.78-0.641-1.438-0.641c-0.655,0-1.132,0.214-1.43,0.641
			C98.721-0.088,98.572,0.506,98.572,1.265z M105.567-4.344c0.156,0,0.297,0.055,0.422,0.164s0.188,0.279,0.188,0.508
			c0,0.219-0.063,0.386-0.188,0.5C105.864-3.057,105.723-3,105.567-3c-0.177,0-0.325-0.057-0.445-0.172
			c-0.12-0.114-0.18-0.281-0.18-0.5c0-0.229,0.06-0.398,0.18-0.508S105.39-4.344,105.567-4.344z M106.083-1.938V4.5h-1.063v-6.438
			H106.083z M111.083-2.047c0.125,0,0.258,0.006,0.398,0.016c0.141,0.011,0.264,0.026,0.367,0.047l-0.141,0.969
			c-0.104-0.021-0.219-0.039-0.344-0.055s-0.239-0.023-0.344-0.023c-0.333,0-0.643,0.092-0.93,0.273
			c-0.286,0.183-0.516,0.436-0.688,0.758c-0.172,0.323-0.258,0.698-0.258,1.125V4.5h-1.063v-6.438h0.875l0.109,1.188h0.047
			c0.209-0.354,0.477-0.658,0.805-0.914C110.247-1.919,110.636-2.047,111.083-2.047z"/>
	</g>
	<g>
		
			<line fill="none" stroke="#000000" stroke-width="2.6389" stroke-linejoin="round" stroke-miterlimit="10" x1="388.986" y1="90.5" x2="428.436" y2="90.5"/>
	</g>
	<g>
		<path fill="none" stroke="#262626" stroke-width="0.6597" stroke-miterlimit="10" d="M385,101V45h171v56H385z"/>
	</g>
</g>
</svg>
