<?xml version="1.0" encoding="utf-8"?>
<!-- Generator: Adobe Illustrator 16.0.0, SVG Export Plug-In . SVG Version: 6.00 Build 0)  -->
<!DOCTYPE svg PUBLIC "-//W3C//DTD SVG 1.1//EN" "http://www.w3.org/Graphics/SVG/1.1/DTD/svg11.dtd">
<svg version="1.1" id="Layer_1" xmlns="http://www.w3.org/2000/svg" xmlns:xlink="http://www.w3.org/1999/xlink" x="0px" y="0px"
	 width="560px" height="420px" viewBox="0 0 560 420" enable-background="new 0 0 560 420" xml:space="preserve">
<g>
	
		<line fill="none" stroke="#262626" stroke-width="0.6597" stroke-linecap="square" stroke-linejoin="round" stroke-miterlimit="10" x1="73" y1="373" x2="480.5" y2="373"/>
	
		<line fill="none" stroke="#262626" stroke-width="0.6597" stroke-linecap="square" stroke-linejoin="round" stroke-miterlimit="10" x1="73" y1="373" x2="73" y2="368.66"/>
	
		<line fill="none" stroke="#262626" stroke-width="0.6597" stroke-linecap="square" stroke-linejoin="round" stroke-miterlimit="10" x1="135" y1="373" x2="135" y2="368.66"/>
	
		<line fill="none" stroke="#262626" stroke-width="0.6597" stroke-linecap="square" stroke-linejoin="round" stroke-miterlimit="10" x1="197" y1="373" x2="197" y2="368.66"/>
	
		<line fill="none" stroke="#262626" stroke-width="0.6597" stroke-linecap="square" stroke-linejoin="round" stroke-miterlimit="10" x1="259" y1="373" x2="259" y2="368.66"/>
	
		<line fill="none" stroke="#262626" stroke-width="0.6597" stroke-linecap="square" stroke-linejoin="round" stroke-miterlimit="10" x1="321" y1="373" x2="321" y2="368.66"/>
	
		<line fill="none" stroke="#262626" stroke-width="0.6597" stroke-linecap="square" stroke-linejoin="round" stroke-miterlimit="10" x1="383" y1="373" x2="383" y2="368.66"/>
	
		<line fill="none" stroke="#262626" stroke-width="0.6597" stroke-linecap="square" stroke-linejoin="round" stroke-miterlimit="10" x1="445" y1="373" x2="445" y2="368.66"/>
	
		<line fill="none" stroke="#262626" stroke-width="0.6597" stroke-linecap="square" stroke-linejoin="round" stroke-miterlimit="10" x1="73" y1="31" x2="73" y2="35.34"/>
	<g transform="translate(73,378.2778)">
		<text transform="matrix(1 0 0 1 -4 15.0005)" fill="#262626" font-family="'MyriadPro-Regular'" font-size="13.1944">5</text>
	</g>
	<g transform="translate(135,378.2778)">
		<text transform="matrix(1 0 0 1 -8 15.0005)" fill="#262626" font-family="'MyriadPro-Regular'" font-size="13.1944">10</text>
	</g>
	<g transform="translate(197,378.2778)">
		<text transform="matrix(1 0 0 1 -8 15.0005)" fill="#262626" font-family="'MyriadPro-Regular'" font-size="13.1944">15</text>
	</g>
	<g transform="translate(259,378.2778)">
		<text transform="matrix(1 0 0 1 -8 15.0005)" fill="#262626" font-family="'MyriadPro-Regular'" font-size="13.1944">20</text>
	</g>
	<g transform="translate(321,378.2778)">
		<text transform="matrix(1 0 0 1 -8 15.0005)" fill="#262626" font-family="'MyriadPro-Regular'" font-size="13.1944">25</text>
	</g>
	<g transform="translate(383,378.2778)">
		<text transform="matrix(1 0 0 1 -8 15.0005)" fill="#262626" font-family="'MyriadPro-Regular'" font-size="13.1944">30</text>
	</g>
	<g transform="translate(445,378.2778)">
		<text transform="matrix(1 0 0 1 -8 15.0005)" fill="#262626" font-family="'MyriadPro-Regular'" font-size="13.1944">35</text>
	</g>
	<g transform="translate(290.0002,398.5972)">
		<text transform="matrix(1 0 0 1 -50.0002 16.0005)" fill="#262626" font-family="'MyriadPro-Regular'" font-size="14.5139">Amplitude (µv)</text>
	</g>
	
		<line fill="none" stroke="#262626" stroke-width="0.6597" stroke-linecap="square" stroke-linejoin="round" stroke-miterlimit="10" x1="73" y1="373" x2="73" y2="31"/>
	
		<line fill="none" stroke="#262626" stroke-width="0.6597" stroke-linecap="square" stroke-linejoin="round" stroke-miterlimit="10" x1="73" y1="373" x2="77.34" y2="373"/>
	
		<line fill="none" stroke="#262626" stroke-width="0.6597" stroke-linecap="square" stroke-linejoin="round" stroke-miterlimit="10" x1="73" y1="304.6" x2="77.34" y2="304.6"/>
	
		<line fill="none" stroke="#262626" stroke-width="0.6597" stroke-linecap="square" stroke-linejoin="round" stroke-miterlimit="10" x1="73" y1="236.2" x2="77.34" y2="236.2"/>
	
		<line fill="none" stroke="#262626" stroke-width="0.6597" stroke-linecap="square" stroke-linejoin="round" stroke-miterlimit="10" x1="73" y1="167.8" x2="77.34" y2="167.8"/>
	
		<line fill="none" stroke="#262626" stroke-width="0.6597" stroke-linecap="square" stroke-linejoin="round" stroke-miterlimit="10" x1="73" y1="99.4" x2="77.34" y2="99.4"/>
	
		<line fill="none" stroke="#262626" stroke-width="0.6597" stroke-linecap="square" stroke-linejoin="round" stroke-miterlimit="10" x1="73" y1="31" x2="77.34" y2="31"/>
	<g transform="translate(67.7222,373)">
		<text transform="matrix(1 0 0 1 -8 5.5)" fill="#262626" font-family="'MyriadPro-Regular'" font-size="13.1944">0</text>
	</g>
	<g transform="translate(67.7222,304.6)">
		<text transform="matrix(1 0 0 1 -27 5.5006)" fill="#262626" font-family="'MyriadPro-Regular'" font-size="13.1944">0.05</text>
	</g>
	<g transform="translate(67.7222,236.2)">
		<text transform="matrix(1 0 0 1 -19 5.5002)" fill="#262626" font-family="'MyriadPro-Regular'" font-size="13.1944">0.1</text>
	</g>
	<g transform="translate(67.7222,167.8)">
		<text transform="matrix(1 0 0 1 -27 5.5008)" fill="#262626" font-family="'MyriadPro-Regular'" font-size="13.1944">0.15</text>
	</g>
	<g transform="translate(67.7222,99.4)">
		<text transform="matrix(1 0 0 1 -19 5.5004)" fill="#262626" font-family="'MyriadPro-Regular'" font-size="13.1944">0.2</text>
	</g>
	<g transform="translate(67.7222,31)">
		<text transform="matrix(1 0 0 1 -27 5.5)" fill="#262626" font-family="'MyriadPro-Regular'" font-size="13.1944">0.25</text>
	</g>
	<g transform="translate(36.7639,201.9998) rotate(-90)">
		<text transform="matrix(1 0 0 1 -37.0002 -5.0002)" fill="#262626" font-family="'MyriadPro-Regular'" font-size="14.5139">Probability</text>
	</g>
	<g>
		<path fill="none" stroke="#0000FF" stroke-width="2.6389" stroke-linejoin="round" stroke-miterlimit="10" d="M73.005,228.759
			l1.992-43.569l1.993-36.943l1.993-26.819l1.992-16.273l1.993-7.31l1.992-0.577l1.993,4.067l1.992,6.976l1.993,8.447l1.992,8.786
			l1.993,8.436l1.992,7.943l1.993,7.782l1.993,8.053l1.992,8.517l1.993,8.869l1.992,8.933l1.993,8.657l1.992,8.085l1.993,7.363
			l1.992,6.738l1.993,6.461l1.992,6.591l1.993,6.934l1.993,7.178l1.992,7.096l1.993,6.635l1.992,5.859l1.993,4.906l1.992,3.939
			l1.993,3.161l1.992,2.767l1.993,2.848l1.993,3.335l1.992,3.971l1.993,4.444l1.992,4.553l1.993,4.3l1.992,3.862l1.993,3.432
			l1.992,3.135l1.993,3.004l1.992,2.987l1.993,2.996l1.993,2.931l1.992,2.76l1.993,2.515l1.992,2.255l1.993,1.965l1.992,1.574
			l1.993,1.047l1.992,0.482l1.993,0.088l1.992,0.075l1.993,0.487l1.993,1.188l1.992,1.893l1.993,2.297l1.992,2.205l1.993,1.666
			l1.992,0.97l1.993,0.502l1.992,0.47l1.993,0.758l1.993,1.025l1.992,0.998l1.993,0.695l1.992,0.387l1.993,0.342l1.992,0.615
			l1.993,1.041l1.992,1.412l1.993,1.602l1.992,1.613l1.993,1.517l1.993,1.369l1.992,1.188l1.993,0.979l1.992,0.762l1.993,0.582
			l1.992,0.457l1.993,0.351l1.992,0.221l1.993,0.037l1.992-0.183l1.993-0.371l1.993-0.433l1.992-0.287l1.993,0.071l1.992,0.525
			l1.993,0.883l1.992,0.981l1.993,0.802l1.992,0.487l1.993,0.233l1.992,0.162l1.993,0.267l1.993,0.444l1.992,0.588l1.992,0.624
			l1.993,0.532l1.993,0.332l1.992,0.08l1.993-0.156l1.993-0.311l1.992-0.338l1.992-0.232l1.992-0.04l1.992,0.156l1.993,0.277
			l1.993,0.286l1.992,0.215l1.992,0.133l1.992,0.1l1.992,0.119l1.993,0.148l1.992,0.143l1.992,0.092l1.992,0.026l1.993-0.015
			l1.992-0.014l1.992,0.025l1.993,0.068l1.992,0.102l1.992,0.123l1.992,0.133l1.993,0.12l1.992,0.074l1.992,0.005l1.992-0.058
			l1.993-0.079l1.992-0.047l1.992,0.029l1.993,0.119l1.992,0.191l1.992,0.219l1.992,0.189l1.993,0.127l1.992,0.066l1.992,0.023
			l1.992,0.004l1.993-0.01l1.992-0.023l1.992-0.031l1.993-0.012l1.992,0.036l1.992,0.093l1.992,0.129l1.993,0.115l1.992,0.057
			l1.992-0.027l1.993-0.109l1.992-0.165l1.992-0.181l1.992-0.158l1.993-0.112l1.992-0.063l1.992-0.02l1.992,0.025l1.993,0.075
			l1.992,0.128l1.992,0.168l1.992,0.184l1.993,0.172l1.992,0.139l1.992,0.094l1.993,0.057l1.992,0.028l1.992,0.013l1.992,0.004
			l1.993,0.002h1.992h1.992h1.993h1.992h1.992h1.992h1.993l1.992-0.002l1.992-0.004l1.992-0.012l1.993-0.025l1.992-0.045
			l1.992-0.063l1.992-0.07l1.993-0.054l1.992-0.017l1.992,0.029l1.993,0.061l1.992,0.07l1.992,0.058l1.992,0.038l1.993,0.021
			l1.992,0.009l1.992,0.003l1.993,0.002h1.992h1.992h1.992"/>
		<path fill="none" stroke="#FF0000" stroke-width="2.6389" stroke-linejoin="round" stroke-miterlimit="10" d="M73.005,245.936
			l1.992-38.715L76.99,174.5l1.993-23.178l1.992-12.754l1.993-3.42l1.992,3.665l1.993,7.782l1.992,8.675l1.993,6.95l1.992,4.106
			l1.993,1.919l1.992,1.528l1.993,2.927l1.993,5.04l1.992,6.486l1.993,6.403l1.992,4.942l1.993,3.053l1.992,1.791l1.993,1.755
			l1.992,2.879l1.993,4.717l1.992,6.687l1.993,8.203l1.993,8.709l1.992,7.884l1.993,5.949l1.992,3.716l1.993,2.165l1.992,1.821
			l1.993,2.465l1.992,3.395l1.993,4.021l1.993,4.201l1.992,4.182l1.993,4.201l1.992,4.258l1.993,4.182l1.992,3.869l1.993,3.4
			l1.992,2.998l1.993,2.836l1.992,2.928l1.993,3.094l1.993,3.111l1.992,2.846l1.993,2.314l1.992,1.664l1.993,1.15l1.992,1.051
			l1.993,1.486l1.992,2.246l1.993,2.829l1.992,2.786l1.993,2.107l1.993,1.262l1.992,0.896l1.993,1.348l1.992,2.372l1.993,3.336
			l1.992,3.687l1.993,3.273l1.992,2.345l1.993,1.286l1.993,0.42l1.992-0.081l1.993-0.19l1.992-0.004l1.993,0.334l1.992,0.704
			l1.993,1.058l1.992,1.382l1.993,1.665l1.992,1.86l1.993,1.894l1.993,1.701l1.992,1.28l1.993,0.729l1.992,0.24l1.993,0.009
			l1.992,0.114l1.993,0.449l1.992,0.786l1.993,0.912l1.992,0.778l1.993,0.505l1.993,0.265l1.992,0.146l1.993,0.129l1.992,0.15
			l1.993,0.189l1.992,0.254l1.993,0.338l1.992,0.398l1.993,0.399l1.992,0.356l1.993,0.311l1.993,0.285l1.992,0.266l1.992,0.224
			l1.993,0.156l1.993,0.087l1.992,0.037l1.993,0.016l1.993,0.01l1.992,0.021l1.992,0.052l1.992,0.097l1.992,0.138l1.993,0.152
			l1.993,0.152l1.992,0.17l1.992,0.224l1.992,0.296l1.992,0.345l1.993,0.35l1.992,0.317l1.992,0.266l1.992,0.201l1.993,0.125
			l1.992,0.041l1.992-0.036l1.993-0.071l1.992-0.057l1.992-0.012l1.992,0.018l1.993,0.01l1.992-0.033l1.992-0.071l1.992-0.074
			l1.993-0.029l1.992,0.046l1.992,0.113l1.993,0.148l1.992,0.139l1.992,0.098l1.992,0.021l1.993-0.081l1.992-0.187l1.992-0.232
			l1.992-0.172l1.993-0.006l1.992,0.191l1.992,0.334l1.993,0.357l1.992,0.273l1.992,0.117l1.992-0.063l1.993-0.241l1.992-0.383
			l1.992-0.458l1.993-0.431l1.992-0.301l1.992-0.09l1.992,0.14l1.993,0.334l1.992,0.442l1.992,0.453l1.992,0.38l1.993,0.269
			l1.992,0.158l1.992,0.064l1.992-0.009l1.993-0.071l1.992-0.123l1.992-0.162l1.993-0.17l1.992-0.16l1.992-0.144l1.992-0.136
			l1.993-0.117l1.992-0.056l1.992,0.056l1.993,0.179l1.992,0.251l1.992,0.242l1.992,0.159l1.993,0.044l1.992-0.063l1.992-0.129
			l1.992-0.142l1.993-0.111l1.992-0.063l1.992-0.018l1.992,0.021l1.993,0.054l1.992,0.07l1.992,0.057l1.993,0.02l1.992-0.012
			l1.992-0.008l1.992,0.037l1.993,0.085l1.992,0.095l1.992,0.051l1.993-0.02l1.992-0.078l1.992-0.084l1.992-0.032"/>
		<path fill="none" stroke="#000000" stroke-width="2.6389" stroke-linejoin="round" stroke-miterlimit="10" d="M73.005,237.631
			l1.992-41.534l1.993-34.08l1.993-22.806l1.992-11.841l1.993-4.079l1.992-0.013l1.993,1.725l1.992,2.856l1.993,4.206l1.992,5.501
			l1.993,6.124l1.992,5.958l1.993,5.676l1.993,6.033l1.992,7.206l1.993,8.667l1.992,9.677l1.993,9.815l1.992,9.104l1.993,7.869
			l1.992,6.533l1.993,5.518l1.992,5.041l1.993,5.063l1.993,5.361l1.992,5.656l1.993,5.682l1.992,5.182l1.993,4.094l1.992,2.725
			l1.993,1.649l1.992,1.392l1.993,2.082l1.993,3.381l1.992,4.693l1.993,5.502l1.992,5.646l1.993,5.385l1.992,5.08l1.993,4.852
			l1.992,4.51l1.993,3.783l1.992,2.577l1.993,1.102l1.993-0.224l1.992-0.908l1.993-0.635l1.992,0.516l1.993,1.986l1.992,3.018
			l1.993,3.145l1.992,2.513l1.993,1.72l1.992,1.314l1.993,1.383l1.993,1.664l1.992,1.898l1.993,2.097l1.992,2.382l1.993,2.697
			l1.992,2.79l1.993,2.419l1.992,1.629l1.993,0.711l1.993-0.01l1.992-0.369l1.993-0.359l1.992-0.029l1.993,0.59l1.992,1.388
			l1.993,2.132l1.992,2.534l1.993,2.466l1.992,2.043l1.993,1.504l1.993,1.03l1.992,0.657l1.993,0.361l1.992,0.172l1.993,0.143
			l1.992,0.285l1.993,0.512l1.992,0.674l1.993,0.679l1.992,0.524l1.993,0.273l1.993-0.019l1.992-0.319l1.993-0.582l1.992-0.734
			l1.993-0.691l1.992-0.43l1.993-0.004l1.992,0.461l1.993,0.859l1.992,1.124l1.993,1.219l1.993,1.11l1.992,0.803l1.992,0.383
			l1.993-0.004l1.993-0.229l1.992-0.238l1.993-0.08l1.993,0.158l1.992,0.375l1.992,0.488l1.992,0.46l1.992,0.315l1.993,0.123
			l1.993-0.041l1.992-0.147l1.992-0.207l1.992-0.231l1.992-0.186l1.993-0.031l1.992,0.211l1.992,0.426l1.992,0.486l1.993,0.363
			l1.992,0.138l1.992-0.059l1.993-0.139l1.992-0.103l1.992-0.003l1.992,0.108l1.993,0.204l1.992,0.276l1.992,0.318l1.992,0.324
			l1.993,0.283l1.992,0.195l1.992,0.08l1.993-0.048l1.992-0.159l1.992-0.234l1.992-0.26l1.993-0.214l1.992-0.092l1.992,0.079
			l1.992,0.236l1.993,0.32l1.992,0.297l1.992,0.2l1.993,0.087l1.992,0.018l1.992,0.009l1.992,0.045l1.993,0.085l1.992,0.104
			l1.992,0.09l1.993,0.063l1.992,0.035l1.992,0.017l1.992,0.007l1.993,0.002h1.992h1.992h1.992h1.993h1.992h1.992h1.992h1.993h1.992
			h1.992h1.993h1.992h1.992h1.992h1.993h1.992h1.992h1.993h1.992h1.992h1.992h1.993h1.992l1.992-0.002l1.992-0.003l1.993-0.01
			l1.992-0.024l1.992-0.047l1.992-0.075l1.993-0.099l1.992-0.095l1.992-0.058l1.993,0.003l1.992,0.064l1.992,0.097l1.992,0.098
			l1.993,0.072l1.992,0.043l1.992,0.021l1.993,0.01l1.992,0.003l1.992,0.001h1.992"/>
	</g>
	<g>
		<path fill="#FFFFFF" d="M496,98V42H325v56H496z"/>
	</g>
	<g transform="translate(371.425,52.5)">
		<text transform="matrix(1 0 0 1 -1.831055e-004 4.5)" font-family="'MyriadPro-Regular'" font-size="11.875">Spindles DOWN m</text>
	</g>
	<g>
		
			<line fill="none" stroke="#0000FF" stroke-width="2.6389" stroke-linejoin="round" stroke-miterlimit="10" x1="328.986" y1="52.5" x2="368.436" y2="52.5"/>
	</g>
	<g transform="translate(371.425,70)">
		<text transform="matrix(1 0 0 1 -1.831055e-004 4.5)" font-family="'MyriadPro-Regular'" font-size="11.875">Spindles DOWN noon</text>
	</g>
	<g>
		
			<line fill="none" stroke="#FF0000" stroke-width="2.6389" stroke-linejoin="round" stroke-miterlimit="10" x1="328.986" y1="70" x2="368.436" y2="70"/>
	</g>
	<g transform="translate(371.425,87.5)">
		<text transform="matrix(1 0 0 1 -1.831055e-004 4.5)" font-family="'MyriadPro-Regular'" font-size="11.875">Spindles DOWN soir</text>
	</g>
	<g>
		
			<line fill="none" stroke="#000000" stroke-width="2.6389" stroke-linejoin="round" stroke-miterlimit="10" x1="328.986" y1="87.5" x2="368.436" y2="87.5"/>
	</g>
	<g>
		<path fill="none" stroke="#262626" stroke-width="0.6597" stroke-miterlimit="10" d="M325,98V42h171v56H325z"/>
	</g>
</g>
</svg>
