<?xml version="1.0" encoding="utf-8"?>
<!-- Generator: Adobe Illustrator 16.0.0, SVG Export Plug-In . SVG Version: 6.00 Build 0)  -->
<!DOCTYPE svg PUBLIC "-//W3C//DTD SVG 1.1//EN" "http://www.w3.org/Graphics/SVG/1.1/DTD/svg11.dtd">
<svg version="1.1" id="Layer_1" xmlns="http://www.w3.org/2000/svg" xmlns:xlink="http://www.w3.org/1999/xlink" x="0px" y="0px"
	 width="560px" height="449px" viewBox="0 0 560 449" enable-background="new 0 0 560 449" xml:space="preserve">
<g transform="translate(290.0003,31.25)">
	<path d="M-84.349-111.219c0,0.948-0.344,1.706-1.031,2.273c-0.688,0.568-1.662,0.852-2.922,0.852c-1.125,0-2.136-0.219-3.031-0.656
		v-2.109c0.51,0.219,1.039,0.422,1.586,0.609s1.091,0.281,1.632,0.281c0.552,0,0.946-0.109,1.18-0.328s0.352-0.489,0.352-0.813
		c0-0.271-0.091-0.502-0.273-0.695c-0.183-0.192-0.43-0.369-0.742-0.531c-0.313-0.161-0.667-0.341-1.063-0.539
		c-0.25-0.114-0.521-0.255-0.813-0.422c-0.292-0.166-0.57-0.372-0.836-0.617c-0.266-0.244-0.482-0.541-0.648-0.891
		c-0.167-0.349-0.25-0.768-0.25-1.258c0-0.958,0.325-1.705,0.977-2.242c0.651-0.536,1.534-0.805,2.648-0.805
		c0.563,0,1.096,0.065,1.602,0.195c0.505,0.131,1.034,0.315,1.586,0.555l-0.734,1.766c-0.49-0.197-0.93-0.352-1.32-0.461
		s-0.794-0.164-1.211-0.164c-0.427,0-0.755,0.1-0.984,0.297c-0.229,0.198-0.344,0.459-0.344,0.781c0,0.386,0.169,0.688,0.508,0.906
		c0.338,0.219,0.846,0.484,1.523,0.797c0.542,0.261,1.005,0.531,1.391,0.813c0.385,0.281,0.685,0.612,0.898,0.992
		C-84.456-112.252-84.349-111.781-84.349-111.219z M-73.244-116.594c0.938,0,1.643,0.237,2.117,0.711
		c0.474,0.475,0.711,1.237,0.711,2.289v5.344h-2.234v-4.781c0-1.188-0.412-1.781-1.234-1.781c-0.594,0-1.016,0.211-1.266,0.633
		s-0.375,1.029-0.375,1.82v4.109h-2.234v-4.781c0-1.188-0.406-1.781-1.219-1.781c-0.625,0-1.055,0.234-1.289,0.703
		s-0.352,1.136-0.352,2v3.859h-2.234v-8.188h1.703l0.313,1.047h0.109c0.25-0.416,0.594-0.721,1.031-0.914
		c0.438-0.192,0.891-0.289,1.359-0.289c0.594,0,1.102,0.1,1.523,0.297c0.422,0.198,0.742,0.5,0.961,0.906h0.203
		c0.25-0.416,0.596-0.721,1.039-0.914C-74.169-116.497-73.713-116.594-73.244-116.594z M-61.166-112.36
		c0,1.365-0.356,2.417-1.07,3.156c-0.714,0.74-1.685,1.109-2.915,1.109c-0.76,0-1.44-0.166-2.039-0.5
		c-0.599-0.333-1.068-0.817-1.407-1.453c-0.338-0.635-0.508-1.406-0.508-2.313c0-1.364,0.357-2.411,1.07-3.141
		c0.714-0.729,1.69-1.094,2.93-1.094c0.761,0,1.438,0.167,2.032,0.5c0.594,0.334,1.06,0.813,1.398,1.438
		C-61.335-114.031-61.166-113.266-61.166-112.36z M-66.822-112.36c0,0.813,0.133,1.425,0.398,1.836
		c0.265,0.412,0.7,0.617,1.305,0.617c0.583,0,1.007-0.205,1.273-0.617c0.266-0.411,0.399-1.023,0.399-1.836
		s-0.133-1.422-0.399-1.828c-0.266-0.406-0.695-0.609-1.289-0.609c-0.594,0-1.024,0.203-1.289,0.609
		C-66.689-113.781-66.822-113.172-66.822-112.36z M-52.184-112.36c0,1.365-0.356,2.417-1.07,3.156
		c-0.713,0.74-1.685,1.109-2.914,1.109c-0.76,0-1.44-0.166-2.039-0.5c-0.599-0.333-1.067-0.817-1.406-1.453
		c-0.338-0.635-0.508-1.406-0.508-2.313c0-1.364,0.357-2.411,1.07-3.141c0.714-0.729,1.69-1.094,2.93-1.094
		c0.761,0,1.438,0.167,2.031,0.5c0.594,0.334,1.06,0.813,1.398,1.438C-52.353-114.031-52.184-113.266-52.184-112.36z M-57.84-112.36
		c0,0.813,0.133,1.425,0.398,1.836c0.266,0.412,0.701,0.617,1.305,0.617c0.583,0,1.008-0.205,1.273-0.617
		c0.266-0.411,0.398-1.023,0.398-1.836s-0.133-1.422-0.398-1.828s-0.695-0.609-1.289-0.609s-1.023,0.203-1.289,0.609
		S-57.84-113.172-57.84-112.36z M-47.186-109.891c0.25,0,0.49-0.023,0.719-0.07c0.229-0.047,0.458-0.106,0.688-0.18v1.672
		c-0.239,0.094-0.536,0.18-0.891,0.258c-0.354,0.078-0.745,0.117-1.172,0.117c-0.489,0-0.927-0.08-1.313-0.242
		c-0.385-0.161-0.69-0.439-0.914-0.836c-0.224-0.396-0.336-0.942-0.336-1.641v-3.953h-1.063v-0.938l1.234-0.75l0.641-1.734h1.422
		v1.75h2.297v1.672h-2.297v3.953c0,0.313,0.091,0.545,0.273,0.695C-47.714-109.966-47.477-109.891-47.186-109.891z M-42.107-117.328
		c0,0.406-0.013,0.795-0.039,1.164c-0.026,0.37-0.049,0.628-0.07,0.773h0.125c0.261-0.416,0.597-0.721,1.008-0.914
		c0.412-0.192,0.867-0.289,1.367-0.289c0.886,0,1.597,0.237,2.133,0.711c0.537,0.475,0.805,1.237,0.805,2.289v5.344h-2.234v-4.781
		c0-1.188-0.442-1.781-1.328-1.781c-0.667,0-1.127,0.234-1.383,0.703c-0.255,0.469-0.383,1.136-0.383,2v3.859h-2.234v-11.406h2.234
		V-117.328z M-28.8-117.328c0,0.406-0.013,0.795-0.039,1.164c-0.026,0.37-0.049,0.628-0.07,0.773h0.125
		c0.261-0.416,0.597-0.721,1.008-0.914c0.412-0.192,0.867-0.289,1.367-0.289c0.886,0,1.597,0.237,2.133,0.711
		c0.537,0.475,0.805,1.237,0.805,2.289v5.344h-2.234v-4.781c0-1.188-0.442-1.781-1.328-1.781c-0.667,0-1.127,0.234-1.383,0.703
		c-0.255,0.469-0.383,1.136-0.383,2v3.859h-2.234v-11.406h2.234V-117.328z M-20.375-119.656c0.333,0,0.62,0.078,0.859,0.234
		c0.24,0.156,0.359,0.443,0.359,0.859c0,0.417-0.12,0.706-0.359,0.867c-0.239,0.162-0.526,0.242-0.859,0.242
		c-0.344,0-0.633-0.08-0.867-0.242c-0.235-0.161-0.352-0.45-0.352-0.867c0-0.416,0.117-0.703,0.352-0.859
		C-21.009-119.578-20.72-119.656-20.375-119.656z M-19.266-116.438v8.188H-21.5v-8.188H-19.266z M-11.355-110.688
		c0,0.834-0.295,1.475-0.883,1.922c-0.589,0.448-1.461,0.672-2.618,0.672c-0.573,0-1.063-0.039-1.469-0.117s-0.818-0.2-1.234-0.367
		v-1.844c0.438,0.198,0.911,0.362,1.422,0.492c0.51,0.131,0.963,0.195,1.359,0.195c0.438,0,0.75-0.064,0.938-0.195
		c0.188-0.13,0.281-0.299,0.281-0.508c0-0.146-0.039-0.273-0.117-0.383s-0.242-0.234-0.492-0.375s-0.641-0.32-1.172-0.539
		c-0.511-0.219-0.93-0.435-1.258-0.648c-0.328-0.213-0.573-0.474-0.734-0.781c-0.162-0.307-0.242-0.689-0.242-1.148
		c0-0.76,0.294-1.33,0.883-1.711c0.588-0.38,1.377-0.57,2.367-0.57c0.51,0,0.995,0.05,1.453,0.148
		c0.458,0.1,0.932,0.269,1.422,0.508l-0.672,1.594c-0.407-0.166-0.79-0.307-1.149-0.422c-0.359-0.114-0.722-0.172-1.086-0.172
		c-0.667,0-1,0.178-1,0.531c0,0.136,0.044,0.256,0.133,0.359c0.088,0.104,0.255,0.217,0.5,0.336c0.245,0.12,0.606,0.279,1.086,0.477
		c0.469,0.198,0.872,0.398,1.211,0.602c0.338,0.203,0.602,0.456,0.789,0.758C-11.449-111.573-11.355-111.177-11.355-110.688z
		 M-6.41-109.891c0.25,0,0.49-0.023,0.719-0.07c0.23-0.047,0.459-0.106,0.688-0.18v1.672c-0.238,0.094-0.535,0.18-0.891,0.258
		c-0.354,0.078-0.744,0.117-1.172,0.117c-0.488,0-0.926-0.08-1.313-0.242c-0.385-0.161-0.689-0.439-0.914-0.836
		c-0.223-0.396-0.335-0.942-0.335-1.641v-3.953h-1.063v-0.938l1.234-0.75l0.641-1.734h1.422v1.75h2.297v1.672h-2.297v3.953
		c0,0.313,0.092,0.545,0.273,0.695C-6.938-109.966-6.701-109.891-6.41-109.891z M3.873-112.36c0,1.365-0.357,2.417-1.07,3.156
		c-0.713,0.74-1.686,1.109-2.914,1.109c-0.76,0-1.439-0.166-2.039-0.5c-0.6-0.333-1.068-0.817-1.406-1.453
		c-0.338-0.635-0.508-1.406-0.508-2.313c0-1.364,0.357-2.411,1.07-3.141c0.713-0.729,1.689-1.094,2.93-1.094
		c0.76,0,1.438,0.167,2.031,0.5c0.594,0.334,1.061,0.813,1.398,1.438S3.873-113.266,3.873-112.36z M-1.784-112.36
		c0,0.813,0.133,1.425,0.398,1.836c0.266,0.412,0.701,0.617,1.305,0.617c0.584,0,1.008-0.205,1.273-0.617
		c0.266-0.411,0.398-1.023,0.398-1.836s-0.133-1.422-0.398-1.828s-0.695-0.609-1.289-0.609s-1.023,0.203-1.289,0.609
		S-1.784-113.172-1.784-112.36z M8.074-116.594c1.01,0,1.797,0.401,2.359,1.203h0.063l0.188-1.047h1.891v8.203
		c0,1.167-0.346,2.055-1.039,2.664s-1.711,0.914-3.055,0.914c-0.584,0-1.123-0.033-1.617-0.102
		c-0.494-0.067-0.977-0.189-1.445-0.367v-1.797c1.01,0.428,2.072,0.641,3.188,0.641c1.156,0,1.734-0.619,1.734-1.859v-0.172
		c0-0.166,0.008-0.341,0.023-0.523c0.016-0.182,0.029-0.341,0.039-0.477H10.34c-0.281,0.428-0.617,0.737-1.008,0.93
		c-0.391,0.193-0.83,0.289-1.32,0.289c-0.969,0-1.727-0.372-2.273-1.117c-0.547-0.744-0.82-1.783-0.82-3.117
		c0-1.344,0.281-2.391,0.844-3.141S7.095-116.594,8.074-116.594z M8.777-114.781c-1.053,0-1.578,0.828-1.578,2.484
		c0,1.625,0.537,2.438,1.609,2.438c0.572,0,0.994-0.161,1.266-0.484c0.271-0.322,0.406-0.891,0.406-1.703v-0.266
		c0-0.885-0.133-1.518-0.398-1.898C9.816-114.591,9.381-114.781,8.777-114.781z M19.181-116.594c0.104,0,0.232,0.006,0.383,0.016
		c0.15,0.011,0.273,0.026,0.367,0.047l-0.172,2.094c-0.072-0.01-0.178-0.023-0.313-0.039s-0.25-0.023-0.344-0.023
		c-0.385,0-0.752,0.068-1.102,0.203c-0.35,0.136-0.631,0.352-0.844,0.648s-0.32,0.706-0.32,1.227v4.172h-2.234v-8.188h1.688
		l0.328,1.375h0.109c0.24-0.416,0.57-0.775,0.992-1.078C18.142-116.443,18.629-116.594,19.181-116.594z M24.55-116.61
		c1.104,0,1.947,0.237,2.531,0.711c0.584,0.475,0.875,1.206,0.875,2.195v5.453h-1.563l-0.438-1.109h-0.063
		c-0.344,0.438-0.711,0.758-1.102,0.961s-0.924,0.305-1.602,0.305c-0.74,0-1.35-0.213-1.828-0.641
		c-0.479-0.427-0.719-1.078-0.719-1.953s0.305-1.521,0.914-1.938c0.609-0.416,1.529-0.646,2.758-0.688l1.422-0.031v-0.359
		c0-0.438-0.111-0.755-0.336-0.953c-0.225-0.197-0.539-0.297-0.945-0.297c-0.396,0-0.783,0.058-1.164,0.172
		c-0.381,0.115-0.764,0.256-1.148,0.422l-0.734-1.516c0.447-0.229,0.938-0.408,1.469-0.539
		C23.41-116.544,23.966-116.61,24.55-116.61z M24.863-112.016c-0.719,0.021-1.219,0.151-1.5,0.391
		c-0.281,0.24-0.422,0.553-0.422,0.938c0,0.344,0.102,0.589,0.305,0.734c0.203,0.146,0.461,0.219,0.773,0.219
		c0.479,0,0.885-0.143,1.219-0.43c0.334-0.286,0.5-0.689,0.5-1.211v-0.672L24.863-112.016z M39.566-116.594
		c0.938,0,1.643,0.237,2.117,0.711c0.473,0.475,0.711,1.237,0.711,2.289v5.344H40.16v-4.781c0-1.188-0.412-1.781-1.234-1.781
		c-0.594,0-1.016,0.211-1.266,0.633s-0.375,1.029-0.375,1.82v4.109H35.05v-4.781c0-1.188-0.406-1.781-1.219-1.781
		c-0.625,0-1.055,0.234-1.289,0.703s-0.352,1.136-0.352,2v3.859h-2.234v-8.188h1.703l0.313,1.047h0.109
		c0.25-0.416,0.594-0.721,1.031-0.914c0.438-0.192,0.891-0.289,1.359-0.289c0.594,0,1.102,0.1,1.523,0.297
		c0.422,0.198,0.742,0.5,0.961,0.906h0.203c0.25-0.416,0.596-0.721,1.039-0.914C38.64-116.497,39.097-116.594,39.566-116.594z
		 M47.4-112.36c0-1.219,0.18-2.396,0.539-3.531c0.359-1.135,0.92-2.156,1.68-3.063h1.828c-0.688,0.938-1.207,1.972-1.563,3.102
		c-0.354,1.131-0.531,2.289-0.531,3.477c0,1.156,0.178,2.297,0.531,3.422c0.355,1.125,0.871,2.151,1.547,3.078h-1.813
		c-0.76-0.885-1.32-1.885-1.68-3C47.58-109.99,47.4-111.151,47.4-112.36z M61.679-108.25h-2.578l-2.797-4.516l-0.969,0.688v3.828
		H53.07v-10.703h2.266v4.891c0.156-0.208,0.311-0.416,0.461-0.625c0.15-0.208,0.299-0.416,0.445-0.625l2.891-3.641h2.531
		l-3.75,4.734L61.679-108.25z M71.595-113.703c0,1.803-0.512,3.162-1.539,4.078c-1.025,0.917-2.465,1.375-4.32,1.375h-3.031v-10.703
		h3.359c1.125,0,2.1,0.198,2.922,0.594c0.824,0.396,1.465,0.982,1.922,1.758C71.367-115.825,71.595-114.86,71.595-113.703z
		 M69.236-113.656c0-1.188-0.26-2.057-0.781-2.609c-0.52-0.552-1.275-0.828-2.266-0.828H64.97v6.969h0.984
		C68.142-110.125,69.236-111.302,69.236-113.656z M79.615-108.25h-6.172v-10.703h6.172v1.859h-3.906v2.344h3.641v1.859h-3.641v2.766
		h3.906V-108.25z M84.711-112.36c0,1.209-0.178,2.37-0.531,3.484c-0.355,1.115-0.912,2.115-1.672,3h-1.813
		c0.676-0.927,1.189-1.953,1.539-3.078c0.348-1.125,0.523-2.266,0.523-3.422c0-1.188-0.178-2.346-0.531-3.477
		c-0.355-1.13-0.871-2.164-1.547-3.102h1.828c0.76,0.906,1.316,1.928,1.672,3.063C84.533-114.755,84.711-113.578,84.711-112.36z"/>
</g>
<g>
	
		<line fill="none" stroke="#262626" stroke-width="0.6597" stroke-linecap="square" stroke-linejoin="round" stroke-miterlimit="10" x1="73" y1="400" x2="507" y2="400"/>
	
		<line fill="none" stroke="#262626" stroke-width="0.6597" stroke-linecap="square" stroke-linejoin="round" stroke-miterlimit="10" x1="73" y1="400" x2="73" y2="395.66"/>
	
		<line fill="none" stroke="#262626" stroke-width="0.6597" stroke-linecap="square" stroke-linejoin="round" stroke-miterlimit="10" x1="135" y1="400" x2="135" y2="395.66"/>
	
		<line fill="none" stroke="#262626" stroke-width="0.6597" stroke-linecap="square" stroke-linejoin="round" stroke-miterlimit="10" x1="197" y1="400" x2="197" y2="395.66"/>
	
		<line fill="none" stroke="#262626" stroke-width="0.6597" stroke-linecap="square" stroke-linejoin="round" stroke-miterlimit="10" x1="259" y1="400" x2="259" y2="395.66"/>
	
		<line fill="none" stroke="#262626" stroke-width="0.6597" stroke-linecap="square" stroke-linejoin="round" stroke-miterlimit="10" x1="321" y1="400" x2="321" y2="395.66"/>
	
		<line fill="none" stroke="#262626" stroke-width="0.6597" stroke-linecap="square" stroke-linejoin="round" stroke-miterlimit="10" x1="383" y1="400" x2="383" y2="395.66"/>
	
		<line fill="none" stroke="#262626" stroke-width="0.6597" stroke-linecap="square" stroke-linejoin="round" stroke-miterlimit="10" x1="445" y1="400" x2="445" y2="395.66"/>
	
		<line fill="none" stroke="#262626" stroke-width="0.6597" stroke-linecap="square" stroke-linejoin="round" stroke-miterlimit="10" x1="507" y1="400" x2="507" y2="395.66"/>
	
		<line fill="none" stroke="#262626" stroke-width="0.6597" stroke-linecap="square" stroke-linejoin="round" stroke-miterlimit="10" x1="73" y1="34" x2="73" y2="38.34"/>
	<g transform="translate(73,405.2778)">
		<path fill="#262626" d="M2.797,10.344c0,1-0.104,1.856-0.313,2.57c-0.208,0.713-0.537,1.26-0.984,1.641
			c-0.448,0.38-1.047,0.57-1.797,0.57c-1.052,0-1.826-0.422-2.32-1.266s-0.742-2.016-0.742-3.516c0-1,0.102-1.857,0.305-2.57
			c0.203-0.714,0.529-1.258,0.977-1.633s1.042-0.563,1.781-0.563c1.042,0,1.818,0.416,2.328,1.25
			C2.542,7.661,2.797,8.833,2.797,10.344z M-2.219,10.344c0,1.271,0.146,2.224,0.438,2.859c0.292,0.635,0.787,0.953,1.484,0.953
			s1.195-0.315,1.492-0.945c0.297-0.631,0.445-1.586,0.445-2.867c0-1.261-0.148-2.209-0.445-2.844
			C0.898,6.865,0.401,6.547-0.297,6.547S-1.49,6.865-1.781,7.5C-2.073,8.135-2.219,9.083-2.219,10.344z"/>
	</g>
	<g transform="translate(135,405.2778)">
		<path fill="#262626" d="M-7.922,9.313c0.948,0,1.703,0.236,2.266,0.711c0.563,0.474,0.844,1.143,0.844,2.008
			c0,0.969-0.305,1.727-0.914,2.273s-1.461,0.82-2.555,0.82c-0.469,0-0.914-0.042-1.336-0.125c-0.422-0.084-0.779-0.209-1.07-0.375
			v-1.078c0.313,0.188,0.693,0.336,1.141,0.445s0.875,0.164,1.281,0.164c0.688,0,1.242-0.162,1.664-0.484
			c0.422-0.323,0.633-0.828,0.633-1.516c0-0.604-0.188-1.07-0.563-1.398s-0.963-0.492-1.766-0.492c-0.25,0-0.531,0.021-0.844,0.063
			c-0.313,0.041-0.563,0.088-0.75,0.141l-0.563-0.375l0.344-4.375h4.656v1.047h-3.688l-0.219,2.688
			c0.146-0.031,0.346-0.063,0.602-0.094S-8.224,9.313-7.922,9.313z M2.838,10.344c0,1-0.104,1.856-0.313,2.57
			c-0.208,0.713-0.537,1.26-0.984,1.641c-0.448,0.38-1.047,0.57-1.797,0.57c-1.052,0-1.826-0.422-2.32-1.266
			s-0.742-2.016-0.742-3.516c0-1,0.102-1.857,0.305-2.57c0.203-0.714,0.529-1.258,0.977-1.633s1.042-0.563,1.781-0.563
			c1.042,0,1.818,0.416,2.328,1.25C2.583,7.661,2.838,8.833,2.838,10.344z M-2.178,10.344c0,1.271,0.146,2.224,0.438,2.859
			c0.292,0.635,0.787,0.953,1.484,0.953s1.195-0.315,1.492-0.945c0.297-0.631,0.445-1.586,0.445-2.867
			c0-1.261-0.148-2.209-0.445-2.844C0.939,6.865,0.442,6.547-0.256,6.547S-1.449,6.865-1.74,7.5
			C-2.032,8.135-2.178,9.083-2.178,10.344z M10.379,10.344c0,1-0.104,1.856-0.313,2.57c-0.208,0.713-0.537,1.26-0.984,1.641
			c-0.448,0.38-1.047,0.57-1.797,0.57c-1.052,0-1.826-0.422-2.32-1.266s-0.742-2.016-0.742-3.516c0-1,0.102-1.857,0.305-2.57
			C4.73,7.06,5.056,6.516,5.504,6.141s1.042-0.563,1.781-0.563c1.042,0,1.818,0.416,2.328,1.25
			C10.124,7.661,10.379,8.833,10.379,10.344z M5.363,10.344c0,1.271,0.146,2.224,0.438,2.859c0.292,0.635,0.787,0.953,1.484,0.953
			s1.195-0.315,1.492-0.945c0.297-0.631,0.445-1.586,0.445-2.867c0-1.261-0.148-2.209-0.445-2.844
			C8.48,6.865,7.983,6.547,7.285,6.547S6.092,6.865,5.801,7.5C5.509,8.135,5.363,9.083,5.363,10.344z"/>
	</g>
	<g transform="translate(197,405.2778)">
		<path fill="#262626" d="M-10.891,15H-12V8.516c0-0.375,0.002-0.675,0.008-0.898c0.005-0.225,0.018-0.461,0.039-0.711
			c-0.135,0.146-0.26,0.266-0.375,0.359s-0.255,0.213-0.422,0.359l-1,0.813l-0.594-0.766l2.516-1.953h0.938V15z M-1.162,10.344
			c0,1-0.104,1.856-0.313,2.57c-0.208,0.713-0.537,1.26-0.984,1.641c-0.448,0.38-1.047,0.57-1.797,0.57
			c-1.052,0-1.826-0.422-2.32-1.266s-0.742-2.016-0.742-3.516c0-1,0.102-1.857,0.305-2.57c0.203-0.714,0.529-1.258,0.977-1.633
			s1.042-0.563,1.781-0.563c1.042,0,1.818,0.416,2.328,1.25C-1.417,7.661-1.162,8.833-1.162,10.344z M-6.178,10.344
			c0,1.271,0.146,2.224,0.438,2.859c0.292,0.635,0.787,0.953,1.484,0.953s1.195-0.315,1.492-0.945
			c0.297-0.631,0.445-1.586,0.445-2.867c0-1.261-0.148-2.209-0.445-2.844c-0.297-0.636-0.794-0.953-1.492-0.953
			S-5.449,6.865-5.74,7.5C-6.032,8.135-6.178,9.083-6.178,10.344z M6.379,10.344c0,1-0.104,1.856-0.313,2.57
			c-0.208,0.713-0.537,1.26-0.984,1.641c-0.448,0.38-1.047,0.57-1.797,0.57c-1.052,0-1.826-0.422-2.32-1.266
			s-0.742-2.016-0.742-3.516c0-1,0.102-1.857,0.305-2.57C0.73,7.06,1.056,6.516,1.504,6.141s1.042-0.563,1.781-0.563
			c1.042,0,1.818,0.416,2.328,1.25C6.124,7.661,6.379,8.833,6.379,10.344z M1.363,10.344c0,1.271,0.146,2.224,0.438,2.859
			c0.292,0.635,0.787,0.953,1.484,0.953s1.195-0.315,1.492-0.945c0.297-0.631,0.445-1.586,0.445-2.867
			c0-1.261-0.148-2.209-0.445-2.844C4.48,6.865,3.983,6.547,3.285,6.547S2.092,6.865,1.801,7.5
			C1.509,8.135,1.363,9.083,1.363,10.344z M13.92,10.344c0,1-0.104,1.856-0.313,2.57c-0.208,0.713-0.537,1.26-0.984,1.641
			c-0.448,0.38-1.047,0.57-1.797,0.57c-1.052,0-1.826-0.422-2.32-1.266s-0.742-2.016-0.742-3.516c0-1,0.102-1.857,0.305-2.57
			C8.271,7.06,8.597,6.516,9.045,6.141s1.042-0.563,1.781-0.563c1.042,0,1.818,0.416,2.328,1.25
			C13.665,7.661,13.92,8.833,13.92,10.344z M8.904,10.344c0,1.271,0.146,2.224,0.438,2.859c0.292,0.635,0.787,0.953,1.484,0.953
			s1.195-0.315,1.492-0.945c0.297-0.631,0.445-1.586,0.445-2.867c0-1.261-0.148-2.209-0.445-2.844
			c-0.297-0.636-0.794-0.953-1.492-0.953S9.633,6.865,9.342,7.5C9.05,8.135,8.904,9.083,8.904,10.344z"/>
	</g>
	<g transform="translate(259,405.2778)">
		<path fill="#262626" d="M-10.891,15H-12V8.516c0-0.375,0.002-0.675,0.008-0.898c0.005-0.225,0.018-0.461,0.039-0.711
			c-0.135,0.146-0.26,0.266-0.375,0.359s-0.255,0.213-0.422,0.359l-1,0.813l-0.594-0.766l2.516-1.953h0.938V15z M-4.381,9.313
			c0.948,0,1.703,0.236,2.266,0.711c0.563,0.474,0.844,1.143,0.844,2.008c0,0.969-0.305,1.727-0.914,2.273s-1.461,0.82-2.555,0.82
			c-0.469,0-0.914-0.042-1.336-0.125c-0.422-0.084-0.779-0.209-1.07-0.375v-1.078c0.313,0.188,0.693,0.336,1.141,0.445
			s0.875,0.164,1.281,0.164c0.688,0,1.242-0.162,1.664-0.484c0.422-0.323,0.633-0.828,0.633-1.516c0-0.604-0.188-1.07-0.563-1.398
			s-0.963-0.492-1.766-0.492c-0.25,0-0.531,0.021-0.844,0.063c-0.313,0.041-0.563,0.088-0.75,0.141l-0.563-0.375l0.344-4.375h4.656
			v1.047H-5.6l-0.219,2.688c0.146-0.031,0.346-0.063,0.602-0.094S-4.683,9.313-4.381,9.313z M6.379,10.344
			c0,1-0.104,1.856-0.313,2.57c-0.208,0.713-0.537,1.26-0.984,1.641c-0.448,0.38-1.047,0.57-1.797,0.57
			c-1.052,0-1.826-0.422-2.32-1.266s-0.742-2.016-0.742-3.516c0-1,0.102-1.857,0.305-2.57C0.73,7.06,1.056,6.516,1.504,6.141
			s1.042-0.563,1.781-0.563c1.042,0,1.818,0.416,2.328,1.25C6.124,7.661,6.379,8.833,6.379,10.344z M1.363,10.344
			c0,1.271,0.146,2.224,0.438,2.859c0.292,0.635,0.787,0.953,1.484,0.953s1.195-0.315,1.492-0.945
			c0.297-0.631,0.445-1.586,0.445-2.867c0-1.261-0.148-2.209-0.445-2.844C4.48,6.865,3.983,6.547,3.285,6.547S2.092,6.865,1.801,7.5
			C1.509,8.135,1.363,9.083,1.363,10.344z M13.92,10.344c0,1-0.104,1.856-0.313,2.57c-0.208,0.713-0.537,1.26-0.984,1.641
			c-0.448,0.38-1.047,0.57-1.797,0.57c-1.052,0-1.826-0.422-2.32-1.266s-0.742-2.016-0.742-3.516c0-1,0.102-1.857,0.305-2.57
			C8.271,7.06,8.597,6.516,9.045,6.141s1.042-0.563,1.781-0.563c1.042,0,1.818,0.416,2.328,1.25
			C13.665,7.661,13.92,8.833,13.92,10.344z M8.904,10.344c0,1.271,0.146,2.224,0.438,2.859c0.292,0.635,0.787,0.953,1.484,0.953
			s1.195-0.315,1.492-0.945c0.297-0.631,0.445-1.586,0.445-2.867c0-1.261-0.148-2.209-0.445-2.844
			c-0.297-0.636-0.794-0.953-1.492-0.953S9.633,6.865,9.342,7.5C9.05,8.135,8.904,9.083,8.904,10.344z"/>
	</g>
	<g transform="translate(321,405.2778)">
		<path fill="#262626" d="M-8.734,15h-6.141v-0.953l2.438-2.453c0.458-0.469,0.849-0.886,1.172-1.25
			c0.323-0.365,0.567-0.722,0.734-1.07c0.167-0.35,0.25-0.732,0.25-1.148c0-0.511-0.153-0.898-0.461-1.164s-0.7-0.398-1.18-0.398
			c-0.448,0-0.844,0.078-1.188,0.234s-0.692,0.375-1.047,0.656l-0.609-0.766c0.364-0.313,0.781-0.573,1.25-0.781
			c0.469-0.209,1-0.313,1.594-0.313c0.864,0,1.55,0.219,2.055,0.656s0.758,1.041,0.758,1.813c0,0.479-0.102,0.932-0.305,1.359
			c-0.203,0.427-0.481,0.846-0.836,1.258c-0.354,0.411-0.771,0.852-1.25,1.32l-1.938,1.906v0.047h4.703V15z M-1.162,10.344
			c0,1-0.104,1.856-0.313,2.57c-0.208,0.713-0.536,1.26-0.984,1.641c-0.448,0.38-1.047,0.57-1.797,0.57
			c-1.052,0-1.825-0.422-2.32-1.266s-0.742-2.016-0.742-3.516c0-1,0.102-1.857,0.305-2.57c0.203-0.714,0.528-1.258,0.977-1.633
			s1.042-0.563,1.781-0.563c1.042,0,1.817,0.416,2.328,1.25C-1.417,7.661-1.162,8.833-1.162,10.344z M-6.178,10.344
			c0,1.271,0.146,2.224,0.438,2.859c0.292,0.635,0.786,0.953,1.484,0.953s1.195-0.315,1.492-0.945
			c0.297-0.631,0.445-1.586,0.445-2.867c0-1.261-0.148-2.209-0.445-2.844c-0.297-0.636-0.794-0.953-1.492-0.953
			S-5.448,6.865-5.74,7.5C-6.032,8.135-6.178,9.083-6.178,10.344z M6.379,10.344c0,1-0.104,1.856-0.313,2.57
			c-0.208,0.713-0.536,1.26-0.984,1.641c-0.448,0.38-1.047,0.57-1.797,0.57c-1.052,0-1.825-0.422-2.32-1.266
			s-0.742-2.016-0.742-3.516c0-1,0.102-1.857,0.305-2.57C0.73,7.06,1.056,6.516,1.504,6.141s1.042-0.563,1.781-0.563
			c1.042,0,1.817,0.416,2.328,1.25C6.124,7.661,6.379,8.833,6.379,10.344z M1.363,10.344c0,1.271,0.146,2.224,0.438,2.859
			c0.292,0.635,0.786,0.953,1.484,0.953s1.195-0.315,1.492-0.945c0.297-0.631,0.445-1.586,0.445-2.867
			c0-1.261-0.148-2.209-0.445-2.844C4.48,6.865,3.983,6.547,3.285,6.547S2.093,6.865,1.801,7.5
			C1.509,8.135,1.363,9.083,1.363,10.344z M13.92,10.344c0,1-0.104,1.856-0.313,2.57c-0.208,0.713-0.536,1.26-0.984,1.641
			c-0.448,0.38-1.047,0.57-1.797,0.57c-1.052,0-1.825-0.422-2.32-1.266s-0.742-2.016-0.742-3.516c0-1,0.102-1.857,0.305-2.57
			C8.271,7.06,8.597,6.516,9.045,6.141s1.042-0.563,1.781-0.563c1.042,0,1.817,0.416,2.328,1.25
			C13.665,7.661,13.92,8.833,13.92,10.344z M8.904,10.344c0,1.271,0.146,2.224,0.438,2.859c0.292,0.635,0.786,0.953,1.484,0.953
			s1.195-0.315,1.492-0.945c0.297-0.631,0.445-1.586,0.445-2.867c0-1.261-0.148-2.209-0.445-2.844
			c-0.297-0.636-0.794-0.953-1.492-0.953S9.634,6.865,9.342,7.5C9.05,8.135,8.904,9.083,8.904,10.344z"/>
	</g>
	<g transform="translate(383,405.2778)">
		<path fill="#262626" d="M-8.734,15h-6.141v-0.953l2.438-2.453c0.458-0.469,0.849-0.886,1.172-1.25
			c0.323-0.365,0.567-0.722,0.734-1.07c0.167-0.35,0.25-0.732,0.25-1.148c0-0.511-0.153-0.898-0.461-1.164s-0.7-0.398-1.18-0.398
			c-0.448,0-0.844,0.078-1.188,0.234s-0.692,0.375-1.047,0.656l-0.609-0.766c0.364-0.313,0.781-0.573,1.25-0.781
			c0.469-0.209,1-0.313,1.594-0.313c0.864,0,1.55,0.219,2.055,0.656s0.758,1.041,0.758,1.813c0,0.479-0.102,0.932-0.305,1.359
			c-0.203,0.427-0.481,0.846-0.836,1.258c-0.354,0.411-0.771,0.852-1.25,1.32l-1.938,1.906v0.047h4.703V15z M-4.381,9.313
			c0.948,0,1.703,0.236,2.266,0.711c0.563,0.474,0.844,1.143,0.844,2.008c0,0.969-0.305,1.727-0.914,2.273s-1.461,0.82-2.555,0.82
			c-0.469,0-0.914-0.042-1.336-0.125c-0.422-0.084-0.778-0.209-1.07-0.375v-1.078c0.313,0.188,0.692,0.336,1.141,0.445
			s0.875,0.164,1.281,0.164c0.688,0,1.242-0.162,1.664-0.484c0.422-0.323,0.633-0.828,0.633-1.516c0-0.604-0.188-1.07-0.563-1.398
			s-0.964-0.492-1.766-0.492c-0.25,0-0.531,0.021-0.844,0.063c-0.313,0.041-0.563,0.088-0.75,0.141l-0.563-0.375l0.344-4.375h4.656
			v1.047H-5.6l-0.219,2.688c0.146-0.031,0.347-0.063,0.602-0.094S-4.683,9.313-4.381,9.313z M6.379,10.344
			c0,1-0.104,1.856-0.313,2.57c-0.208,0.713-0.536,1.26-0.984,1.641c-0.448,0.38-1.047,0.57-1.797,0.57
			c-1.052,0-1.825-0.422-2.32-1.266s-0.742-2.016-0.742-3.516c0-1,0.102-1.857,0.305-2.57C0.73,7.06,1.056,6.516,1.504,6.141
			s1.042-0.563,1.781-0.563c1.042,0,1.817,0.416,2.328,1.25C6.124,7.661,6.379,8.833,6.379,10.344z M1.363,10.344
			c0,1.271,0.146,2.224,0.438,2.859c0.292,0.635,0.786,0.953,1.484,0.953s1.195-0.315,1.492-0.945
			c0.297-0.631,0.445-1.586,0.445-2.867c0-1.261-0.148-2.209-0.445-2.844C4.48,6.865,3.983,6.547,3.285,6.547S2.093,6.865,1.801,7.5
			C1.509,8.135,1.363,9.083,1.363,10.344z M13.92,10.344c0,1-0.104,1.856-0.313,2.57c-0.208,0.713-0.536,1.26-0.984,1.641
			c-0.448,0.38-1.047,0.57-1.797,0.57c-1.052,0-1.825-0.422-2.32-1.266s-0.742-2.016-0.742-3.516c0-1,0.102-1.857,0.305-2.57
			C8.271,7.06,8.597,6.516,9.045,6.141s1.042-0.563,1.781-0.563c1.042,0,1.817,0.416,2.328,1.25
			C13.665,7.661,13.92,8.833,13.92,10.344z M8.904,10.344c0,1.271,0.146,2.224,0.438,2.859c0.292,0.635,0.786,0.953,1.484,0.953
			s1.195-0.315,1.492-0.945c0.297-0.631,0.445-1.586,0.445-2.867c0-1.261-0.148-2.209-0.445-2.844
			c-0.297-0.636-0.794-0.953-1.492-0.953S9.634,6.865,9.342,7.5C9.05,8.135,8.904,9.083,8.904,10.344z"/>
	</g>
	<g transform="translate(445,405.2778)">
		<path fill="#262626" d="M-9.094,7.891c0,0.625-0.172,1.122-0.516,1.492c-0.344,0.369-0.813,0.611-1.406,0.727v0.047
			c0.75,0.094,1.305,0.33,1.664,0.711c0.359,0.38,0.539,0.877,0.539,1.492c0,0.541-0.125,1.021-0.375,1.438
			c-0.25,0.416-0.636,0.742-1.156,0.977s-1.192,0.352-2.016,0.352c-0.489,0-0.942-0.037-1.359-0.109
			c-0.417-0.073-0.817-0.203-1.203-0.391v-1.063c0.396,0.188,0.817,0.336,1.266,0.445s0.88,0.164,1.297,0.164
			c0.833,0,1.435-0.164,1.805-0.492S-10,12.901-10,12.328c0-0.573-0.227-0.987-0.68-1.242c-0.453-0.256-1.091-0.383-1.914-0.383
			H-13.5V9.719h0.906c0.771,0,1.352-0.159,1.742-0.477c0.391-0.318,0.586-0.742,0.586-1.273c0-0.448-0.151-0.797-0.453-1.047
			s-0.714-0.375-1.234-0.375c-0.5,0-0.927,0.072-1.281,0.219c-0.354,0.146-0.708,0.333-1.063,0.563l-0.563-0.781
			c0.323-0.261,0.729-0.484,1.219-0.672s1.047-0.281,1.672-0.281c0.969,0,1.69,0.216,2.164,0.648
			C-9.331,6.674-9.094,7.224-9.094,7.891z M-1.162,10.344c0,1-0.104,1.856-0.313,2.57c-0.208,0.713-0.536,1.26-0.984,1.641
			c-0.448,0.38-1.047,0.57-1.797,0.57c-1.052,0-1.825-0.422-2.32-1.266s-0.742-2.016-0.742-3.516c0-1,0.102-1.857,0.305-2.57
			c0.203-0.714,0.528-1.258,0.977-1.633s1.042-0.563,1.781-0.563c1.042,0,1.817,0.416,2.328,1.25
			C-1.417,7.661-1.162,8.833-1.162,10.344z M-6.178,10.344c0,1.271,0.146,2.224,0.438,2.859c0.292,0.635,0.786,0.953,1.484,0.953
			s1.195-0.315,1.492-0.945c0.297-0.631,0.445-1.586,0.445-2.867c0-1.261-0.148-2.209-0.445-2.844
			c-0.297-0.636-0.794-0.953-1.492-0.953S-5.448,6.865-5.74,7.5C-6.032,8.135-6.178,9.083-6.178,10.344z M6.379,10.344
			c0,1-0.104,1.856-0.313,2.57c-0.208,0.713-0.536,1.26-0.984,1.641c-0.448,0.38-1.047,0.57-1.797,0.57
			c-1.052,0-1.825-0.422-2.32-1.266s-0.742-2.016-0.742-3.516c0-1,0.102-1.857,0.305-2.57C0.73,7.06,1.056,6.516,1.504,6.141
			s1.042-0.563,1.781-0.563c1.042,0,1.817,0.416,2.328,1.25C6.124,7.661,6.379,8.833,6.379,10.344z M1.363,10.344
			c0,1.271,0.146,2.224,0.438,2.859c0.292,0.635,0.786,0.953,1.484,0.953s1.195-0.315,1.492-0.945
			c0.297-0.631,0.445-1.586,0.445-2.867c0-1.261-0.148-2.209-0.445-2.844C4.48,6.865,3.983,6.547,3.285,6.547S2.093,6.865,1.801,7.5
			C1.509,8.135,1.363,9.083,1.363,10.344z M13.92,10.344c0,1-0.104,1.856-0.313,2.57c-0.208,0.713-0.536,1.26-0.984,1.641
			c-0.448,0.38-1.047,0.57-1.797,0.57c-1.052,0-1.825-0.422-2.32-1.266s-0.742-2.016-0.742-3.516c0-1,0.102-1.857,0.305-2.57
			C8.271,7.06,8.597,6.516,9.045,6.141s1.042-0.563,1.781-0.563c1.042,0,1.817,0.416,2.328,1.25
			C13.665,7.661,13.92,8.833,13.92,10.344z M8.904,10.344c0,1.271,0.146,2.224,0.438,2.859c0.292,0.635,0.786,0.953,1.484,0.953
			s1.195-0.315,1.492-0.945c0.297-0.631,0.445-1.586,0.445-2.867c0-1.261-0.148-2.209-0.445-2.844
			c-0.297-0.636-0.794-0.953-1.492-0.953S9.634,6.865,9.342,7.5C9.05,8.135,8.904,9.083,8.904,10.344z"/>
	</g>
	<g transform="translate(507,405.2778)">
		<path fill="#262626" d="M-9.094,7.891c0,0.625-0.172,1.122-0.516,1.492c-0.344,0.369-0.813,0.611-1.406,0.727v0.047
			c0.75,0.094,1.305,0.33,1.664,0.711c0.359,0.38,0.539,0.877,0.539,1.492c0,0.541-0.125,1.021-0.375,1.438
			c-0.25,0.416-0.636,0.742-1.156,0.977s-1.192,0.352-2.016,0.352c-0.489,0-0.942-0.037-1.359-0.109
			c-0.417-0.073-0.817-0.203-1.203-0.391v-1.063c0.396,0.188,0.817,0.336,1.266,0.445s0.88,0.164,1.297,0.164
			c0.833,0,1.435-0.164,1.805-0.492S-10,12.901-10,12.328c0-0.573-0.227-0.987-0.68-1.242c-0.453-0.256-1.091-0.383-1.914-0.383
			H-13.5V9.719h0.906c0.771,0,1.352-0.159,1.742-0.477c0.391-0.318,0.586-0.742,0.586-1.273c0-0.448-0.151-0.797-0.453-1.047
			s-0.714-0.375-1.234-0.375c-0.5,0-0.927,0.072-1.281,0.219c-0.354,0.146-0.708,0.333-1.063,0.563l-0.563-0.781
			c0.323-0.261,0.729-0.484,1.219-0.672s1.047-0.281,1.672-0.281c0.969,0,1.69,0.216,2.164,0.648
			C-9.331,6.674-9.094,7.224-9.094,7.891z M-4.381,9.313c0.948,0,1.703,0.236,2.266,0.711c0.563,0.474,0.844,1.143,0.844,2.008
			c0,0.969-0.305,1.727-0.914,2.273s-1.461,0.82-2.555,0.82c-0.469,0-0.914-0.042-1.336-0.125c-0.422-0.084-0.778-0.209-1.07-0.375
			v-1.078c0.313,0.188,0.692,0.336,1.141,0.445s0.875,0.164,1.281,0.164c0.688,0,1.242-0.162,1.664-0.484
			c0.422-0.323,0.633-0.828,0.633-1.516c0-0.604-0.188-1.07-0.563-1.398s-0.964-0.492-1.766-0.492c-0.25,0-0.531,0.021-0.844,0.063
			c-0.313,0.041-0.563,0.088-0.75,0.141l-0.563-0.375l0.344-4.375h4.656v1.047H-5.6l-0.219,2.688
			c0.146-0.031,0.347-0.063,0.602-0.094S-4.683,9.313-4.381,9.313z M6.379,10.344c0,1-0.104,1.856-0.313,2.57
			c-0.208,0.713-0.536,1.26-0.984,1.641c-0.448,0.38-1.047,0.57-1.797,0.57c-1.052,0-1.825-0.422-2.32-1.266
			s-0.742-2.016-0.742-3.516c0-1,0.102-1.857,0.305-2.57C0.73,7.06,1.056,6.516,1.504,6.141s1.042-0.563,1.781-0.563
			c1.042,0,1.817,0.416,2.328,1.25C6.124,7.661,6.379,8.833,6.379,10.344z M1.363,10.344c0,1.271,0.146,2.224,0.438,2.859
			c0.292,0.635,0.786,0.953,1.484,0.953s1.195-0.315,1.492-0.945c0.297-0.631,0.445-1.586,0.445-2.867
			c0-1.261-0.148-2.209-0.445-2.844C4.48,6.865,3.983,6.547,3.285,6.547S2.093,6.865,1.801,7.5
			C1.509,8.135,1.363,9.083,1.363,10.344z M13.92,10.344c0,1-0.104,1.856-0.313,2.57c-0.208,0.713-0.536,1.26-0.984,1.641
			c-0.448,0.38-1.047,0.57-1.797,0.57c-1.052,0-1.825-0.422-2.32-1.266s-0.742-2.016-0.742-3.516c0-1,0.102-1.857,0.305-2.57
			C8.271,7.06,8.597,6.516,9.045,6.141s1.042-0.563,1.781-0.563c1.042,0,1.817,0.416,2.328,1.25
			C13.665,7.661,13.92,8.833,13.92,10.344z M8.904,10.344c0,1.271,0.146,2.224,0.438,2.859c0.292,0.635,0.786,0.953,1.484,0.953
			s1.195-0.315,1.492-0.945c0.297-0.631,0.445-1.586,0.445-2.867c0-1.261-0.148-2.209-0.445-2.844
			c-0.297-0.636-0.794-0.953-1.492-0.953S9.634,6.865,9.342,7.5C9.05,8.135,8.904,9.083,8.904,10.344z"/>
	</g>
	<g transform="translate(290.0002,425.5972)">
		<path fill="#262626" d="M-36.969,10.547c0,1.802-0.492,3.161-1.477,4.078S-40.802,16-42.563,16h-2.984V5.297h3.297
			c1.083,0,2.021,0.198,2.813,0.594c0.792,0.396,1.401,0.981,1.828,1.758C-37.182,8.425-36.969,9.391-36.969,10.547z
			 M-38.391,10.578c0-1.427-0.352-2.474-1.055-3.141s-1.7-1-2.992-1h-1.75v8.406h1.453C-39.839,14.844-38.391,13.422-38.391,10.578z
			 M-28.407,7.953V16h-1.078l-0.203-1.063h-0.063c-0.26,0.417-0.62,0.724-1.078,0.922s-0.948,0.297-1.469,0.297
			c-0.969,0-1.698-0.234-2.188-0.703s-0.734-1.214-0.734-2.234V7.953h1.328v5.188c0,1.281,0.599,1.922,1.797,1.922
			c0.885,0,1.5-0.25,1.844-0.75s0.516-1.224,0.516-2.172V7.953H-28.407z M-22.408,7.813c0.146,0,0.308,0.008,0.484,0.023
			c0.177,0.016,0.328,0.039,0.453,0.07l-0.156,1.203c-0.135-0.031-0.281-0.055-0.438-0.07s-0.302-0.023-0.438-0.023
			c-0.417,0-0.805,0.112-1.164,0.336s-0.646,0.539-0.859,0.945c-0.213,0.406-0.32,0.875-0.32,1.406V16h-1.313V7.953h1.078
			l0.141,1.484h0.063c0.261-0.448,0.597-0.831,1.008-1.148C-23.457,7.972-22.97,7.813-22.408,7.813z M-17.134,7.828
			c0.99,0,1.719,0.214,2.188,0.641s0.703,1.114,0.703,2.063V16h-0.969l-0.25-1.141h-0.063c-0.344,0.438-0.708,0.763-1.094,0.977
			s-0.922,0.32-1.609,0.32c-0.729,0-1.333-0.192-1.813-0.578c-0.479-0.386-0.719-0.989-0.719-1.813c0-0.802,0.315-1.419,0.945-1.852
			c0.63-0.433,1.602-0.669,2.914-0.711l1.359-0.047v-0.484c0-0.667-0.143-1.13-0.43-1.391s-0.695-0.391-1.227-0.391
			c-0.427,0-0.831,0.063-1.211,0.188s-0.732,0.266-1.055,0.422l-0.406-0.984c0.344-0.188,0.758-0.349,1.242-0.484
			S-17.644,7.828-17.134,7.828z M-16.743,12.11c-1,0.042-1.69,0.203-2.07,0.484c-0.38,0.281-0.57,0.677-0.57,1.188
			c0,0.448,0.136,0.776,0.406,0.984c0.271,0.208,0.625,0.313,1.063,0.313c0.677,0,1.24-0.188,1.688-0.563s0.672-0.948,0.672-1.719
			v-0.734L-16.743,12.11z M-9.352,15.063c0.208,0,0.416-0.016,0.625-0.047c0.208-0.031,0.375-0.067,0.5-0.109v1
			c-0.136,0.073-0.334,0.133-0.594,0.18c-0.261,0.047-0.511,0.07-0.75,0.07c-0.417,0-0.802-0.073-1.156-0.219
			c-0.354-0.146-0.643-0.398-0.867-0.758c-0.224-0.359-0.336-0.867-0.336-1.523V8.985h-1.141V8.344l1.156-0.516l0.531-1.719h0.781
			v1.844h2.329v1.031h-2.329v4.641c0,0.489,0.117,0.852,0.352,1.086S-9.717,15.063-9.352,15.063z M-6.113,4.938
			c0.197,0,0.375,0.067,0.531,0.203s0.234,0.349,0.234,0.641c0,0.281-0.078,0.492-0.234,0.633s-0.334,0.211-0.531,0.211
			c-0.219,0-0.404-0.07-0.555-0.211C-6.82,6.274-6.895,6.063-6.895,5.781c0-0.292,0.075-0.505,0.227-0.641
			C-6.518,5.005-6.332,4.938-6.113,4.938z M-5.473,7.953V16h-1.313V7.953H-5.473z M3.943,11.969c0,1.323-0.339,2.352-1.016,3.086
			c-0.678,0.734-1.589,1.102-2.734,1.102c-0.709,0-1.342-0.164-1.898-0.492c-0.558-0.328-0.995-0.805-1.313-1.43
			c-0.318-0.625-0.477-1.38-0.477-2.266c0-1.333,0.333-2.359,1-3.078c0.666-0.719,1.578-1.078,2.734-1.078
			c0.729,0,1.369,0.161,1.922,0.484C2.714,8.62,3.148,9.089,3.467,9.703C3.784,10.318,3.943,11.073,3.943,11.969z M-2.135,11.969
			c0,0.948,0.188,1.7,0.563,2.258s0.974,0.836,1.797,0.836c0.813,0,1.408-0.278,1.789-0.836c0.38-0.558,0.57-1.31,0.57-2.258
			s-0.19-1.692-0.57-2.234C1.633,9.193,1.031,8.922,0.209,8.922c-0.823,0-1.42,0.271-1.789,0.813
			C-1.95,10.277-2.135,11.021-2.135,11.969z M9.597,7.813c0.958,0,1.685,0.231,2.18,0.695c0.494,0.464,0.742,1.216,0.742,2.258V16
			h-1.313V10.86c0-1.292-0.6-1.938-1.797-1.938c-0.896,0-1.514,0.25-1.852,0.75c-0.339,0.5-0.508,1.219-0.508,2.156V16H5.738V7.953
			h1.063l0.188,1.109h0.078c0.26-0.427,0.619-0.742,1.078-0.945C8.602,7.914,9.087,7.813,9.597,7.813z M17.791,11.891
			c0-1.219,0.18-2.396,0.539-3.531s0.919-2.156,1.68-3.063h1.234c-0.698,0.938-1.224,1.972-1.578,3.102s-0.531,2.289-0.531,3.477
			c0,1.156,0.177,2.292,0.531,3.406s0.875,2.146,1.563,3.094H20.01c-0.761-0.886-1.32-1.886-1.68-3S17.791,13.099,17.791,11.891z
			 M31.644,7.813c0.906,0,1.586,0.231,2.039,0.695s0.68,1.216,0.68,2.258V16h-1.313v-5.172c0-1.271-0.542-1.906-1.625-1.906
			c-0.781,0-1.341,0.224-1.68,0.672s-0.508,1.104-0.508,1.969V16h-1.297v-5.172c0-1.271-0.552-1.906-1.656-1.906
			c-0.802,0-1.359,0.25-1.672,0.75s-0.469,1.219-0.469,2.156V16h-1.313V7.953h1.063l0.188,1.109h0.078
			c0.25-0.427,0.589-0.742,1.016-0.945s0.88-0.305,1.359-0.305c1.261,0,2.078,0.448,2.453,1.344h0.078
			c0.271-0.458,0.638-0.797,1.102-1.016S31.124,7.813,31.644,7.813z M41.634,13.781c0,0.781-0.291,1.372-0.875,1.773
			c-0.583,0.401-1.364,0.602-2.344,0.602c-0.563,0-1.044-0.047-1.445-0.141c-0.4-0.094-0.758-0.219-1.07-0.375v-1.203
			c0.323,0.167,0.711,0.315,1.164,0.445s0.914,0.195,1.383,0.195c0.667,0,1.151-0.106,1.453-0.32
			c0.303-0.214,0.453-0.497,0.453-0.852c0-0.208-0.055-0.391-0.164-0.547s-0.307-0.315-0.594-0.477
			c-0.286-0.161-0.695-0.341-1.227-0.539c-0.521-0.198-0.966-0.398-1.336-0.602c-0.369-0.203-0.653-0.445-0.852-0.727
			c-0.197-0.281-0.297-0.641-0.297-1.078c0-0.677,0.279-1.2,0.836-1.57c0.558-0.37,1.284-0.555,2.18-0.555
			c0.49,0,0.948,0.047,1.375,0.141c0.428,0.094,0.823,0.224,1.188,0.391l-0.453,1.063c-0.333-0.146-0.685-0.269-1.055-0.367
			c-0.369-0.099-0.752-0.148-1.148-0.148c-0.541,0-0.953,0.089-1.234,0.266s-0.422,0.411-0.422,0.703
			c0,0.219,0.065,0.406,0.195,0.563c0.131,0.156,0.347,0.308,0.648,0.453c0.303,0.146,0.709,0.317,1.219,0.516
			c0.511,0.198,0.945,0.396,1.305,0.594s0.636,0.44,0.828,0.727C41.538,12.997,41.634,13.355,41.634,13.781z M45.975,11.891
			c0,1.208-0.18,2.37-0.539,3.484s-0.919,2.114-1.68,3h-1.219c0.688-0.948,1.208-1.979,1.563-3.094s0.531-2.25,0.531-3.406
			c0-1.188-0.177-2.347-0.531-3.477s-0.88-2.164-1.578-3.102h1.234c0.761,0.906,1.32,1.927,1.68,3.063S45.975,10.672,45.975,11.891z
			"/>
	</g>
	
		<line fill="none" stroke="#262626" stroke-width="0.6597" stroke-linecap="square" stroke-linejoin="round" stroke-miterlimit="10" x1="73" y1="400" x2="73" y2="34"/>
	
		<line fill="none" stroke="#262626" stroke-width="0.6597" stroke-linecap="square" stroke-linejoin="round" stroke-miterlimit="10" x1="73" y1="400" x2="77.34" y2="400"/>
	
		<line fill="none" stroke="#262626" stroke-width="0.6597" stroke-linecap="square" stroke-linejoin="round" stroke-miterlimit="10" x1="73" y1="339" x2="77.34" y2="339"/>
	
		<line fill="none" stroke="#262626" stroke-width="0.6597" stroke-linecap="square" stroke-linejoin="round" stroke-miterlimit="10" x1="73" y1="278" x2="77.34" y2="278"/>
	
		<line fill="none" stroke="#262626" stroke-width="0.6597" stroke-linecap="square" stroke-linejoin="round" stroke-miterlimit="10" x1="73" y1="217" x2="77.34" y2="217"/>
	
		<line fill="none" stroke="#262626" stroke-width="0.6597" stroke-linecap="square" stroke-linejoin="round" stroke-miterlimit="10" x1="73" y1="156" x2="77.34" y2="156"/>
	
		<line fill="none" stroke="#262626" stroke-width="0.6597" stroke-linecap="square" stroke-linejoin="round" stroke-miterlimit="10" x1="73" y1="95" x2="77.34" y2="95"/>
	
		<line fill="none" stroke="#262626" stroke-width="0.6597" stroke-linecap="square" stroke-linejoin="round" stroke-miterlimit="10" x1="507" y1="400" x2="502.66" y2="400"/>
	<g transform="translate(67.7222,400)">
		<path fill="#262626" d="M-1.203,0.844c0,1-0.104,1.857-0.313,2.57C-1.724,4.128-2.052,4.675-2.5,5.054
			c-0.448,0.381-1.047,0.57-1.797,0.57c-1.052,0-1.826-0.422-2.32-1.266s-0.742-2.016-0.742-3.516c0-1,0.102-1.856,0.305-2.57
			C-6.852-2.44-6.526-2.985-6.078-3.36s1.042-0.563,1.781-0.563c1.042,0,1.818,0.417,2.328,1.25
			C-1.459-1.838-1.203-0.666-1.203,0.844z M-6.219,0.844c0,1.271,0.146,2.225,0.438,2.859c0.292,0.636,0.787,0.953,1.484,0.953
			s1.195-0.314,1.492-0.945c0.297-0.63,0.445-1.586,0.445-2.867c0-1.26-0.148-2.208-0.445-2.844
			c-0.297-0.635-0.794-0.953-1.492-0.953S-5.49-2.635-5.781-2C-6.073-1.365-6.219-0.416-6.219,0.844z"/>
	</g>
	<g transform="translate(67.7222,339)">
		<path fill="#262626" d="M-12.203,0.844c0,1-0.104,1.857-0.313,2.57c-0.208,0.714-0.537,1.261-0.984,1.641
			c-0.448,0.381-1.047,0.57-1.797,0.57c-1.052,0-1.826-0.422-2.32-1.266s-0.742-2.016-0.742-3.516c0-1,0.102-1.856,0.305-2.57
			c0.203-0.713,0.529-1.258,0.977-1.633s1.042-0.563,1.781-0.563c1.042,0,1.818,0.417,2.328,1.25
			C-12.459-1.838-12.203-0.666-12.203,0.844z M-17.219,0.844c0,1.271,0.146,2.225,0.438,2.859c0.292,0.636,0.787,0.953,1.484,0.953
			s1.195-0.314,1.492-0.945c0.297-0.63,0.445-1.586,0.445-2.867c0-1.26-0.148-2.208-0.445-2.844
			c-0.297-0.635-0.794-0.953-1.492-0.953S-16.49-2.635-16.781-2C-17.073-1.365-17.219-0.416-17.219,0.844z M-10.522,4.797
			c0-0.322,0.078-0.549,0.234-0.68c0.156-0.13,0.344-0.195,0.563-0.195s0.409,0.065,0.57,0.195c0.162,0.131,0.242,0.357,0.242,0.68
			c0,0.313-0.081,0.539-0.242,0.68s-0.352,0.211-0.57,0.211s-0.406-0.07-0.563-0.211S-10.522,5.109-10.522,4.797z M-1.16,5.5h-6.141
			V4.547l2.438-2.453c0.458-0.469,0.849-0.885,1.172-1.25c0.323-0.364,0.568-0.721,0.734-1.07c0.167-0.349,0.25-0.731,0.25-1.148
			c0-0.51-0.154-0.898-0.461-1.164s-0.701-0.398-1.18-0.398c-0.448,0-0.844,0.078-1.188,0.234s-0.693,0.375-1.047,0.656
			l-0.609-0.766c0.365-0.313,0.781-0.572,1.25-0.781c0.469-0.208,1-0.313,1.594-0.313c0.865,0,1.549,0.219,2.055,0.656
			s0.758,1.042,0.758,1.813c0,0.479-0.102,0.933-0.305,1.359c-0.203,0.428-0.482,0.847-0.836,1.258
			C-3.03,1.592-3.447,2.031-3.926,2.5l-1.938,1.906v0.047h4.703V5.5z"/>
	</g>
	<g transform="translate(67.7222,278)">
		<path fill="#262626" d="M-12.203,0.844c0,1-0.104,1.857-0.313,2.57c-0.208,0.714-0.537,1.261-0.984,1.641
			c-0.448,0.381-1.047,0.57-1.797,0.57c-1.052,0-1.826-0.422-2.32-1.266s-0.742-2.016-0.742-3.516c0-1,0.102-1.856,0.305-2.57
			c0.203-0.713,0.529-1.258,0.977-1.633s1.042-0.563,1.781-0.563c1.042,0,1.818,0.417,2.328,1.25
			C-12.459-1.838-12.203-0.666-12.203,0.844z M-17.219,0.844c0,1.271,0.146,2.225,0.438,2.859c0.292,0.636,0.787,0.953,1.484,0.953
			s1.195-0.314,1.492-0.945c0.297-0.63,0.445-1.586,0.445-2.867c0-1.26-0.148-2.208-0.445-2.844
			c-0.297-0.635-0.794-0.953-1.492-0.953S-16.49-2.635-16.781-2C-17.073-1.365-17.219-0.416-17.219,0.844z M-10.522,4.797
			c0-0.322,0.078-0.549,0.234-0.68c0.156-0.13,0.344-0.195,0.563-0.195s0.409,0.065,0.57,0.195c0.162,0.131,0.242,0.357,0.242,0.68
			c0,0.313-0.081,0.539-0.242,0.68s-0.352,0.211-0.57,0.211s-0.406-0.07-0.563-0.211S-10.522,5.109-10.522,4.797z M-0.754,3.39
			h-1.344V5.5h-1.109V3.39H-7.66V2.422l4.375-6.25h1.188v6.188h1.344V3.39z M-3.207-0.563c0-0.447,0.008-0.83,0.023-1.148
			c0.016-0.317,0.029-0.617,0.039-0.898h-0.047c-0.073,0.167-0.162,0.344-0.266,0.531s-0.203,0.35-0.297,0.484l-2.781,3.953h3.328
			V-0.563z"/>
	</g>
	<g transform="translate(67.7222,217)">
		<path fill="#262626" d="M-12.203,0.844c0,1-0.104,1.857-0.313,2.57c-0.208,0.714-0.537,1.261-0.984,1.641
			c-0.448,0.381-1.047,0.57-1.797,0.57c-1.052,0-1.826-0.422-2.32-1.266s-0.742-2.016-0.742-3.516c0-1,0.102-1.856,0.305-2.57
			c0.203-0.713,0.529-1.258,0.977-1.633s1.042-0.563,1.781-0.563c1.042,0,1.818,0.417,2.328,1.25
			C-12.459-1.838-12.203-0.666-12.203,0.844z M-17.219,0.844c0,1.271,0.146,2.225,0.438,2.859c0.292,0.636,0.787,0.953,1.484,0.953
			s1.195-0.314,1.492-0.945c0.297-0.63,0.445-1.586,0.445-2.867c0-1.26-0.148-2.208-0.445-2.844
			c-0.297-0.635-0.794-0.953-1.492-0.953S-16.49-2.635-16.781-2C-17.073-1.365-17.219-0.416-17.219,0.844z M-10.522,4.797
			c0-0.322,0.078-0.549,0.234-0.68c0.156-0.13,0.344-0.195,0.563-0.195s0.409,0.065,0.57,0.195c0.162,0.131,0.242,0.357,0.242,0.68
			c0,0.313-0.081,0.539-0.242,0.68s-0.352,0.211-0.57,0.211s-0.406-0.07-0.563-0.211S-10.522,5.109-10.522,4.797z M-7.207,1.531
			c0-0.666,0.057-1.322,0.172-1.969c0.115-0.646,0.326-1.229,0.633-1.75c0.307-0.521,0.74-0.938,1.297-1.25s1.273-0.469,2.148-0.469
			c0.177,0,0.377,0.008,0.602,0.023s0.404,0.045,0.539,0.086v0.984C-1.973-2.865-2.147-2.904-2.34-2.93
			c-0.193-0.025-0.393-0.039-0.602-0.039c-0.594,0-1.088,0.1-1.484,0.297C-4.822-2.474-5.137-2.203-5.371-1.86
			s-0.404,0.742-0.508,1.195s-0.167,0.936-0.188,1.445h0.078c0.198-0.302,0.474-0.56,0.828-0.773c0.354-0.213,0.813-0.32,1.375-0.32
			c0.802,0,1.451,0.245,1.945,0.734c0.495,0.49,0.742,1.188,0.742,2.094c0,0.969-0.268,1.729-0.805,2.281
			c-0.537,0.553-1.252,0.828-2.148,0.828c-0.594,0-1.127-0.146-1.602-0.438c-0.474-0.291-0.852-0.742-1.133-1.352
			S-7.207,2.459-7.207,1.531z M-4.066,4.672c0.552,0,0.995-0.177,1.328-0.531c0.333-0.354,0.5-0.896,0.5-1.625
			c0-0.594-0.148-1.063-0.445-1.406S-3.426,0.594-4.02,0.594c-0.417,0-0.776,0.084-1.078,0.25C-5.4,1.01-5.634,1.224-5.801,1.484
			c-0.167,0.261-0.25,0.526-0.25,0.797c0,0.375,0.073,0.748,0.219,1.117c0.146,0.37,0.367,0.675,0.664,0.914
			C-4.871,4.552-4.504,4.672-4.066,4.672z"/>
	</g>
	<g transform="translate(67.7222,156)">
		<path fill="#262626" d="M-12.203,0.844c0,1-0.104,1.857-0.313,2.57c-0.208,0.714-0.537,1.261-0.984,1.641
			c-0.448,0.381-1.047,0.57-1.797,0.57c-1.052,0-1.826-0.422-2.32-1.266s-0.742-2.016-0.742-3.516c0-1,0.102-1.856,0.305-2.57
			c0.203-0.713,0.529-1.258,0.977-1.633s1.042-0.563,1.781-0.563c1.042,0,1.818,0.417,2.328,1.25
			C-12.459-1.838-12.203-0.666-12.203,0.844z M-17.219,0.844c0,1.271,0.146,2.225,0.438,2.859c0.292,0.636,0.787,0.953,1.484,0.953
			s1.195-0.314,1.492-0.945c0.297-0.63,0.445-1.586,0.445-2.867c0-1.26-0.148-2.208-0.445-2.844
			c-0.297-0.635-0.794-0.953-1.492-0.953S-16.49-2.635-16.781-2C-17.073-1.365-17.219-0.416-17.219,0.844z M-10.522,4.797
			c0-0.322,0.078-0.549,0.234-0.68c0.156-0.13,0.344-0.195,0.563-0.195s0.409,0.065,0.57,0.195c0.162,0.131,0.242,0.357,0.242,0.68
			c0,0.313-0.081,0.539-0.242,0.68s-0.352,0.211-0.57,0.211s-0.406-0.07-0.563-0.211S-10.522,5.109-10.522,4.797z M-4.223-3.906
			c0.813,0,1.479,0.19,2,0.57c0.521,0.381,0.781,0.93,0.781,1.648c0,0.375-0.081,0.701-0.242,0.977
			C-1.845-0.435-2.059-0.19-2.324,0.023c-0.266,0.214-0.56,0.404-0.883,0.57c0.385,0.178,0.734,0.381,1.047,0.609
			C-1.848,1.432-1.6,1.698-1.418,2c0.182,0.303,0.273,0.667,0.273,1.094c0,0.781-0.273,1.398-0.82,1.852s-1.284,0.68-2.211,0.68
			c-1,0-1.768-0.219-2.305-0.656S-7.285,3.922-7.285,3.14c0-0.427,0.088-0.797,0.266-1.109s0.412-0.58,0.703-0.805
			c0.292-0.224,0.609-0.414,0.953-0.57c-0.448-0.26-0.831-0.575-1.148-0.945C-6.83-0.658-6.988-1.13-6.988-1.703
			c0-0.479,0.12-0.88,0.359-1.203c0.24-0.322,0.568-0.57,0.984-0.742S-4.754-3.906-4.223-3.906z M-4.238-2.985
			c-0.469,0-0.859,0.115-1.172,0.344c-0.313,0.229-0.469,0.558-0.469,0.984c0,0.323,0.078,0.594,0.234,0.813
			s0.362,0.404,0.617,0.555c0.255,0.151,0.539,0.295,0.852,0.43c0.458-0.188,0.841-0.416,1.148-0.688
			c0.307-0.271,0.461-0.641,0.461-1.109c0-0.427-0.151-0.755-0.453-0.984C-3.322-2.869-3.728-2.985-4.238-2.985z M-6.176,3.14
			c0,0.459,0.162,0.836,0.484,1.133s0.818,0.445,1.484,0.445c0.635,0,1.12-0.148,1.453-0.445s0.5-0.685,0.5-1.164
			c0-0.447-0.177-0.822-0.531-1.125c-0.354-0.302-0.828-0.563-1.422-0.781L-4.41,1.125c-0.573,0.24-1.01,0.519-1.313,0.836
			C-6.025,2.279-6.176,2.672-6.176,3.14z"/>
	</g>
	<g transform="translate(67.7222,95)">
		<path fill="#262626" d="M-3.391,5.5H-4.5v-6.484c0-0.375,0.002-0.674,0.008-0.898c0.005-0.224,0.018-0.461,0.039-0.711
			c-0.135,0.146-0.26,0.266-0.375,0.359S-5.084-2.021-5.25-1.875l-1,0.813l-0.594-0.766l2.516-1.953h0.938V5.5z"/>
	</g>
	<g transform="translate(67.7222,34)">
		<path fill="#262626" d="M-14.391,5.5H-15.5v-6.484c0-0.375,0.002-0.674,0.008-0.898c0.005-0.224,0.018-0.461,0.039-0.711
			c-0.135,0.146-0.26,0.266-0.375,0.359s-0.255,0.214-0.422,0.359l-1,0.813l-0.594-0.766l2.516-1.953h0.938V5.5z M-10.522,4.797
			c0-0.322,0.078-0.549,0.234-0.68c0.156-0.13,0.344-0.195,0.563-0.195s0.409,0.065,0.57,0.195c0.162,0.131,0.242,0.357,0.242,0.68
			c0,0.313-0.081,0.539-0.242,0.68s-0.352,0.211-0.57,0.211s-0.406-0.07-0.563-0.211S-10.522,5.109-10.522,4.797z M-1.16,5.5h-6.141
			V4.547l2.438-2.453c0.458-0.469,0.849-0.885,1.172-1.25c0.323-0.364,0.568-0.721,0.734-1.07c0.167-0.349,0.25-0.731,0.25-1.148
			c0-0.51-0.154-0.898-0.461-1.164s-0.701-0.398-1.18-0.398c-0.448,0-0.844,0.078-1.188,0.234s-0.693,0.375-1.047,0.656
			l-0.609-0.766c0.365-0.313,0.781-0.572,1.25-0.781c0.469-0.208,1-0.313,1.594-0.313c0.865,0,1.549,0.219,2.055,0.656
			s0.758,1.042,0.758,1.813c0,0.479-0.102,0.933-0.305,1.359c-0.203,0.428-0.482,0.847-0.836,1.258
			C-3.03,1.592-3.447,2.031-3.926,2.5l-1.938,1.906v0.047h4.703V5.5z"/>
	</g>
	<g transform="translate(44.7639,216.9998) rotate(-90)">
		<path fill="#262626" d="M-32.703-15.703c1.396,0,2.414,0.273,3.055,0.82c0.641,0.547,0.961,1.32,0.961,2.32
			c0,0.594-0.133,1.148-0.398,1.665c-0.266,0.515-0.711,0.932-1.336,1.25c-0.625,0.317-1.474,0.476-2.547,0.476h-1.219V-5h-1.359
			v-10.703H-32.703z M-32.828-14.563h-1.359v4.235h1.078c1.021,0,1.781-0.164,2.281-0.493c0.5-0.328,0.75-0.888,0.75-1.68
			c0-0.687-0.222-1.203-0.664-1.547C-31.185-14.391-31.88-14.563-32.828-14.563z M-23.189-13.188c0.146,0,0.307,0.008,0.484,0.023
			c0.177,0.016,0.328,0.039,0.453,0.07l-0.156,1.204c-0.136-0.032-0.281-0.055-0.438-0.07c-0.156-0.016-0.303-0.024-0.438-0.024
			c-0.417,0-0.805,0.112-1.164,0.336c-0.359,0.224-0.646,0.539-0.859,0.945c-0.214,0.406-0.32,0.875-0.32,1.406V-5h-1.313v-8.047
			h1.078l0.141,1.484h0.063c0.26-0.448,0.596-0.831,1.008-1.148C-24.239-13.029-23.752-13.188-23.189-13.188z M-13.962-9.031
			c0,1.323-0.339,2.351-1.016,3.085c-0.678,0.734-1.589,1.102-2.734,1.102c-0.709,0-1.342-0.164-1.898-0.492
			c-0.558-0.328-0.995-0.805-1.313-1.43c-0.318-0.625-0.477-1.38-0.477-2.266c0-1.333,0.333-2.359,1-3.079
			c0.666-0.719,1.578-1.078,2.734-1.078c0.729,0,1.369,0.162,1.922,0.485c0.552,0.323,0.986,0.792,1.305,1.406
			C-14.121-10.682-13.962-9.927-13.962-9.031z M-20.04-9.031c0,0.948,0.188,1.7,0.563,2.258c0.375,0.557,0.974,0.835,1.797,0.835
			c0.813,0,1.408-0.278,1.789-0.835c0.38-0.558,0.57-1.31,0.57-2.258c0-0.948-0.19-1.693-0.57-2.234
			c-0.381-0.542-0.982-0.813-1.805-0.813c-0.823,0-1.42,0.271-1.789,0.813C-19.855-10.724-20.04-9.979-20.04-9.031z M-10.854-13.625
			c0,0.344-0.008,0.662-0.023,0.953c-0.016,0.292-0.034,0.526-0.055,0.703h0.078c0.229-0.344,0.544-0.63,0.945-0.859
			c0.4-0.229,0.914-0.344,1.539-0.344c1,0,1.805,0.347,2.414,1.039c0.609,0.693,0.914,1.732,0.914,3.118
			c0,1.375-0.308,2.414-0.922,3.117C-6.579-5.196-7.381-4.844-8.37-4.844c-0.625,0-1.139-0.117-1.539-0.352
			c-0.401-0.234-0.717-0.508-0.945-0.82h-0.109L-11.229-5h-0.938v-11.406h1.313V-13.625z M-8.589-12.078
			c-0.854,0-1.445,0.245-1.773,0.734c-0.328,0.49-0.492,1.25-0.492,2.281V-9c0,0.99,0.161,1.748,0.484,2.273
			c0.322,0.526,0.927,0.789,1.813,0.789c0.719,0,1.255-0.266,1.609-0.797c0.354-0.531,0.531-1.296,0.531-2.296
			C-6.417-11.062-7.142-12.078-8.589-12.078z M-0.212-13.172c0.99,0,1.719,0.214,2.188,0.641c0.469,0.427,0.703,1.114,0.703,2.062
			V-5H1.71L1.46-6.14H1.398C1.054-5.703,0.69-5.378,0.304-5.164c-0.385,0.214-0.922,0.32-1.609,0.32
			c-0.729,0-1.333-0.192-1.813-0.578c-0.479-0.385-0.719-0.989-0.719-1.813c0-0.802,0.315-1.419,0.945-1.851
			c0.631-0.433,1.602-0.669,2.914-0.711l1.359-0.047v-0.484c0-0.667-0.143-1.13-0.43-1.391c-0.286-0.26-0.695-0.391-1.227-0.391
			c-0.427,0-0.831,0.063-1.211,0.188S-2.217-11.656-2.54-11.5l-0.406-0.984c0.344-0.188,0.758-0.349,1.242-0.484
			C-1.22-13.104-0.722-13.172-0.212-13.172z M0.179-8.89c-1,0.042-1.689,0.203-2.07,0.484c-0.38,0.281-0.57,0.677-0.57,1.187
			c0,0.448,0.136,0.776,0.406,0.984c0.271,0.208,0.625,0.313,1.063,0.313c0.677,0,1.239-0.188,1.688-0.563s0.672-0.948,0.672-1.718
			v-0.735L0.179-8.89z M6.21-13.625c0,0.344-0.008,0.662-0.023,0.953c-0.016,0.292-0.033,0.526-0.055,0.703H6.21
			c0.229-0.344,0.545-0.63,0.945-0.859c0.401-0.229,0.914-0.344,1.539-0.344c1,0,1.805,0.347,2.414,1.039
			c0.609,0.693,0.914,1.732,0.914,3.118c0,1.375-0.307,2.414-0.922,3.117c-0.614,0.703-1.416,1.054-2.406,1.054
			c-0.625,0-1.138-0.117-1.539-0.352C6.755-5.43,6.44-5.703,6.21-6.015H6.101L5.835-5H4.898v-11.406H6.21V-13.625z M8.476-12.078
			c-0.854,0-1.445,0.245-1.773,0.734c-0.328,0.49-0.492,1.25-0.492,2.281V-9c0,0.99,0.162,1.748,0.484,2.273
			C7.018-6.2,7.622-5.938,8.507-5.938c0.719,0,1.256-0.266,1.609-0.797c0.354-0.531,0.531-1.296,0.531-2.296
			C10.648-11.062,9.924-12.078,8.476-12.078z M14.494-16.063c0.197,0,0.375,0.068,0.531,0.203c0.156,0.136,0.234,0.349,0.234,0.641
			c0,0.281-0.078,0.492-0.234,0.633c-0.156,0.14-0.334,0.21-0.531,0.21c-0.219,0-0.404-0.07-0.555-0.21
			c-0.151-0.141-0.227-0.352-0.227-0.633c0-0.292,0.075-0.505,0.227-0.641C14.09-15.995,14.275-16.063,14.494-16.063z
			 M15.135-13.047V-5h-1.313v-8.047H15.135z M18.878-5h-1.313v-11.406h1.313V-5z M21.982-16.063c0.198,0,0.375,0.068,0.531,0.203
			c0.156,0.136,0.234,0.349,0.234,0.641c0,0.281-0.078,0.492-0.234,0.633c-0.156,0.14-0.333,0.21-0.531,0.21
			c-0.219,0-0.403-0.07-0.555-0.21c-0.15-0.141-0.227-0.352-0.227-0.633c0-0.292,0.076-0.505,0.227-0.641
			C21.578-15.995,21.763-16.063,21.982-16.063z M22.622-13.047V-5H21.31v-8.047H22.622z M27.726-5.938
			c0.208,0,0.417-0.016,0.625-0.047c0.208-0.031,0.375-0.067,0.5-0.109v1c-0.136,0.073-0.333,0.133-0.594,0.18
			s-0.511,0.07-0.75,0.07c-0.417,0-0.802-0.073-1.156-0.219c-0.354-0.146-0.644-0.398-0.867-0.758
			c-0.224-0.359-0.336-0.867-0.336-1.523v-4.671h-1.141v-0.641l1.156-0.516l0.531-1.718h0.781v1.843h2.328v1.032h-2.328v4.64
			c0,0.49,0.117,0.852,0.352,1.086S27.361-5.938,27.726-5.938z M29.026-13.047h1.406l1.75,4.578
			c0.146,0.406,0.279,0.792,0.398,1.156c0.12,0.365,0.211,0.708,0.273,1.032h0.063c0.053-0.25,0.144-0.576,0.273-0.977
			c0.131-0.401,0.269-0.81,0.414-1.227l1.625-4.563h1.438L33.198-3.89c-0.281,0.76-0.643,1.364-1.086,1.813
			c-0.442,0.448-1.055,0.672-1.836,0.672c-0.239,0-0.45-0.011-0.633-0.032c-0.182-0.021-0.336-0.047-0.461-0.078v-1.047
			c0.104,0.011,0.234,0.026,0.391,0.047c0.156,0.021,0.318,0.031,0.484,0.031c0.459,0,0.831-0.13,1.117-0.391
			c0.287-0.26,0.508-0.604,0.664-1.031l0.422-1.063L29.026-13.047z"/>
	</g>
	<g transform="translate(73,30)">
		<path fill="#262626" d="M1.906-0.375c0-0.063,0.021-0.125,0.063-0.188L4.672-3.25L1.969-5.953
			C1.927-5.994,1.906-6.052,1.906-6.125c0-0.063,0.026-0.122,0.078-0.18c0.052-0.057,0.115-0.086,0.188-0.086
			c0.063,0,0.13,0.031,0.203,0.094L5.063-3.61l2.672-2.688C7.807-6.36,7.87-6.391,7.922-6.391c0.073,0,0.135,0.026,0.188,0.078
			C8.162-6.26,8.188-6.198,8.188-6.125c0,0.073-0.021,0.131-0.063,0.172L5.422-3.25l2.703,2.688C8.167-0.5,8.188-0.438,8.188-0.375
			c0,0.073-0.026,0.136-0.078,0.188C8.057-0.135,7.995-0.11,7.922-0.11c-0.063,0-0.125-0.031-0.188-0.094L5.063-2.891L2.375-0.203
			C2.302-0.141,2.234-0.11,2.172-0.11c-0.073,0-0.135-0.028-0.188-0.086C1.932-0.252,1.906-0.313,1.906-0.375z"/>
	</g>
	<g transform="translate(84,30)">
		<path fill="#262626" d="M4.609,0H3.5v-6.484c0-0.375,0.002-0.674,0.008-0.898c0.005-0.224,0.018-0.461,0.039-0.711
			c-0.135,0.146-0.26,0.266-0.375,0.359S2.917-7.521,2.75-7.375l-1,0.813L1.156-7.328l2.516-1.953h0.938V0z M14.338-4.656
			c0,1-0.104,1.857-0.313,2.57c-0.208,0.714-0.537,1.261-0.984,1.641c-0.448,0.381-1.047,0.57-1.797,0.57
			c-1.052,0-1.826-0.422-2.32-1.266S8.182-3.156,8.182-4.656c0-1,0.102-1.856,0.305-2.57C8.689-7.94,9.015-8.485,9.463-8.86
			s1.042-0.563,1.781-0.563c1.042,0,1.818,0.417,2.328,1.25C14.083-7.338,14.338-6.166,14.338-4.656z M9.322-4.656
			c0,1.271,0.146,2.225,0.438,2.859c0.292,0.636,0.787,0.953,1.484,0.953s1.195-0.314,1.492-0.945
			c0.297-0.63,0.445-1.586,0.445-2.867c0-1.26-0.148-2.208-0.445-2.844c-0.297-0.635-0.794-0.953-1.492-0.953S10.051-8.135,9.76-7.5
			C9.468-6.865,9.322-5.916,9.322-4.656z"/>
	</g>
	<g transform="translate(100,24)">
		<path fill="#262626" d="M0.438-2.516v-0.859h2.672v0.859H0.438z M8.817-6.016c0,0.531-0.146,0.951-0.438,1.258
			C8.088-4.45,7.692-4.244,7.192-4.141v0.047C7.817-4.021,8.286-3.823,8.598-3.5c0.313,0.323,0.469,0.745,0.469,1.266
			c0,0.459-0.106,0.865-0.32,1.219C8.533-0.661,8.205-0.385,7.762-0.188C7.319,0.01,6.749,0.109,6.051,0.109
			c-0.417,0-0.799-0.031-1.148-0.094C4.554-0.047,4.218-0.156,3.895-0.313v-0.906c0.323,0.156,0.677,0.281,1.063,0.375
			s0.75,0.141,1.094,0.141c0.708,0,1.219-0.138,1.531-0.414C7.895-1.393,8.051-1.771,8.051-2.25c0-0.489-0.192-0.844-0.578-1.063
			C7.088-3.531,6.546-3.641,5.848-3.641H5.083v-0.828h0.781c0.646,0,1.135-0.135,1.469-0.406c0.333-0.271,0.5-0.63,0.5-1.078
			c0-0.375-0.13-0.669-0.391-0.883c-0.26-0.213-0.609-0.32-1.047-0.32c-0.427,0-0.789,0.063-1.086,0.188S4.713-6.682,4.411-6.485
			L3.926-7.156c0.281-0.219,0.63-0.408,1.047-0.57C5.39-7.888,5.858-7.969,6.379-7.969c0.823,0,1.435,0.186,1.836,0.555
			C8.617-7.044,8.817-6.578,8.817-6.016z"/>
	</g>
	<g>
		<path fill="none" stroke="#0000FF" stroke-width="2.6389" stroke-linejoin="round" stroke-miterlimit="10" d="M123.096,361.609
			l1.928-23.265l1.927-26.114l1.928-26.186l1.928-25.693l1.928-26.992l1.928-30.169l1.928-32.816l1.928-31.969l1.927-26.08
			l1.928-15.957l1.928-4.349l1.928,5.456l1.928,11.275l1.928,12.747l1.928,11.008l1.927,7.995l1.928,5.679l1.928,5.211l1.928,6.424
			l1.928,8.078l1.928,8.716l1.928,7.452l1.928,4.542l1.928,1.289l1.927-0.896l1.928-1.617l1.928-1.534l1.928-1.05l1.928,0.236
			l1.928,2.626l1.928,5.071l1.927,5.755l1.928,3.738l1.928-0.326l1.928-4.7l1.928-7.609l1.928-8.16l1.928-6.754l1.927-4.49
			l1.928-2.069l1.928,0.457l1.928,3.073l1.928,5.233l1.928,6.382l1.928,6.734l1.927,7.313l1.928,8.692l1.928,9.986l1.928,9.564
			l1.928,6.77l1.928,2.535l1.928-1.623l1.928-4.474l1.928-5.248l1.927-4.043l1.928-2.103l1.928-0.92l1.928-0.752l1.928-0.406
			l1.928,1.126l1.928,3.475l1.928,5.31l1.927,5.692l1.928,4.805l1.928,3.621l1.928,3.066l1.928,3.468l1.928,4.521l1.928,5.582
			l1.927,6.125l1.928,5.937l1.928,5.089l1.928,3.699l1.928,1.955l1.928,0.324l1.928-0.479l1.927-0.065l1.928,1.263l1.928,2.853
			l1.928,4.254l1.928,5.277l1.928,5.726l1.928,5.4l1.928,4.3l1.928,2.554l1.927,0.323l1.928-1.998l1.928-3.685l1.928-3.908
			l1.928-2.241l1.928,0.932l1.928,4.314l1.928,6.354l1.928,6.438l1.928,5.418l1.928,4.69l1.928,4.889l1.928,5.56l1.928,5.816
			l1.928,4.995l1.928,3.041l1.928,0.579l1.928-1.329l1.927-1.843l1.928-0.842l1.928,1.046l1.928,2.873l1.928,3.849l1.928,3.597
			l1.928,2.137l1.928-0.088l1.928-2.173l1.928-3.169l1.928-2.792l1.928-1.689l1.928-0.75l1.928-0.22l1.928,0.408l1.928,1.587
			l1.927,2.951l1.928,3.623l1.928,3.146l1.928,2.02l1.928,1.159l1.928,0.986l1.928,1.132l1.928,0.926l1.928,0.192l1.928-0.441
			l1.928-0.086l1.928,1.471l1.928,3.326l1.928,4.126l1.927,3.152l1.928,0.912l1.928-1.379l1.928-2.717l1.928-2.884l1.928-2.193
			l1.928-1.01l1.928,0.407l1.928,1.775l1.928,2.773l1.928,3.187l1.928,2.997l1.928,2.369l1.928,1.547l1.928,0.79l1.928,0.282
			l1.928,0.078l1.927,0.104l1.928,0.188l1.928,0.239l1.928,0.342l1.928,0.618l1.928,0.977l1.928,1.122l1.928,0.88l1.928,0.389
			l1.928-0.087l1.928-0.433l1.928-0.684l1.928-0.8l1.927-0.642l1.928-0.182l1.928,0.359l1.928,0.674l1.928,0.617l1.928,0.335
			l1.928,0.174l1.928,0.41l1.928,0.974l1.928,1.445l1.928,1.434l1.928,0.921l1.928,0.233l1.928-0.307l1.928-0.546l1.928-0.47
			l1.928-0.165l1.927,0.154l1.928,0.283l1.928,0.237l1.928,0.266l1.928,0.517l1.928,0.777l1.928,0.633l1.928-0.093l1.928-1.081
			l1.928-1.682l1.928-1.391l1.928-0.27l1.928,1.058l1.928,1.866l1.927,1.849l1.928,1.258l1.928,0.597l1.928,0.232l1.928,0.212"/>
		<path fill="none" stroke="#FF0000" stroke-width="2.6389" stroke-linejoin="round" stroke-miterlimit="10" d="M123.096,371.824
			l1.928-16.403l1.927-20.745l1.928-24.596l1.928-27.901l1.928-31l1.928-34.113l1.928-36.641l1.928-37.114l1.927-33.952
			l1.928-26.554l1.928-15.839l1.928-4.126l1.928,5.885l1.928,12.655l1.928,16.338l1.927,17.584l1.928,16.366l1.928,12.75
			l1.928,8.448l1.928,6.247l1.928,7.19l1.928,9.197l1.928,9.089l1.928,5.677l1.927,0.607l1.928-3.544l1.928-5.383l1.928-5.087
			l1.928-3.642l1.928-1.885l1.928-0.143l1.927,1.944l1.928,5.026l1.928,9.338l1.928,13.946l1.928,16.789l1.928,15.8l1.928,10.265
			l1.927,1.277l1.928-8.917l1.928-17.515l1.928-21.812l1.928-20.265l1.928-13.847l1.928-5.651l1.927,1.206l1.928,5.318l1.928,6.965
			l1.928,7.322l1.928,7.732l1.928,8.979l1.928,10.334l1.928,9.966l1.928,6.688l1.927,1.73l1.928-1.84l1.928-1.515l1.928,2.699
			l1.928,8.14l1.928,11.282l1.928,9.928l1.928,4.792l1.927-1.001l1.928-4.185l1.928-3.776l1.928-1.409l1.928,0.492l1.928,0.892
			l1.928,0.509l1.927,0.553l1.928,1.402l1.928,2.792l1.928,4.422l1.928,6.037l1.928,7.198l1.928,7.212l1.927,5.424l1.928,1.847
			l1.928-1.821l1.928-2.575l1.928,1.353l1.928,8.2l1.928,13.679l1.928,14.465l1.928,10.433l1.927,4.123l1.928-1.403l1.928-4.163
			l1.928-3.745l1.928-1.191l1.928,1.641l1.928,3.094l1.928,2.704l1.928,1.347l1.928,0.42l1.928,0.787l1.928,2.22l1.928,3.625
			l1.928,3.99l1.928,3.278l1.928,2.233l1.928,1.325l1.928,0.277l1.927-1.183l1.928-2.366l1.928-2.049l1.928,0.092l1.928,2.775
			l1.928,4.059l1.928,3.059l1.928,0.616l1.928-1.504l1.928-1.906l1.928-0.356l1.928,2.243l1.928,4.555l1.928,5.597l1.928,5.143
			l1.928,3.478l1.927,0.907l1.928-2.259l1.928-5.307l1.928-7.007l1.928-6.302l1.928-3.25l1.928,0.874l1.928,4.409l1.928,6.212
			l1.928,5.987l1.928,4.173l1.928,1.612l1.928-0.832l1.928-2.558l1.927-3.245l1.928-2.699l1.928-0.983l1.928,1.363l1.928,3.368
			l1.928,4.157l1.928,3.613l1.928,2.416l1.928,1.428l1.928,0.982l1.928,0.825l1.928,0.661l1.928,0.505l1.928,0.483l1.928,0.521
			l1.928,0.404l1.928,0.012l1.927-0.573l1.928-1.203l1.928-1.685l1.928-1.785l1.928-1.26l1.928-0.073l1.928,1.426l1.928,2.603
			l1.928,3.004l1.928,2.701l1.928,2.119l1.928,1.565l1.928,0.984l1.927,0.183l1.928-0.856l1.928-1.84l1.928-2.246l1.928-1.673
			l1.928-0.263l1.928,1.196l1.928,1.743l1.928,1.046l1.928-0.288l1.928-1.166l1.928-0.881l1.928,0.374l1.928,1.741l1.928,2.409
			l1.928,2.112l1.928,1.111l1.927-0.163l1.928-1.365l1.928-2.293l1.928-2.813l1.928-2.743l1.928-1.906l1.928-0.407l1.928,1.185
			l1.928,2.16l1.928,2.196l1.928,1.529l1.928,0.65l1.928-0.003l1.928-0.16l1.927,0.217l1.928,0.898l1.928,1.539l1.928,1.886
			l1.928,1.897"/>
		<path fill="none" stroke="#000000" stroke-width="2.6389" stroke-linejoin="round" stroke-miterlimit="10" d="M123.096,371.025
			l1.928-18.387l1.927-23.892l1.928-28.783l1.928-32.442l1.928-34.01l1.928-32.463l1.928-27.492l1.928-20.27l1.927-13.088
			l1.928-7.643l1.928-3.988l1.928-1.065l1.928,1.813l1.928,4.449l1.928,6.229l1.927,6.596l1.928,5.484l1.928,3.805l1.928,3.074
			l1.928,3.883l1.928,4.914l1.928,4.232l1.928,1.46l1.928-1.74l1.927-3.111l1.928-1.58l1.928,2.026l1.928,5.59l1.928,7.183
			l1.928,6.051l1.928,2.884l1.927-0.516l1.928-1.916l1.928,0.002l1.928,4.369l1.928,8.424l1.928,9.52l1.928,7.095l1.927,2.859
			l1.928-0.819l1.928-2.976l1.928-4.338l1.928-5.811l1.928-6.898l1.928-6.107l1.927-2.773l1.928,1.924l1.928,5.837l1.928,7.524
			l1.928,6.973l1.928,5.212l1.928,3.45l1.928,2.373l1.928,1.835l1.927,1.265l1.928,0.536l1.928,0.211l1.928,0.917l1.928,2.719
			l1.928,4.93l1.928,6.659l1.928,7.271l1.927,6.539l1.928,4.51l1.928,1.544l1.928-1.456l1.928-3.139l1.928-2.428l1.928,0.433
			l1.927,3.699l1.928,5.451l1.928,5.135l1.928,3.727l1.928,2.387l1.928,1.542l1.928,0.932l1.927,0.298l1.928-0.282l1.928-0.33
			l1.928,0.748l1.928,3.088l1.928,5.934l1.928,7.957l1.928,8.157l1.928,6.598l1.927,4.169l1.928,1.618l1.928-0.896l1.928-3.275
			l1.928-4.779l1.928-4.205l1.928-1.035l1.928,3.663l1.928,7.566l1.928,8.663l1.928,6.703l1.928,3.221l1.928,0.249l1.928-0.963
			l1.928-0.489l1.928,0.524l1.928,0.863l1.928,0.379l1.927-0.032l1.928,0.432l1.928,1.552l1.928,2.557l1.928,3.185l1.928,3.705
			l1.928,4.196l1.928,4.16l1.928,3.042l1.928,0.922l1.928-1.349l1.928-2.636l1.928-2.235l1.928-0.428l1.928,1.637l1.928,2.686
			l1.927,2.213l1.928,0.722l1.928-0.846l1.928-1.784l1.928-1.829l1.928-0.977l1.928,0.574l1.928,2.362l1.928,3.708l1.928,4.073
			l1.928,3.457l1.928,2.402l1.928,1.573l1.928,1.238l1.927,1.043l1.928,0.397l1.928-1.028l1.928-2.797l1.928-3.943l1.928-3.675
			l1.928-2.079l1.928-0.056l1.928,1.419l1.928,1.893l1.928,1.574l1.928,1.028l1.928,0.808l1.928,1.078l1.928,1.563l1.928,1.843
			l1.928,1.722l1.927,1.3l1.928,0.78l1.928,0.32l1.928,0.017l1.928-0.134l1.928-0.216l1.928-0.283l1.928-0.226l1.928,0.131
			l1.928,0.77l1.928,1.367l1.928,1.548l1.928,1.321l1.927,1.099l1.928,1.244l1.928,1.607l1.928,1.717l1.928,1.344l1.928,0.754
			l1.928,0.384l1.928,0.375l1.928,0.529l1.928,0.593l1.928,0.466l1.928,0.178l1.928-0.15l1.928-0.318l1.928-0.135l1.928,0.396
			l1.928,0.993l1.927,1.284l1.928,1.067l1.928,0.419l1.928-0.439l1.928-1.304l1.928-1.982l1.928-2.241l1.928-1.921l1.928-1.135
			l1.928-0.272l1.928,0.304l1.928,0.55l1.928,0.688l1.928,0.887l1.927,1.101l1.928,1.22l1.928,1.278l1.928,1.429l1.928,1.709"/>
	</g>
	<g transform="translate(393.4017,55.5)">
		<path d="M6.031,2.203c0,0.761-0.275,1.354-0.828,1.781C4.651,4.412,3.906,4.625,2.968,4.625c-0.479,0-0.924-0.036-1.336-0.109
			C1.221,4.443,0.881,4.344,0.609,4.219V3.187c0.292,0.125,0.651,0.24,1.078,0.344c0.428,0.104,0.87,0.156,1.328,0.156
			c0.636,0,1.115-0.125,1.438-0.375c0.323-0.25,0.484-0.588,0.484-1.016c0-0.271-0.06-0.502-0.18-0.695
			C4.638,1.409,4.432,1.229,4.14,1.062C3.849,0.896,3.443,0.724,2.922,0.547C2.203,0.276,1.656-0.052,1.281-0.438
			C0.906-0.823,0.718-1.344,0.718-2c0-0.458,0.117-0.849,0.352-1.172c0.234-0.322,0.558-0.572,0.969-0.75
			c0.412-0.177,0.883-0.266,1.414-0.266c0.469,0,0.901,0.045,1.297,0.133C5.146-3.966,5.5-3.849,5.812-3.703L5.484-2.781
			c-0.291-0.125-0.611-0.231-0.961-0.32C4.174-3.19,3.812-3.235,3.437-3.235c-0.541,0-0.947,0.112-1.219,0.336
			C1.948-2.674,1.812-2.369,1.812-1.985c0,0.281,0.061,0.519,0.18,0.711c0.12,0.193,0.315,0.365,0.586,0.516
			c0.271,0.151,0.641,0.315,1.109,0.492c0.5,0.188,0.925,0.386,1.273,0.594c0.35,0.209,0.615,0.461,0.797,0.758
			C5.94,1.383,6.031,1.756,6.031,2.203z M10.595-2.047c0.792,0,1.43,0.276,1.914,0.828c0.484,0.553,0.727,1.381,0.727,2.484
			c0,1.104-0.242,1.94-0.727,2.508c-0.484,0.568-1.128,0.852-1.93,0.852c-0.489,0-0.896-0.094-1.219-0.281S8.783,3.937,8.595,3.687
			H8.517c0.021,0.136,0.039,0.308,0.055,0.516c0.016,0.209,0.023,0.386,0.023,0.531v2.641H7.533v-9.313h0.875l0.141,0.875h0.047
			c0.188-0.271,0.438-0.502,0.75-0.695C9.658-1.95,10.075-2.047,10.595-2.047z M10.408-1.156c-0.656,0-1.12,0.183-1.391,0.547
			C8.747-0.244,8.606,0.312,8.595,1.062v0.203c0,0.792,0.13,1.404,0.391,1.836C9.247,3.534,9.725,3.75,10.423,3.75
			c0.396,0,0.719-0.109,0.969-0.328s0.438-0.513,0.563-0.883c0.125-0.369,0.188-0.794,0.188-1.273c0-0.739-0.141-1.328-0.422-1.766
			S11.002-1.156,10.408-1.156z M15.381-4.344c0.156,0,0.297,0.055,0.422,0.164s0.188,0.279,0.188,0.508
			c0,0.219-0.063,0.386-0.188,0.5C15.677-3.057,15.537-3,15.381-3c-0.177,0-0.325-0.057-0.445-0.172
			c-0.119-0.114-0.18-0.281-0.18-0.5c0-0.229,0.061-0.398,0.18-0.508C15.055-4.289,15.204-4.344,15.381-4.344z M15.896-1.938V4.5
			h-1.063v-6.438H15.896z M20.99-2.047c0.771,0,1.353,0.186,1.743,0.555c0.39,0.37,0.585,0.972,0.585,1.805V4.5h-1.03V0.39
			c0-1.031-0.484-1.547-1.453-1.547c-0.709,0-1.198,0.198-1.47,0.594c-0.271,0.396-0.405,0.969-0.405,1.719V4.5h-1.063v-6.438h0.858
			l0.157,0.875h0.063c0.208-0.333,0.494-0.58,0.859-0.742C20.199-1.966,20.584-2.047,20.99-2.047z M27.514,4.625
			c-0.802,0-1.442-0.278-1.922-0.836c-0.479-0.557-0.719-1.388-0.719-2.492c0-1.104,0.242-1.938,0.727-2.5s1.128-0.844,1.93-0.844
			c0.5,0,0.906,0.092,1.219,0.273c0.313,0.183,0.567,0.404,0.766,0.664h0.078c-0.011-0.104-0.026-0.258-0.047-0.461
			s-0.031-0.361-0.031-0.477v-2.578h1.063V4.5h-0.844L29.577,3.64h-0.063c-0.188,0.271-0.44,0.503-0.758,0.695
			C28.439,4.529,28.025,4.625,27.514,4.625z M27.686,3.75c0.677,0,1.153-0.188,1.43-0.563S29.53,2.25,29.53,1.5V1.312
			c0-0.802-0.13-1.416-0.391-1.844c-0.261-0.427-0.75-0.641-1.469-0.641c-0.563,0-0.987,0.227-1.273,0.68s-0.43,1.055-0.43,1.805
			c0,0.771,0.144,1.37,0.43,1.797C26.683,3.537,27.113,3.75,27.686,3.75z M33.596,4.5h-1.063v-9.125h1.063V4.5z M38.082-2.047
			c0.552,0,1.025,0.12,1.422,0.359c0.396,0.24,0.7,0.576,0.913,1.008c0.214,0.433,0.321,0.945,0.321,1.539v0.625h-4.406
			c0.021,0.729,0.208,1.284,0.563,1.664c0.354,0.381,0.849,0.57,1.484,0.57c0.416,0,0.781-0.039,1.093-0.117
			c0.313-0.078,0.642-0.185,0.985-0.32v0.922c-0.334,0.146-0.659,0.253-0.978,0.32c-0.317,0.068-0.7,0.102-1.147,0.102
			c-0.604,0-1.141-0.125-1.61-0.375C36.254,4,35.888,3.631,35.629,3.14c-0.261-0.489-0.391-1.094-0.391-1.813
			c0-0.697,0.119-1.299,0.358-1.805c0.24-0.505,0.573-0.893,1-1.164C37.024-1.911,37.519-2.047,38.082-2.047z M38.066-1.188
			c-0.5,0-0.896,0.162-1.188,0.484c-0.292,0.323-0.464,0.771-0.516,1.344h3.266c0-0.541-0.125-0.981-0.375-1.32
			C39.004-1.018,38.607-1.188,38.066-1.188z M46.48,2.719c0,0.625-0.232,1.1-0.695,1.422c-0.464,0.323-1.086,0.484-1.867,0.484
			c-0.448,0-0.834-0.036-1.156-0.109c-0.323-0.072-0.609-0.172-0.859-0.297V3.25c0.26,0.125,0.57,0.242,0.93,0.352
			s0.727,0.164,1.102,0.164c0.541,0,0.932-0.086,1.172-0.258c0.239-0.172,0.359-0.403,0.359-0.695c0-0.156-0.045-0.297-0.133-0.422
			c-0.089-0.125-0.248-0.252-0.477-0.383c-0.229-0.13-0.553-0.273-0.969-0.43c-0.417-0.166-0.773-0.328-1.07-0.484
			s-0.526-0.346-0.688-0.57C41.966,0.3,41.886,0.01,41.886-0.344c0-0.541,0.221-0.961,0.664-1.258
			c0.442-0.297,1.028-0.445,1.758-0.445c0.385,0,0.747,0.037,1.086,0.109c0.338,0.073,0.658,0.178,0.961,0.313l-0.359,0.844
			c-0.271-0.114-0.555-0.211-0.852-0.289s-0.602-0.117-0.914-0.117c-0.438,0-0.769,0.07-0.992,0.211
			c-0.225,0.141-0.336,0.331-0.336,0.57c0,0.178,0.052,0.328,0.156,0.453c0.104,0.125,0.275,0.245,0.516,0.359
			c0.239,0.115,0.567,0.25,0.984,0.406c0.406,0.156,0.752,0.315,1.039,0.477c0.286,0.162,0.505,0.354,0.656,0.578
			C46.404,2.092,46.48,2.375,46.48,2.719z M57.737,1.469c0,0.594-0.122,1.131-0.367,1.609c-0.245,0.479-0.612,0.857-1.102,1.133
			c-0.489,0.276-1.114,0.414-1.875,0.414c-1.063,0-1.872-0.291-2.43-0.875c-0.558-0.583-0.836-1.349-0.836-2.297v-5.516h1.078v5.547
			c0,0.698,0.188,1.24,0.563,1.625c0.375,0.386,0.938,0.578,1.688,0.578c0.771,0,1.331-0.205,1.68-0.617
			c0.349-0.411,0.523-0.945,0.523-1.602v-5.531h1.078V1.469z M62.165-4.063c1.115,0,1.928,0.219,2.438,0.656
			c0.511,0.438,0.766,1.058,0.766,1.859c0,0.469-0.104,0.909-0.313,1.32c-0.208,0.412-0.563,0.745-1.063,1
			c-0.5,0.256-1.177,0.383-2.031,0.383h-0.984V4.5h-1.094v-8.563H62.165z M62.071-3.141h-1.094v3.375h0.859
			c0.813,0,1.42-0.13,1.82-0.391c0.401-0.26,0.602-0.708,0.602-1.344c0-0.552-0.177-0.963-0.531-1.234
			C63.374-3.005,62.821-3.141,62.071-3.141z M77.074-2.047c0.729,0,1.273,0.186,1.633,0.555c0.359,0.37,0.539,0.972,0.539,1.805V4.5
			h-1.047V0.359c0-1.01-0.438-1.516-1.313-1.516c-0.625,0-1.07,0.18-1.336,0.539s-0.398,0.883-0.398,1.57V4.5h-1.047V0.359
			c0-1.01-0.438-1.516-1.313-1.516c-0.656,0-1.106,0.198-1.352,0.594c-0.244,0.396-0.367,0.969-0.367,1.719V4.5h-1.063v-6.438h0.859
			l0.156,0.875h0.063c0.198-0.333,0.467-0.58,0.805-0.742c0.339-0.161,0.701-0.242,1.086-0.242c1.011,0,1.667,0.359,1.969,1.078
			h0.063c0.219-0.375,0.514-0.648,0.883-0.82C76.264-1.961,76.658-2.047,77.074-2.047z"/>
	</g>
	<g>
		
			<line fill="none" stroke="#0000FF" stroke-width="2.6389" stroke-linejoin="round" stroke-miterlimit="10" x1="350.984" y1="55.5" x2="390.413" y2="55.5"/>
	</g>
	<g transform="translate(393.4017,73)">
		<path d="M6.031,2.203c0,0.761-0.275,1.354-0.828,1.781C4.651,4.412,3.906,4.625,2.968,4.625c-0.479,0-0.924-0.036-1.336-0.109
			C1.221,4.443,0.881,4.344,0.609,4.219V3.187c0.292,0.125,0.651,0.24,1.078,0.344c0.428,0.104,0.87,0.156,1.328,0.156
			c0.636,0,1.115-0.125,1.438-0.375c0.323-0.25,0.484-0.588,0.484-1.016c0-0.271-0.06-0.502-0.18-0.695
			C4.638,1.409,4.432,1.229,4.14,1.062C3.849,0.896,3.443,0.724,2.922,0.547C2.203,0.276,1.656-0.052,1.281-0.438
			C0.906-0.823,0.718-1.344,0.718-2c0-0.458,0.117-0.849,0.352-1.172c0.234-0.322,0.558-0.572,0.969-0.75
			c0.412-0.177,0.883-0.266,1.414-0.266c0.469,0,0.901,0.045,1.297,0.133C5.146-3.966,5.5-3.849,5.812-3.703L5.484-2.781
			c-0.291-0.125-0.611-0.231-0.961-0.32C4.174-3.19,3.812-3.235,3.437-3.235c-0.541,0-0.947,0.112-1.219,0.336
			C1.948-2.674,1.812-2.369,1.812-1.985c0,0.281,0.061,0.519,0.18,0.711c0.12,0.193,0.315,0.365,0.586,0.516
			c0.271,0.151,0.641,0.315,1.109,0.492c0.5,0.188,0.925,0.386,1.273,0.594c0.35,0.209,0.615,0.461,0.797,0.758
			C5.94,1.383,6.031,1.756,6.031,2.203z M10.595-2.047c0.792,0,1.43,0.276,1.914,0.828c0.484,0.553,0.727,1.381,0.727,2.484
			c0,1.104-0.242,1.94-0.727,2.508c-0.484,0.568-1.128,0.852-1.93,0.852c-0.489,0-0.896-0.094-1.219-0.281S8.783,3.937,8.595,3.687
			H8.517c0.021,0.136,0.039,0.308,0.055,0.516c0.016,0.209,0.023,0.386,0.023,0.531v2.641H7.533v-9.313h0.875l0.141,0.875h0.047
			c0.188-0.271,0.438-0.502,0.75-0.695C9.658-1.95,10.075-2.047,10.595-2.047z M10.408-1.156c-0.656,0-1.12,0.183-1.391,0.547
			C8.747-0.244,8.606,0.312,8.595,1.062v0.203c0,0.792,0.13,1.404,0.391,1.836C9.247,3.534,9.725,3.75,10.423,3.75
			c0.396,0,0.719-0.109,0.969-0.328s0.438-0.513,0.563-0.883c0.125-0.369,0.188-0.794,0.188-1.273c0-0.739-0.141-1.328-0.422-1.766
			S11.002-1.156,10.408-1.156z M15.381-4.344c0.156,0,0.297,0.055,0.422,0.164s0.188,0.279,0.188,0.508
			c0,0.219-0.063,0.386-0.188,0.5C15.677-3.057,15.537-3,15.381-3c-0.177,0-0.325-0.057-0.445-0.172
			c-0.119-0.114-0.18-0.281-0.18-0.5c0-0.229,0.061-0.398,0.18-0.508C15.055-4.289,15.204-4.344,15.381-4.344z M15.896-1.938V4.5
			h-1.063v-6.438H15.896z M20.99-2.047c0.771,0,1.353,0.186,1.743,0.555c0.39,0.37,0.585,0.972,0.585,1.805V4.5h-1.03V0.39
			c0-1.031-0.484-1.547-1.453-1.547c-0.709,0-1.198,0.198-1.47,0.594c-0.271,0.396-0.405,0.969-0.405,1.719V4.5h-1.063v-6.438h0.858
			l0.157,0.875h0.063c0.208-0.333,0.494-0.58,0.859-0.742C20.199-1.966,20.584-2.047,20.99-2.047z M27.514,4.625
			c-0.802,0-1.442-0.278-1.922-0.836c-0.479-0.557-0.719-1.388-0.719-2.492c0-1.104,0.242-1.938,0.727-2.5s1.128-0.844,1.93-0.844
			c0.5,0,0.906,0.092,1.219,0.273c0.313,0.183,0.567,0.404,0.766,0.664h0.078c-0.011-0.104-0.026-0.258-0.047-0.461
			s-0.031-0.361-0.031-0.477v-2.578h1.063V4.5h-0.844L29.577,3.64h-0.063c-0.188,0.271-0.44,0.503-0.758,0.695
			C28.439,4.529,28.025,4.625,27.514,4.625z M27.686,3.75c0.677,0,1.153-0.188,1.43-0.563S29.53,2.25,29.53,1.5V1.312
			c0-0.802-0.13-1.416-0.391-1.844c-0.261-0.427-0.75-0.641-1.469-0.641c-0.563,0-0.987,0.227-1.273,0.68s-0.43,1.055-0.43,1.805
			c0,0.771,0.144,1.37,0.43,1.797C26.683,3.537,27.113,3.75,27.686,3.75z M33.596,4.5h-1.063v-9.125h1.063V4.5z M38.082-2.047
			c0.552,0,1.025,0.12,1.422,0.359c0.396,0.24,0.7,0.576,0.913,1.008c0.214,0.433,0.321,0.945,0.321,1.539v0.625h-4.406
			c0.021,0.729,0.208,1.284,0.563,1.664c0.354,0.381,0.849,0.57,1.484,0.57c0.416,0,0.781-0.039,1.093-0.117
			c0.313-0.078,0.642-0.185,0.985-0.32v0.922c-0.334,0.146-0.659,0.253-0.978,0.32c-0.317,0.068-0.7,0.102-1.147,0.102
			c-0.604,0-1.141-0.125-1.61-0.375C36.254,4,35.888,3.631,35.629,3.14c-0.261-0.489-0.391-1.094-0.391-1.813
			c0-0.697,0.119-1.299,0.358-1.805c0.24-0.505,0.573-0.893,1-1.164C37.024-1.911,37.519-2.047,38.082-2.047z M38.066-1.188
			c-0.5,0-0.896,0.162-1.188,0.484c-0.292,0.323-0.464,0.771-0.516,1.344h3.266c0-0.541-0.125-0.981-0.375-1.32
			C39.004-1.018,38.607-1.188,38.066-1.188z M46.48,2.719c0,0.625-0.232,1.1-0.695,1.422c-0.464,0.323-1.086,0.484-1.867,0.484
			c-0.448,0-0.834-0.036-1.156-0.109c-0.323-0.072-0.609-0.172-0.859-0.297V3.25c0.26,0.125,0.57,0.242,0.93,0.352
			s0.727,0.164,1.102,0.164c0.541,0,0.932-0.086,1.172-0.258c0.239-0.172,0.359-0.403,0.359-0.695c0-0.156-0.045-0.297-0.133-0.422
			c-0.089-0.125-0.248-0.252-0.477-0.383c-0.229-0.13-0.553-0.273-0.969-0.43c-0.417-0.166-0.773-0.328-1.07-0.484
			s-0.526-0.346-0.688-0.57C41.966,0.3,41.886,0.01,41.886-0.344c0-0.541,0.221-0.961,0.664-1.258
			c0.442-0.297,1.028-0.445,1.758-0.445c0.385,0,0.747,0.037,1.086,0.109c0.338,0.073,0.658,0.178,0.961,0.313l-0.359,0.844
			c-0.271-0.114-0.555-0.211-0.852-0.289s-0.602-0.117-0.914-0.117c-0.438,0-0.769,0.07-0.992,0.211
			c-0.225,0.141-0.336,0.331-0.336,0.57c0,0.178,0.052,0.328,0.156,0.453c0.104,0.125,0.275,0.245,0.516,0.359
			c0.239,0.115,0.567,0.25,0.984,0.406c0.406,0.156,0.752,0.315,1.039,0.477c0.286,0.162,0.505,0.354,0.656,0.578
			C46.404,2.092,46.48,2.375,46.48,2.719z M57.737,1.469c0,0.594-0.122,1.131-0.367,1.609c-0.245,0.479-0.612,0.857-1.102,1.133
			c-0.489,0.276-1.114,0.414-1.875,0.414c-1.063,0-1.872-0.291-2.43-0.875c-0.558-0.583-0.836-1.349-0.836-2.297v-5.516h1.078v5.547
			c0,0.698,0.188,1.24,0.563,1.625c0.375,0.386,0.938,0.578,1.688,0.578c0.771,0,1.331-0.205,1.68-0.617
			c0.349-0.411,0.523-0.945,0.523-1.602v-5.531h1.078V1.469z M62.165-4.063c1.115,0,1.928,0.219,2.438,0.656
			c0.511,0.438,0.766,1.058,0.766,1.859c0,0.469-0.104,0.909-0.313,1.32c-0.208,0.412-0.563,0.745-1.063,1
			c-0.5,0.256-1.177,0.383-2.031,0.383h-0.984V4.5h-1.094v-8.563H62.165z M62.071-3.141h-1.094v3.375h0.859
			c0.813,0,1.42-0.13,1.82-0.391c0.401-0.26,0.602-0.708,0.602-1.344c0-0.552-0.177-0.963-0.531-1.234
			C63.374-3.005,62.821-3.141,62.071-3.141z M73.105-2.047c0.771,0,1.352,0.186,1.742,0.555c0.391,0.37,0.586,0.972,0.586,1.805V4.5
			h-1.031V0.39c0-1.031-0.484-1.547-1.453-1.547c-0.708,0-1.197,0.198-1.469,0.594c-0.271,0.396-0.406,0.969-0.406,1.719V4.5h-1.063
			v-6.438h0.859l0.156,0.875h0.063c0.209-0.333,0.495-0.58,0.859-0.742C72.314-1.966,72.699-2.047,73.105-2.047z M82.942,1.265
			c0,1.073-0.271,1.901-0.813,2.484c-0.542,0.584-1.271,0.875-2.188,0.875c-0.563,0-1.067-0.13-1.516-0.391
			c-0.448-0.26-0.8-0.641-1.055-1.141s-0.383-1.109-0.383-1.828c0-1.063,0.269-1.88,0.805-2.453c0.536-0.572,1.263-0.859,2.18-0.859
			c0.594,0,1.112,0.131,1.555,0.391c0.442,0.261,0.789,0.636,1.039,1.125C82.817-0.041,82.942,0.557,82.942,1.265z M78.083,1.265
			c0,0.761,0.151,1.365,0.453,1.813c0.302,0.448,0.781,0.672,1.438,0.672c0.646,0,1.12-0.224,1.422-0.672
			c0.302-0.447,0.453-1.052,0.453-1.813c0-0.76-0.151-1.354-0.453-1.781c-0.302-0.427-0.781-0.641-1.438-0.641
			s-1.133,0.214-1.43,0.641C78.231-0.088,78.083,0.506,78.083,1.265z M90.125,1.265c0,1.073-0.271,1.901-0.813,2.484
			c-0.542,0.584-1.271,0.875-2.188,0.875c-0.563,0-1.068-0.13-1.516-0.391c-0.448-0.26-0.8-0.641-1.055-1.141
			c-0.256-0.5-0.383-1.109-0.383-1.828c0-1.063,0.268-1.88,0.805-2.453c0.536-0.572,1.263-0.859,2.18-0.859
			c0.594,0,1.111,0.131,1.555,0.391c0.442,0.261,0.789,0.636,1.039,1.125C90-0.041,90.125,0.557,90.125,1.265z M85.265,1.265
			c0,0.761,0.15,1.365,0.453,1.813C86.02,3.526,86.5,3.75,87.156,3.75c0.646,0,1.119-0.224,1.422-0.672
			c0.302-0.447,0.453-1.052,0.453-1.813c0-0.76-0.151-1.354-0.453-1.781c-0.303-0.427-0.781-0.641-1.438-0.641
			s-1.133,0.214-1.43,0.641C85.414-0.088,85.265,0.506,85.265,1.265z M94.806-2.047c0.771,0,1.352,0.186,1.742,0.555
			c0.391,0.37,0.586,0.972,0.586,1.805V4.5h-1.031V0.39c0-1.031-0.484-1.547-1.453-1.547c-0.708,0-1.198,0.198-1.469,0.594
			c-0.271,0.396-0.406,0.969-0.406,1.719V4.5h-1.063v-6.438h0.859l0.156,0.875h0.063c0.208-0.333,0.495-0.58,0.859-0.742
			C94.014-1.966,94.4-2.047,94.806-2.047z"/>
	</g>
	<g>
		
			<line fill="none" stroke="#FF0000" stroke-width="2.6389" stroke-linejoin="round" stroke-miterlimit="10" x1="350.984" y1="73" x2="390.413" y2="73"/>
	</g>
	<g transform="translate(393.4017,90.5)">
		<path d="M6.031,2.203c0,0.761-0.275,1.354-0.828,1.781C4.651,4.412,3.906,4.625,2.968,4.625c-0.479,0-0.924-0.036-1.336-0.109
			C1.221,4.443,0.881,4.344,0.609,4.219V3.187c0.292,0.125,0.651,0.24,1.078,0.344c0.428,0.104,0.87,0.156,1.328,0.156
			c0.636,0,1.115-0.125,1.438-0.375c0.323-0.25,0.484-0.588,0.484-1.016c0-0.271-0.06-0.502-0.18-0.695
			C4.638,1.409,4.432,1.229,4.14,1.062C3.849,0.896,3.443,0.724,2.922,0.547C2.203,0.276,1.656-0.052,1.281-0.438
			C0.906-0.823,0.718-1.344,0.718-2c0-0.458,0.117-0.849,0.352-1.172c0.234-0.322,0.558-0.572,0.969-0.75
			c0.412-0.177,0.883-0.266,1.414-0.266c0.469,0,0.901,0.045,1.297,0.133C5.146-3.966,5.5-3.849,5.812-3.703L5.484-2.781
			c-0.291-0.125-0.611-0.231-0.961-0.32C4.174-3.19,3.812-3.235,3.437-3.235c-0.541,0-0.947,0.112-1.219,0.336
			C1.948-2.674,1.812-2.369,1.812-1.985c0,0.281,0.061,0.519,0.18,0.711c0.12,0.193,0.315,0.365,0.586,0.516
			c0.271,0.151,0.641,0.315,1.109,0.492c0.5,0.188,0.925,0.386,1.273,0.594c0.35,0.209,0.615,0.461,0.797,0.758
			C5.94,1.383,6.031,1.756,6.031,2.203z M10.595-2.047c0.792,0,1.43,0.276,1.914,0.828c0.484,0.553,0.727,1.381,0.727,2.484
			c0,1.104-0.242,1.94-0.727,2.508c-0.484,0.568-1.128,0.852-1.93,0.852c-0.489,0-0.896-0.094-1.219-0.281S8.783,3.937,8.595,3.687
			H8.517c0.021,0.136,0.039,0.308,0.055,0.516c0.016,0.209,0.023,0.386,0.023,0.531v2.641H7.533v-9.313h0.875l0.141,0.875h0.047
			c0.188-0.271,0.438-0.502,0.75-0.695C9.658-1.95,10.075-2.047,10.595-2.047z M10.408-1.156c-0.656,0-1.12,0.183-1.391,0.547
			C8.747-0.244,8.606,0.312,8.595,1.062v0.203c0,0.792,0.13,1.404,0.391,1.836C9.247,3.534,9.725,3.75,10.423,3.75
			c0.396,0,0.719-0.109,0.969-0.328s0.438-0.513,0.563-0.883c0.125-0.369,0.188-0.794,0.188-1.273c0-0.739-0.141-1.328-0.422-1.766
			S11.002-1.156,10.408-1.156z M15.381-4.344c0.156,0,0.297,0.055,0.422,0.164s0.188,0.279,0.188,0.508
			c0,0.219-0.063,0.386-0.188,0.5C15.677-3.057,15.537-3,15.381-3c-0.177,0-0.325-0.057-0.445-0.172
			c-0.119-0.114-0.18-0.281-0.18-0.5c0-0.229,0.061-0.398,0.18-0.508C15.055-4.289,15.204-4.344,15.381-4.344z M15.896-1.938V4.5
			h-1.063v-6.438H15.896z M20.99-2.047c0.771,0,1.353,0.186,1.743,0.555c0.39,0.37,0.585,0.972,0.585,1.805V4.5h-1.03V0.39
			c0-1.031-0.484-1.547-1.453-1.547c-0.709,0-1.198,0.198-1.47,0.594c-0.271,0.396-0.405,0.969-0.405,1.719V4.5h-1.063v-6.438h0.858
			l0.157,0.875h0.063c0.208-0.333,0.494-0.58,0.859-0.742C20.199-1.966,20.584-2.047,20.99-2.047z M27.514,4.625
			c-0.802,0-1.442-0.278-1.922-0.836c-0.479-0.557-0.719-1.388-0.719-2.492c0-1.104,0.242-1.938,0.727-2.5s1.128-0.844,1.93-0.844
			c0.5,0,0.906,0.092,1.219,0.273c0.313,0.183,0.567,0.404,0.766,0.664h0.078c-0.011-0.104-0.026-0.258-0.047-0.461
			s-0.031-0.361-0.031-0.477v-2.578h1.063V4.5h-0.844L29.577,3.64h-0.063c-0.188,0.271-0.44,0.503-0.758,0.695
			C28.439,4.529,28.025,4.625,27.514,4.625z M27.686,3.75c0.677,0,1.153-0.188,1.43-0.563S29.53,2.25,29.53,1.5V1.312
			c0-0.802-0.13-1.416-0.391-1.844c-0.261-0.427-0.75-0.641-1.469-0.641c-0.563,0-0.987,0.227-1.273,0.68s-0.43,1.055-0.43,1.805
			c0,0.771,0.144,1.37,0.43,1.797C26.683,3.537,27.113,3.75,27.686,3.75z M33.596,4.5h-1.063v-9.125h1.063V4.5z M38.082-2.047
			c0.552,0,1.025,0.12,1.422,0.359c0.396,0.24,0.7,0.576,0.913,1.008c0.214,0.433,0.321,0.945,0.321,1.539v0.625h-4.406
			c0.021,0.729,0.208,1.284,0.563,1.664c0.354,0.381,0.849,0.57,1.484,0.57c0.416,0,0.781-0.039,1.093-0.117
			c0.313-0.078,0.642-0.185,0.985-0.32v0.922c-0.334,0.146-0.659,0.253-0.978,0.32c-0.317,0.068-0.7,0.102-1.147,0.102
			c-0.604,0-1.141-0.125-1.61-0.375C36.254,4,35.888,3.631,35.629,3.14c-0.261-0.489-0.391-1.094-0.391-1.813
			c0-0.697,0.119-1.299,0.358-1.805c0.24-0.505,0.573-0.893,1-1.164C37.024-1.911,37.519-2.047,38.082-2.047z M38.066-1.188
			c-0.5,0-0.896,0.162-1.188,0.484c-0.292,0.323-0.464,0.771-0.516,1.344h3.266c0-0.541-0.125-0.981-0.375-1.32
			C39.004-1.018,38.607-1.188,38.066-1.188z M46.48,2.719c0,0.625-0.232,1.1-0.695,1.422c-0.464,0.323-1.086,0.484-1.867,0.484
			c-0.448,0-0.834-0.036-1.156-0.109c-0.323-0.072-0.609-0.172-0.859-0.297V3.25c0.26,0.125,0.57,0.242,0.93,0.352
			s0.727,0.164,1.102,0.164c0.541,0,0.932-0.086,1.172-0.258c0.239-0.172,0.359-0.403,0.359-0.695c0-0.156-0.045-0.297-0.133-0.422
			c-0.089-0.125-0.248-0.252-0.477-0.383c-0.229-0.13-0.553-0.273-0.969-0.43c-0.417-0.166-0.773-0.328-1.07-0.484
			s-0.526-0.346-0.688-0.57C41.966,0.3,41.886,0.01,41.886-0.344c0-0.541,0.221-0.961,0.664-1.258
			c0.442-0.297,1.028-0.445,1.758-0.445c0.385,0,0.747,0.037,1.086,0.109c0.338,0.073,0.658,0.178,0.961,0.313l-0.359,0.844
			c-0.271-0.114-0.555-0.211-0.852-0.289s-0.602-0.117-0.914-0.117c-0.438,0-0.769,0.07-0.992,0.211
			c-0.225,0.141-0.336,0.331-0.336,0.57c0,0.178,0.052,0.328,0.156,0.453c0.104,0.125,0.275,0.245,0.516,0.359
			c0.239,0.115,0.567,0.25,0.984,0.406c0.406,0.156,0.752,0.315,1.039,0.477c0.286,0.162,0.505,0.354,0.656,0.578
			C46.404,2.092,46.48,2.375,46.48,2.719z M57.737,1.469c0,0.594-0.122,1.131-0.367,1.609c-0.245,0.479-0.612,0.857-1.102,1.133
			c-0.489,0.276-1.114,0.414-1.875,0.414c-1.063,0-1.872-0.291-2.43-0.875c-0.558-0.583-0.836-1.349-0.836-2.297v-5.516h1.078v5.547
			c0,0.698,0.188,1.24,0.563,1.625c0.375,0.386,0.938,0.578,1.688,0.578c0.771,0,1.331-0.205,1.68-0.617
			c0.349-0.411,0.523-0.945,0.523-1.602v-5.531h1.078V1.469z M62.165-4.063c1.115,0,1.928,0.219,2.438,0.656
			c0.511,0.438,0.766,1.058,0.766,1.859c0,0.469-0.104,0.909-0.313,1.32c-0.208,0.412-0.563,0.745-1.063,1
			c-0.5,0.256-1.177,0.383-2.031,0.383h-0.984V4.5h-1.094v-8.563H62.165z M62.071-3.141h-1.094v3.375h0.859
			c0.813,0,1.42-0.13,1.82-0.391c0.401-0.26,0.602-0.708,0.602-1.344c0-0.552-0.177-0.963-0.531-1.234
			C63.374-3.005,62.821-3.141,62.071-3.141z M74.199,2.719c0,0.625-0.231,1.1-0.695,1.422c-0.463,0.323-1.086,0.484-1.867,0.484
			c-0.447,0-0.833-0.036-1.156-0.109c-0.322-0.072-0.609-0.172-0.859-0.297V3.25c0.261,0.125,0.57,0.242,0.93,0.352
			s0.727,0.164,1.102,0.164c0.542,0,0.933-0.086,1.172-0.258c0.24-0.172,0.359-0.403,0.359-0.695c0-0.156-0.044-0.297-0.133-0.422
			c-0.088-0.125-0.247-0.252-0.477-0.383c-0.229-0.13-0.552-0.273-0.969-0.43c-0.416-0.166-0.773-0.328-1.07-0.484
			s-0.525-0.346-0.688-0.57C69.686,0.3,69.605,0.01,69.605-0.344c0-0.541,0.222-0.961,0.664-1.258
			c0.443-0.297,1.029-0.445,1.758-0.445c0.386,0,0.748,0.037,1.086,0.109c0.339,0.073,0.659,0.178,0.961,0.313l-0.359,0.844
			c-0.271-0.114-0.555-0.211-0.852-0.289s-0.602-0.117-0.914-0.117c-0.438,0-0.768,0.07-0.992,0.211
			c-0.224,0.141-0.336,0.331-0.336,0.57c0,0.178,0.053,0.328,0.156,0.453c0.104,0.125,0.276,0.245,0.516,0.359
			c0.24,0.115,0.568,0.25,0.984,0.406c0.406,0.156,0.753,0.315,1.039,0.477c0.287,0.162,0.506,0.354,0.656,0.578
			C74.124,2.092,74.199,2.375,74.199,2.719z M81.292,1.265c0,1.073-0.271,1.901-0.813,2.484c-0.541,0.584-1.271,0.875-2.188,0.875
			c-0.563,0-1.067-0.13-1.516-0.391c-0.447-0.26-0.799-0.641-1.055-1.141c-0.255-0.5-0.383-1.109-0.383-1.828
			c0-1.063,0.269-1.88,0.805-2.453c0.537-0.572,1.264-0.859,2.18-0.859c0.594,0,1.112,0.131,1.555,0.391
			c0.443,0.261,0.789,0.636,1.039,1.125C81.167-0.041,81.292,0.557,81.292,1.265z M76.432,1.265c0,0.761,0.151,1.365,0.453,1.813
			c0.303,0.448,0.781,0.672,1.438,0.672c0.646,0,1.12-0.224,1.422-0.672c0.303-0.447,0.453-1.052,0.453-1.813
			c0-0.76-0.15-1.354-0.453-1.781c-0.302-0.427-0.781-0.641-1.438-0.641s-1.133,0.214-1.43,0.641
			C76.581-0.088,76.432,0.506,76.432,1.265z M83.427-4.344c0.156,0,0.297,0.055,0.422,0.164s0.188,0.279,0.188,0.508
			c0,0.219-0.063,0.386-0.188,0.5C83.724-3.057,83.584-3,83.427-3c-0.178,0-0.326-0.057-0.445-0.172
			c-0.12-0.114-0.18-0.281-0.18-0.5c0-0.229,0.06-0.398,0.18-0.508C83.101-4.289,83.25-4.344,83.427-4.344z M83.943-1.938V4.5
			h-1.063v-6.438H83.943z M88.943-2.047c0.125,0,0.258,0.006,0.398,0.016c0.141,0.011,0.264,0.026,0.367,0.047l-0.141,0.969
			c-0.104-0.021-0.219-0.039-0.344-0.055s-0.239-0.023-0.344-0.023c-0.333,0-0.643,0.092-0.93,0.273
			c-0.286,0.183-0.516,0.436-0.688,0.758c-0.172,0.323-0.258,0.698-0.258,1.125V4.5h-1.063v-6.438h0.875l0.109,1.188h0.047
			c0.208-0.354,0.477-0.658,0.805-0.914C88.107-1.919,88.496-2.047,88.943-2.047z"/>
	</g>
	<g>
		
			<line fill="none" stroke="#000000" stroke-width="2.6389" stroke-linejoin="round" stroke-miterlimit="10" x1="350.984" y1="90.5" x2="390.413" y2="90.5"/>
	</g>
</g>
</svg>
