<?xml version="1.0" encoding="utf-8"?>
<!-- Generator: Adobe Illustrator 16.0.0, SVG Export Plug-In . SVG Version: 6.00 Build 0)  -->
<!DOCTYPE svg PUBLIC "-//W3C//DTD SVG 1.1//EN" "http://www.w3.org/Graphics/SVG/1.1/DTD/svg11.dtd">
<svg version="1.1" id="Layer_1" xmlns="http://www.w3.org/2000/svg" xmlns:xlink="http://www.w3.org/1999/xlink" x="0px" y="0px"
	 width="560px" height="420px" viewBox="0 0 560 420" enable-background="new 0 0 560 420" xml:space="preserve">
<g>
	
		<line fill="none" stroke="#262626" stroke-width="0.6597" stroke-linecap="square" stroke-linejoin="round" stroke-miterlimit="10" x1="73" y1="374" x2="507" y2="374"/>
	
		<line fill="none" stroke="#262626" stroke-width="0.6597" stroke-linecap="square" stroke-linejoin="round" stroke-miterlimit="10" x1="73" y1="374" x2="73" y2="369.66"/>
	
		<line fill="none" stroke="#262626" stroke-width="0.6597" stroke-linecap="square" stroke-linejoin="round" stroke-miterlimit="10" x1="127.25" y1="374" x2="127.25" y2="369.66"/>
	
		<line fill="none" stroke="#262626" stroke-width="0.6597" stroke-linecap="square" stroke-linejoin="round" stroke-miterlimit="10" x1="181.5" y1="374" x2="181.5" y2="369.66"/>
	
		<line fill="none" stroke="#262626" stroke-width="0.6597" stroke-linecap="square" stroke-linejoin="round" stroke-miterlimit="10" x1="235.75" y1="374" x2="235.75" y2="369.66"/>
	
		<line fill="none" stroke="#262626" stroke-width="0.6597" stroke-linecap="square" stroke-linejoin="round" stroke-miterlimit="10" x1="290" y1="374" x2="290" y2="369.66"/>
	
		<line fill="none" stroke="#262626" stroke-width="0.6597" stroke-linecap="square" stroke-linejoin="round" stroke-miterlimit="10" x1="344.25" y1="374" x2="344.25" y2="369.66"/>
	
		<line fill="none" stroke="#262626" stroke-width="0.6597" stroke-linecap="square" stroke-linejoin="round" stroke-miterlimit="10" x1="398.5" y1="374" x2="398.5" y2="369.66"/>
	
		<line fill="none" stroke="#262626" stroke-width="0.6597" stroke-linecap="square" stroke-linejoin="round" stroke-miterlimit="10" x1="452.75" y1="374" x2="452.75" y2="369.66"/>
	
		<line fill="none" stroke="#262626" stroke-width="0.6597" stroke-linecap="square" stroke-linejoin="round" stroke-miterlimit="10" x1="73" y1="31" x2="73" y2="35.34"/>
	<g transform="translate(73,379.2778)">
		<text transform="matrix(1 0 0 1 -6 15.0005)" fill="#262626" font-family="'MyriadPro-Regular'" font-size="13.1944">-4</text>
	</g>
	<g transform="translate(127.25,379.2778)">
		<text transform="matrix(1 0 0 1 -6 15.0005)" fill="#262626" font-family="'MyriadPro-Regular'" font-size="13.1944">-3</text>
	</g>
	<g transform="translate(181.5,379.2778)">
		<text transform="matrix(1 0 0 1 -6 15.0005)" fill="#262626" font-family="'MyriadPro-Regular'" font-size="13.1944">-2</text>
	</g>
	<g transform="translate(235.75,379.2778)">
		<text transform="matrix(1 0 0 1 -6 15.0005)" fill="#262626" font-family="'MyriadPro-Regular'" font-size="13.1944">-1</text>
	</g>
	<g transform="translate(290,379.2778)">
		<text transform="matrix(1 0 0 1 -4 15.0005)" fill="#262626" font-family="'MyriadPro-Regular'" font-size="13.1944">0</text>
	</g>
	<g transform="translate(344.25,379.2778)">
		<text transform="matrix(1 0 0 1 -4 15.0005)" fill="#262626" font-family="'MyriadPro-Regular'" font-size="13.1944">1</text>
	</g>
	<g transform="translate(398.5,379.2778)">
		<text transform="matrix(1 0 0 1 -4 15.0005)" fill="#262626" font-family="'MyriadPro-Regular'" font-size="13.1944">2</text>
	</g>
	<g transform="translate(452.75,379.2778)">
		<text transform="matrix(1 0 0 1 -4 15.0005)" fill="#262626" font-family="'MyriadPro-Regular'" font-size="13.1944">3</text>
	</g>
	<g transform="translate(507,379.2778)">
		<text transform="matrix(1 0 0 1 -4 15.0005)" fill="#262626" font-family="'MyriadPro-Regular'" font-size="13.1944">4</text>
	</g>
	
		<line fill="none" stroke="#262626" stroke-width="0.6597" stroke-linecap="square" stroke-linejoin="round" stroke-miterlimit="10" x1="73" y1="374" x2="73" y2="31"/>
	
		<line fill="none" stroke="#262626" stroke-width="0.6597" stroke-linecap="square" stroke-linejoin="round" stroke-miterlimit="10" x1="73" y1="374" x2="77.34" y2="374"/>
	
		<line fill="none" stroke="#262626" stroke-width="0.6597" stroke-linecap="square" stroke-linejoin="round" stroke-miterlimit="10" x1="73" y1="325" x2="77.34" y2="325"/>
	
		<line fill="none" stroke="#262626" stroke-width="0.6597" stroke-linecap="square" stroke-linejoin="round" stroke-miterlimit="10" x1="73" y1="276" x2="77.34" y2="276"/>
	
		<line fill="none" stroke="#262626" stroke-width="0.6597" stroke-linecap="square" stroke-linejoin="round" stroke-miterlimit="10" x1="73" y1="227" x2="77.34" y2="227"/>
	
		<line fill="none" stroke="#262626" stroke-width="0.6597" stroke-linecap="square" stroke-linejoin="round" stroke-miterlimit="10" x1="73" y1="178" x2="77.34" y2="178"/>
	
		<line fill="none" stroke="#262626" stroke-width="0.6597" stroke-linecap="square" stroke-linejoin="round" stroke-miterlimit="10" x1="73" y1="129" x2="77.34" y2="129"/>
	
		<line fill="none" stroke="#262626" stroke-width="0.6597" stroke-linecap="square" stroke-linejoin="round" stroke-miterlimit="10" x1="73" y1="80" x2="77.34" y2="80"/>
	
		<line fill="none" stroke="#262626" stroke-width="0.6597" stroke-linecap="square" stroke-linejoin="round" stroke-miterlimit="10" x1="507" y1="374" x2="502.66" y2="374"/>
	<g transform="translate(67.7222,374)">
		<text transform="matrix(1 0 0 1 -34 5.5)" fill="#262626" font-family="'MyriadPro-Regular'" font-size="13.1944">0.015</text>
	</g>
	<g transform="translate(67.7222,325)">
		<text transform="matrix(1 0 0 1 -27 5.5)" fill="#262626" font-family="'MyriadPro-Regular'" font-size="13.1944">0.02</text>
	</g>
	<g transform="translate(67.7222,276)">
		<text transform="matrix(1 0 0 1 -34 5.5)" fill="#262626" font-family="'MyriadPro-Regular'" font-size="13.1944">0.025</text>
	</g>
	<g transform="translate(67.7222,227)">
		<text transform="matrix(1 0 0 1 -27 5.5)" fill="#262626" font-family="'MyriadPro-Regular'" font-size="13.1944">0.03</text>
	</g>
	<g transform="translate(67.7222,178)">
		<text transform="matrix(1 0 0 1 -34 5.5)" fill="#262626" font-family="'MyriadPro-Regular'" font-size="13.1944">0.035</text>
	</g>
	<g transform="translate(67.7222,129)">
		<text transform="matrix(1 0 0 1 -27 5.5)" fill="#262626" font-family="'MyriadPro-Regular'" font-size="13.1944">0.04</text>
	</g>
	<g transform="translate(67.7222,80)">
		<text transform="matrix(1 0 0 1 -34 5.5)" fill="#262626" font-family="'MyriadPro-Regular'" font-size="13.1944">0.045</text>
	</g>
	<g transform="translate(67.7222,31)">
		<text transform="matrix(1 0 0 1 -27 5.5)" fill="#262626" font-family="'MyriadPro-Regular'" font-size="13.1944">0.05</text>
	</g>
	<g>
		<path fill="none" stroke="#0000FF" stroke-width="2.6389" stroke-linejoin="round" stroke-miterlimit="10" d="M75.148,370.051
			l4.297-2.018l4.297-0.795l4.297,3.329l4.297-2.815l4.297-5.455l4.297-0.035l4.297-6.943l4.297-4.325l4.297-1.528l4.297-5.791
			l4.297-0.234l4.297-6.313l4.297-4.844l4.297-3.745l4.297-1.655l4.297-6.684l4.297,3.739l4.297,1.239l4.297-2.26l4.297,3.688
			l4.297,5.498l4.297-6.352l4.297,3.65l4.297-4.473l4.297,6.978l4.297,5.197l4.297,2.591l4.297-3.233l4.297,1.911l4.297-3.83
			l4.297,0.254l4.297,2.003l4.297-3.325l4.297-3.56l4.297,0.352l4.297-2.743l4.297-3.98l4.297-13.178l4.297-13.825l4.297-13.02
			l4.297-9.26l4.297-15.351l4.297-24.576l4.297-24.587l4.297-24.866l4.297-24.807l4.297-23.876l4.297-12.805l4.297-15.439
			l4.297-3.386l4.297-0.436l4.297-3.048l4.298-0.794l4.297-1.345l4.297,4.901l4.297,19.64l4.297,18.136l4.297,13.427l4.297,17.908
			l4.298,19.424l4.297,10.374l4.297,13.952l4.297,8.564l4.297,6.403l4.297,8.661l4.298,16.818l4.297,13.328l4.297,6.678l4.297,3.795
			l4.297,6.738l4.297,6.133l4.297,8.388l4.298,2.876l4.297,0.863l4.297,5.529l4.297,3.268l4.297,4.959l4.297,2.865l4.298-1.742
			l4.297-2.954l4.297,6.29l4.297,1.555l4.297-0.926l4.297,5.531l4.297,3.744l4.298,5.734l4.297,9.813l4.297,1.911l4.297-1.992
			l4.297,0.301l4.297-0.252l4.298-1.325l4.297,7.929l4.297-0.754l4.297,0.97l4.297,3.909l4.297-0.111l4.298-4.027l4.297-1.852
			l4.297-1.545"/>
		<path fill="none" stroke="#FF0000" stroke-width="2.6389" stroke-linejoin="round" stroke-miterlimit="10" d="M75.148,290.471
			l4.297,0.531l4.297,5.967l4.297-2.936l4.297-3.436l4.297-5.602l4.297-1.978l4.297-0.644l4.297,0.779l4.297,1.287l4.297-0.681
			l4.297-1.536l4.297-0.969l4.297-0.309l4.297-0.09l4.297-5.26l4.297,2.205l4.297,1.102l4.297,4.01l4.297,0.482l4.297-1.447
			l4.297,2.881l4.297-2.586l4.297-2.324l4.297-1.929l4.297-2.755l4.297-4.143l4.297-2.303l4.297-6.508l4.297-8.853l4.297-9.347
			l4.297-6.879l4.297-4.57l4.297-2.502l4.297-9.384l4.297-7.126l4.297-11.168l4.297-12.265l4.297-10.287l4.297-12.861l4.297-13.738
			l4.297-8.492l4.297-16.494l4.297-15.545l4.297-17.457l4.297-14.059l4.297-11.711l4.297-2.276l4.297-6.207l4.297,3.744L290,74.008
			l4.297,6.754l4.297,15.793l4.298,16.835l4.297,10.693l4.297,22.451l4.297,24.82l4.297,22.344l4.297,13.496l4.297,17.214
			l4.298,4.148l4.297,12.89l4.297,8.279l4.297,3.768l4.297,1.602l4.297-1.222l4.298-3.46l4.297,3.831l4.297,0.742l4.297-1.701
			l4.297,1.613l4.297,7.197l4.297,3.088l4.298,4.863l4.297-3.05l4.297-2.386l4.297-0.24l4.297,7.799l4.297,3.605l4.298,1.99
			l4.297,1.641l4.297,1.178l4.297,1.23l4.297,2.383l4.297-0.055l4.297-2.216l4.298,0.558l4.297,4.375l4.297,0.732l4.297,3.125
			l4.297-4.186l4.297-1.12l4.298-7.12l4.297-2.539l4.297,0.019l4.297,1.022l4.297-2.252l4.297-1.715l4.298-1.021l4.297-2.426
			l4.297-3.479"/>
	</g>
	<g>
		<path fill="#FFFFFF" d="M496,80V42h-89v38H496z"/>
	</g>
	<g transform="translate(453.28,52.3636)">
		<text transform="matrix(1 0 0 1 -7.019043e-004 4.5007)" font-family="'MyriadPro-Regular'" font-size="11.875">UP</text>
	</g>
	<g>
		
			<line fill="none" stroke="#0000FF" stroke-width="2.6389" stroke-linejoin="round" stroke-miterlimit="10" x1="410.974" y1="52.364" x2="450.3" y2="52.364"/>
	</g>
	<g transform="translate(453.28,69.6364)">
		<text transform="matrix(1 0 0 1 -7.019043e-004 4.5003)" font-family="'MyriadPro-Regular'" font-size="11.875">DOWN</text>
	</g>
	<g>
		
			<line fill="none" stroke="#FF0000" stroke-width="2.6389" stroke-linejoin="round" stroke-miterlimit="10" x1="410.974" y1="69.636" x2="450.3" y2="69.636"/>
	</g>
	<g>
		<path fill="none" stroke="#262626" stroke-width="0.6597" stroke-miterlimit="10" d="M407,80V42h89v38H407z"/>
	</g>
</g>
</svg>
