<?xml version="1.0" encoding="utf-8"?>
<!-- Generator: Adobe Illustrator 16.0.0, SVG Export Plug-In . SVG Version: 6.00 Build 0)  -->
<!DOCTYPE svg PUBLIC "-//W3C//DTD SVG 1.1//EN" "http://www.w3.org/Graphics/SVG/1.1/DTD/svg11.dtd">
<svg version="1.1" id="Layer_1" xmlns="http://www.w3.org/2000/svg" xmlns:xlink="http://www.w3.org/1999/xlink" x="0px" y="0px"
	 width="560px" height="420px" viewBox="0 0 560 420" enable-background="new 0 0 560 420" xml:space="preserve">
<g>
	
		<line fill="none" stroke="#262626" stroke-width="0.6597" stroke-linecap="square" stroke-linejoin="round" stroke-miterlimit="10" x1="73" y1="374" x2="507" y2="374"/>
	
		<line fill="none" stroke="#262626" stroke-width="0.6597" stroke-linecap="square" stroke-linejoin="round" stroke-miterlimit="10" x1="73" y1="374" x2="73" y2="369.66"/>
	
		<line fill="none" stroke="#262626" stroke-width="0.6597" stroke-linecap="square" stroke-linejoin="round" stroke-miterlimit="10" x1="127.25" y1="374" x2="127.25" y2="369.66"/>
	
		<line fill="none" stroke="#262626" stroke-width="0.6597" stroke-linecap="square" stroke-linejoin="round" stroke-miterlimit="10" x1="181.5" y1="374" x2="181.5" y2="369.66"/>
	
		<line fill="none" stroke="#262626" stroke-width="0.6597" stroke-linecap="square" stroke-linejoin="round" stroke-miterlimit="10" x1="235.75" y1="374" x2="235.75" y2="369.66"/>
	
		<line fill="none" stroke="#262626" stroke-width="0.6597" stroke-linecap="square" stroke-linejoin="round" stroke-miterlimit="10" x1="290" y1="374" x2="290" y2="369.66"/>
	
		<line fill="none" stroke="#262626" stroke-width="0.6597" stroke-linecap="square" stroke-linejoin="round" stroke-miterlimit="10" x1="344.25" y1="374" x2="344.25" y2="369.66"/>
	
		<line fill="none" stroke="#262626" stroke-width="0.6597" stroke-linecap="square" stroke-linejoin="round" stroke-miterlimit="10" x1="398.5" y1="374" x2="398.5" y2="369.66"/>
	
		<line fill="none" stroke="#262626" stroke-width="0.6597" stroke-linecap="square" stroke-linejoin="round" stroke-miterlimit="10" x1="452.75" y1="374" x2="452.75" y2="369.66"/>
	
		<line fill="none" stroke="#262626" stroke-width="0.6597" stroke-linecap="square" stroke-linejoin="round" stroke-miterlimit="10" x1="73" y1="31" x2="73" y2="35.34"/>
	<g transform="translate(73,379.2778)">
		<text transform="matrix(1 0 0 1 -6 15.0005)" fill="#262626" font-family="'MyriadPro-Regular'" font-size="13.1944">-4</text>
	</g>
	<g transform="translate(127.25,379.2778)">
		<text transform="matrix(1 0 0 1 -6 15.0005)" fill="#262626" font-family="'MyriadPro-Regular'" font-size="13.1944">-3</text>
	</g>
	<g transform="translate(181.5,379.2778)">
		<text transform="matrix(1 0 0 1 -6 15.0005)" fill="#262626" font-family="'MyriadPro-Regular'" font-size="13.1944">-2</text>
	</g>
	<g transform="translate(235.75,379.2778)">
		<text transform="matrix(1 0 0 1 -6 15.0005)" fill="#262626" font-family="'MyriadPro-Regular'" font-size="13.1944">-1</text>
	</g>
	<g transform="translate(290,379.2778)">
		<text transform="matrix(1 0 0 1 -4 15.0005)" fill="#262626" font-family="'MyriadPro-Regular'" font-size="13.1944">0</text>
	</g>
	<g transform="translate(344.25,379.2778)">
		<text transform="matrix(1 0 0 1 -4 15.0005)" fill="#262626" font-family="'MyriadPro-Regular'" font-size="13.1944">1</text>
	</g>
	<g transform="translate(398.5,379.2778)">
		<text transform="matrix(1 0 0 1 -4 15.0005)" fill="#262626" font-family="'MyriadPro-Regular'" font-size="13.1944">2</text>
	</g>
	<g transform="translate(452.75,379.2778)">
		<text transform="matrix(1 0 0 1 -4 15.0005)" fill="#262626" font-family="'MyriadPro-Regular'" font-size="13.1944">3</text>
	</g>
	<g transform="translate(507,379.2778)">
		<text transform="matrix(1 0 0 1 -4 15.0005)" fill="#262626" font-family="'MyriadPro-Regular'" font-size="13.1944">4</text>
	</g>
	
		<line fill="none" stroke="#262626" stroke-width="0.6597" stroke-linecap="square" stroke-linejoin="round" stroke-miterlimit="10" x1="73" y1="374" x2="73" y2="31"/>
	
		<line fill="none" stroke="#262626" stroke-width="0.6597" stroke-linecap="square" stroke-linejoin="round" stroke-miterlimit="10" x1="73" y1="374" x2="77.34" y2="374"/>
	
		<line fill="none" stroke="#262626" stroke-width="0.6597" stroke-linecap="square" stroke-linejoin="round" stroke-miterlimit="10" x1="73" y1="316.834" x2="77.34" y2="316.834"/>
	
		<line fill="none" stroke="#262626" stroke-width="0.6597" stroke-linecap="square" stroke-linejoin="round" stroke-miterlimit="10" x1="73" y1="259.666" x2="77.34" y2="259.666"/>
	
		<line fill="none" stroke="#262626" stroke-width="0.6597" stroke-linecap="square" stroke-linejoin="round" stroke-miterlimit="10" x1="73" y1="202.5" x2="77.34" y2="202.5"/>
	
		<line fill="none" stroke="#262626" stroke-width="0.6597" stroke-linecap="square" stroke-linejoin="round" stroke-miterlimit="10" x1="73" y1="145.333" x2="77.34" y2="145.333"/>
	
		<line fill="none" stroke="#262626" stroke-width="0.6597" stroke-linecap="square" stroke-linejoin="round" stroke-miterlimit="10" x1="73" y1="88.167" x2="77.34" y2="88.167"/>
	
		<line fill="none" stroke="#262626" stroke-width="0.6597" stroke-linecap="square" stroke-linejoin="round" stroke-miterlimit="10" x1="73" y1="31" x2="77.34" y2="31"/>
	
		<line fill="none" stroke="#262626" stroke-width="0.6597" stroke-linecap="square" stroke-linejoin="round" stroke-miterlimit="10" x1="507" y1="374" x2="502.66" y2="374"/>
	<g transform="translate(67.7222,374)">
		<text transform="matrix(1 0 0 1 -27 5.5)" fill="#262626" font-family="'MyriadPro-Regular'" font-size="13.1944">0.01</text>
	</g>
	<g transform="translate(67.7222,316.8333)">
		<text transform="matrix(1 0 0 1 -27 5.5007)" fill="#262626" font-family="'MyriadPro-Regular'" font-size="13.1944">0.02</text>
	</g>
	<g transform="translate(67.7222,259.6667)">
		<text transform="matrix(1 0 0 1 -27 5.5003)" fill="#262626" font-family="'MyriadPro-Regular'" font-size="13.1944">0.03</text>
	</g>
	<g transform="translate(67.7222,202.5)">
		<text transform="matrix(1 0 0 1 -27 5.5)" fill="#262626" font-family="'MyriadPro-Regular'" font-size="13.1944">0.04</text>
	</g>
	<g transform="translate(67.7222,145.3333)">
		<text transform="matrix(1 0 0 1 -27 5.5007)" fill="#262626" font-family="'MyriadPro-Regular'" font-size="13.1944">0.05</text>
	</g>
	<g transform="translate(67.7222,88.1667)">
		<text transform="matrix(1 0 0 1 -27 5.5003)" fill="#262626" font-family="'MyriadPro-Regular'" font-size="13.1944">0.06</text>
	</g>
	<g transform="translate(67.7222,31)">
		<text transform="matrix(1 0 0 1 -27 5.5)" fill="#262626" font-family="'MyriadPro-Regular'" font-size="13.1944">0.07</text>
	</g>
	<g>
		<path fill="none" stroke="#0000FF" stroke-width="2.6389" stroke-linejoin="round" stroke-miterlimit="10" d="M75.148,343.113
			l4.297-1.178l4.297-0.463l4.297,1.941l4.297-1.643l4.297-3.182l4.297-0.021l4.297-4.05l4.297-2.523l4.297-0.892l4.297-3.378
			l4.297-0.137l4.297-3.683l4.297-2.825l4.297-2.186l4.297-0.965l4.297-3.898l4.297,2.182l4.297,0.722l4.297-1.317l4.297,2.15
			l4.297,3.207l4.297-3.705l4.297,2.13l4.297-2.608l4.297,4.069l4.297,3.032l4.297,1.512l4.297-1.887l4.297,1.114l4.297-2.233
			l4.297,0.148l4.297,1.168l4.297-1.939l4.297-2.076l4.297,0.204l4.297-1.6l4.297-2.322l4.297-7.687l4.297-8.064l4.297-7.596
			l4.297-5.401l4.297-8.954l4.297-14.336l4.297-14.343l4.297-14.505l4.297-14.471l4.297-13.928l4.297-7.47l4.297-9.006l4.297-1.975
			l4.297-0.254l4.297-1.778l4.298-0.463l4.297-0.785l4.297,2.859l4.297,11.457l4.297,10.58l4.297,7.833l4.297,10.446l4.298,11.331
			l4.297,6.051l4.297,8.139l4.297,4.996l4.297,3.735l4.297,5.052l4.298,9.812l4.297,7.774l4.297,3.896l4.297,2.213l4.297,3.931
			l4.297,3.577l4.297,4.893l4.298,1.678l4.297,0.504l4.297,3.225l4.297,1.906l4.297,2.895l4.297,1.67l4.298-1.016l4.297-1.724
			l4.297,3.669l4.297,0.907l4.297-0.54l4.297,3.227l4.297,2.184l4.298,3.346l4.297,5.725l4.297,1.115l4.297-1.162l4.297,0.175
			l4.297-0.146l4.298-0.773l4.297,4.624l4.297-0.439l4.297,0.566l4.297,2.279l4.297-0.064l4.298-2.349l4.297-1.08l4.297-0.901"/>
		<path fill="none" stroke="#FF0000" stroke-width="2.6389" stroke-linejoin="round" stroke-miterlimit="10" d="M75.148,320.768
			l4.297,3.342l4.297-1.424l4.297,1.338l4.297,0.531l4.297,2.729l4.297,0.99l4.297,3.155l4.297,3.724l4.297-2.958l4.297-2.276
			l4.297-6.973l4.297-9.104l4.297-7.403l4.297-14.169l4.297-10.744l4.297-11.133l4.297-4.949l4.297,0.355l4.297-5.773l4.297,1.264
			l4.297,2.236l4.297-2.082l4.297,14.651l4.297,1.853l4.297,3.006l4.297,6.977l4.297-3.884l4.297,1.716l4.297-7.591l4.297-8.069
			l4.297-2.155l4.297,2.61l4.297-4.65l4.297,0.5l4.297-0.564l4.297,2.508l4.297-1.799l4.297-4.102l4.297-1.044l4.297,2.651
			l4.297-4.533l4.297-2.992l4.297-8.112l4.297-13.446l4.297-16.645l4.297-24.406l4.297-42.214l4.297-33.985l4.297-25.257L290,80.768
			l4.297,1.364l4.297,16.785l4.298,9.426l4.297,38.598l4.297,35.653l4.297,30.437l4.297,13.859l4.297,4.479l4.297-2.161
			l4.298,12.148l4.297-3.732l4.297,0.563l4.297-0.499l4.297,7.489l4.297,6.178l4.298,5.344l4.297-0.297l4.297,4.458l4.297,4.366
			l4.297,2.788l4.297,12.047l4.297,9.886l4.298-0.346l4.297-4.974l4.297-13.87l4.297-1.284l4.297,5.737l4.297-10.771l4.298-3.202
			l4.297-17.213l4.297,6.385l4.297,22.061l4.297,1.402l4.297-6.067l4.297-1.689l4.298,0.54l4.297,24.27l4.297,6.889l4.297,3.92
			l4.297,9.639l4.297-3.713l4.298,10.355l4.297,2.824l4.297-2.295l4.297,1.951l4.297,0.484l4.297-6.558l4.298,9.687l4.297,1.115
			l4.297,3.609"/>
		<path fill="none" stroke="#000000" stroke-width="2.6389" stroke-linejoin="round" stroke-miterlimit="10" d="M75.148,302.338
			l4.297-2.108l4.297-5.716l4.297-0.326l4.297-1.838l4.297,1.971l4.297-2.102l4.297-2.143l4.297-6.987l4.297-1.146l4.297-2.138
			l4.297-1.467l4.297-1.216l4.297-2.882l4.297-1.362l4.297-0.844l4.297-2.631l4.297-3.281l4.297-5.646l4.297-2.367l4.297-6.405
			l4.297,2.167l4.297-2.241l4.297-0.737l4.297-1.607l4.297-2.086l4.297,2.682l4.297-2.093l4.297,1.558l4.297,0.563l4.297,1.358
			l4.297-0.029l4.297,0.426l4.297,2.86l4.297-2.569l4.297,2.244l4.297-0.997l4.297-3.509l4.297-7.166l4.297-6.729l4.297-5.59
			l4.297-8.462l4.297-10.47l4.297-11.085l4.297-15.784l4.297-16.28l4.297-16.323l4.297-12.291l4.297-8.648l4.297-4.771l4.297-5.627
			l4.297-1.114l4.297-5.42l4.298-0.704l4.297,2.022l4.297,1.369l4.297,5.725l4.297,11.725l4.297,14.249l4.297,9.38l4.298,9.912
			l4.297,2.37l4.297,1.847l4.297,5.218l4.297,8.998l4.297,7.225l4.298,5.375l4.297,8.553l4.297,9.562l4.297,5.576l4.297,2.781
			l4.297,1.751l4.297,5.777l4.298,5.847l4.297,7.281l4.297,3.012l4.297,5.824l4.297-1.404l4.297,7.072l4.298,3.152l4.297-0.555
			l4.297-1.533l4.297,4.4l4.297,7.243l4.297,3.579l4.297,2.675l4.298-0.757l4.297-3.73l4.297,3.717l4.297,0.799l4.297-0.188
			l4.297-1.44l4.298,2.253l4.297,3.279l4.297,4.848l4.297-1.746l4.297-3.044l4.297-0.144l4.298,0.766l4.297,1.852l4.297,8.532"/>
	</g>
	<g>
		<path fill="#FFFFFF" d="M496,98V42h-62v56H496z"/>
	</g>
	<g transform="translate(480.1491,52.5)">
		<text transform="matrix(1 0 0 1 -6.713867e-004 4.5)" font-family="'MyriadPro-Regular'" font-size="11.875">m</text>
	</g>
	<g>
		
			<line fill="none" stroke="#0000FF" stroke-width="2.6389" stroke-linejoin="round" stroke-miterlimit="10" x1="437.963" y1="52.5" x2="477.177" y2="52.5"/>
	</g>
	<g transform="translate(480.1491,70)">
		<text transform="matrix(1 0 0 1 -6.713867e-004 4.5)" font-family="'MyriadPro-Regular'" font-size="11.875">n</text>
	</g>
	<g>
		
			<line fill="none" stroke="#FF0000" stroke-width="2.6389" stroke-linejoin="round" stroke-miterlimit="10" x1="437.963" y1="70" x2="477.177" y2="70"/>
	</g>
	<g transform="translate(480.1491,87.5)">
		<text transform="matrix(1 0 0 1 -6.713867e-004 4.5)" font-family="'MyriadPro-Regular'" font-size="11.875">s</text>
	</g>
	<g>
		
			<line fill="none" stroke="#000000" stroke-width="2.6389" stroke-linejoin="round" stroke-miterlimit="10" x1="437.963" y1="87.5" x2="477.177" y2="87.5"/>
	</g>
	<g>
		<path fill="none" stroke="#262626" stroke-width="0.6597" stroke-miterlimit="10" d="M434,98V42h62v56H434z"/>
	</g>
</g>
</svg>
