<?xml version="1.0" encoding="utf-8"?>
<!-- Generator: Adobe Illustrator 16.0.0, SVG Export Plug-In . SVG Version: 6.00 Build 0)  -->
<!DOCTYPE svg PUBLIC "-//W3C//DTD SVG 1.1//EN" "http://www.w3.org/Graphics/SVG/1.1/DTD/svg11.dtd">
<svg version="1.1" id="Layer_1" xmlns="http://www.w3.org/2000/svg" xmlns:xlink="http://www.w3.org/1999/xlink" x="0px" y="0px"
	 width="560px" height="449px" viewBox="0 0 560 449" enable-background="new 0 0 560 449" xml:space="preserve">
<g>
	
		<line fill="none" stroke="#262626" stroke-width="0.6597" stroke-linecap="square" stroke-linejoin="round" stroke-miterlimit="10" x1="73" y1="400" x2="507" y2="400"/>
	
		<line fill="none" stroke="#262626" stroke-width="0.6597" stroke-linecap="square" stroke-linejoin="round" stroke-miterlimit="10" x1="73" y1="400" x2="73" y2="395.66"/>
	
		<line fill="none" stroke="#262626" stroke-width="0.6597" stroke-linecap="square" stroke-linejoin="round" stroke-miterlimit="10" x1="127.25" y1="400" x2="127.25" y2="395.66"/>
	
		<line fill="none" stroke="#262626" stroke-width="0.6597" stroke-linecap="square" stroke-linejoin="round" stroke-miterlimit="10" x1="181.5" y1="400" x2="181.5" y2="395.66"/>
	
		<line fill="none" stroke="#262626" stroke-width="0.6597" stroke-linecap="square" stroke-linejoin="round" stroke-miterlimit="10" x1="235.75" y1="400" x2="235.75" y2="395.66"/>
	
		<line fill="none" stroke="#262626" stroke-width="0.6597" stroke-linecap="square" stroke-linejoin="round" stroke-miterlimit="10" x1="290" y1="400" x2="290" y2="395.66"/>
	
		<line fill="none" stroke="#262626" stroke-width="0.6597" stroke-linecap="square" stroke-linejoin="round" stroke-miterlimit="10" x1="344.25" y1="400" x2="344.25" y2="395.66"/>
	
		<line fill="none" stroke="#262626" stroke-width="0.6597" stroke-linecap="square" stroke-linejoin="round" stroke-miterlimit="10" x1="398.5" y1="400" x2="398.5" y2="395.66"/>
	
		<line fill="none" stroke="#262626" stroke-width="0.6597" stroke-linecap="square" stroke-linejoin="round" stroke-miterlimit="10" x1="452.75" y1="400" x2="452.75" y2="395.66"/>
	
		<line fill="none" stroke="#262626" stroke-width="0.6597" stroke-linecap="square" stroke-linejoin="round" stroke-miterlimit="10" x1="73" y1="34" x2="73" y2="38.34"/>
	<g transform="translate(73,405.2778)">
		<text transform="matrix(1 0 0 1 -6 15.0003)" fill="#262626" font-family="'MyriadPro-Regular'" font-size="13.1944">-4</text>
	</g>
	<g transform="translate(127.25,405.2778)">
		<text transform="matrix(1 0 0 1 -6 15.0003)" fill="#262626" font-family="'MyriadPro-Regular'" font-size="13.1944">-3</text>
	</g>
	<g transform="translate(181.5,405.2778)">
		<text transform="matrix(1 0 0 1 -6 15.0003)" fill="#262626" font-family="'MyriadPro-Regular'" font-size="13.1944">-2</text>
	</g>
	<g transform="translate(235.75,405.2778)">
		<text transform="matrix(1 0 0 1 -6 15.0003)" fill="#262626" font-family="'MyriadPro-Regular'" font-size="13.1944">-1</text>
	</g>
	<g transform="translate(290,405.2778)">
		<text transform="matrix(1 0 0 1 -4 15.0003)" fill="#262626" font-family="'MyriadPro-Regular'" font-size="13.1944">0</text>
	</g>
	<g transform="translate(344.25,405.2778)">
		<text transform="matrix(1 0 0 1 -4 15.0003)" fill="#262626" font-family="'MyriadPro-Regular'" font-size="13.1944">1</text>
	</g>
	<g transform="translate(398.5,405.2778)">
		<text transform="matrix(1 0 0 1 -4 15.0003)" fill="#262626" font-family="'MyriadPro-Regular'" font-size="13.1944">2</text>
	</g>
	<g transform="translate(452.75,405.2778)">
		<text transform="matrix(1 0 0 1 -4 15.0003)" fill="#262626" font-family="'MyriadPro-Regular'" font-size="13.1944">3</text>
	</g>
	<g transform="translate(507,405.2778)">
		<text transform="matrix(1 0 0 1 -4 15.0003)" fill="#262626" font-family="'MyriadPro-Regular'" font-size="13.1944">4</text>
	</g>
	
		<line fill="none" stroke="#262626" stroke-width="0.6597" stroke-linecap="square" stroke-linejoin="round" stroke-miterlimit="10" x1="73" y1="400" x2="73" y2="34"/>
	
		<line fill="none" stroke="#262626" stroke-width="0.6597" stroke-linecap="square" stroke-linejoin="round" stroke-miterlimit="10" x1="73" y1="400" x2="77.34" y2="400"/>
	
		<line fill="none" stroke="#262626" stroke-width="0.6597" stroke-linecap="square" stroke-linejoin="round" stroke-miterlimit="10" x1="73" y1="347.715" x2="77.34" y2="347.715"/>
	
		<line fill="none" stroke="#262626" stroke-width="0.6597" stroke-linecap="square" stroke-linejoin="round" stroke-miterlimit="10" x1="73" y1="295.428" x2="77.34" y2="295.428"/>
	
		<line fill="none" stroke="#262626" stroke-width="0.6597" stroke-linecap="square" stroke-linejoin="round" stroke-miterlimit="10" x1="73" y1="243.143" x2="77.34" y2="243.143"/>
	
		<line fill="none" stroke="#262626" stroke-width="0.6597" stroke-linecap="square" stroke-linejoin="round" stroke-miterlimit="10" x1="73" y1="190.857" x2="77.34" y2="190.857"/>
	
		<line fill="none" stroke="#262626" stroke-width="0.6597" stroke-linecap="square" stroke-linejoin="round" stroke-miterlimit="10" x1="73" y1="138.571" x2="77.34" y2="138.571"/>
	
		<line fill="none" stroke="#262626" stroke-width="0.6597" stroke-linecap="square" stroke-linejoin="round" stroke-miterlimit="10" x1="73" y1="86.286" x2="77.34" y2="86.286"/>
	<g transform="translate(67.7222,400)">
		<text transform="matrix(1 0 0 1 -27 5.4998)" fill="#262626" font-family="'MyriadPro-Regular'" font-size="13.1944">0.01</text>
	</g>
	<g transform="translate(67.7222,347.7143)">
		<text transform="matrix(1 0 0 1 -27 5.5003)" fill="#262626" font-family="'MyriadPro-Regular'" font-size="13.1944">0.02</text>
	</g>
	<g transform="translate(67.7222,295.4286)">
		<text transform="matrix(1 0 0 1 -27 5.4999)" fill="#262626" font-family="'MyriadPro-Regular'" font-size="13.1944">0.03</text>
	</g>
	<g transform="translate(67.7222,243.1429)">
		<text transform="matrix(1 0 0 1 -27 5.5004)" fill="#262626" font-family="'MyriadPro-Regular'" font-size="13.1944">0.04</text>
	</g>
	<g transform="translate(67.7222,190.8571)">
		<text transform="matrix(1 0 0 1 -27 5.5001)" fill="#262626" font-family="'MyriadPro-Regular'" font-size="13.1944">0.05</text>
	</g>
	<g transform="translate(67.7222,138.5714)">
		<text transform="matrix(1 0 0 1 -27 5.5006)" fill="#262626" font-family="'MyriadPro-Regular'" font-size="13.1944">0.06</text>
	</g>
	<g transform="translate(67.7222,86.2857)">
		<text transform="matrix(1 0 0 1 -27 5.5002)" fill="#262626" font-family="'MyriadPro-Regular'" font-size="13.1944">0.07</text>
	</g>
	<g transform="translate(67.7222,34)">
		<text transform="matrix(1 0 0 1 -27 5.4998)" fill="#262626" font-family="'MyriadPro-Regular'" font-size="13.1944">0.08</text>
	</g>
	<g>
		<path fill="none" stroke="#0000FF" stroke-width="2.6389" stroke-linejoin="round" stroke-miterlimit="10" d="M75.148,351.313
			l4.297,3.057l4.297-1.303l4.297,1.224l4.297,0.485l4.297,2.496l4.297,0.905l4.297,2.886l4.297,3.406l4.297-2.706l4.297-2.082
			l4.297-6.377l4.297-8.327l4.297-6.771l4.297-12.958l4.297-9.827l4.297-10.183l4.297-4.527l4.297,0.326l4.297-5.281l4.297,1.156
			l4.297,2.045l4.297-1.905l4.297,13.401l4.297,1.695l4.297,2.749l4.297,6.381l4.297-3.553l4.297,1.568l4.297-6.941l4.297-7.381
			l4.297-1.971l4.297,2.387l4.297-4.252l4.297,0.456l4.297-0.517l4.297,2.294l4.297-1.645l4.297-3.752l4.297-0.954l4.297,2.424
			l4.297-4.146l4.297-2.737l4.297-7.419l4.297-12.299l4.297-15.223l4.297-22.322l4.297-38.609l4.297-31.083l4.297-23.101l4.297-10.7
			l4.297,1.248l4.297,15.352l4.298,8.621l4.297,35.303l4.297,32.609l4.297,27.838l4.297,12.676l4.297,4.097l4.297-1.976l4.298,11.11
			l4.297-3.414l4.297,0.515l4.297-0.456l4.297,6.85l4.297,5.65l4.298,4.888l4.297-0.271l4.297,4.076l4.297,3.993l4.297,2.551
			l4.297,11.018l4.297,9.042l4.298-0.316l4.297-4.549l4.297-12.687l4.297-1.174l4.297,5.247l4.297-9.851l4.298-2.929l4.297-15.743
			l4.297,5.84l4.297,20.177l4.297,1.282l4.297-5.549l4.297-1.545l4.298,0.494l4.297,22.196l4.297,6.301l4.297,3.586l4.297,8.815
			l4.297-3.396l4.298,9.471l4.297,2.583l4.297-2.099l4.297,1.785l4.297,0.441l4.297-5.997l4.298,8.86l4.297,1.019l4.297,3.303"/>
		<path fill="none" stroke="#FF0000" stroke-width="2.6389" stroke-linejoin="round" stroke-miterlimit="10" d="M75.148,310.433
			l4.297-0.598l4.297-12.651l4.297,17.906l4.297,3.054l4.297,8.71l4.297-11.833l4.297-8.359l4.297-6.6l4.297,10.089l4.297-4.871
			l4.297-7.51l4.297-3.662l4.297,9.874l4.297,15.415l4.297,4.123l4.297,5.129l4.297-3.863l4.297-13.028l4.297-11.333l4.297-11.003
			l4.297-5.853l4.297-3.016l4.297,7.7l4.297,10.621l4.297,9.277l4.297-4.465l4.297-1.115l4.297-1.106l4.297-1.612l4.297-10.442
			l4.297-15.164l4.297-11.79l4.297-2.745l4.297-3.479l4.297,5.062l4.297-112.721l4.297-0.719l4.297-11.052l4.297,104.537
			l4.297-10.583l4.297-0.309l4.297-2.15l4.297,13.677l4.297-6.138l4.297-19.332l4.297-124.013l4.297-18.391l4.297,2.334
			l4.297,101.247l4.297,2.368l4.297-3.91l4.297,11.559l4.298,10.722l4.297,26.059l4.297-5.307l4.297,13.844l4.297,14.064
			l4.297,39.613l4.297,5.244l4.298-0.39l4.297-26.137l4.297,6.379l4.297,5.549l4.297,22.09l4.297,3.028l4.298-7.529l4.297,11.181
			l4.297,17.546l4.297,4.826l4.297-11.152l4.297-1.411l4.297,6.969l4.298-2.614l4.297-13.178l4.297-9.018l4.297,3.687l4.297,0.828
			l4.297,4.185l4.298-14.711l4.297,7.945l4.297,8.185l4.297,14.809l4.297-6.624l4.297,5.056l4.297,5.881l4.298,10.484l4.297-6.27
			l4.297-12.367l4.297-11.992l4.297-7.836l4.297,7.069l4.298,0.837l4.297-0.056l4.297,3.901l4.297,7.711l4.297,7.844l4.297-5.022
			l4.298-10.631l4.297,3.701l4.297-0.109"/>
	</g>
	<g>
		<path fill="#FFFFFF" d="M496,83V45h-89v38H496z"/>
	</g>
	<g transform="translate(453.28,55.3636)">
		<text transform="matrix(1 0 0 1 -7.019043e-004 4.5004)" font-family="'MyriadPro-Regular'" font-size="11.875">UP</text>
	</g>
	<g>
		
			<line fill="none" stroke="#0000FF" stroke-width="2.6389" stroke-linejoin="round" stroke-miterlimit="10" x1="410.974" y1="55.364" x2="450.3" y2="55.364"/>
	</g>
	<g transform="translate(453.28,72.6364)">
		<text transform="matrix(1 0 0 1 -7.019043e-004 4.5001)" font-family="'MyriadPro-Regular'" font-size="11.875">DOWN</text>
	</g>
	<g>
		
			<line fill="none" stroke="#FF0000" stroke-width="2.6389" stroke-linejoin="round" stroke-miterlimit="10" x1="410.974" y1="72.636" x2="450.3" y2="72.636"/>
	</g>
	<g>
		<path fill="none" stroke="#262626" stroke-width="0.6597" stroke-miterlimit="10" d="M407,83V45h89v38H407z"/>
	</g>
</g>
</svg>
