<?xml version="1.0" encoding="utf-8"?>
<!-- Generator: Adobe Illustrator 16.0.0, SVG Export Plug-In . SVG Version: 6.00 Build 0)  -->
<!DOCTYPE svg PUBLIC "-//W3C//DTD SVG 1.1//EN" "http://www.w3.org/Graphics/SVG/1.1/DTD/svg11.dtd">
<svg version="1.1" id="Layer_1" xmlns="http://www.w3.org/2000/svg" xmlns:xlink="http://www.w3.org/1999/xlink" x="0px" y="0px"
	 width="560px" height="449px" viewBox="0 0 560 449" enable-background="new 0 0 560 449" xml:space="preserve">
<g>
	
		<line fill="none" stroke="#262626" stroke-width="0.6597" stroke-linecap="square" stroke-linejoin="round" stroke-miterlimit="10" x1="73" y1="400" x2="507" y2="400"/>
	
		<line fill="none" stroke="#262626" stroke-width="0.6597" stroke-linecap="square" stroke-linejoin="round" stroke-miterlimit="10" x1="73" y1="400" x2="73" y2="395.66"/>
	
		<line fill="none" stroke="#262626" stroke-width="0.6597" stroke-linecap="square" stroke-linejoin="round" stroke-miterlimit="10" x1="127.25" y1="400" x2="127.25" y2="395.66"/>
	
		<line fill="none" stroke="#262626" stroke-width="0.6597" stroke-linecap="square" stroke-linejoin="round" stroke-miterlimit="10" x1="181.5" y1="400" x2="181.5" y2="395.66"/>
	
		<line fill="none" stroke="#262626" stroke-width="0.6597" stroke-linecap="square" stroke-linejoin="round" stroke-miterlimit="10" x1="235.75" y1="400" x2="235.75" y2="395.66"/>
	
		<line fill="none" stroke="#262626" stroke-width="0.6597" stroke-linecap="square" stroke-linejoin="round" stroke-miterlimit="10" x1="290" y1="400" x2="290" y2="395.66"/>
	
		<line fill="none" stroke="#262626" stroke-width="0.6597" stroke-linecap="square" stroke-linejoin="round" stroke-miterlimit="10" x1="344.25" y1="400" x2="344.25" y2="395.66"/>
	
		<line fill="none" stroke="#262626" stroke-width="0.6597" stroke-linecap="square" stroke-linejoin="round" stroke-miterlimit="10" x1="398.5" y1="400" x2="398.5" y2="395.66"/>
	
		<line fill="none" stroke="#262626" stroke-width="0.6597" stroke-linecap="square" stroke-linejoin="round" stroke-miterlimit="10" x1="452.75" y1="400" x2="452.75" y2="395.66"/>
	
		<line fill="none" stroke="#262626" stroke-width="0.6597" stroke-linecap="square" stroke-linejoin="round" stroke-miterlimit="10" x1="73" y1="34" x2="73" y2="38.34"/>
	<g transform="translate(73,405.2778)">
		<text transform="matrix(1 0 0 1 -6 15.0003)" fill="#262626" font-family="'MyriadPro-Regular'" font-size="13.1944">-4</text>
	</g>
	<g transform="translate(127.25,405.2778)">
		<text transform="matrix(1 0 0 1 -6 15.0003)" fill="#262626" font-family="'MyriadPro-Regular'" font-size="13.1944">-3</text>
	</g>
	<g transform="translate(181.5,405.2778)">
		<text transform="matrix(1 0 0 1 -6 15.0003)" fill="#262626" font-family="'MyriadPro-Regular'" font-size="13.1944">-2</text>
	</g>
	<g transform="translate(235.75,405.2778)">
		<text transform="matrix(1 0 0 1 -6 15.0003)" fill="#262626" font-family="'MyriadPro-Regular'" font-size="13.1944">-1</text>
	</g>
	<g transform="translate(290,405.2778)">
		<text transform="matrix(1 0 0 1 -4 15.0003)" fill="#262626" font-family="'MyriadPro-Regular'" font-size="13.1944">0</text>
	</g>
	<g transform="translate(344.25,405.2778)">
		<text transform="matrix(1 0 0 1 -4 15.0003)" fill="#262626" font-family="'MyriadPro-Regular'" font-size="13.1944">1</text>
	</g>
	<g transform="translate(398.5,405.2778)">
		<text transform="matrix(1 0 0 1 -4 15.0003)" fill="#262626" font-family="'MyriadPro-Regular'" font-size="13.1944">2</text>
	</g>
	<g transform="translate(452.75,405.2778)">
		<text transform="matrix(1 0 0 1 -4 15.0003)" fill="#262626" font-family="'MyriadPro-Regular'" font-size="13.1944">3</text>
	</g>
	<g transform="translate(507,405.2778)">
		<text transform="matrix(1 0 0 1 -4 15.0003)" fill="#262626" font-family="'MyriadPro-Regular'" font-size="13.1944">4</text>
	</g>
	
		<line fill="none" stroke="#262626" stroke-width="0.6597" stroke-linecap="square" stroke-linejoin="round" stroke-miterlimit="10" x1="73" y1="400" x2="73" y2="34"/>
	
		<line fill="none" stroke="#262626" stroke-width="0.6597" stroke-linecap="square" stroke-linejoin="round" stroke-miterlimit="10" x1="73" y1="400" x2="77.34" y2="400"/>
	
		<line fill="none" stroke="#262626" stroke-width="0.6597" stroke-linecap="square" stroke-linejoin="round" stroke-miterlimit="10" x1="73" y1="339" x2="77.34" y2="339"/>
	
		<line fill="none" stroke="#262626" stroke-width="0.6597" stroke-linecap="square" stroke-linejoin="round" stroke-miterlimit="10" x1="73" y1="278" x2="77.34" y2="278"/>
	
		<line fill="none" stroke="#262626" stroke-width="0.6597" stroke-linecap="square" stroke-linejoin="round" stroke-miterlimit="10" x1="73" y1="217" x2="77.34" y2="217"/>
	
		<line fill="none" stroke="#262626" stroke-width="0.6597" stroke-linecap="square" stroke-linejoin="round" stroke-miterlimit="10" x1="73" y1="156" x2="77.34" y2="156"/>
	
		<line fill="none" stroke="#262626" stroke-width="0.6597" stroke-linecap="square" stroke-linejoin="round" stroke-miterlimit="10" x1="73" y1="95" x2="77.34" y2="95"/>
	
		<line fill="none" stroke="#262626" stroke-width="0.6597" stroke-linecap="square" stroke-linejoin="round" stroke-miterlimit="10" x1="73" y1="34" x2="77.34" y2="34"/>
	
		<line fill="none" stroke="#262626" stroke-width="0.6597" stroke-linecap="square" stroke-linejoin="round" stroke-miterlimit="10" x1="507" y1="400" x2="502.66" y2="400"/>
	<g transform="translate(67.7222,400)">
		<text transform="matrix(1 0 0 1 -27 5.4998)" fill="#262626" font-family="'MyriadPro-Regular'" font-size="13.1944">0.02</text>
	</g>
	<g transform="translate(67.7222,339)">
		<text transform="matrix(1 0 0 1 -27 5.4998)" fill="#262626" font-family="'MyriadPro-Regular'" font-size="13.1944">0.03</text>
	</g>
	<g transform="translate(67.7222,278)">
		<text transform="matrix(1 0 0 1 -27 5.4998)" fill="#262626" font-family="'MyriadPro-Regular'" font-size="13.1944">0.04</text>
	</g>
	<g transform="translate(67.7222,217)">
		<text transform="matrix(1 0 0 1 -27 5.4998)" fill="#262626" font-family="'MyriadPro-Regular'" font-size="13.1944">0.05</text>
	</g>
	<g transform="translate(67.7222,156)">
		<text transform="matrix(1 0 0 1 -27 5.4998)" fill="#262626" font-family="'MyriadPro-Regular'" font-size="13.1944">0.06</text>
	</g>
	<g transform="translate(67.7222,95)">
		<text transform="matrix(1 0 0 1 -27 5.4998)" fill="#262626" font-family="'MyriadPro-Regular'" font-size="13.1944">0.07</text>
	</g>
	<g transform="translate(67.7222,34)">
		<text transform="matrix(1 0 0 1 -27 5.4998)" fill="#262626" font-family="'MyriadPro-Regular'" font-size="13.1944">0.08</text>
	</g>
	<g>
		<path fill="none" stroke="#0000FF" stroke-width="2.6389" stroke-linejoin="round" stroke-miterlimit="10" d="M75.148,378.508
			l4.297,0.33l4.297,3.715l4.297-1.828l4.297-2.138l4.297-3.487l4.297-1.23l4.297-0.4l4.297,0.484l4.297,0.801l4.297-0.423
			l4.297-0.956l4.297-0.604l4.297-0.192l4.297-0.056l4.297-3.273l4.297,1.372l4.297,0.686l4.297,2.496l4.297,0.301l4.297-0.901
			l4.297,1.793l4.297-1.609l4.297-1.446l4.297-1.2l4.297-1.716l4.297-2.578l4.297-1.434l4.297-4.05l4.297-5.511l4.297-5.817
			l4.297-4.282l4.297-2.845l4.297-1.558l4.297-5.841l4.297-4.436l4.297-6.951l4.297-7.635l4.297-6.402l4.297-8.006l4.297-8.551
			l4.297-5.286l4.297-10.267l4.297-9.677l4.297-10.866l4.297-8.751l4.297-7.289l4.297-1.416l4.297-3.864l4.297,2.331L290,243.77
			l4.297,4.204l4.297,9.83l4.298,10.479l4.297,6.655l4.297,13.975l4.297,15.449l4.297,13.908l4.297,8.4l4.297,10.715l4.298,2.583
			l4.297,8.022l4.297,5.153l4.297,2.346l4.297,0.996l4.297-0.76l4.298-2.154l4.297,2.386l4.297,0.462l4.297-1.06l4.297,1.005
			l4.297,4.479l4.297,1.922l4.298,3.027l4.297-1.898l4.297-1.485l4.297-0.149l4.297,4.854l4.297,2.244l4.298,1.239l4.297,1.021
			l4.297,0.732l4.297,0.766l4.297,1.483l4.297-0.033l4.297-1.38l4.298,0.348l4.297,2.723l4.297,0.456l4.297,1.945l4.297-2.606
			l4.297-0.696l4.298-4.432l4.297-1.581l4.297,0.012l4.297,0.636l4.297-1.401l4.297-1.066l4.298-0.636l4.297-1.511l4.297-2.165"/>
		<path fill="none" stroke="#FF0000" stroke-width="2.6389" stroke-linejoin="round" stroke-miterlimit="10" d="M75.148,356.506
			l4.297-0.697l4.297-14.76l4.297,20.89l4.297,3.563l4.297,10.162l4.297-13.806l4.297-9.753l4.297-7.699l4.297,11.771l4.297-5.684
			l4.297-8.761l4.297-4.273l4.297,11.521l4.297,17.984l4.297,4.811l4.297,5.983l4.297-4.507l4.297-15.201l4.297-13.221l4.297-12.837
			l4.297-6.827l4.297-3.519l4.297,8.983l4.297,12.392l4.297,10.823l4.297-5.209l4.297-1.301l4.297-1.291l4.297-1.881l4.297-12.184
			l4.297-17.691l4.297-13.755l4.297-3.203l4.297-4.059l4.297,5.904l4.297-131.508l4.297-0.838l4.297-12.894l4.297,121.96
			l4.297-12.348l4.297-0.359l4.297-2.509l4.297,15.956l4.297-7.161l4.297-22.553l4.297-144.682l4.297-21.456l4.297,2.723
			l4.297,118.122l4.297,2.763l4.297-4.563l4.297,13.485l4.298,12.509l4.297,30.402l4.297-6.191l4.297,16.151l4.297,16.408
			l4.297,46.215l4.297,6.118l4.298-0.454l4.297-30.493l4.297,7.442l4.297,6.475l4.297,25.771l4.297,3.532l4.298-8.783l4.297,13.044
			l4.297,20.47l4.297,5.631l4.297-13.011l4.297-1.646l4.297,8.131l4.298-3.051l4.297-15.374l4.297-10.521l4.297,4.301l4.297,0.967
			l4.297,4.882l4.298-17.163l4.297,9.27l4.297,9.549l4.297,17.277l4.297-7.729l4.297,5.899l4.297,6.86l4.298,12.232l4.297-7.314
			l4.297-14.429l4.297-13.99l4.297-9.144l4.297,8.248l4.298,0.977l4.297-0.064l4.297,4.552l4.297,8.995l4.297,9.152l4.297-5.86
			l4.298-12.402l4.297,4.318l4.297-0.128"/>
		<path fill="none" stroke="#000000" stroke-width="2.6389" stroke-linejoin="round" stroke-miterlimit="10" d="M75.148,349.527
			l4.297-4.501l4.297,0.409l4.297-2.366l4.297-2.064l4.297,1.122l4.297-2.572l4.297,0.322l4.297-2.01l4.297-1.872l4.297-0.446
			l4.297-3.743l4.297-4.137l4.297-0.727l4.297-0.702l4.297-0.996l4.297,0.491l4.297,0.183l4.297-0.571l4.297-0.49l4.297,0.158
			l4.297,1.052l4.297-1.461l4.297-1.566l4.297,1.573l4.297-2.716l4.297-1.735l4.297,0.122l4.297-2.464l4.297-4.202l4.297-2.568
			l4.297-5.166l4.297,0.386l4.297-5.308l4.297-6.284l4.297-6.776l4.297-6.952l4.297-8.618l4.297-7.802l4.297-10.064l4.297-9.539
			l4.297-11.145l4.297-12.188l4.297-15.766l4.297-19.217l4.297-17.465l4.297-11.776l4.297-6.388l4.297-6.853l4.297,4.312
			l4.297,2.304l4.297,5.674l4.297,4.246l4.298,8.689l4.297,10.745l4.297,12.81l4.297,17.945l4.297,20.949l4.297,17.54l4.297,12.314
			l4.298,12.803l4.297,12.227l4.297,2.577l4.297,6.317l4.297,3.648l4.297,3.201l4.298-0.496l4.297-0.354l4.297,2.362l4.297-2.974
			l4.297-0.605l4.297-0.696l4.297,3.936l4.298-0.313l4.297,0.604l4.297,4.64l4.297,0.001l4.297,3.69l4.297,3.635l4.298,1.652
			l4.297,4.45l4.297-0.398l4.297,5.883l4.297,2.69l4.297,2.607l4.297,0.11l4.298,1.578l4.297,2.278l4.297-3.164l4.297-0.004
			l4.297-1.967l4.297-1.458l4.298,0.481l4.297-1.394l4.297,3.098l4.297-1.932l4.297,0.077l4.297-0.269l4.298,0.199l4.297-1.861
			l4.297-2.616"/>
	</g>
	<g>
		<path fill="#FFFFFF" d="M496,101V45h-62v56H496z"/>
	</g>
	<g transform="translate(480.1491,55.5)">
		<text transform="matrix(1 0 0 1 -6.713867e-004 4.4998)" font-family="'MyriadPro-Regular'" font-size="11.875">m</text>
	</g>
	<g>
		
			<line fill="none" stroke="#0000FF" stroke-width="2.6389" stroke-linejoin="round" stroke-miterlimit="10" x1="437.963" y1="55.5" x2="477.177" y2="55.5"/>
	</g>
	<g transform="translate(480.1491,73)">
		<text transform="matrix(1 0 0 1 -6.713867e-004 4.4998)" font-family="'MyriadPro-Regular'" font-size="11.875">n</text>
	</g>
	<g>
		
			<line fill="none" stroke="#FF0000" stroke-width="2.6389" stroke-linejoin="round" stroke-miterlimit="10" x1="437.963" y1="73" x2="477.177" y2="73"/>
	</g>
	<g transform="translate(480.1491,90.5)">
		<text transform="matrix(1 0 0 1 -6.713867e-004 4.4998)" font-family="'MyriadPro-Regular'" font-size="11.875">s</text>
	</g>
	<g>
		
			<line fill="none" stroke="#000000" stroke-width="2.6389" stroke-linejoin="round" stroke-miterlimit="10" x1="437.963" y1="90.5" x2="477.177" y2="90.5"/>
	</g>
	<g>
		<path fill="none" stroke="#262626" stroke-width="0.6597" stroke-miterlimit="10" d="M434,101V45h62v56H434z"/>
	</g>
</g>
</svg>
