<?xml version="1.0" encoding="utf-8"?>
<!-- Generator: Adobe Illustrator 16.0.0, SVG Export Plug-In . SVG Version: 6.00 Build 0)  -->
<!DOCTYPE svg PUBLIC "-//W3C//DTD SVG 1.1//EN" "http://www.w3.org/Graphics/SVG/1.1/DTD/svg11.dtd">
<svg version="1.1" id="Layer_1" xmlns="http://www.w3.org/2000/svg" xmlns:xlink="http://www.w3.org/1999/xlink" x="0px" y="0px"
	 width="1462px" height="634px" viewBox="0 0 1462 634" enable-background="new 0 0 1462 634" xml:space="preserve">
<text transform="matrix(1 0 0 1 598.0005 37.1003)" font-family="'MyriadPro-Regular'" font-size="20.5833">Ripples rate at spindles onset UP</text>
<g>
	
		<line fill="none" stroke="#000000" stroke-width="2.2431" stroke-linecap="square" stroke-linejoin="round" stroke-miterlimit="10" x1="190" y1="244.088" x2="464.5" y2="244.088"/>
	
		<line fill="none" stroke="#000000" stroke-width="2.2431" stroke-linecap="square" stroke-linejoin="round" stroke-miterlimit="10" x1="190" y1="244.412" x2="190" y2="48"/>
	
		<line fill="none" stroke="#000000" stroke-width="2.2431" stroke-linecap="square" stroke-linejoin="round" stroke-miterlimit="10" x1="190" y1="244.088" x2="178.67" y2="244.088"/>
	
		<line fill="none" stroke="#000000" stroke-width="2.2431" stroke-linecap="square" stroke-linejoin="round" stroke-miterlimit="10" x1="190" y1="180.105" x2="178.67" y2="180.105"/>
	
		<line fill="none" stroke="#000000" stroke-width="2.2431" stroke-linecap="square" stroke-linejoin="round" stroke-miterlimit="10" x1="190" y1="116.123" x2="178.67" y2="116.123"/>
	
		<line fill="none" stroke="#000000" stroke-width="2.2431" stroke-linecap="square" stroke-linejoin="round" stroke-miterlimit="10" x1="190" y1="52.14" x2="178.67" y2="52.14"/>
	<text transform="matrix(1 0 0 1 162.8643 250.0876)" font-family="'MyriadPro-Regular'" font-size="15.8333">0</text>
	<text transform="matrix(1 0 0 1 140.8643 186.1052)" font-family="'MyriadPro-Regular'" font-size="15.8333">0.02</text>
	<text transform="matrix(1 0 0 1 140.8643 122.1228)" font-family="'MyriadPro-Regular'" font-size="15.8333">0.04</text>
	<text transform="matrix(1 0 0 1 140.8643 58.1404)" font-family="'MyriadPro-Regular'" font-size="15.8333">0.06</text>
	<text transform="matrix(6.123234e-017 -1 1 6.123234e-017 117.4063 185.9998)" font-family="'MyriadPro-Regular'" font-size="19">Ripples rate</text>
	<path fill="#808080" d="M232.942,161.364v24.78h43.577v-24.78H232.942z"/>
	<path fill="none" stroke="#000000" stroke-width="0.6597" stroke-linecap="square" stroke-miterlimit="10" d="M232.942,161.364
		v24.78V161.364h43.577l0,0v24.78l0,0h-43.577V161.364"/>
	
		<line fill="none" stroke="#000000" stroke-width="2.6389" stroke-linejoin="round" stroke-miterlimit="10" x1="232.942" y1="180.163" x2="276.52" y2="180.163"/>
	
		<line fill="none" stroke="#000000" stroke-width="1.9792" stroke-linejoin="round" stroke-miterlimit="10" x1="254.73" y1="194.98" x2="254.73" y2="186.144"/>
	
		<line fill="none" stroke="#000000" stroke-width="1.9792" stroke-linejoin="round" stroke-miterlimit="10" x1="254.73" y1="124.627" x2="254.73" y2="161.364"/>
	<path fill="none" stroke="#000000" stroke-width="0.6597" stroke-miterlimit="10" d="M263.683,113.472v10 M258.683,118.472h10
		 M260.384,115.174l6.598,6.598 M260.384,121.771l6.598-6.598"/>
	<path fill="none" stroke="#000000" stroke-width="0.6597" stroke-miterlimit="10" d="M248.066,109.293v10 M243.066,114.293h10
		 M244.768,110.994l6.598,6.597 M244.768,117.591l6.598-6.597"/>
	<path fill="none" stroke="#000000" stroke-width="0.6597" stroke-miterlimit="10" d="M247.889,104.253v10 M242.889,109.253h10
		 M244.59,105.954l6.597,6.598 M244.59,112.552l6.597-6.598"/>
	<path fill="none" stroke="#000000" stroke-width="0.6597" stroke-miterlimit="10" d="M244.004,103.147v10 M239.004,108.147h10
		 M240.705,104.848l6.598,6.598 M240.705,111.446l6.598-6.598"/>
	<path fill="none" stroke="#000000" stroke-width="0.6597" stroke-miterlimit="10" d="M251.677,103.005v10 M246.677,108.005h10
		 M248.378,104.707l6.597,6.597 M248.378,111.303l6.597-6.597"/>
	<path fill="none" stroke="#000000" stroke-width="0.6597" stroke-miterlimit="10" d="M245.931,102.01v10 M240.931,107.01h10
		 M242.632,103.712l6.598,6.597 M242.632,110.308l6.598-6.597"/>
	<path fill="none" stroke="#000000" stroke-width="0.6597" stroke-miterlimit="10" d="M257.886,101.751v10 M252.886,106.751h10
		 M254.587,103.452l6.598,6.598 M254.587,110.05l6.598-6.598"/>
	<path fill="none" stroke="#000000" stroke-width="0.6597" stroke-miterlimit="10" d="M252.894,101.311v10 M247.894,106.311h10
		 M249.596,103.012l6.597,6.598 M249.596,109.61l6.597-6.598"/>
	<path fill="none" stroke="#000000" stroke-width="0.6597" stroke-miterlimit="10" d="M251.609,102.912v10 M246.609,107.912h10
		 M248.311,104.613l6.598,6.597 M248.311,111.21l6.598-6.597"/>
	<path fill="none" stroke="#000000" stroke-width="0.6597" stroke-miterlimit="10" d="M243.005,109.323v10 M238.005,114.323h10
		 M239.706,111.024l6.598,6.598 M239.706,117.622l6.598-6.598"/>
	<path fill="none" stroke="#000000" stroke-width="0.6597" stroke-miterlimit="10" d="M249.551,115.243v10 M244.551,120.243h10
		 M246.252,116.944l6.598,6.598 M246.252,123.542l6.598-6.598"/>
	<path fill="#CCCCCC" d="M323.712,145.582v26.732h43.576v-26.732H323.712z"/>
	<path fill="none" stroke="#000000" stroke-width="0.6597" stroke-linecap="square" stroke-miterlimit="10" d="M323.712,145.582
		v26.732V145.582h43.576l0,0v26.732l0,0h-43.576V145.582"/>
	
		<line fill="none" stroke="#000000" stroke-width="2.6389" stroke-linejoin="round" stroke-miterlimit="10" x1="323.712" y1="152.786" x2="367.288" y2="152.786"/>
	
		<line fill="none" stroke="#000000" stroke-width="1.9792" stroke-linejoin="round" stroke-miterlimit="10" x1="345.5" y1="190.357" x2="345.5" y2="172.314"/>
	
		<line fill="none" stroke="#000000" stroke-width="1.9792" stroke-linejoin="round" stroke-miterlimit="10" x1="345.5" y1="111.323" x2="345.5" y2="145.582"/>
	<path fill="none" stroke="#000000" stroke-width="0.6597" stroke-miterlimit="10" d="M349.627,82.699v10 M344.627,87.699h10
		 M346.329,84.401l6.597,6.597 M346.329,90.998l6.597-6.597"/>
	<path fill="none" stroke="#000000" stroke-width="0.6597" stroke-miterlimit="10" d="M346.038,63.681v10 M341.038,68.681h10
		 M342.74,65.383l6.597,6.597 M342.74,71.979l6.597-6.597"/>
	<path fill="none" stroke="#000000" stroke-width="0.6597" stroke-miterlimit="10" d="M332.292,49.547v10 M327.292,54.547h10
		 M328.993,51.248l6.598,6.598 M328.993,57.845l6.598-6.598"/>
	<path fill="none" stroke="#000000" stroke-width="0.6597" stroke-miterlimit="10" d="M331.669,43v10 M326.669,48h10 M328.37,44.702
		l6.597,6.597 M328.37,51.299l6.597-6.597"/>
	<path fill="none" stroke="#000000" stroke-width="0.6597" stroke-miterlimit="10" d="M342.34,43.763v10 M337.34,48.763h10
		 M339.041,45.465l6.598,6.598 M339.041,52.062l6.598-6.598"/>
	<path fill="none" stroke="#000000" stroke-width="0.6597" stroke-miterlimit="10" d="M351.994,53.156v10 M346.994,58.156h10
		 M348.695,54.858l6.597,6.597 M348.695,61.455l6.597-6.597"/>
	<path fill="none" stroke="#000000" stroke-width="0.6597" stroke-miterlimit="10" d="M348.888,58.431v10 M343.888,63.431h10
		 M345.589,60.133l6.598,6.598 M345.589,66.73l6.598-6.598"/>
	<path fill="none" stroke="#000000" stroke-width="0.6597" stroke-miterlimit="10" d="M359.252,80.032v10 M354.252,85.032h10
		 M355.954,81.733l6.597,6.597 M355.954,88.33l6.597-6.597"/>
	<path fill="none" stroke="#000000" stroke-width="0.6597" stroke-miterlimit="10" d="M333.846,99.983v10 M328.846,104.983h10
		 M330.548,101.685l6.597,6.597 M330.548,108.282l6.597-6.597"/>
	<path fill="#CCCCCC" d="M415.48,120.465v38.117h43.577v-38.117H415.48z"/>
	<path fill="none" stroke="#000000" stroke-width="0.6597" stroke-linecap="square" stroke-miterlimit="10" d="M415.48,120.465
		v38.117V120.465h43.577l0,0v38.117l0,0H415.48V120.465"/>
	
		<line fill="none" stroke="#000000" stroke-width="2.6389" stroke-linejoin="round" stroke-miterlimit="10" x1="415.48" y1="143.658" x2="459.058" y2="143.658"/>
	
		<line fill="none" stroke="#000000" stroke-width="1.9792" stroke-linejoin="round" stroke-miterlimit="10" x1="437.27" y1="171.994" x2="437.27" y2="158.582"/>
	
		<line fill="none" stroke="#000000" stroke-width="1.9792" stroke-linejoin="round" stroke-miterlimit="10" x1="437.27" y1="66.167" x2="437.27" y2="120.465"/>
</g>
</svg>
