<?xml version="1.0" encoding="utf-8"?>
<!-- Generator: Adobe Illustrator 16.0.0, SVG Export Plug-In . SVG Version: 6.00 Build 0)  -->
<!DOCTYPE svg PUBLIC "-//W3C//DTD SVG 1.1//EN" "http://www.w3.org/Graphics/SVG/1.1/DTD/svg11.dtd">
<svg version="1.1" id="Layer_1" xmlns="http://www.w3.org/2000/svg" xmlns:xlink="http://www.w3.org/1999/xlink" x="0px" y="0px"
	 width="560px" height="420px" viewBox="0 0 560 420" enable-background="new 0 0 560 420" xml:space="preserve">
<g>
	
		<line fill="none" stroke="#262626" stroke-width="0.6597" stroke-linecap="square" stroke-linejoin="round" stroke-miterlimit="10" x1="73" y1="374" x2="507" y2="374"/>
	
		<line fill="none" stroke="#262626" stroke-width="0.6597" stroke-linecap="square" stroke-linejoin="round" stroke-miterlimit="10" x1="73" y1="374" x2="73" y2="369.66"/>
	
		<line fill="none" stroke="#262626" stroke-width="0.6597" stroke-linecap="square" stroke-linejoin="round" stroke-miterlimit="10" x1="127.25" y1="374" x2="127.25" y2="369.66"/>
	
		<line fill="none" stroke="#262626" stroke-width="0.6597" stroke-linecap="square" stroke-linejoin="round" stroke-miterlimit="10" x1="181.5" y1="374" x2="181.5" y2="369.66"/>
	
		<line fill="none" stroke="#262626" stroke-width="0.6597" stroke-linecap="square" stroke-linejoin="round" stroke-miterlimit="10" x1="235.75" y1="374" x2="235.75" y2="369.66"/>
	
		<line fill="none" stroke="#262626" stroke-width="0.6597" stroke-linecap="square" stroke-linejoin="round" stroke-miterlimit="10" x1="290" y1="374" x2="290" y2="369.66"/>
	
		<line fill="none" stroke="#262626" stroke-width="0.6597" stroke-linecap="square" stroke-linejoin="round" stroke-miterlimit="10" x1="344.25" y1="374" x2="344.25" y2="369.66"/>
	
		<line fill="none" stroke="#262626" stroke-width="0.6597" stroke-linecap="square" stroke-linejoin="round" stroke-miterlimit="10" x1="398.5" y1="374" x2="398.5" y2="369.66"/>
	
		<line fill="none" stroke="#262626" stroke-width="0.6597" stroke-linecap="square" stroke-linejoin="round" stroke-miterlimit="10" x1="452.75" y1="374" x2="452.75" y2="369.66"/>
	
		<line fill="none" stroke="#262626" stroke-width="0.6597" stroke-linecap="square" stroke-linejoin="round" stroke-miterlimit="10" x1="73" y1="31" x2="73" y2="35.34"/>
	<g transform="translate(73,379.2778)">
		<path fill="#262626" d="M-5.484,12.015v-1h3.156v1H-5.484z M5.417,12.89H4.073V15H2.964V12.89h-4.453v-0.969l4.375-6.25h1.188
			v6.188h1.344V12.89z M2.964,8.937c0-0.447,0.008-0.83,0.023-1.148C3.003,7.471,3.016,7.171,3.026,6.89H2.979
			C2.907,7.057,2.818,7.234,2.714,7.421s-0.203,0.35-0.297,0.484l-2.781,3.953h3.328V8.937z"/>
	</g>
	<g transform="translate(127.25,379.2778)">
		<path fill="#262626" d="M-5.484,12.015v-1h3.156v1H-5.484z M4.651,7.89c0,0.625-0.172,1.123-0.516,1.492
			c-0.344,0.37-0.813,0.612-1.406,0.727v0.047c0.75,0.094,1.305,0.331,1.664,0.711c0.359,0.381,0.539,0.878,0.539,1.492
			c0,0.542-0.125,1.021-0.375,1.438c-0.25,0.417-0.635,0.742-1.156,0.977s-1.193,0.352-2.016,0.352c-0.49,0-0.943-0.036-1.359-0.109
			c-0.417-0.072-0.818-0.203-1.203-0.391v-1.063c0.396,0.188,0.818,0.336,1.266,0.445s0.88,0.164,1.297,0.164
			c0.833,0,1.435-0.164,1.805-0.492s0.555-0.778,0.555-1.352c0-0.572-0.227-0.986-0.68-1.242c-0.453-0.255-1.091-0.383-1.914-0.383
			H0.245V9.718h0.906c0.771,0,1.352-0.158,1.742-0.477C3.284,8.924,3.479,8.5,3.479,7.968c0-0.447-0.151-0.797-0.453-1.047
			S2.313,6.546,1.792,6.546c-0.5,0-0.927,0.073-1.281,0.219C0.157,6.912-0.198,7.099-0.552,7.328l-0.563-0.781
			c0.323-0.26,0.729-0.484,1.219-0.672s1.047-0.281,1.672-0.281c0.969,0,1.69,0.217,2.164,0.648C4.415,6.674,4.651,7.224,4.651,7.89
			z"/>
	</g>
	<g transform="translate(181.5,379.2778)">
		<path fill="#262626" d="M-5.484,12.015v-1h3.156v1H-5.484z M5.011,15H-1.13v-0.953l2.438-2.453
			c0.458-0.469,0.849-0.885,1.172-1.25c0.323-0.364,0.568-0.721,0.734-1.07c0.167-0.349,0.25-0.731,0.25-1.148
			c0-0.51-0.154-0.898-0.461-1.164s-0.701-0.398-1.18-0.398c-0.448,0-0.844,0.078-1.188,0.234s-0.693,0.375-1.047,0.656
			l-0.609-0.766c0.365-0.313,0.781-0.572,1.25-0.781c0.469-0.208,1-0.313,1.594-0.313c0.865,0,1.549,0.219,2.055,0.656
			s0.758,1.042,0.758,1.813c0,0.479-0.102,0.933-0.305,1.359c-0.203,0.428-0.482,0.847-0.836,1.258
			c-0.354,0.412-0.771,0.852-1.25,1.32l-1.938,1.906v0.047h4.703V15z"/>
	</g>
	<g transform="translate(235.75,379.2778)">
		<path fill="#262626" d="M-5.484,12.015v-1h3.156v1H-5.484z M2.854,15H1.745V8.515c0-0.375,0.002-0.674,0.008-0.898
			c0.005-0.224,0.018-0.461,0.039-0.711c-0.135,0.146-0.26,0.266-0.375,0.359S1.162,7.479,0.995,7.625l-1,0.813l-0.594-0.766
			l2.516-1.953h0.938V15z"/>
	</g>
	<g transform="translate(290,379.2778)">
		<path fill="#262626" d="M2.797,10.343c0,1-0.104,1.857-0.313,2.57c-0.209,0.714-0.537,1.261-0.984,1.641
			c-0.447,0.381-1.047,0.57-1.797,0.57c-1.053,0-1.826-0.422-2.32-1.266s-0.742-2.016-0.742-3.516c0-1,0.102-1.856,0.305-2.57
			C-2.852,7.06-2.525,6.515-2.078,6.14s1.041-0.563,1.781-0.563c1.041,0,1.818,0.417,2.328,1.25
			C2.541,7.662,2.797,8.834,2.797,10.343z M-2.219,10.343c0,1.271,0.146,2.225,0.438,2.859c0.291,0.636,0.787,0.953,1.484,0.953
			s1.195-0.314,1.492-0.945c0.297-0.63,0.445-1.586,0.445-2.867c0-1.26-0.148-2.208-0.445-2.844C0.898,6.865,0.4,6.546-0.297,6.546
			S-1.49,6.865-1.781,7.5C-2.072,8.135-2.219,9.084-2.219,10.343z"/>
	</g>
	<g transform="translate(344.25,379.2778)">
		<path fill="#262626" d="M0.609,15H-0.5V8.515c0-0.375,0.003-0.674,0.008-0.898c0.005-0.224,0.019-0.461,0.039-0.711
			c-0.136,0.146-0.261,0.266-0.375,0.359S-1.083,7.479-1.25,7.625l-1,0.813l-0.594-0.766l2.516-1.953h0.938V15z"/>
	</g>
	<g transform="translate(398.5,379.2778)">
		<path fill="#262626" d="M2.766,15h-6.141v-0.953l2.438-2.453c0.458-0.469,0.849-0.885,1.172-1.25
			c0.323-0.364,0.567-0.721,0.734-1.07c0.167-0.349,0.25-0.731,0.25-1.148c0-0.51-0.153-0.898-0.461-1.164s-0.7-0.398-1.18-0.398
			c-0.448,0-0.844,0.078-1.188,0.234s-0.692,0.375-1.047,0.656l-0.609-0.766c0.364-0.313,0.781-0.572,1.25-0.781
			c0.469-0.208,1-0.313,1.594-0.313c0.864,0,1.55,0.219,2.055,0.656s0.758,1.042,0.758,1.813c0,0.479-0.102,0.933-0.305,1.359
			c-0.203,0.428-0.481,0.847-0.836,1.258C0.896,11.091,0.479,11.531,0,12l-1.938,1.906v0.047h4.703V15z"/>
	</g>
	<g transform="translate(452.75,379.2778)">
		<path fill="#262626" d="M2.406,7.89c0,0.625-0.172,1.123-0.516,1.492c-0.344,0.37-0.813,0.612-1.406,0.727v0.047
			c0.75,0.094,1.305,0.331,1.664,0.711c0.359,0.381,0.539,0.878,0.539,1.492c0,0.542-0.125,1.021-0.375,1.438
			c-0.25,0.417-0.636,0.742-1.156,0.977s-1.192,0.352-2.016,0.352c-0.489,0-0.942-0.036-1.359-0.109
			c-0.417-0.072-0.817-0.203-1.203-0.391v-1.063c0.396,0.188,0.817,0.336,1.266,0.445s0.88,0.164,1.297,0.164
			c0.833,0,1.435-0.164,1.805-0.492S1.5,12.901,1.5,12.328c0-0.572-0.227-0.986-0.68-1.242c-0.453-0.255-1.091-0.383-1.914-0.383H-2
			V9.718h0.906c0.771,0,1.352-0.158,1.742-0.477C1.039,8.924,1.234,8.5,1.234,7.968c0-0.447-0.151-0.797-0.453-1.047
			S0.067,6.546-0.453,6.546c-0.5,0-0.927,0.073-1.281,0.219c-0.354,0.146-0.708,0.334-1.063,0.563l-0.563-0.781
			c0.323-0.26,0.729-0.484,1.219-0.672s1.047-0.281,1.672-0.281c0.969,0,1.69,0.217,2.164,0.648C2.169,6.674,2.406,7.224,2.406,7.89
			z"/>
	</g>
	<g transform="translate(507,379.2778)">
		<path fill="#262626" d="M3.172,12.89H1.828V15H0.719V12.89h-4.453v-0.969l4.375-6.25h1.188v6.188h1.344V12.89z M0.719,8.937
			c0-0.447,0.008-0.83,0.023-1.148C0.758,7.471,0.771,7.171,0.781,6.89H0.734C0.661,7.057,0.573,7.234,0.469,7.421
			s-0.203,0.35-0.297,0.484l-2.781,3.953h3.328V8.937z"/>
	</g>
	
		<line fill="none" stroke="#262626" stroke-width="0.6597" stroke-linecap="square" stroke-linejoin="round" stroke-miterlimit="10" x1="73" y1="374" x2="73" y2="31"/>
	
		<line fill="none" stroke="#262626" stroke-width="0.6597" stroke-linecap="square" stroke-linejoin="round" stroke-miterlimit="10" x1="73" y1="374" x2="77.34" y2="374"/>
	
		<line fill="none" stroke="#262626" stroke-width="0.6597" stroke-linecap="square" stroke-linejoin="round" stroke-miterlimit="10" x1="73" y1="335.889" x2="77.34" y2="335.889"/>
	
		<line fill="none" stroke="#262626" stroke-width="0.6597" stroke-linecap="square" stroke-linejoin="round" stroke-miterlimit="10" x1="73" y1="297.777" x2="77.34" y2="297.777"/>
	
		<line fill="none" stroke="#262626" stroke-width="0.6597" stroke-linecap="square" stroke-linejoin="round" stroke-miterlimit="10" x1="73" y1="259.666" x2="77.34" y2="259.666"/>
	
		<line fill="none" stroke="#262626" stroke-width="0.6597" stroke-linecap="square" stroke-linejoin="round" stroke-miterlimit="10" x1="73" y1="221.556" x2="77.34" y2="221.556"/>
	
		<line fill="none" stroke="#262626" stroke-width="0.6597" stroke-linecap="square" stroke-linejoin="round" stroke-miterlimit="10" x1="73" y1="183.444" x2="77.34" y2="183.444"/>
	
		<line fill="none" stroke="#262626" stroke-width="0.6597" stroke-linecap="square" stroke-linejoin="round" stroke-miterlimit="10" x1="73" y1="145.333" x2="77.34" y2="145.333"/>
	
		<line fill="none" stroke="#262626" stroke-width="0.6597" stroke-linecap="square" stroke-linejoin="round" stroke-miterlimit="10" x1="73" y1="107.222" x2="77.34" y2="107.222"/>
	
		<line fill="none" stroke="#262626" stroke-width="0.6597" stroke-linecap="square" stroke-linejoin="round" stroke-miterlimit="10" x1="73" y1="69.111" x2="77.34" y2="69.111"/>
	
		<line fill="none" stroke="#262626" stroke-width="0.6597" stroke-linecap="square" stroke-linejoin="round" stroke-miterlimit="10" x1="507" y1="374" x2="502.66" y2="374"/>
	<g transform="translate(67.7222,374)">
		<path fill="#262626" d="M-20.203,0.844c0,1-0.104,1.857-0.313,2.57s-0.537,1.26-0.984,1.641s-1.047,0.57-1.797,0.57
			c-1.052,0-1.826-0.422-2.32-1.266s-0.742-2.016-0.742-3.516c0-1,0.102-1.857,0.305-2.57s0.529-1.258,0.977-1.633
			s1.042-0.563,1.781-0.563c1.042,0,1.818,0.416,2.328,1.25S-20.203-0.666-20.203,0.844z M-25.219,0.844
			c0,1.271,0.146,2.225,0.438,2.859s0.787,0.953,1.484,0.953s1.195-0.314,1.492-0.945s0.445-1.586,0.445-2.867
			c0-1.26-0.148-2.209-0.445-2.844s-0.794-0.953-1.492-0.953S-24.49-2.635-24.781-2S-25.219-0.416-25.219,0.844z M-18.522,4.797
			c0-0.322,0.078-0.549,0.234-0.68s0.344-0.195,0.563-0.195s0.409,0.064,0.57,0.195s0.242,0.357,0.242,0.68
			c0,0.313-0.081,0.539-0.242,0.68s-0.352,0.211-0.57,0.211s-0.406-0.07-0.563-0.211S-18.522,5.109-18.522,4.797z M-9.129,0.844
			c0,1-0.104,1.857-0.313,2.57s-0.537,1.26-0.984,1.641s-1.047,0.57-1.797,0.57c-1.052,0-1.826-0.422-2.32-1.266
			s-0.742-2.016-0.742-3.516c0-1,0.102-1.857,0.305-2.57s0.529-1.258,0.977-1.633s1.042-0.563,1.781-0.563
			c1.042,0,1.818,0.416,2.328,1.25S-9.129-0.666-9.129,0.844z M-14.145,0.844c0,1.271,0.146,2.225,0.438,2.859
			s0.787,0.953,1.484,0.953s1.195-0.314,1.492-0.945s0.445-1.586,0.445-2.867c0-1.26-0.148-2.209-0.445-2.844
			s-0.794-0.953-1.492-0.953S-13.416-2.635-13.707-2S-14.145-0.416-14.145,0.844z M-1.619,5.5H-7.76V4.547l2.438-2.453
			c0.458-0.469,0.849-0.885,1.172-1.25s0.568-0.721,0.734-1.07s0.25-0.732,0.25-1.148c0-0.51-0.154-0.898-0.461-1.164
			s-0.701-0.398-1.18-0.398c-0.448,0-0.844,0.078-1.188,0.234s-0.693,0.375-1.047,0.656L-7.65-2.813
			c0.365-0.313,0.781-0.572,1.25-0.781s1-0.313,1.594-0.313c0.865,0,1.549,0.219,2.055,0.656s0.758,1.041,0.758,1.813
			c0,0.479-0.102,0.932-0.305,1.359S-2.781,0.768-3.135,1.18s-0.771,0.852-1.25,1.32l-1.938,1.906v0.047h4.703V5.5z"/>
	</g>
	<g transform="translate(67.7222,335.8889)">
		<path fill="#262626" d="M-27.203,0.844c0,1-0.104,1.857-0.313,2.57c-0.208,0.714-0.537,1.261-0.984,1.641
			c-0.448,0.381-1.047,0.57-1.797,0.57c-1.052,0-1.826-0.422-2.32-1.266s-0.742-2.016-0.742-3.516c0-1,0.102-1.856,0.305-2.57
			c0.203-0.713,0.529-1.258,0.977-1.633s1.042-0.563,1.781-0.563c1.042,0,1.818,0.417,2.328,1.25
			C-27.459-1.838-27.203-0.666-27.203,0.844z M-32.219,0.844c0,1.271,0.146,2.225,0.438,2.859c0.292,0.636,0.787,0.953,1.484,0.953
			s1.195-0.314,1.492-0.945c0.297-0.63,0.445-1.586,0.445-2.867c0-1.26-0.148-2.208-0.445-2.844
			c-0.297-0.635-0.794-0.953-1.492-0.953S-31.49-2.635-31.781-2C-32.073-1.364-32.219-0.416-32.219,0.844z M-25.522,4.797
			c0-0.322,0.078-0.549,0.234-0.68c0.156-0.13,0.344-0.195,0.563-0.195s0.409,0.065,0.57,0.195c0.162,0.131,0.242,0.357,0.242,0.68
			c0,0.313-0.081,0.539-0.242,0.68s-0.352,0.211-0.57,0.211s-0.406-0.07-0.563-0.211S-25.522,5.109-25.522,4.797z M-16.129,0.844
			c0,1-0.104,1.857-0.313,2.57c-0.208,0.714-0.537,1.261-0.984,1.641c-0.448,0.381-1.047,0.57-1.797,0.57
			c-1.052,0-1.826-0.422-2.32-1.266s-0.742-2.016-0.742-3.516c0-1,0.102-1.856,0.305-2.57c0.203-0.713,0.529-1.258,0.977-1.633
			s1.042-0.563,1.781-0.563c1.042,0,1.818,0.417,2.328,1.25C-16.384-1.838-16.129-0.666-16.129,0.844z M-21.145,0.844
			c0,1.271,0.146,2.225,0.438,2.859c0.292,0.636,0.787,0.953,1.484,0.953s1.195-0.314,1.492-0.945
			c0.297-0.63,0.445-1.586,0.445-2.867c0-1.26-0.148-2.208-0.445-2.844c-0.297-0.635-0.794-0.953-1.492-0.953
			S-20.416-2.635-20.707-2C-20.999-1.364-21.145-0.416-21.145,0.844z M-8.619,5.5h-6.141V4.547l2.438-2.453
			c0.458-0.469,0.849-0.885,1.172-1.25c0.323-0.364,0.568-0.721,0.734-1.07c0.167-0.349,0.25-0.731,0.25-1.148
			c0-0.51-0.154-0.898-0.461-1.164s-0.701-0.398-1.18-0.398c-0.448,0-0.844,0.078-1.188,0.234s-0.693,0.375-1.047,0.656
			l-0.609-0.766c0.365-0.313,0.781-0.572,1.25-0.781c0.469-0.208,1-0.313,1.594-0.313c0.865,0,1.549,0.219,2.055,0.656
			s0.758,1.042,0.758,1.813c0,0.479-0.102,0.933-0.305,1.359c-0.203,0.428-0.482,0.847-0.836,1.258
			c-0.354,0.412-0.771,0.852-1.25,1.32l-1.938,1.906v0.047h4.703V5.5z M-4.266-0.188c0.948,0,1.703,0.237,2.266,0.711
			c0.563,0.475,0.844,1.144,0.844,2.008c0,0.969-0.305,1.727-0.914,2.273s-1.461,0.82-2.555,0.82c-0.469,0-0.914-0.041-1.336-0.125
			c-0.422-0.083-0.779-0.208-1.07-0.375V4.047c0.313,0.188,0.693,0.336,1.141,0.445s0.875,0.164,1.281,0.164
			c0.688,0,1.242-0.161,1.664-0.484c0.422-0.322,0.633-0.828,0.633-1.516c0-0.604-0.188-1.07-0.563-1.398s-0.963-0.492-1.766-0.492
			c-0.25,0-0.531,0.021-0.844,0.063c-0.313,0.042-0.563,0.089-0.75,0.141l-0.563-0.375l0.344-4.375h4.656v1.047h-3.688l-0.219,2.688
			c0.146-0.031,0.346-0.063,0.602-0.094S-4.568-0.188-4.266-0.188z"/>
	</g>
	<g transform="translate(67.7222,297.7778)">
		<path fill="#262626" d="M-20.203,0.843c0,1-0.104,1.857-0.313,2.57c-0.208,0.714-0.537,1.261-0.984,1.641
			c-0.448,0.381-1.047,0.57-1.797,0.57c-1.052,0-1.826-0.422-2.32-1.266s-0.742-2.016-0.742-3.516c0-1,0.102-1.856,0.305-2.57
			c0.203-0.713,0.529-1.258,0.977-1.633s1.042-0.563,1.781-0.563c1.042,0,1.818,0.417,2.328,1.25
			C-20.459-1.838-20.203-0.666-20.203,0.843z M-25.219,0.843c0,1.271,0.146,2.225,0.438,2.859c0.292,0.636,0.787,0.953,1.484,0.953
			s1.195-0.314,1.492-0.945c0.297-0.63,0.445-1.586,0.445-2.867c0-1.26-0.148-2.208-0.445-2.844
			c-0.297-0.635-0.794-0.953-1.492-0.953S-24.49-2.635-24.781-2C-25.073-1.365-25.219-0.416-25.219,0.843z M-18.522,4.796
			c0-0.322,0.078-0.549,0.234-0.68c0.156-0.13,0.344-0.195,0.563-0.195s0.409,0.065,0.57,0.195c0.162,0.131,0.242,0.357,0.242,0.68
			c0,0.313-0.081,0.539-0.242,0.68s-0.352,0.211-0.57,0.211s-0.406-0.07-0.563-0.211S-18.522,5.109-18.522,4.796z M-9.129,0.843
			c0,1-0.104,1.857-0.313,2.57c-0.208,0.714-0.537,1.261-0.984,1.641c-0.448,0.381-1.047,0.57-1.797,0.57
			c-1.052,0-1.826-0.422-2.32-1.266s-0.742-2.016-0.742-3.516c0-1,0.102-1.856,0.305-2.57c0.203-0.713,0.529-1.258,0.977-1.633
			s1.042-0.563,1.781-0.563c1.042,0,1.818,0.417,2.328,1.25C-9.384-1.838-9.129-0.666-9.129,0.843z M-14.145,0.843
			c0,1.271,0.146,2.225,0.438,2.859c0.292,0.636,0.787,0.953,1.484,0.953s1.195-0.314,1.492-0.945
			c0.297-0.63,0.445-1.586,0.445-2.867c0-1.26-0.148-2.208-0.445-2.844c-0.297-0.635-0.794-0.953-1.492-0.953
			S-13.416-2.635-13.707-2C-13.999-1.365-14.145-0.416-14.145,0.843z M-1.979-1.61c0,0.625-0.172,1.123-0.516,1.492
			C-2.838,0.252-3.307,0.495-3.9,0.609v0.047c0.75,0.094,1.305,0.331,1.664,0.711c0.359,0.381,0.539,0.878,0.539,1.492
			c0,0.542-0.125,1.021-0.375,1.438c-0.25,0.417-0.635,0.742-1.156,0.977s-1.193,0.352-2.016,0.352c-0.49,0-0.943-0.036-1.359-0.109
			C-7.02,5.443-7.421,5.312-7.807,5.125V4.062c0.396,0.188,0.818,0.336,1.266,0.445s0.88,0.164,1.297,0.164
			c0.833,0,1.435-0.164,1.805-0.492s0.555-0.778,0.555-1.352c0-0.572-0.227-0.986-0.68-1.242c-0.453-0.255-1.091-0.383-1.914-0.383
			h-0.906V0.218h0.906c0.771,0,1.352-0.158,1.742-0.477C-3.346-0.576-3.15-1-3.15-1.532c0-0.447-0.151-0.797-0.453-1.047
			s-0.713-0.375-1.234-0.375c-0.5,0-0.927,0.073-1.281,0.219c-0.354,0.146-0.708,0.334-1.063,0.563l-0.563-0.781
			c0.323-0.26,0.729-0.484,1.219-0.672s1.047-0.281,1.672-0.281c0.969,0,1.69,0.217,2.164,0.648
			C-2.215-2.826-1.979-2.276-1.979-1.61z"/>
	</g>
	<g transform="translate(67.7222,259.6667)">
		<path fill="#262626" d="M-27.203,0.843c0,1-0.104,1.857-0.313,2.57c-0.208,0.715-0.537,1.262-0.984,1.641
			c-0.448,0.381-1.047,0.57-1.797,0.57c-1.052,0-1.826-0.422-2.32-1.266s-0.742-2.016-0.742-3.516c0-1,0.102-1.855,0.305-2.57
			c0.203-0.713,0.529-1.258,0.977-1.633s1.042-0.563,1.781-0.563c1.042,0,1.818,0.418,2.328,1.25
			C-27.459-1.839-27.203-0.667-27.203,0.843z M-32.219,0.843c0,1.271,0.146,2.225,0.438,2.859c0.292,0.637,0.787,0.953,1.484,0.953
			s1.195-0.314,1.492-0.945c0.297-0.629,0.445-1.586,0.445-2.867c0-1.26-0.148-2.207-0.445-2.844
			c-0.297-0.635-0.794-0.953-1.492-0.953s-1.193,0.318-1.484,0.953C-32.073-1.364-32.219-0.417-32.219,0.843z M-25.522,4.796
			c0-0.322,0.078-0.549,0.234-0.68c0.156-0.129,0.344-0.195,0.563-0.195s0.409,0.066,0.57,0.195c0.162,0.131,0.242,0.357,0.242,0.68
			c0,0.313-0.081,0.539-0.242,0.68s-0.352,0.211-0.57,0.211s-0.406-0.07-0.563-0.211S-25.522,5.109-25.522,4.796z M-16.129,0.843
			c0,1-0.104,1.857-0.313,2.57c-0.208,0.715-0.537,1.262-0.984,1.641c-0.448,0.381-1.047,0.57-1.797,0.57
			c-1.052,0-1.826-0.422-2.32-1.266s-0.742-2.016-0.742-3.516c0-1,0.102-1.855,0.305-2.57c0.203-0.713,0.529-1.258,0.977-1.633
			s1.042-0.563,1.781-0.563c1.042,0,1.818,0.418,2.328,1.25C-16.384-1.839-16.129-0.667-16.129,0.843z M-21.145,0.843
			c0,1.271,0.146,2.225,0.438,2.859c0.292,0.637,0.787,0.953,1.484,0.953s1.195-0.314,1.492-0.945
			c0.297-0.629,0.445-1.586,0.445-2.867c0-1.26-0.148-2.207-0.445-2.844c-0.297-0.635-0.794-0.953-1.492-0.953
			s-1.193,0.318-1.484,0.953C-20.999-1.364-21.145-0.417-21.145,0.843z M-8.979-1.61c0,0.625-0.172,1.123-0.516,1.492
			c-0.344,0.371-0.813,0.613-1.406,0.727v0.047c0.75,0.094,1.305,0.332,1.664,0.711c0.359,0.381,0.539,0.879,0.539,1.492
			c0,0.543-0.125,1.021-0.375,1.438c-0.25,0.418-0.635,0.742-1.156,0.977s-1.193,0.352-2.016,0.352c-0.49,0-0.943-0.035-1.359-0.109
			c-0.417-0.072-0.818-0.203-1.203-0.391V4.062c0.396,0.188,0.818,0.336,1.266,0.445s0.88,0.164,1.297,0.164
			c0.833,0,1.435-0.164,1.805-0.492s0.555-0.777,0.555-1.352c0-0.572-0.227-0.986-0.68-1.242c-0.453-0.254-1.091-0.383-1.914-0.383
			h-0.906V0.218h0.906c0.771,0,1.352-0.158,1.742-0.477c0.391-0.316,0.586-0.742,0.586-1.273c0-0.447-0.151-0.797-0.453-1.047
			s-0.713-0.375-1.234-0.375c-0.5,0-0.927,0.074-1.281,0.219c-0.354,0.146-0.708,0.334-1.063,0.563l-0.563-0.781
			c0.323-0.26,0.729-0.484,1.219-0.672s1.047-0.281,1.672-0.281c0.969,0,1.69,0.217,2.164,0.648
			C-9.215-2.825-8.979-2.276-8.979-1.61z M-4.266-0.188c0.948,0,1.703,0.238,2.266,0.711c0.563,0.475,0.844,1.145,0.844,2.008
			c0,0.969-0.305,1.727-0.914,2.273s-1.461,0.82-2.555,0.82c-0.469,0-0.914-0.041-1.336-0.125c-0.422-0.082-0.779-0.207-1.07-0.375
			V4.046c0.313,0.188,0.693,0.336,1.141,0.445s0.875,0.164,1.281,0.164c0.688,0,1.242-0.16,1.664-0.484
			c0.422-0.322,0.633-0.828,0.633-1.516c0-0.604-0.188-1.07-0.563-1.398s-0.963-0.492-1.766-0.492c-0.25,0-0.531,0.021-0.844,0.063
			c-0.313,0.043-0.563,0.09-0.75,0.141l-0.563-0.375l0.344-4.375h4.656v1.047h-3.688l-0.219,2.688
			c0.146-0.031,0.346-0.063,0.602-0.094S-4.568-0.188-4.266-0.188z"/>
	</g>
	<g transform="translate(67.7222,221.5556)">
		<path fill="#262626" d="M-20.203,0.844c0,1-0.104,1.856-0.313,2.57s-0.537,1.261-0.984,1.641s-1.047,0.57-1.797,0.57
			c-1.052,0-1.826-0.422-2.32-1.266s-0.742-2.016-0.742-3.516c0-1,0.102-1.856,0.305-2.57s0.529-1.258,0.977-1.633
			s1.042-0.563,1.781-0.563c1.042,0,1.818,0.417,2.328,1.25S-20.203-0.667-20.203,0.844z M-25.219,0.844
			c0,1.271,0.146,2.224,0.438,2.859s0.787,0.953,1.484,0.953s1.195-0.315,1.492-0.945s0.445-1.586,0.445-2.867
			c0-1.261-0.148-2.208-0.445-2.844s-0.794-0.953-1.492-0.953S-24.49-2.636-24.781-2S-25.219-0.417-25.219,0.844z M-18.522,4.797
			c0-0.323,0.078-0.55,0.234-0.68s0.344-0.195,0.563-0.195s0.409,0.065,0.57,0.195s0.242,0.356,0.242,0.68
			c0,0.313-0.081,0.539-0.242,0.68s-0.352,0.211-0.57,0.211s-0.406-0.07-0.563-0.211S-18.522,5.109-18.522,4.797z M-9.129,0.844
			c0,1-0.104,1.856-0.313,2.57s-0.537,1.261-0.984,1.641s-1.047,0.57-1.797,0.57c-1.052,0-1.826-0.422-2.32-1.266
			s-0.742-2.016-0.742-3.516c0-1,0.102-1.856,0.305-2.57s0.529-1.258,0.977-1.633s1.042-0.563,1.781-0.563
			c1.042,0,1.818,0.417,2.328,1.25S-9.129-0.667-9.129,0.844z M-14.145,0.844c0,1.271,0.146,2.224,0.438,2.859
			s0.787,0.953,1.484,0.953s1.195-0.315,1.492-0.945s0.445-1.586,0.445-2.867c0-1.261-0.148-2.208-0.445-2.844
			s-0.794-0.953-1.492-0.953S-13.416-2.636-13.707-2S-14.145-0.417-14.145,0.844z M-1.213,3.391h-1.344V5.5h-1.109V3.391h-4.453
			V2.422l4.375-6.25h1.188v6.188h1.344V3.391z M-3.666-0.562c0-0.448,0.008-0.831,0.023-1.148s0.029-0.617,0.039-0.898H-3.65
			c-0.073,0.167-0.162,0.344-0.266,0.531s-0.203,0.349-0.297,0.484l-2.781,3.953h3.328V-0.562z"/>
	</g>
	<g transform="translate(67.7222,183.4444)">
		<path fill="#262626" d="M-27.203,0.844c0,1-0.104,1.857-0.313,2.57s-0.537,1.26-0.984,1.641s-1.047,0.57-1.797,0.57
			c-1.052,0-1.826-0.422-2.32-1.266s-0.742-2.016-0.742-3.516c0-1,0.102-1.857,0.305-2.57s0.529-1.258,0.977-1.633
			s1.042-0.563,1.781-0.563c1.042,0,1.818,0.417,2.328,1.25S-27.203-0.667-27.203,0.844z M-32.219,0.844
			c0,1.271,0.146,2.224,0.438,2.859s0.787,0.953,1.484,0.953s1.195-0.315,1.492-0.945s0.445-1.586,0.445-2.867
			c0-1.26-0.148-2.208-0.445-2.844s-0.794-0.953-1.492-0.953S-31.49-2.635-31.781-2S-32.219-0.417-32.219,0.844z M-25.522,4.797
			c0-0.323,0.078-0.549,0.234-0.68s0.344-0.195,0.563-0.195s0.409,0.065,0.57,0.195s0.242,0.357,0.242,0.68
			c0,0.313-0.081,0.539-0.242,0.68s-0.352,0.211-0.57,0.211s-0.406-0.07-0.563-0.211S-25.522,5.109-25.522,4.797z M-16.129,0.844
			c0,1-0.104,1.857-0.313,2.57s-0.537,1.26-0.984,1.641s-1.047,0.57-1.797,0.57c-1.052,0-1.826-0.422-2.32-1.266
			s-0.742-2.016-0.742-3.516c0-1,0.102-1.857,0.305-2.57s0.529-1.258,0.977-1.633s1.042-0.563,1.781-0.563
			c1.042,0,1.818,0.417,2.328,1.25S-16.129-0.667-16.129,0.844z M-21.145,0.844c0,1.271,0.146,2.224,0.438,2.859
			s0.787,0.953,1.484,0.953s1.195-0.315,1.492-0.945s0.445-1.586,0.445-2.867c0-1.26-0.148-2.208-0.445-2.844
			s-0.794-0.953-1.492-0.953S-20.416-2.635-20.707-2S-21.145-0.417-21.145,0.844z M-8.213,3.391h-1.344V5.5h-1.109V3.391h-4.453
			V2.422l4.375-6.25h1.188v6.188h1.344V3.391z M-10.666-0.563c0-0.448,0.008-0.831,0.023-1.148s0.029-0.617,0.039-0.898h-0.047
			c-0.073,0.167-0.162,0.344-0.266,0.531s-0.203,0.349-0.297,0.484l-2.781,3.953h3.328V-0.563z M-4.266-0.188
			c0.948,0,1.703,0.237,2.266,0.711s0.844,1.143,0.844,2.008c0,0.969-0.305,1.727-0.914,2.273s-1.461,0.82-2.555,0.82
			c-0.469,0-0.914-0.042-1.336-0.125s-0.779-0.208-1.07-0.375V4.047c0.313,0.188,0.693,0.336,1.141,0.445s0.875,0.164,1.281,0.164
			c0.688,0,1.242-0.162,1.664-0.484s0.633-0.828,0.633-1.516c0-0.604-0.188-1.07-0.563-1.398s-0.963-0.492-1.766-0.492
			c-0.25,0-0.531,0.021-0.844,0.063s-0.563,0.088-0.75,0.141l-0.563-0.375l0.344-4.375h4.656v1.047h-3.688l-0.219,2.688
			c0.146-0.031,0.346-0.063,0.602-0.094S-4.568-0.188-4.266-0.188z"/>
	</g>
	<g transform="translate(67.7222,145.3333)">
		<path fill="#262626" d="M-20.203,0.844c0,1-0.104,1.856-0.313,2.57c-0.208,0.713-0.537,1.26-0.984,1.641
			c-0.448,0.38-1.047,0.57-1.797,0.57c-1.052,0-1.826-0.422-2.32-1.266s-0.742-2.016-0.742-3.516c0-1,0.102-1.857,0.305-2.57
			c0.203-0.714,0.529-1.258,0.977-1.633s1.042-0.563,1.781-0.563c1.042,0,1.818,0.417,2.328,1.25
			C-20.459-1.839-20.203-0.667-20.203,0.844z M-25.219,0.844c0,1.271,0.146,2.224,0.438,2.859c0.292,0.635,0.787,0.953,1.484,0.953
			s1.195-0.315,1.492-0.945c0.297-0.63,0.445-1.586,0.445-2.867c0-1.261-0.148-2.208-0.445-2.844
			c-0.297-0.636-0.794-0.953-1.492-0.953S-24.49-2.636-24.781-2C-25.073-1.365-25.219-0.417-25.219,0.844z M-18.522,4.797
			c0-0.323,0.078-0.55,0.234-0.68c0.156-0.13,0.344-0.195,0.563-0.195s0.409,0.065,0.57,0.195c0.162,0.13,0.242,0.356,0.242,0.68
			c0,0.313-0.081,0.539-0.242,0.68s-0.352,0.211-0.57,0.211s-0.406-0.07-0.563-0.211S-18.522,5.11-18.522,4.797z M-9.129,0.844
			c0,1-0.104,1.856-0.313,2.57c-0.208,0.713-0.537,1.26-0.984,1.641c-0.448,0.38-1.047,0.57-1.797,0.57
			c-1.052,0-1.826-0.422-2.32-1.266s-0.742-2.016-0.742-3.516c0-1,0.102-1.857,0.305-2.57c0.203-0.714,0.529-1.258,0.977-1.633
			s1.042-0.563,1.781-0.563c1.042,0,1.818,0.417,2.328,1.25C-9.384-1.839-9.129-0.667-9.129,0.844z M-14.145,0.844
			c0,1.271,0.146,2.224,0.438,2.859c0.292,0.635,0.787,0.953,1.484,0.953s1.195-0.315,1.492-0.945
			c0.297-0.63,0.445-1.586,0.445-2.867c0-1.261-0.148-2.208-0.445-2.844c-0.297-0.636-0.794-0.953-1.492-0.953
			S-13.416-2.636-13.707-2C-13.999-1.365-14.145-0.417-14.145,0.844z M-4.807-0.187c0.948,0,1.703,0.237,2.266,0.711
			c0.563,0.474,0.844,1.143,0.844,2.008c0,0.969-0.305,1.727-0.914,2.273s-1.461,0.82-2.555,0.82c-0.469,0-0.914-0.042-1.336-0.125
			c-0.422-0.083-0.779-0.208-1.07-0.375V4.047c0.313,0.188,0.693,0.336,1.141,0.445s0.875,0.164,1.281,0.164
			c0.688,0,1.242-0.162,1.664-0.484c0.422-0.323,0.633-0.828,0.633-1.516c0-0.604-0.188-1.07-0.563-1.398s-0.963-0.492-1.766-0.492
			c-0.25,0-0.531,0.021-0.844,0.063c-0.313,0.042-0.563,0.088-0.75,0.141l-0.563-0.375l0.344-4.375h4.656v1.047h-3.688l-0.219,2.688
			c0.146-0.031,0.346-0.063,0.602-0.094S-5.109-0.187-4.807-0.187z"/>
	</g>
	<g transform="translate(67.7222,107.2222)">
		<path fill="#262626" d="M-27.203,0.844c0,1-0.104,1.857-0.313,2.57s-0.537,1.26-0.984,1.641s-1.047,0.57-1.797,0.57
			c-1.052,0-1.826-0.422-2.32-1.266s-0.742-2.016-0.742-3.516c0-1,0.102-1.857,0.305-2.57s0.529-1.258,0.977-1.633
			s1.042-0.563,1.781-0.563c1.042,0,1.818,0.417,2.328,1.25S-27.203-0.667-27.203,0.844z M-32.219,0.844
			c0,1.271,0.146,2.224,0.438,2.859s0.787,0.953,1.484,0.953s1.195-0.315,1.492-0.945s0.445-1.586,0.445-2.867
			c0-1.26-0.148-2.208-0.445-2.844s-0.794-0.953-1.492-0.953S-31.49-2.635-31.781-2S-32.219-0.417-32.219,0.844z M-25.522,4.797
			c0-0.323,0.078-0.549,0.234-0.68s0.344-0.195,0.563-0.195s0.409,0.065,0.57,0.195s0.242,0.357,0.242,0.68
			c0,0.313-0.081,0.539-0.242,0.68s-0.352,0.211-0.57,0.211s-0.406-0.07-0.563-0.211S-25.522,5.109-25.522,4.797z M-16.129,0.844
			c0,1-0.104,1.857-0.313,2.57s-0.537,1.26-0.984,1.641s-1.047,0.57-1.797,0.57c-1.052,0-1.826-0.422-2.32-1.266
			s-0.742-2.016-0.742-3.516c0-1,0.102-1.857,0.305-2.57s0.529-1.258,0.977-1.633s1.042-0.563,1.781-0.563
			c1.042,0,1.818,0.417,2.328,1.25S-16.129-0.667-16.129,0.844z M-21.145,0.844c0,1.271,0.146,2.224,0.438,2.859
			s0.787,0.953,1.484,0.953s1.195-0.315,1.492-0.945s0.445-1.586,0.445-2.867c0-1.26-0.148-2.208-0.445-2.844
			s-0.794-0.953-1.492-0.953S-20.416-2.635-20.707-2S-21.145-0.417-21.145,0.844z M-11.807-0.188c0.948,0,1.703,0.237,2.266,0.711
			s0.844,1.143,0.844,2.008c0,0.969-0.305,1.727-0.914,2.273s-1.461,0.82-2.555,0.82c-0.469,0-0.914-0.042-1.336-0.125
			s-0.779-0.208-1.07-0.375V4.047c0.313,0.188,0.693,0.336,1.141,0.445s0.875,0.164,1.281,0.164c0.688,0,1.242-0.162,1.664-0.484
			s0.633-0.828,0.633-1.516c0-0.604-0.188-1.07-0.563-1.398s-0.963-0.492-1.766-0.492c-0.25,0-0.531,0.021-0.844,0.063
			s-0.563,0.088-0.75,0.141l-0.563-0.375l0.344-4.375h4.656v1.047h-3.688l-0.219,2.688c0.146-0.031,0.346-0.063,0.602-0.094
			S-12.109-0.188-11.807-0.188z M-4.266-0.188c0.948,0,1.703,0.237,2.266,0.711s0.844,1.143,0.844,2.008
			c0,0.969-0.305,1.727-0.914,2.273s-1.461,0.82-2.555,0.82c-0.469,0-0.914-0.042-1.336-0.125s-0.779-0.208-1.07-0.375V4.047
			c0.313,0.188,0.693,0.336,1.141,0.445s0.875,0.164,1.281,0.164c0.688,0,1.242-0.162,1.664-0.484s0.633-0.828,0.633-1.516
			c0-0.604-0.188-1.07-0.563-1.398s-0.963-0.492-1.766-0.492c-0.25,0-0.531,0.021-0.844,0.063s-0.563,0.088-0.75,0.141l-0.563-0.375
			l0.344-4.375h4.656v1.047h-3.688l-0.219,2.688c0.146-0.031,0.346-0.063,0.602-0.094S-4.568-0.188-4.266-0.188z"/>
	</g>
	<g transform="translate(67.7222,69.1111)">
		<path fill="#262626" d="M-20.203,0.844c0,1-0.104,1.856-0.313,2.57c-0.208,0.713-0.537,1.26-0.984,1.64
			c-0.448,0.38-1.047,0.57-1.797,0.57c-1.052,0-1.826-0.422-2.32-1.266c-0.495-0.843-0.742-2.015-0.742-3.515
			c0-1,0.102-1.857,0.305-2.571c0.203-0.713,0.529-1.258,0.977-1.633s1.042-0.563,1.781-0.563c1.042,0,1.818,0.417,2.328,1.25
			C-20.459-1.839-20.203-0.667-20.203,0.844z M-25.219,0.844c0,1.271,0.146,2.224,0.438,2.859c0.292,0.636,0.787,0.953,1.484,0.953
			s1.195-0.315,1.492-0.945c0.297-0.63,0.445-1.586,0.445-2.867c0-1.261-0.148-2.208-0.445-2.844
			c-0.297-0.635-0.794-0.953-1.492-0.953S-24.49-2.635-24.781-2C-25.073-1.365-25.219-0.417-25.219,0.844z M-18.522,4.797
			c0-0.323,0.078-0.549,0.234-0.68c0.156-0.13,0.344-0.195,0.563-0.195s0.409,0.065,0.57,0.195c0.162,0.13,0.242,0.357,0.242,0.68
			c0,0.313-0.081,0.539-0.242,0.68c-0.162,0.14-0.352,0.21-0.57,0.21s-0.406-0.07-0.563-0.21
			C-18.443,5.336-18.522,5.109-18.522,4.797z M-9.129,0.844c0,1-0.104,1.856-0.313,2.57c-0.208,0.713-0.537,1.26-0.984,1.64
			c-0.448,0.38-1.047,0.57-1.797,0.57c-1.052,0-1.826-0.422-2.32-1.266c-0.495-0.843-0.742-2.015-0.742-3.515
			c0-1,0.102-1.857,0.305-2.571c0.203-0.713,0.529-1.258,0.977-1.633s1.042-0.563,1.781-0.563c1.042,0,1.818,0.417,2.328,1.25
			C-9.384-1.839-9.129-0.667-9.129,0.844z M-14.145,0.844c0,1.271,0.146,2.224,0.438,2.859c0.292,0.636,0.787,0.953,1.484,0.953
			s1.195-0.315,1.492-0.945c0.297-0.63,0.445-1.586,0.445-2.867c0-1.261-0.148-2.208-0.445-2.844
			c-0.297-0.635-0.794-0.953-1.492-0.953S-13.416-2.635-13.707-2C-13.999-1.365-14.145-0.417-14.145,0.844z M-7.666,1.531
			c0-0.667,0.057-1.323,0.172-1.969c0.115-0.646,0.326-1.229,0.633-1.75c0.307-0.521,0.74-0.938,1.297-1.25
			c0.557-0.312,1.273-0.468,2.148-0.468c0.177,0,0.377,0.008,0.602,0.023c0.224,0.016,0.404,0.044,0.539,0.086v0.984
			C-2.432-2.865-2.606-2.904-2.799-2.93C-2.992-2.956-3.192-2.969-3.4-2.969c-0.594,0-1.088,0.099-1.484,0.297
			C-5.281-2.474-5.596-2.203-5.83-1.86s-0.404,0.742-0.508,1.195s-0.167,0.935-0.188,1.445h0.078
			c0.198-0.302,0.474-0.56,0.828-0.773c0.354-0.213,0.813-0.32,1.375-0.32c0.802,0,1.451,0.245,1.945,0.734
			c0.495,0.49,0.742,1.188,0.742,2.094c0,0.969-0.268,1.729-0.805,2.281C-2.898,5.349-3.614,5.625-4.51,5.625
			c-0.594,0-1.127-0.146-1.602-0.438c-0.474-0.292-0.852-0.742-1.133-1.352S-7.666,2.458-7.666,1.531z M-4.525,4.672
			c0.552,0,0.995-0.177,1.328-0.531c0.333-0.354,0.5-0.896,0.5-1.625c0-0.594-0.148-1.063-0.445-1.406
			c-0.297-0.343-0.742-0.515-1.336-0.515c-0.417,0-0.776,0.083-1.078,0.25c-0.302,0.167-0.537,0.38-0.703,0.64
			C-6.426,1.745-6.51,2.01-6.51,2.281c0,0.375,0.073,0.748,0.219,1.117c0.146,0.37,0.367,0.675,0.664,0.914
			C-5.33,4.552-4.963,4.672-4.525,4.672z"/>
	</g>
	<g transform="translate(67.7222,31)">
		<path fill="#262626" d="M-27.203,0.844c0,1-0.104,1.857-0.313,2.57s-0.537,1.26-0.984,1.641s-1.047,0.57-1.797,0.57
			c-1.052,0-1.826-0.422-2.32-1.266s-0.742-2.016-0.742-3.516c0-1,0.102-1.857,0.305-2.57s0.529-1.258,0.977-1.633
			s1.042-0.563,1.781-0.563c1.042,0,1.818,0.417,2.328,1.25S-27.203-0.667-27.203,0.844z M-32.219,0.844
			c0,1.271,0.146,2.224,0.438,2.859s0.787,0.953,1.484,0.953s1.195-0.315,1.492-0.945s0.445-1.586,0.445-2.867
			c0-1.26-0.148-2.208-0.445-2.844s-0.794-0.953-1.492-0.953S-31.49-2.635-31.781-2S-32.219-0.417-32.219,0.844z M-25.522,4.797
			c0-0.323,0.078-0.549,0.234-0.68s0.344-0.195,0.563-0.195s0.409,0.065,0.57,0.195s0.242,0.357,0.242,0.68
			c0,0.313-0.081,0.539-0.242,0.68s-0.352,0.211-0.57,0.211s-0.406-0.07-0.563-0.211S-25.522,5.109-25.522,4.797z M-16.129,0.844
			c0,1-0.104,1.857-0.313,2.57s-0.537,1.26-0.984,1.641s-1.047,0.57-1.797,0.57c-1.052,0-1.826-0.422-2.32-1.266
			s-0.742-2.016-0.742-3.516c0-1,0.102-1.857,0.305-2.57s0.529-1.258,0.977-1.633s1.042-0.563,1.781-0.563
			c1.042,0,1.818,0.417,2.328,1.25S-16.129-0.667-16.129,0.844z M-21.145,0.844c0,1.271,0.146,2.224,0.438,2.859
			s0.787,0.953,1.484,0.953s1.195-0.315,1.492-0.945s0.445-1.586,0.445-2.867c0-1.26-0.148-2.208-0.445-2.844
			s-0.794-0.953-1.492-0.953S-20.416-2.635-20.707-2S-21.145-0.417-21.145,0.844z M-14.666,1.531c0-0.667,0.057-1.323,0.172-1.969
			s0.326-1.229,0.633-1.75s0.74-0.938,1.297-1.25s1.273-0.469,2.148-0.469c0.177,0,0.377,0.008,0.602,0.023s0.404,0.044,0.539,0.086
			v0.984C-9.432-2.865-9.606-2.904-9.799-2.93s-0.393-0.039-0.602-0.039c-0.594,0-1.088,0.099-1.484,0.297s-0.711,0.469-0.945,0.813
			s-0.404,0.742-0.508,1.195s-0.167,0.935-0.188,1.445h0.078c0.198-0.302,0.474-0.56,0.828-0.773s0.813-0.32,1.375-0.32
			c0.802,0,1.451,0.245,1.945,0.734s0.742,1.188,0.742,2.094c0,0.969-0.268,1.729-0.805,2.281s-1.252,0.828-2.148,0.828
			c-0.594,0-1.127-0.146-1.602-0.438s-0.852-0.742-1.133-1.352S-14.666,2.458-14.666,1.531z M-11.525,4.672
			c0.552,0,0.995-0.177,1.328-0.531s0.5-0.896,0.5-1.625c0-0.594-0.148-1.063-0.445-1.406s-0.742-0.516-1.336-0.516
			c-0.417,0-0.776,0.083-1.078,0.25s-0.537,0.38-0.703,0.641s-0.25,0.526-0.25,0.797c0,0.375,0.073,0.748,0.219,1.117
			s0.367,0.674,0.664,0.914S-11.963,4.672-11.525,4.672z M-4.266-0.188c0.948,0,1.703,0.237,2.266,0.711s0.844,1.143,0.844,2.008
			c0,0.969-0.305,1.727-0.914,2.273s-1.461,0.82-2.555,0.82c-0.469,0-0.914-0.042-1.336-0.125s-0.779-0.208-1.07-0.375V4.047
			c0.313,0.188,0.693,0.336,1.141,0.445s0.875,0.164,1.281,0.164c0.688,0,1.242-0.162,1.664-0.484s0.633-0.828,0.633-1.516
			c0-0.604-0.188-1.07-0.563-1.398s-0.963-0.492-1.766-0.492c-0.25,0-0.531,0.021-0.844,0.063s-0.563,0.088-0.75,0.141l-0.563-0.375
			l0.344-4.375h4.656v1.047h-3.688l-0.219,2.688c0.146-0.031,0.346-0.063,0.602-0.094S-4.568-0.188-4.266-0.188z"/>
	</g>
	<g transform="translate(290.0003,28.25)">
		<path d="M-80.625-5l-2.578-8.406h-0.063c0.01,0.208,0.026,0.51,0.046,0.906c0.021,0.396,0.042,0.823,0.063,1.281
			c0.021,0.458,0.031,0.87,0.031,1.234V-5h-2.031v-10.703h3.094l2.531,8.188h0.047l2.688-8.188h3.094V-5h-2.109v-5.063
			c0-0.344,0.005-0.737,0.016-1.18c0.01-0.443,0.023-0.859,0.039-1.25s0.028-0.69,0.039-0.898h-0.062L-78.531-5H-80.625z
			 M-68.269-13.344c1.125,0,2.018,0.323,2.679,0.969c0.662,0.646,0.992,1.563,0.992,2.75v1.078h-5.281
			c0.021,0.635,0.208,1.133,0.563,1.492c0.354,0.359,0.849,0.539,1.485,0.539c0.531,0,1.01-0.052,1.438-0.156
			c0.427-0.104,0.87-0.266,1.328-0.484v1.719c-0.396,0.198-0.817,0.346-1.265,0.445c-0.448,0.099-0.985,0.148-1.61,0.148
			c-0.823,0-1.549-0.154-2.18-0.461c-0.63-0.307-1.125-0.771-1.484-1.391s-0.539-1.398-0.539-2.336c0-0.958,0.164-1.755,0.492-2.391
			s0.781-1.115,1.359-1.438S-69.04-13.344-68.269-13.344z M-68.254-11.75c-0.427,0-0.784,0.141-1.07,0.422
			c-0.287,0.281-0.456,0.713-0.508,1.297h3.14c-0.01-0.5-0.14-0.912-0.39-1.234S-67.722-11.75-68.254-11.75z M-59.709-13.359
			c1.104,0,1.948,0.237,2.531,0.711s0.875,1.206,0.875,2.195V-5h-1.563l-0.438-1.109h-0.063c-0.344,0.438-0.711,0.758-1.102,0.961
			s-0.924,0.305-1.602,0.305c-0.74,0-1.349-0.213-1.828-0.641s-0.719-1.078-0.719-1.953s0.305-1.521,0.914-1.938
			s1.529-0.646,2.758-0.688l1.422-0.031v-0.359c0-0.438-0.112-0.755-0.336-0.953c-0.224-0.198-0.539-0.297-0.945-0.297
			c-0.396,0-0.784,0.057-1.164,0.172c-0.38,0.115-0.763,0.255-1.148,0.422l-0.734-1.516c0.448-0.229,0.938-0.409,1.469-0.539
			S-60.292-13.359-59.709-13.359z M-59.396-8.766c-0.719,0.021-1.219,0.151-1.5,0.391s-0.422,0.552-0.422,0.938
			c0,0.344,0.102,0.588,0.305,0.734s0.461,0.219,0.773,0.219c0.479,0,0.886-0.143,1.219-0.43c0.333-0.287,0.5-0.69,0.5-1.211v-0.672
			L-59.396-8.766z M-49.663-13.344c0.886,0,1.594,0.237,2.125,0.711s0.797,1.237,0.797,2.289V-5h-2.234v-4.781
			c0-0.594-0.106-1.039-0.32-1.336c-0.213-0.297-0.549-0.445-1.008-0.445c-0.677,0-1.141,0.234-1.391,0.703s-0.375,1.135-0.375,2V-5
			h-2.234v-8.188h1.703l0.313,1.047h0.109c0.261-0.417,0.62-0.721,1.078-0.914C-50.642-13.248-50.163-13.344-49.663-13.344z
			 M-37.403-15.703c1.385,0,2.396,0.297,3.031,0.891c0.636,0.594,0.953,1.412,0.953,2.453c0,0.615-0.13,1.195-0.391,1.742
			c-0.26,0.547-0.692,0.984-1.297,1.313c-0.604,0.328-1.427,0.492-2.469,0.492h-0.984V-5h-2.266v-10.703H-37.403z M-37.513-13.844
			h-1.047v3.172h0.75c0.646,0,1.157-0.127,1.532-0.383s0.563-0.669,0.563-1.242C-35.715-13.328-36.314-13.844-37.513-13.844z
			 M-25.54-5h-6.172v-10.703h6.172v1.859h-3.906v2.344h3.641v1.859h-3.641v2.766h3.906V-5z M-19.461-5h-2.266v-8.813h-2.906v-1.891
			h8.094v1.891h-2.922V-5z M-6.403-5h-2.266v-4.625h-4.25V-5h-2.266v-10.703h2.266v4.188h4.25v-4.188h2.266V-5z M4.237-13.969
			c-0.864,0-1.528,0.326-1.992,0.977s-0.695,1.539-0.695,2.664c0,1.146,0.214,2.031,0.641,2.656s1.109,0.938,2.047,0.938
			c0.448,0,0.888-0.052,1.32-0.156s0.903-0.245,1.414-0.422v1.906C6.503-5.219,6.039-5.078,5.581-4.984S4.607-4.844,4.034-4.844
			c-1.104,0-2.013-0.229-2.727-0.688S0.068-6.63-0.271-7.453s-0.508-1.787-0.508-2.891c0-1.073,0.195-2.026,0.586-2.859
			s0.958-1.484,1.703-1.953s1.653-0.703,2.727-0.703c0.531,0,1.065,0.068,1.602,0.203s1.05,0.318,1.539,0.547l-0.734,1.844
			c-0.406-0.188-0.81-0.352-1.211-0.492S4.633-13.969,4.237-13.969z M16.2-9.109c0,1.365-0.357,2.417-1.07,3.156
			c-0.714,0.74-1.686,1.109-2.915,1.109c-0.76,0-1.439-0.167-2.038-0.5c-0.6-0.333-1.068-0.818-1.406-1.453
			C8.431-7.432,8.262-8.203,8.262-9.109c0-1.365,0.356-2.412,1.07-3.141c0.713-0.729,1.689-1.094,2.93-1.094
			c0.76,0,1.438,0.167,2.031,0.5s1.06,0.813,1.398,1.438C16.03-10.781,16.2-10.016,16.2-9.109z M10.544-9.109
			c0,0.813,0.133,1.424,0.398,1.836s0.7,0.617,1.305,0.617c0.583,0,1.008-0.206,1.273-0.617s0.398-1.023,0.398-1.836
			s-0.133-1.422-0.398-1.828s-0.695-0.609-1.289-0.609s-1.023,0.203-1.289,0.609S10.544-9.922,10.544-9.109z M27.354-13.344
			c0.937,0,1.643,0.237,2.116,0.711c0.475,0.474,0.711,1.237,0.711,2.289V-5h-2.234v-4.781c0-1.188-0.411-1.781-1.234-1.781
			c-0.594,0-1.016,0.211-1.266,0.633s-0.375,1.029-0.375,1.82V-5h-2.234v-4.781c0-1.188-0.406-1.781-1.219-1.781
			c-0.625,0-1.055,0.234-1.289,0.703s-0.351,1.135-0.351,2V-5h-2.235v-8.188h1.703l0.313,1.047h0.109
			c0.25-0.417,0.594-0.721,1.031-0.914s0.891-0.289,1.359-0.289c0.594,0,1.102,0.099,1.523,0.297s0.743,0.5,0.961,0.906h0.203
			c0.25-0.417,0.597-0.721,1.04-0.914C26.429-13.248,26.884-13.344,27.354-13.344z M36.556-13.344c0.917,0,1.659,0.359,2.227,1.078
			c0.568,0.719,0.852,1.771,0.852,3.156s-0.294,2.443-0.883,3.172c-0.588,0.729-1.341,1.094-2.258,1.094
			c-0.594,0-1.064-0.109-1.414-0.328c-0.349-0.219-0.633-0.463-0.852-0.734h-0.125c0.084,0.427,0.125,0.828,0.125,1.203v3.297
			h-2.234v-11.781h1.813l0.313,1.063h0.109c0.219-0.333,0.514-0.62,0.883-0.859C35.481-13.224,35.963-13.344,36.556-13.344z
			 M35.838-11.563c-0.583,0-0.992,0.182-1.227,0.547s-0.361,0.917-0.383,1.656v0.234c0,0.792,0.117,1.398,0.352,1.82
			s0.664,0.633,1.289,0.633c0.511,0,0.889-0.211,1.133-0.633c0.245-0.422,0.367-1.034,0.367-1.836
			C37.369-10.755,36.859-11.563,35.838-11.563z M44.539-13.359c1.104,0,1.948,0.237,2.531,0.711
			c0.584,0.474,0.875,1.206,0.875,2.195V-5h-1.563l-0.438-1.109h-0.063c-0.344,0.438-0.711,0.758-1.102,0.961
			s-0.924,0.305-1.602,0.305c-0.739,0-1.349-0.213-1.828-0.641c-0.479-0.427-0.719-1.078-0.719-1.953s0.305-1.521,0.914-1.938
			s1.529-0.646,2.758-0.688l1.422-0.031v-0.359c0-0.438-0.111-0.755-0.336-0.953c-0.224-0.198-0.539-0.297-0.945-0.297
			c-0.396,0-0.783,0.057-1.164,0.172c-0.38,0.115-0.763,0.255-1.148,0.422l-0.734-1.516c0.448-0.229,0.938-0.409,1.469-0.539
			S43.956-13.359,44.539-13.359z M44.851-8.766c-0.719,0.021-1.219,0.151-1.5,0.391s-0.422,0.552-0.422,0.938
			c0,0.344,0.102,0.588,0.305,0.734s0.461,0.219,0.773,0.219c0.479,0,0.886-0.143,1.219-0.43c0.334-0.287,0.5-0.69,0.5-1.211v-0.672
			L44.851-8.766z M54.522-13.344c0.104,0,0.232,0.005,0.383,0.016c0.151,0.01,0.273,0.026,0.367,0.047L55.1-11.188
			c-0.072-0.01-0.177-0.023-0.313-0.039c-0.135-0.016-0.25-0.023-0.344-0.023c-0.385,0-0.752,0.068-1.102,0.203
			c-0.349,0.135-0.63,0.352-0.844,0.648c-0.213,0.297-0.32,0.706-0.32,1.227V-5h-2.234v-8.188h1.688l0.328,1.375h0.109
			c0.24-0.417,0.57-0.776,0.992-1.078S53.97-13.344,54.522-13.344z M57.658-16.406c0.333,0,0.619,0.078,0.858,0.234
			c0.24,0.156,0.36,0.443,0.36,0.859s-0.12,0.706-0.36,0.867c-0.239,0.162-0.525,0.242-0.858,0.242
			c-0.344,0-0.633-0.081-0.867-0.242s-0.352-0.451-0.352-0.867s0.117-0.703,0.352-0.859S57.314-16.406,57.658-16.406z
			 M58.766-13.188V-5h-2.233v-8.188H58.766z M66.677-7.438c0,0.833-0.295,1.474-0.883,1.922c-0.589,0.448-1.461,0.672-2.617,0.672
			c-0.573,0-1.063-0.039-1.469-0.117s-0.818-0.201-1.234-0.367v-1.844c0.438,0.198,0.911,0.362,1.422,0.492
			c0.51,0.13,0.963,0.195,1.359,0.195c0.438,0,0.75-0.065,0.938-0.195s0.281-0.299,0.281-0.508c0-0.146-0.039-0.273-0.117-0.383
			s-0.242-0.234-0.492-0.375s-0.641-0.32-1.172-0.539c-0.511-0.219-0.93-0.435-1.258-0.648s-0.573-0.474-0.734-0.781
			c-0.162-0.307-0.242-0.69-0.242-1.148c0-0.76,0.294-1.331,0.883-1.711c0.588-0.38,1.377-0.57,2.367-0.57
			c0.51,0,0.994,0.049,1.453,0.148c0.458,0.099,0.932,0.268,1.422,0.508l-0.672,1.594c-0.406-0.167-0.789-0.307-1.148-0.422
			s-0.722-0.172-1.086-0.172c-0.667,0-1,0.177-1,0.531c0,0.135,0.044,0.255,0.133,0.359c0.088,0.104,0.255,0.216,0.5,0.336
			c0.244,0.12,0.606,0.279,1.086,0.477c0.469,0.198,0.872,0.398,1.211,0.602c0.338,0.203,0.602,0.456,0.789,0.758
			S66.677-7.927,66.677-7.438z M75.608-9.109c0,1.365-0.357,2.417-1.07,3.156c-0.714,0.74-1.686,1.109-2.914,1.109
			c-0.761,0-1.44-0.167-2.039-0.5c-0.6-0.333-1.068-0.818-1.406-1.453c-0.339-0.635-0.508-1.406-0.508-2.313
			c0-1.365,0.356-2.412,1.07-3.141c0.713-0.729,1.689-1.094,2.93-1.094c0.76,0,1.438,0.167,2.031,0.5s1.06,0.813,1.398,1.438
			C75.438-10.781,75.608-10.016,75.608-9.109z M69.952-9.109c0,0.813,0.133,1.424,0.398,1.836s0.7,0.617,1.305,0.617
			c0.583,0,1.008-0.206,1.273-0.617s0.398-1.023,0.398-1.836s-0.133-1.422-0.398-1.828s-0.695-0.609-1.289-0.609
			s-1.023,0.203-1.289,0.609S69.952-9.922,69.952-9.109z M81.794-13.344c0.885,0,1.594,0.237,2.125,0.711s0.797,1.237,0.797,2.289
			V-5h-2.234v-4.781c0-0.594-0.107-1.039-0.32-1.336c-0.214-0.297-0.55-0.445-1.008-0.445c-0.678,0-1.141,0.234-1.391,0.703
			s-0.375,1.135-0.375,2V-5h-2.234v-8.188h1.703l0.313,1.047h0.109c0.26-0.417,0.619-0.721,1.078-0.914
			C80.814-13.248,81.294-13.344,81.794-13.344z"/>
	</g>
	<g>
		<path fill="none" stroke="#0000FF" stroke-width="2.6389" stroke-linejoin="round" stroke-miterlimit="10" d="M75.148,354.673
			l4.297-2.812l4.297-7.62l4.297-0.437l4.297-2.449l4.297,2.627l4.297-2.801l4.297-2.857l4.297-9.316l4.297-1.527l4.297-2.851
			l4.297-1.956l4.297-1.621l4.297-3.842l4.297-1.817l4.297-1.124l4.297-3.508l4.297-4.377l4.297-7.527l4.297-3.156l4.297-8.541
			l4.297,2.891l4.297-2.988l4.297-0.982l4.297-2.144l4.297-2.782l4.297,3.576l4.297-2.791l4.297,2.076l4.297,0.752l4.297,1.813
			l4.297-0.041l4.297,0.568l4.297,3.814l4.297-3.426l4.297,2.992l4.297-1.33l4.297-4.678l4.297-9.555l4.297-8.971l4.297-7.454
			l4.297-11.282l4.297-13.959l4.297-14.781l4.297-21.045l4.297-21.707l4.297-21.764l4.297-16.388l4.297-11.531l4.297-6.361
			L290,112.18l4.297-1.485l4.297-7.227l4.298-0.938l4.297,2.696l4.297,1.825l4.297,7.633l4.297,15.634l4.297,18.998l4.297,12.506
			l4.298,13.216l4.297,3.159l4.297,2.462l4.297,6.958l4.297,11.997l4.297,9.633l4.298,7.168l4.297,11.404l4.297,12.748l4.297,7.435
			l4.297,3.71l4.297,2.334l4.297,7.703l4.298,7.795l4.297,9.708l4.297,4.017l4.297,7.764l4.297-1.871l4.297,9.43l4.298,4.204
			l4.297-0.74l4.297-2.044l4.297,5.867l4.297,9.657l4.297,4.771l4.297,3.567l4.298-1.01l4.297-4.975l4.297,4.955l4.297,1.066
			l4.297-0.249l4.297-1.921l4.298,3.004l4.297,4.373l4.297,6.463l4.297-2.33l4.297-4.057l4.297-0.191l4.298,1.02l4.297,2.469
			l4.297,11.377"/>
		<path fill="none" stroke="#FF0000" stroke-width="2.6389" stroke-linejoin="round" stroke-miterlimit="10" d="M75.148,310.932
			l4.297-5.624l4.297,0.512l4.297-2.956l4.297-2.581l4.297,1.402l4.297-3.214l4.297,0.402l4.297-2.511l4.297-2.339l4.297-0.559
			l4.297-4.677l4.297-5.169l4.297-0.908l4.297-0.878l4.297-1.245l4.297,0.615l4.297,0.228l4.297-0.714l4.297-0.612l4.297,0.198
			l4.297,1.313l4.297-1.825l4.297-1.957l4.297,1.966l4.297-3.394l4.297-2.168l4.297,0.152l4.297-3.08l4.297-5.25l4.297-3.209
			l4.297-6.456l4.297,0.481l4.297-6.631l4.297-7.854l4.297-8.467l4.297-8.688l4.297-10.768l4.297-9.749l4.297-12.577l4.297-11.919
			l4.297-13.926l4.297-15.229l4.297-19.7l4.297-24.011l4.297-21.823l4.297-14.716l4.297-7.981l4.297-8.563l4.297,5.387L290,62.544
			l4.297,7.089l4.297,5.306l4.298,10.858l4.297,13.425l4.297,16.006l4.297,22.425l4.297,26.177l4.297,21.917l4.297,15.388
			l4.298,15.997l4.297,15.278l4.297,3.219l4.297,7.895l4.297,4.559l4.297,4l4.298-0.619l4.297-0.443l4.297,2.952l4.297-3.716
			l4.297-0.757l4.297-0.87l4.297,4.918l4.298-0.391l4.297,0.756l4.297,5.797h4.297l4.297,4.613l4.297,4.541l4.298,2.064l4.297,5.562
			l4.297-0.498l4.297,7.351l4.297,3.361l4.297,3.258l4.297,0.139l4.298,1.973l4.297,2.846l4.297-3.953l4.297-0.006l4.297-2.457
			l4.297-1.82l4.298,0.601l4.297-1.741l4.297,3.871l4.297-2.414l4.297,0.096l4.297-0.336l4.298,0.25l4.297-2.326l4.297-3.27"/>
	</g>
	<g>
		<path fill="#FFFFFF" d="M496,80V42h-82v38H496z"/>
	</g>
	<g transform="translate(460.2543,52.3636)">
		<path d="M6.39-1.937V4.5H5.531L5.375,3.641H5.328C5.12,3.985,4.831,4.235,4.461,4.391c-0.369,0.156-0.763,0.234-1.18,0.234
			c-0.771,0-1.352-0.188-1.742-0.563S0.953,3.094,0.953,2.281v-4.219h1.063v4.141c0,1.031,0.475,1.547,1.422,1.547
			c0.719,0,1.217-0.201,1.492-0.602c0.276-0.401,0.414-0.977,0.414-1.727v-3.359H6.39z M11.415-2.047
			c0.792,0,1.43,0.276,1.914,0.828c0.484,0.552,0.727,1.38,0.727,2.484c0,1.104-0.242,1.94-0.727,2.508
			c-0.484,0.567-1.128,0.852-1.93,0.852c-0.489,0-0.896-0.094-1.219-0.281S9.602,3.938,9.415,3.688H9.337
			c0.021,0.135,0.039,0.307,0.055,0.516c0.016,0.208,0.023,0.385,0.023,0.531v2.641H8.352v-9.313h0.875l0.141,0.875h0.047
			c0.188-0.271,0.438-0.503,0.75-0.695C10.477-1.951,10.894-2.047,11.415-2.047z M11.227-1.156c-0.656,0-1.12,0.182-1.391,0.547
			C9.566-0.245,9.425,0.313,9.415,1.063v0.203c0,0.792,0.13,1.403,0.391,1.836c0.261,0.432,0.739,0.648,1.438,0.648
			c0.396,0,0.719-0.109,0.969-0.328s0.438-0.513,0.563-0.883c0.125-0.37,0.188-0.794,0.188-1.273c0-0.74-0.141-1.328-0.422-1.766
			S11.821-1.156,11.227-1.156z"/>
	</g>
	<g>
		
			<line fill="none" stroke="#0000FF" stroke-width="2.6389" stroke-linejoin="round" stroke-miterlimit="10" x1="417.972" y1="52.364" x2="457.275" y2="52.364"/>
	</g>
	<g transform="translate(460.2543,69.6364)">
		<path d="M3.296,4.625c-0.802,0-1.442-0.278-1.922-0.836C0.896,3.232,0.656,2.401,0.656,1.297c0-1.104,0.242-1.938,0.727-2.5
			s1.128-0.844,1.93-0.844c0.5,0,0.906,0.091,1.219,0.273C4.843-1.591,5.099-1.37,5.296-1.11h0.078
			C5.365-1.214,5.349-1.367,5.328-1.57C5.307-1.774,5.296-1.932,5.296-2.047v-2.578h1.063V4.5H5.515L5.359,3.64H5.296
			C5.109,3.911,4.857,4.143,4.539,4.336C4.221,4.529,3.807,4.625,3.296,4.625z M3.468,3.75c0.678,0,1.154-0.188,1.43-0.563
			C5.174,2.812,5.312,2.25,5.312,1.5V1.312c0-0.802-0.13-1.417-0.391-1.844c-0.26-0.427-0.75-0.641-1.469-0.641
			c-0.563,0-0.986,0.227-1.273,0.68C1.893-0.039,1.75,0.562,1.75,1.312c0,0.771,0.144,1.37,0.43,1.797
			C2.466,3.536,2.896,3.75,3.468,3.75z M13.91,1.265c0,1.073-0.271,1.901-0.813,2.484c-0.541,0.583-1.271,0.875-2.188,0.875
			c-0.562,0-1.067-0.13-1.516-0.391c-0.447-0.26-0.799-0.641-1.055-1.141c-0.255-0.5-0.383-1.109-0.383-1.828
			c0-1.063,0.269-1.88,0.806-2.453c0.536-0.573,1.263-0.859,2.18-0.859c0.594,0,1.111,0.13,1.555,0.391
			c0.442,0.261,0.788,0.636,1.038,1.125C13.785-0.042,13.91,0.557,13.91,1.265z M9.051,1.265c0,0.761,0.15,1.365,0.453,1.813
			c0.302,0.448,0.781,0.672,1.438,0.672c0.646,0,1.119-0.224,1.422-0.672c0.302-0.448,0.453-1.052,0.453-1.813
			c0-0.76-0.151-1.354-0.453-1.781c-0.303-0.427-0.782-0.641-1.438-0.641c-0.656,0-1.133,0.214-1.43,0.641
			C9.2-0.089,9.051,0.505,9.051,1.265z M19.655,0.859c-0.104-0.323-0.195-0.643-0.273-0.961c-0.078-0.317-0.133-0.565-0.164-0.742
			h-0.047c-0.042,0.177-0.097,0.425-0.164,0.742c-0.067,0.318-0.159,0.644-0.273,0.977l-1.156,3.609h-1.203l-1.766-6.422h1.094
			l0.891,3.422c0.094,0.344,0.18,0.693,0.258,1.047c0.078,0.354,0.133,0.646,0.164,0.875h0.047c0.031-0.135,0.07-0.302,0.117-0.5
			c0.047-0.198,0.097-0.409,0.148-0.633c0.052-0.224,0.109-0.419,0.172-0.586l1.141-3.625h1.141l1.109,3.625
			c0.094,0.271,0.183,0.565,0.266,0.883c0.083,0.318,0.141,0.591,0.172,0.82h0.047c0.021-0.198,0.073-0.471,0.156-0.82
			c0.083-0.349,0.172-0.711,0.266-1.086l0.906-3.422h1.078l-1.781,6.422h-1.234L19.655,0.859z M27.923-2.047
			c0.771,0,1.352,0.185,1.742,0.555c0.391,0.37,0.586,0.972,0.586,1.805V4.5H29.22V0.39c0-1.031-0.484-1.547-1.453-1.547
			c-0.709,0-1.198,0.198-1.469,0.594c-0.271,0.396-0.406,0.969-0.406,1.719V4.5H24.83v-6.438h0.859l0.156,0.875h0.063
			c0.208-0.333,0.495-0.581,0.859-0.742C27.131-1.966,27.517-2.047,27.923-2.047z"/>
	</g>
	<g>
		
			<line fill="none" stroke="#FF0000" stroke-width="2.6389" stroke-linejoin="round" stroke-miterlimit="10" x1="417.972" y1="69.636" x2="457.275" y2="69.636"/>
	</g>
	<g>
		<path fill="none" stroke="#262626" stroke-width="0.6597" stroke-miterlimit="10" d="M414,80V42h82v38H414z"/>
	</g>
</g>
<g transform="translate(0,420)">
	<circle fill="#808080" cx="0" cy="0" r="2.639"/>
</g>
<g transform="translate(0,420)">
	<path fill="#FFFFDC" d="M0-2.639c1.458,0,2.639,1.182,2.639,2.639l0,0c0,1.457-1.181,2.639-2.639,2.639S-2.639,1.457-2.639,0
		S-1.458-2.639,0-2.639z M0-3.959c-2.186,0-3.958,1.773-3.958,3.959S-2.186,3.959,0,3.959S3.958,2.186,3.958,0l0,0
		C3.958-2.186,2.186-3.959,0-3.959z"/>
</g>
</svg>
